<?xml version="1.0" encoding="UTF-8"?>
<!--Generator: Apple Native CoreSVG 175-->
<!DOCTYPE svg
PUBLIC "-//W3C//DTD SVG 1.1//EN"
       "http://www.w3.org/Graphics/SVG/1.1/DTD/svg11.dtd">
<svg version="1.1" xmlns="http://www.w3.org/2000/svg" xmlns:xlink="http://www.w3.org/1999/xlink" width="3300" height="2200">
 <!--glyph: "uni100307.medium", point size: 100.0, font version: "17.0d11e1", template writer version: "65.1"-->
 <g id="Notes">
  <rect height="2200" id="artboard" style="fill:white;opacity:1" width="3300" x="0" y="0"/>
  <line style="fill:none;stroke:black;opacity:1;stroke-width:0.5;" x1="263" x2="3036" y1="292" y2="292"/>
  <text style="stroke:none;fill:black;font-family:sans-serif;font-size:13;font-weight:bold;" transform="matrix(1 0 0 1 263 322)">Weight/Scale Variations</text>
  <text style="stroke:none;fill:black;font-family:sans-serif;font-size:13;text-anchor:middle;" transform="matrix(1 0 0 1 559.711 322)">Ultralight</text>
  <text style="stroke:none;fill:black;font-family:sans-serif;font-size:13;text-anchor:middle;" transform="matrix(1 0 0 1 856.422 322)">Thin</text>
  <text style="stroke:none;fill:black;font-family:sans-serif;font-size:13;text-anchor:middle;" transform="matrix(1 0 0 1 1153.13 322)">Light</text>
  <text style="stroke:none;fill:black;font-family:sans-serif;font-size:13;text-anchor:middle;" transform="matrix(1 0 0 1 1449.84 322)">Regular</text>
  <text style="stroke:none;fill:black;font-family:sans-serif;font-size:13;text-anchor:middle;" transform="matrix(1 0 0 1 1746.56 322)">Medium</text>
  <text style="stroke:none;fill:black;font-family:sans-serif;font-size:13;text-anchor:middle;" transform="matrix(1 0 0 1 2043.27 322)">Semibold</text>
  <text style="stroke:none;fill:black;font-family:sans-serif;font-size:13;text-anchor:middle;" transform="matrix(1 0 0 1 2339.98 322)">Bold</text>
  <text style="stroke:none;fill:black;font-family:sans-serif;font-size:13;text-anchor:middle;" transform="matrix(1 0 0 1 2636.69 322)">Heavy</text>
  <text style="stroke:none;fill:black;font-family:sans-serif;font-size:13;text-anchor:middle;" transform="matrix(1 0 0 1 2933.4 322)">Black</text>
  <line style="fill:none;stroke:black;opacity:1;stroke-width:0.5;" x1="263" x2="3036" y1="1903" y2="1903"/>
  <g transform="matrix(1 0 0 1 263 1933)">
   <path d="M9.24805 0.830078Q10.8691 0.830078 12.2949 0.214844Q13.7207-0.400391 14.8096-1.49414Q15.8984-2.58789 16.5186-4.01367Q17.1387-5.43945 17.1387-7.05078Q17.1387-8.66211 16.5186-10.0879Q15.8984-11.5137 14.8047-12.6074Q13.7109-13.7012 12.2852-14.3164Q10.8594-14.9316 9.23828-14.9316Q7.62695-14.9316 6.20117-14.3164Q4.77539-13.7012 3.69141-12.6074Q2.60742-11.5137 1.9873-10.0879Q1.36719-8.66211 1.36719-7.05078Q1.36719-5.43945 1.9873-4.01367Q2.60742-2.58789 3.69629-1.49414Q4.78516-0.400391 6.21094 0.214844Q7.63672 0.830078 9.24805 0.830078ZM9.24805-0.654297Q7.91992-0.654297 6.7627-1.14746Q5.60547-1.64062 4.73145-2.51953Q3.85742-3.39844 3.36426-4.56055Q2.87109-5.72266 2.87109-7.05078Q2.87109-8.37891 3.35938-9.54102Q3.84766-10.7031 4.72168-11.582Q5.5957-12.4609 6.75293-12.9541Q7.91016-13.4473 9.23828-13.4473Q10.5762-13.4473 11.7334-12.9541Q12.8906-12.4609 13.7695-11.582Q14.6484-10.7031 15.1465-9.54102Q15.6445-8.37891 15.6445-7.05078Q15.6445-5.72266 15.1514-4.56055Q14.6582-3.39844 13.7842-2.51953Q12.9102-1.64062 11.748-1.14746Q10.5859-0.654297 9.24805-0.654297ZM5.6543-7.05078Q5.6543-6.72852 5.85938-6.52832Q6.06445-6.32812 6.40625-6.32812L8.51562-6.32812L8.51562-4.20898Q8.51562-3.88672 8.71094-3.67676Q8.90625-3.4668 9.23828-3.4668Q9.56055-3.4668 9.77051-3.67676Q9.98047-3.88672 9.98047-4.20898L9.98047-6.32812L12.0898-6.32812Q12.4219-6.32812 12.627-6.52832Q12.832-6.72852 12.832-7.05078Q12.832-7.38281 12.627-7.58789Q12.4219-7.79297 12.0898-7.79297L9.98047-7.79297L9.98047-9.90234Q9.98047-10.2344 9.77051-10.4443Q9.56055-10.6543 9.23828-10.6543Q8.90625-10.6543 8.71094-10.4443Q8.51562-10.2344 8.51562-9.90234L8.51562-7.79297L6.40625-7.79297Q6.06445-7.79297 5.85938-7.58789Q5.6543-7.38281 5.6543-7.05078Z"/>
  </g>
  <g transform="matrix(1 0 0 1 281.867 1933)">
   <path d="M11.709 2.91016Q13.75 2.91016 15.5518 2.12891Q17.3535 1.34766 18.7305-0.0292969Q20.1074-1.40625 20.8887-3.20801Q21.6699-5.00977 21.6699-7.05078Q21.6699-9.0918 20.8887-10.8936Q20.1074-12.6953 18.7305-14.0723Q17.3535-15.4492 15.5469-16.2305Q13.7402-17.0117 11.6992-17.0117Q9.6582-17.0117 7.85645-16.2305Q6.05469-15.4492 4.68262-14.0723Q3.31055-12.6953 2.5293-10.8936Q1.74805-9.0918 1.74805-7.05078Q1.74805-5.00977 2.5293-3.20801Q3.31055-1.40625 4.6875-0.0292969Q6.06445 1.34766 7.86621 2.12891Q9.66797 2.91016 11.709 2.91016ZM11.709 1.25Q9.98047 1.25 8.47656 0.605469Q6.97266-0.0390625 5.83496-1.17676Q4.69727-2.31445 4.05762-3.81836Q3.41797-5.32227 3.41797-7.05078Q3.41797-8.7793 4.05762-10.2832Q4.69727-11.7871 5.83008-12.9297Q6.96289-14.0723 8.4668-14.7119Q9.9707-15.3516 11.6992-15.3516Q13.4277-15.3516 14.9316-14.7119Q16.4355-14.0723 17.5781-12.9297Q18.7207-11.7871 19.3652-10.2832Q20.0098-8.7793 20.0098-7.05078Q20.0098-5.32227 19.3701-3.81836Q18.7305-2.31445 17.5928-1.17676Q16.4551-0.0390625 14.9463 0.605469Q13.4375 1.25 11.709 1.25ZM7.17773-7.05078Q7.17773-6.69922 7.41211-6.47461Q7.64648-6.25 8.01758-6.25L10.8887-6.25L10.8887-3.36914Q10.8887-2.99805 11.1133-2.76855Q11.3379-2.53906 11.6895-2.53906Q12.0605-2.53906 12.29-2.76855Q12.5195-2.99805 12.5195-3.36914L12.5195-6.25L15.4004-6.25Q15.7715-6.25 16.001-6.47461Q16.2305-6.69922 16.2305-7.05078Q16.2305-7.42188 16.001-7.65137Q15.7715-7.88086 15.4004-7.88086L12.5195-7.88086L12.5195-10.752Q12.5195-11.1328 12.29-11.3623Q12.0605-11.5918 11.6895-11.5918Q11.3379-11.5918 11.1133-11.3574Q10.8887-11.123 10.8887-10.752L10.8887-7.88086L8.01758-7.88086Q7.63672-7.88086 7.40723-7.65137Q7.17773-7.42188 7.17773-7.05078Z"/>
  </g>
  <g transform="matrix(1 0 0 1 305.646 1933)">
   <path d="M14.9707 5.66406Q17.0605 5.66406 18.96 5.01465Q20.8594 4.36523 22.4512 3.19336Q24.043 2.02148 25.2197 0.429688Q26.3965-1.16211 27.0459-3.06641Q27.6953-4.9707 27.6953-7.05078Q27.6953-9.14062 27.0459-11.04Q26.3965-12.9395 25.2197-14.5312Q24.043-16.123 22.4512-17.2998Q20.8594-18.4766 18.9551-19.126Q17.0508-19.7754 14.9609-19.7754Q12.8711-19.7754 10.9717-19.126Q9.07227-18.4766 7.48535-17.2998Q5.89844-16.123 4.72168-14.5312Q3.54492-12.9395 2.90039-11.04Q2.25586-9.14062 2.25586-7.05078Q2.25586-4.9707 2.90527-3.06641Q3.55469-1.16211 4.72656 0.429688Q5.89844 2.02148 7.49023 3.19336Q9.08203 4.36523 10.9814 5.01465Q12.8809 5.66406 14.9707 5.66406ZM14.9707 3.84766Q13.1641 3.84766 11.5283 3.2959Q9.89258 2.74414 8.53516 1.74805Q7.17773 0.751953 6.17676-0.610352Q5.17578-1.97266 4.62891-3.6084Q4.08203-5.24414 4.08203-7.05078Q4.08203-8.86719 4.62891-10.5029Q5.17578-12.1387 6.17188-13.501Q7.16797-14.8633 8.52539-15.8594Q9.88281-16.8555 11.5186-17.4023Q13.1543-17.9492 14.9609-17.9492Q16.7773-17.9492 18.4131-17.4023Q20.0488-16.8555 21.4111-15.8594Q22.7734-14.8633 23.7695-13.501Q24.7656-12.1387 25.3174-10.5029Q25.8691-8.86719 25.8691-7.05078Q25.8789-5.24414 25.332-3.6084Q24.7852-1.97266 23.7842-0.610352Q22.7832 0.751953 21.4209 1.74805Q20.0586 2.74414 18.4229 3.2959Q16.7871 3.84766 14.9707 3.84766ZM9.19922-7.05078Q9.19922-6.66992 9.45801-6.4209Q9.7168-6.17188 10.1172-6.17188L14.0625-6.17188L14.0625-2.2168Q14.0625-1.81641 14.3115-1.55762Q14.5605-1.29883 14.9512-1.29883Q15.3516-1.29883 15.6104-1.55273Q15.8691-1.80664 15.8691-2.2168L15.8691-6.17188L19.8242-6.17188Q20.2246-6.17188 20.4785-6.4209Q20.7324-6.66992 20.7324-7.05078Q20.7324-7.46094 20.4785-7.71484Q20.2246-7.96875 19.8242-7.96875L15.8691-7.96875L15.8691-11.9141Q15.8691-12.3242 15.6104-12.583Q15.3516-12.8418 14.9512-12.8418Q14.5605-12.8418 14.3115-12.583Q14.0625-12.3242 14.0625-11.9141L14.0625-7.96875L10.1172-7.96875Q9.70703-7.96875 9.45312-7.71484Q9.19922-7.46094 9.19922-7.05078Z"/>
  </g>
  <text style="stroke:none;fill:black;font-family:sans-serif;font-size:13;font-weight:bold;" transform="matrix(1 0 0 1 263 1953)">Design Variations</text>
  <text style="stroke:none;fill:black;font-family:sans-serif;font-size:13;" transform="matrix(1 0 0 1 263 1971)">Symbols are supported in up to nine weights and three scales.</text>
  <text style="stroke:none;fill:black;font-family:sans-serif;font-size:13;" transform="matrix(1 0 0 1 263 1989)">For optimal layout with text and other symbols, vertically align</text>
  <text style="stroke:none;fill:black;font-family:sans-serif;font-size:13;" transform="matrix(1 0 0 1 263 2007)">symbols with the adjacent text.</text>
  <line style="fill:none;stroke:#00AEEF;stroke-width:0.5;opacity:1.0;" x1="776" x2="776" y1="1919" y2="1933"/>
  <g transform="matrix(1 0 0 1 776 1933)">
   <path d="M3.31055 0.15625Q3.70117 0.15625 3.91602-0.00976562Q4.13086-0.175781 4.26758-0.585938L5.52734-4.0332L11.2891-4.0332L12.5488-0.585938Q12.6855-0.175781 12.9004-0.00976562Q13.1152 0.15625 13.4961 0.15625Q13.8867 0.15625 14.1162-0.0585938Q14.3457-0.273438 14.3457-0.644531Q14.3457-0.869141 14.2383-1.17188L9.6582-13.3691Q9.48242-13.8184 9.17969-14.043Q8.87695-14.2676 8.4082-14.2676Q7.5-14.2676 7.17773-13.3789L2.59766-1.16211Q2.49023-0.859375 2.49023-0.634766Q2.49023-0.263672 2.70996-0.0537109Q2.92969 0.15625 3.31055 0.15625ZM6.00586-5.51758L8.37891-12.0898L8.42773-12.0898L10.8008-5.51758Z"/>
  </g>
  <line style="fill:none;stroke:#00AEEF;stroke-width:0.5;opacity:1.0;" x1="793.197" x2="793.197" y1="1919" y2="1933"/>
  <text style="stroke:none;fill:black;font-family:sans-serif;font-size:13;font-weight:bold;" transform="matrix(1 0 0 1 776 1953)">Margins</text>
  <text style="stroke:none;fill:black;font-family:sans-serif;font-size:13;" transform="matrix(1 0 0 1 776 1971)">Leading and trailing margins on the left and right side of each symbol</text>
  <text style="stroke:none;fill:black;font-family:sans-serif;font-size:13;" transform="matrix(1 0 0 1 776 1989)">can be adjusted by modifying the x-location of the margin guidelines.</text>
  <text style="stroke:none;fill:black;font-family:sans-serif;font-size:13;" transform="matrix(1 0 0 1 776 2007)">Modifications are automatically applied proportionally to all</text>
  <text style="stroke:none;fill:black;font-family:sans-serif;font-size:13;" transform="matrix(1 0 0 1 776 2025)">scales and weights.</text>
  <g transform="matrix(1 0 0 1 1289 1933)">
   <path d="M2.8418 1.86523L4.54102 3.57422Q5.18555 4.22852 5.90332 4.17969Q6.62109 4.13086 7.31445 3.35938L18.0078-8.42773L17.041-9.4043L6.42578 2.27539Q6.16211 2.57812 5.89355 2.61719Q5.625 2.65625 5.27344 2.30469L4.10156 1.14258Q3.75 0.791016 3.79395 0.522461Q3.83789 0.253906 4.14062-0.0195312L15.6152-10.8203L14.6387-11.7871L3.04688-0.898438Q2.30469-0.214844 2.25098 0.498047Q2.19727 1.21094 2.8418 1.86523ZM9.25781-16.3281Q8.94531-16.0254 8.90625-15.6348Q8.86719-15.2441 9.04297-14.9512Q9.21875-14.6777 9.55566-14.541Q9.89258-14.4043 10.3809-14.5215Q11.4746-14.7754 12.5977-14.7314Q13.7207-14.6875 14.7949-13.9844L14.209-12.5293Q13.9551-11.9043 14.0674-11.4404Q14.1797-10.9766 14.5801-10.5664L16.875-8.25195Q17.2363-7.88086 17.5781-7.82227Q17.9199-7.76367 18.3398-7.8418L19.4043-8.03711L20.0684-7.36328L20.0293-6.80664Q20-6.43555 20.1221-6.12305Q20.2441-5.81055 20.6055-5.44922L21.3672-4.70703Q21.7285-4.3457 22.1533-4.33105Q22.5781-4.31641 22.9297-4.66797L25.8398-7.58789Q26.1914-7.93945 26.1816-8.35449Q26.1719-8.76953 25.8105-9.13086L25.0391-9.89258Q24.6875-10.2539 24.3799-10.3857Q24.0723-10.5176 23.7109-10.4883L23.1348-10.4395L22.4902-11.0742L22.7344-12.1973Q22.832-12.6172 22.6953-12.9834Q22.5586-13.3496 22.1191-13.7891L19.9219-15.9766Q18.6719-17.2168 17.2607-17.8369Q15.8496-18.457 14.4189-18.4814Q12.9883-18.5059 11.665-17.959Q10.3418-17.4121 9.25781-16.3281ZM10.752-15.957Q11.6602-16.6211 12.7002-16.9043Q13.7402-17.1875 14.8047-17.085Q15.8691-16.9824 16.8701-16.5137Q17.8711-16.0449 18.7012-15.2051L21.1328-12.793Q21.3086-12.6172 21.3525-12.4512Q21.3965-12.2852 21.3379-12.0312L21.0156-10.5469L22.5195-9.0625L23.5059-9.12109Q23.6914-9.13086 23.7891-9.09668Q23.8867-9.0625 24.0332-8.91602L24.6094-8.33984L22.168-5.89844L21.5918-6.47461Q21.4453-6.62109 21.4062-6.71875Q21.3672-6.81641 21.377-7.01172L21.4453-7.98828L19.9512-9.47266L18.4277-9.21875Q18.1836-9.16992 18.042-9.2041Q17.9004-9.23828 17.7148-9.41406L15.7129-11.416Q15.5176-11.5918 15.4932-11.7529Q15.4688-11.9141 15.5859-12.1875L16.4648-14.2773Q15.293-15.3711 13.8281-15.791Q12.3633-16.2109 10.8398-15.7617Q10.7227-15.7324 10.6885-15.8057Q10.6543-15.8789 10.752-15.957Z"/>
  </g>
  <text style="stroke:none;fill:black;font-family:sans-serif;font-size:13;font-weight:bold;" transform="matrix(1 0 0 1 1289 1953)">Exporting</text>
  <text style="stroke:none;fill:black;font-family:sans-serif;font-size:13;" transform="matrix(1 0 0 1 1289 1971)">Symbols should be outlined when exporting to ensure the</text>
  <text style="stroke:none;fill:black;font-family:sans-serif;font-size:13;" transform="matrix(1 0 0 1 1289 1989)">design is preserved when submitting to Xcode.</text>
  <text id="template-version" style="stroke:none;fill:black;font-family:sans-serif;font-size:13;text-anchor:end;" transform="matrix(1 0 0 1 3036 1933)">Template v.3.0</text>
  <text style="stroke:none;fill:black;font-family:sans-serif;font-size:13;text-anchor:end;" transform="matrix(1 0 0 1 3036 1951)">Requires Xcode 13 or greater</text>
  <text id="descriptive-name" style="stroke:none;fill:black;font-family:sans-serif;font-size:13;text-anchor:end;" transform="matrix(1 0 0 1 3036 1969)">Generated from line.3.horizontal</text>
  <text style="stroke:none;fill:black;font-family:sans-serif;font-size:13;text-anchor:end;" transform="matrix(1 0 0 1 3036 1987)">Typeset at 100 points</text>
  <text style="stroke:none;fill:black;font-family:sans-serif;font-size:13;" transform="matrix(1 0 0 1 263 726)">Small</text>
  <text style="stroke:none;fill:black;font-family:sans-serif;font-size:13;" transform="matrix(1 0 0 1 263 1156)">Medium</text>
  <text style="stroke:none;fill:black;font-family:sans-serif;font-size:13;" transform="matrix(1 0 0 1 263 1586)">Large</text>
 </g>
 <g id="Guides">
  <g id="H-reference" style="fill:#27AAE1;stroke:none;" transform="matrix(1 0 0 1 339 696)">
   <path d="M0.993347 0L3.6377 0L29.3282-67.1326L30.0301-67.1326L30.0301-70.459L28.1227-70.459ZM11.6882-24.4797L46.9818-24.4797L46.2311-26.7288L12.4382-26.7288ZM55.1193 0L57.7637 0L30.6381-70.459L29.4327-70.459L29.4327-67.1326Z"/>
  </g>
  <line id="Baseline-S" style="fill:none;stroke:#27AAE1;opacity:1;stroke-width:0.5;" x1="263" x2="3036" y1="696" y2="696"/>
  <line id="Capline-S" style="fill:none;stroke:#27AAE1;opacity:1;stroke-width:0.5;" x1="263" x2="3036" y1="625.541" y2="625.541"/>
  <g id="H-reference" style="fill:#27AAE1;stroke:none;" transform="matrix(1 0 0 1 339 1126)">
   <path d="M0.993347 0L3.6377 0L29.3282-67.1326L30.0301-67.1326L30.0301-70.459L28.1227-70.459ZM11.6882-24.4797L46.9818-24.4797L46.2311-26.7288L12.4382-26.7288ZM55.1193 0L57.7637 0L30.6381-70.459L29.4327-70.459L29.4327-67.1326Z"/>
  </g>
  <line id="Baseline-M" style="fill:none;stroke:#27AAE1;opacity:1;stroke-width:0.5;" x1="263" x2="3036" y1="1126" y2="1126"/>
  <line id="Capline-M" style="fill:none;stroke:#27AAE1;opacity:1;stroke-width:0.5;" x1="263" x2="3036" y1="1055.54" y2="1055.54"/>
  <g id="H-reference" style="fill:#27AAE1;stroke:none;" transform="matrix(1 0 0 1 339 1556)">
   <path d="M0.993347 0L3.6377 0L29.3282-67.1326L30.0301-67.1326L30.0301-70.459L28.1227-70.459ZM11.6882-24.4797L46.9818-24.4797L46.2311-26.7288L12.4382-26.7288ZM55.1193 0L57.7637 0L30.6381-70.459L29.4327-70.459L29.4327-67.1326Z"/>
  </g>
  <line id="Baseline-L" style="fill:none;stroke:#27AAE1;opacity:1;stroke-width:0.5;" x1="263" x2="3036" y1="1556" y2="1556"/>
  <line id="Capline-L" style="fill:none;stroke:#27AAE1;opacity:1;stroke-width:0.5;" x1="263" x2="3036" y1="1485.54" y2="1485.54"/>
  <line id="left-margin-Ultralight-S" style="fill:none;stroke:#00AEEF;stroke-width:0.5;opacity:1.0;" x1="512.456" x2="512.456" y1="600.785" y2="720.121"/>
  <line id="right-margin-Ultralight-S" style="fill:none;stroke:#00AEEF;stroke-width:0.5;opacity:1.0;" x1="606.966" x2="606.966" y1="600.785" y2="720.121"/>
  <line id="left-margin-Thin-S" style="fill:none;stroke:#00AEEF;stroke-width:0.5;opacity:1.0;" x1="808.834" x2="808.834" y1="600.785" y2="720.121"/>
  <line id="right-margin-Thin-S" style="fill:none;stroke:#00AEEF;stroke-width:0.5;opacity:1.0;" x1="904.01" x2="904.01" y1="600.785" y2="720.121"/>
  <line id="left-margin-Light-S" style="fill:none;stroke:#00AEEF;stroke-width:0.5;opacity:1.0;" x1="1104.89" x2="1104.89" y1="600.785" y2="720.121"/>
  <line id="right-margin-Light-S" style="fill:none;stroke:#00AEEF;stroke-width:0.5;opacity:1.0;" x1="1201.37" x2="1201.37" y1="600.785" y2="720.121"/>
  <line id="left-margin-Regular-S" style="fill:none;stroke:#00AEEF;stroke-width:0.5;opacity:1.0;" x1="1401.11" x2="1401.11" y1="600.785" y2="720.121"/>
  <line id="right-margin-Regular-S" style="fill:none;stroke:#00AEEF;stroke-width:0.5;opacity:1.0;" x1="1498.57" x2="1498.57" y1="600.785" y2="720.121"/>
  <line id="left-margin-Medium-S" style="fill:none;stroke:#00AEEF;stroke-width:0.5;opacity:1.0;" x1="1697.33" x2="1697.33" y1="600.785" y2="720.121"/>
  <line id="right-margin-Medium-S" style="fill:none;stroke:#00AEEF;stroke-width:0.5;opacity:1.0;" x1="1795.78" x2="1795.78" y1="600.785" y2="720.121"/>
  <line id="left-margin-Semibold-S" style="fill:none;stroke:#00AEEF;stroke-width:0.5;opacity:1.0;" x1="1993.67" x2="1993.67" y1="600.785" y2="720.121"/>
  <line id="right-margin-Semibold-S" style="fill:none;stroke:#00AEEF;stroke-width:0.5;opacity:1.0;" x1="2092.87" x2="2092.87" y1="600.785" y2="720.121"/>
  <line id="left-margin-Bold-S" style="fill:none;stroke:#00AEEF;stroke-width:0.5;opacity:1.0;" x1="2289.88" x2="2289.88" y1="600.785" y2="720.121"/>
  <line id="right-margin-Bold-S" style="fill:none;stroke:#00AEEF;stroke-width:0.5;opacity:1.0;" x1="2390.08" x2="2390.08" y1="600.785" y2="720.121"/>
  <line id="left-margin-Heavy-S" style="fill:none;stroke:#00AEEF;stroke-width:0.5;opacity:1.0;" x1="2585.87" x2="2585.87" y1="600.785" y2="720.121"/>
  <line id="right-margin-Heavy-S" style="fill:none;stroke:#00AEEF;stroke-width:0.5;opacity:1.0;" x1="2687.51" x2="2687.51" y1="600.785" y2="720.121"/>
  <line id="left-margin-Black-S" style="fill:none;stroke:#00AEEF;stroke-width:0.5;opacity:1.0;" x1="2881.94" x2="2881.94" y1="600.785" y2="720.121"/>
  <line id="right-margin-Black-S" style="fill:none;stroke:#00AEEF;stroke-width:0.5;opacity:1.0;" x1="2984.86" x2="2984.86" y1="600.785" y2="720.121"/>
  <line id="left-margin-Ultralight-M" style="fill:none;stroke:#00AEEF;stroke-width:0.5;opacity:1.0;" x1="499.55" x2="499.55" y1="1030.79" y2="1150.12"/>
  <line id="right-margin-Ultralight-M" style="fill:none;stroke:#00AEEF;stroke-width:0.5;opacity:1.0;" x1="619.872" x2="619.872" y1="1030.79" y2="1150.12"/>
  <line id="left-margin-Thin-M" style="fill:none;stroke:#00AEEF;stroke-width:0.5;opacity:1.0;" x1="795.882" x2="795.882" y1="1030.79" y2="1150.12"/>
  <line id="right-margin-Thin-M" style="fill:none;stroke:#00AEEF;stroke-width:0.5;opacity:1.0;" x1="916.962" x2="916.962" y1="1030.79" y2="1150.12"/>
  <line id="left-margin-Light-M" style="fill:none;stroke:#00AEEF;stroke-width:0.5;opacity:1.0;" x1="1091.85" x2="1091.85" y1="1030.79" y2="1150.12"/>
  <line id="right-margin-Light-M" style="fill:none;stroke:#00AEEF;stroke-width:0.5;opacity:1.0;" x1="1214.41" x2="1214.41" y1="1030.79" y2="1150.12"/>
  <line id="left-margin-Regular-M" style="fill:none;stroke:#00AEEF;stroke-width:0.5;opacity:1.0;" x1="1388" x2="1388" y1="1030.79" y2="1150.12"/>
  <line id="right-margin-Regular-M" style="fill:none;stroke:#00AEEF;stroke-width:0.5;opacity:1.0;" x1="1511.69" x2="1511.69" y1="1030.79" y2="1150.12"/>
  <line id="left-margin-Medium-M" style="fill:none;stroke:#00AEEF;stroke-width:0.5;opacity:1.0;" x1="1684.08" x2="1684.08" y1="1030.79" y2="1150.12"/>
  <line id="right-margin-Medium-M" style="fill:none;stroke:#00AEEF;stroke-width:0.5;opacity:1.0;" x1="1809.03" x2="1809.03" y1="1030.79" y2="1150.12"/>
  <line id="left-margin-Semibold-M" style="fill:none;stroke:#00AEEF;stroke-width:0.5;opacity:1.0;" x1="1980.3" x2="1980.3" y1="1030.79" y2="1150.12"/>
  <line id="right-margin-Semibold-M" style="fill:none;stroke:#00AEEF;stroke-width:0.5;opacity:1.0;" x1="2106.23" x2="2106.23" y1="1030.79" y2="1150.12"/>
  <line id="left-margin-Bold-M" style="fill:none;stroke:#00AEEF;stroke-width:0.5;opacity:1.0;" x1="2276.37" x2="2276.37" y1="1030.79" y2="1150.12"/>
  <line id="right-margin-Bold-M" style="fill:none;stroke:#00AEEF;stroke-width:0.5;opacity:1.0;" x1="2403.59" x2="2403.59" y1="1030.79" y2="1150.12"/>
  <line id="left-margin-Heavy-M" style="fill:none;stroke:#00AEEF;stroke-width:0.5;opacity:1.0;" x1="2572.14" x2="2572.14" y1="1030.79" y2="1150.12"/>
  <line id="right-margin-Heavy-M" style="fill:none;stroke:#00AEEF;stroke-width:0.5;opacity:1.0;" x1="2701.23" x2="2701.23" y1="1030.79" y2="1150.12"/>
  <line id="left-margin-Black-M" style="fill:none;stroke:#00AEEF;stroke-width:0.5;opacity:1.0;" x1="2868.02" x2="2868.02" y1="1030.79" y2="1150.12"/>
  <line id="right-margin-Black-M" style="fill:none;stroke:#00AEEF;stroke-width:0.5;opacity:1.0;" x1="2998.78" x2="2998.78" y1="1030.79" y2="1150.12"/>
  <line id="left-margin-Ultralight-L" style="fill:none;stroke:#00AEEF;stroke-width:0.5;opacity:1.0;" x1="482.25" x2="482.25" y1="1460.79" y2="1580.12"/>
  <line id="right-margin-Ultralight-L" style="fill:none;stroke:#00AEEF;stroke-width:0.5;opacity:1.0;" x1="637.172" x2="637.172" y1="1460.79" y2="1580.12"/>
  <line id="left-margin-Thin-L" style="fill:none;stroke:#00AEEF;stroke-width:0.5;opacity:1.0;" x1="778.535" x2="778.535" y1="1460.79" y2="1580.12"/>
  <line id="right-margin-Thin-L" style="fill:none;stroke:#00AEEF;stroke-width:0.5;opacity:1.0;" x1="934.309" x2="934.309" y1="1460.79" y2="1580.12"/>
  <line id="left-margin-Light-L" style="fill:none;stroke:#00AEEF;stroke-width:0.5;opacity:1.0;" x1="1074.42" x2="1074.42" y1="1460.79" y2="1580.12"/>
  <line id="right-margin-Light-L" style="fill:none;stroke:#00AEEF;stroke-width:0.5;opacity:1.0;" x1="1231.85" x2="1231.85" y1="1460.79" y2="1580.12"/>
  <line id="left-margin-Regular-L" style="fill:none;stroke:#00AEEF;stroke-width:0.5;opacity:1.0;" x1="1370.5" x2="1370.5" y1="1460.79" y2="1580.12"/>
  <line id="right-margin-Regular-L" style="fill:none;stroke:#00AEEF;stroke-width:0.5;opacity:1.0;" x1="1529.19" x2="1529.19" y1="1460.79" y2="1580.12"/>
  <line id="left-margin-Medium-L" style="fill:none;stroke:#00AEEF;stroke-width:0.5;opacity:1.0;" x1="1666.45" x2="1666.45" y1="1460.79" y2="1580.12"/>
  <line id="right-margin-Medium-L" style="fill:none;stroke:#00AEEF;stroke-width:0.5;opacity:1.0;" x1="1826.66" x2="1826.66" y1="1460.79" y2="1580.12"/>
  <line id="left-margin-Semibold-L" style="fill:none;stroke:#00AEEF;stroke-width:0.5;opacity:1.0;" x1="1962.59" x2="1962.59" y1="1460.79" y2="1580.12"/>
  <line id="right-margin-Semibold-L" style="fill:none;stroke:#00AEEF;stroke-width:0.5;opacity:1.0;" x1="2123.95" x2="2123.95" y1="1460.79" y2="1580.12"/>
  <line id="left-margin-Bold-L" style="fill:none;stroke:#00AEEF;stroke-width:0.5;opacity:1.0;" x1="2258.53" x2="2258.53" y1="1460.79" y2="1580.12"/>
  <line id="right-margin-Bold-L" style="fill:none;stroke:#00AEEF;stroke-width:0.5;opacity:1.0;" x1="2421.42" x2="2421.42" y1="1460.79" y2="1580.12"/>
  <line id="left-margin-Heavy-L" style="fill:none;stroke:#00AEEF;stroke-width:0.5;opacity:1.0;" x1="2554.14" x2="2554.14" y1="1460.79" y2="1580.12"/>
  <line id="right-margin-Heavy-L" style="fill:none;stroke:#00AEEF;stroke-width:0.5;opacity:1.0;" x1="2719.24" x2="2719.24" y1="1460.79" y2="1580.12"/>
  <line id="left-margin-Black-L" style="fill:none;stroke:#00AEEF;stroke-width:0.5;opacity:1.0;" x1="2849.86" x2="2849.86" y1="1460.79" y2="1580.12"/>
  <line id="right-margin-Black-L" style="fill:none;stroke:#00AEEF;stroke-width:0.5;opacity:1.0;" x1="3016.94" x2="3016.94" y1="1460.79" y2="1580.12"/>
 </g>
 <g id="Symbols">
  <g id="Black-L" transform="matrix(1 0 0 1 2849.86 1556)">
   <path d="M24.9023 5.22461L142.188 5.22461Q145.898 5.22461 148.462 2.46582Q151.025-0.292969 151.025-3.90625Q151.025-7.66602 148.486-10.3516Q145.947-13.0371 142.188-13.0371L24.9023-13.0371Q21.1914-13.0371 18.6279-10.3027Q16.0645-7.56836 16.0645-3.90625Q16.0645-0.390625 18.6523 2.41699Q21.2402 5.22461 24.9023 5.22461ZM24.9023-26.123L142.188-26.123Q145.898-26.123 148.462-28.8818Q151.025-31.6406 151.025-35.2539Q151.025-39.0137 148.486-41.6992Q145.947-44.3848 142.188-44.3848L24.9023-44.3848Q21.1914-44.3848 18.6279-41.6504Q16.0645-38.916 16.0645-35.2539Q16.0645-31.6895 18.6523-28.9062Q21.2402-26.123 24.9023-26.123ZM24.9023-57.4219L142.188-57.4219Q145.898-57.4219 148.462-60.1807Q151.025-62.9395 151.025-66.5527Q151.025-70.3125 148.486-72.998Q145.947-75.6836 142.188-75.6836L24.9023-75.6836Q21.1914-75.6836 18.6279-72.9492Q16.0645-70.2148 16.0645-66.5527Q16.0645-62.9883 18.6523-60.2051Q21.2402-57.4219 24.9023-57.4219Z"/>
  </g>
  <g id="Heavy-L" transform="matrix(1 0 0 1 2554.14 1556)">
   <path d="M23.7846 3.31116L141.312 3.31116Q144.55 3.31116 146.797 0.921249Q149.043-1.46866 149.043-4.64401Q149.043-7.90787 146.815-10.2421Q144.588-12.5763 141.312-12.5763L23.7846-12.5763Q20.546-12.5763 18.3052-10.2047Q16.0645-7.8331 16.0645-4.64401Q16.0645-1.54343 18.3239 0.883865Q20.5833 3.31116 23.7846 3.31116ZM23.7846-27.2758L141.312-27.2758Q144.55-27.2758 146.797-29.6658Q149.043-32.0557 149.043-35.2196Q149.043-38.4949 146.815-40.8291Q144.588-43.1633 141.312-43.1633L23.7846-43.1633Q20.546-43.1633 18.3052-40.7917Q16.0645-38.4201 16.0645-35.2196Q16.0645-32.093 18.3239-29.6844Q20.5833-27.2758 23.7846-27.2758ZM23.7846-57.8369L141.312-57.8369Q144.55-57.8369 146.797-60.2211Q149.043-62.6053 149.043-65.7692Q149.043-69.0445 146.815-71.3787Q144.588-73.7129 141.312-73.7129L23.7846-73.7129Q20.546-73.7129 18.3052-71.3417Q16.0645-68.9705 16.0645-65.7692Q16.0645-62.6427 18.3239-60.2398Q20.5833-57.8369 23.7846-57.8369Z"/>
  </g>
  <g id="Bold-L" transform="matrix(1 0 0 1 2258.53 1556)">
   <path d="M22.5342 1.17188L140.332 1.17188Q143.042 1.17188 144.934-0.805664Q146.826-2.7832 146.826-5.46875Q146.826-8.17871 144.946-10.1196Q143.066-12.0605 140.332-12.0605L22.5342-12.0605Q19.8242-12.0605 17.9443-10.0952Q16.0645-8.12988 16.0645-5.46875Q16.0645-2.83203 17.9565-0.830078Q19.8486 1.17188 22.5342 1.17188ZM22.5342-28.5645L140.332-28.5645Q143.042-28.5645 144.934-30.542Q146.826-32.5195 146.826-35.1807Q146.826-37.915 144.946-39.856Q143.066-41.7969 140.332-41.7969L22.5342-41.7969Q19.8242-41.7969 17.9443-39.8315Q16.0645-37.8662 16.0645-35.1807Q16.0645-32.5439 17.9565-30.5542Q19.8486-28.5645 22.5342-28.5645ZM22.5342-58.3008L140.332-58.3008Q143.042-58.3008 144.934-60.2661Q146.826-62.2314 146.826-64.8926Q146.826-67.627 144.946-69.5679Q143.066-71.5088 140.332-71.5088L22.5342-71.5088Q19.8242-71.5088 17.9443-69.5435Q16.0645-67.5781 16.0645-64.8926Q16.0645-62.2559 17.9565-60.2783Q19.8486-58.3008 22.5342-58.3008Z"/>
  </g>
  <g id="Semibold-L" transform="matrix(1 0 0 1 1962.59 1556)">
   <path d="M21.6721-0.30365L139.657-0.30365Q142.002-0.30365 143.65-1.99661Q145.297-3.68958 145.297-6.0379Q145.297-8.36563 143.657-10.0353Q142.017-11.705 139.657-11.705L21.6721-11.705Q19.3268-11.705 17.6956-10.0197Q16.0645-8.33435 16.0645-6.0379Q16.0645-3.72086 17.7032-2.01225Q19.342-0.30365 21.6721-0.30365ZM21.6721-29.4533L139.657-29.4533Q142.002-29.4533 143.65-31.1462Q145.297-32.8392 145.297-35.154Q145.297-37.5153 143.657-39.185Q142.017-40.8546 139.657-40.8546L21.6721-40.8546Q19.3268-40.8546 17.6956-39.1693Q16.0645-37.484 16.0645-35.154Q16.0645-32.8552 17.7032-31.1543Q19.342-29.4533 21.6721-29.4533ZM21.6721-58.6205L139.657-58.6205Q142.002-58.6205 143.65-60.297Q145.297-61.9736 145.297-64.2883Q145.297-66.6496 143.657-68.3193Q142.017-69.989 139.657-69.989L21.6721-69.989Q19.3268-69.989 17.6956-68.3037Q16.0645-66.6183 16.0645-64.2883Q16.0645-61.9896 17.7032-60.305Q19.342-58.6205 21.6721-58.6205Z"/>
  </g>
  <g id="Medium-L" transform="matrix(1 0 0 1 1666.45 1556)">
   <path d="M21.0182-1.42212L139.144-1.42212Q141.214-1.42212 142.676-2.89955Q144.138-4.37698 144.138-6.46896Q144.138-8.50677 142.68-9.97124Q141.222-11.4357 139.144-11.4357L21.0182-11.4357Q18.9491-11.4357 17.5068-9.96246Q16.0645-8.48923 16.0645-6.46896Q16.0645-4.39453 17.5114-2.90833Q18.9583-1.42212 21.0182-1.42212ZM21.0182-30.127L139.144-30.127Q141.214-30.127 142.676-31.6044Q144.138-33.0818 144.138-35.1341Q144.138-37.2116 142.68-38.6761Q141.222-40.1405 139.144-40.1405L21.0182-40.1405Q18.9491-40.1405 17.5068-38.6673Q16.0645-37.1941 16.0645-35.1341Q16.0645-33.091 17.5114-31.609Q18.9583-30.127 21.0182-30.127ZM21.0182-58.8631L139.144-58.8631Q141.214-58.8631 142.676-60.3207Q144.138-61.7783 144.138-63.8298Q144.138-65.9081 142.68-67.3725Q141.222-68.837 139.144-68.837L21.0182-68.837Q18.9491-68.837 17.5068-67.3637Q16.0645-65.8905 16.0645-63.8298Q16.0645-61.7874 17.5114-60.3252Q18.9583-58.8631 21.0182-58.8631Z"/>
  </g>
  <g id="Regular-L" transform="matrix(1 0 0 1 1370.5 1556)">
   <path d="M20.166-2.88086L138.477-2.88086Q140.186-2.88086 141.406-4.07715Q142.627-5.27344 142.627-7.03125Q142.627-8.69141 141.406-9.8877Q140.186-11.084 138.477-11.084L20.166-11.084Q18.457-11.084 17.2607-9.8877Q16.0645-8.69141 16.0645-7.03125Q16.0645-5.27344 17.2607-4.07715Q18.457-2.88086 20.166-2.88086ZM20.166-31.0059L138.477-31.0059Q140.186-31.0059 141.406-32.2021Q142.627-33.3984 142.627-35.1074Q142.627-36.8164 141.406-38.0127Q140.186-39.209 138.477-39.209L20.166-39.209Q18.457-39.209 17.2607-38.0127Q16.0645-36.8164 16.0645-35.1074Q16.0645-33.3984 17.2607-32.2021Q18.457-31.0059 20.166-31.0059ZM20.166-59.1797L138.477-59.1797Q140.186-59.1797 141.406-60.3516Q142.627-61.5234 142.627-63.2324Q142.627-64.9414 141.406-66.1377Q140.186-67.334 138.477-67.334L20.166-67.334Q18.457-67.334 17.2607-66.1377Q16.0645-64.9414 16.0645-63.2324Q16.0645-61.5234 17.2607-60.3516Q18.457-59.1797 20.166-59.1797Z"/>
  </g>
  <g id="Light-L" transform="matrix(1 0 0 1 1074.42 1556)">
   <path d="M19.2276-2.85034L138.174-2.85034Q139.489-2.85034 140.43-3.77426Q141.37-4.69818 141.37-6.04706Q141.37-7.3288 140.43-8.25272Q139.489-9.17664 138.174-9.17664L19.2276-9.17664Q17.9123-9.17664 16.9884-8.25272Q16.0645-7.3288 16.0645-6.04706Q16.0645-4.69818 16.9884-3.77426Q17.9123-2.85034 19.2276-2.85034ZM19.2276-31.884L138.174-31.884Q139.489-31.884 140.43-32.8075Q141.37-33.7311 141.37-35.0471Q141.37-36.3625 140.43-37.2864Q139.489-38.2103 138.174-38.2103L19.2276-38.2103Q17.9123-38.2103 16.9884-37.2864Q16.0645-36.3625 16.0645-35.0471Q16.0645-33.7311 16.9884-32.8075Q17.9123-31.884 19.2276-31.884ZM19.2276-60.9505L138.174-60.9505Q139.489-60.9505 140.43-61.8576Q141.37-62.7647 141.37-64.08Q141.37-65.3954 140.43-66.3269Q139.489-67.2585 138.174-67.2585L19.2276-67.2585Q17.9123-67.2585 16.9884-66.3269Q16.0645-65.3954 16.0645-64.08Q16.0645-62.7647 16.9884-61.8576Q17.9123-60.9505 19.2276-60.9505Z"/>
  </g>
  <g id="Thin-L" transform="matrix(1 0 0 1 778.535 1556)">
   <path d="M17.9863-2.81067L137.773-2.81067Q138.568-2.81067 139.139-3.3741Q139.709-3.93753 139.709-4.74625Q139.709-5.5275 139.139-6.09093Q138.568-6.65436 137.773-6.65436L17.9863-6.65436Q17.1913-6.65436 16.6279-6.09093Q16.0645-5.5275 16.0645-4.74625Q16.0645-3.93753 16.6279-3.3741Q17.1913-2.81067 17.9863-2.81067ZM17.9863-33.0452L137.773-33.0452Q138.568-33.0452 139.139-33.6086Q139.709-34.1721 139.709-34.967Q139.709-35.762 139.139-36.3255Q138.568-36.8889 137.773-36.8889L17.9863-36.8889Q17.1913-36.8889 16.6279-36.3255Q16.0645-35.762 16.0645-34.967Q16.0645-34.1721 16.6279-33.6086Q17.1913-33.0452 17.9863-33.0452ZM17.9863-63.2927L137.773-63.2927Q138.568-63.2927 139.139-63.8493Q139.709-64.4058 139.709-65.2008Q139.709-65.9958 139.139-66.5771Q138.568-67.1585 137.773-67.1585L17.9863-67.1585Q17.1913-67.1585 16.6279-66.5771Q16.0645-65.9958 16.0645-65.2008Q16.0645-64.4058 16.6279-63.8493Q17.1913-63.2927 17.9863-63.2927Z"/>
  </g>
  <g id="Ultralight-L" transform="matrix(1 0 0 1 482.25 1556)">
   <path d="M17.3508-2.79007L137.569-2.79007Q138.097-2.79007 138.477-3.16887Q138.858-3.54767 138.858-4.07944Q138.858-4.60434 138.477-4.98352Q138.097-5.3627 137.569-5.3627L17.3508-5.3627Q16.8221-5.3627 16.4433-4.98352Q16.0645-4.60434 16.0645-4.07944Q16.0645-3.54767 16.4433-3.16887Q16.8221-2.79007 17.3508-2.79007ZM17.3508-33.6395L137.569-33.6395Q138.097-33.6395 138.477-34.0183Q138.858-34.3971 138.858-34.9258Q138.858-35.4538 138.477-35.833Q138.097-36.2122 137.569-36.2122L17.3508-36.2122Q16.8221-36.2122 16.4433-35.833Q16.0645-35.4538 16.0645-34.9258Q16.0645-34.3971 16.4433-34.0183Q16.8221-33.6395 17.3508-33.6395ZM17.3508-64.4928L137.569-64.4928Q138.097-64.4928 138.477-64.8701Q138.858-65.2473 138.858-65.7753Q138.858-66.304 138.477-66.7053Q138.097-67.1066 137.569-67.1066L17.3508-67.1066Q16.8221-67.1066 16.4433-66.7053Q16.0645-66.304 16.0645-65.7753Q16.0645-65.2473 16.4433-64.8701Q16.8221-64.4928 17.3508-64.4928Z"/>
  </g>
  <g id="Black-M" transform="matrix(1 0 0 1 2868.02 1126)">
   <path d="M19.9707-2.19727L110.84-2.19727Q113.965-2.19727 116.138-4.56543Q118.311-6.93359 118.311-10.0098Q118.311-13.1836 116.162-15.4785Q114.014-17.7734 110.84-17.7734L19.9707-17.7734Q16.7969-17.7734 14.624-15.4541Q12.4512-13.1348 12.4512-10.0098Q12.4512-7.03125 14.6484-4.61426Q16.8457-2.19727 19.9707-2.19727ZM19.9707-27.4902L110.84-27.4902Q113.965-27.4902 116.138-29.834Q118.311-32.1777 118.311-35.2539Q118.311-38.4277 116.162-40.7471Q114.014-43.0664 110.84-43.0664L19.9707-43.0664Q16.7969-43.0664 14.624-40.7227Q12.4512-38.3789 12.4512-35.2539Q12.4512-32.2754 14.6484-29.8828Q16.8457-27.4902 19.9707-27.4902ZM19.9707-52.6855L110.84-52.6855Q113.965-52.6855 116.138-55.0293Q118.311-57.373 118.311-60.4492Q118.311-63.623 116.162-65.918Q114.014-68.2129 110.84-68.2129L19.9707-68.2129Q16.7969-68.2129 14.624-65.8936Q12.4512-63.5742 12.4512-60.4492Q12.4512-57.4707 14.6484-55.0781Q16.8457-52.6855 19.9707-52.6855Z"/>
  </g>
  <g id="Heavy-M" transform="matrix(1 0 0 1 2572.14 1126)">
   <path d="M19.0605-4.07562L110.056-4.07562Q112.801-4.07562 114.72-6.14433Q116.64-8.21304 116.64-10.9314Q116.64-13.7138 114.739-15.7207Q112.838-17.7277 110.056-17.7277L19.0605-17.7277Q16.2781-17.7277 14.3646-15.7021Q12.4512-13.6765 12.4512-10.9314Q12.4512-8.28705 14.3833-6.18134Q16.3155-4.07562 19.0605-4.07562ZM19.0605-28.4355L110.056-28.4355Q112.801-28.4355 114.72-30.4794Q116.64-32.5233 116.64-35.231Q116.64-38.0241 114.739-40.0555Q112.838-42.0868 110.056-42.0868L19.0605-42.0868Q16.2781-42.0868 14.3646-40.0368Q12.4512-37.9868 12.4512-35.231Q12.4512-32.5981 14.3833-30.5168Q16.3155-28.4355 19.0605-28.4355ZM19.0605-52.7084L110.056-52.7084Q112.801-52.7084 114.72-54.7527Q116.64-56.797 116.64-59.5039Q116.64-62.2978 114.739-64.3047Q112.838-66.3116 110.056-66.3116L19.0605-66.3116Q16.2781-66.3116 14.3646-64.286Q12.4512-62.2604 12.4512-59.5039Q12.4512-56.8718 14.3833-54.7901Q16.3155-52.7084 19.0605-52.7084Z"/>
  </g>
  <g id="Bold-M" transform="matrix(1 0 0 1 2276.37 1126)">
   <path d="M18.042-6.17676L109.18-6.17676Q111.499-6.17676 113.135-7.91016Q114.771-9.64355 114.771-11.9629Q114.771-14.3066 113.147-15.9912Q111.523-17.6758 109.18-17.6758L18.042-17.6758Q15.6982-17.6758 14.0747-15.979Q12.4512-14.2822 12.4512-11.9629Q12.4512-9.69238 14.0869-7.93457Q15.7227-6.17676 18.042-6.17676ZM18.042-29.4922L109.18-29.4922Q111.499-29.4922 113.135-31.2012Q114.771-32.9102 114.771-35.2051Q114.771-37.5732 113.147-39.2822Q111.523-40.9912 109.18-40.9912L18.042-40.9912Q15.6982-40.9912 14.0747-39.27Q12.4512-37.5488 12.4512-35.2051Q12.4512-32.959 14.0869-31.2256Q15.7227-29.4922 18.042-29.4922ZM18.042-52.7344L109.18-52.7344Q111.499-52.7344 113.135-54.4434Q114.771-56.1523 114.771-58.4473Q114.771-60.8154 113.147-62.5Q111.523-64.1846 109.18-64.1846L18.042-64.1846Q15.6982-64.1846 14.0747-62.4878Q12.4512-60.791 12.4512-58.4473Q12.4512-56.2012 14.0869-54.4678Q15.7227-52.7344 18.042-52.7344Z"/>
  </g>
  <g id="Semibold-M" transform="matrix(1 0 0 1 1980.3 1126)">
   <path d="M17.3401-7.62558L108.575-7.62558Q110.602-7.62558 112.042-9.12781Q113.482-10.63 113.482-12.674Q113.482-14.7156 112.049-16.1777Q110.617-17.6399 108.575-17.6399L17.3401-17.6399Q15.2985-17.6399 13.8748-16.1697Q12.4512-14.6996 12.4512-12.674Q12.4512-10.6613 13.8824-9.14345Q15.3137-7.62558 17.3401-7.62558ZM17.3401-30.2208L108.575-30.2208Q110.602-30.2208 112.042-31.6986Q113.482-33.1764 113.482-35.1875Q113.482-37.262 112.049-38.7489Q110.617-40.2359 108.575-40.2359L17.3401-40.2359Q15.2985-40.2359 13.8748-38.7413Q12.4512-37.2467 12.4512-35.1875Q12.4512-33.2077 13.8824-31.7142Q15.3137-30.2208 17.3401-30.2208ZM17.3401-52.7519L108.575-52.7519Q110.602-52.7519 112.042-54.2301Q113.482-55.7083 113.482-57.7187Q113.482-59.7931 112.049-61.2556Q110.617-62.7182 108.575-62.7182L17.3401-62.7182Q15.2985-62.7182 13.8748-61.248Q12.4512-59.7778 12.4512-57.7187Q12.4512-55.7388 13.8824-54.2454Q15.3137-52.7519 17.3401-52.7519Z"/>
  </g>
  <g id="Medium-M" transform="matrix(1 0 0 1 1684.08 1126)">
   <path d="M16.8076-8.72345L108.117-8.72345Q109.921-8.72345 111.213-10.0506Q112.505-11.3777 112.505-13.2126Q112.505-15.0253 111.217-16.3193Q109.93-17.6132 108.117-17.6132L16.8076-17.6132Q14.9948-17.6132 13.723-16.3151Q12.4512-15.0169 12.4512-13.2126Q12.4512-11.3953 13.7276-10.0594Q15.004-8.72345 16.8076-8.72345ZM16.8076-30.7732L108.117-30.7732Q109.921-30.7732 111.213-32.0759Q112.505-33.3786 112.505-35.1738Q112.505-37.0262 111.217-38.3446Q109.93-39.6629 108.117-39.6629L16.8076-39.6629Q14.9948-39.6629 13.723-38.3404Q12.4512-37.0178 12.4512-35.1738Q12.4512-33.3961 13.7276-32.0847Q15.004-30.7732 16.8076-30.7732ZM16.8076-52.7657L108.117-52.7657Q109.921-52.7657 111.213-54.0684Q112.505-55.3711 112.505-57.1663Q112.505-59.0187 111.217-60.3127Q109.93-61.6066 108.117-61.6066L16.8076-61.6066Q14.9948-61.6066 13.723-60.3081Q12.4512-59.0096 12.4512-57.1663Q12.4512-55.3886 13.7276-54.0771Q15.004-52.7657 16.8076-52.7657Z"/>
  </g>
  <g id="Regular-M" transform="matrix(1 0 0 1 1388 1126)">
   <path d="M16.1133-10.1562L107.52-10.1562Q109.033-10.1562 110.132-11.2549Q111.23-12.3535 111.23-13.916Q111.23-15.4297 110.132-16.5039Q109.033-17.5781 107.52-17.5781L16.1133-17.5781Q14.5996-17.5781 13.5254-16.5039Q12.4512-15.4297 12.4512-13.916Q12.4512-12.3535 13.5254-11.2549Q14.5996-10.1562 16.1133-10.1562ZM16.1133-31.4941L107.52-31.4941Q109.033-31.4941 110.132-32.5684Q111.23-33.6426 111.23-35.1562Q111.23-36.7188 110.132-37.8174Q109.033-38.916 107.52-38.916L16.1133-38.916Q14.5996-38.916 13.5254-37.8174Q12.4512-36.7188 12.4512-35.1562Q12.4512-33.6426 13.5254-32.5684Q14.5996-31.4941 16.1133-31.4941ZM16.1133-52.7832L107.52-52.7832Q109.033-52.7832 110.132-53.8574Q111.23-54.9316 111.23-56.4453Q111.23-58.0078 110.132-59.082Q109.033-60.1562 107.52-60.1562L16.1133-60.1562Q14.5996-60.1562 13.5254-59.082Q12.4512-58.0078 12.4512-56.4453Q12.4512-54.9316 13.5254-53.8574Q14.5996-52.7832 16.1133-52.7832Z"/>
  </g>
  <g id="Light-M" transform="matrix(1 0 0 1 1091.85 1126)">
   <path d="M15.2962-10.1257L107.232-10.1257Q108.413-10.1257 109.262-10.9749Q110.11-11.824 110.11-13.0379Q110.11-14.2036 109.262-15.0433Q108.413-15.8829 107.232-15.8829L15.2962-15.8829Q14.1151-15.8829 13.2832-15.0433Q12.4512-14.2036 12.4512-13.0379Q12.4512-11.824 13.2832-10.9749Q14.1151-10.1257 15.2962-10.1257ZM15.2962-32.2662L107.232-32.2662Q108.413-32.2662 109.262-33.0982Q110.11-33.9302 110.11-35.1105Q110.11-36.3098 109.262-37.159Q108.413-38.0081 107.232-38.0081L15.2962-38.0081Q14.1151-38.0081 13.2832-37.159Q12.4512-36.3098 12.4512-35.1105Q12.4512-33.9302 13.2832-33.0982Q14.1151-32.2662 15.2962-32.2662ZM15.2962-54.3724L107.232-54.3724Q108.413-54.3724 109.262-55.2044Q110.11-56.0364 110.11-57.2021Q110.11-58.4167 109.262-59.2487Q108.413-60.0807 107.232-60.0807L15.2962-60.0807Q14.1151-60.0807 13.2832-59.2487Q12.4512-58.4167 12.4512-57.2021Q12.4512-56.0364 13.2832-55.2044Q14.1151-54.3724 15.2962-54.3724Z"/>
  </g>
  <g id="Thin-M" transform="matrix(1 0 0 1 795.882 1126)">
   <path d="M14.2151-10.0861L106.852-10.0861Q107.592-10.0861 108.11-10.6045Q108.629-11.1229 108.629-11.8767Q108.629-12.5824 108.11-13.1115Q107.592-13.6406 106.852-13.6406L14.2151-13.6406Q13.475-13.6406 12.9631-13.1115Q12.4512-12.5824 12.4512-11.8767Q12.4512-11.1229 12.9631-10.6045Q13.475-10.0861 14.2151-10.0861ZM14.2151-33.287L106.852-33.287Q107.592-33.287 108.11-33.7986Q108.629-34.3102 108.629-35.051Q108.629-35.7697 108.11-36.2881Q107.592-36.8065 106.852-36.8065L14.2151-36.8065Q13.475-36.8065 12.9631-36.2881Q12.4512-35.7697 12.4512-35.051Q12.4512-34.3102 12.9631-33.7986Q13.475-33.287 14.2151-33.287ZM14.2151-56.4743L106.852-56.4743Q107.592-56.4743 108.11-56.9862Q108.629-57.4982 108.629-58.2031Q108.629-58.9569 108.11-59.4688Q107.592-59.9808 106.852-59.9808L14.2151-59.9808Q13.475-59.9808 12.9631-59.4688Q12.4512-58.9569 12.4512-58.2031Q12.4512-57.4982 12.9631-56.9862Q13.475-56.4743 14.2151-56.4743Z"/>
  </g>
  <g id="Ultralight-M" transform="matrix(1 0 0 1 499.55 1126)">
   <path d="M13.6612-10.0655L106.657-10.0655Q107.172-10.0655 107.521-10.4149Q107.87-10.7643 107.87-11.2823Q107.87-11.7516 107.521-12.122Q107.172-12.4924 106.657-12.4924L13.6612-12.4924Q13.1462-12.4924 12.7987-12.122Q12.4512-11.7516 12.4512-11.2823Q12.4512-10.7643 12.7987-10.4149Q13.1462-10.0655 13.6612-10.0655ZM13.6612-33.8097L106.657-33.8097Q107.172-33.8097 107.521-34.1576Q107.87-34.5055 107.87-35.0197Q107.87-35.4927 107.521-35.8421Q107.172-36.1916 106.657-36.1916L13.6612-36.1916Q13.1462-36.1916 12.7987-35.8421Q12.4512-35.4927 12.4512-35.0197Q12.4512-34.5055 12.7987-34.1576Q13.1462-33.8097 13.6612-33.8097ZM13.6612-57.5516L106.657-57.5516Q107.172-57.5516 107.521-57.8991Q107.87-58.2466 107.87-58.7158Q107.87-59.2339 107.521-59.5814Q107.172-59.9289 106.657-59.9289L13.6612-59.9289Q13.1462-59.9289 12.7987-59.5814Q12.4512-59.2339 12.4512-58.7158Q12.4512-58.2466 12.7987-57.8991Q13.1462-57.5516 13.6612-57.5516Z"/>
  </g>
  <g id="Black-S" transform="matrix(1 0 0 1 2881.94 696)">
   <path d="M15.8691-8.78906L87.0605-8.78906Q89.6484-8.78906 91.4062-10.7178Q93.1641-12.6465 93.1641-15.1367Q93.1641-17.7246 91.4062-19.6045Q89.6484-21.4844 87.0605-21.4844L15.8691-21.4844Q13.3301-21.4844 11.5479-19.5801Q9.76562-17.6758 9.76562-15.1367Q9.76562-12.7441 11.5479-10.7666Q13.3301-8.78906 15.8691-8.78906ZM15.8691-28.9062L87.0605-28.9062Q89.6484-28.9062 91.4062-30.835Q93.1641-32.7637 93.1641-35.2539Q93.1641-37.8418 91.4062-39.7217Q89.6484-41.6016 87.0605-41.6016L15.8691-41.6016Q13.3301-41.6016 11.5479-39.6973Q9.76562-37.793 9.76562-35.2539Q9.76562-32.8613 11.5479-30.8838Q13.3301-28.9062 15.8691-28.9062ZM15.8691-48.9746L87.0605-48.9746Q89.6484-48.9746 91.4062-50.9033Q93.1641-52.832 93.1641-55.3223Q93.1641-57.9102 91.4062-59.79Q89.6484-61.6699 87.0605-61.6699L15.8691-61.6699Q13.3301-61.6699 11.5479-59.7656Q9.76562-57.8613 9.76562-55.3223Q9.76562-52.9297 11.5479-50.9521Q13.3301-48.9746 15.8691-48.9746Z"/>
  </g>
  <g id="Heavy-S" transform="matrix(1 0 0 1 2585.87 696)">
   <path d="M15.2008-10.4027L86.4265-10.4027Q88.7268-10.4027 90.3-12.101Q91.8732-13.7993 91.8732-16.0355Q91.8732-18.3357 90.3-20.0024Q88.7268-21.669 86.4265-21.669L15.2008-21.669Q12.9379-21.669 11.3518-19.9837Q9.76562-18.2983 9.76562-16.0355Q9.76562-13.8733 11.3518-12.138Q12.9379-10.4027 15.2008-10.4027ZM15.2008-29.6089L86.4265-29.6089Q88.7268-29.6089 90.3-31.3129Q91.8732-33.017 91.8732-35.2425Q91.8732-37.5534 90.3-39.2143Q88.7268-40.8752 86.4265-40.8752L15.2008-40.8752Q12.9379-40.8752 11.3518-39.1956Q9.76562-37.516 9.76562-35.2425Q9.76562-33.0917 11.3518-31.3503Q12.9379-29.6089 15.2008-29.6089ZM15.2008-48.79L86.4265-48.79Q88.7268-48.79 90.3-50.4883Q91.8732-52.1866 91.8732-54.4121Q91.8732-56.723 90.3-58.3839Q88.7268-60.0449 86.4265-60.0449L15.2008-60.0449Q12.9379-60.0449 11.3518-58.3652Q9.76562-56.6856 9.76562-54.4121Q9.76562-52.2614 11.3518-50.5257Q12.9379-48.79 15.2008-48.79Z"/>
  </g>
  <g id="Bold-S" transform="matrix(1 0 0 1 2289.88 696)">
   <path d="M14.4531-12.207L85.7178-12.207Q87.6953-12.207 89.0625-13.6475Q90.4297-15.0879 90.4297-17.041Q90.4297-19.0186 89.0625-20.4468Q87.6953-21.875 85.7178-21.875L14.4531-21.875Q12.5-21.875 11.1328-20.4346Q9.76562-18.9941 9.76562-17.041Q9.76562-15.1367 11.1328-13.6719Q12.5-12.207 14.4531-12.207ZM14.4531-30.3955L85.7178-30.3955Q87.6953-30.3955 89.0625-31.8481Q90.4297-33.3008 90.4297-35.2295Q90.4297-37.2314 89.0625-38.6475Q87.6953-40.0635 85.7178-40.0635L14.4531-40.0635Q12.5-40.0635 11.1328-38.6353Q9.76562-37.207 9.76562-35.2295Q9.76562-33.3496 11.1328-31.8726Q12.5-30.3955 14.4531-30.3955ZM14.4531-48.584L85.7178-48.584Q87.6953-48.584 89.0625-50.0244Q90.4297-51.4648 90.4297-53.3936Q90.4297-55.3955 89.0625-56.8115Q87.6953-58.2275 85.7178-58.2275L14.4531-58.2275Q12.5-58.2275 11.1328-56.7993Q9.76562-55.3711 9.76562-53.3936Q9.76562-51.5137 11.1328-50.0488Q12.5-48.584 14.4531-48.584Z"/>
  </g>
  <g id="Semibold-S" transform="matrix(1 0 0 1 1993.67 696)">
   <path d="M13.9374-13.4514L85.2287-13.4514Q86.9843-13.4514 88.2092-14.7141Q89.4341-15.9767 89.4341-17.7345Q89.4341-19.4893 88.2092-20.7531Q86.9843-22.0169 85.2287-22.0169L13.9374-22.0169Q12.1979-22.0169 10.9818-20.7455Q9.76562-19.474 9.76562-17.7345Q9.76562-16.008 10.9818-14.7297Q12.1979-13.4514 13.9374-13.4514ZM13.9374-30.938L85.2287-30.938Q86.9843-30.938 88.2092-32.217Q89.4341-33.4961 89.4341-35.2203Q89.4341-37.0094 88.2092-38.2565Q86.9843-39.5035 85.2287-39.5035L13.9374-39.5035Q12.1979-39.5035 10.9818-38.2484Q9.76562-36.9934 9.76562-35.2203Q9.76562-33.5274 10.9818-32.2327Q12.1979-30.938 13.9374-30.938ZM13.9374-48.4421L85.2287-48.4421Q86.9843-48.4421 88.2092-49.7047Q89.4341-50.9674 89.4341-52.6917Q89.4341-54.48 88.2092-55.7274Q86.9843-56.9748 85.2287-56.9748L13.9374-56.9748Q12.1979-56.9748 10.9818-55.7198Q9.76562-54.4647 9.76562-52.6917Q9.76562-50.9979 10.9818-49.72Q12.1979-48.4421 13.9374-48.4421Z"/>
  </g>
  <g id="Medium-S" transform="matrix(1 0 0 1 1697.33 696)">
   <path d="M13.5468-14.3944L84.8587-14.3944Q86.4456-14.3944 87.5626-15.5224Q88.6795-16.6504 88.6795-18.2594Q88.6795-19.8463 87.5626-20.9858Q86.4456-22.1252 84.8587-22.1252L13.5468-22.1252Q11.969-22.1252 10.8673-20.9816Q9.76562-19.838 9.76562-18.2594Q9.76562-16.6679 10.8673-15.5312Q11.969-14.3944 13.5468-14.3944ZM13.5468-31.3484L84.8587-31.3484Q86.4456-31.3484 87.5626-32.4966Q88.6795-33.6449 88.6795-35.2142Q88.6795-36.8408 87.5626-37.9601Q86.4456-39.0793 84.8587-39.0793L13.5468-39.0793Q11.969-39.0793 10.8673-37.9555Q9.76562-36.8317 9.76562-35.2142Q9.76562-33.6624 10.8673-32.5054Q11.969-31.3484 13.5468-31.3484ZM13.5468-48.3337L84.8587-48.3337Q86.4456-48.3337 87.5626-49.4617Q88.6795-50.5898 88.6795-52.1591Q88.6795-53.7865 87.5626-54.9053Q86.4456-56.0242 84.8587-56.0242L13.5468-56.0242Q11.969-56.0242 10.8673-54.9007Q9.76562-53.7773 9.76562-52.1591Q9.76562-50.6073 10.8673-49.4705Q11.969-48.3337 13.5468-48.3337Z"/>
  </g>
  <g id="Regular-S" transform="matrix(1 0 0 1 1401.11 696)">
   <path d="M13.0371-15.625L84.375-15.625Q85.7422-15.625 86.7188-16.5771Q87.6953-17.5293 87.6953-18.9453Q87.6953-20.3125 86.7188-21.2891Q85.7422-22.2656 84.375-22.2656L13.0371-22.2656Q11.6699-22.2656 10.7178-21.2891Q9.76562-20.3125 9.76562-18.9453Q9.76562-17.5293 10.7178-16.5771Q11.6699-15.625 13.0371-15.625ZM13.0371-31.8848L84.375-31.8848Q85.7422-31.8848 86.7188-32.8613Q87.6953-33.8379 87.6953-35.2051Q87.6953-36.6211 86.7188-37.5732Q85.7422-38.5254 84.375-38.5254L13.0371-38.5254Q11.6699-38.5254 10.7178-37.5732Q9.76562-36.6211 9.76562-35.2051Q9.76562-33.8379 10.7178-32.8613Q11.6699-31.8848 13.0371-31.8848ZM13.0371-48.1934L84.375-48.1934Q85.7422-48.1934 86.7188-49.1455Q87.6953-50.0977 87.6953-51.4648Q87.6953-52.8809 86.7188-53.833Q85.7422-54.7852 84.375-54.7852L13.0371-54.7852Q11.6699-54.7852 10.7178-53.833Q9.76562-52.8809 9.76562-51.4648Q9.76562-50.0977 10.7178-49.1455Q11.6699-48.1934 13.0371-48.1934Z"/>
  </g>
  <g id="Light-S" transform="matrix(1 0 0 1 1104.89 696)">
   <path d="M12.3108-15.5945L84.1331-15.5945Q85.1822-15.5945 85.9467-16.3349Q86.7111-17.0753 86.7111-18.1732Q86.7111-19.2375 85.9467-19.9947Q85.1822-20.752 84.1331-20.752L12.3108-20.752Q11.2457-20.752 10.5057-19.9947Q9.76562-19.2375 9.76562-18.1732Q9.76562-17.0753 10.5057-16.3349Q11.2457-15.5945 12.3108-15.5945ZM12.3108-32.5813L84.1331-32.5813Q85.1822-32.5813 85.9467-33.3382Q86.7111-34.095 86.7111-35.1593Q86.7111-36.2579 85.9467-36.998Q85.1822-37.738 84.1331-37.738L12.3108-37.738Q11.2457-37.738 10.5057-36.998Q9.76562-36.2579 9.76562-35.1593Q9.76562-34.095 10.5057-33.3382Q11.2457-32.5813 12.3108-32.5813ZM12.3108-49.601L84.1331-49.601Q85.1822-49.601 85.9467-50.3414Q86.7111-51.0818 86.7111-52.1461Q86.7111-53.244 85.9467-53.9845Q85.1822-54.7249 84.1331-54.7249L12.3108-54.7249Q11.2457-54.7249 10.5057-53.9845Q9.76562-53.244 9.76562-52.1461Q9.76562-51.0818 10.5057-50.3414Q11.2457-49.601 12.3108-49.601Z"/>
  </g>
  <g id="Thin-S" transform="matrix(1 0 0 1 808.834 696)">
   <path d="M11.3495-15.5548L83.8127-15.5548Q84.4414-15.5548 84.9258-16.0149Q85.4103-16.4749 85.4103-17.1524Q85.4103-17.8162 84.9258-18.2831Q84.4414-18.75 83.8127-18.75L11.3495-18.75Q10.6857-18.75 10.2257-18.2831Q9.76562-17.8162 9.76562-17.1524Q9.76562-16.4749 10.2257-16.0149Q10.6857-15.5548 11.3495-15.5548ZM11.3495-33.5022L83.8127-33.5022Q84.4414-33.5022 84.9258-33.9687Q85.4103-34.4353 85.4103-35.0998Q85.4103-35.7773 84.9258-36.2373Q84.4414-36.6974 83.8127-36.6974L11.3495-36.6974Q10.6857-36.6974 10.2257-36.2373Q9.76562-35.7773 9.76562-35.0998Q9.76562-34.4353 10.2257-33.9687Q10.6857-33.5022 11.3495-33.5022ZM11.3495-51.4626L83.8127-51.4626Q84.4414-51.4626 84.9258-51.9226Q85.4103-52.3827 85.4103-53.0472Q85.4103-53.7247 84.9258-54.1847Q84.4414-54.6448 83.8127-54.6448L11.3495-54.6448Q10.6857-54.6448 10.2257-54.1847Q9.76562-53.7247 9.76562-53.0472Q9.76562-52.3827 10.2257-51.9226Q10.6857-51.4626 11.3495-51.4626Z"/>
  </g>
  <g id="Ultralight-S" transform="matrix(1 0 0 1 512.456 696)">
   <path d="M10.8574-15.5342L83.6487-15.5342Q84.0622-15.5342 84.4028-15.8504Q84.7435-16.1667 84.7435-16.6298Q84.7435-17.0883 84.4028-17.4065Q84.0622-17.7246 83.6487-17.7246L10.8574-17.7246Q10.3981-17.7246 10.0819-17.4065Q9.76562-17.0883 9.76562-16.6298Q9.76562-16.1667 10.0819-15.8504Q10.3981-15.5342 10.8574-15.5342ZM10.8574-33.9737L83.6487-33.9737Q84.0622-33.9737 84.4028-34.2918Q84.7435-34.61 84.7435-35.0685Q84.7435-35.5316 84.4028-35.8479Q84.0622-36.1641 83.6487-36.1641L10.8574-36.1641Q10.3981-36.1641 10.0819-35.8479Q9.76562-35.5316 9.76562-35.0685Q9.76562-34.61 10.0819-34.2918Q10.3981-33.9737 10.8574-33.9737ZM10.8574-52.4162L83.6487-52.4162Q84.0622-52.4162 84.4028-52.7328Q84.7435-53.0495 84.7435-53.508Q84.7435-53.9703 84.4028-54.287Q84.0622-54.6036 83.6487-54.6036L10.8574-54.6036Q10.3981-54.6036 10.0819-54.287Q9.76562-53.9703 9.76562-53.508Q9.76562-53.0495 10.0819-52.7328Q10.3981-52.4162 10.8574-52.4162Z"/>
  </g>
 </g>
</svg>
