<?xml version="1.0" encoding="UTF-8"?>
<!--Generator: Apple Native CoreSVG 175-->
<!DOCTYPE svg
PUBLIC "-//W3C//DTD SVG 1.1//EN"
       "http://www.w3.org/Graphics/SVG/1.1/DTD/svg11.dtd">
<svg version="1.1" xmlns="http://www.w3.org/2000/svg" xmlns:xlink="http://www.w3.org/1999/xlink" width="3300" height="2200">
 <!--glyph: "uni100189.medium", point size: 100.0, font version: "17.0d12e1", template writer version: "65.1"-->
 <g id="Notes">
  <rect height="2200" id="artboard" style="fill:white;opacity:1" width="3300" x="0" y="0"/>
  <line style="fill:none;stroke:black;opacity:1;stroke-width:0.5;" x1="263" x2="3036" y1="292" y2="292"/>
  <text style="stroke:none;fill:black;font-family:sans-serif;font-size:13;font-weight:bold;" transform="matrix(1 0 0 1 263 322)">Weight/Scale Variations</text>
  <text style="stroke:none;fill:black;font-family:sans-serif;font-size:13;text-anchor:middle;" transform="matrix(1 0 0 1 559.711 322)">Ultralight</text>
  <text style="stroke:none;fill:black;font-family:sans-serif;font-size:13;text-anchor:middle;" transform="matrix(1 0 0 1 856.422 322)">Thin</text>
  <text style="stroke:none;fill:black;font-family:sans-serif;font-size:13;text-anchor:middle;" transform="matrix(1 0 0 1 1153.13 322)">Light</text>
  <text style="stroke:none;fill:black;font-family:sans-serif;font-size:13;text-anchor:middle;" transform="matrix(1 0 0 1 1449.84 322)">Regular</text>
  <text style="stroke:none;fill:black;font-family:sans-serif;font-size:13;text-anchor:middle;" transform="matrix(1 0 0 1 1746.56 322)">Medium</text>
  <text style="stroke:none;fill:black;font-family:sans-serif;font-size:13;text-anchor:middle;" transform="matrix(1 0 0 1 2043.27 322)">Semibold</text>
  <text style="stroke:none;fill:black;font-family:sans-serif;font-size:13;text-anchor:middle;" transform="matrix(1 0 0 1 2339.98 322)">Bold</text>
  <text style="stroke:none;fill:black;font-family:sans-serif;font-size:13;text-anchor:middle;" transform="matrix(1 0 0 1 2636.69 322)">Heavy</text>
  <text style="stroke:none;fill:black;font-family:sans-serif;font-size:13;text-anchor:middle;" transform="matrix(1 0 0 1 2933.4 322)">Black</text>
  <line style="fill:none;stroke:black;opacity:1;stroke-width:0.5;" x1="263" x2="3036" y1="1903" y2="1903"/>
  <g transform="matrix(1 0 0 1 263 1933)">
   <path d="M9.24805 0.830078Q10.8691 0.830078 12.2949 0.214844Q13.7207-0.400391 14.8096-1.49414Q15.8984-2.58789 16.5186-4.01367Q17.1387-5.43945 17.1387-7.05078Q17.1387-8.66211 16.5186-10.0879Q15.8984-11.5137 14.8047-12.6074Q13.7109-13.7012 12.2852-14.3164Q10.8594-14.9316 9.23828-14.9316Q7.62695-14.9316 6.20117-14.3164Q4.77539-13.7012 3.69141-12.6074Q2.60742-11.5137 1.9873-10.0879Q1.36719-8.66211 1.36719-7.05078Q1.36719-5.43945 1.9873-4.01367Q2.60742-2.58789 3.69629-1.49414Q4.78516-0.400391 6.21094 0.214844Q7.63672 0.830078 9.24805 0.830078ZM9.24805-0.654297Q7.91992-0.654297 6.7627-1.14746Q5.60547-1.64062 4.73145-2.51953Q3.85742-3.39844 3.36426-4.56055Q2.87109-5.72266 2.87109-7.05078Q2.87109-8.37891 3.35938-9.54102Q3.84766-10.7031 4.72168-11.582Q5.5957-12.4609 6.75293-12.9541Q7.91016-13.4473 9.23828-13.4473Q10.5762-13.4473 11.7334-12.9541Q12.8906-12.4609 13.7695-11.582Q14.6484-10.7031 15.1465-9.54102Q15.6445-8.37891 15.6445-7.05078Q15.6445-5.72266 15.1514-4.56055Q14.6582-3.39844 13.7842-2.51953Q12.9102-1.64062 11.748-1.14746Q10.5859-0.654297 9.24805-0.654297ZM5.6543-7.05078Q5.6543-6.72852 5.85938-6.52832Q6.06445-6.32812 6.40625-6.32812L8.51562-6.32812L8.51562-4.20898Q8.51562-3.88672 8.71094-3.67676Q8.90625-3.4668 9.23828-3.4668Q9.56055-3.4668 9.77051-3.67676Q9.98047-3.88672 9.98047-4.20898L9.98047-6.32812L12.0898-6.32812Q12.4219-6.32812 12.627-6.52832Q12.832-6.72852 12.832-7.05078Q12.832-7.38281 12.627-7.58789Q12.4219-7.79297 12.0898-7.79297L9.98047-7.79297L9.98047-9.90234Q9.98047-10.2344 9.77051-10.4443Q9.56055-10.6543 9.23828-10.6543Q8.90625-10.6543 8.71094-10.4443Q8.51562-10.2344 8.51562-9.90234L8.51562-7.79297L6.40625-7.79297Q6.06445-7.79297 5.85938-7.58789Q5.6543-7.38281 5.6543-7.05078Z"/>
  </g>
  <g transform="matrix(1 0 0 1 281.867 1933)">
   <path d="M11.709 2.91016Q13.75 2.91016 15.5518 2.12891Q17.3535 1.34766 18.7305-0.0292969Q20.1074-1.40625 20.8887-3.20801Q21.6699-5.00977 21.6699-7.05078Q21.6699-9.0918 20.8887-10.8936Q20.1074-12.6953 18.7305-14.0723Q17.3535-15.4492 15.5469-16.2305Q13.7402-17.0117 11.6992-17.0117Q9.6582-17.0117 7.85645-16.2305Q6.05469-15.4492 4.68262-14.0723Q3.31055-12.6953 2.5293-10.8936Q1.74805-9.0918 1.74805-7.05078Q1.74805-5.00977 2.5293-3.20801Q3.31055-1.40625 4.6875-0.0292969Q6.06445 1.34766 7.86621 2.12891Q9.66797 2.91016 11.709 2.91016ZM11.709 1.25Q9.98047 1.25 8.47656 0.605469Q6.97266-0.0390625 5.83496-1.17676Q4.69727-2.31445 4.05762-3.81836Q3.41797-5.32227 3.41797-7.05078Q3.41797-8.7793 4.05762-10.2832Q4.69727-11.7871 5.83008-12.9297Q6.96289-14.0723 8.4668-14.7119Q9.9707-15.3516 11.6992-15.3516Q13.4277-15.3516 14.9316-14.7119Q16.4355-14.0723 17.5781-12.9297Q18.7207-11.7871 19.3652-10.2832Q20.0098-8.7793 20.0098-7.05078Q20.0098-5.32227 19.3701-3.81836Q18.7305-2.31445 17.5928-1.17676Q16.4551-0.0390625 14.9463 0.605469Q13.4375 1.25 11.709 1.25ZM7.17773-7.05078Q7.17773-6.69922 7.41211-6.47461Q7.64648-6.25 8.01758-6.25L10.8887-6.25L10.8887-3.36914Q10.8887-2.99805 11.1133-2.76855Q11.3379-2.53906 11.6895-2.53906Q12.0605-2.53906 12.29-2.76855Q12.5195-2.99805 12.5195-3.36914L12.5195-6.25L15.4004-6.25Q15.7715-6.25 16.001-6.47461Q16.2305-6.69922 16.2305-7.05078Q16.2305-7.42188 16.001-7.65137Q15.7715-7.88086 15.4004-7.88086L12.5195-7.88086L12.5195-10.752Q12.5195-11.1328 12.29-11.3623Q12.0605-11.5918 11.6895-11.5918Q11.3379-11.5918 11.1133-11.3574Q10.8887-11.123 10.8887-10.752L10.8887-7.88086L8.01758-7.88086Q7.63672-7.88086 7.40723-7.65137Q7.17773-7.42188 7.17773-7.05078Z"/>
  </g>
  <g transform="matrix(1 0 0 1 305.646 1933)">
   <path d="M14.9707 5.66406Q17.0605 5.66406 18.96 5.01465Q20.8594 4.36523 22.4512 3.19336Q24.043 2.02148 25.2197 0.429688Q26.3965-1.16211 27.0459-3.06641Q27.6953-4.9707 27.6953-7.05078Q27.6953-9.14062 27.0459-11.04Q26.3965-12.9395 25.2197-14.5312Q24.043-16.123 22.4512-17.2998Q20.8594-18.4766 18.9551-19.126Q17.0508-19.7754 14.9609-19.7754Q12.8711-19.7754 10.9717-19.126Q9.07227-18.4766 7.48535-17.2998Q5.89844-16.123 4.72168-14.5312Q3.54492-12.9395 2.90039-11.04Q2.25586-9.14062 2.25586-7.05078Q2.25586-4.9707 2.90527-3.06641Q3.55469-1.16211 4.72656 0.429688Q5.89844 2.02148 7.49023 3.19336Q9.08203 4.36523 10.9814 5.01465Q12.8809 5.66406 14.9707 5.66406ZM14.9707 3.84766Q13.1641 3.84766 11.5283 3.2959Q9.89258 2.74414 8.53516 1.74805Q7.17773 0.751953 6.17676-0.610352Q5.17578-1.97266 4.62891-3.6084Q4.08203-5.24414 4.08203-7.05078Q4.08203-8.86719 4.62891-10.5029Q5.17578-12.1387 6.17188-13.501Q7.16797-14.8633 8.52539-15.8594Q9.88281-16.8555 11.5186-17.4023Q13.1543-17.9492 14.9609-17.9492Q16.7773-17.9492 18.4131-17.4023Q20.0488-16.8555 21.4111-15.8594Q22.7734-14.8633 23.7695-13.501Q24.7656-12.1387 25.3174-10.5029Q25.8691-8.86719 25.8691-7.05078Q25.8789-5.24414 25.332-3.6084Q24.7852-1.97266 23.7842-0.610352Q22.7832 0.751953 21.4209 1.74805Q20.0586 2.74414 18.4229 3.2959Q16.7871 3.84766 14.9707 3.84766ZM9.19922-7.05078Q9.19922-6.66992 9.45801-6.4209Q9.7168-6.17188 10.1172-6.17188L14.0625-6.17188L14.0625-2.2168Q14.0625-1.81641 14.3115-1.55762Q14.5605-1.29883 14.9512-1.29883Q15.3516-1.29883 15.6104-1.55273Q15.8691-1.80664 15.8691-2.2168L15.8691-6.17188L19.8242-6.17188Q20.2246-6.17188 20.4785-6.4209Q20.7324-6.66992 20.7324-7.05078Q20.7324-7.46094 20.4785-7.71484Q20.2246-7.96875 19.8242-7.96875L15.8691-7.96875L15.8691-11.9141Q15.8691-12.3242 15.6104-12.583Q15.3516-12.8418 14.9512-12.8418Q14.5605-12.8418 14.3115-12.583Q14.0625-12.3242 14.0625-11.9141L14.0625-7.96875L10.1172-7.96875Q9.70703-7.96875 9.45312-7.71484Q9.19922-7.46094 9.19922-7.05078Z"/>
  </g>
  <text style="stroke:none;fill:black;font-family:sans-serif;font-size:13;font-weight:bold;" transform="matrix(1 0 0 1 263 1953)">Design Variations</text>
  <text style="stroke:none;fill:black;font-family:sans-serif;font-size:13;" transform="matrix(1 0 0 1 263 1971)">Symbols are supported in up to nine weights and three scales.</text>
  <text style="stroke:none;fill:black;font-family:sans-serif;font-size:13;" transform="matrix(1 0 0 1 263 1989)">For optimal layout with text and other symbols, vertically align</text>
  <text style="stroke:none;fill:black;font-family:sans-serif;font-size:13;" transform="matrix(1 0 0 1 263 2007)">symbols with the adjacent text.</text>
  <line style="fill:none;stroke:#00AEEF;stroke-width:0.5;opacity:1.0;" x1="776" x2="776" y1="1919" y2="1933"/>
  <g transform="matrix(1 0 0 1 776 1933)">
   <path d="M3.31055 0.15625Q3.70117 0.15625 3.91602-0.00976562Q4.13086-0.175781 4.26758-0.585938L5.52734-4.0332L11.2891-4.0332L12.5488-0.585938Q12.6855-0.175781 12.9004-0.00976562Q13.1152 0.15625 13.4961 0.15625Q13.8867 0.15625 14.1162-0.0585938Q14.3457-0.273438 14.3457-0.644531Q14.3457-0.869141 14.2383-1.17188L9.6582-13.3691Q9.48242-13.8184 9.17969-14.043Q8.87695-14.2676 8.4082-14.2676Q7.5-14.2676 7.17773-13.3789L2.59766-1.16211Q2.49023-0.859375 2.49023-0.634766Q2.49023-0.263672 2.70996-0.0537109Q2.92969 0.15625 3.31055 0.15625ZM6.00586-5.51758L8.37891-12.0898L8.42773-12.0898L10.8008-5.51758Z"/>
  </g>
  <line style="fill:none;stroke:#00AEEF;stroke-width:0.5;opacity:1.0;" x1="793.197" x2="793.197" y1="1919" y2="1933"/>
  <text style="stroke:none;fill:black;font-family:sans-serif;font-size:13;font-weight:bold;" transform="matrix(1 0 0 1 776 1953)">Margins</text>
  <text style="stroke:none;fill:black;font-family:sans-serif;font-size:13;" transform="matrix(1 0 0 1 776 1971)">Leading and trailing margins on the left and right side of each symbol</text>
  <text style="stroke:none;fill:black;font-family:sans-serif;font-size:13;" transform="matrix(1 0 0 1 776 1989)">can be adjusted by modifying the x-location of the margin guidelines.</text>
  <text style="stroke:none;fill:black;font-family:sans-serif;font-size:13;" transform="matrix(1 0 0 1 776 2007)">Modifications are automatically applied proportionally to all</text>
  <text style="stroke:none;fill:black;font-family:sans-serif;font-size:13;" transform="matrix(1 0 0 1 776 2025)">scales and weights.</text>
  <g transform="matrix(1 0 0 1 1289 1933)">
   <path d="M2.8418 1.86523L4.54102 3.57422Q5.18555 4.22852 5.90332 4.17969Q6.62109 4.13086 7.31445 3.35938L18.0078-8.42773L17.041-9.4043L6.42578 2.27539Q6.16211 2.57812 5.89355 2.61719Q5.625 2.65625 5.27344 2.30469L4.10156 1.14258Q3.75 0.791016 3.79395 0.522461Q3.83789 0.253906 4.14062-0.0195312L15.6152-10.8203L14.6387-11.7871L3.04688-0.898438Q2.30469-0.214844 2.25098 0.498047Q2.19727 1.21094 2.8418 1.86523ZM9.25781-16.3281Q8.94531-16.0254 8.90625-15.6348Q8.86719-15.2441 9.04297-14.9512Q9.21875-14.6777 9.55566-14.541Q9.89258-14.4043 10.3809-14.5215Q11.4746-14.7754 12.5977-14.7314Q13.7207-14.6875 14.7949-13.9844L14.209-12.5293Q13.9551-11.9043 14.0674-11.4404Q14.1797-10.9766 14.5801-10.5664L16.875-8.25195Q17.2363-7.88086 17.5781-7.82227Q17.9199-7.76367 18.3398-7.8418L19.4043-8.03711L20.0684-7.36328L20.0293-6.80664Q20-6.43555 20.1221-6.12305Q20.2441-5.81055 20.6055-5.44922L21.3672-4.70703Q21.7285-4.3457 22.1533-4.33105Q22.5781-4.31641 22.9297-4.66797L25.8398-7.58789Q26.1914-7.93945 26.1816-8.35449Q26.1719-8.76953 25.8105-9.13086L25.0391-9.89258Q24.6875-10.2539 24.3799-10.3857Q24.0723-10.5176 23.7109-10.4883L23.1348-10.4395L22.4902-11.0742L22.7344-12.1973Q22.832-12.6172 22.6953-12.9834Q22.5586-13.3496 22.1191-13.7891L19.9219-15.9766Q18.6719-17.2168 17.2607-17.8369Q15.8496-18.457 14.4189-18.4814Q12.9883-18.5059 11.665-17.959Q10.3418-17.4121 9.25781-16.3281ZM10.752-15.957Q11.6602-16.6211 12.7002-16.9043Q13.7402-17.1875 14.8047-17.085Q15.8691-16.9824 16.8701-16.5137Q17.8711-16.0449 18.7012-15.2051L21.1328-12.793Q21.3086-12.6172 21.3525-12.4512Q21.3965-12.2852 21.3379-12.0312L21.0156-10.5469L22.5195-9.0625L23.5059-9.12109Q23.6914-9.13086 23.7891-9.09668Q23.8867-9.0625 24.0332-8.91602L24.6094-8.33984L22.168-5.89844L21.5918-6.47461Q21.4453-6.62109 21.4062-6.71875Q21.3672-6.81641 21.377-7.01172L21.4453-7.98828L19.9512-9.47266L18.4277-9.21875Q18.1836-9.16992 18.042-9.2041Q17.9004-9.23828 17.7148-9.41406L15.7129-11.416Q15.5176-11.5918 15.4932-11.7529Q15.4688-11.9141 15.5859-12.1875L16.4648-14.2773Q15.293-15.3711 13.8281-15.791Q12.3633-16.2109 10.8398-15.7617Q10.7227-15.7324 10.6885-15.8057Q10.6543-15.8789 10.752-15.957Z"/>
  </g>
  <text style="stroke:none;fill:black;font-family:sans-serif;font-size:13;font-weight:bold;" transform="matrix(1 0 0 1 1289 1953)">Exporting</text>
  <text style="stroke:none;fill:black;font-family:sans-serif;font-size:13;" transform="matrix(1 0 0 1 1289 1971)">Symbols should be outlined when exporting to ensure the</text>
  <text style="stroke:none;fill:black;font-family:sans-serif;font-size:13;" transform="matrix(1 0 0 1 1289 1989)">design is preserved when submitting to Xcode.</text>
  <text id="template-version" style="stroke:none;fill:black;font-family:sans-serif;font-size:13;text-anchor:end;" transform="matrix(1 0 0 1 3036 1933)">Template v.3.0</text>
  <text style="stroke:none;fill:black;font-family:sans-serif;font-size:13;text-anchor:end;" transform="matrix(1 0 0 1 3036 1951)">Requires Xcode 13 or greater</text>
  <text id="descriptive-name" style="stroke:none;fill:black;font-family:sans-serif;font-size:13;text-anchor:end;" transform="matrix(1 0 0 1 3036 1969)">Generated from chevron.left</text>
  <text style="stroke:none;fill:black;font-family:sans-serif;font-size:13;text-anchor:end;" transform="matrix(1 0 0 1 3036 1987)">Typeset at 100 points</text>
  <text style="stroke:none;fill:black;font-family:sans-serif;font-size:13;" transform="matrix(1 0 0 1 263 726)">Small</text>
  <text style="stroke:none;fill:black;font-family:sans-serif;font-size:13;" transform="matrix(1 0 0 1 263 1156)">Medium</text>
  <text style="stroke:none;fill:black;font-family:sans-serif;font-size:13;" transform="matrix(1 0 0 1 263 1586)">Large</text>
 </g>
 <g id="Guides">
  <g id="H-reference" style="fill:#27AAE1;stroke:none;" transform="matrix(1 0 0 1 339 696)">
   <path d="M0.993347 0L3.6377 0L29.3282-67.1326L30.0301-67.1326L30.0301-70.459L28.1227-70.459ZM11.6882-24.4797L46.9818-24.4797L46.2311-26.7288L12.4382-26.7288ZM55.1193 0L57.7637 0L30.6381-70.459L29.4327-70.459L29.4327-67.1326Z"/>
  </g>
  <line id="Baseline-S" style="fill:none;stroke:#27AAE1;opacity:1;stroke-width:0.5;" x1="263" x2="3036" y1="696" y2="696"/>
  <line id="Capline-S" style="fill:none;stroke:#27AAE1;opacity:1;stroke-width:0.5;" x1="263" x2="3036" y1="625.541" y2="625.541"/>
  <g id="H-reference" style="fill:#27AAE1;stroke:none;" transform="matrix(1 0 0 1 339 1126)">
   <path d="M0.993347 0L3.6377 0L29.3282-67.1326L30.0301-67.1326L30.0301-70.459L28.1227-70.459ZM11.6882-24.4797L46.9818-24.4797L46.2311-26.7288L12.4382-26.7288ZM55.1193 0L57.7637 0L30.6381-70.459L29.4327-70.459L29.4327-67.1326Z"/>
  </g>
  <line id="Baseline-M" style="fill:none;stroke:#27AAE1;opacity:1;stroke-width:0.5;" x1="263" x2="3036" y1="1126" y2="1126"/>
  <line id="Capline-M" style="fill:none;stroke:#27AAE1;opacity:1;stroke-width:0.5;" x1="263" x2="3036" y1="1055.54" y2="1055.54"/>
  <g id="H-reference" style="fill:#27AAE1;stroke:none;" transform="matrix(1 0 0 1 339 1556)">
   <path d="M0.993347 0L3.6377 0L29.3282-67.1326L30.0301-67.1326L30.0301-70.459L28.1227-70.459ZM11.6882-24.4797L46.9818-24.4797L46.2311-26.7288L12.4382-26.7288ZM55.1193 0L57.7637 0L30.6381-70.459L29.4327-70.459L29.4327-67.1326Z"/>
  </g>
  <line id="Baseline-L" style="fill:none;stroke:#27AAE1;opacity:1;stroke-width:0.5;" x1="263" x2="3036" y1="1556" y2="1556"/>
  <line id="Capline-L" style="fill:none;stroke:#27AAE1;opacity:1;stroke-width:0.5;" x1="263" x2="3036" y1="1485.54" y2="1485.54"/>
  <line id="left-margin-Ultralight-S" style="fill:none;stroke:#00AEEF;stroke-width:0.5;opacity:1.0;" x1="533.212" x2="533.212" y1="600.785" y2="720.121"/>
  <line id="right-margin-Ultralight-S" style="fill:none;stroke:#00AEEF;stroke-width:0.5;opacity:1.0;" x1="586.211" x2="586.211" y1="600.785" y2="720.121"/>
  <line id="left-margin-Thin-S" style="fill:none;stroke:#00AEEF;stroke-width:0.5;opacity:1.0;" x1="829.379" x2="829.379" y1="600.785" y2="720.121"/>
  <line id="right-margin-Thin-S" style="fill:none;stroke:#00AEEF;stroke-width:0.5;opacity:1.0;" x1="883.465" x2="883.465" y1="600.785" y2="720.121"/>
  <line id="left-margin-Light-S" style="fill:none;stroke:#00AEEF;stroke-width:0.5;opacity:1.0;" x1="1125.03" x2="1125.03" y1="600.785" y2="720.121"/>
  <line id="right-margin-Light-S" style="fill:none;stroke:#00AEEF;stroke-width:0.5;opacity:1.0;" x1="1181.24" x2="1181.24" y1="600.785" y2="720.121"/>
  <line id="left-margin-Regular-S" style="fill:none;stroke:#00AEEF;stroke-width:0.5;opacity:1.0;" x1="1420.94" x2="1420.94" y1="600.785" y2="720.121"/>
  <line id="right-margin-Regular-S" style="fill:none;stroke:#00AEEF;stroke-width:0.5;opacity:1.0;" x1="1478.75" x2="1478.75" y1="600.785" y2="720.121"/>
  <line id="left-margin-Medium-S" style="fill:none;stroke:#00AEEF;stroke-width:0.5;opacity:1.0;" x1="1716.92" x2="1716.92" y1="600.785" y2="720.121"/>
  <line id="right-margin-Medium-S" style="fill:none;stroke:#00AEEF;stroke-width:0.5;opacity:1.0;" x1="1776.19" x2="1776.19" y1="600.785" y2="720.121"/>
  <line id="left-margin-Semibold-S" style="fill:none;stroke:#00AEEF;stroke-width:0.5;opacity:1.0;" x1="2013.07" x2="2013.07" y1="600.785" y2="720.121"/>
  <line id="right-margin-Semibold-S" style="fill:none;stroke:#00AEEF;stroke-width:0.5;opacity:1.0;" x1="2073.46" x2="2073.46" y1="600.785" y2="720.121"/>
  <line id="left-margin-Bold-S" style="fill:none;stroke:#00AEEF;stroke-width:0.5;opacity:1.0;" x1="2309.05" x2="2309.05" y1="600.785" y2="720.121"/>
  <line id="right-margin-Bold-S" style="fill:none;stroke:#00AEEF;stroke-width:0.5;opacity:1.0;" x1="2370.91" x2="2370.91" y1="600.785" y2="720.121"/>
  <line id="left-margin-Heavy-S" style="fill:none;stroke:#00AEEF;stroke-width:0.5;opacity:1.0;" x1="2604.69" x2="2604.69" y1="600.785" y2="720.121"/>
  <line id="right-margin-Heavy-S" style="fill:none;stroke:#00AEEF;stroke-width:0.5;opacity:1.0;" x1="2668.69" x2="2668.69" y1="600.785" y2="720.121"/>
  <line id="left-margin-Black-S" style="fill:none;stroke:#00AEEF;stroke-width:0.5;opacity:1.0;" x1="2900.44" x2="2900.44" y1="600.785" y2="720.121"/>
  <line id="right-margin-Black-S" style="fill:none;stroke:#00AEEF;stroke-width:0.5;opacity:1.0;" x1="2966.36" x2="2966.36" y1="600.785" y2="720.121"/>
  <line id="left-margin-Ultralight-M" style="fill:none;stroke:#00AEEF;stroke-width:0.5;opacity:1.0;" x1="526.108" x2="526.108" y1="1030.79" y2="1150.12"/>
  <line id="right-margin-Ultralight-M" style="fill:none;stroke:#00AEEF;stroke-width:0.5;opacity:1.0;" x1="593.315" x2="593.315" y1="1030.79" y2="1150.12"/>
  <line id="left-margin-Thin-M" style="fill:none;stroke:#00AEEF;stroke-width:0.5;opacity:1.0;" x1="822.203" x2="822.203" y1="1030.79" y2="1150.12"/>
  <line id="right-margin-Thin-M" style="fill:none;stroke:#00AEEF;stroke-width:0.5;opacity:1.0;" x1="890.641" x2="890.641" y1="1030.79" y2="1150.12"/>
  <line id="left-margin-Light-M" style="fill:none;stroke:#00AEEF;stroke-width:0.5;opacity:1.0;" x1="1117.71" x2="1117.71" y1="1030.79" y2="1150.12"/>
  <line id="right-margin-Light-M" style="fill:none;stroke:#00AEEF;stroke-width:0.5;opacity:1.0;" x1="1188.55" x2="1188.55" y1="1030.79" y2="1150.12"/>
  <line id="left-margin-Regular-M" style="fill:none;stroke:#00AEEF;stroke-width:0.5;opacity:1.0;" x1="1413.52" x2="1413.52" y1="1030.79" y2="1150.12"/>
  <line id="right-margin-Regular-M" style="fill:none;stroke:#00AEEF;stroke-width:0.5;opacity:1.0;" x1="1486.17" x2="1486.17" y1="1030.79" y2="1150.12"/>
  <line id="left-margin-Medium-M" style="fill:none;stroke:#00AEEF;stroke-width:0.5;opacity:1.0;" x1="1709.27" x2="1709.27" y1="1030.79" y2="1150.12"/>
  <line id="right-margin-Medium-M" style="fill:none;stroke:#00AEEF;stroke-width:0.5;opacity:1.0;" x1="1783.84" x2="1783.84" y1="1030.79" y2="1150.12"/>
  <line id="left-margin-Semibold-M" style="fill:none;stroke:#00AEEF;stroke-width:0.5;opacity:1.0;" x1="2005.25" x2="2005.25" y1="1030.79" y2="1150.12"/>
  <line id="right-margin-Semibold-M" style="fill:none;stroke:#00AEEF;stroke-width:0.5;opacity:1.0;" x1="2081.29" x2="2081.29" y1="1030.79" y2="1150.12"/>
  <line id="left-margin-Bold-M" style="fill:none;stroke:#00AEEF;stroke-width:0.5;opacity:1.0;" x1="2300.99" x2="2300.99" y1="1030.79" y2="1150.12"/>
  <line id="right-margin-Bold-M" style="fill:none;stroke:#00AEEF;stroke-width:0.5;opacity:1.0;" x1="2378.97" x2="2378.97" y1="1030.79" y2="1150.12"/>
  <line id="left-margin-Heavy-M" style="fill:none;stroke:#00AEEF;stroke-width:0.5;opacity:1.0;" x1="2596.29" x2="2596.29" y1="1030.79" y2="1150.12"/>
  <line id="right-margin-Heavy-M" style="fill:none;stroke:#00AEEF;stroke-width:0.5;opacity:1.0;" x1="2677.08" x2="2677.08" y1="1030.79" y2="1150.12"/>
  <line id="left-margin-Black-M" style="fill:none;stroke:#00AEEF;stroke-width:0.5;opacity:1.0;" x1="2891.75" x2="2891.75" y1="1030.79" y2="1150.12"/>
  <line id="right-margin-Black-M" style="fill:none;stroke:#00AEEF;stroke-width:0.5;opacity:1.0;" x1="2975.05" x2="2975.05" y1="1030.79" y2="1150.12"/>
  <line id="left-margin-Ultralight-L" style="fill:none;stroke:#00AEEF;stroke-width:0.5;opacity:1.0;" x1="516.611" x2="516.611" y1="1460.79" y2="1580.12"/>
  <line id="right-margin-Ultralight-L" style="fill:none;stroke:#00AEEF;stroke-width:0.5;opacity:1.0;" x1="602.811" x2="602.811" y1="1460.79" y2="1580.12"/>
  <line id="left-margin-Thin-L" style="fill:none;stroke:#00AEEF;stroke-width:0.5;opacity:1.0;" x1="812.635" x2="812.635" y1="1460.79" y2="1580.12"/>
  <line id="right-margin-Thin-L" style="fill:none;stroke:#00AEEF;stroke-width:0.5;opacity:1.0;" x1="900.209" x2="900.209" y1="1460.79" y2="1580.12"/>
  <line id="left-margin-Light-L" style="fill:none;stroke:#00AEEF;stroke-width:0.5;opacity:1.0;" x1="1108" x2="1108" y1="1460.79" y2="1580.12"/>
  <line id="right-margin-Light-L" style="fill:none;stroke:#00AEEF;stroke-width:0.5;opacity:1.0;" x1="1198.26" x2="1198.26" y1="1460.79" y2="1580.12"/>
  <line id="left-margin-Regular-L" style="fill:none;stroke:#00AEEF;stroke-width:0.5;opacity:1.0;" x1="1403.7" x2="1403.7" y1="1460.79" y2="1580.12"/>
  <line id="right-margin-Regular-L" style="fill:none;stroke:#00AEEF;stroke-width:0.5;opacity:1.0;" x1="1495.99" x2="1495.99" y1="1460.79" y2="1580.12"/>
  <line id="left-margin-Medium-L" style="fill:none;stroke:#00AEEF;stroke-width:0.5;opacity:1.0;" x1="1699.27" x2="1699.27" y1="1460.79" y2="1580.12"/>
  <line id="right-margin-Medium-L" style="fill:none;stroke:#00AEEF;stroke-width:0.5;opacity:1.0;" x1="1793.85" x2="1793.85" y1="1460.79" y2="1580.12"/>
  <line id="left-margin-Semibold-L" style="fill:none;stroke:#00AEEF;stroke-width:0.5;opacity:1.0;" x1="1995.1" x2="1995.1" y1="1460.79" y2="1580.12"/>
  <line id="right-margin-Semibold-L" style="fill:none;stroke:#00AEEF;stroke-width:0.5;opacity:1.0;" x1="2091.44" x2="2091.44" y1="1460.79" y2="1580.12"/>
  <line id="left-margin-Bold-L" style="fill:none;stroke:#00AEEF;stroke-width:0.5;opacity:1.0;" x1="2290.65" x2="2290.65" y1="1460.79" y2="1580.12"/>
  <line id="right-margin-Bold-L" style="fill:none;stroke:#00AEEF;stroke-width:0.5;opacity:1.0;" x1="2389.31" x2="2389.31" y1="1460.79" y2="1580.12"/>
  <line id="left-margin-Heavy-L" style="fill:none;stroke:#00AEEF;stroke-width:0.5;opacity:1.0;" x1="2585.68" x2="2585.68" y1="1460.79" y2="1580.12"/>
  <line id="right-margin-Heavy-L" style="fill:none;stroke:#00AEEF;stroke-width:0.5;opacity:1.0;" x1="2687.7" x2="2687.7" y1="1460.79" y2="1580.12"/>
  <line id="left-margin-Black-L" style="fill:none;stroke:#00AEEF;stroke-width:0.5;opacity:1.0;" x1="2880.89" x2="2880.89" y1="1460.79" y2="1580.12"/>
  <line id="right-margin-Black-L" style="fill:none;stroke:#00AEEF;stroke-width:0.5;opacity:1.0;" x1="2985.91" x2="2985.91" y1="1460.79" y2="1580.12"/>
 </g>
 <g id="Symbols">
  <g id="Black-L" transform="matrix(1 0 0 1 2880.89 1556)">
   <path d="M6.88477-35.2539Q6.88477-32.2266 8.03223-29.6387Q9.17969-27.0508 11.7676-24.5117L58.0078 20.9961Q61.5723 24.6094 66.7969 24.6094Q70.3613 24.6094 73.291 22.876Q76.2207 21.1426 77.9785 18.2373Q79.7363 15.332 79.7363 11.8164Q79.7363 6.49414 75.5371 2.29492L36.7676-35.3516L75.5371-72.8516Q79.7363-76.9531 79.7363-82.3242Q79.7363-85.791 77.9785-88.6963Q76.2207-91.6016 73.291-93.335Q70.3613-95.0684 66.7969-95.0684Q61.5723-95.0684 58.0078-91.5039L11.7676-45.9961Q9.22852-43.5059 8.08105-40.9424Q6.93359-38.3789 6.88477-35.2539Z"/>
  </g>
  <g id="Heavy-L" transform="matrix(1 0 0 1 2585.68 1556)">
   <path d="M7.16171-35.2539Q7.16171-32.6988 8.13026-30.5088Q9.09882-28.3188 11.2602-26.2062L58.4343 19.9593Q61.4914 23.0537 65.9668 23.0537Q69.0132 23.0537 71.5107 21.5797Q74.0082 20.1057 75.5066 17.6266Q77.005 15.1474 77.005 12.1277Q77.005 7.6004 73.4627 4.04663L32.8033-35.3287L73.4627-74.6033Q77.005-78.0823 77.005-82.6469Q77.005-85.6178 75.5066-88.097Q74.0082-90.5762 71.5107-92.0502Q69.0132-93.5242 65.9668-93.5242Q61.4914-93.5242 58.4343-90.4671L11.2602-44.3016Q9.1362-42.2264 8.16727-40.0608Q7.19833-37.8952 7.16171-35.2539Z"/>
  </g>
  <g id="Bold-L" transform="matrix(1 0 0 1 2290.65 1556)">
   <path d="M7.4707-35.2539Q7.4707-33.2275 8.23975-31.4819Q9.00879-29.7363 10.6934-28.1006L58.9111 18.7988Q61.4014 21.3135 65.0391 21.3135Q67.5049 21.3135 69.519 20.1294Q71.5332 18.9453 72.7417 16.9434Q73.9502 14.9414 73.9502 12.4756Q73.9502 8.83789 71.1426 6.00586L28.3691-35.3027L71.1426-76.5625Q73.9502-79.3457 73.9502-83.0078Q73.9502-85.4248 72.7417-87.4268Q71.5332-89.4287 69.519-90.6128Q67.5049-91.7969 65.0391-91.7969Q61.4014-91.7969 58.9111-89.3066L10.6934-42.4072Q9.0332-40.7959 8.26416-39.0747Q7.49512-37.3535 7.4707-35.2539Z"/>
  </g>
  <g id="Semibold-L" transform="matrix(1 0 0 1 1995.1 1556)">
   <path d="M7.68433-35.2539Q7.68433-33.5922 8.31528-32.1529Q8.94623-30.7137 10.302-29.4067L59.24 17.9993Q61.3388 20.1134 64.399 20.1134Q66.465 20.1134 68.1461 19.1296Q69.8273 18.1458 70.8355 16.4726Q71.8437 14.7995 71.8437 12.7159Q71.8437 9.69086 69.5427 7.35703L25.312-35.2852L69.5427-77.9137Q71.8437-80.217 71.8437-83.2565Q71.8437-85.2913 70.8355-86.9644Q69.8273-88.6375 68.1461-89.6217Q66.465-90.6059 64.399-90.6059Q61.3388-90.6059 59.24-88.5071L10.302-41.1011Q8.96225-39.8094 8.33092-38.3949Q7.69958-36.9804 7.68433-35.2539Z"/>
  </g>
  <g id="Medium-L" transform="matrix(1 0 0 1 1699.27 1556)">
   <path d="M7.84607-35.2539Q7.84607-33.8684 8.37288-32.6618Q8.89969-31.4552 10.006-30.3978L59.4894 17.3927Q61.2923 19.2039 63.9137 19.2039Q65.6769 19.2039 67.1051 18.3716Q68.5333 17.5392 69.3901 16.1152Q70.2469 14.6912 70.2469 12.8975Q70.2469 10.3378 68.3304 8.38089L22.9942-35.2715L68.3304-78.9375Q70.2469-80.8769 70.2469-83.445Q70.2469-85.1906 69.3901-86.6142Q68.5333-88.0379 67.1051-88.8706Q65.6769-89.7034 63.9137-89.7034Q61.2923-89.7034 59.4894-87.9005L10.006-40.11Q8.90808-39.0617 8.38127-37.8796Q7.85446-36.6974 7.84607-35.2539Z"/>
  </g>
  <g id="Regular-L" transform="matrix(1 0 0 1 1403.7 1556)">
   <path d="M8.05664-35.2539Q8.05664-34.2285 8.44727-33.3252Q8.83789-32.4219 9.61914-31.6895L59.8145 16.6016Q61.2305 18.0176 63.2812 18.0176Q64.6484 18.0176 65.7471 17.3828Q66.8457 16.748 67.5049 15.6494Q68.1641 14.5508 68.1641 13.1348Q68.1641 11.1816 66.748 9.7168L19.9707-35.2539L66.748-80.2734Q68.1641-81.7383 68.1641-83.6914Q68.1641-85.0586 67.5049-86.1572Q66.8457-87.2559 65.7471-87.8906Q64.6484-88.5254 63.2812-88.5254Q61.2305-88.5254 59.8145-87.1094L9.61914-38.8184Q8.83789-38.0859 8.44727-37.207Q8.05664-36.3281 8.05664-35.2539Z"/>
  </g>
  <g id="Light-L" transform="matrix(1 0 0 1 1108 1556)">
   <path d="M8.05664-35.2539Q8.05664-34.4406 8.36411-33.749Q8.67157-33.0574 9.30099-32.4921L59.845 15.0124Q60.9123 16.0805 62.4786 16.0805Q63.4827 16.0805 64.3089 15.6044Q65.1352 15.1283 65.6353 14.3021Q66.1354 13.4758 66.1354 12.4084Q66.1354 10.9543 65.0978 9.88312L17.0189-35.2539L65.0978-80.4398Q66.1354-81.4964 66.1354-82.9651Q66.1354-83.9989 65.6353-84.8251Q65.1352-85.6514 64.3089-86.1198Q63.4827-86.5883 62.4786-86.5883Q60.9123-86.5883 59.845-85.5202L9.30099-38.031Q8.67157-37.4657 8.36411-36.7908Q8.05664-36.116 8.05664-35.2539Z"/>
  </g>
  <g id="Thin-L" transform="matrix(1 0 0 1 812.635 1556)">
   <path d="M8.05664-35.2539Q8.05664-34.7206 8.25386-34.3094Q8.45108-33.8982 8.88062-33.5526L59.8846 12.9105Q60.4919 13.5178 61.4182 13.5178Q61.9415 13.5178 62.4073 13.2523Q62.8731 12.9868 63.1634 12.5206Q63.4537 12.0544 63.4537 11.4471Q63.4537 10.6544 62.9158 10.1036L13.1157-35.2539L62.9158-80.6602Q63.4537-81.176 63.4537-82.0038Q63.4537-82.5981 63.1634-83.0639Q62.8731-83.5297 62.4073-83.7776Q61.9415-84.0256 61.4182-84.0256Q60.4919-84.0256 59.8846-83.4183L8.88062-36.9904Q8.45108-36.6447 8.25386-36.2404Q8.05664-35.836 8.05664-35.2539Z"/>
  </g>
  <g id="Ultralight-L" transform="matrix(1 0 0 1 516.611 1556)">
   <path d="M8.05664-35.2539Q8.05664-34.864 8.1974-34.5966Q8.33817-34.3292 8.66547-34.0965L59.9052 11.8332Q60.2768 12.2055 60.8742 12.2055Q61.1519 12.2055 61.433 12.0472Q61.7142 11.8889 61.8965 11.6077Q62.0789 11.3266 62.0789 10.955Q62.0789 10.5003 61.7981 10.2165L11.116-35.2539L61.7981-80.7732Q62.0789-81.012 62.0789-81.5117Q62.0789-81.8802 61.8965-82.1613Q61.7142-82.4425 61.433-82.5779Q61.1519-82.7133 60.8742-82.7133Q60.2768-82.7133 59.9052-82.341L8.66547-36.4571Q8.33817-36.2244 8.1974-35.9585Q8.05664-35.6926 8.05664-35.2539Z"/>
  </g>
  <g id="Black-M" transform="matrix(1 0 0 1 2891.75 1126)">
   <path d="M5.07812-35.2539Q5.07812-32.5684 6.10352-30.2734Q7.12891-27.9785 9.47266-25.7324L44.5801 8.69141Q47.7051 11.8164 52.1973 11.8164Q55.2734 11.8164 57.8369 10.3027Q60.4004 8.78906 61.9385 6.27441Q63.4766 3.75977 63.4766 0.732422Q63.4766-3.90625 59.7168-7.56836L30.9082-35.3027L59.7168-62.9395Q63.4766-66.5039 63.4766-71.1914Q63.4766-74.2188 61.9385-76.7334Q60.4004-79.248 57.8369-80.7617Q55.2734-82.2754 52.1973-82.2754Q47.7051-82.2754 44.5801-79.1504L9.47266-44.7754Q7.17773-42.5293 6.15234-40.2588Q5.12695-37.9883 5.07812-35.2539Z"/>
  </g>
  <g id="Heavy-M" transform="matrix(1 0 0 1 2596.29 1126)">
   <path d="M5.35507-35.2539Q5.35507-32.9834 6.2191-31.0398Q7.08313-29.0962 9.03473-27.2194L44.9951 8.01163Q47.6936 10.7101 51.5633 10.7101Q54.213 10.7101 56.4079 9.41544Q58.6029 8.12073 59.922 5.96313Q61.2411 3.80554 61.2411 1.19324Q61.2411-2.7771 58.0574-5.89752L27.6581-35.2913L58.0574-64.6103Q61.2411-67.6567 61.2411-71.6637Q61.2411-74.2767 59.922-76.4339Q58.6029-78.5912 56.4079-79.8859Q54.213-81.1806 51.5633-81.1806Q47.6936-81.1806 44.9951-78.4935L9.03473-43.2884Q7.11975-41.4116 6.25572-39.4867Q5.39169-37.5618 5.35507-35.2539Z"/>
  </g>
  <g id="Bold-M" transform="matrix(1 0 0 1 2300.99 1126)">
   <path d="M5.66406-35.2539Q5.66406-33.4473 6.34766-31.897Q7.03125-30.3467 8.54492-28.8818L45.459 7.25098Q47.6807 9.47266 50.8545 9.47266Q53.0273 9.47266 54.8096 8.42285Q56.5918 7.37305 57.666 5.61523Q58.7402 3.85742 58.7402 1.70898Q58.7402-1.51367 56.2012-4.02832L24.0234-35.2783L56.2012-66.4795Q58.7402-68.9453 58.7402-72.1924Q58.7402-74.3408 57.666-76.0986Q56.5918-77.8564 54.8096-78.9062Q53.0273-79.9561 50.8545-79.9561Q47.6807-79.9561 45.459-77.7588L8.54492-41.626Q7.05566-40.1611 6.37207-38.623Q5.68848-37.085 5.66406-35.2539Z"/>
  </g>
  <g id="Semibold-M" transform="matrix(1 0 0 1 2005.25 1126)">
   <path d="M5.87769-35.2539Q5.87769-33.7669 6.43654-32.4879Q6.99539-31.2088 8.20694-30.0285L45.7787 6.72684Q47.6715 8.61969 50.3654 8.61969Q52.2095 8.61969 53.7075 7.73849Q55.2055 6.8573 56.1108 5.37529Q57.016 3.89328 57.016 2.06451Q57.016-0.642395 54.9217-2.73972L21.5172-35.2692L54.9217-67.7681Q57.016-69.8341 57.016-72.5571Q57.016-74.3851 56.1108-75.8675Q55.2055-77.3499 53.7075-78.2307Q52.2095-79.1115 50.3654-79.1115Q47.6715-79.1115 45.7787-77.2522L8.20694-40.4793Q7.01141-39.299 6.45218-38.0276Q5.89294-36.7561 5.87769-35.2539Z"/>
  </g>
  <g id="Medium-M" transform="matrix(1 0 0 1 1709.27 1126)">
   <path d="M6.03943-35.2539Q6.03943-34.0096 6.50406-32.9361Q6.96869-31.8626 7.95135-30.8975L46.0213 6.32935Q47.6654 7.97272 49.9954 7.97272Q51.59 7.97272 52.8721 7.2197Q54.1542 6.46667 54.9316 5.19333Q55.7091 3.91998 55.7091 2.33383Q55.7091 0.0175476 53.9513-1.76239L19.6175-35.2631L53.9513-68.7454Q55.7091-70.5078 55.7091-72.8333Q55.7091-74.4186 54.9316-75.6924Q54.1542-76.9661 52.8721-77.7187Q51.59-78.4714 49.9954-78.4714Q47.6654-78.4714 46.0213-76.8684L7.95135-39.6103Q6.97784-38.6452 6.51283-37.5759Q6.04782-36.5067 6.03943-35.2539Z"/>
  </g>
  <g id="Regular-M" transform="matrix(1 0 0 1 1413.52 1126)">
   <path d="M6.25-35.2539Q6.25-34.3262 6.5918-33.5205Q6.93359-32.7148 7.61719-32.0312L46.3379 5.81055Q47.6562 7.12891 49.5117 7.12891Q50.7812 7.12891 51.7822 6.54297Q52.7832 5.95703 53.3936 4.95605Q54.0039 3.95508 54.0039 2.68555Q54.0039 0.878906 52.6855-0.488281L17.1387-35.2539L52.6855-70.0195Q54.0039-71.3867 54.0039-73.1934Q54.0039-74.4629 53.3936-75.4639Q52.7832-76.4648 51.7822-77.0508Q50.7812-77.6367 49.5117-77.6367Q47.6562-77.6367 46.3379-76.3672L7.61719-38.4766Q6.93359-37.793 6.5918-36.9873Q6.25-36.1816 6.25-35.2539Z"/>
  </g>
  <g id="Light-M" transform="matrix(1 0 0 1 1117.71 1126)">
   <path d="M6.25-35.2539Q6.25-34.523 6.52351-33.8989Q6.79703-33.2748 7.34482-32.7423L46.3684 4.38766Q47.3686 5.38788 48.7854 5.38788Q49.7215 5.38788 50.4803 4.94576Q51.239 4.50363 51.7056 3.75252Q52.1721 3.0014 52.1721 2.03476Q52.1721 0.666809 51.2024-0.337219L14.4897-35.2539L51.2024-70.1706Q52.1721-71.1746 52.1721-72.5426Q52.1721-73.5092 51.7056-74.268Q51.239-75.0267 50.4803-75.4612Q49.7215-75.8957 48.7854-75.8957Q47.3686-75.8957 46.3684-74.9443L7.34482-37.7655Q6.79703-37.233 6.52351-36.6165Q6.25-36.0001 6.25-35.2539Z"/>
  </g>
  <g id="Thin-M" transform="matrix(1 0 0 1 822.203 1126)">
   <path d="M6.25-35.2539Q6.25-34.7832 6.43349-34.3994Q6.61697-34.0157 6.98471-33.6838L46.4081 2.50626Q46.9887 3.08609 47.8241 3.08609Q48.3208 3.08609 48.7591 2.83432Q49.1974 2.58255 49.474 2.16141Q49.7505 1.74026 49.7505 1.17416Q49.7505 0.38681 49.2401-0.136566L10.9863-35.2539L49.2401-70.3712Q49.7505-70.8946 49.7505-71.682Q49.7505-72.2481 49.474-72.6868Q49.1974-73.1255 48.7591-73.3597Q48.3208-73.5939 47.8241-73.5939Q46.9887-73.5939 46.4081-73.0629L6.98471-36.824Q6.61697-36.4922 6.43349-36.1259Q6.25-35.7597 6.25-35.2539Z"/>
  </g>
  <g id="Ultralight-M" transform="matrix(1 0 0 1 526.108 1126)">
   <path d="M6.25-35.2539Q6.25-34.9167 6.38733-34.6558Q6.52466-34.3948 6.80008-34.1652L46.4287 1.5419Q46.7934 1.90659 47.332 1.90659Q47.6028 1.90659 47.8771 1.75209Q48.1514 1.5976 48.3303 1.34583Q48.5092 1.09406 48.5092 0.733185Q48.5092 0.243378 48.2353-0.0343323L9.19189-35.2539L48.2353-70.4735Q48.5092-70.7512 48.5092-71.241Q48.5092-71.6019 48.3303-71.8765Q48.1514-72.1512 47.8771-72.2828Q47.6028-72.4144 47.332-72.4144Q46.7934-72.4144 46.4287-72.0985L6.80008-36.3426Q6.52466-36.113 6.38733-35.8749Q6.25-35.6369 6.25-35.2539Z"/>
  </g>
  <g id="Black-S" transform="matrix(1 0 0 1 2900.44 696)">
   <path d="M3.90625-35.2539Q3.90625-33.0078 4.73633-31.1279Q5.56641-29.248 7.51953-27.3926L34.8145-0.683594Q37.3535 1.85547 41.0645 1.85547Q44.8242 1.85547 47.5586-0.830078Q50.293-3.51562 50.293-7.22656Q50.293-11.084 47.2168-14.0625L25.0488-35.3027L47.2168-56.4453Q50.293-59.375 50.293-63.2324Q50.293-66.9434 47.5586-69.6289Q44.8242-72.3145 41.0645-72.3145Q37.3535-72.3145 34.8145-69.7754L7.51953-43.1152Q3.95508-39.6484 3.90625-35.2539Z"/>
  </g>
  <g id="Heavy-S" transform="matrix(1 0 0 1 2604.69 696)">
   <path d="M4.13666-35.2539Q4.13666-33.342 4.84581-31.7387Q5.55496-30.1353 7.18536-28.5683L35.1601-1.08719Q37.3764 1.12915 40.6151 1.12915Q43.8904 1.12915 46.2505-1.19324Q48.6107-3.51562 48.6107-6.7543Q48.6107-10.0815 45.9839-12.6564L22.6173-35.2913L45.9839-57.8514Q48.6107-60.3889 48.6107-63.7161Q48.6107-66.9548 46.2505-69.2772Q43.8904-71.5996 40.6151-71.5996Q37.3764-71.5996 35.1601-69.3832L7.18536-41.9395Q4.17404-39.003 4.13666-35.2539Z"/>
  </g>
  <g id="Bold-S" transform="matrix(1 0 0 1 2309.05 696)">
   <path d="M4.39453-35.2539Q4.39453-33.7158 4.96826-32.4219Q5.54199-31.1279 6.81152-29.8828L35.5469-1.53809Q37.4023 0.317383 40.1123 0.317383Q42.8467 0.317383 44.7876-1.59912Q46.7285-3.51562 46.7285-6.22559Q46.7285-8.95996 44.6045-11.084L19.8975-35.2783L44.6045-59.4238Q46.7285-61.5234 46.7285-64.2578Q46.7285-66.9678 44.7876-68.8843Q42.8467-70.8008 40.1123-70.8008Q37.4023-70.8008 35.5469-68.9453L6.81152-40.625Q4.41895-38.2812 4.39453-35.2539Z"/>
  </g>
  <g id="Semibold-S" transform="matrix(1 0 0 1 2013.07 696)">
   <path d="M4.5723-35.2539Q4.5723-33.9737 5.05257-32.893Q5.53284-31.8123 6.55365-30.7892L35.8131-1.84937Q37.4199-0.242615 39.7659-0.242615Q42.1265-0.242615 43.7786-1.87912Q45.4308-3.51562 45.4308-5.8609Q45.4308-8.1871 43.6539-9.99985L18.0222-35.2692L43.6539-60.508Q45.4308-62.3055 45.4308-64.6309Q45.4308-66.9769 43.7786-68.6134Q42.1265-70.2499 39.7659-70.2499Q37.4199-70.2499 35.8131-68.6432L6.55365-39.7186Q4.58755-37.7838 4.5723-35.2539Z"/>
  </g>
  <g id="Medium-S" transform="matrix(1 0 0 1 1716.92 696)">
   <path d="M4.70734-35.2539Q4.70734-34.169 5.11703-33.25Q5.52673-32.3311 6.35834-31.4766L36.0153-2.08511Q37.4336-0.666809 39.5027-0.666809Q41.581-0.666809 43.0141-2.09122Q44.4473-3.51562 44.4473-5.58472Q44.4473-7.6004 42.9329-9.1774L16.6008-35.2631L42.9329-61.3304Q44.4473-62.8983 44.4473-64.9139Q44.4473-66.983 43.0141-68.4074Q41.581-69.8318 39.5027-69.8318Q37.4336-69.8318 36.0153-68.4143L6.35834-39.0312Q4.71573-37.4062 4.70734-35.2539Z"/>
  </g>
  <g id="Regular-S" transform="matrix(1 0 0 1 1420.94 696)">
   <path d="M4.88281-35.2539Q4.88281-34.4238 5.2002-33.7158Q5.51758-33.0078 6.10352-32.373L36.2793-2.39258Q37.4512-1.2207 39.1602-1.2207Q40.8691-1.2207 42.0166-2.36816Q43.1641-3.51562 43.1641-5.22461Q43.1641-6.83594 41.9922-8.10547L14.7461-35.2539L41.9922-62.4023Q43.1641-63.6719 43.1641-65.2832Q43.1641-66.9922 42.0166-68.1396Q40.8691-69.2871 39.1602-69.2871Q37.4512-69.2871 36.2793-68.1152L6.10352-38.1348Q4.88281-36.9141 4.88281-35.2539Z"/>
  </g>
  <g id="Light-S" transform="matrix(1 0 0 1 1125.03 696)">
   <path d="M4.88281-35.2539Q4.88281-34.5901 5.13191-34.0412Q5.38101-33.4923 5.86166-33.0086L36.3098-3.64914Q37.2093-2.74963 38.5094-2.74963Q39.7942-2.74963 40.6769-3.6171Q41.5596-4.48456 41.5596-5.79987Q41.5596-7.01752 40.6754-7.9689L12.4001-35.2539L40.6754-62.5389Q41.5596-63.4903 41.5596-64.7079Q41.5596-66.0233 40.6769-66.8907Q39.7942-67.7582 38.5094-67.7582Q37.2093-67.7582 36.3098-66.8587L5.86166-37.4992Q4.88281-36.5509 4.88281-35.2539Z"/>
  </g>
  <g id="Thin-S" transform="matrix(1 0 0 1 829.379 696)">
   <path d="M4.88281-35.2539Q4.88281-34.8106 5.04189-34.4719Q5.20096-34.1331 5.54123-33.8493L36.3495-5.31006Q36.8889-4.77142 37.6488-4.77142Q38.3728-4.77142 38.9053-5.26848Q39.4379-5.76553 39.4379-6.56052Q39.4379-7.25784 38.9336-7.78885L9.29718-35.2539L38.9336-62.719Q39.4379-63.25 39.4379-63.9473Q39.4379-64.7423 38.9053-65.2393Q38.3728-65.7364 37.6488-65.7364Q36.8889-65.7364 36.3495-65.1978L5.54123-36.6585Q4.88281-36.0703 4.88281-35.2539Z"/>
  </g>
  <g id="Ultralight-S" transform="matrix(1 0 0 1 533.212 696)">
   <path d="M4.88281-35.2539Q4.88281-34.9236 4.99573-34.6924Q5.10864-34.4612 5.3772-34.2804L36.3701-6.1615Q36.7249-5.80673 37.2078-5.80673Q37.645-5.80673 37.9978-6.1142Q38.3507-6.42166 38.3507-6.95038Q38.3507-7.38068 38.0417-7.69653L7.70721-35.2539L38.0417-62.8113Q38.3507-63.1271 38.3507-63.5574Q38.3507-64.0862 37.9978-64.3936Q37.645-64.7011 37.2078-64.7011Q36.7249-64.7011 36.3701-64.3463L5.3772-36.2274Q4.88281-35.8246 4.88281-35.2539Z"/>
  </g>
 </g>
</svg>
