<?xml version="1.0" encoding="utf-8"?>
<!-- Generator: Adobe Illustrator 25.4.1, SVG Export Plug-In . SVG Version: 6.00 Build 0)  -->
<svg version="1.1" id="レイヤー_1" xmlns="http://www.w3.org/2000/svg" xmlns:xlink="http://www.w3.org/1999/xlink" x="0px"
	 y="0px" viewBox="0 0 3300 2200" style="enable-background:new 0 0 3300 2200;" xml:space="preserve">
<style type="text/css">
	.st0{fill:#FFFFFF;}
	.st1{fill:none;stroke:#000000;stroke-width:0.5;}
	.st2{font-family:'Helvetica-Bold';}
	.st3{font-size:13px;}
	.st4{font-family:'Helvetica';}
	.st5{fill:none;stroke:#00AEEF;stroke-width:0.5;}
	.st6{fill:#27AAE1;}
	.st7{fill:none;stroke:#27AAE1;stroke-width:0.5;}
	.st8{fill:#FFCC00;}
</style>
<g id="Notes">
	<rect id="artboard" class="st0" width="3300" height="2200"/>
	<line class="st1" x1="263" y1="292" x2="3036" y2="292"/>
	<text transform="matrix(1 0 0 1 263 322)" class="st2 st3">Weight/Scale Variations</text>
	<text transform="matrix(1 0 0 1 534.0633 322)" class="st4 st3">Ultralight</text>
	<text transform="matrix(1 0 0 1 843.7775 322)" class="st4 st3">Thin</text>
	<text transform="matrix(1 0 0 1 1139.035 322)" class="st4 st3">Light</text>
	<text transform="matrix(1 0 0 1 1427.0773 322)" class="st4 st3">Regular</text>
	<text transform="matrix(1 0 0 1 1723.4419 322)" class="st4 st3">Medium</text>
	<text transform="matrix(1 0 0 1 2016.1719 322)" class="st4 st3">Semibold</text>
	<text transform="matrix(1 0 0 1 2326.9705 322)" class="st4 st3">Bold</text>
	<text transform="matrix(1 0 0 1 2618.2659 322)" class="st4 st3">Heavy</text>
	<text transform="matrix(1 0 0 1 2917.5054 322)" class="st4 st3">Black</text>
	<line class="st1" x1="263" y1="1903" x2="3036" y2="1903"/>
	<g transform="matrix(1 0 0 1 263 1933)">
		<path d="M9.2,0.8c1.1,0,2.1-0.2,3-0.6c1-0.4,1.8-1,2.5-1.7S16-3.1,16.4-4C16.8-5,17-6,17-7s-0.2-2.1-0.6-3c-0.4-1-1-1.8-1.7-2.5
			s-1.6-1.3-2.5-1.7c-1-0.4-2-0.6-3-0.6c-1.1,0-2.1,0.2-3,0.6s-1.8,1-2.5,1.7C3-11.9,2.4-11,2-10.1c-0.4,1-0.6,2-0.6,3S1.6-5,2-4
			s1,1.8,1.7,2.5s1.6,1.3,2.5,1.7C7.2,0.6,8.2,0.8,9.2,0.8z M9.2-0.7c-0.9,0-1.7-0.2-2.5-0.5C6-1.5,5.3-1.9,4.7-2.5s-1-1.3-1.4-2
			C3-5.3,2.9-6.2,2.9-7.1s0.2-1.7,0.5-2.5s0.8-1.5,1.4-2c0.6-0.6,1.3-1,2-1.4c0.8-0.3,1.6-0.5,2.5-0.5s1.7,0.2,2.5,0.5
			s1.5,0.8,2,1.4c0.6,0.6,1,1.3,1.4,2c0.3,0.8,0.5,1.6,0.5,2.5s-0.2,1.7-0.5,2.5s-0.8,1.5-1.4,2c-0.6,0.6-1.3,1-2,1.4
			C11-0.8,10.1-0.7,9.2-0.7z M5.7-7.1c0,0.2,0.1,0.4,0.2,0.5C6-6.4,6.2-6.3,6.4-6.3h2.1v2.1c0,0.2,0.1,0.4,0.2,0.5
			C8.8-3.5,9-3.5,9.2-3.5s0.4-0.1,0.5-0.2C9.9-3.8,10-4,10-4.2v-2.1h2.1c0.2,0,0.4-0.1,0.5-0.2s0.2-0.3,0.2-0.5s-0.1-0.4-0.2-0.5
			c-0.1-0.1-0.3-0.2-0.5-0.2H10v-2.1c0-0.2-0.1-0.4-0.2-0.5c-0.1-0.1-0.3-0.2-0.5-0.2s-0.4,0.1-0.5,0.2C8.7-10.2,8.6-10,8.6-9.8v2.1
			H6.4C6.2-7.8,6-7.7,5.9-7.6C5.7-7.5,5.7-7.3,5.7-7.1z"/>
	</g>
	<g transform="matrix(1 0 0 1 281.867 1933)">
		<path d="M11.7,2.9c1.4,0,2.6-0.3,3.8-0.8s2.3-1.2,3.2-2.2c0.9-0.9,1.6-2,2.2-3.2c0.5-1.2,0.8-2.5,0.8-3.8c0-1.4-0.3-2.6-0.8-3.8
			s-1.2-2.3-2.2-3.2c-0.9-0.9-2-1.6-3.2-2.2c-1.2-0.5-2.5-0.8-3.8-0.8s-2.6,0.3-3.8,0.8s-2.3,1.2-3.2,2.2c-0.9,0.9-1.6,2-2.2,3.2
			C2-9.7,1.7-8.4,1.7-7.1c0,1.4,0.3,2.6,0.8,3.8S3.8-0.9,4.7,0s2,1.6,3.2,2.2S10.3,2.9,11.7,2.9z M11.7,1.2c-1.2,0-2.2-0.2-3.2-0.6
			s-1.9-1-2.6-1.8C5.1-1.9,4.5-2.8,4.1-3.8S3.4-5.9,3.4-7.1S3.6-9.3,4-10.3s1-1.9,1.8-2.6c0.8-0.8,1.6-1.4,2.6-1.8
			c1-0.4,2.1-0.6,3.2-0.6s2.2,0.2,3.2,0.6c1,0.4,1.9,1,2.6,1.8c0.8,0.8,1.4,1.6,1.8,2.6s0.6,2.1,0.6,3.2c0,1.2-0.2,2.2-0.6,3.2
			s-1,1.9-1.8,2.6c-0.8,0.8-1.6,1.4-2.6,1.8S12.9,1.2,11.7,1.2z M7.2-7.1c0,0.2,0.1,0.4,0.2,0.6C7.6-6.3,7.8-6.2,8-6.2h2.9v2.9
			c0,0.2,0.1,0.4,0.2,0.6c0.1,0.2,0.3,0.2,0.6,0.2c0.2,0,0.4-0.1,0.6-0.2c0.2-0.2,0.2-0.4,0.2-0.6v-2.9h2.9c0.2,0,0.4-0.1,0.6-0.2
			s0.2-0.3,0.2-0.6c0-0.2-0.1-0.4-0.2-0.6c-0.2-0.2-0.4-0.2-0.6-0.2h-2.9v-2.9c0-0.3-0.1-0.5-0.2-0.6s-0.4-0.2-0.6-0.2
			c-0.2,0-0.4,0.1-0.6,0.2c-0.1,0.2-0.2,0.4-0.2,0.6v2.9H8c-0.3,0-0.5,0.1-0.6,0.2C7.3-7.5,7.2-7.3,7.2-7.1z"/>
	</g>
	<g transform="matrix(1 0 0 1 305.646 1933)">
		<path d="M15,5.7c1.4,0,2.7-0.2,4-0.6s2.4-1,3.5-1.8s2-1.7,2.8-2.8C26-0.6,26.6-1.8,27-3.1s0.6-2.6,0.6-4s-0.2-2.7-0.6-4
			s-1-2.4-1.8-3.5s-1.7-2-2.8-2.8c-1.1-0.8-2.2-1.4-3.5-1.8s-2.6-0.6-4-0.6s-2.7,0.2-4,0.6s-2.4,1-3.5,1.8s-2,1.7-2.8,2.8
			s-1.4,2.2-1.8,3.5s-0.6,2.6-0.6,4s0.2,2.7,0.6,4s1,2.4,1.8,3.5s1.7,2,2.8,2.8C8.6,4,9.7,4.6,11,5C12.2,5.4,13.6,5.7,15,5.7z
			 M15,3.8c-1.2,0-2.4-0.2-3.4-0.6c-1.1-0.4-2.1-0.9-3-1.5c-1-0.6-1.8-1.4-2.4-2.3C5.5-1.5,5-2.5,4.6-3.6C4.3-4.7,4.1-5.8,4.1-7.1
			c0-1.2,0.2-2.4,0.5-3.5c0.4-1.1,0.9-2.1,1.5-3c0.7-0.9,1.4-1.7,2.4-2.4c0.9-0.7,1.9-1.2,3-1.5c1.1-0.4,2.2-0.5,3.4-0.5
			s2.4,0.2,3.5,0.5c1.1,0.4,2.1,0.9,3,1.5c0.9,0.7,1.7,1.5,2.4,2.4c0.7,0.9,1.2,1.9,1.5,3c0.4,1.1,0.6,2.2,0.6,3.5
			c0,1.2-0.2,2.4-0.5,3.4c-0.4,1.1-0.9,2.1-1.5,3c-0.7,0.9-1.5,1.7-2.4,2.4s-1.9,1.2-3,1.5C17.3,3.7,16.2,3.8,15,3.8z M9.2-7.1
			c0,0.3,0.1,0.5,0.3,0.6c0.2,0.2,0.4,0.2,0.7,0.2h3.9v4c0,0.3,0.1,0.5,0.2,0.7c0.2,0.2,0.4,0.3,0.6,0.3c0.3,0,0.5-0.1,0.7-0.3
			s0.3-0.4,0.3-0.7v-4h4c0.3,0,0.5-0.1,0.7-0.2c0.2-0.2,0.3-0.4,0.3-0.6c0-0.3-0.1-0.5-0.3-0.7C20.3-7.9,20.1-8,19.8-8h-4v-3.9
			c0-0.3-0.1-0.5-0.3-0.7s-0.4-0.3-0.7-0.3s-0.5,0.1-0.6,0.3C14-12.4,14-12.2,14-11.9V-8h-3.9C9.8-8,9.6-7.9,9.5-7.7
			C9.3-7.5,9.2-7.3,9.2-7.1z"/>
	</g>
	<text transform="matrix(1 0 0 1 263 1953)" class="st2 st3">Design Variations</text>
	<text transform="matrix(1 0 0 1 263 1971)" class="st4 st3">Symbols are supported in up to nine weights and three scales.</text>
	<text transform="matrix(1 0 0 1 263 1989)" class="st4 st3">For optimal layout with text and other symbols, vertically align</text>
	<text transform="matrix(1 0 0 1 263 2007)" class="st4 st3">symbols with the adjacent text.</text>
	<line class="st5" x1="776" y1="1919" x2="776" y2="1933"/>
	<g transform="matrix(1 0 0 1 776 1933)">
		<path d="M3.3,0.2c0.3,0,0.5-0.1,0.6-0.2C4-0.1,4.2-0.3,4.3-0.6L5.5-4h5.8l1.3,3.4C12.7-0.3,12.8-0.1,13,0c0.1,0.1,0.3,0.2,0.6,0.2
			s0.5-0.1,0.6-0.2c0.2-0.1,0.2-0.3,0.2-0.6c0-0.1,0-0.3-0.1-0.5L9.7-13.4c-0.1-0.3-0.3-0.5-0.5-0.7c-0.2-0.1-0.5-0.2-0.8-0.2
			c-0.6,0-1,0.3-1.2,0.9L2.6-1.2C2.5-1,2.5-0.8,2.5-0.6S2.6-0.2,2.7,0S3.1,0.2,3.3,0.2z M6-5.5l2.4-6.6l0,0l2.4,6.6
			C10.8-5.5,6-5.5,6-5.5z"/>
	</g>
	<line class="st5" x1="793.2" y1="1919" x2="793.2" y2="1933"/>
	<text transform="matrix(1 0 0 1 776 1953)" class="st2 st3">Margins</text>
	<text transform="matrix(1 0 0 1 776 1971)" class="st4 st3">Leading and trailing margins on the left and right side of each symbol</text>
	<text transform="matrix(1 0 0 1 776 1989)" class="st4 st3">can be adjusted by modifying the x-location of the margin guidelines.</text>
	<text transform="matrix(1 0 0 1 776 2007)" class="st4 st3">Modifications are automatically applied proportionally to all</text>
	<text transform="matrix(1 0 0 1 776 2025)" class="st4 st3">scales and weights.</text>
	<g transform="matrix(1 0 0 1 1289 1933)">
		<path d="M2.8,1.9l1.7,1.7C5,4,5.4,4.2,5.9,4.2s0.9-0.3,1.4-0.8L18-8.4l-1-1L6.4,2.3C6.2,2.5,6.1,2.6,5.9,2.6S5.5,2.5,5.3,2.3
			L4.1,1.1C3.9,0.9,3.8,0.7,3.8,0.5S3.9,0.1,4.1,0l11.5-10.8l-1-1L3-0.9C2.6-0.4,2.3,0,2.3,0.5C2.2,1,2.4,1.4,2.8,1.9z M9.3-16.3
			c-0.2,0.2-0.3,0.4-0.4,0.7c0,0.3,0,0.5,0.1,0.7s0.3,0.3,0.5,0.4c0.2,0.1,0.5,0.1,0.8,0c0.7-0.2,1.5-0.2,2.2-0.2s1.5,0.3,2.2,0.7
			l-0.6,1.5c-0.2,0.4-0.2,0.8-0.1,1.1c0.1,0.3,0.2,0.6,0.5,0.9l2.3,2.3C17-8,17.3-7.8,17.5-7.8s0.5,0,0.8,0L19.4-8l0.7,0.7v0.6
			c0,0.2,0,0.5,0.1,0.7s0.2,0.4,0.5,0.7l0.8,0.7c0.2,0.2,0.5,0.4,0.8,0.4s0.5-0.1,0.8-0.3L26-7.4c0.2-0.2,0.3-0.5,0.3-0.8
			c0-0.3-0.1-0.5-0.4-0.8L25-9.9c-0.2-0.2-0.5-0.4-0.7-0.5s-0.4-0.1-0.7-0.1H23l-0.6-0.6l0.2-1.1c0.1-0.3,0.1-0.5,0-0.8
			s-0.3-0.5-0.6-0.8L19.9-16c-0.8-0.8-1.7-1.4-2.7-1.9c-0.9-0.4-1.9-0.6-2.8-0.6c-1,0-1.9,0.2-2.8,0.5C10.8-17.6,10-17.1,9.3-16.3z
			 M10.8-16c0.6-0.4,1.3-0.8,1.9-0.9c0.7-0.2,1.4-0.2,2.1-0.2c0.7,0.1,1.4,0.3,2.1,0.6c0.7,0.3,1.3,0.7,1.8,1.3l2.4,2.4
			c0.1,0.1,0.2,0.2,0.2,0.3s0,0.3,0,0.4L21-10.5L22.5-9l1-0.1c0.1,0,0.2,0,0.3,0c0.1,0,0.1,0.1,0.2,0.2l0.6,0.6l-2.4,2.4l-0.6-0.6
			c-0.1-0.1-0.2-0.2-0.2-0.2c0-0.1,0-0.2,0-0.3l0.1-1L20-9.5l-1.5,0.3c-0.2,0-0.3,0-0.4,0s-0.2-0.1-0.3-0.2l-2-2
			c-0.1-0.1-0.2-0.2-0.2-0.3s0-0.3,0.1-0.4l0.9-2.1c-0.8-0.7-1.7-1.2-2.6-1.5c-1-0.3-2-0.3-3,0c-0.1,0-0.1,0-0.2,0
			C10.7-15.9,10.7-15.9,10.8-16z"/>
	</g>
	<text transform="matrix(1 0 0 1 1289 1953)" class="st2 st3">Exporting</text>
	<text transform="matrix(1 0 0 1 1289 1971)" class="st4 st3">Symbols should be outlined when exporting to ensure the</text>
	<text transform="matrix(1 0 0 1 1289 1989)" class="st4 st3">design is preserved when submitting to Xcode.</text>
	<text id="template-version" transform="matrix(1 0 0 1 2952.4141 1933)" class="st4 st3">Template v.3.0</text>
	<text transform="matrix(1 0 0 1 2865.4575 1951)" class="st4 st3">Requires Xcode 13 or greater</text>
	<text id="descriptive-name" transform="matrix(1 0 0 1 2919.6729 1969)" class="st4 st3">Generated from star</text>
	<text transform="matrix(1 0 0 1 2912.4111 1987)" class="st4 st3">Typeset at 100 points</text>
	<text transform="matrix(1 0 0 1 263 726)" class="st4 st3">Small</text>
	<text transform="matrix(1 0 0 1 263 1156)" class="st4 st3">Medium</text>
	<text transform="matrix(1 0 0 1 263 1586)" class="st4 st3">Large</text>
</g>
<g id="Guides">
	<g id="H-reference" transform="matrix(1 0 0 1 339 696)">
		<path class="st6" d="M1,0h2.7l25.7-67.1H30v-3.3h-1.9L1,0z M11.7-24.5H47l-0.7-2.2H12.5L11.7-24.5z M55.1,0h2.6L30.6-70.5h-1.2
			v3.3L55.1,0z"/>
	</g>
	<line id="Baseline-S" class="st7" x1="263" y1="696" x2="3036" y2="696"/>
	<line id="Capline-S" class="st7" x1="263" y1="625.5" x2="3036" y2="625.5"/>
	<g id="H-reference_00000149342862876849292460000012607853209253051294_" transform="matrix(1 0 0 1 339 1126)">
		<path class="st6" d="M1,0h2.7l25.7-67.1H30v-3.3h-1.9L1,0z M11.7-24.5H47l-0.7-2.2H12.5L11.7-24.5z M55.1,0h2.6L30.6-70.5h-1.2
			v3.3L55.1,0z"/>
	</g>
	<line id="Baseline-M" class="st7" x1="263" y1="1126" x2="3036" y2="1126"/>
	<line id="Capline-M" class="st7" x1="263" y1="1055.5" x2="3036" y2="1055.5"/>
	<g id="H-reference_00000137849533916784613390000006804967370679809195_" transform="matrix(1 0 0 1 339 1556)">
		<path class="st6" d="M1,0h2.7l25.7-67.1H30v-3.3h-1.9L1,0z M11.7-24.5H47l-0.7-2.2H12.5L11.7-24.5z M55.1,0h2.6L30.6-70.5h-1.2
			v3.3L55.1,0z"/>
	</g>
	<line id="Baseline-L" class="st7" x1="263" y1="1556" x2="3036" y2="1556"/>
	<line id="Capline-L" class="st7" x1="263" y1="1485.5" x2="3036" y2="1485.5"/>
	<line id="left-margin-Ultralight-S" class="st5" x1="511.6" y1="600.8" x2="511.6" y2="720.1"/>
	<line id="right-margin-Ultralight-S" class="st5" x1="607.8" y1="600.8" x2="607.8" y2="720.1"/>
	<line id="left-margin-Thin-S" class="st5" x1="807.7" y1="600.8" x2="807.7" y2="720.1"/>
	<line id="right-margin-Thin-S" class="st5" x1="905.1" y1="600.8" x2="905.1" y2="720.1"/>
	<line id="left-margin-Light-S" class="st5" x1="1103.3" y1="600.8" x2="1103.3" y2="720.1"/>
	<line id="right-margin-Light-S" class="st5" x1="1203" y1="600.8" x2="1203" y2="720.1"/>
	<line id="left-margin-Regular-S" class="st5" x1="1399.1" y1="600.8" x2="1399.1" y2="720.1"/>
	<line id="right-margin-Regular-S" class="st5" x1="1500.6" y1="600.8" x2="1500.6" y2="720.1"/>
	<line id="left-margin-Medium-S" class="st5" x1="1695.3" y1="600.8" x2="1695.3" y2="720.1"/>
	<line id="right-margin-Medium-S" class="st5" x1="1797.8" y1="600.8" x2="1797.8" y2="720.1"/>
	<line id="left-margin-Semibold-S" class="st5" x1="1991.6" y1="600.8" x2="1991.6" y2="720.1"/>
	<line id="right-margin-Semibold-S" class="st5" x1="2095" y1="600.8" x2="2095" y2="720.1"/>
	<line id="left-margin-Bold-S" class="st5" x1="2287.8" y1="600.8" x2="2287.8" y2="720.1"/>
	<line id="right-margin-Bold-S" class="st5" x1="2392.2" y1="600.8" x2="2392.2" y2="720.1"/>
	<line id="left-margin-Heavy-S" class="st5" x1="2583.7" y1="600.8" x2="2583.7" y2="720.1"/>
	<line id="right-margin-Heavy-S" class="st5" x1="2689.7" y1="600.8" x2="2689.7" y2="720.1"/>
	<line id="left-margin-Black-S" class="st5" x1="2879.7" y1="600.8" x2="2879.7" y2="720.1"/>
	<line id="right-margin-Black-S" class="st5" x1="2987.1" y1="600.8" x2="2987.1" y2="720.1"/>
	<line id="left-margin-Ultralight-M" class="st5" x1="498.6" y1="1030.8" x2="498.6" y2="1150.1"/>
	<line id="right-margin-Ultralight-M" class="st5" x1="620.9" y1="1030.8" x2="620.9" y2="1150.1"/>
	<line id="left-margin-Thin-M" class="st5" x1="794.6" y1="1030.8" x2="794.6" y2="1150.1"/>
	<line id="right-margin-Thin-M" class="st5" x1="918.3" y1="1030.8" x2="918.3" y2="1150.1"/>
	<line id="left-margin-Light-M" class="st5" x1="1089.9" y1="1030.8" x2="1089.9" y2="1150.1"/>
	<line id="right-margin-Light-M" class="st5" x1="1216.3" y1="1030.8" x2="1216.3" y2="1150.1"/>
	<line id="left-margin-Regular-M" class="st5" x1="1385.7" y1="1030.8" x2="1385.7" y2="1150.1"/>
	<line id="right-margin-Regular-M" class="st5" x1="1514" y1="1030.8" x2="1514" y2="1150.1"/>
	<line id="left-margin-Medium-M" class="st5" x1="1681.6" y1="1030.8" x2="1681.6" y2="1150.1"/>
	<line id="right-margin-Medium-M" class="st5" x1="1811.5" y1="1030.8" x2="1811.5" y2="1150.1"/>
	<line id="left-margin-Semibold-M" class="st5" x1="1977.8" y1="1030.8" x2="1977.8" y2="1150.1"/>
	<line id="right-margin-Semibold-M" class="st5" x1="2108.7" y1="1030.8" x2="2108.7" y2="1150.1"/>
	<line id="left-margin-Bold-M" class="st5" x1="2273.8" y1="1030.8" x2="2273.8" y2="1150.1"/>
	<line id="right-margin-Bold-M" class="st5" x1="2406.2" y1="1030.8" x2="2406.2" y2="1150.1"/>
	<line id="left-margin-Heavy-M" class="st5" x1="2569.4" y1="1030.8" x2="2569.4" y2="1150.1"/>
	<line id="right-margin-Heavy-M" class="st5" x1="2703.9" y1="1030.8" x2="2703.9" y2="1150.1"/>
	<line id="left-margin-Black-M" class="st5" x1="2865.2" y1="1030.8" x2="2865.2" y2="1150.1"/>
	<line id="right-margin-Black-M" class="st5" x1="3001.6" y1="1030.8" x2="3001.6" y2="1150.1"/>
	<line id="left-margin-Ultralight-L" class="st5" x1="481.1" y1="1460.8" x2="481.1" y2="1580.1"/>
	<line id="right-margin-Ultralight-L" class="st5" x1="638.3" y1="1460.8" x2="638.3" y2="1580.1"/>
	<line id="left-margin-Thin-L" class="st5" x1="777.1" y1="1460.8" x2="777.1" y2="1580.1"/>
	<line id="right-margin-Thin-L" class="st5" x1="935.8" y1="1460.8" x2="935.8" y2="1580.1"/>
	<line id="left-margin-Light-L" class="st5" x1="1072.3" y1="1460.8" x2="1072.3" y2="1580.1"/>
	<line id="right-margin-Light-L" class="st5" x1="1234" y1="1460.8" x2="1234" y2="1580.1"/>
	<line id="left-margin-Regular-L" class="st5" x1="1367.9" y1="1460.8" x2="1367.9" y2="1580.1"/>
	<line id="right-margin-Regular-L" class="st5" x1="1531.8" y1="1460.8" x2="1531.8" y2="1580.1"/>
	<line id="left-margin-Medium-L" class="st5" x1="1663.7" y1="1460.8" x2="1663.7" y2="1580.1"/>
	<line id="right-margin-Medium-L" class="st5" x1="1829.5" y1="1460.8" x2="1829.5" y2="1580.1"/>
	<line id="left-margin-Semibold-L" class="st5" x1="1959.7" y1="1460.8" x2="1959.7" y2="1580.1"/>
	<line id="right-margin-Semibold-L" class="st5" x1="2126.9" y1="1460.8" x2="2126.9" y2="1580.1"/>
	<line id="left-margin-Bold-L" class="st5" x1="2255.4" y1="1460.8" x2="2255.4" y2="1580.1"/>
	<line id="right-margin-Bold-L" class="st5" x1="2424.6" y1="1460.8" x2="2424.6" y2="1580.1"/>
	<line id="left-margin-Heavy-L" class="st5" x1="2550.8" y1="1460.8" x2="2550.8" y2="1580.1"/>
	<line id="right-margin-Heavy-L" class="st5" x1="2722.6" y1="1460.8" x2="2722.6" y2="1580.1"/>
	<line id="left-margin-Black-L" class="st5" x1="2846.2" y1="1460.8" x2="2846.2" y2="1580.1"/>
	<line id="right-margin-Black-L" class="st5" x1="3020.6" y1="1460.8" x2="3020.6" y2="1580.1"/>
</g>
<g id="Symbols">
	<g id="Black-L" transform="matrix(1 0 0 1 2846.24 1556)">
		<path class="st8" d="M41.4,28.4c2.1,1.6,4.5,2.3,7.1,1.9s5.2-1.6,8-3.6L87.2,4.1l30.7,22.6c2.8,2.1,5.5,3.3,8.1,3.6
			c2.6,0.4,4.9-0.3,7.1-1.9c2.1-1.6,3.4-3.7,3.8-6.2c0.5-2.6,0.1-5.4-0.9-8.6l-12.2-36l31-22.2c2.8-2,4.7-4.1,5.9-6.5
			c1.2-2.3,1.3-4.8,0.4-7.3c-0.8-2.5-2.4-4.4-4.7-5.6c-2.3-1.2-5.1-1.8-8.5-1.8L110-65.5l-11.5-36.3c-1-3.3-2.5-5.8-4.3-7.6
			c-1.8-1.8-4.1-2.7-6.8-2.7c-2.6,0-4.9,0.9-6.7,2.7c-1.8,1.8-3.3,4.3-4.3,7.6L64.6-65.3l-38-0.3c-3.4,0-6.2,0.6-8.4,1.8
			c-2.3,1.2-3.8,3.1-4.7,5.6c-0.9,2.6-0.8,5,0.4,7.3s3.1,4.5,5.9,6.5l31,22.2l-12.2,36c-1.1,3.2-1.4,6-0.9,8.6
			C38.1,24.7,39.3,26.8,41.4,28.4z M59.6,3.5c-0.1-0.1-0.1-0.3,0-0.4l10-26c0.6-1.7,1-3.1,1.1-4.3c0.1-1.1-0.2-2.1-0.8-3.1
			c-0.7-0.9-1.8-1.9-3.5-3L43-48.5c-0.2-0.1-0.3-0.2-0.2-0.3c0-0.1,0.2-0.1,0.4-0.1l27.7,1.4c2.8,0.1,4.7-0.3,5.9-1
			c1.2-0.8,2.1-2.5,2.9-5.2l7.2-26.9c0.1-0.2,0.1-0.3,0.2-0.3s0.2,0.1,0.3,0.3l7.2,26.9c0.7,2.7,1.6,4.4,2.8,5.2
			c1.2,0.8,3.2,1.1,6,1l27.8-1.4c0.2,0,0.4,0,0.4,0.1s0,0.2-0.2,0.3l-23.3,15.3c-1.7,1.1-2.8,2.1-3.5,3s-0.9,1.9-0.8,3
			s0.5,2.5,1.1,4.3l10,26c0.1,0.2,0,0.3,0,0.4c-0.1,0.1-0.2,0-0.4-0.1L92.7-14.2c-2.2-1.7-4.1-2.6-5.5-2.6s-3.3,0.9-5.5,2.6L60,3.4
			C59.8,3.5,59.7,3.5,59.6,3.5z"/>
	</g>
	<g id="Heavy-L" transform="matrix(1 0 0 1 2550.75 1556)">
		<path class="st8" d="M40.9,27.7c1.9,1.5,4,2,6.3,1.7s4.7-1.5,7.3-3.3L85.9,2.9L117.4,26c2.5,1.9,5,3,7.3,3.3s4.4-0.2,6.3-1.7
			c1.9-1.4,3-3.2,3.4-5.5s0.1-4.9-0.9-7.8L121-22.6l31.7-22.8c2.5-1.8,4.3-3.7,5.3-5.8s1.2-4.3,0.4-6.5c-0.7-2.2-2.1-3.9-4.2-5
			c-2.1-1.1-4.6-1.6-7.7-1.6L107.6-64l-11.9-37.2c-0.9-3-2.2-5.3-3.9-6.9c-1.6-1.6-3.7-2.4-6-2.4s-4.3,0.8-6,2.4
			c-1.6,1.6-3,3.9-3.9,6.9L64.2-63.9l-39-0.3c-3.1,0-5.6,0.5-7.7,1.6s-3.5,2.7-4.2,5c-0.8,2.3-0.7,4.5,0.4,6.6c1,2.1,2.8,4,5.4,5.8
			l31.7,22.8L38.4,14.4c-1,2.9-1.3,5.5-0.9,7.8C37.9,24.4,39.1,26.3,40.9,27.7z M56.6,6.2c-0.1-0.1-0.1-0.2,0-0.4l10.6-28.7
			c0.5-1.5,0.8-2.8,0.9-3.8s-0.2-1.9-0.7-2.8c-0.6-0.8-1.6-1.7-3.1-2.7L38.9-49.1c-0.2-0.1-0.3-0.3-0.2-0.4c0-0.1,0.2-0.1,0.5-0.1
			l30.5,1.2c2.4,0,4.1-0.3,5.2-1s1.9-2.2,2.6-4.5l8.2-29.4c0.1-0.3,0.2-0.4,0.3-0.4c0.1,0,0.2,0.1,0.3,0.4L94.4-54
			c0.6,2.3,1.5,3.8,2.6,4.5s2.9,1,5.3,1l30.5-1.2c0.3,0,0.5,0,0.5,0.1s-0.1,0.2-0.3,0.4l-25.5,17c-1.4,0.9-2.4,1.8-3,2.6
			c-0.6,0.8-0.8,1.7-0.8,2.8c0.1,1,0.4,2.3,1,3.8l10.6,28.7c0.1,0.2,0.1,0.3,0,0.4s-0.2,0.1-0.5-0.1L90.9-13c-2-1.5-3.6-2.2-4.9-2.2
			s-3,0.7-4.9,2.2l-24,19C56.9,6.2,56.7,6.2,56.6,6.2z"/>
	</g>
	<g id="Bold-L" transform="matrix(1 0 0 1 2255.41 1556)">
		<path class="st8" d="M40.4,26.9c1.7,1.2,3.5,1.7,5.5,1.4c2-0.3,4.1-1.3,6.4-3L84.6,1.6l32.3,23.7c2.3,1.7,4.4,2.6,6.4,3
			c2,0.3,3.8-0.2,5.5-1.4c1.6-1.2,2.6-2.8,2.9-4.8c0.4-2,0.1-4.3-0.8-6.9l-12.7-38l32.6-23.4c2.3-1.6,3.9-3.3,4.8-5.1
			c0.9-1.8,1-3.7,0.3-5.7c-0.7-1.9-1.9-3.4-3.7-4.3c-1.8-0.9-4.1-1.4-6.8-1.4l-40,0.3l-12.2-38.2c-0.8-2.7-2-4.7-3.4-6.1
			s-3.2-2.1-5.2-2.1s-3.7,0.7-5.2,2.1c-1.4,1.4-2.6,3.4-3.4,6.1L63.8-62.4l-40-0.3c-2.8,0-5,0.4-6.8,1.4c-1.8,0.9-3,2.4-3.6,4.3
			c-0.7,2-0.6,3.8,0.3,5.7c0.9,1.8,2.5,3.5,4.7,5.1L51-22.8l-12.8,38c-0.9,2.6-1.1,4.9-0.8,6.9C37.8,24.1,38.8,25.7,40.4,26.9z
			 M53.3,9.2c-0.1-0.1-0.1-0.3,0-0.5L64.6-23c0.5-1.2,0.7-2.3,0.8-3.2c0-0.9-0.2-1.7-0.7-2.4c-0.5-0.7-1.3-1.5-2.5-2.3L34.4-49.8
			c-0.3-0.2-0.4-0.3-0.3-0.4c0-0.1,0.2-0.2,0.5-0.2l33.6,1c2,0,3.5-0.3,4.4-0.9c1-0.6,1.7-1.9,2.2-3.8l9.3-32.3
			c0.1-0.3,0.2-0.5,0.3-0.5c0.2,0,0.3,0.2,0.3,0.5L94-54.1c0.6,1.9,1.3,3.2,2.3,3.8s2.5,0.9,4.4,0.9l33.6-1c0.3,0,0.5,0.1,0.5,0.2
			c0.1,0.1,0,0.2-0.3,0.4L107-30.9c-1.2,0.8-2,1.5-2.5,2.2s-0.7,1.5-0.7,2.4s0.3,2,0.7,3.2l11.4,31.7c0.1,0.3,0.1,0.4,0,0.5
			s-0.2,0-0.5-0.1L88.8-11.6c-1.6-1.2-3-1.8-4.2-1.8s-2.6,0.6-4.2,1.8L53.8,9.1C53.5,9.3,53.4,9.3,53.3,9.2z"/>
	</g>
	<g id="Semibold-L" transform="matrix(1 0 0 1 1959.65 1556)">
		<path class="st8" d="M40,26.4c1.5,1.1,3.1,1.5,4.9,1.2c1.8-0.3,3.7-1.2,5.8-2.7l33-24.2l32.9,24.2c2.1,1.5,4.1,2.4,5.9,2.7
			c1.8,0.3,3.4-0.1,4.9-1.2c1.4-1.1,2.3-2.6,2.6-4.3c0.3-1.8,0.1-3.9-0.8-6.2l-12.9-38.7l33.2-23.8c2.1-1.5,3.5-3,4.4-4.6
			c0.8-1.6,1-3.3,0.4-5s-1.7-3-3.3-3.9c-1.6-0.8-3.7-1.3-6.3-1.2L104-61.1L91.6-100c-0.8-2.4-1.9-4.3-3.1-5.6
			c-1.3-1.3-2.8-1.9-4.6-1.9c-1.8,0-3.4,0.6-4.7,1.9c-1.3,1.3-2.3,3.1-3.1,5.6L63.5-61.3l-40.8-0.2c-2.5,0-4.6,0.4-6.2,1.2
			s-2.7,2.1-3.2,3.8c-0.6,1.8-0.5,3.5,0.4,5.1c0.8,1.6,2.3,3.2,4.3,4.6L51.2-23l-13,38.7c-0.8,2.4-1.1,4.5-0.8,6.2
			C37.7,23.8,38.6,25.3,40,26.4z M51,11.3c-0.1-0.1-0.1-0.2,0-0.5L62.9-23c0.4-1.1,0.6-2,0.6-2.8s-0.2-1.5-0.6-2.2
			c-0.4-0.7-1.2-1.3-2.2-2L31.2-50.2c-0.3-0.2-0.4-0.4-0.3-0.5c0-0.1,0.2-0.2,0.6-0.2l35.7,0.8c1.7,0,2.9-0.3,3.8-0.9
			c0.9-0.6,1.6-1.7,2.1-3.3l10.1-34.3c0.1-0.3,0.2-0.5,0.4-0.5c0.1,0,0.2,0.2,0.3,0.5L94-54.3c0.5,1.6,1.2,2.7,2.1,3.3
			s2.2,0.9,3.9,0.9l35.7-0.8c0.4,0,0.6,0.1,0.6,0.2c0.1,0.1,0,0.3-0.3,0.5L106.5-30c-1,0.7-1.7,1.3-2.1,2s-0.7,1.4-0.6,2.2
			c0,0.8,0.2,1.7,0.6,2.8l11.9,33.7c0.1,0.3,0.1,0.5,0,0.5c-0.1,0.1-0.3,0.1-0.6-0.1L87.4-10.6c-1.4-1-2.6-1.6-3.7-1.6
			s-2.4,0.5-3.7,1.6L51.6,11.2C51.3,11.4,51.1,11.4,51,11.3z"/>
	</g>
	<g id="Medium-L" transform="matrix(1 0 0 1 1663.65 1556)">
		<path class="st8" d="M-22.1,120.2c3.2,2.4,6.7,3.2,10.8,2.6c4-0.6,8.4-2.7,13-6.1l81.3-59.6l81.1,59.6c4.8,3.4,9.1,5.4,13.1,6.1
			c4,0.6,7.6-0.2,11-2.6c3.1-2.4,5-5.5,5.7-9.5c0.7-4,0.1-8.7-1.8-14.3L160,1.1l81.8-58.8c4.8-3.3,8-6.8,9.9-10.4
			c1.8-3.6,2.1-7.4,0.8-11.2c-1.3-3.7-3.7-6.6-7.2-8.4c-3.6-1.9-8.3-2.8-14.1-2.8l-100.5,0.6l-30.6-96c-1.8-5.5-4.1-9.7-7-12.6
			s-6.2-4.2-10.3-4.2s-7.5,1.4-10.3,4.2c-2.8,2.8-5.1,7-6.9,12.6l-30.7,96l-100.5-0.6c-5.8-0.1-10.5,0.8-14,2.7
			c-3.6,1.9-6,4.7-7.2,8.5c-1.3,3.9-1,7.6,0.8,11.2s5,7.1,9.7,10.4L5.7,1.1l-32,95.4c-1.8,5.5-2.4,10.3-1.7,14.3
			C-27.3,114.7-25.4,117.9-22.1,120.2z M-4.9,98.2c-0.3-0.3-0.3-0.8-0.1-1.7L27,4.4c0.9-2.3,1.3-4.5,1.3-6.4s-0.5-3.7-1.6-5.3
			c-1-1.7-2.6-3.2-4.9-4.7l-80.1-55.6c-0.9-0.5-1.2-1-1-1.3c0.2-0.3,0.7-0.5,1.7-0.5l97.5,1.8c3.8,0.1,6.9-0.6,9-2
			c2.2-1.5,3.8-4,5-7.7l27.9-93.4c0.3-1,0.6-1.4,1-1.4c0.4,0,0.8,0.4,1,1.4l27.9,93.4c1.1,3.7,2.8,6.4,5,7.7c2.2,1.5,5.2,2.1,9,2
			l97.5-1.8c1,0,1.5,0.2,1.6,0.5c0.2,0.3-0.1,0.8-0.9,1.3L144-11.9c-2.2,1.5-3.8,3-4.9,4.6c-1,1.7-1.6,3.4-1.6,5.3s0.4,4.1,1.3,6.4
			l32,92.1c0.3,0.9,0.3,1.4,0.1,1.7c-0.3,0.3-0.8,0.1-1.7-0.3L91.7,38.5c-3-2.3-6-3.5-8.8-3.5s-5.7,1.1-8.8,3.5L-3.4,97.8
			C-4.2,98.3-4.7,98.5-4.9,98.2z"/>
	</g>
	<g id="Regular-L" transform="matrix(1 0 0 1 1367.86 1556)">
		<path class="st8" d="M39.4,25.4c1.1,0.8,2.4,1.1,3.9,0.9c1.4-0.2,3-1,4.8-2.3L82-0.9L115.9,24c1.8,1.3,3.4,2,4.8,2.3
			c1.4,0.2,2.7-0.1,3.9-0.9c1.1-0.8,1.8-2,2.1-3.4c0.3-1.4,0-3.2-0.7-5.2l-13.3-39.9l34.2-24.6c1.8-1.2,3-2.5,3.6-3.8
			c0.7-1.3,0.8-2.6,0.3-4c-0.5-1.3-1.3-2.3-2.6-3s-3-1-5.2-1l-42,0.2L88.2-99.5c-0.7-2.1-1.5-3.6-2.5-4.6s-2.2-1.5-3.7-1.5
			c-1.4,0-2.7,0.5-3.7,1.5s-1.9,2.6-2.5,4.6L62.9-59.4l-42-0.2c-2.1,0-3.9,0.3-5.2,1s-2.2,1.7-2.6,3c-0.5,1.4-0.3,2.7,0.3,4
			c0.7,1.3,1.9,2.6,3.6,3.8l34.2,24.6L37.9,16.7c-0.7,2.1-0.9,3.8-0.7,5.2C37.5,23.4,38.2,24.5,39.4,25.4z M47,14.9
			c-0.1-0.1-0.1-0.3,0-0.6L59.8-23c0.3-0.7,0.4-1.4,0.4-2.1s-0.2-1.3-0.5-1.8c-0.3-0.6-0.8-1.1-1.5-1.5L25.7-51.1
			c-0.3-0.2-0.5-0.4-0.4-0.5s0.3-0.2,0.7-0.2l39.5,0.5c1.2,0,2.1-0.2,2.9-0.7s1.3-1.4,1.7-2.5l11.5-37.7c0.1-0.4,0.3-0.6,0.4-0.6
			c0.2,0,0.3,0.2,0.4,0.6l11.5,37.7c0.4,1.1,1,2,1.7,2.5s1.7,0.8,2.9,0.7l39.5-0.5c0.4,0,0.6,0.1,0.6,0.2c0.1,0.1-0.1,0.3-0.4,0.5
			l-32.3,22.6c-0.7,0.5-1.2,1-1.5,1.5c-0.3,0.6-0.5,1.2-0.5,1.8c0,0.7,0.1,1.4,0.3,2.1L117,14.3c0.1,0.4,0.1,0.6,0,0.6
			c-0.1,0.1-0.3,0.1-0.7-0.1L84.9-9C84-9.7,83-10.1,82-10.1S80.1-9.7,79.1-9L47.6,14.8C47.3,15,47.1,15.1,47,14.9z"/>
	</g>
	<g id="Light-L" transform="matrix(1 0 0 1 1072.27 1556)">
		<path class="st8" d="M39,24.6c0.9,0.7,2,0.9,3.1,0.8c1.2-0.2,2.5-0.8,4-1.8L80.9-2l34.8,25.5c1.5,1,2.8,1.7,4,1.8
			c1.2,0.2,2.2-0.1,3.2-0.8c0.9-0.7,1.5-1.6,1.7-2.8c0.2-1.2,0-2.6-0.5-4.4l-13.6-40.9l35.1-25.2c1.5-1,2.5-2.1,3-3.1
			c0.5-1.1,0.6-2.1,0.2-3.2c-0.4-1.1-1.1-1.9-2.1-2.5s-2.5-0.9-4.3-0.8l-43.1,0.2L86-99.4c-0.6-1.7-1.3-3-2.1-3.8
			c-0.8-0.8-1.8-1.2-3-1.2s-2.2,0.4-3,1.2c-0.8,0.8-1.5,2.1-2.1,3.8L62.5-58.3l-43.1-0.2c-1.8,0-3.3,0.2-4.3,0.8s-1.7,1.4-2.1,2.5
			S12.7-53,13.2-52c0.5,1.1,1.5,2.1,3,3.1l35,25.2L37.7,17.4c-0.6,1.8-0.7,3.2-0.5,4.4C37.4,23,38,23.9,39,24.6z M44.5,16.9
			c-0.1-0.1-0.1-0.3,0-0.8L57.7-23c0.3-0.7,0.4-1.3,0.3-1.8c0-0.6-0.2-1.1-0.5-1.6s-0.7-0.9-1.3-1.3L22.6-51.6
			c-0.4-0.3-0.6-0.5-0.5-0.6s0.3-0.2,0.8-0.2L64.2-52c1,0,1.8-0.2,2.5-0.7s1.1-1.2,1.4-2.1l12.3-39.5c0.1-0.5,0.3-0.7,0.5-0.7
			s0.3,0.2,0.4,0.7l12.3,39.5c0.3,1,0.8,1.7,1.5,2.1c0.7,0.5,1.5,0.7,2.5,0.7l41.4-0.4c0.5,0,0.7,0.1,0.7,0.2
			c0.1,0.2-0.1,0.4-0.4,0.6l-33.7,23.8c-0.6,0.4-1,0.8-1.3,1.3s-0.5,1-0.5,1.6s0.1,1.2,0.3,1.8L117.2,16c0.1,0.5,0.2,0.7,0.1,0.8
			c-0.1,0.1-0.4,0-0.8-0.2L83.3-8.1C82.5-8.7,81.7-9,80.8-9c-0.9,0-1.7,0.3-2.5,0.9l-33,24.8C44.9,16.9,44.7,17,44.5,16.9z"/>
	</g>
	<g id="Thin-L" transform="matrix(1 0 0 1 777.052 1556)">
		<path class="st8" d="M38.4,23.5c0.6,0.5,1.3,0.6,2.1,0.6c0.8-0.1,1.8-0.5,2.9-1.3l36-26.3l35.8,26.3c1.1,0.8,2.1,1.2,2.9,1.3
			c0.8,0.1,1.5-0.1,2.2-0.6c0.6-0.5,1-1.1,1.2-1.9s0.1-1.9-0.3-3.2l-13.9-42.2l36.1-26.1c1.1-0.8,1.8-1.6,2.1-2.3s0.4-1.5,0.1-2.2
			c-0.3-0.7-0.7-1.3-1.4-1.8c-0.7-0.4-1.8-0.7-3.2-0.7l-44.4,0.1L83.1-99.1c-0.5-1.3-1-2.2-1.6-2.8c-0.6-0.6-1.3-0.8-2.1-0.8
			c-0.8,0-1.5,0.3-2.1,0.8c-0.6,0.6-1.1,1.5-1.6,2.8L62.1-56.8l-44.4-0.1c-1.4,0-2.5,0.2-3.2,0.7c-0.7,0.4-1.2,1-1.4,1.8
			c-0.2,0.7-0.2,1.5,0.1,2.2s1,1.5,2.1,2.3l36.1,26.1L37.5,18.4c-0.4,1.4-0.5,2.4-0.3,3.2C37.4,22.4,37.8,23,38.4,23.5z M41.3,19.4
			c-0.1-0.1-0.1-0.4,0.1-0.9L55.1-23c0.2-0.5,0.2-1,0.2-1.4c0-0.5-0.2-0.9-0.4-1.3s-0.6-0.7-1-1.1L18.3-52.2
			c-0.5-0.3-0.7-0.6-0.6-0.7c0.1-0.2,0.4-0.2,0.9-0.2L62.5-53c0.8,0,1.4-0.2,2-0.6c0.5-0.4,0.9-1,1.2-1.7l13.2-41.6
			c0.2-0.6,0.4-0.9,0.6-0.9s0.3,0.3,0.5,0.9l13.2,41.6c0.3,0.8,0.7,1.4,1.2,1.7c0.5,0.4,1.2,0.6,1.9,0.6l43.8-0.2
			c0.6,0,0.9,0.1,0.9,0.2c0.1,0.2-0.1,0.4-0.6,0.7L105-26.8c-0.5,0.3-0.8,0.7-1,1.1s-0.4,0.8-0.4,1.3s0,0.9,0.2,1.4l13.7,41.5
			c0.2,0.6,0.2,0.9,0.1,0.9c-0.2,0.1-0.5,0-0.9-0.3L81.3-6.7c-0.7-0.5-1.3-0.7-2-0.7s-1.3,0.2-2,0.7L42.2,19.1
			C41.8,19.5,41.5,19.6,41.3,19.4z"/>
	</g>
	<g id="Ultralight-L" transform="matrix(1 0 0 1 481.122 1556)">
		<path class="st8" d="M38.1,22.9c0.5,0.3,1,0.5,1.7,0.4c0.6,0,1.4-0.4,2.3-1L78.6-4.3L115,22.4c0.9,0.6,1.7,0.9,2.3,1
			c0.6,0,1.2-0.1,1.7-0.4c0.5-0.4,0.8-0.8,1-1.5c0.2-0.6,0.1-1.5-0.2-2.6l-14-42.9l36.6-26.5c0.9-0.7,1.5-1.3,1.7-1.9
			c0.2-0.6,0.2-1.2,0.1-1.7c-0.2-0.6-0.5-1.1-1.1-1.4c-0.6-0.4-1.4-0.5-2.6-0.5H95.4L81.5-99c-0.4-1.1-0.8-1.8-1.3-2.2
			c-0.5-0.4-1-0.6-1.6-0.6s-1.2,0.2-1.7,0.6s-0.9,1.1-1.3,2.2L61.8-56H16.7c-1.2,0-2.1,0.2-2.6,0.5c-0.5,0.4-0.9,0.8-1.1,1.4
			c-0.1,0.6-0.1,1.1,0.1,1.7c0.2,0.6,0.8,1.2,1.7,1.9L51.4-24l-14,42.9c-0.4,1.1-0.4,2-0.3,2.6C37.3,22.1,37.6,22.6,38.1,22.9z
			 M39.6,20.8c-0.1-0.1-0.1-0.4,0.1-1l13.9-42.7c0.2-0.4,0.3-0.8,0.2-1.2c0-0.4-0.2-0.8-0.4-1.1c-0.2-0.3-0.5-0.6-0.9-0.9L16.2-52.6
			c-0.5-0.3-0.7-0.6-0.7-0.8c0.1-0.2,0.4-0.2,1-0.2l45.1,0.1c0.7,0,1.2-0.2,1.7-0.5s0.8-0.9,1-1.5L78-98.3c0.2-0.6,0.4-0.9,0.6-0.9
			s0.4,0.3,0.6,0.9l13.7,42.8c0.3,0.7,0.6,1.2,1,1.5s1,0.5,1.6,0.5l45.1-0.1c0.6,0,0.9,0.1,1,0.2c0.1,0.2-0.1,0.5-0.6,0.8
			l-36.4,26.4c-0.4,0.3-0.7,0.6-0.9,0.9c-0.2,0.3-0.3,0.7-0.4,1.1c0,0.4,0,0.8,0.2,1.2l13.9,42.7c0.2,0.6,0.2,0.9,0.1,1
			c-0.2,0.1-0.5,0-1-0.3L80.3-6.1c-0.6-0.4-1.1-0.6-1.7-0.6s-1.2,0.2-1.8,0.6L40.7,20.4C40.2,20.8,39.8,20.9,39.6,20.8z"/>
	</g>
	<g id="Black-M" transform="matrix(1 0 0 1 2865.21 1126)">
		<path class="st8" d="M32.3,14.5c1.8,1.4,3.8,1.9,5.9,1.6c2.1-0.3,4.3-1.3,6.6-3L68.2-4.2L91.5,13c2.3,1.7,4.5,2.6,6.6,3
			c2.1,0.3,4.1-0.2,5.9-1.6c1.8-1.3,2.8-3.1,3.2-5.2c0.4-2.1,0.1-4.5-0.8-7l-9.3-27.4l23.6-16.9c2.3-1.6,3.9-3.4,4.8-5.3
			s1-3.9,0.3-6.1c-0.7-2.1-2-3.7-3.9-4.7s-4.2-1.5-6.9-1.5l-28.9,0.2l-8.8-27.7c-0.8-2.7-2-4.7-3.6-6.2c-1.5-1.5-3.4-2.2-5.6-2.2
			s-4.1,0.7-5.6,2.2s-2.7,3.5-3.6,6.2l-8.8,27.7l-29-0.2c-2.7,0-5,0.5-6.9,1.5s-3.2,2.6-3.9,4.6c-0.7,2.1-0.6,4.1,0.3,6.1
			c1,1.9,2.6,3.7,4.8,5.3L39-25.3L29.9,2.2c-0.9,2.6-1.1,4.9-0.7,7C29.5,11.4,30.6,13.1,32.3,14.5z M47.9-6.9
			c-0.1-0.1-0.1-0.2,0-0.3l7.3-18.5c0.6-1.5,0.9-2.7,1-3.7s-0.1-1.8-0.7-2.5c-0.6-0.7-1.6-1.6-3.1-2.5L35.7-45.2
			c-0.1-0.1-0.2-0.1-0.2-0.2c0-0.1,0.1-0.1,0.3-0.1l19.8,1.2c2.4,0.1,4.1-0.2,5.1-0.9c1-0.6,1.8-2.1,2.3-4.4l5-19.2
			c0-0.2,0.1-0.2,0.2-0.2s0.1,0.1,0.1,0.2l5,19.2c0.6,2.3,1.4,3.8,2.4,4.4c1,0.6,2.7,0.9,5.1,0.9l19.8-1.2c0.2,0,0.3,0,0.3,0.1
			s-0.1,0.1-0.2,0.2L84-34.4c-1.5,0.9-2.5,1.8-3,2.5c-0.6,0.7-0.8,1.6-0.7,2.5c0.1,0.9,0.4,2.1,1,3.6l7.3,18.5c0.1,0.1,0,0.2,0,0.3
			c0,0-0.1,0-0.2,0L72.9-19.6c-2-1.5-3.5-2.2-4.7-2.2s-2.7,0.7-4.7,2.2L48.1-7C48-6.9,47.9-6.9,47.9-6.9z"/>
	</g>
	<g id="Heavy-M" transform="matrix(1 0 0 1 2569.45 1126)">
		<path class="st8" d="M31.9,13.9c1.6,1.2,3.4,1.7,5.3,1.4s3.9-1.2,6-2.7L67.2-5l24,17.6c2.1,1.5,4.1,2.4,6,2.7s3.7-0.2,5.3-1.4
			c1.6-1.2,2.5-2.8,2.9-4.7c0.3-1.9,0.1-4-0.7-6.4l-9.5-28.2l24.2-17.3c2.1-1.5,3.6-3.1,4.5-4.8s1-3.5,0.3-5.5
			c-0.6-1.9-1.8-3.3-3.5-4.2s-3.8-1.4-6.4-1.3l-29.6,0.2l-9-28.4c-0.8-2.4-1.9-4.3-3.2-5.7c-1.4-1.3-3.1-2-5.1-2s-3.7,0.7-5.1,2
			c-1.4,1.3-2.5,3.2-3.2,5.7l-9,28.4l-29.6-0.2c-2.5,0-4.6,0.4-6.3,1.3c-1.7,0.9-2.9,2.3-3.5,4.2c-0.7,1.9-0.6,3.7,0.3,5.4
			c0.9,1.7,2.4,3.4,4.4,4.9l24.2,17.3L29.8,2.8c-0.8,2.4-1,4.5-0.7,6.4C29.5,11.2,30.4,12.7,31.9,13.9z M45.5-4.7
			c-0.1-0.1-0.1-0.2,0-0.3l7.9-20.7c0.5-1.3,0.8-2.3,0.9-3.2c0.1-0.9-0.1-1.6-0.6-2.3c-0.5-0.7-1.4-1.4-2.6-2.2L32.4-45.7
			c-0.2-0.1-0.2-0.1-0.2-0.2c0-0.1,0.2-0.1,0.4-0.1l22.1,1c2.1,0.1,3.6-0.2,4.5-0.8s1.6-1.9,2.1-3.9L67-71.1c0-0.2,0.1-0.2,0.2-0.2
			s0.2,0.1,0.2,0.2l5.8,21.3c0.5,2,1.2,3.3,2.1,3.9c0.9,0.6,2.4,0.8,4.5,0.8l22.1-1c0.2,0,0.3,0,0.3,0.1s-0.1,0.1-0.2,0.2L83.6-33.4
			c-1.3,0.8-2.1,1.6-2.6,2.2c-0.5,0.7-0.7,1.4-0.6,2.3c0.1,0.8,0.3,1.9,0.8,3.2L89-5c0.1,0.2,0,0.3,0,0.3s-0.1,0-0.3,0l-17.3-14
			c-1.7-1.3-3-2-4.1-2s-2.5,0.7-4.2,2l-17.3,14C45.6-4.7,45.5-4.7,45.5-4.7z"/>
	</g>
	<g id="Bold-M" transform="matrix(1 0 0 1 2273.79 1126)">
		<path class="st8" d="M31.5,13.3c1.4,1.1,3,1.5,4.7,1.2s3.5-1.1,5.3-2.5L66.2-6.1L90.8,12c1.9,1.4,3.7,2.2,5.4,2.5
			c1.7,0.3,3.2-0.1,4.6-1.2c1.4-1,2.2-2.4,2.5-4.1s0.1-3.6-0.7-5.8l-9.8-29l24.9-17.8c1.9-1.3,3.2-2.8,4-4.3s0.9-3.1,0.3-4.8
			s-1.6-2.9-3.1-3.7s-3.4-1.2-5.7-1.1L82.8-57l-9.2-29.1c-0.7-2.2-1.7-4-2.9-5.2c-1.2-1.2-2.7-1.8-4.4-1.8s-3.2,0.6-4.4,1.8
			c-1.2,1.2-2.2,2.9-2.9,5.2L49.6-57l-30.5-0.2c-2.3,0-4.2,0.3-5.7,1.1s-2.5,2-3.1,3.6c-0.6,1.7-0.5,3.3,0.3,4.8s2.1,3,4,4.3
			l24.8,17.8l-9.7,29c-0.7,2.1-1,4.1-0.7,5.8C29.3,10.9,30.2,12.3,31.5,13.3z M42.9-2.2c-0.1-0.1-0.1-0.2,0-0.4l8.5-23.2
			c0.4-1,0.6-1.9,0.7-2.7c0-0.7-0.1-1.4-0.6-2.1c-0.4-0.6-1.1-1.3-2.1-1.9L28.8-46.2c-0.2-0.1-0.3-0.2-0.2-0.3
			c0-0.1,0.2-0.1,0.4-0.1l24.7,0.9c1.7,0,3-0.2,3.8-0.8c0.8-0.5,1.4-1.6,1.9-3.3L66-73.6c0.1-0.2,0.1-0.3,0.2-0.3s0.2,0.1,0.2,0.3
			l6.7,23.7c0.5,1.7,1.1,2.8,1.9,3.3s2.1,0.8,3.8,0.8l24.7-0.9c0.2,0,0.4,0,0.4,0.1s0,0.2-0.2,0.3L83.2-32.4c-1,0.7-1.7,1.3-2.1,1.9
			s-0.6,1.3-0.6,2s0.2,1.6,0.6,2.7l8.5,23.2c0.1,0.2,0.1,0.3,0,0.4c-0.1,0.1-0.2,0-0.3-0.1L69.8-17.6c-1.4-1-2.6-1.6-3.6-1.6
			s-2.2,0.5-3.6,1.6L43.2-2.3C43-2.2,42.9-2.1,42.9-2.2z"/>
	</g>
	<g id="Semibold-M" transform="matrix(1 0 0 1 1977.81 1126)">
		<path class="st8" d="M31.2,12.9c1.3,0.9,2.7,1.3,4.2,1s3.2-1,4.9-2.3l25-18.4l25.1,18.4c1.7,1.3,3.4,2,4.9,2.3s3-0.1,4.2-1
			s2-2.2,2.2-3.7c0.3-1.5,0-3.3-0.6-5.3l-9.9-29.4l25.3-18.1c1.8-1.3,3-2.6,3.7-4s0.8-2.8,0.3-4.3s-1.5-2.6-2.8-3.3
			c-1.4-0.7-3.1-1.1-5.3-1l-31,0.2L72-85.6c-0.7-2.1-1.6-3.6-2.7-4.7s-2.4-1.6-4-1.6c-1.5,0-2.8,0.5-4,1.6c-1.1,1.1-2,2.7-2.6,4.7
			L49.3-56l-31.1-0.2c-2.1,0-3.9,0.3-5.3,1s-2.3,1.8-2.8,3.3s-0.4,2.9,0.3,4.3c0.7,1.4,1.9,2.7,3.7,4l25.3,18.1L29.6,3.9
			c-0.7,2-0.9,3.8-0.6,5.3C29.3,10.8,30,12,31.2,12.9z M41-0.5c0-0.1,0-0.2,0-0.4l9-24.9c0.3-0.9,0.5-1.7,0.5-2.4
			c0-0.7-0.2-1.3-0.5-1.9c-0.4-0.6-1-1.1-1.8-1.7l-22-14.8c-0.2-0.1-0.3-0.2-0.2-0.3c0-0.1,0.2-0.1,0.4-0.1l26.5,0.7
			c1.4,0.1,2.5-0.2,3.3-0.7s1.3-1.5,1.7-2.9l7.4-25.4c0-0.2,0.1-0.3,0.2-0.3s0.2,0.1,0.2,0.3l7.4,25.4c0.4,1.4,0.9,2.4,1.7,2.9
			c0.8,0.5,1.9,0.7,3.3,0.7l26.4-0.7c0.3,0,0.4,0,0.4,0.1s0,0.2-0.2,0.3L82.8-31.7C82-31.1,81.4-30.5,81-30
			c-0.4,0.6-0.6,1.2-0.5,1.8c0,0.7,0.2,1.5,0.6,2.4L90-0.9c0,0.2,0,0.3,0,0.4s-0.1,0.1-0.3,0L68.6-16.8c-1.1-0.9-2.2-1.4-3.1-1.4
			s-2,0.5-3.1,1.4l-21,16.3C41.2-0.4,41.1-0.4,41-0.5z"/>
	</g>
	<g id="Medium-M" transform="matrix(1 0 0 1 1681.64 1126)">
		<path class="st8" d="M31.1,12.6c1.1,0.9,2.4,1.2,3.9,1c1.4-0.3,3-1,4.6-2.1L64.9-7.3l25.4,18.7c1.6,1.2,3.1,1.9,4.6,2.1
			c1.4,0.3,2.7-0.1,3.9-1c1.1-0.8,1.8-2,2.1-3.4c0.2-1.4,0-3.1-0.7-5l-10-29.8L115.8-44c1.7-1.2,2.9-2.4,3.5-3.7
			c0.7-1.3,0.7-2.6,0.3-4c-0.5-1.3-1.3-2.3-2.6-3s-2.9-1-5-1l-31.4,0.2l-9.5-30c-0.7-2-1.5-3.4-2.5-4.4s-2.2-1.5-3.7-1.5
			c-1.4,0-2.6,0.5-3.6,1.5s-1.8,2.5-2.5,4.4l-9.6,30l-31.4-0.2c-2,0-3.7,0.3-4.9,1s-2.1,1.7-2.6,3c-0.5,1.4-0.4,2.7,0.3,4
			s1.8,2.5,3.5,3.7l25.6,18.4L29.6,4.2c-0.7,1.9-0.9,3.6-0.6,5C29.2,10.6,29.9,11.8,31.1,12.6z M39.6,0.8c-0.1-0.1-0.1-0.2,0-0.4
			l9.3-26.2c0.3-0.8,0.4-1.5,0.4-2.1s-0.2-1.2-0.5-1.7s-0.9-1-1.6-1.5L24.3-46.9C24.1-47,24-47.1,24-47.2c0-0.1,0.2-0.1,0.4-0.1
			l27.8,0.6c1.3,0.1,2.3-0.1,3-0.6s1.2-1.4,1.6-2.6l7.9-26.6c0.1-0.3,0.1-0.4,0.2-0.4s0.2,0.1,0.2,0.4L73-50
			c0.4,1.2,0.9,2.1,1.6,2.6s1.7,0.7,3,0.6l27.8-0.6c0.2,0,0.4,0,0.4,0.1c0.1,0.1,0,0.2-0.2,0.3l-23,15.8c-0.7,0.5-1.2,1-1.6,1.5
			c-0.3,0.5-0.5,1.1-0.5,1.7s0.2,1.3,0.4,2.1l9.3,26.2c0.1,0.2,0.1,0.3,0,0.4S90,0.8,89.8,0.6l-22-16.9c-1-0.8-2-1.2-2.9-1.2
			s-1.9,0.4-2.8,1.2L40,0.7C39.8,0.9,39.7,0.9,39.6,0.8z"/>
	</g>
	<g id="Regular-M" transform="matrix(1 0 0 1 1385.66 1126)">
		<path class="st8" d="M30.8,12.2c1,0.8,2.1,1,3.4,0.8c1.3-0.2,2.7-0.9,4.2-2L64.2-8L90,11c1.5,1.1,2.9,1.7,4.2,2
			c1.3,0.2,2.4,0,3.4-0.8c1-0.7,1.6-1.8,1.8-3c0.2-1.3,0-2.8-0.6-4.5L88.6-25.7l26.1-18.7c1.5-1.1,2.6-2.2,3.2-3.3s0.7-2.3,0.3-3.5
			c-0.4-1.2-1.2-2.1-2.3-2.6c-1.1-0.6-2.7-0.9-4.5-0.8l-32,0.2l-9.7-30.5c-0.6-1.8-1.3-3.1-2.2-4.1c-0.9-0.9-2-1.4-3.2-1.4
			c-1.2,0-2.3,0.5-3.2,1.4s-1.6,2.3-2.2,4.1L49-54.6l-32-0.2c-1.9,0-3.4,0.2-4.5,0.8s-1.9,1.5-2.3,2.6c-0.4,1.2-0.3,2.4,0.3,3.5
			s1.6,2.2,3.2,3.3l26.1,18.7L29.5,4.6c-0.6,1.8-0.8,3.3-0.6,4.5C29.1,10.4,29.8,11.5,30.8,12.2z M37.8,2.5c-0.1-0.1-0.1-0.2,0-0.4
			l9.7-27.9c0.2-0.6,0.3-1.2,0.3-1.8c0-0.6-0.2-1.1-0.5-1.5C47-29.6,46.6-30,46-30.4L21.8-47.2c-0.2-0.1-0.3-0.3-0.2-0.4
			c0-0.1,0.2-0.1,0.4-0.1l29.5,0.5c1,0,1.8-0.2,2.5-0.6c0.7-0.4,1.1-1.2,1.4-2.2l8.5-28.3c0.1-0.3,0.1-0.4,0.2-0.4s0.2,0.1,0.3,0.4
			L72.9-50c0.3,1,0.8,1.7,1.4,2.2c0.7,0.4,1.5,0.6,2.5,0.6l29.5-0.5c0.3,0,0.4,0,0.4,0.1c0.1,0.1,0,0.3-0.2,0.4L82.3-30.4
			c-0.6,0.4-1,0.8-1.3,1.3s-0.4,1-0.5,1.5c0,0.6,0.1,1.1,0.3,1.8l9.7,27.9c0,0.2,0,0.4,0,0.4c-0.1,0.1-0.2,0.1-0.4-0.1L66.7-15.5
			c-0.8-0.6-1.6-0.9-2.5-0.9s-1.7,0.3-2.5,0.9L38.2,2.4C38,2.6,37.9,2.6,37.8,2.5z"/>
	</g>
	<g id="Light-M" transform="matrix(1 0 0 1 1089.95 1126)">
		<path class="st8" d="M30.4,11.5c0.8,0.6,1.7,0.8,2.8,0.7c1-0.2,2.2-0.7,3.4-1.6L63.2-9l26.6,19.5c1.2,0.9,2.4,1.4,3.4,1.6
			c1,0.2,1.9,0,2.8-0.7c0.8-0.6,1.3-1.4,1.5-2.4s0-2.3-0.5-3.8L86.6-26l26.8-19.3c1.3-0.9,2.1-1.8,2.6-2.8c0.5-0.9,0.5-1.9,0.2-2.9
			c-0.3-0.9-0.9-1.7-1.8-2.1c-0.9-0.5-2.2-0.7-3.8-0.7l-32.9,0.1L67.6-85c-0.5-1.5-1.1-2.6-1.8-3.3c-0.7-0.7-1.6-1.1-2.6-1.1
			s-1.9,0.4-2.6,1.1c-0.7,0.7-1.4,1.8-1.9,3.3l-10,31.3l-32.9-0.1c-1.6,0-2.8,0.2-3.8,0.7c-0.9,0.5-1.5,1.2-1.9,2.1
			c-0.3,1-0.2,1.9,0.2,2.9c0.5,0.9,1.3,1.8,2.6,2.8L39.8-26L29.4,5.3C28.9,6.8,28.7,8,28.9,9C29.1,10,29.6,10.9,30.4,11.5z
			 M35.6,4.3c-0.1-0.1,0-0.3,0-0.6l10.1-29.5c0.2-0.6,0.3-1.1,0.3-1.5s-0.2-0.9-0.4-1.3c-0.3-0.4-0.6-0.8-1.1-1.1l-25.6-18
			c-0.3-0.2-0.4-0.4-0.3-0.5c0-0.1,0.2-0.1,0.5-0.1l31.2,0.4c0.8,0,1.6-0.1,2.1-0.5c0.6-0.4,1-1,1.2-1.9l9.2-29.8
			c0.1-0.3,0.2-0.5,0.3-0.5s0.2,0.2,0.3,0.5l9.2,29.8c0.3,0.8,0.7,1.5,1.2,1.9c0.6,0.4,1.3,0.6,2.1,0.5l31.2-0.4
			c0.3,0,0.5,0,0.5,0.1c0.1,0.1,0,0.3-0.3,0.5l-25.4,18c-0.5,0.3-0.9,0.7-1.1,1.1c-0.3,0.4-0.4,0.8-0.4,1.3s0.1,1,0.3,1.5l10,29.5
			c0.1,0.3,0.1,0.5,0,0.6c-0.1,0.1-0.2,0-0.5-0.1L65.3-14.6c-0.7-0.5-1.4-0.8-2.1-0.8c-0.7,0-1.4,0.3-2.1,0.8L36.2,4.2
			C35.9,4.3,35.7,4.4,35.6,4.3z"/>
	</g>
	<g id="Thin-M" transform="matrix(1 0 0 1 794.581 1126)">
		<path class="st8" d="M29.9,10.5c0.6,0.4,1.2,0.6,1.9,0.5c0.7-0.1,1.5-0.5,2.4-1.1l27.6-20.2L89.5,9.9c0.9,0.7,1.7,1,2.4,1.1
			c0.7,0.1,1.3-0.1,1.9-0.5s0.9-0.9,1-1.6c0.1-0.7,0-1.6-0.3-2.8L83.9-26.3l27.7-20c0.9-0.7,1.6-1.4,1.8-2c0.3-0.7,0.3-1.3,0.1-2
			c-0.2-0.7-0.7-1.2-1.3-1.5c-0.6-0.4-1.5-0.5-2.7-0.5l-34.1,0.1L65-84.8c-0.4-1.1-0.9-1.9-1.4-2.4s-1.1-0.7-1.8-0.7
			s-1.2,0.2-1.8,0.7c-0.5,0.5-1,1.3-1.3,2.4L48.2-52.2l-34.1-0.1c-1.2,0-2.1,0.1-2.7,0.5c-0.6,0.4-1,0.9-1.2,1.5
			c-0.2,0.7-0.2,1.3,0.1,2s0.9,1.3,1.9,2l27.7,20L29.2,6.1c-0.4,1.1-0.5,2.1-0.3,2.8C29,9.6,29.3,10.1,29.9,10.5z M32.7,6.6
			c-0.1,0,0-0.3,0-0.7l10.5-31.7c0.1-0.4,0.2-0.8,0.2-1.1c0-0.4-0.1-0.7-0.3-1.1c-0.2-0.3-0.5-0.6-0.9-0.9L15.1-48.3
			c-0.4-0.2-0.5-0.4-0.4-0.5c0-0.1,0.3-0.2,0.7-0.2l33.4,0.2c0.7,0,1.2-0.2,1.6-0.5c0.4-0.3,0.7-0.8,0.9-1.4l10.1-31.8
			c0.1-0.4,0.2-0.6,0.3-0.6c0.2,0,0.3,0.2,0.4,0.6l10.1,31.8c0.2,0.7,0.5,1.1,0.9,1.4c0.4,0.3,1,0.5,1.7,0.5l33.4-0.2
			c0.4,0,0.6,0.1,0.7,0.2c0,0.2-0.1,0.3-0.5,0.5l-27,19.4c-0.4,0.2-0.7,0.5-0.9,0.9c-0.2,0.3-0.3,0.7-0.3,1.1s0,0.8,0.2,1.1
			L90.9,5.9C91,6.3,91,6.6,91,6.6c-0.1,0.1-0.4,0-0.7-0.2L63.5-13.4C63-13.8,62.4-14,61.9-14c-0.6,0-1.1,0.2-1.6,0.6L33.4,6.4
			C33.1,6.6,32.8,6.7,32.7,6.6z"/>
	</g>
	<g id="Ultralight-M" transform="matrix(1 0 0 1 498.554 1126)">
		<path class="st8" d="M29.7,10c0.4,0.3,0.9,0.4,1.4,0.4s1.2-0.3,1.9-0.9L61.2-11L89.3,9.5c0.7,0.6,1.4,0.8,1.9,0.9
			c0.5,0,1-0.1,1.5-0.4c0.4-0.3,0.7-0.7,0.8-1.3c0.1-0.5,0.1-1.3-0.2-2.2l-10.8-33l28.2-20.4c0.8-0.6,1.3-1.1,1.5-1.6s0.2-1,0-1.5
			c-0.1-0.5-0.4-0.9-0.9-1.2s-1.2-0.5-2.2-0.5H74.4l-10.7-33c-0.3-0.9-0.7-1.6-1.1-1.9c-0.4-0.3-0.9-0.5-1.4-0.5s-1,0.2-1.4,0.5
			s-0.8,1-1.1,1.9L48-51.6H13.2c-1,0-1.7,0.2-2.2,0.5s-0.8,0.7-1,1.2c-0.1,0.5-0.1,1,0.1,1.5c0.2,0.5,0.7,1.1,1.4,1.6l28.2,20.4
			L29.1,6.5c-0.3,0.9-0.4,1.7-0.2,2.2S29.2,9.7,29.7,10z M31.2,7.8c-0.1,0-0.1-0.3,0-0.8L42-25.7c0.1-0.4,0.2-0.7,0.2-1
			s-0.1-0.6-0.3-0.9s-0.4-0.5-0.7-0.7l-28-20.2c-0.4-0.3-0.5-0.5-0.5-0.6c0.1-0.1,0.3-0.1,0.7-0.1L48-49.3c0.6,0,1-0.1,1.4-0.4
			c0.4-0.3,0.6-0.7,0.8-1.2l10.5-32.8c0.1-0.5,0.3-0.7,0.4-0.7c0.2,0,0.3,0.2,0.4,0.7L72-50.9c0.2,0.6,0.5,1,0.8,1.2
			c0.4,0.3,0.8,0.4,1.4,0.4l34.6-0.1c0.5,0,0.7,0,0.8,0.1c0,0.2-0.1,0.4-0.5,0.6L81.2-28.4c-0.3,0.2-0.6,0.4-0.8,0.7
			c-0.2,0.3-0.3,0.6-0.3,0.9s0,0.7,0.1,1L91,7c0.1,0.5,0.1,0.7,0,0.8c-0.1,0.1-0.4,0-0.7-0.2L62.5-12.8c-0.4-0.4-0.9-0.5-1.4-0.5
			s-1,0.2-1.4,0.5L32,7.5C31.6,7.8,31.4,7.9,31.2,7.8z"/>
	</g>
	<g id="Black-S" transform="matrix(1 0 0 1 2879.74 696)">
		<path class="st8" d="M25.4,3.8c1.4,1.1,3,1.5,4.7,1.3c1.7-0.2,3.5-1,5.3-2.4l18.2-13.4L71.8,2.7c1.8,1.3,3.6,2.1,5.3,2.4
			c1.7,0.2,3.3-0.2,4.7-1.3c1.4-1.1,2.3-2.5,2.6-4.2C84.8-2.1,84.6-4,83.9-6l-7.2-21.3L95-40.5c1.8-1.3,3.1-2.7,3.9-4.3
			c0.7-1.6,0.8-3.2,0.2-4.9c-0.6-1.7-1.6-3-3.1-3.8s-3.4-1.2-5.6-1.2l-22.5,0.2L61.1-76c-0.7-2.1-1.6-3.8-2.9-5
			c-1.2-1.2-2.8-1.8-4.5-1.8c-1.8,0-3.3,0.6-4.5,1.8s-2.2,2.8-2.9,5l-6.8,21.5L17-54.7c-2.2,0-4,0.4-5.5,1.2s-2.6,2.1-3.1,3.8
			c-0.6,1.7-0.5,3.4,0.2,4.9c0.8,1.6,2.1,3,3.9,4.3l18.4,13.1L23.4-6c-0.7,2.1-0.9,3.9-0.6,5.6C23.2,1.3,24,2.7,25.4,3.8z
			 M38.1-13.6c-0.1-0.1-0.1-0.1,0-0.2l5.6-13.9c0.7-1.9,0.9-3.2,0.7-4.1s-1.2-1.9-3-3.1L28.8-43c-0.1-0.1-0.1-0.1-0.1-0.2
			c0-0.1,0.1-0.1,0.2-0.1l14.9,1c2,0,3.4-0.2,4.2-0.7s1.4-1.7,1.9-3.6L53.5-61c0-0.1,0.1-0.2,0.1-0.2c0.1,0,0.1,0.1,0.1,0.2
			l3.7,14.5c0.5,1.9,1.1,3.1,1.9,3.6c0.8,0.5,2.2,0.7,4.2,0.7l14.9-1c0.2,0,0.2,0,0.2,0.1c0,0,0,0.1-0.1,0.2l-12.6,8.1
			c-1.8,1.2-2.8,2.2-3,3s0.1,2.2,0.7,4.1l5.6,13.9c0,0.1,0,0.2,0,0.2s-0.1,0-0.2,0l-11.5-9.6c-1.6-1.2-2.9-1.9-3.8-1.9
			s-2.2,0.6-3.8,1.9l-11.5,9.6C38.2-13.6,38.2-13.6,38.1-13.6z"/>
	</g>
	<g id="Heavy-S" transform="matrix(1 0 0 1 2583.71 696)">
		<path class="st8" d="M25.1,3.5c1.3,1,2.8,1.4,4.4,1.1c1.6-0.2,3.2-1,4.9-2.2L53-11.3L71.6,2.4c1.7,1.2,3.3,2,4.9,2.2
			c1.6,0.2,3-0.1,4.3-1.1s2.1-2.3,2.4-3.8c0.3-1.6,0.1-3.3-0.6-5.2l-7.4-21.8L94-40.7c1.7-1.2,2.9-2.5,3.6-4
			c0.7-1.4,0.8-2.9,0.2-4.4c-0.5-1.6-1.5-2.7-2.9-3.5c-1.4-0.7-3.1-1.1-5.2-1.1l-23,0.2l-7-22c-0.6-2-1.5-3.5-2.6-4.6
			s-2.5-1.7-4.2-1.7s-3,0.6-4.1,1.7s-2,2.7-2.7,4.6l-7,22l-23-0.2c-2.1,0-3.8,0.3-5.2,1.1c-1.4,0.7-2.4,1.9-2.9,3.4
			c-0.6,1.6-0.5,3.1,0.2,4.5s1.9,2.8,3.6,4l18.8,13.4L23.4-5.6c-0.7,1.9-0.9,3.7-0.6,5.2C23.1,1.2,23.9,2.5,25.1,3.5z M36.4-11.9
			c-0.1-0.1-0.1-0.2,0-0.3l6-15.6c0.6-1.6,0.7-2.8,0.6-3.6c-0.2-0.8-1-1.7-2.6-2.7l-14-9.1c-0.1-0.1-0.1-0.1-0.1-0.2
			c0-0.1,0.1-0.1,0.2-0.1l16.7,0.9c1.7,0,3-0.2,3.7-0.7s1.3-1.5,1.7-3.1l4.3-16.1c0-0.1,0.1-0.2,0.1-0.2c0.1,0,0.1,0.1,0.1,0.2
			l4.3,16.1c0.5,1.6,1,2.7,1.8,3.1s2,0.7,3.7,0.7l16.7-0.9c0.2,0,0.2,0,0.2,0.1s0,0.1-0.1,0.2l-14,9.2c-1.5,1-2.4,1.9-2.6,2.7
			c-0.2,0.8,0,2,0.6,3.6l6,15.6c0,0.1,0,0.2,0,0.3c0,0-0.1,0-0.2-0.1l-13-10.5C55.1-23.5,54-24,53.1-24s-2,0.5-3.4,1.6L36.6-12
			C36.5-11.9,36.4-11.9,36.4-11.9z"/>
	</g>
	<g id="Bold-S" transform="matrix(1 0 0 1 2287.76 696)">
		<path class="st8" d="M24.9,3.1c1.2,0.9,2.5,1.2,3.9,1c1.4-0.2,2.9-0.9,4.5-2.1l19-14l19,14c1.6,1.1,3.1,1.8,4.5,2.1
			c1.4,0.2,2.7-0.1,3.8-1c1.2-0.9,1.9-2,2.1-3.4s0-3-0.6-4.8l-7.5-22.4l19.2-13.8c1.6-1.1,2.7-2.3,3.3-3.6c0.7-1.3,0.7-2.6,0.2-4
			s-1.3-2.4-2.6-3c-1.3-0.7-2.8-1-4.8-1l-23.5,0.2l-7.2-22.5c-0.6-1.8-1.4-3.2-2.4-4.2s-2.2-1.5-3.7-1.5s-2.7,0.5-3.7,1.5
			S46.6-77,46-75.2l-7,22.5l-23.6-0.2c-1.9,0-3.5,0.3-4.7,1c-1.3,0.7-2.1,1.7-2.6,3c-0.5,1.4-0.4,2.7,0.3,4s1.8,2.5,3.3,3.6
			l19.2,13.8L23.3-5.2c-0.6,1.8-0.8,3.4-0.6,4.8S23.7,2.2,24.9,3.1z M34.4-10.1c-0.1-0.1-0.1-0.2,0-0.3l6.5-17.5
			c0.5-1.3,0.6-2.4,0.4-3.1c-0.2-0.7-0.9-1.5-2.2-2.4L23.6-43.7c-0.1-0.1-0.1-0.2-0.1-0.2c0-0.1,0.1-0.1,0.3-0.1l18.6,0.7
			c1.4,0,2.5-0.2,3.1-0.6c0.7-0.4,1.2-1.3,1.5-2.7l5-18c0-0.1,0.1-0.2,0.2-0.2c0.1,0,0.1,0.1,0.1,0.2l5,18c0.4,1.4,0.9,2.3,1.6,2.7
			c0.7,0.4,1.7,0.6,3.1,0.6L80.7-44c0.2,0,0.3,0,0.3,0.1s0,0.1-0.1,0.2L65.3-33.3c-1.2,0.8-1.9,1.6-2.1,2.3c-0.2,0.7,0,1.8,0.4,3.1
			l6.5,17.5c0,0.1,0,0.2,0,0.3s-0.1,0-0.2,0L55.2-21.7c-1.1-0.9-2.1-1.3-2.9-1.3c-0.8,0-1.8,0.4-3,1.3L34.7-10.1
			C34.5-10,34.5-10,34.4-10.1z"/>
	</g>
	<g id="Semibold-S" transform="matrix(1 0 0 1 1991.56 696)">
		<path class="st8" d="M24.7,2.8c1.1,0.8,2.3,1.1,3.6,0.9c1.3-0.2,2.7-0.9,4.2-2l19.3-14.2L71,1.7c1.5,1.1,2.8,1.7,4.2,2
			c1.3,0.2,2.5-0.1,3.6-0.9c1-0.8,1.7-1.9,1.9-3.1c0.2-1.3,0-2.8-0.6-4.5l-7.7-22.8l19.5-14c1.5-1,2.5-2.1,3.1-3.3s0.7-2.4,0.3-3.7
			c-0.4-1.3-1.2-2.2-2.4-2.8c-1.2-0.6-2.6-0.9-4.5-0.9L64.6-52l-7.3-22.9c-0.6-1.7-1.3-3.1-2.2-4s-2-1.4-3.3-1.4s-2.5,0.5-3.4,1.4
			s-1.7,2.3-2.2,4L38.8-52l-23.9-0.2c-1.8,0-3.3,0.3-4.4,0.9c-1.2,0.6-2,1.5-2.4,2.8c-0.4,1.3-0.3,2.5,0.3,3.7s1.6,2.3,3.1,3.3
			l19.5,14L23.3-4.8c-0.6,1.7-0.8,3.2-0.5,4.5C23,0.9,23.6,2,24.7,2.8z M33.1-8.7C33-8.8,33-8.9,33-9l6.9-18.8
			c0.4-1.1,0.5-2.1,0.3-2.8c-0.2-0.7-0.8-1.4-1.9-2.1L21.7-43.9c-0.1-0.1-0.1-0.2-0.1-0.3s0.1-0.1,0.3-0.1l20,0.6
			c1.2,0,2.2-0.2,2.8-0.6c0.6-0.4,1.1-1.2,1.4-2.4l5.5-19.2c0-0.2,0.1-0.2,0.2-0.2c0.1,0,0.1,0.1,0.1,0.2l5.5,19.2
			c0.4,1.2,0.8,2,1.5,2.4c0.6,0.4,1.5,0.6,2.8,0.6l20-0.6c0.2,0,0.2,0,0.2,0.1s0,0.2-0.1,0.3L65-32.8c-1,0.7-1.7,1.4-1.8,2.1
			c-0.2,0.7-0.1,1.6,0.3,2.8L70.4-9c0,0.1,0,0.2,0,0.3s-0.1,0-0.2,0L54.3-21.1c-0.9-0.7-1.8-1.1-2.6-1.1S50-21.8,49-21.1L33.3-8.8
			C33.2-8.7,33.1-8.7,33.1-8.7z"/>
	</g>
	<g id="Medium-S" transform="matrix(1 0 0 1 1695.26 696)">
		<path class="st8" d="M24.5,2.6c1,0.7,2.1,1,3.3,0.8c1.2-0.2,2.5-0.8,3.9-1.9l19.6-14.4L70.9,1.5c1.4,1,2.7,1.7,3.9,1.9
			c1.2,0.2,2.3-0.1,3.3-0.8c1-0.8,1.6-1.8,1.8-3c0.2-1.2,0-2.6-0.5-4.2l-7.8-23l19.8-14.2c1.4-1,2.3-2,2.9-3.1s0.7-2.2,0.3-3.4
			c-0.4-1.2-1.2-2-2.3-2.6c-1.1-0.5-2.5-0.8-4.2-0.8l-24.2,0.2l-7.3-23.2c-0.6-1.6-1.3-2.9-2.1-3.7c-0.9-0.9-1.9-1.3-3.1-1.3
			c-1.2,0-2.3,0.4-3.1,1.3s-1.5,2.1-2.1,3.7l-7.4,23.2l-24.2-0.2c-1.7,0-3.1,0.3-4.2,0.8s-1.9,1.4-2.2,2.6c-0.4,1.2-0.3,2.3,0.2,3.4
			c0.6,1.1,1.6,2.1,3,3.1L31-27.6l-7.7,23c-0.6,1.6-0.7,3-0.6,4.2C22.9,0.8,23.5,1.8,24.5,2.6z M32-7.7c-0.1-0.1-0.1-0.2,0-0.3
			l7.1-19.8c0.3-1,0.4-1.9,0.2-2.6s-0.7-1.3-1.6-1.9L20.3-44.1c-0.1-0.1-0.2-0.1-0.1-0.2c0-0.1,0.1-0.1,0.3-0.1l21,0.6
			c1.1,0,1.9-0.2,2.5-0.6c0.6-0.4,1-1.1,1.4-2.2l5.8-20.2c0-0.2,0.1-0.2,0.2-0.2c0.1,0,0.1,0.1,0.1,0.2l5.9,20.2
			c0.3,1,0.8,1.8,1.4,2.2c0.6,0.4,1.4,0.6,2.5,0.6l20.9-0.6c0.2,0,0.3,0,0.3,0.1s0,0.1-0.1,0.2L64.9-32.3c-0.9,0.6-1.5,1.3-1.6,2
			c-0.2,0.7-0.1,1.5,0.3,2.5L70.7-8c0,0.2,0,0.3,0,0.3s-0.1,0-0.3-0.1L53.7-20.7c-0.8-0.7-1.6-1-2.4-1c-0.8,0-1.6,0.3-2.5,1
			L32.3-7.8C32.2-7.7,32.1-7.7,32-7.7z"/>
	</g>
	<g id="Regular-S" transform="matrix(1 0 0 1 1399.06 696)">
		<path class="st8" d="M24.3,2.3c0.9,0.7,1.9,0.9,3,0.7c1.1-0.2,2.3-0.8,3.6-1.8l19.9-14.6L70.7,1.2c1.3,1,2.5,1.6,3.6,1.8
			c1.1,0.2,2.1,0,3-0.7s1.4-1.6,1.6-2.7s0-2.4-0.5-3.9l-7.9-23.4l20.1-14.4c1.3-0.9,2.2-1.9,2.8-2.9c0.5-1,0.6-2,0.3-3.1
			c-0.4-1-1-1.8-2-2.3s-2.3-0.7-3.9-0.7L63-50.9l-7.5-23.5c-0.5-1.5-1.1-2.7-1.9-3.5c-0.8-0.8-1.7-1.2-2.8-1.2s-2,0.4-2.8,1.2
			c-0.8,0.8-1.4,2-1.9,3.5l-7.5,23.5L14-51.1c-1.6,0-2.9,0.2-3.9,0.7C9-49.9,8.4-49.1,8-48s-0.3,2.1,0.3,3.1c0.5,1,1.5,1.9,2.8,2.9
			l20.1,14.4l-8,23.3c-0.5,1.5-0.7,2.8-0.5,3.9C22.9,0.7,23.4,1.6,24.3,2.3z M30.7-6.4c0-0.1,0-0.2,0-0.3l7.5-21.1
			c0.3-0.8,0.3-1.5,0.1-2.2s-0.6-1.2-1.4-1.7L18.5-44.4c-0.1-0.1-0.2-0.2-0.1-0.3c0-0.1,0.1-0.1,0.3-0.1L41-44.3
			c0.8,0,1.5-0.1,2.1-0.5s1-1,1.2-1.8L50.6-68c0-0.2,0.1-0.2,0.2-0.2c0.1,0,0.2,0.1,0.2,0.2l6.3,21.4c0.3,0.8,0.7,1.5,1.2,1.8
			c0.5,0.4,1.2,0.5,2.1,0.5L83-44.8c0.2,0,0.3,0,0.3,0.1s0,0.2-0.1,0.3L64.6-31.8c-0.7,0.5-1.2,1.1-1.3,1.7
			c-0.2,0.7-0.1,1.4,0.2,2.2l7.4,21.1c0,0.2,0,0.3,0,0.3c0,0.1-0.1,0-0.3-0.1L52.9-20.2c-0.7-0.5-1.3-0.8-2.1-0.8
			c-0.7,0-1.4,0.3-2.1,0.8L31-6.5C30.8-6.4,30.7-6.4,30.7-6.4z"/>
	</g>
	<g id="Light-S" transform="matrix(1 0 0 1 1103.26 696)">
		<path class="st8" d="M23.9,1.7c0.7,0.5,1.6,0.7,2.5,0.6s1.9-0.6,3-1.4l20.5-15l20.6,15c1.1,0.8,2.1,1.3,3,1.4
			c0.9,0.1,1.7,0,2.4-0.6c0.7-0.6,1.1-1.3,1.3-2.1c0.1-0.9,0-2-0.5-3.3l-8.1-24.1l20.8-14.9c1.1-0.7,1.8-1.5,2.2-2.3
			c0.4-0.8,0.5-1.6,0.2-2.5c-0.3-0.8-0.8-1.5-1.6-1.9C89.4-49.8,88.3-50,87-50l-25.5,0l-7.8-24.3c-0.4-1.3-1-2.2-1.6-2.9
			c-0.6-0.7-1.4-1-2.3-1c-0.9,0-1.6,0.3-2.2,1c-0.6,0.7-1.2,1.6-1.6,2.9L38.2-50l-25.4-0.1c-1.3,0-2.4,0.2-3.2,0.6
			c-0.8,0.4-1.4,1-1.7,1.9c-0.3,0.8-0.2,1.7,0.2,2.5s1.2,1.6,2.3,2.3l20.7,14.9l-8,24.1c-0.5,1.3-0.6,2.4-0.5,3.3
			C22.8,0.4,23.2,1.1,23.9,1.7z M28.7-4.9c0,0,0-0.2,0-0.4l7.8-22.5c0.2-0.7,0.3-1.3,0.1-1.9s-0.6-1.1-1.2-1.5L15.9-44.8
			c-0.2-0.1-0.3-0.3-0.2-0.4c0-0.1,0.2-0.1,0.4-0.1l23.8,0.4c0.7,0,1.3-0.2,1.8-0.5s0.8-0.8,1-1.6l6.9-22.8c0.1-0.2,0.1-0.3,0.2-0.3
			c0.1,0,0.2,0.1,0.3,0.3L57-46.9c0.2,0.7,0.6,1.2,1,1.6c0.5,0.3,1.1,0.5,1.8,0.5l23.8-0.4c0.2,0,0.4,0,0.4,0.1s0,0.3-0.2,0.4
			L64.3-31.2c-0.6,0.4-1,0.9-1.1,1.5c-0.2,0.6-0.1,1.2,0.1,1.9L71-5.3c0.1,0.2,0.1,0.4,0,0.4c-0.1,0.1-0.2,0-0.4-0.1l-19-14.4
			c-0.6-0.5-1.1-0.7-1.8-0.7c-0.6,0-1.2,0.2-1.8,0.7L29.2-5C29-4.9,28.8-4.9,28.7-4.9z"/>
	</g>
	<g id="Thin-S" transform="matrix(1 0 0 1 807.741 696)">
		<path class="st8" d="M23.5,0.8c0.5,0.4,1,0.5,1.7,0.4c0.6-0.1,1.3-0.4,2.1-1l21.4-15.6L70.1,0.2c0.8,0.6,1.5,1,2.1,1
			c0.6,0.1,1.1-0.1,1.6-0.4c0.5-0.4,0.8-0.8,0.9-1.4s0-1.4-0.3-2.3l-8.3-25.2l21.5-15.6c0.8-0.6,1.3-1.1,1.6-1.7
			c0.3-0.6,0.3-1.1,0.1-1.7c-0.2-0.6-0.5-1-1.1-1.3s-1.3-0.5-2.3-0.5l-26.5,0.1l-8.1-25.3c-0.3-0.9-0.7-1.6-1.1-2
			c-0.5-0.4-1-0.6-1.6-0.6s-1.1,0.2-1.6,0.6s-0.8,1.1-1.1,2l-8.2,25.3l-26.5-0.1c-1,0-1.7,0.2-2.3,0.5S8-47.6,7.8-47.1
			c-0.2,0.6-0.2,1.1,0.1,1.7c0.3,0.6,0.8,1.1,1.6,1.7L31-28.1L22.9-3c-0.3,0.9-0.4,1.7-0.3,2.3S23,0.4,23.5,0.8z M26.2-2.9
			c-0.1-0.1,0-0.2,0-0.5l8.1-24.4c0.2-0.5,0.2-1,0.1-1.4c-0.1-0.5-0.4-0.8-0.9-1.2l-21-14.9c-0.3-0.2-0.4-0.3-0.3-0.4
			c0-0.1,0.2-0.1,0.5-0.1l25.8,0.2c0.5,0,1-0.1,1.3-0.4c0.4-0.2,0.7-0.6,0.9-1.2l7.7-24.5c0.1-0.3,0.2-0.5,0.3-0.5s0.2,0.2,0.3,0.5
			l7.7,24.5c0.2,0.6,0.5,1,0.8,1.2s0.8,0.4,1.4,0.4l25.8-0.2c0.3,0,0.5,0,0.5,0.1s-0.1,0.2-0.3,0.4l-21,14.9
			c-0.5,0.3-0.8,0.7-0.9,1.2c-0.1,0.5-0.1,0.9,0.1,1.4l8.2,24.4c0.1,0.3,0.1,0.5,0,0.5c-0.1,0.1-0.2,0-0.5-0.2L50-18.4
			c-0.4-0.4-0.9-0.5-1.3-0.5c-0.5,0-0.9,0.2-1.4,0.5L26.7-3.1C26.4-2.9,26.3-2.8,26.2-2.9z"/>
	</g>
	<g id="Ultralight-S" transform="matrix(1 0 0 1 511.64 696)">
		<path class="st8" d="M23.3,0.3c0.4,0.3,0.8,0.4,1.2,0.3s1-0.3,1.6-0.8l21.9-16l21.9,16c0.7,0.5,1.3,0.7,1.7,0.8s0.9-0.1,1.2-0.3
			c0.4-0.3,0.6-0.6,0.7-1.1s0-1.1-0.2-1.9l-8.4-25.7l22-15.9c0.6-0.5,1-0.9,1.2-1.3c0.2-0.4,0.2-0.9,0-1.3c-0.1-0.4-0.4-0.8-0.8-1
			c-0.4-0.3-1-0.4-1.9-0.4H58.3L50.2-74c-0.2-0.7-0.5-1.3-0.9-1.6C49-76,48.5-76.1,48-76.1c-0.4,0-0.8,0.2-1.2,0.5s-0.7,0.9-0.9,1.6
			l-8.3,25.8H10.5c-0.8,0-1.4,0.1-1.8,0.4c-0.4,0.3-0.7,0.6-0.8,1C7.8-46.5,7.8-46,8-45.6c0.2,0.4,0.6,0.9,1.2,1.3l22,15.9L22.8-2.6
			c-0.3,0.8-0.4,1.4-0.3,1.9C22.6-0.3,22.9,0.1,23.3,0.3z M24.9-1.9c-0.1,0,0-0.2,0-0.6l8.3-25.3c0.2-0.4,0.2-0.8,0-1.2
			c-0.1-0.4-0.4-0.7-0.8-1L10.8-45.6c-0.3-0.2-0.4-0.4-0.4-0.5s0.2-0.1,0.6-0.1l26.8,0.1c0.5,0,0.8-0.1,1.1-0.3s0.5-0.6,0.7-1
			l8.1-25.4c0.1-0.3,0.2-0.5,0.3-0.5s0.3,0.2,0.4,0.5l8.1,25.4c0.2,0.5,0.4,0.8,0.7,1s0.7,0.3,1.2,0.3l26.8-0.1c0.3,0,0.5,0,0.5,0.1
			s-0.1,0.3-0.3,0.5L63.7-30c-0.4,0.3-0.7,0.6-0.8,1s-0.1,0.8,0,1.2l8.3,25.3c0.1,0.4,0.1,0.6,0,0.6c-0.1,0.1-0.2,0-0.5-0.2
			L49.3-17.9c-0.4-0.3-0.8-0.4-1.2-0.4s-0.8,0.1-1.1,0.4L25.4-2.1C25.1-1.9,25-1.8,24.9-1.9z"/>
	</g>
</g>
</svg>
