<?xml version="1.0" encoding="UTF-8"?>
<!--Generator: Apple Native CoreSVG 175-->
<!DOCTYPE svg
PUBLIC "-//W3C//DTD SVG 1.1//EN"
       "http://www.w3.org/Graphics/SVG/1.1/DTD/svg11.dtd">
<svg version="1.1" xmlns="http://www.w3.org/2000/svg" xmlns:xlink="http://www.w3.org/1999/xlink" width="3300" height="2200">
 <!--glyph: "uni1001BE.medium", point size: 100.0, font version: "17.0d11e1", template writer version: "65.1"-->
 <style>.hierarchical-0:primary {fill:#212121}
.hierarchical-1:secondary {fill:#4D4D4D}

.SFSymbolsPreview212121 {fill:#212121;opacity:1.0}
.SFSymbolsPreview4D4D4D {fill:#4D4D4D;opacity:1.0}
</style>
 <g id="Notes">
  <rect height="2200" id="artboard" style="fill:white;opacity:1" width="3300" x="0" y="0"/>
  <line style="fill:none;stroke:black;opacity:1;stroke-width:0.5;" x1="263" x2="3036" y1="292" y2="292"/>
  <text style="stroke:none;fill:black;font-family:sans-serif;font-size:13;font-weight:bold;" transform="matrix(1 0 0 1 263 322)">Weight/Scale Variations</text>
  <text style="stroke:none;fill:black;font-family:sans-serif;font-size:13;text-anchor:middle;" transform="matrix(1 0 0 1 559.711 322)">Ultralight</text>
  <text style="stroke:none;fill:black;font-family:sans-serif;font-size:13;text-anchor:middle;" transform="matrix(1 0 0 1 856.422 322)">Thin</text>
  <text style="stroke:none;fill:black;font-family:sans-serif;font-size:13;text-anchor:middle;" transform="matrix(1 0 0 1 1153.13 322)">Light</text>
  <text style="stroke:none;fill:black;font-family:sans-serif;font-size:13;text-anchor:middle;" transform="matrix(1 0 0 1 1449.84 322)">Regular</text>
  <text style="stroke:none;fill:black;font-family:sans-serif;font-size:13;text-anchor:middle;" transform="matrix(1 0 0 1 1746.56 322)">Medium</text>
  <text style="stroke:none;fill:black;font-family:sans-serif;font-size:13;text-anchor:middle;" transform="matrix(1 0 0 1 2043.27 322)">Semibold</text>
  <text style="stroke:none;fill:black;font-family:sans-serif;font-size:13;text-anchor:middle;" transform="matrix(1 0 0 1 2339.98 322)">Bold</text>
  <text style="stroke:none;fill:black;font-family:sans-serif;font-size:13;text-anchor:middle;" transform="matrix(1 0 0 1 2636.69 322)">Heavy</text>
  <text style="stroke:none;fill:black;font-family:sans-serif;font-size:13;text-anchor:middle;" transform="matrix(1 0 0 1 2933.4 322)">Black</text>
  <line style="fill:none;stroke:black;opacity:1;stroke-width:0.5;" x1="263" x2="3036" y1="1903" y2="1903"/>
  <g transform="matrix(1 0 0 1 263 1933)">
   <path d="M9.24805 0.830078Q10.8691 0.830078 12.2949 0.214844Q13.7207-0.400391 14.8096-1.49414Q15.8984-2.58789 16.5186-4.01367Q17.1387-5.43945 17.1387-7.05078Q17.1387-8.66211 16.5186-10.0879Q15.8984-11.5137 14.8047-12.6074Q13.7109-13.7012 12.2852-14.3164Q10.8594-14.9316 9.23828-14.9316Q7.62695-14.9316 6.20117-14.3164Q4.77539-13.7012 3.69141-12.6074Q2.60742-11.5137 1.9873-10.0879Q1.36719-8.66211 1.36719-7.05078Q1.36719-5.43945 1.9873-4.01367Q2.60742-2.58789 3.69629-1.49414Q4.78516-0.400391 6.21094 0.214844Q7.63672 0.830078 9.24805 0.830078ZM9.24805-0.654297Q7.91992-0.654297 6.7627-1.14746Q5.60547-1.64062 4.73145-2.51953Q3.85742-3.39844 3.36426-4.56055Q2.87109-5.72266 2.87109-7.05078Q2.87109-8.37891 3.35938-9.54102Q3.84766-10.7031 4.72168-11.582Q5.5957-12.4609 6.75293-12.9541Q7.91016-13.4473 9.23828-13.4473Q10.5762-13.4473 11.7334-12.9541Q12.8906-12.4609 13.7695-11.582Q14.6484-10.7031 15.1465-9.54102Q15.6445-8.37891 15.6445-7.05078Q15.6445-5.72266 15.1514-4.56055Q14.6582-3.39844 13.7842-2.51953Q12.9102-1.64062 11.748-1.14746Q10.5859-0.654297 9.24805-0.654297ZM5.6543-7.05078Q5.6543-6.72852 5.85938-6.52832Q6.06445-6.32812 6.40625-6.32812L8.51562-6.32812L8.51562-4.20898Q8.51562-3.88672 8.71094-3.67676Q8.90625-3.4668 9.23828-3.4668Q9.56055-3.4668 9.77051-3.67676Q9.98047-3.88672 9.98047-4.20898L9.98047-6.32812L12.0898-6.32812Q12.4219-6.32812 12.627-6.52832Q12.832-6.72852 12.832-7.05078Q12.832-7.38281 12.627-7.58789Q12.4219-7.79297 12.0898-7.79297L9.98047-7.79297L9.98047-9.90234Q9.98047-10.2344 9.77051-10.4443Q9.56055-10.6543 9.23828-10.6543Q8.90625-10.6543 8.71094-10.4443Q8.51562-10.2344 8.51562-9.90234L8.51562-7.79297L6.40625-7.79297Q6.06445-7.79297 5.85938-7.58789Q5.6543-7.38281 5.6543-7.05078Z"/>
  </g>
  <g transform="matrix(1 0 0 1 281.867 1933)">
   <path d="M11.709 2.91016Q13.75 2.91016 15.5518 2.12891Q17.3535 1.34766 18.7305-0.0292969Q20.1074-1.40625 20.8887-3.20801Q21.6699-5.00977 21.6699-7.05078Q21.6699-9.0918 20.8887-10.8936Q20.1074-12.6953 18.7305-14.0723Q17.3535-15.4492 15.5469-16.2305Q13.7402-17.0117 11.6992-17.0117Q9.6582-17.0117 7.85645-16.2305Q6.05469-15.4492 4.68262-14.0723Q3.31055-12.6953 2.5293-10.8936Q1.74805-9.0918 1.74805-7.05078Q1.74805-5.00977 2.5293-3.20801Q3.31055-1.40625 4.6875-0.0292969Q6.06445 1.34766 7.86621 2.12891Q9.66797 2.91016 11.709 2.91016ZM11.709 1.25Q9.98047 1.25 8.47656 0.605469Q6.97266-0.0390625 5.83496-1.17676Q4.69727-2.31445 4.05762-3.81836Q3.41797-5.32227 3.41797-7.05078Q3.41797-8.7793 4.05762-10.2832Q4.69727-11.7871 5.83008-12.9297Q6.96289-14.0723 8.4668-14.7119Q9.9707-15.3516 11.6992-15.3516Q13.4277-15.3516 14.9316-14.7119Q16.4355-14.0723 17.5781-12.9297Q18.7207-11.7871 19.3652-10.2832Q20.0098-8.7793 20.0098-7.05078Q20.0098-5.32227 19.3701-3.81836Q18.7305-2.31445 17.5928-1.17676Q16.4551-0.0390625 14.9463 0.605469Q13.4375 1.25 11.709 1.25ZM7.17773-7.05078Q7.17773-6.69922 7.41211-6.47461Q7.64648-6.25 8.01758-6.25L10.8887-6.25L10.8887-3.36914Q10.8887-2.99805 11.1133-2.76855Q11.3379-2.53906 11.6895-2.53906Q12.0605-2.53906 12.29-2.76855Q12.5195-2.99805 12.5195-3.36914L12.5195-6.25L15.4004-6.25Q15.7715-6.25 16.001-6.47461Q16.2305-6.69922 16.2305-7.05078Q16.2305-7.42188 16.001-7.65137Q15.7715-7.88086 15.4004-7.88086L12.5195-7.88086L12.5195-10.752Q12.5195-11.1328 12.29-11.3623Q12.0605-11.5918 11.6895-11.5918Q11.3379-11.5918 11.1133-11.3574Q10.8887-11.123 10.8887-10.752L10.8887-7.88086L8.01758-7.88086Q7.63672-7.88086 7.40723-7.65137Q7.17773-7.42188 7.17773-7.05078Z"/>
  </g>
  <g transform="matrix(1 0 0 1 305.646 1933)">
   <path d="M14.9707 5.66406Q17.0605 5.66406 18.96 5.01465Q20.8594 4.36523 22.4512 3.19336Q24.043 2.02148 25.2197 0.429688Q26.3965-1.16211 27.0459-3.06641Q27.6953-4.9707 27.6953-7.05078Q27.6953-9.14062 27.0459-11.04Q26.3965-12.9395 25.2197-14.5312Q24.043-16.123 22.4512-17.2998Q20.8594-18.4766 18.9551-19.126Q17.0508-19.7754 14.9609-19.7754Q12.8711-19.7754 10.9717-19.126Q9.07227-18.4766 7.48535-17.2998Q5.89844-16.123 4.72168-14.5312Q3.54492-12.9395 2.90039-11.04Q2.25586-9.14062 2.25586-7.05078Q2.25586-4.9707 2.90527-3.06641Q3.55469-1.16211 4.72656 0.429688Q5.89844 2.02148 7.49023 3.19336Q9.08203 4.36523 10.9814 5.01465Q12.8809 5.66406 14.9707 5.66406ZM14.9707 3.84766Q13.1641 3.84766 11.5283 3.2959Q9.89258 2.74414 8.53516 1.74805Q7.17773 0.751953 6.17676-0.610352Q5.17578-1.97266 4.62891-3.6084Q4.08203-5.24414 4.08203-7.05078Q4.08203-8.86719 4.62891-10.5029Q5.17578-12.1387 6.17188-13.501Q7.16797-14.8633 8.52539-15.8594Q9.88281-16.8555 11.5186-17.4023Q13.1543-17.9492 14.9609-17.9492Q16.7773-17.9492 18.4131-17.4023Q20.0488-16.8555 21.4111-15.8594Q22.7734-14.8633 23.7695-13.501Q24.7656-12.1387 25.3174-10.5029Q25.8691-8.86719 25.8691-7.05078Q25.8789-5.24414 25.332-3.6084Q24.7852-1.97266 23.7842-0.610352Q22.7832 0.751953 21.4209 1.74805Q20.0586 2.74414 18.4229 3.2959Q16.7871 3.84766 14.9707 3.84766ZM9.19922-7.05078Q9.19922-6.66992 9.45801-6.4209Q9.7168-6.17188 10.1172-6.17188L14.0625-6.17188L14.0625-2.2168Q14.0625-1.81641 14.3115-1.55762Q14.5605-1.29883 14.9512-1.29883Q15.3516-1.29883 15.6104-1.55273Q15.8691-1.80664 15.8691-2.2168L15.8691-6.17188L19.8242-6.17188Q20.2246-6.17188 20.4785-6.4209Q20.7324-6.66992 20.7324-7.05078Q20.7324-7.46094 20.4785-7.71484Q20.2246-7.96875 19.8242-7.96875L15.8691-7.96875L15.8691-11.9141Q15.8691-12.3242 15.6104-12.583Q15.3516-12.8418 14.9512-12.8418Q14.5605-12.8418 14.3115-12.583Q14.0625-12.3242 14.0625-11.9141L14.0625-7.96875L10.1172-7.96875Q9.70703-7.96875 9.45312-7.71484Q9.19922-7.46094 9.19922-7.05078Z"/>
  </g>
  <text style="stroke:none;fill:black;font-family:sans-serif;font-size:13;font-weight:bold;" transform="matrix(1 0 0 1 263 1953)">Design Variations</text>
  <text style="stroke:none;fill:black;font-family:sans-serif;font-size:13;" transform="matrix(1 0 0 1 263 1971)">Symbols are supported in up to nine weights and three scales.</text>
  <text style="stroke:none;fill:black;font-family:sans-serif;font-size:13;" transform="matrix(1 0 0 1 263 1989)">For optimal layout with text and other symbols, vertically align</text>
  <text style="stroke:none;fill:black;font-family:sans-serif;font-size:13;" transform="matrix(1 0 0 1 263 2007)">symbols with the adjacent text.</text>
  <line style="fill:none;stroke:#00AEEF;stroke-width:0.5;opacity:1.0;" x1="776" x2="776" y1="1919" y2="1933"/>
  <g transform="matrix(1 0 0 1 776 1933)">
   <path d="M3.31055 0.15625Q3.70117 0.15625 3.91602-0.00976562Q4.13086-0.175781 4.26758-0.585938L5.52734-4.0332L11.2891-4.0332L12.5488-0.585938Q12.6855-0.175781 12.9004-0.00976562Q13.1152 0.15625 13.4961 0.15625Q13.8867 0.15625 14.1162-0.0585938Q14.3457-0.273438 14.3457-0.644531Q14.3457-0.869141 14.2383-1.17188L9.6582-13.3691Q9.48242-13.8184 9.17969-14.043Q8.87695-14.2676 8.4082-14.2676Q7.5-14.2676 7.17773-13.3789L2.59766-1.16211Q2.49023-0.859375 2.49023-0.634766Q2.49023-0.263672 2.70996-0.0537109Q2.92969 0.15625 3.31055 0.15625ZM6.00586-5.51758L8.37891-12.0898L8.42773-12.0898L10.8008-5.51758Z"/>
  </g>
  <line style="fill:none;stroke:#00AEEF;stroke-width:0.5;opacity:1.0;" x1="793.197" x2="793.197" y1="1919" y2="1933"/>
  <text style="stroke:none;fill:black;font-family:sans-serif;font-size:13;font-weight:bold;" transform="matrix(1 0 0 1 776 1953)">Margins</text>
  <text style="stroke:none;fill:black;font-family:sans-serif;font-size:13;" transform="matrix(1 0 0 1 776 1971)">Leading and trailing margins on the left and right side of each symbol</text>
  <text style="stroke:none;fill:black;font-family:sans-serif;font-size:13;" transform="matrix(1 0 0 1 776 1989)">can be adjusted by modifying the x-location of the margin guidelines.</text>
  <text style="stroke:none;fill:black;font-family:sans-serif;font-size:13;" transform="matrix(1 0 0 1 776 2007)">Modifications are automatically applied proportionally to all</text>
  <text style="stroke:none;fill:black;font-family:sans-serif;font-size:13;" transform="matrix(1 0 0 1 776 2025)">scales and weights.</text>
  <g transform="matrix(1 0 0 1 1289 1933)">
   <path d="M2.8418 1.86523L4.54102 3.57422Q5.18555 4.22852 5.90332 4.17969Q6.62109 4.13086 7.31445 3.35938L18.0078-8.42773L17.041-9.4043L6.42578 2.27539Q6.16211 2.57812 5.89355 2.61719Q5.625 2.65625 5.27344 2.30469L4.10156 1.14258Q3.75 0.791016 3.79395 0.522461Q3.83789 0.253906 4.14062-0.0195312L15.6152-10.8203L14.6387-11.7871L3.04688-0.898438Q2.30469-0.214844 2.25098 0.498047Q2.19727 1.21094 2.8418 1.86523ZM9.25781-16.3281Q8.94531-16.0254 8.90625-15.6348Q8.86719-15.2441 9.04297-14.9512Q9.21875-14.6777 9.55566-14.541Q9.89258-14.4043 10.3809-14.5215Q11.4746-14.7754 12.5977-14.7314Q13.7207-14.6875 14.7949-13.9844L14.209-12.5293Q13.9551-11.9043 14.0674-11.4404Q14.1797-10.9766 14.5801-10.5664L16.875-8.25195Q17.2363-7.88086 17.5781-7.82227Q17.9199-7.76367 18.3398-7.8418L19.4043-8.03711L20.0684-7.36328L20.0293-6.80664Q20-6.43555 20.1221-6.12305Q20.2441-5.81055 20.6055-5.44922L21.3672-4.70703Q21.7285-4.3457 22.1533-4.33105Q22.5781-4.31641 22.9297-4.66797L25.8398-7.58789Q26.1914-7.93945 26.1816-8.35449Q26.1719-8.76953 25.8105-9.13086L25.0391-9.89258Q24.6875-10.2539 24.3799-10.3857Q24.0723-10.5176 23.7109-10.4883L23.1348-10.4395L22.4902-11.0742L22.7344-12.1973Q22.832-12.6172 22.6953-12.9834Q22.5586-13.3496 22.1191-13.7891L19.9219-15.9766Q18.6719-17.2168 17.2607-17.8369Q15.8496-18.457 14.4189-18.4814Q12.9883-18.5059 11.665-17.959Q10.3418-17.4121 9.25781-16.3281ZM10.752-15.957Q11.6602-16.6211 12.7002-16.9043Q13.7402-17.1875 14.8047-17.085Q15.8691-16.9824 16.8701-16.5137Q17.8711-16.0449 18.7012-15.2051L21.1328-12.793Q21.3086-12.6172 21.3525-12.4512Q21.3965-12.2852 21.3379-12.0312L21.0156-10.5469L22.5195-9.0625L23.5059-9.12109Q23.6914-9.13086 23.7891-9.09668Q23.8867-9.0625 24.0332-8.91602L24.6094-8.33984L22.168-5.89844L21.5918-6.47461Q21.4453-6.62109 21.4062-6.71875Q21.3672-6.81641 21.377-7.01172L21.4453-7.98828L19.9512-9.47266L18.4277-9.21875Q18.1836-9.16992 18.042-9.2041Q17.9004-9.23828 17.7148-9.41406L15.7129-11.416Q15.5176-11.5918 15.4932-11.7529Q15.4688-11.9141 15.5859-12.1875L16.4648-14.2773Q15.293-15.3711 13.8281-15.791Q12.3633-16.2109 10.8398-15.7617Q10.7227-15.7324 10.6885-15.8057Q10.6543-15.8789 10.752-15.957Z"/>
  </g>
  <text style="stroke:none;fill:black;font-family:sans-serif;font-size:13;font-weight:bold;" transform="matrix(1 0 0 1 1289 1953)">Exporting</text>
  <text style="stroke:none;fill:black;font-family:sans-serif;font-size:13;" transform="matrix(1 0 0 1 1289 1971)">Symbols should be outlined when exporting to ensure the</text>
  <text style="stroke:none;fill:black;font-family:sans-serif;font-size:13;" transform="matrix(1 0 0 1 1289 1989)">design is preserved when submitting to Xcode.</text>
  <text id="template-version" style="stroke:none;fill:black;font-family:sans-serif;font-size:13;text-anchor:end;" transform="matrix(1 0 0 1 3036 1933)">Template v.3.0</text>
  <text style="stroke:none;fill:black;font-family:sans-serif;font-size:13;text-anchor:end;" transform="matrix(1 0 0 1 3036 1951)">Requires Xcode 13 or greater</text>
  <text id="descriptive-name" style="stroke:none;fill:black;font-family:sans-serif;font-size:13;text-anchor:end;" transform="matrix(1 0 0 1 3036 1969)">Generated from moon.zzz.fill</text>
  <text style="stroke:none;fill:black;font-family:sans-serif;font-size:13;text-anchor:end;" transform="matrix(1 0 0 1 3036 1987)">Typeset at 100 points</text>
  <text style="stroke:none;fill:black;font-family:sans-serif;font-size:13;" transform="matrix(1 0 0 1 263 726)">Small</text>
  <text style="stroke:none;fill:black;font-family:sans-serif;font-size:13;" transform="matrix(1 0 0 1 263 1156)">Medium</text>
  <text style="stroke:none;fill:black;font-family:sans-serif;font-size:13;" transform="matrix(1 0 0 1 263 1586)">Large</text>
 </g>
 <g id="Guides">
  <g id="H-reference" style="fill:#27AAE1;stroke:none;" transform="matrix(1 0 0 1 339 696)">
   <path d="M0.993347 0L3.6377 0L29.3282-67.1326L30.0301-67.1326L30.0301-70.459L28.1227-70.459ZM11.6882-24.4797L46.9818-24.4797L46.2311-26.7288L12.4382-26.7288ZM55.1193 0L57.7637 0L30.6381-70.459L29.4327-70.459L29.4327-67.1326Z"/>
  </g>
  <line id="Baseline-S" style="fill:none;stroke:#27AAE1;opacity:1;stroke-width:0.5;" x1="263" x2="3036" y1="696" y2="696"/>
  <line id="Capline-S" style="fill:none;stroke:#27AAE1;opacity:1;stroke-width:0.5;" x1="263" x2="3036" y1="625.541" y2="625.541"/>
  <g id="H-reference" style="fill:#27AAE1;stroke:none;" transform="matrix(1 0 0 1 339 1126)">
   <path d="M0.993347 0L3.6377 0L29.3282-67.1326L30.0301-67.1326L30.0301-70.459L28.1227-70.459ZM11.6882-24.4797L46.9818-24.4797L46.2311-26.7288L12.4382-26.7288ZM55.1193 0L57.7637 0L30.6381-70.459L29.4327-70.459L29.4327-67.1326Z"/>
  </g>
  <line id="Baseline-M" style="fill:none;stroke:#27AAE1;opacity:1;stroke-width:0.5;" x1="263" x2="3036" y1="1126" y2="1126"/>
  <line id="Capline-M" style="fill:none;stroke:#27AAE1;opacity:1;stroke-width:0.5;" x1="263" x2="3036" y1="1055.54" y2="1055.54"/>
  <g id="H-reference" style="fill:#27AAE1;stroke:none;" transform="matrix(1 0 0 1 339 1556)">
   <path d="M0.993347 0L3.6377 0L29.3282-67.1326L30.0301-67.1326L30.0301-70.459L28.1227-70.459ZM11.6882-24.4797L46.9818-24.4797L46.2311-26.7288L12.4382-26.7288ZM55.1193 0L57.7637 0L30.6381-70.459L29.4327-70.459L29.4327-67.1326Z"/>
  </g>
  <line id="Baseline-L" style="fill:none;stroke:#27AAE1;opacity:1;stroke-width:0.5;" x1="263" x2="3036" y1="1556" y2="1556"/>
  <line id="Capline-L" style="fill:none;stroke:#27AAE1;opacity:1;stroke-width:0.5;" x1="263" x2="3036" y1="1485.54" y2="1485.54"/>
  <line id="left-margin-Ultralight-S" style="fill:none;stroke:#00AEEF;stroke-width:0.5;opacity:1.0;" x1="518.4" x2="518.4" y1="600.785" y2="720.121"/>
  <line id="right-margin-Ultralight-S" style="fill:none;stroke:#00AEEF;stroke-width:0.5;opacity:1.0;" x1="601.022" x2="601.022" y1="600.785" y2="720.121"/>
  <line id="left-margin-Thin-S" style="fill:none;stroke:#00AEEF;stroke-width:0.5;opacity:1.0;" x1="814.445" x2="814.445" y1="600.785" y2="720.121"/>
  <line id="right-margin-Thin-S" style="fill:none;stroke:#00AEEF;stroke-width:0.5;opacity:1.0;" x1="898.4" x2="898.4" y1="600.785" y2="720.121"/>
  <line id="left-margin-Light-S" style="fill:none;stroke:#00AEEF;stroke-width:0.5;opacity:1.0;" x1="1109.85" x2="1109.85" y1="600.785" y2="720.121"/>
  <line id="right-margin-Light-S" style="fill:none;stroke:#00AEEF;stroke-width:0.5;opacity:1.0;" x1="1196.41" x2="1196.41" y1="600.785" y2="720.121"/>
  <line id="left-margin-Regular-S" style="fill:none;stroke:#00AEEF;stroke-width:0.5;opacity:1.0;" x1="1405.58" x2="1405.58" y1="600.785" y2="720.121"/>
  <line id="right-margin-Regular-S" style="fill:none;stroke:#00AEEF;stroke-width:0.5;opacity:1.0;" x1="1494.11" x2="1494.11" y1="600.785" y2="720.121"/>
  <line id="left-margin-Medium-S" style="fill:none;stroke:#00AEEF;stroke-width:0.5;opacity:1.0;" x1="1701.22" x2="1701.22" y1="600.785" y2="720.121"/>
  <line id="right-margin-Medium-S" style="fill:none;stroke:#00AEEF;stroke-width:0.5;opacity:1.0;" x1="1791.89" x2="1791.89" y1="600.785" y2="720.121"/>
  <line id="left-margin-Semibold-S" style="fill:none;stroke:#00AEEF;stroke-width:0.5;opacity:1.0;" x1="1997.1" x2="1997.1" y1="600.785" y2="720.121"/>
  <line id="right-margin-Semibold-S" style="fill:none;stroke:#00AEEF;stroke-width:0.5;opacity:1.0;" x1="2089.43" x2="2089.43" y1="600.785" y2="720.121"/>
  <line id="left-margin-Bold-S" style="fill:none;stroke:#00AEEF;stroke-width:0.5;opacity:1.0;" x1="2292.72" x2="2292.72" y1="600.785" y2="720.121"/>
  <line id="right-margin-Bold-S" style="fill:none;stroke:#00AEEF;stroke-width:0.5;opacity:1.0;" x1="2387.23" x2="2387.23" y1="600.785" y2="720.121"/>
  <line id="left-margin-Heavy-S" style="fill:none;stroke:#00AEEF;stroke-width:0.5;opacity:1.0;" x1="2587.86" x2="2587.86" y1="600.785" y2="720.121"/>
  <line id="right-margin-Heavy-S" style="fill:none;stroke:#00AEEF;stroke-width:0.5;opacity:1.0;" x1="2685.52" x2="2685.52" y1="600.785" y2="720.121"/>
  <line id="left-margin-Black-S" style="fill:none;stroke:#00AEEF;stroke-width:0.5;opacity:1.0;" x1="2883.16" x2="2883.16" y1="600.785" y2="720.121"/>
  <line id="right-margin-Black-S" style="fill:none;stroke:#00AEEF;stroke-width:0.5;opacity:1.0;" x1="2983.64" x2="2983.64" y1="600.785" y2="720.121"/>
  <line id="left-margin-Ultralight-M" style="fill:none;stroke:#00AEEF;stroke-width:0.5;opacity:1.0;" x1="507.238" x2="507.238" y1="1030.79" y2="1150.12"/>
  <line id="right-margin-Ultralight-M" style="fill:none;stroke:#00AEEF;stroke-width:0.5;opacity:1.0;" x1="612.184" x2="612.184" y1="1030.79" y2="1150.12"/>
  <line id="left-margin-Thin-M" style="fill:none;stroke:#00AEEF;stroke-width:0.5;opacity:1.0;" x1="803.196" x2="803.196" y1="1030.79" y2="1150.12"/>
  <line id="right-margin-Thin-M" style="fill:none;stroke:#00AEEF;stroke-width:0.5;opacity:1.0;" x1="909.649" x2="909.649" y1="1030.79" y2="1150.12"/>
  <line id="left-margin-Light-M" style="fill:none;stroke:#00AEEF;stroke-width:0.5;opacity:1.0;" x1="1098.44" x2="1098.44" y1="1030.79" y2="1150.12"/>
  <line id="right-margin-Light-M" style="fill:none;stroke:#00AEEF;stroke-width:0.5;opacity:1.0;" x1="1207.83" x2="1207.83" y1="1030.79" y2="1150.12"/>
  <line id="left-margin-Regular-M" style="fill:none;stroke:#00AEEF;stroke-width:0.5;opacity:1.0;" x1="1394.03" x2="1394.03" y1="1030.79" y2="1150.12"/>
  <line id="right-margin-Regular-M" style="fill:none;stroke:#00AEEF;stroke-width:0.5;opacity:1.0;" x1="1505.65" x2="1505.65" y1="1030.79" y2="1150.12"/>
  <line id="left-margin-Medium-M" style="fill:none;stroke:#00AEEF;stroke-width:0.5;opacity:1.0;" x1="1689.36" x2="1689.36" y1="1030.79" y2="1150.12"/>
  <line id="right-margin-Medium-M" style="fill:none;stroke:#00AEEF;stroke-width:0.5;opacity:1.0;" x1="1803.75" x2="1803.75" y1="1030.79" y2="1150.12"/>
  <line id="left-margin-Semibold-M" style="fill:none;stroke:#00AEEF;stroke-width:0.5;opacity:1.0;" x1="1985.01" x2="1985.01" y1="1030.79" y2="1150.12"/>
  <line id="right-margin-Semibold-M" style="fill:none;stroke:#00AEEF;stroke-width:0.5;opacity:1.0;" x1="2101.52" x2="2101.52" y1="1030.79" y2="1150.12"/>
  <line id="left-margin-Bold-M" style="fill:none;stroke:#00AEEF;stroke-width:0.5;opacity:1.0;" x1="2280.32" x2="2280.32" y1="1030.79" y2="1150.12"/>
  <line id="right-margin-Bold-M" style="fill:none;stroke:#00AEEF;stroke-width:0.5;opacity:1.0;" x1="2399.63" x2="2399.63" y1="1030.79" y2="1150.12"/>
  <line id="left-margin-Heavy-M" style="fill:none;stroke:#00AEEF;stroke-width:0.5;opacity:1.0;" x1="2575" x2="2575" y1="1030.79" y2="1150.12"/>
  <line id="right-margin-Heavy-M" style="fill:none;stroke:#00AEEF;stroke-width:0.5;opacity:1.0;" x1="2698.37" x2="2698.37" y1="1030.79" y2="1150.12"/>
  <line id="left-margin-Black-M" style="fill:none;stroke:#00AEEF;stroke-width:0.5;opacity:1.0;" x1="2869.9" x2="2869.9" y1="1030.79" y2="1150.12"/>
  <line id="right-margin-Black-M" style="fill:none;stroke:#00AEEF;stroke-width:0.5;opacity:1.0;" x1="2996.9" x2="2996.9" y1="1030.79" y2="1150.12"/>
  <line id="left-margin-Ultralight-L" style="fill:none;stroke:#00AEEF;stroke-width:0.5;opacity:1.0;" x1="492.318" x2="492.318" y1="1460.79" y2="1580.12"/>
  <line id="right-margin-Ultralight-L" style="fill:none;stroke:#00AEEF;stroke-width:0.5;opacity:1.0;" x1="627.104" x2="627.104" y1="1460.79" y2="1580.12"/>
  <line id="left-margin-Thin-L" style="fill:none;stroke:#00AEEF;stroke-width:0.5;opacity:1.0;" x1="788.194" x2="788.194" y1="1460.79" y2="1580.12"/>
  <line id="right-margin-Thin-L" style="fill:none;stroke:#00AEEF;stroke-width:0.5;opacity:1.0;" x1="924.651" x2="924.651" y1="1460.79" y2="1580.12"/>
  <line id="left-margin-Light-L" style="fill:none;stroke:#00AEEF;stroke-width:0.5;opacity:1.0;" x1="1083.27" x2="1083.27" y1="1460.79" y2="1580.12"/>
  <line id="right-margin-Light-L" style="fill:none;stroke:#00AEEF;stroke-width:0.5;opacity:1.0;" x1="1222.99" x2="1222.99" y1="1460.79" y2="1580.12"/>
  <line id="left-margin-Regular-L" style="fill:none;stroke:#00AEEF;stroke-width:0.5;opacity:1.0;" x1="1378.75" x2="1378.75" y1="1460.79" y2="1580.12"/>
  <line id="right-margin-Regular-L" style="fill:none;stroke:#00AEEF;stroke-width:0.5;opacity:1.0;" x1="1520.94" x2="1520.94" y1="1460.79" y2="1580.12"/>
  <line id="left-margin-Medium-L" style="fill:none;stroke:#00AEEF;stroke-width:0.5;opacity:1.0;" x1="1673.84" x2="1673.84" y1="1460.79" y2="1580.12"/>
  <line id="right-margin-Medium-L" style="fill:none;stroke:#00AEEF;stroke-width:0.5;opacity:1.0;" x1="1819.28" x2="1819.28" y1="1460.79" y2="1580.12"/>
  <line id="left-margin-Semibold-L" style="fill:none;stroke:#00AEEF;stroke-width:0.5;opacity:1.0;" x1="1969.3" x2="1969.3" y1="1460.79" y2="1580.12"/>
  <line id="right-margin-Semibold-L" style="fill:none;stroke:#00AEEF;stroke-width:0.5;opacity:1.0;" x1="2117.23" x2="2117.23" y1="1460.79" y2="1580.12"/>
  <line id="left-margin-Bold-L" style="fill:none;stroke:#00AEEF;stroke-width:0.5;opacity:1.0;" x1="2264.37" x2="2264.37" y1="1460.79" y2="1580.12"/>
  <line id="right-margin-Bold-L" style="fill:none;stroke:#00AEEF;stroke-width:0.5;opacity:1.0;" x1="2415.59" x2="2415.59" y1="1460.79" y2="1580.12"/>
  <line id="left-margin-Heavy-L" style="fill:none;stroke:#00AEEF;stroke-width:0.5;opacity:1.0;" x1="2558.69" x2="2558.69" y1="1460.79" y2="1580.12"/>
  <line id="right-margin-Heavy-L" style="fill:none;stroke:#00AEEF;stroke-width:0.5;opacity:1.0;" x1="2714.68" x2="2714.68" y1="1460.79" y2="1580.12"/>
  <line id="left-margin-Black-L" style="fill:none;stroke:#00AEEF;stroke-width:0.5;opacity:1.0;" x1="2853.27" x2="2853.27" y1="1460.79" y2="1580.12"/>
  <line id="right-margin-Black-L" style="fill:none;stroke:#00AEEF;stroke-width:0.5;opacity:1.0;" x1="3013.53" x2="3013.53" y1="1460.79" y2="1580.12"/>
 </g>
 <g id="Symbols">
  <g id="Black-L" transform="matrix(1 0 0 1 2853.27 1556)">
   <path class="hierarchical-0:primary SFSymbolsPreview212121" d="M74.2188 39.7949Q87.0117 39.7949 98.2666 35.0586Q109.521 30.3223 118.091 21.8262Q126.66 13.3301 131.348 1.95312Q134.082-4.6875 130.859-7.61719Q129.395-8.98438 127.1-9.10645Q124.805-9.22852 122.266-8.05664Q118.262-6.25 112.988-5.05371Q107.715-3.85742 102.197-3.85742Q91.9922-3.85742 83.5449-7.08008Q75.0977-10.3027 68.9697-16.2109Q62.8418-22.1191 59.5215-30.249Q56.2012-38.3789 56.2012-48.2422Q56.2012-54.1016 57.4951-60.1807Q58.7891-66.2598 60.8887-70.752Q63.5742-76.6113 60.791-79.7363Q58.0078-83.0078 51.3672-80.4199Q42.627-76.9531 35.4004-71.0938Q28.1738-65.2344 22.9004-57.5439Q17.627-49.8535 14.7705-40.8936Q11.9141-31.9336 11.9141-22.3145Q11.9141-8.88672 16.5527 2.46582Q21.1914 13.8184 29.5898 22.168Q37.9883 30.5176 49.3652 35.1562Q60.7422 39.7949 74.2188 39.7949Z"/>
   <path class="hierarchical-1:secondary SFSymbolsPreview4D4D4D" d="M116.895-89.9902L103.906-89.9902L103.906-90.2832L119.141-108.838Q120.41-110.4 120.923-111.572Q121.436-112.744 121.436-114.307Q121.436-116.602 119.897-118.066Q118.359-119.531 115.918-119.531L94.1895-119.531Q91.6016-119.531 90.1123-118.188Q88.623-116.846 88.623-114.551Q88.623-112.256 90.1611-110.889Q91.6992-109.521 94.1895-109.521L106.738-109.521L106.738-109.229L91.6504-90.8203Q90.3809-89.2578 89.8682-88.0127Q89.3555-86.7676 89.3555-85.2539Q89.3555-82.959 90.8691-81.543Q92.3828-80.127 94.8242-80.127L116.895-80.127Q119.434-80.127 120.972-81.4453Q122.51-82.7637 122.51-85.0586Q122.51-87.3535 120.996-88.6719Q119.482-89.9902 116.895-89.9902ZM149.17-63.916L141.699-63.916L141.699-64.209L151.172-75.1465Q152.393-76.5137 152.905-77.71Q153.418-78.9062 153.418-80.4199Q153.418-82.666 151.953-84.0088Q150.488-85.3516 148.193-85.3516L133.008-85.3516Q130.566-85.3516 129.126-84.1797Q127.686-83.0078 127.686-80.9082Q127.686-78.8086 129.15-77.6123Q130.615-76.416 133.008-76.416L140.039-76.416L140.039-76.123L130.957-65.5762Q129.688-64.1602 129.077-62.8174Q128.467-61.4746 128.467-59.9609Q128.467-57.7637 129.883-56.4209Q131.299-55.0781 133.594-55.0781L149.17-55.0781Q151.562-55.0781 153.003-56.25Q154.443-57.4219 154.443-59.4727Q154.443-61.5723 153.027-62.7441Q151.611-63.916 149.17-63.916ZM118.848-41.2598L112.354-41.2598L112.354-41.5527L120.654-51.0254Q121.777-52.2949 122.217-53.3691Q122.656-54.4434 122.656-55.8105Q122.656-57.8125 121.338-59.0332Q120.02-60.2539 117.969-60.2539L103.418-60.2539Q101.221-60.2539 99.9512-59.1309Q98.6816-58.0078 98.6816-56.0059Q98.6816-54.1016 100-52.9541Q101.318-51.8066 103.418-51.8066L109.619-51.8066L109.619-51.5137L101.66-42.4316Q100.391-40.9668 99.8779-39.8193Q99.3652-38.6719 99.3164-37.2559Q99.3164-35.3516 100.586-34.1064Q101.855-32.8613 103.955-32.8613L118.848-32.8613Q120.996-32.8613 122.314-34.0088Q123.633-35.1562 123.633-37.0605Q123.633-39.0625 122.363-40.1611Q121.094-41.2598 118.848-41.2598Z"/>
  </g>
  <g id="Heavy-L" transform="matrix(1 0 0 1 2558.69 1556)">
   <path class="hierarchical-0:primary SFSymbolsPreview212121" d="M72.3633 37.8815Q84.7992 37.8815 95.6795 33.4221Q106.56 28.9627 114.824 20.8755Q123.087 12.7884 127.66 1.82648Q130.071-4.00772 127.229-6.63757Q125.961-7.84378 123.936-7.95975Q121.912-8.07571 119.65-7.05414Q115.668-5.31616 110.585-4.22363Q105.502-3.1311 100.042-3.1311Q89.6988-3.1311 81.1882-6.34804Q72.6776-9.56497 66.5325-15.5079Q60.3874-21.4508 57.0728-29.6902Q53.7582-37.9295 53.7582-47.9889Q53.7582-53.698 54.9599-59.5985Q56.1615-65.4991 58.1802-69.7609Q60.601-74.9863 58.1055-77.8Q55.5992-80.7373 49.6727-78.4035Q41.3361-75.0397 34.4494-69.3821Q27.5627-63.7245 22.5487-56.2878Q17.5346-48.851 14.8224-40.1619Q12.1101-31.4728 12.1101-22.1069Q12.1101-9.17511 16.5703 1.77994Q21.0304 12.735 29.129 20.8195Q37.2276 28.904 48.2414 33.3927Q59.2552 37.8815 72.3633 37.8815Z"/>
   <path class="hierarchical-1:secondary SFSymbolsPreview4D4D4D" d="M113.206-88.4575L99.8497-88.4575L99.8497-88.7505L114.98-107.513Q116.158-108.983 116.647-110.062Q117.137-111.142 117.137-112.532Q117.137-114.597 115.737-115.9Q114.337-117.204 112.138-117.204L90.9279-117.204Q88.6513-117.204 87.3119-115.987Q85.9726-114.771 85.9726-112.718Q85.9726-110.654 87.3493-109.425Q88.726-108.196 90.9279-108.196L103.765-108.196L103.765-107.892L88.7115-89.2647Q87.5343-87.7945 87.0502-86.6646Q86.5662-85.5347 86.5662-84.1591Q86.5662-82.106 87.936-80.8342Q89.3059-79.5624 91.5054-79.5624L113.206-79.5624Q115.446-79.5624 116.817-80.7541Q118.188-81.9458 118.188-84.0096Q118.188-86.0626 116.835-87.2601Q115.483-88.4575 113.206-88.4575ZM144.629-62.9364L136.398-62.9364L136.398-63.2179L146.217-74.939Q147.345-76.2367 147.829-77.3296Q148.312-78.4225 148.312-79.7745Q148.312-81.7902 146.98-82.9887Q145.648-84.1873 143.572-84.1873L128.375-84.1873Q126.221-84.1873 124.931-83.1135Q123.64-82.0396 123.64-80.159Q123.64-78.244 124.95-77.1515Q126.259-76.059 128.375-76.059L136.052-76.059L136.052-75.766L126.543-64.3661Q125.378-63.031 124.831-61.8263Q124.284-60.6216 124.284-59.2583Q124.284-57.2914 125.567-56.081Q126.85-54.8706 128.915-54.8706L144.629-54.8706Q146.757-54.8706 148.042-55.9444Q149.326-57.0183 149.326-58.8852Q149.326-60.7773 148.06-61.8568Q146.794-62.9364 144.629-62.9364ZM115.044-40.6609L107.963-40.6609L107.963-40.9538L116.471-51.0368Q117.513-52.2606 117.941-53.2482Q118.369-54.2358 118.369-55.4649Q118.369-57.2823 117.155-58.382Q115.94-59.4818 114.073-59.4818L99.8222-59.4818Q97.8668-59.4818 96.7125-58.4511Q95.5582-57.4203 95.5582-55.6137Q95.5582-53.8712 96.7499-52.8275Q97.9416-51.7838 99.8222-51.7838L106.461-51.7838L106.461-51.4908L98.2262-41.7168Q97.0718-40.3557 96.5935-39.312Q96.1151-38.2683 96.0777-36.9789Q96.0777-35.2478 97.2435-34.1236Q98.4093-32.9994 100.314-32.9994L115.044-32.9994Q116.962-32.9994 118.143-34.0488Q119.323-35.0983 119.323-36.8416Q119.323-38.636 118.18-39.6484Q117.037-40.6609 115.044-40.6609Z"/>
  </g>
  <g id="Bold-L" transform="matrix(1 0 0 1 2264.37 1556)">
   <path class="hierarchical-0:primary SFSymbolsPreview212121" d="M70.2881 35.7422Q82.3242 35.7422 92.7856 31.5918Q103.247 27.4414 111.169 19.812Q119.092 12.1826 123.535 1.68457Q125.586-3.24707 123.169-5.54199Q122.119-6.56738 120.398-6.67725Q118.677-6.78711 116.724-5.93262Q112.769-4.27246 107.898-3.2959Q103.027-2.31934 97.6318-2.31934Q87.1338-2.31934 78.5522-5.52979Q69.9707-8.74023 63.8062-14.7217Q57.6416-20.7031 54.3335-29.0649Q51.0254-37.4268 51.0254-47.7051Q51.0254-53.2471 52.124-58.9478Q53.2227-64.6484 55.1514-68.6523Q57.2754-73.1689 55.1025-75.6348Q52.9053-78.1982 47.7783-76.1475Q39.8926-72.9004 33.3862-67.4683Q26.8799-62.0361 22.1558-54.8828Q17.4316-47.7295 14.8804-39.3433Q12.3291-30.957 12.3291-21.875Q12.3291-9.49707 16.5894 1.01318Q20.8496 11.5234 28.6133 19.3115Q36.377 27.0996 46.9849 31.4209Q57.5928 35.7422 70.2881 35.7422Z"/>
   <path class="hierarchical-1:secondary SFSymbolsPreview4D4D4D" d="M109.082-86.7432L95.3125-86.7432L95.3125-87.0361L110.327-106.03Q111.401-107.397 111.865-108.374Q112.329-109.351 112.329-110.547Q112.329-112.354 111.084-113.477Q109.839-114.6 107.91-114.6L87.2803-114.6Q85.3516-114.6 84.1797-113.525Q83.0078-112.451 83.0078-110.669Q83.0078-108.862 84.2041-107.788Q85.4004-106.714 87.2803-106.714L100.439-106.714L100.439-106.396L85.4248-87.5244Q84.3506-86.1572 83.8989-85.1562Q83.4473-84.1553 83.4473-82.9346Q83.4473-81.1523 84.6558-80.0415Q85.8643-78.9307 87.793-78.9307L109.082-78.9307Q110.986-78.9307 112.17-79.9805Q113.354-81.0303 113.354-82.8369Q113.354-84.6191 112.183-85.6812Q111.011-86.7432 109.082-86.7432ZM139.551-61.8408L130.469-61.8408L130.469-62.1094L140.674-74.707Q141.699-75.9277 142.151-76.9043Q142.603-77.8809 142.603-79.0527Q142.603-80.8105 141.418-81.8481Q140.234-82.8857 138.403-82.8857L123.193-82.8857Q121.362-82.8857 120.239-81.9214Q119.116-80.957 119.116-79.3213Q119.116-77.6123 120.251-76.6357Q121.387-75.6592 123.193-75.6592L131.592-75.6592L131.592-75.3662L121.606-63.0127Q120.557-61.7676 120.081-60.7178Q119.604-59.668 119.604-58.4717Q119.604-56.7627 120.74-55.7007Q121.875-54.6387 123.682-54.6387L139.551-54.6387Q141.382-54.6387 142.493-55.603Q143.604-56.5674 143.604-58.2275Q143.604-59.8877 142.505-60.8643Q141.406-61.8408 139.551-61.8408ZM110.791-39.9902L103.052-39.9902L103.052-40.2832L111.792-51.0498Q112.744-52.2217 113.159-53.1128Q113.574-54.0039 113.574-55.0781Q113.574-56.6895 112.476-57.6538Q111.377-58.6182 109.717-58.6182L95.8008-58.6182Q94.1162-58.6182 93.0908-57.6904Q92.0654-56.7627 92.0654-55.1758Q92.0654-53.6133 93.1152-52.6855Q94.165-51.7578 95.8008-51.7578L102.93-51.7578L102.93-51.4648L94.3848-40.918Q93.3594-39.6729 92.9199-38.7451Q92.4805-37.8174 92.4561-36.6699Q92.4561-35.1318 93.5059-34.1431Q94.5557-33.1543 96.2402-33.1543L110.791-33.1543Q112.451-33.1543 113.477-34.0942Q114.502-35.0342 114.502-36.5967Q114.502-38.1592 113.501-39.0747Q112.5-39.9902 110.791-39.9902Z"/>
  </g>
  <g id="Semibold-L" transform="matrix(1 0 0 1 1969.3 1556)">
   <path class="hierarchical-0:primary SFSymbolsPreview212121" d="M68.8576 34.2667Q80.6183 34.2667 90.7906 30.3295Q100.963 26.3924 108.65 19.0788Q116.337 11.7653 120.692 1.58691Q122.493-2.72293 120.37-4.78668Q119.471-5.68771 117.958-5.793Q116.446-5.89828 114.706-5.15976Q110.769-3.55225 106.045-2.65579Q101.321-1.75934 95.9702-1.75934Q85.3653-1.75934 76.7349-4.96559Q68.1046-8.17184 61.9267-14.1796Q55.7487-20.1874 52.4452-28.6339Q49.1417-37.0804 49.1417-47.5098Q49.1417-52.9358 50.169-58.4988Q51.1963-64.0617 53.0632-67.8879Q54.9828-71.9162 53.0319-74.1417Q51.0475-76.4473 46.4722-74.5926Q38.8969-71.4249 32.653-66.1484Q26.4091-60.8719 21.8849-53.9143Q17.3607-46.9566 14.9204-38.7791Q12.4802-30.6015 12.4802-21.7148Q12.4802-9.71909 16.6027 0.484467Q20.7253 10.688 28.2578 18.2716Q35.7903 25.8553 46.1182 30.061Q56.4461 34.2667 68.8576 34.2667Z"/>
   <path class="hierarchical-1:secondary SFSymbolsPreview4D4D4D" d="M106.239-85.5614L92.1844-85.5614L92.1844-85.8543L107.119-105.008Q108.122-106.304 108.568-107.21Q109.014-108.115 109.014-109.178Q109.014-110.807 107.876-111.806Q106.738-112.804 104.995-112.804L84.7649-112.804Q83.0765-112.804 82.0202-111.828Q80.9639-110.851 80.9639-109.256Q80.9639-107.627 82.0358-106.659Q83.1078-105.692 84.7649-105.692L98.1468-105.692L98.1468-105.366L83.1589-86.3243Q82.1556-85.0288 81.7261-84.1167Q81.2965-83.2047 81.2965-82.09Q81.2965-80.4947 82.394-79.4949Q83.4915-78.495 85.2333-78.495L106.239-78.495Q107.912-78.495 108.967-79.4472Q110.022-80.3993 110.022-82.0282Q110.022-83.6235 108.974-84.5924Q107.927-85.5614 106.239-85.5614ZM136.05-61.0855L126.381-61.0855L126.381-61.3449L136.852-74.5468Q137.807-75.7141 138.236-76.6109Q138.666-77.5078 138.666-78.5553Q138.666-80.1353 137.584-81.0619Q136.502-81.9885 134.84-81.9885L119.621-81.9885Q118.012-81.9885 117.004-81.0997Q115.997-80.2109 115.997-78.7437Q115.997-77.1767 117.012-76.2802Q118.027-75.3838 119.621-75.3838L128.517-75.3838L128.517-75.0908L118.203-62.0796Q117.233-60.8963 116.806-59.9533Q116.379-59.0103 116.379-57.9292Q116.379-56.398 117.412-55.4382Q118.445-54.4785 120.074-54.4785L136.05-54.4785Q137.676-54.4785 138.667-55.3673Q139.658-56.2561 139.658-57.7744Q139.658-59.2743 138.675-60.1799Q137.691-61.0855 136.05-61.0855ZM107.858-39.5279L99.6658-39.5279L99.6658-39.8209L108.566-51.059Q109.456-52.195 109.862-53.0193Q110.268-53.8437 110.268-54.8119Q110.268-56.2805 109.249-57.1518Q108.231-58.0231 106.713-58.0231L93.0283-58.0231Q91.5298-58.0231 90.5933-57.1663Q89.6568-56.3095 89.6568-54.8737Q89.6568-53.4355 90.609-52.5879Q91.5611-51.7403 93.0283-51.7403L100.494-51.7403L100.494-51.4473L91.7366-40.3671Q90.7997-39.2021 90.387-38.3541Q89.9742-37.5061 89.959-36.4563Q89.959-35.0517 90.9286-34.1564Q91.8983-33.2611 93.4319-33.2611L107.858-33.2611Q109.341-33.2611 110.259-34.1255Q111.178-34.9899 111.178-36.4281Q111.178-37.8304 110.275-38.6791Q109.372-39.5279 107.858-39.5279Z"/>
  </g>
  <g id="Medium-L" transform="matrix(1 0 0 1 1673.84 1556)">
   <path class="hierarchical-0:primary SFSymbolsPreview212121" d="M67.7727 33.1482Q79.3243 33.1482 89.278 29.3728Q99.2317 25.5974 106.74 18.5226Q114.248 11.4479 118.535 1.51291Q120.148-2.32544 118.247-4.21371Q117.463-5.02014 116.109-5.12238Q114.754-5.22461 113.177-4.57306Q109.253-3.00674 104.64-2.17094Q100.027-1.33514 94.7098-1.33514Q84.024-1.33514 75.3567-4.53758Q66.6893-7.74002 60.5015-13.7684Q54.3137-19.7968 51.0132-28.307Q47.7127-36.8172 47.7127-47.361Q47.7127-52.7 48.6862-58.1585Q49.6597-63.6169 51.4793-67.3088Q53.244-70.9656 51.4618-73.0095Q49.6399-75.1198 45.4811-73.4131Q38.1424-70.3064 32.0972-65.1478Q26.0521-59.9892 21.6793-53.1796Q17.3065-46.3699 14.9506-38.3511Q12.5946-30.3322 12.5946-21.5935Q12.5946-9.8877 16.6126 0.0835419Q20.6306 10.0548 27.9881 17.4835Q35.3455 24.9123 45.4613 29.0302Q55.5771 33.1482 67.7727 33.1482Z"/>
   <path class="hierarchical-1:secondary SFSymbolsPreview4D4D4D" d="M104.082-84.6649L89.8125-84.6649L89.8125-84.9579L104.687-104.234Q105.636-105.476 106.068-106.327Q106.501-107.178 106.501-108.141Q106.501-109.634 105.443-110.539Q104.385-111.443 102.785-111.443L82.8583-111.443Q81.3515-111.443 80.3825-110.541Q79.4136-109.639 79.4136-108.185Q79.4136-106.69 80.3913-105.804Q81.369-104.917 82.8583-104.917L96.4081-104.917L96.4081-104.584L81.44-85.4149Q80.4909-84.1728 80.0785-83.3282Q79.6661-82.4837 79.6661-81.4499Q79.6661-79.9957 80.6793-79.0802Q81.6925-78.1647 83.2932-78.1647L104.082-78.1647Q105.58-78.1647 106.538-79.0428Q107.495-79.921 107.495-81.4148Q107.495-82.869 106.542-83.7669Q105.589-84.6649 104.082-84.6649ZM133.395-60.5125L123.281-60.5125L123.281-60.7658L133.955-74.4255Q134.856-75.5524 135.268-76.3885Q135.68-77.2247 135.68-78.1776Q135.68-79.6227 134.676-80.4649Q133.672-81.3072 132.137-81.3072L116.912-81.3072Q115.472-81.3072 114.552-80.476Q113.631-79.6448 113.631-78.3058Q113.631-76.8463 114.556-76.0105Q115.48-75.1747 116.912-75.1747L126.186-75.1747L126.186-74.8817L115.622-61.3724Q114.713-60.2364 114.323-59.3739Q113.933-58.5114 113.933-57.5188Q113.933-56.1218 114.888-55.2395Q115.844-54.3571 117.338-54.3571L133.395-54.3571Q134.866-54.3571 135.766-55.1888Q136.666-56.0204 136.666-57.431Q136.666-58.8097 135.77-59.6611Q134.875-60.5125 133.395-60.5125ZM105.634-39.1777L97.0985-39.1777L97.0985-39.4707L106.12-51.0651Q106.963-52.1751 107.362-52.9488Q107.761-53.7224 107.761-54.6097Q107.761-55.9708 106.804-56.7711Q105.846-57.5714 104.436-57.5714L90.9256-57.5714Q89.5691-57.5714 88.7001-56.7688Q87.8311-55.9662 87.8311-54.6448Q87.8311-53.3005 88.7089-52.5135Q89.5866-51.7265 90.9256-51.7265L98.6481-51.7265L98.6481-51.4336L89.7285-39.949Q88.8596-38.8451 88.467-38.0577Q88.0745-37.2704 88.0653-36.2946Q88.0653-34.9915 88.9744-34.1667Q89.8834-33.342 91.3025-33.342L105.634-33.342Q106.982-33.342 107.82-34.1492Q108.658-34.9564 108.658-36.2999Q108.658-37.5809 107.829-38.3793Q107-39.1777 105.634-39.1777Z"/>
  </g>
  <g id="Regular-L" transform="matrix(1 0 0 1 1378.75 1556)">
   <path class="hierarchical-0:primary SFSymbolsPreview212121" d="M66.3574 31.6895Q77.6367 31.6895 87.3047 28.125Q96.9727 24.5605 104.248 17.7979Q111.523 11.0352 115.723 1.41602Q117.09-1.80664 115.479-3.4668Q114.844-4.15039 113.696-4.24805Q112.549-4.3457 111.182-3.80859Q107.275-2.29492 102.808-1.53809Q98.3398-0.78125 93.0664-0.78125Q82.2754-0.78125 73.5596-3.97949Q64.8438-7.17773 58.6426-13.2324Q52.4414-19.2871 49.1455-27.8809Q45.8496-36.4746 45.8496-47.168Q45.8496-52.3926 46.7529-57.7148Q47.6562-63.0371 49.4141-66.5527Q50.9766-69.7266 49.4141-71.5332Q47.8027-73.3887 44.1895-71.875Q37.1582-68.8477 31.3721-63.8428Q25.5859-58.8379 21.4111-52.2217Q17.2363-45.6055 14.9902-37.793Q12.7441-29.9805 12.7441-21.4355Q12.7441-10.1074 16.626-0.439453Q20.5078 9.22852 27.6367 16.4551Q34.7656 23.6816 44.6045 27.6855Q54.4434 31.6895 66.3574 31.6895Z"/>
   <path class="hierarchical-1:secondary SFSymbolsPreview4D4D4D" d="M101.27-83.4961L86.7188-83.4961L86.7188-83.7891L101.514-103.223Q102.393-104.395 102.808-105.176Q103.223-105.957 103.223-106.787Q103.223-108.105 102.271-108.887Q101.318-109.668 99.9023-109.668L80.3711-109.668Q79.1016-109.668 78.2471-108.862Q77.3926-108.057 77.3926-106.787Q77.3926-105.469 78.2471-104.688Q79.1016-103.906 80.3711-103.906L94.1406-103.906L94.1406-103.564L79.1992-84.2285Q78.3203-83.0566 77.9297-82.2998Q77.5391-81.543 77.5391-80.6152Q77.5391-79.3457 78.4424-78.54Q79.3457-77.7344 80.7617-77.7344L101.27-77.7344Q102.539-77.7344 103.369-78.5156Q104.199-79.2969 104.199-80.6152Q104.199-81.8848 103.369-82.6904Q102.539-83.4961 101.27-83.4961ZM129.932-59.7656L119.238-59.7656L119.238-60.0098L130.176-74.2676Q131.006-75.3418 131.396-76.0986Q131.787-76.8555 131.787-77.6855Q131.787-78.9551 130.884-79.6875Q129.98-80.4199 128.613-80.4199L113.379-80.4199Q112.158-80.4199 111.353-79.6631Q110.547-78.9062 110.547-77.7344Q110.547-76.416 111.353-75.6592Q112.158-74.9023 113.379-74.9023L123.145-74.9023L123.145-74.6094L112.256-60.4492Q111.426-59.375 111.084-58.6182Q110.742-57.8613 110.742-56.9824Q110.742-55.7617 111.597-54.9805Q112.451-54.1992 113.77-54.1992L129.932-54.1992Q131.201-54.1992 131.982-54.9561Q132.764-55.7129 132.764-56.9824Q132.764-58.2031 131.982-58.9844Q131.201-59.7656 129.932-59.7656ZM102.734-38.7207L93.75-38.7207L93.75-39.0137L102.93-51.0742Q103.711-52.1484 104.102-52.8564Q104.492-53.5645 104.492-54.3457Q104.492-55.5664 103.613-56.2744Q102.734-56.9824 101.465-56.9824L88.1836-56.9824Q87.0117-56.9824 86.2305-56.25Q85.4492-55.5176 85.4492-54.3457Q85.4492-53.125 86.2305-52.417Q87.0117-51.709 88.1836-51.709L96.2402-51.709L96.2402-51.416L87.1094-39.4043Q86.3281-38.3789 85.9619-37.6709Q85.5957-36.9629 85.5957-36.084Q85.5957-34.9121 86.4258-34.1797Q87.2559-33.4473 88.5254-33.4473L102.734-33.4473Q103.906-33.4473 104.639-34.1797Q105.371-34.9121 105.371-36.1328Q105.371-37.2559 104.639-37.9883Q103.906-38.7207 102.734-38.7207Z"/>
  </g>
  <g id="Light-L" transform="matrix(1 0 0 1 1083.27 1556)">
   <path class="hierarchical-0:primary SFSymbolsPreview212121" d="M64.6774 30.2818Q75.8812 30.2818 85.4584 26.8307Q95.0356 23.3795 102.25 16.8289Q109.465 10.2783 113.649 0.962067Q114.895-1.88217 113.496-3.36075Q112.921-3.99933 111.887-4.11186Q110.854-4.2244 109.577-3.7178Q105.686-2.23465 101.226-1.43242Q96.7659-0.630188 91.2804-0.630188Q80.3833-0.630188 71.5992-3.84331Q62.8151-7.05643 56.5838-13.1794Q50.3525-19.3024 47.049-28.0476Q43.7454-36.7928 43.7454-47.8035Q43.7454-52.8168 44.6262-57.9952Q45.507-63.1737 47.4159-67.0975Q48.7968-69.9387 47.3251-71.5637Q45.8046-73.2376 42.4942-71.7239Q35.7506-68.56 30.1838-63.6082Q24.617-58.6563 20.586-52.1992Q16.555-45.742 14.3696-38.126Q12.1841-30.5099 12.1841-22.1016Q12.1841-11.0008 15.9145-1.47667Q19.6449 8.04749 26.5621 15.1909Q33.4793 22.3343 43.1362 26.3081Q52.7931 30.2818 64.6774 30.2818Z"/>
   <path class="hierarchical-1:secondary SFSymbolsPreview4D4D4D" d="M99.9977-82.5119L85.1448-82.5119L85.1448-82.8201L100.091-102.299Q100.864-103.29 101.241-103.957Q101.618-104.625 101.618-105.395Q101.618-106.561 100.78-107.229Q99.9413-107.897 98.7213-107.897L80.0835-107.897Q79.026-107.897 78.323-107.212Q77.6199-106.528 77.6199-105.515Q77.6199-104.47 78.323-103.802Q79.026-103.134 80.0835-103.134L94.2162-103.134L94.2162-102.808L79.1992-83.3961Q78.4264-82.3906 78.0659-81.7398Q77.7054-81.089 77.7054-80.2521Q77.7054-79.1336 78.5103-78.4492Q79.3152-77.7649 80.5496-77.7649L99.9977-77.7649Q101.056-77.7649 101.742-78.4248Q102.428-79.0848 102.428-80.1308Q102.428-81.1584 101.742-81.8352Q101.056-82.5119 99.9977-82.5119ZM127.54-59.2964L115.999-59.2964L115.999-59.5711L127.633-74.6002Q128.372-75.5386 128.733-76.1894Q129.093-76.8402 129.093-77.61Q129.093-78.743 128.288-79.377Q127.483-80.011 126.283-80.011L111.245-80.011Q110.206-80.011 109.536-79.3678Q108.867-78.7247 108.867-77.7649Q108.867-76.7189 109.536-76.0681Q110.206-75.4173 111.245-75.4173L121.964-75.4173L121.964-75.1091L110.394-60.1463Q109.655-59.2087 109.328-58.5579Q109.001-57.9071 109.001-57.1037Q109.001-56.0036 109.772-55.336Q110.544-54.6684 111.696-54.6684L127.54-54.6684Q128.598-54.6684 129.258-55.3116Q129.918-55.9547 129.918-56.9824Q129.918-57.9758 129.258-58.6361Q128.598-59.2964 127.54-59.2964ZM101.13-38.9626L91.555-38.9626L91.555-39.2708L101.189-51.725Q101.879-52.6634 102.247-53.2803Q102.615-53.8971 102.615-54.6333Q102.615-55.748 101.827-56.3652Q101.039-56.9824 99.9062-56.9824L86.9881-56.9824Q85.9978-56.9824 85.3374-56.3484Q84.6771-55.7144 84.6771-54.7546Q84.6771-53.7758 85.3374-53.1586Q85.9978-52.5414 86.9881-52.5414L95.7405-52.5414L95.7405-52.2331L86.171-39.8132Q85.45-38.8786 85.1143-38.269Q84.7786-37.6595 84.7786-36.8561Q84.7786-35.7903 85.5328-35.1562Q86.2869-34.5222 87.4207-34.5222L101.13-34.5222Q102.135-34.5222 102.754-35.1562Q103.373-35.7903 103.373-36.7683Q103.373-37.6945 102.754-38.3286Q102.135-38.9626 101.13-38.9626Z"/>
  </g>
  <g id="Thin-L" transform="matrix(1 0 0 1 788.194 1556)">
   <path class="hierarchical-0:primary SFSymbolsPreview212121" d="M62.455 28.4203Q73.5588 28.4203 83.0158 25.1194Q92.4728 21.8185 99.6075 15.5479Q106.742 9.27734 110.906 0.361633Q111.993-1.98212 110.873-3.22037Q110.379-3.79868 109.495-3.93143Q108.611-4.06418 107.455-3.59802Q103.584-2.15454 99.1341-1.29204Q94.6838-0.429535 88.9183-0.429535Q77.8809-0.429535 69.0071-3.66287Q60.1334-6.89621 53.8616-13.1092Q47.5899-19.3222 44.2764-28.2677Q40.963-37.2131 40.963-48.6443Q40.963-53.3768 41.8137-58.3652Q42.6643-63.3537 44.7739-67.8185Q45.9145-70.2187 44.5625-71.6034Q43.1625-73.037 40.2519-71.5233Q33.889-68.1801 28.6125-63.298Q23.336-58.416 19.495-52.169Q15.654-45.9221 13.5487-38.5666Q11.4433-31.2111 11.4433-22.982Q11.4433-12.1819 14.9738-2.84767Q18.5043 6.48651 25.1408 13.5197Q31.7772 20.5528 41.1942 24.4865Q50.6111 28.4203 62.455 28.4203Z"/>
   <path class="hierarchical-1:secondary SFSymbolsPreview4D4D4D" d="M98.3162-81.2111L83.0627-81.2111L83.0627-81.5392L98.2094-101.078Q98.8419-101.828 99.1692-102.346Q99.4965-102.863 99.4965-103.553Q99.4965-104.52 98.8079-105.037Q98.1194-105.555 97.1603-105.555L79.7035-105.555Q78.9261-105.555 78.4229-105.03Q77.9198-104.506 77.9198-103.834Q77.9198-103.149 78.4229-102.631Q78.9261-102.113 79.7035-102.113L94.3161-102.113L94.3161-101.807L79.1992-82.2952Q78.5667-81.5102 78.2463-80.9994Q77.9259-80.4886 77.9259-79.7714Q77.9259-78.8536 78.6007-78.3291Q79.2755-77.8046 80.2696-77.8046L98.3162-77.8046Q99.0936-77.8046 99.5899-78.3047Q100.086-78.8048 100.086-79.4907Q100.086-80.1971 99.5899-80.7041Q99.0936-81.2111 98.3162-81.2111ZM124.377-58.6761L111.715-58.6761L111.715-58.9905L124.27-75.0412Q124.889-75.7988 125.209-76.3096Q125.529-76.8204 125.529-77.5101Q125.529-78.463 124.855-78.9669Q124.18-79.4708 123.199-79.4708L108.422-79.4708Q107.623-79.4708 107.134-78.9776Q106.644-78.4843 106.644-77.8046Q106.644-77.1194 107.134-76.6087Q107.623-76.0979 108.422-76.0979L120.403-76.0979L120.403-75.7698L107.932-59.7458Q107.313-58.9882 107.006-58.4774Q106.699-57.9666 106.699-57.2639Q106.699-56.324 107.36-55.8064Q108.022-55.2887 108.953-55.2887L124.377-55.2887Q125.155-55.2887 125.655-55.7819Q126.154-56.2752 126.154-56.9824Q126.154-57.6759 125.655-58.176Q125.155-58.6761 124.377-58.6761ZM99.0082-39.283L88.6528-39.283L88.6528-39.6111L98.8869-52.5856Q99.4576-53.344 99.7952-53.841Q100.133-54.3381 100.133-55.0133Q100.133-55.9883 99.4648-56.4854Q98.7968-56.9824 97.8439-56.9824L85.4065-56.9824Q84.6565-56.9824 84.1564-56.4785Q83.6563-55.9746 83.6563-55.2948Q83.6563-54.6364 84.1564-54.1393Q84.6565-53.6423 85.4065-53.6423L95.0798-53.6423L95.0798-53.3142L84.9297-40.3534Q84.2888-39.5393 83.9931-39.0598Q83.6975-38.5803 83.6975-37.8769Q83.6975-36.9514 84.3517-36.4475Q85.006-35.9436 85.9589-35.9436L99.0082-35.9436Q99.7932-35.9436 100.262-36.4475Q100.731-36.9514 100.731-37.6091Q100.731-38.2751 100.262-38.7791Q99.7932-39.283 99.0082-39.283Z"/>
  </g>
  <g id="Ultralight-L" transform="matrix(1 0 0 1 492.318 1556)">
   <path class="hierarchical-0:primary SFSymbolsPreview212121" d="M61.3167 27.4666Q72.3694 27.4666 81.765 24.2424Q91.1606 21.0182 98.254 14.8914Q105.347 8.76465 109.502 0.0534058Q110.506-2.034 109.53-3.14865Q109.077-3.69644 108.27-3.83949Q107.463-3.98254 106.368-3.53622Q102.507-2.11334 98.0621-1.22032Q93.6172-0.327301 87.7083-0.327301Q76.5991-0.327301 67.6788-3.57094Q58.7585-6.81458 52.4666-13.0737Q46.1746-19.3329 42.8562-28.3806Q39.5378-37.4283 39.5378-49.0753Q39.5378-53.6644 40.3728-58.5552Q41.2079-63.446 43.4196-68.1877Q44.4374-70.3621 43.1473-71.624Q41.8083-72.9347 39.1037-71.4211Q32.9353-67.9848 27.8076-63.139Q22.6799-58.2932 18.9365-52.1538Q15.1932-46.0144 13.1287-38.792Q11.0641-31.5697 11.0641-23.4337Q11.0641-12.7869 14.4917-3.55034Q17.9192 5.68619 24.4125 12.6633Q30.9059 19.6404 40.1997 23.5535Q49.4934 27.4666 61.3167 27.4666Z"/>
   <path class="hierarchical-1:secondary SFSymbolsPreview4D4D4D" d="M97.4548-80.5443L81.9962-80.5443L81.9962-80.883L97.245-100.452Q97.8065-101.08 98.1079-101.52Q98.4093-101.961 98.4093-102.609Q98.4093-103.474 97.7978-103.914Q97.1863-104.355 96.36-104.355L79.5082-104.355Q78.8742-104.355 78.474-103.913Q78.0739-103.471 78.0739-102.972Q78.0739-102.472 78.474-102.031Q78.8742-101.591 79.5082-101.591L94.368-101.591L94.368-101.294L79.1992-81.7307Q78.6385-81.0585 78.3386-80.6194Q78.0388-80.1804 78.0388-79.5258Q78.0388-78.7102 78.6469-78.2677Q79.2549-77.8252 80.1262-77.8252L97.4548-77.8252Q98.0888-77.8252 98.4875-78.2433Q98.8861-78.6613 98.8861-79.1618Q98.8861-79.705 98.4875-80.1247Q98.0888-80.5443 97.4548-80.5443ZM122.757-58.358L109.521-58.358L109.521-58.6929L122.547-75.2663Q123.105-75.9323 123.405-76.371Q123.705-76.8097 123.705-77.4582Q123.705-78.3195 123.096-78.7567Q122.488-79.1939 121.62-79.1939L106.976-79.1939Q106.3-79.1939 105.903-78.7777Q105.506-78.3615 105.506-77.8252Q105.506-77.3239 105.903-76.8852Q106.3-76.4465 106.976-76.4465L119.602-76.4465L119.602-76.1078L106.67-59.5413Q106.113-58.8753 105.816-58.4366Q105.52-57.9979 105.52-57.3456Q105.52-56.488 106.125-56.0474Q106.73-55.6068 107.549-55.6068L122.757-55.6068Q123.391-55.6068 123.809-56.023Q124.226-56.4392 124.226-56.9824Q124.226-57.5218 123.809-57.9399Q123.391-58.358 122.757-58.358ZM97.921-39.447L87.1658-39.447L87.1658-39.7858L97.7074-53.0266Q98.2162-53.6926 98.539-54.1279Q98.8617-54.5631 98.8617-55.2086Q98.8617-56.1111 98.2552-56.5468Q97.6486-56.9824 96.7873-56.9824L84.5963-56.9824Q83.9691-56.9824 83.5514-56.5453Q83.1337-56.1081 83.1337-55.5717Q83.1337-55.0774 83.5514-54.6421Q83.9691-54.2068 84.5963-54.2068L94.7418-54.2068L94.7418-53.8681L84.2941-40.6303Q83.6945-39.8773 83.419-39.4646Q83.1436-39.0518 83.1436-38.3995Q83.1436-37.5458 83.7467-37.1086Q84.3498-36.6714 85.2104-36.6714L97.921-36.6714Q98.5931-36.6714 98.9849-37.1086Q99.3767-37.5458 99.3767-38.0402Q99.3767-38.5727 98.9849-39.0099Q98.5931-39.447 97.921-39.447Z"/>
  </g>
  <g id="Black-M" transform="matrix(1 0 0 1 2869.9 1126)">
   <path class="hierarchical-0:primary SFSymbolsPreview212121" d="M58.5449 24.0723Q68.75 24.0723 77.7588 20.2148Q86.7676 16.3574 93.6279 9.47266Q100.488 2.58789 104.248-6.44531Q106.592-12.207 103.857-14.6484Q101.025-17.1875 96.4844-14.9902Q93.3594-13.5254 89.1113-12.5244Q84.8633-11.5234 80.4688-11.5234Q69.9707-11.5234 61.9629-15.8691Q53.9551-20.2148 49.4385-27.9297Q44.9219-35.6445 44.9219-45.752Q44.9219-50.3418 46.0205-55.1758Q47.1191-60.0098 48.8281-63.7695Q51.0742-68.75 48.7305-71.3867Q46.3379-74.1699 40.6738-71.9238Q31.2988-68.1641 24.1455-61.1572Q16.9922-54.1504 12.9395-44.9707Q8.88672-35.791 8.88672-25.5859Q8.88672-14.8438 12.5732-5.78613Q16.2598 3.27148 22.9736 9.96094Q29.6875 16.6504 38.7451 20.3613Q47.8027 24.0723 58.5449 24.0723Z"/>
   <path class="hierarchical-1:secondary SFSymbolsPreview4D4D4D" d="M93.3105-78.6621L83.4473-78.6621L83.4473-78.9062L95.4102-93.1152Q96.4355-94.2871 96.8506-95.2393Q97.2656-96.1914 97.2656-97.5586Q97.2656-99.5117 95.9717-100.732Q94.6777-101.953 92.6758-101.953L75.6836-101.953Q73.4863-101.953 72.2412-100.854Q70.9961-99.7559 70.9961-97.8516Q70.9961-95.9473 72.29-94.8242Q73.584-93.7012 75.6836-93.7012L85.3027-93.7012L85.3027-93.457L73.5352-79.3457Q72.5098-78.125 72.1191-77.0996Q71.7285-76.0742 71.7285-74.8535Q71.7285-72.9004 72.9736-71.7041Q74.2188-70.5078 76.2207-70.5078L93.3105-70.5078Q95.459-70.5078 96.7529-71.6064Q98.0469-72.7051 98.0469-74.5605Q98.0469-76.4648 96.8018-77.5635Q95.5566-78.6621 93.3105-78.6621ZM118.652-58.1543L113.281-58.1543L113.281-58.3984L120.508-66.4551Q121.533-67.5293 121.948-68.5059Q122.363-69.4824 122.363-70.8008Q122.363-72.6562 121.143-73.8037Q119.922-74.9512 118.018-74.9512L106.299-74.9512Q104.248-74.9512 103.052-73.999Q101.855-73.0469 101.855-71.2891Q101.855-69.5801 103.076-68.6035Q104.297-67.627 106.299-67.627L111.523-67.627L111.523-67.3828L104.639-59.7168Q103.564-58.5449 103.052-57.4219Q102.539-56.2988 102.539-55.0293Q102.539-53.1738 103.735-52.0508Q104.932-50.9277 106.836-50.9277L118.652-50.9277Q120.703-50.9277 121.924-51.8799Q123.145-52.832 123.145-54.541Q123.145-58.1543 118.652-58.1543ZM94.8242-40.4785L90.0879-40.4785L90.0879-40.7227L96.5332-47.7051Q97.4121-48.6328 97.7539-49.5361Q98.0957-50.4395 98.0957-51.6113Q98.0957-53.2227 97.0215-54.248Q95.9473-55.2734 94.2383-55.2734L82.8125-55.2734Q80.957-55.2734 79.9316-54.3701Q78.9062-53.4668 78.9062-51.8066Q78.9062-50.2441 79.9805-49.3164Q81.0547-48.3887 82.8125-48.3887L87.5-48.3887L87.5-48.1445L81.3965-41.5527Q80.3223-40.3809 79.9316-39.4531Q79.541-38.5254 79.4922-37.3047Q79.4434-35.6934 80.4932-34.668Q81.543-33.6426 83.3008-33.6426L94.8242-33.6426Q96.6309-33.6426 97.7295-34.5703Q98.8281-35.498 98.8281-37.0605Q98.8281-40.4785 94.8242-40.4785Z"/>
  </g>
  <g id="Heavy-M" transform="matrix(1 0 0 1 2575 1126)">
   <path class="hierarchical-0:primary SFSymbolsPreview212121" d="M57.0816 22.5052Q66.964 22.5052 75.621 18.8896Q84.2781 15.274 90.8619 8.74672Q97.4457 2.21939 101.09-6.4682Q103.146-11.5158 100.734-13.7146Q98.2941-15.9317 94.2604-14.0335Q91.1583-12.6381 87.0945-11.7352Q83.0307-10.8322 78.7285-10.8322Q68.1038-10.8322 60.0555-15.1836Q52.0073-19.5351 47.4964-27.3132Q42.9855-35.0914 42.9855-45.372Q42.9855-49.8581 43.998-54.5422Q45.0104-59.2262 46.6042-62.6976Q48.6313-67.1249 46.5523-69.4855Q44.413-71.9688 39.3829-69.9875Q30.4573-66.4124 23.6614-59.6592Q16.8655-52.906 13.0318-44.0315Q9.198-35.157 9.198-25.2518Q9.198-14.9361 12.7403-6.22978Q16.2827 2.4765 22.7489 8.918Q29.2152 15.3595 37.9559 18.9323Q46.6965 22.5052 57.0816 22.5052Z"/>
   <path class="hierarchical-1:secondary SFSymbolsPreview4D4D4D" d="M89.9803-77.3712L79.8286-77.3712L79.8286-77.6154L91.6534-92.009Q92.6094-93.1465 93.0073-94.035Q93.4052-94.9234 93.4052-96.1182Q93.4052-97.8752 92.2264-98.9635Q91.0477-100.052 89.2296-100.052L72.5601-100.052Q70.6169-100.052 69.4927-99.0509Q68.3685-98.0499 68.3685-96.3303Q68.3685-94.5992 69.5301-93.5799Q70.6917-92.5606 72.5601-92.5606L82.3753-92.5606L82.3753-92.3164L70.6657-78.009Q69.709-76.8341 69.3359-75.8953Q68.9629-74.9565 68.9629-73.851Q68.9629-72.1054 70.0928-71.0243Q71.2227-69.9432 73.04-69.9432L89.9803-69.9432Q91.8861-69.9432 93.0477-70.9438Q94.2093-71.9444 94.2093-73.6504Q94.2093-75.37 93.0851-76.3706Q91.9609-77.3712 89.9803-77.3712ZM114.734-57.2899L108.787-57.2899L108.787-57.5226L116.221-66.1781Q117.165-67.218 117.558-68.1198Q117.95-69.0216 117.95-70.1782Q117.95-71.8498 116.838-72.876Q115.727-73.9021 114.007-73.9021L102.231-73.9021Q100.422-73.9021 99.3465-73.0194Q98.2712-72.1367 98.2712-70.5399Q98.2712-68.969 99.3652-68.0676Q100.459-67.1661 102.231-67.1661L107.882-67.1661L107.882-66.9334L100.732-58.5876Q99.7498-57.4844 99.2889-56.4709Q98.8281-55.4573 98.8281-54.3144Q98.8281-52.6665 99.9092-51.6529Q100.99-50.6393 102.71-50.6393L114.734-50.6393Q116.554-50.6393 117.648-51.5167Q118.742-52.3941 118.742-53.965Q118.742-57.2899 114.734-57.2899ZM91.4474-39.8445L86.2617-39.8445L86.2617-40.0772L92.8108-47.567Q93.644-48.4947 93.9739-49.3286Q94.3039-50.1625 94.3039-51.1963Q94.3039-52.681 93.3105-53.6026Q92.3172-54.5242 90.7578-54.5242L79.5509-54.5242Q77.903-54.5242 76.9642-53.6842Q76.0254-52.8442 76.0254-51.3458Q76.0254-49.8871 77.0016-49.0341Q77.9778-48.1812 79.5509-48.1812L84.5154-48.1812L84.5154-47.9485L78.2501-40.7692Q77.2682-39.666 76.9066-38.8134Q76.545-37.9608 76.5076-36.8668Q76.4702-35.4164 77.4277-34.4833Q78.3852-33.5503 79.982-33.5503L91.4474-33.5503Q93.0695-33.5503 94.0586-34.4032Q95.0478-35.2562 95.0478-36.7035Q95.0478-39.8445 91.4474-39.8445Z"/>
  </g>
  <g id="Bold-M" transform="matrix(1 0 0 1 2280.32 1126)">
   <path class="hierarchical-0:primary SFSymbolsPreview212121" d="M55.4443 20.752Q64.9658 20.752 73.23 17.4072Q81.4941 14.0625 87.7686 7.93457Q94.043 1.80664 97.5586-6.49414Q99.292-10.7422 97.2412-12.6709Q95.2393-14.5264 91.7725-12.9639Q88.6963-11.6455 84.8389-10.8521Q80.9814-10.0586 76.7822-10.0586Q66.0156-10.0586 57.9224-14.4165Q49.8291-18.7744 45.3247-26.6235Q40.8203-34.4727 40.8203-44.9463Q40.8203-49.3164 41.7358-53.833Q42.6514-58.3496 44.1162-61.499Q45.8984-65.3076 44.1162-67.3584Q42.2607-69.5068 37.9395-67.8223Q29.5166-64.4531 23.1201-57.9834Q16.7236-51.5137 13.1348-42.981Q9.5459-34.4482 9.5459-24.8779Q9.5459-15.0391 12.9272-6.72607Q16.3086 1.58691 22.4976 7.75146Q28.6865 13.916 37.0728 17.334Q45.459 20.752 55.4443 20.752Z"/>
   <path class="hierarchical-1:secondary SFSymbolsPreview4D4D4D" d="M86.2549-75.9277L75.7812-75.9277L75.7812-76.1719L87.4512-90.7715Q88.3301-91.8701 88.7085-92.688Q89.0869-93.5059 89.0869-94.5068Q89.0869-96.0449 88.0371-96.9849Q86.9873-97.9248 85.376-97.9248L69.0674-97.9248Q67.4072-97.9248 66.4185-97.0337Q65.4297-96.1426 65.4297-94.6289Q65.4297-93.0908 66.4429-92.1875Q67.4561-91.2842 69.0674-91.2842L79.1016-91.2842L79.1016-91.04L67.4561-76.5137Q66.5771-75.3906 66.2231-74.5483Q65.8691-73.7061 65.8691-72.7295Q65.8691-71.2158 66.8701-70.2637Q67.8711-69.3115 69.4824-69.3115L86.2549-69.3115Q87.8906-69.3115 88.9038-70.2026Q89.917-71.0938 89.917-72.6318Q89.917-74.1455 88.9282-75.0366Q87.9395-75.9277 86.2549-75.9277ZM110.352-56.3232L103.76-56.3232L103.76-56.543L111.426-65.8691Q112.28-66.8701 112.646-67.688Q113.013-68.5059 113.013-69.4824Q113.013-70.9473 112.024-71.8384Q111.035-72.7295 109.521-72.7295L97.6807-72.7295Q96.1426-72.7295 95.2026-71.9238Q94.2627-71.1182 94.2627-69.7021Q94.2627-68.2861 95.2148-67.4683Q96.167-66.6504 97.6807-66.6504L103.809-66.6504L103.809-66.4307L96.3623-57.3242Q95.4834-56.2988 95.0806-55.4077Q94.6777-54.5166 94.6777-53.5156Q94.6777-52.0996 95.6299-51.2085Q96.582-50.3174 98.0957-50.3174L110.352-50.3174Q111.914-50.3174 112.866-51.1108Q113.818-51.9043 113.818-53.3203Q113.818-56.3232 110.352-56.3232ZM87.6709-39.1357L81.9824-39.1357L81.9824-39.3555L88.6475-47.4121Q89.4287-48.3398 89.7461-49.0967Q90.0635-49.8535 90.0635-50.7324Q90.0635-52.0752 89.1602-52.8809Q88.2568-53.6865 86.8652-53.6865L75.9033-53.6865Q74.4873-53.6865 73.645-52.9175Q72.8027-52.1484 72.8027-50.8301Q72.8027-49.4873 73.6694-48.7183Q74.5361-47.9492 75.9033-47.9492L81.1768-47.9492L81.1768-47.7295L74.7314-39.8926Q73.8525-38.8672 73.5229-38.0981Q73.1934-37.3291 73.1689-36.377Q73.1445-35.1074 73.999-34.2773Q74.8535-33.4473 76.2695-33.4473L87.6709-33.4473Q89.0869-33.4473 89.9536-34.2163Q90.8203-34.9854 90.8203-36.3037Q90.8203-39.1357 87.6709-39.1357Z"/>
  </g>
  <g id="Semibold-M" transform="matrix(1 0 0 1 1985.01 1126)">
   <path class="hierarchical-0:primary SFSymbolsPreview212121" d="M54.3159 19.5435Q63.588 19.5435 71.5813 16.3853Q79.5746 13.2271 85.6358 7.37457Q91.6969 1.52206 95.1233-6.51169Q96.6347-10.2089 94.8326-11.9507Q93.1328-13.5574 90.0574-12.2261Q86.9987-10.9612 83.2836-10.2432Q79.5685-9.5253 75.4402-9.5253Q64.576-9.5253 56.4514-13.8878Q48.3269-18.2503 43.8271-26.1482Q39.3272-34.0462 39.3272-44.6533Q39.3272-48.9433 40.176-53.3443Q41.0248-57.7454 42.4011-60.6728Q44.0147-64.0549 42.4362-65.892Q40.7768-67.8093 36.9438-66.3292Q28.8681-63.102 22.747-56.8279Q16.626-50.5539 13.2061-42.2565Q9.78622-33.9592 9.78622-24.6201Q9.78622-15.11 13.0562-7.06825Q16.3261 0.973511 22.324 6.94695Q28.3218 12.9204 36.4639 16.2319Q44.606 19.5435 54.3159 19.5435Z"/>
   <path class="hierarchical-1:secondary SFSymbolsPreview4D4D4D" d="M83.6868-74.9321L72.9904-74.9321L72.9904-75.1762L84.5543-89.9185Q85.3798-90.9904 85.7449-91.7595Q86.1099-92.5285 86.1099-93.396Q86.1099-94.783 85.149-95.6207Q84.1881-96.4584 82.7187-96.4584L66.6588-96.4584Q65.1947-96.4584 64.299-95.6429Q63.4033-94.8273 63.4033-93.4555Q63.4033-92.0509 64.3143-91.2277Q65.2252-90.4045 66.6588-90.4045L76.844-90.4045L76.844-90.1604L65.2435-75.4829Q64.4173-74.395 64.0766-73.6195Q63.736-72.8439 63.736-71.9566Q63.736-70.6024 64.6481-69.7392Q65.5602-68.8759 67.0296-68.8759L83.6868-68.8759Q85.1357-68.8759 86.0466-69.6915Q86.9576-70.507 86.9576-71.9299Q86.9576-73.3009 86.0622-74.1165Q85.1669-74.9321 83.6868-74.9321ZM107.33-55.6564L100.294-55.6564L100.294-55.8678L108.12-65.6555Q108.912-66.6298 109.261-67.3901Q109.609-68.1503 109.609-69.0025Q109.609-70.3255 108.705-71.1231Q107.8-71.9208 106.429-71.9208L94.5435-71.9208Q93.1923-71.9208 92.3454-71.1685Q91.4986-70.4163 91.4986-69.1246Q91.4986-67.8154 92.3531-67.0551Q93.2076-66.2949 94.5435-66.2949L101-66.2949L101-66.0843L93.3495-56.4529Q92.5415-55.481 92.1787-54.6745Q91.8159-53.8681 91.8159-52.9648Q91.8159-51.7082 92.6792-50.9018Q93.5425-50.0954 94.9142-50.0954L107.33-50.0954Q108.715-50.0954 109.569-50.8308Q110.423-51.5663 110.423-52.8763Q110.423-55.6564 107.33-55.6564ZM85.067-38.6467L79.0321-38.6467L79.0321-38.858L85.7773-47.3053Q86.5227-48.233 86.8313-48.9365Q87.1399-49.6399 87.1399-50.4128Q87.1399-51.6579 86.2988-52.3834Q85.4576-53.109 84.1812-53.109L73.3879-53.109Q72.1321-53.109 71.3566-52.3888Q70.5811-51.6685 70.5811-50.4745Q70.5811-49.2119 71.3722-48.5004Q72.1634-47.789 73.3879-47.789L78.875-47.789L78.875-47.5784L72.3053-39.2883Q71.4973-38.3163 71.1899-37.6049Q70.8824-36.8935 70.8672-36.039Q70.8519-34.8938 71.6351-34.1351Q72.4182-33.3763 73.7099-33.3763L85.067-33.3763Q86.3411-33.3763 87.1231-34.0874Q87.9051-34.7984 87.9051-36.0283Q87.9051-38.6467 85.067-38.6467Z"/>
  </g>
  <g id="Medium-M" transform="matrix(1 0 0 1 1689.36 1126)">
   <path class="hierarchical-0:primary SFSymbolsPreview212121" d="M53.4599 18.6272Q62.5443 18.6272 70.3316 15.6105Q78.1189 12.5938 84.0183 6.95038Q89.9178 1.30692 93.277-6.52542Q94.6198-9.80453 93.0069-11.4052Q91.5359-12.8235 88.7566-11.6669Q85.7117-10.4424 82.1045-9.78165Q78.4973-9.12094 74.4225-9.12094Q63.4842-9.12094 55.3364-13.4869Q47.1886-17.8528 42.6918-25.7877Q38.195-33.7227 38.195-44.4305Q38.195-48.6603 38.9935-52.9736Q39.7919-57.2868 41.1003-60.0456Q42.5858-63.1042 41.1629-64.7804Q39.6515-66.5222 36.1893-65.197Q28.376-62.0781 22.464-55.9521Q16.552-49.826 13.2599-41.7076Q9.9678-33.5892 9.9678-24.4247Q9.9678-15.1642 13.1538-7.32765Q16.3399 0.508881 22.1928 6.33736Q28.0457 12.1658 36.0023 15.3965Q43.959 18.6272 53.4599 18.6272Z"/>
   <path class="hierarchical-1:secondary SFSymbolsPreview4D4D4D" d="M81.739-74.1776L70.8748-74.1776L70.8748-74.4217L82.357-89.2715Q83.1421-90.3229 83.4972-91.0549Q83.8524-91.787 83.8524-92.5537Q83.8524-93.8263 82.959-94.5866Q82.0656-95.3468 80.7037-95.3468L64.8331-95.3468Q63.5162-95.3468 62.6915-94.5885Q61.8668-93.8301 61.8668-92.5667Q61.8668-91.2628 62.7003-90.4999Q63.5338-89.7369 64.8331-89.7369L75.1328-89.7369L75.1328-89.4928L63.5651-74.7009Q62.78-73.6404 62.4496-72.9153Q62.1193-72.1901 62.1193-71.3699Q62.1193-70.1378 62.9639-69.3417Q63.8084-68.5455 65.1695-68.5455L81.739-68.5455Q83.0467-68.5455 83.8802-69.3039Q84.7137-70.0623 84.7137-71.3974Q84.7137-72.6608 83.889-73.4192Q83.0643-74.1776 81.739-74.1776ZM105.039-55.1514L97.6662-55.1514L97.6662-55.3551L105.613-65.4938Q106.358-66.4482 106.693-67.1646Q107.028-67.881 107.028-68.6386Q107.028-69.8532 106.188-70.5803Q105.347-71.3074 104.084-71.3074L92.1646-71.3074Q90.9546-71.3074 90.1791-70.5956Q89.4035-69.8837 89.4035-68.6867Q89.4035-67.4583 90.1836-66.7419Q90.9637-66.0255 92.1646-66.0255L98.8708-66.0255L98.8708-65.8211L91.0652-55.793Q90.3114-54.8615 89.9788-54.1187Q89.6461-53.376 89.6461-52.5467Q89.6461-51.4122 90.4423-50.6695Q91.2384-49.9268 92.5018-49.9268L105.039-49.9268Q106.289-49.9268 107.069-50.6187Q107.849-51.3107 107.849-52.5391Q107.849-55.1514 105.039-55.1514ZM83.0925-38.2767L76.7944-38.2767L76.7944-38.4804L83.6006-47.2244Q84.3193-48.1522 84.621-48.8152Q84.9228-49.4781 84.9228-50.1701Q84.9228-51.3405 84.129-52.0058Q83.3351-52.6711 82.1465-52.6711L71.4813-52.6711Q70.3468-52.6711 69.6217-51.9878Q68.8965-51.3046 68.8965-50.2052Q68.8965-49.0028 69.6304-48.3353Q70.3644-47.6677 71.4813-47.6677L77.1301-47.6677L77.1301-47.464L70.4659-38.8298Q69.7121-37.8983 69.4214-37.2307Q69.1307-36.5631 69.1223-35.7834Q69.1132-34.7321 69.8425-34.0271Q70.5719-33.3221 71.7697-33.3221L83.0925-33.3221Q84.259-33.3221 84.977-33.9897Q85.6949-34.6573 85.6949-35.8192Q85.6949-38.2767 83.0925-38.2767Z"/>
  </g>
  <g id="Regular-M" transform="matrix(1 0 0 1 1394.03 1126)">
   <path class="hierarchical-0:primary SFSymbolsPreview212121" d="M52.3438 17.4316Q61.1816 17.4316 68.7012 14.5996Q76.2207 11.7676 81.9092 6.39648Q87.5977 1.02539 90.8691-6.54297Q91.9922-9.27734 90.625-10.6934Q89.4531-11.8652 87.0605-10.9375Q84.0332-9.76562 80.5664-9.17969Q77.0996-8.59375 73.0957-8.59375Q62.0605-8.59375 53.8818-12.9639Q45.7031-17.334 41.2109-25.3174Q36.7188-33.3008 36.7188-44.1406Q36.7188-48.291 37.4512-52.4902Q38.1836-56.6895 39.4043-59.2285Q40.7227-61.8652 39.502-63.3301Q38.1836-64.8438 35.2051-63.7207Q27.7344-60.7422 22.0947-54.8096Q16.4551-48.877 13.3301-40.9912Q10.2051-33.1055 10.2051-24.1699Q10.2051-15.2344 13.2812-7.66602Q16.3574-0.0976562 22.0215 5.54199Q27.6855 11.1816 35.4004 14.3066Q43.1152 17.4316 52.3438 17.4316Z"/>
   <path class="hierarchical-1:secondary SFSymbolsPreview4D4D4D" d="M79.1992-73.1934L68.1152-73.1934L68.1152-73.4375L79.4922-88.4277Q80.2246-89.4531 80.5664-90.1367Q80.9082-90.8203 80.9082-91.4551Q80.9082-92.5781 80.1025-93.2373Q79.2969-93.8965 78.0762-93.8965L62.4512-93.8965Q61.3281-93.8965 60.5957-93.2129Q59.8633-92.5293 59.8633-91.4062Q59.8633-90.2344 60.5957-89.5508Q61.3281-88.8672 62.4512-88.8672L72.9004-88.8672L72.9004-88.623L61.377-73.6816Q60.6445-72.6562 60.3271-71.9971Q60.0098-71.3379 60.0098-70.6055Q60.0098-69.5312 60.7666-68.8232Q61.5234-68.1152 62.7441-68.1152L79.1992-68.1152Q80.3223-68.1152 81.0547-68.7988Q81.7871-69.4824 81.7871-70.7031Q81.7871-71.8262 81.0547-72.5098Q80.3223-73.1934 79.1992-73.1934ZM102.051-54.4922L94.2383-54.4922L94.2383-54.6875L102.344-65.2832Q103.027-66.2109 103.345-66.8701Q103.662-67.5293 103.662-68.1641Q103.662-69.2383 102.905-69.873Q102.148-70.5078 101.025-70.5078L89.0625-70.5078Q88.0371-70.5078 87.3535-69.8486Q86.6699-69.1895 86.6699-68.1152Q86.6699-66.9922 87.3535-66.333Q88.0371-65.6738 89.0625-65.6738L96.0938-65.6738L96.0938-65.4785L88.0859-54.9316Q87.4023-54.0527 87.1094-53.3936Q86.8164-52.7344 86.8164-52.002Q86.8164-51.0254 87.5244-50.3662Q88.2324-49.707 89.3555-49.707L102.051-49.707Q103.125-49.707 103.809-50.3418Q104.492-50.9766 104.492-52.0996Q104.492-54.4922 102.051-54.4922ZM80.5176-37.793L73.877-37.793L73.877-37.9883L80.7617-47.1191Q81.4453-48.0469 81.7383-48.6572Q82.0312-49.2676 82.0312-49.8535Q82.0312-50.9277 81.2988-51.5137Q80.5664-52.0996 79.4922-52.0996L68.9941-52.0996Q68.0176-52.0996 67.3584-51.4648Q66.6992-50.8301 66.6992-49.8535Q66.6992-48.7305 67.3584-48.1201Q68.0176-47.5098 68.9941-47.5098L74.8535-47.5098L74.8535-47.3145L68.0664-38.2324Q67.3828-37.3535 67.1143-36.7432Q66.8457-36.1328 66.8457-35.4492Q66.8457-34.5215 67.5049-33.8867Q68.1641-33.252 69.2383-33.252L80.5176-33.252Q81.543-33.252 82.1777-33.8623Q82.8125-34.4727 82.8125-35.5469Q82.8125-37.793 80.5176-37.793Z"/>
  </g>
  <g id="Light-M" transform="matrix(1 0 0 1 1098.44 1126)">
   <path class="hierarchical-0:primary SFSymbolsPreview212121" d="M50.8453 16.1751Q59.6077 16.1751 67.0513 13.4415Q74.4949 10.7079 80.1231 5.5336Q85.7513 0.359344 89.0076-6.96716Q90.0246-9.35287 88.839-10.5873Q87.7884-11.6837 85.6224-10.862Q82.6103-9.70535 79.1512-9.08127Q75.692-8.45718 71.5065-8.45718Q60.3348-8.45718 52.0882-12.8502Q43.8416-17.2432 39.3341-25.3704Q34.8267-33.4976 34.8267-44.7006Q34.8267-48.6694 35.5366-52.7477Q36.2465-56.826 37.6183-59.6977Q38.7703-62.0468 37.6251-63.3606Q36.3976-64.7224 33.6761-63.5841Q26.5533-60.424 21.1487-54.6276Q15.744-48.8312 12.7247-41.1877Q9.70535-33.5442 9.70535-24.7604Q9.70535-16.037 12.6453-8.59718Q15.5853-1.15738 21.0602 4.40674Q26.535 9.97086 34.0912 13.073Q41.6473 16.1751 50.8453 16.1751Z"/>
   <path class="hierarchical-1:secondary SFSymbolsPreview4D4D4D" d="M78.064-72.3152L66.6924-72.3152L66.6924-72.5594L78.2059-87.5954Q78.8475-88.4689 79.1588-89.0469Q79.4701-89.6248 79.4701-90.2138Q79.4701-91.1858 78.7704-91.7465Q78.0708-92.3073 77.0164-92.3073L62.1941-92.3073Q61.2679-92.3073 60.664-91.737Q60.0601-91.1667 60.0601-90.271Q60.0601-89.341 60.664-88.7634Q61.2679-88.1859 62.1941-88.1859L72.9759-88.1859L72.9759-87.9417L61.377-72.9248Q60.7353-72.0657 60.4481-71.505Q60.1608-70.9442 60.1608-70.2873Q60.1608-69.3344 60.8269-68.7477Q61.4929-68.161 62.532-68.161L78.064-68.161Q78.9902-68.161 79.594-68.7309Q80.1979-69.3008 80.1979-70.2644Q80.1979-71.1601 79.594-71.7377Q78.9902-72.3152 78.064-72.3152ZM99.9016-54.0833L91.3322-54.0833L91.3322-54.2938L100.058-65.5861Q100.666-66.3925 100.953-66.9533Q101.241-67.514 101.241-68.1038Q101.241-69.0567 100.574-69.6007Q99.9084-70.1447 98.9365-70.1447L87.1552-70.1447Q86.2961-70.1447 85.7262-69.5839Q85.1562-69.0231 85.1562-68.161Q85.1562-67.2493 85.7262-66.6962Q86.2961-66.143 87.1552-66.143L95.034-66.143L95.034-65.9325L86.4059-54.6593Q85.7979-53.9017 85.5278-53.3409Q85.2577-52.7802 85.2577-52.1233Q85.2577-51.2375 85.8898-50.6767Q86.5219-50.116 87.4939-50.116L99.9016-50.116Q100.809-50.116 101.372-50.6523Q101.934-51.1887 101.934-52.0996Q101.934-54.0833 99.9016-54.0833ZM79.0794-38.0051L71.9246-38.0051L71.9246-38.2301L79.203-47.7097Q79.7951-48.5161 80.0732-49.0433Q80.3513-49.5705 80.3513-50.1259Q80.3513-51.0788 79.702-51.5892Q79.0527-52.0996 78.0998-52.0996L67.9344-52.0996Q67.0944-52.0996 66.5485-51.5556Q66.0027-51.0117 66.0027-50.2167Q66.0027-49.3057 66.5485-48.7862Q67.0944-48.2666 67.9344-48.2666L74.4148-48.2666L74.4148-48.0408L67.2188-38.5956Q66.6107-37.8075 66.3498-37.2879Q66.0889-36.7683 66.0889-36.1458Q66.0889-35.2936 66.695-34.7496Q67.3012-34.2056 68.2396-34.2056L79.0794-34.2056Q79.9538-34.2056 80.4901-34.7328Q81.0265-35.26 81.0265-36.1221Q81.0265-38.0051 79.0794-38.0051Z"/>
  </g>
  <g id="Thin-M" transform="matrix(1 0 0 1 803.196 1126)">
   <path class="hierarchical-0:primary SFSymbolsPreview212121" d="M48.8632 14.5142Q57.5256 14.5142 64.8693 11.9106Q72.213 9.3071 77.7607 4.39301Q83.3084-0.521088 86.5448-7.52716Q87.4222-9.45282 86.4769-10.4469Q85.5858-11.4433 83.7212-10.762Q80.7289-9.62524 77.2797-8.95119Q73.8304-8.27713 69.4046-8.27713Q58.0528-8.27713 49.7158-12.7003Q41.3788-17.1234 36.8515-25.4406Q32.3242-33.7578 32.3242-45.4414Q32.3242-49.1699 33.004-53.088Q33.6838-57.0061 35.2562-60.318Q36.1877-62.2871 35.1425-63.4003Q34.0355-64.5622 31.6544-63.4041Q24.9924-60.0037 19.8975-54.3877Q14.8026-48.7717 11.9236-41.4482Q9.04465-34.1248 9.04465-25.5409Q9.04465-17.0975 11.8046-9.8278Q14.5645-2.55814 19.7891 2.90565Q25.0137 8.36945 32.3593 11.4418Q39.7049 14.5142 48.8632 14.5142Z"/>
   <path class="hierarchical-1:secondary SFSymbolsPreview4D4D4D" d="M76.5625-71.154L64.8109-71.154L64.8109-71.3982L76.5038-86.4944Q77.0256-87.1681 77.2972-87.6057Q77.5688-88.0432 77.5688-88.5727Q77.5688-89.344 77.0092-89.7747Q76.4496-90.2054 75.6157-90.2054L61.8538-90.2054Q61.1877-90.2054 60.754-89.7854Q60.3203-89.3654 60.3203-88.7695Q60.3203-88.1599 60.754-87.7224Q61.1877-87.2849 61.8538-87.2849L73.0759-87.2849L73.0759-87.0407L61.377-71.9238Q60.8551-71.2852 60.6083-70.8546Q60.3615-70.4239 60.3615-69.8669Q60.3615-69.0742 60.9074-68.6474Q61.4532-68.2205 62.252-68.2205L76.5625-68.2205Q77.2285-68.2205 77.6623-68.6405Q78.096-69.0605 78.096-69.6838Q78.096-70.2797 77.6623-70.7169Q77.2285-71.154 76.5625-71.154ZM97.0589-53.5431L87.4886-53.5431L87.4886-53.7735L97.0352-65.9866Q97.5433-66.6328 97.7905-67.0635Q98.0377-67.4942 98.0377-68.0237Q98.0377-68.8164 97.4915-69.2402Q96.9452-69.664 96.1739-69.664L84.6329-69.664Q83.9943-69.664 83.5743-69.2333Q83.1543-68.8026 83.1543-68.2205Q83.1543-67.5896 83.5743-67.1764Q83.9943-66.7633 84.6329-66.7633L93.6333-66.7633L93.6333-66.5329L84.1835-54.2992Q83.6761-53.701 83.4358-53.2703Q83.1955-52.8397 83.1955-52.2835Q83.1955-51.5175 83.7276-51.0868Q84.2598-50.6561 85.0311-50.6561L97.0589-50.6561Q97.7463-50.6561 98.1487-51.0624Q98.5512-51.4687 98.5512-52.0996Q98.5512-53.5431 97.0589-53.5431ZM77.1782-38.2851L69.342-38.2851L69.342-38.5506L77.1408-48.4901Q77.6131-49.1364 77.8709-49.5537Q78.1288-49.971 78.1288-50.486Q78.1288-51.2794 77.5898-51.6895Q77.0508-52.0996 76.2581-52.0996L66.5337-52.0996Q65.873-52.0996 65.4774-51.6758Q65.0818-51.252 65.0818-50.6973Q65.0818-50.0664 65.4774-49.667Q65.873-49.2676 66.5337-49.2676L73.8342-49.2676L73.8342-49.0021L66.098-39.0762Q65.5899-38.4079 65.3389-38.0085Q65.0879-37.6091 65.0879-37.0667Q65.0879-36.3144 65.6242-35.8906Q66.1606-35.4668 66.9182-35.4668L77.1782-35.4668Q77.8519-35.4668 78.2581-35.8837Q78.6644-36.3007 78.6644-36.8828Q78.6644-38.2851 77.1782-38.2851Z"/>
  </g>
  <g id="Ultralight-M" transform="matrix(1 0 0 1 507.238 1126)">
   <path class="hierarchical-0:primary SFSymbolsPreview212121" d="M47.8485 13.6627Q56.459 13.6627 63.7516 11.1259Q71.0442 8.58917 76.5511 3.80821Q82.058-0.972748 85.2837-7.81479Q86.0886-9.5047 85.2669-10.3752Q84.4582-11.3205 82.7469-10.7101Q79.7646-9.58405 76.3206-8.88443Q72.8767-8.18481 68.3273-8.18481Q56.884-8.18481 48.5008-12.6232Q40.1176-17.0616 35.5801-25.4765Q31.0425-33.8913 31.0425-45.8206Q31.0425-49.4263 31.707-53.2623Q32.3715-57.0984 34.0462-60.6361Q34.8648-62.41 33.8715-63.4209Q32.8255-64.4806 30.619-63.3118Q24.192-59.7885 19.2566-54.2645Q14.3211-48.7404 11.5139-41.5813Q8.70667-34.4223 8.70667-25.9407Q8.70667-17.6414 11.3743-10.4588Q14.0419-3.27606 19.1383 2.13623Q24.2348 7.54852 31.4728 10.6056Q38.7108 13.6627 47.8485 13.6627Z"/>
   <path class="hierarchical-1:secondary SFSymbolsPreview4D4D4D" d="M75.7935-70.5597L63.8466-70.5597L63.8466-70.8038L75.6325-85.9299Q76.0925-86.5013 76.3435-86.8671Q76.5945-87.233 76.5945-87.7312Q76.5945-88.4003 76.1066-88.7642Q75.6187-89.1281 74.8978-89.1281L61.6791-89.1281Q61.1465-89.1281 60.8002-88.7852Q60.4538-88.4422 60.4538-88.0005Q60.4538-87.5549 60.8002-87.1895Q61.1465-86.824 61.6791-86.824L73.1277-86.824L73.1277-86.5799L61.377-71.4111Q60.9169-70.8855 60.6903-70.5212Q60.4637-70.1569 60.4637-69.6518Q60.4637-68.9407 60.9482-68.5963Q61.4326-68.2518 62.1086-68.2518L75.7935-68.2518Q76.326-68.2518 76.6724-68.5947Q77.0187-68.9377 77.0187-69.3863Q77.0187-69.828 76.6724-70.1939Q76.326-70.5597 75.7935-70.5597ZM95.6024-53.2661L85.5194-53.2661L85.5194-53.5065L95.4872-66.1911Q95.9435-66.7557 96.17-67.1196Q96.3966-67.4835 96.3966-67.9825Q96.3966-68.6935 95.9122-69.0559Q95.4277-69.4183 94.7586-69.4183L83.3412-69.4183Q82.8148-69.4183 82.4718-69.054Q82.1289-68.6897 82.1289-68.2518Q82.1289-67.7643 82.4718-67.4229Q82.8148-67.0815 83.3412-67.0815L92.9153-67.0815L92.9153-66.8411L83.0452-54.1145Q82.589-53.5988 82.3639-53.2349Q82.1388-52.8709 82.1388-52.3651Q82.1388-51.6609 82.6199-51.297Q83.1009-50.9331 83.77-50.9331L95.6024-50.9331Q96.1777-50.9331 96.4977-51.2726Q96.8178-51.6121 96.8178-52.0996Q96.8178-53.2661 95.6024-53.2661ZM76.2039-38.4285L68.0191-38.4285L68.0191-38.7146L76.0841-48.8899Q76.4954-49.4545 76.7429-49.815Q76.9905-50.1755 76.9905-50.6706Q76.9905-51.3817 76.5079-51.7406Q76.0254-52.0996 75.3143-52.0996L65.8157-52.0996Q65.2473-52.0996 64.9288-51.7372Q64.6103-51.3748 64.6103-50.943Q64.6103-50.4562 64.9288-50.1183Q65.2473-49.7803 65.8157-49.7803L73.5367-49.7803L73.5367-49.4942L65.5235-39.3219Q65.0673-38.7161 64.8212-38.3781Q64.5752-38.0402 64.5752-37.5381Q64.5752-36.837 65.0753-36.475Q65.5754-36.113 66.2415-36.113L76.2039-36.113Q76.7746-36.113 77.1145-36.4735Q77.4544-36.834 77.4544-37.2726Q77.4544-38.4285 76.2039-38.4285Z"/>
  </g>
  <g id="Black-S" transform="matrix(1 0 0 1 2883.16 696)">
   <path class="hierarchical-0:primary SFSymbolsPreview212121" d="M46.2402 11.6211Q54.2969 11.6211 61.4746 8.52051Q68.6523 5.41992 74.1211-0.0488281Q79.5898-5.51758 82.5195-12.6953Q84.4238-17.3828 82.2266-19.3848Q79.8828-21.4844 76.1719-19.6777Q73.7305-18.5059 70.3369-17.6758Q66.9434-16.8457 63.4766-16.8457Q55.3223-16.8457 49.0479-20.2637Q42.7734-23.6816 39.2334-29.7119Q35.6934-35.7422 35.6934-43.6035Q35.6934-47.2168 36.5723-51.0498Q37.4512-54.8828 38.8184-57.959Q40.6738-62.0117 38.7207-64.1602Q36.8164-66.4062 32.1777-64.5508Q24.7559-61.5723 19.0186-56.0059Q13.2812-50.4395 10.0586-43.1641Q6.83594-35.8887 6.83594-27.832Q6.83594-19.2871 9.76562-12.085Q12.6953-4.88281 18.0176 0.439453Q23.3398 5.76172 30.5176 8.69141Q37.6953 11.6211 46.2402 11.6211Z"/>
   <path class="hierarchical-1:secondary SFSymbolsPreview4D4D4D" d="M74.0723-69.5801L66.4062-69.5801L66.4062-69.7754L75.8301-80.8594Q77.2949-82.5684 77.2949-84.4238Q77.2949-85.9863 76.2695-86.9873Q75.2441-87.9883 73.584-87.9883L60.2539-87.9883Q56.4453-87.9883 56.4453-84.668Q56.4453-83.1543 57.4951-82.251Q58.5449-81.3477 60.2539-81.3477L67.7246-81.3477L67.7246-81.1523L58.4961-70.166Q57.0312-68.457 57.0312-66.5527Q57.0312-64.9902 58.0566-64.0137Q59.082-63.0371 60.6934-63.0371L74.0723-63.0371Q75.7812-63.0371 76.8311-63.916Q77.8809-64.7949 77.8809-66.3086Q77.8809-69.5801 74.0723-69.5801ZM94.043-53.418L89.9414-53.418L89.9414-53.6133L95.6055-59.8145Q97.0703-61.2793 97.0703-63.2812Q97.0703-64.7949 96.0938-65.7227Q95.1172-66.6504 93.5547-66.6504L84.4238-66.6504Q80.8105-66.6504 80.8105-63.7207Q80.8105-62.3535 81.7871-61.5723Q82.7637-60.791 84.4238-60.791L88.4277-60.791L88.4277-60.5957L83.0566-54.7363Q81.3965-52.9297 81.3965-50.9766Q81.3965-49.4629 82.373-48.5596Q83.3496-47.6562 84.8633-47.6562L94.043-47.6562Q97.6562-47.6562 97.6562-50.5371Q97.6562-53.418 94.043-53.418ZM75.2441-39.5508L71.6309-39.5508L71.6309-39.7461L76.6602-45.0684Q77.3438-45.8008 77.6367-46.5332Q77.9297-47.2656 77.9297-48.1934Q77.9297-49.5117 77.0752-50.3418Q76.2207-51.1719 74.8047-51.1719L65.8203-51.1719Q62.6465-51.1719 62.6465-48.3887Q62.6465-47.168 63.5254-46.4111Q64.4043-45.6543 65.8203-45.6543L69.4336-45.6543L69.4336-45.459L64.6973-40.4297Q63.8184-39.502 63.501-38.7451Q63.1836-37.9883 63.1348-37.0117Q63.0859-35.7422 63.9648-34.9121Q64.8438-34.082 66.2109-34.082L75.2441-34.082Q78.4668-34.082 78.4668-36.8164Q78.4668-39.5508 75.2441-39.5508Z"/>
  </g>
  <g id="Heavy-S" transform="matrix(1 0 0 1 2587.86 696)">
   <path class="hierarchical-0:primary SFSymbolsPreview212121" d="M45.1797 10.4454Q52.9716 10.4454 59.8614 7.54089Q66.7511 4.63638 71.9833-0.555801Q77.2156-5.74799 80.0529-12.661Q81.7383-16.7839 79.7722-18.6012Q77.7504-20.4353 74.4545-18.8713Q72.0367-17.7452 68.7984-17.0132Q65.5602-16.2811 62.1971-16.2811Q53.9391-16.2811 47.6418-19.6934Q41.3445-23.1056 37.8101-29.1702Q34.2758-35.2348 34.2758-43.2114Q34.2758-46.756 35.0857-50.4738Q35.8955-54.1916 37.1475-56.9794Q38.8298-60.5942 37.0956-62.5237Q35.3874-64.5393 31.2675-62.9143Q24.1684-60.1089 18.7191-54.744Q13.2698-49.379 10.2142-42.3344Q7.15866-35.2898 7.15866-27.4635Q7.15866-19.2642 9.99031-12.3444Q12.822-5.4245 17.9543-0.309753Q23.0865 4.80499 30.0106 7.6252Q36.9347 10.4454 45.1797 10.4454Z"/>
   <path class="hierarchical-1:secondary SFSymbolsPreview4D4D4D" d="M71.3638-68.589L63.4903-68.589L63.4903-68.7843L72.776-80.0179Q74.1714-81.7039 74.1714-83.3519Q74.1714-84.7763 73.2327-85.6735Q72.2939-86.5707 70.7832-86.5707L57.6035-86.5707Q54.1748-86.5707 54.1748-83.5152Q54.1748-82.1175 55.1266-81.2889Q56.0783-80.4604 57.6035-80.4604L65.2122-80.4604L65.2122-80.265L56.0417-69.117Q54.6455-67.4431 54.6455-65.7349Q54.6455-64.3333 55.5786-63.4434Q56.5117-62.5534 57.9849-62.5534L71.3638-62.5534Q72.9004-62.5534 73.8522-63.3629Q74.8039-64.1724 74.8039-65.5823Q74.8039-68.589 71.3638-68.589ZM90.966-52.7382L86.4723-52.7382L86.4723-52.9221L92.2287-59.5375Q93.6012-61.0146 93.6012-62.7625Q93.6012-64.1266 92.7055-64.962Q91.8098-65.7974 90.3854-65.7974L81.1852-65.7974Q77.9297-65.7974 77.9297-63.0753Q77.9297-61.7889 78.8197-61.0596Q79.7096-60.3302 81.1852-60.3302L85.4546-60.3302L85.4546-60.1463L79.9332-53.8025Q78.4119-52.0996 78.4119-50.3426Q78.4119-48.9906 79.2961-48.1678Q80.1804-47.345 81.5674-47.345L90.966-47.345Q94.2223-47.345 94.2223-50.0412Q94.2223-52.7382 90.966-52.7382ZM72.5357-38.9862L68.6111-38.9862L68.6111-39.1701L73.6755-44.8837Q74.3355-45.6276 74.617-46.3024Q74.8985-46.9772 74.8985-47.8134Q74.8985-49.0158 74.1016-49.7711Q73.3047-50.5264 72.0154-50.5264L63.1699-50.5264Q60.2722-50.5264 60.2722-47.9393Q60.2722-46.788 61.0764-46.0827Q61.8805-45.3773 63.1699-45.3773L66.9441-45.3773L66.9441-45.1942L62.104-39.7148Q61.306-38.8336 61.0115-38.1344Q60.717-37.4352 60.6804-36.5509Q60.643-35.3966 61.441-34.6355Q62.2391-33.8745 63.5025-33.8745L72.5357-33.8745Q75.4585-33.8745 75.4585-36.4365Q75.4585-38.9862 72.5357-38.9862Z"/>
  </g>
  <g id="Bold-S" transform="matrix(1 0 0 1 2292.72 696)">
   <path class="hierarchical-0:primary SFSymbolsPreview212121" d="M43.9941 9.13086Q51.4893 9.13086 58.0566 6.44531Q64.624 3.75977 69.5923-1.12305Q74.5605-6.00586 77.2949-12.6221Q78.7354-16.1133 77.0264-17.7246Q75.3662-19.2627 72.5342-17.9688Q70.1416-16.8945 67.0776-16.272Q64.0137-15.6494 60.7666-15.6494Q52.3926-15.6494 46.0693-19.0552Q39.7461-22.4609 36.2183-28.5645Q32.6904-34.668 32.6904-42.7734Q32.6904-46.2402 33.4229-49.8291Q34.1553-53.418 35.2783-55.8838Q36.7676-59.0088 35.2783-60.6934Q33.7891-62.4512 30.249-61.084Q23.5107-58.4717 18.3838-53.3325Q13.2568-48.1934 10.3882-41.4062Q7.51953-34.6191 7.51953-27.0508Q7.51953-19.2383 10.2417-12.6343Q12.9639-6.03027 17.8833-1.14746Q22.8027 3.73535 29.4434 6.43311Q36.084 9.13086 43.9941 9.13086Z"/>
   <path class="hierarchical-1:secondary SFSymbolsPreview4D4D4D" d="M68.335-67.4805L60.2295-67.4805L60.2295-67.6758L69.3604-79.0771Q70.6787-80.7373 70.6787-82.1533Q70.6787-83.4229 69.8364-84.2041Q68.9941-84.9854 67.6514-84.9854L54.6387-84.9854Q51.6357-84.9854 51.6357-82.2266Q51.6357-80.957 52.478-80.2124Q53.3203-79.4678 54.6387-79.4678L62.4023-79.4678L62.4023-79.2725L53.2959-67.9443Q51.9775-66.3086 51.9775-64.8193Q51.9775-63.5986 52.8076-62.8052Q53.6377-62.0117 54.9561-62.0117L68.335-62.0117Q69.6777-62.0117 70.52-62.7441Q71.3623-63.4766 71.3623-64.7705Q71.3623-67.4805 68.335-67.4805ZM87.5244-51.9775L82.5928-51.9775L82.5928-52.1484L88.4521-59.2285Q89.7217-60.7178 89.7217-62.1826Q89.7217-63.3789 88.916-64.1113Q88.1104-64.8438 86.8408-64.8438L77.5635-64.8438Q74.707-64.8438 74.707-62.3535Q74.707-61.1572 75.5005-60.4858Q76.2939-59.8145 77.5635-59.8145L82.1289-59.8145L82.1289-59.6436L76.4404-52.7588Q75.0732-51.1719 75.0732-49.6338Q75.0732-48.4619 75.8545-47.7295Q76.6357-46.9971 77.8809-46.9971L87.5244-46.9971Q90.3809-46.9971 90.3809-49.4873Q90.3809-51.9775 87.5244-51.9775ZM69.5068-38.3545L65.2344-38.3545L65.2344-38.5254L70.3369-44.6777Q70.9717-45.4346 71.2402-46.0449Q71.5088-46.6553 71.5088-47.3877Q71.5088-48.4619 70.7764-49.1333Q70.0439-49.8047 68.8965-49.8047L60.2051-49.8047Q57.6172-49.8047 57.6172-47.4365Q57.6172-46.3623 58.3374-45.7153Q59.0576-45.0684 60.2051-45.0684L64.1602-45.0684L64.1602-44.8975L59.2041-38.916Q58.4961-38.0859 58.2275-37.4512Q57.959-36.8164 57.9346-36.0352Q57.9102-35.0098 58.6182-34.3262Q59.3262-33.6426 60.4736-33.6426L69.5068-33.6426Q72.0947-33.6426 72.0947-36.0107Q72.0947-38.3545 69.5068-38.3545Z"/>
  </g>
  <g id="Semibold-S" transform="matrix(1 0 0 1 1997.1 696)">
   <path class="hierarchical-0:primary SFSymbolsPreview212121" d="M43.1763 8.22449Q50.4669 8.22449 56.8123 5.69Q63.1577 3.15552 67.9436-1.51405Q72.7295-6.18362 75.3929-12.5954Q76.6647-15.6509 75.1335-17.1204Q73.7221-18.454 71.2097-17.347Q68.8354-16.3078 65.8913-15.7608Q62.9471-15.2138 59.7801-15.2138Q51.326-15.2138 44.9852-18.6153Q38.6444-22.0169 35.1208-28.1467Q31.5971-34.2766 31.5971-42.4713Q31.5971-45.8847 32.2762-49.3847Q32.9552-52.8847 33.9897-55.1285Q35.3455-57.9155 34.0256-59.4315Q32.6874-61.0115 29.5471-59.8221Q23.0576-57.3433 18.1526-52.3594Q13.2477-47.3755 10.508-40.7661Q7.76825-34.1568 7.76825-26.7662Q7.76825-19.2207 10.4149-12.8342Q13.0615-6.4476 17.8345-1.72501Q22.6074 2.99759 29.0524 5.61104Q35.4973 8.22449 43.1763 8.22449Z"/>
   <path class="hierarchical-1:secondary SFSymbolsPreview4D4D4D" d="M66.2468-66.716L57.9811-66.716L57.9811-66.9113L67.0052-78.4286Q68.2701-80.0705 68.2701-81.3271Q68.2701-82.4898 67.4946-83.1909Q66.7191-83.8921 65.4915-83.8921L52.5948-83.8921Q49.8848-83.8921 49.8848-81.3377Q49.8848-80.1575 50.6516-79.4704Q51.4183-78.7834 52.5948-78.7834L60.4652-78.7834L60.4652-78.5881L51.403-67.1356Q50.1381-65.5266 50.1381-64.1884Q50.1381-63.092 50.8968-62.3653Q51.6556-61.6386 52.8679-61.6386L66.2468-61.6386Q67.4561-61.6386 68.2228-62.3177Q68.9896-62.9967 68.9896-64.2105Q68.9896-66.716 66.2468-66.716ZM85.1517-51.4534L79.9179-51.4534L79.9179-51.6151L85.8482-59.0149Q87.0468-60.5133 87.0468-61.7828Q87.0468-62.8632 86.3033-63.5246Q85.5598-64.1861 84.3971-64.1861L75.0664-64.1861Q72.4854-64.1861 72.4854-61.8561Q72.4854-60.7216 73.2121-60.0903Q73.9388-59.4589 75.0664-59.4589L79.8363-59.4589L79.8363-59.2972L74.0318-52.0386Q72.7715-50.5318 72.7715-49.1447Q72.7715-48.0972 73.4818-47.427Q74.192-46.7567 75.3395-46.7567L85.1517-46.7567Q87.7327-46.7567 87.7327-49.1051Q87.7327-51.4534 85.1517-51.4534ZM67.4187-37.9189L62.9059-37.9189L62.9059-38.0814L68.0351-44.5358Q68.6523-45.3011 68.9117-45.8672Q69.1711-46.4333 69.1711-47.0947Q69.1711-48.0797 68.4834-48.6935Q67.7956-49.3073 66.7458-49.3073L58.1612-49.3073Q55.7861-49.3073 55.7861-47.0901Q55.7861-46.0693 56.4487-45.462Q57.1114-44.8547 58.1612-44.8547L62.2406-44.8547L62.2406-44.693L57.2044-38.3652Q56.559-37.5702 56.308-36.9801Q56.057-36.3899 56.0417-35.6796Q56.0265-34.7435 56.6719-34.1129Q57.3174-33.4824 58.3855-33.4824L67.4187-33.4824Q69.7754-33.4824 69.7754-35.7178Q69.7754-37.9189 67.4187-37.9189Z"/>
  </g>
  <g id="Medium-S" transform="matrix(1 0 0 1 1701.22 696)">
   <path class="hierarchical-0:primary SFSymbolsPreview212121" d="M42.5568 7.53708Q49.6925 7.53708 55.8693 5.11703Q62.0461 2.69699 66.6939-1.81084Q71.3417-6.31866 73.951-12.5755Q75.0946-15.3008 73.6984-16.6618Q72.4754-17.8406 70.2057-16.8747Q67.8444-15.863 64.9914-15.3732Q62.1384-14.8834 59.0324-14.8834Q50.5173-14.8834 44.1628-18.2816Q37.8082-21.6797 34.2884-27.8301Q30.7686-33.9806 30.7686-42.2424Q30.7686-45.6154 31.4072-49.0479Q32.0457-52.4803 33.0124-54.5555Q34.2674-57.0869 33.075-58.4747Q31.8512-59.9197 29.0146-58.8654Q22.7135-56.4873 17.9775-51.6216Q13.2416-46.756 10.5991-40.2813Q7.9567-33.8066 7.9567-26.5511Q7.9567-19.207 10.5461-12.986Q13.1355-6.76498 17.7971-2.16331Q22.4586 2.43835 28.7556 4.98772Q35.0525 7.53708 42.5568 7.53708Z"/>
   <path class="hierarchical-1:secondary SFSymbolsPreview4D4D4D" d="M64.6629-66.1369L56.2759-66.1369L56.2759-66.3322L65.2199-77.9366Q66.4444-79.5654 66.4444-80.6999Q66.4444-81.7825 65.7192-82.423Q64.994-83.0635 63.8542-83.0635L51.0445-83.0635Q48.5573-83.0635 48.5573-80.6641Q48.5573-79.5509 49.2668-78.9078Q49.9763-78.2646 51.0445-78.2646L58.9958-78.2646L58.9958-78.0693L49.968-66.5222Q48.7434-64.9338 48.7434-63.71Q48.7434-62.7083 49.4484-62.0319Q50.1534-61.3556 51.284-61.3556L64.6629-61.3556Q65.7715-61.3556 66.481-61.9942Q67.1906-62.6328 67.1906-63.7863Q67.1906-66.1369 64.6629-66.1369ZM83.3527-51.0559L77.8893-51.0559L77.8893-51.2108L83.8737-58.8531Q85.0182-60.3584 85.0182-61.4792Q85.0182-62.4725 84.322-63.0798Q83.6258-63.6871 82.5439-63.6871L73.1728-63.6871Q70.8008-63.6871 70.8008-61.4784Q70.8008-60.3912 71.4771-59.7904Q72.1535-59.1896 73.1728-59.1896L78.0975-59.1896L78.0975-59.034L72.2061-51.4931Q71.0266-50.0465 71.0266-48.7747Q71.0266-47.821 71.6827-47.1981Q72.3389-46.5752 73.4123-46.5752L83.3527-46.5752Q85.7246-46.5752 85.7246-48.8152Q85.7246-51.0559 83.3527-51.0559ZM65.8348-37.5885L61.1404-37.5885L61.1404-37.7441L66.2903-44.4275Q66.8938-45.2003 67.1467-45.7325Q67.3996-46.2646 67.3996-46.8719Q67.3996-47.7898 66.745-48.3597Q66.0904-48.9296 65.1154-48.9296L56.6109-48.9296Q54.3983-48.9296 54.3983-46.8269Q54.3983-45.8466 55.0171-45.2698Q55.6358-44.693 56.6109-44.693L60.7849-44.693L60.7849-44.5381L55.6885-37.9471Q55.0896-37.1796 54.8523-36.623Q54.615-36.0664 54.6066-35.4103Q54.5975-34.5413 55.196-33.9512Q55.7945-33.3611 56.8016-33.3611L65.8348-33.3611Q68.0168-33.3611 68.0168-35.495Q68.0168-37.5885 65.8348-37.5885Z"/>
  </g>
  <g id="Regular-S" transform="matrix(1 0 0 1 1405.58 696)">
   <path class="hierarchical-0:primary SFSymbolsPreview212121" d="M41.748 6.64062Q48.6816 6.64062 54.6387 4.37012Q60.5957 2.09961 65.0635-2.19727Q69.5312-6.49414 72.0703-12.5488Q73.0469-14.8438 71.8262-16.0645Q70.8496-17.041 68.8965-16.2598Q66.5527-15.2832 63.8184-14.8682Q61.084-14.4531 58.0566-14.4531Q49.4629-14.4531 43.0908-17.8467Q36.7188-21.2402 33.2031-27.417Q29.6875-33.5938 29.6875-41.9434Q29.6875-45.2637 30.2734-48.6084Q30.8594-51.9531 31.7383-53.8086Q32.8613-56.0059 31.8359-57.2266Q30.7617-58.4961 28.3203-57.6172Q22.2656-55.3711 17.749-50.6592Q13.2324-45.9473 10.7178-39.6484Q8.20312-33.3496 8.20312-26.2695Q8.20312-19.1895 10.7178-13.1836Q13.2324-7.17773 17.749-2.73438Q22.2656 1.70898 28.3691 4.1748Q34.4727 6.64062 41.748 6.64062Z"/>
   <path class="hierarchical-1:secondary SFSymbolsPreview4D4D4D" d="M62.5977-65.3809L54.0527-65.3809L54.0527-65.5762L62.8906-77.2949Q64.0625-78.9062 64.0625-79.8828Q64.0625-80.8594 63.4033-81.4209Q62.7441-81.9824 61.7188-81.9824L49.0234-81.9824Q46.8262-81.9824 46.8262-79.7852Q46.8262-78.7598 47.4609-78.1738Q48.0957-77.5879 49.0234-77.5879L57.0801-77.5879L57.0801-77.3926L48.0957-65.7227Q46.9238-64.1602 46.9238-63.0859Q46.9238-62.207 47.5586-61.5967Q48.1934-60.9863 49.2188-60.9863L62.5977-60.9863Q63.5742-60.9863 64.209-61.5723Q64.8438-62.1582 64.8438-63.2324Q64.8438-65.3809 62.5977-65.3809ZM81.0059-50.5371L75.2441-50.5371L75.2441-50.6836L81.2988-58.6426Q82.373-60.1562 82.373-61.084Q82.373-61.9629 81.7383-62.5Q81.1035-63.0371 80.127-63.0371L70.7031-63.0371Q68.6035-63.0371 68.6035-60.9863Q68.6035-59.9609 69.2139-59.3994Q69.8242-58.8379 70.7031-58.8379L75.8301-58.8379L75.8301-58.6914L69.8242-50.7812Q68.75-49.4141 68.75-48.291Q68.75-47.4609 69.3359-46.8994Q69.9219-46.3379 70.8984-46.3379L81.0059-46.3379Q83.1055-46.3379 83.1055-48.4375Q83.1055-50.5371 81.0059-50.5371ZM63.7695-37.1582L58.8379-37.1582L58.8379-37.3047L64.0137-44.2871Q64.5996-45.0684 64.8438-45.5566Q65.0879-46.0449 65.0879-46.582Q65.0879-47.4121 64.4775-47.9248Q63.8672-48.4375 62.9883-48.4375L54.5898-48.4375Q52.5879-48.4375 52.5879-46.4844Q52.5879-45.5566 53.1494-45.0195Q53.7109-44.4824 54.5898-44.4824L58.8867-44.4824L58.8867-44.3359L53.7109-37.4023Q53.1738-36.6699 52.9541-36.1572Q52.7344-35.6445 52.7344-35.0586Q52.7344-34.2773 53.2715-33.7402Q53.8086-33.2031 54.7363-33.2031L63.7695-33.2031Q65.7227-33.2031 65.7227-35.2051Q65.7227-37.1582 63.7695-37.1582Z"/>
  </g>
  <g id="Light-S" transform="matrix(1 0 0 1 1109.85 696)">
   <path class="hierarchical-0:primary SFSymbolsPreview212121" d="M40.416 5.52063Q47.2893 5.52063 53.1704 3.34091Q59.0515 1.16119 63.4739-2.96173Q67.8963-7.08466 70.4353-12.9272Q71.2914-14.9193 70.2675-15.9737Q69.3817-16.8747 67.6247-16.1842Q65.2809-15.2374 62.5618-14.7846Q59.8427-14.3318 56.649-14.3318Q47.934-14.3318 41.5012-17.7483Q35.0685-21.1647 31.5456-27.47Q28.0228-33.7753 28.0228-42.4431Q28.0228-45.5963 28.5858-48.8354Q29.1489-52.0744 30.1643-54.2328Q31.1356-56.1722 30.1857-57.2571Q29.1878-58.39 26.973-57.4959Q21.2364-55.0987 16.9167-50.5077Q12.5969-45.9167 10.1807-39.83Q7.76443-33.7433 7.76443-26.799Q7.76443-19.9005 10.1501-14.0083Q12.5359-8.11615 16.8861-3.73344Q21.2364 0.649261 27.2114 3.08495Q33.1863 5.52063 40.416 5.52063Z"/>
   <path class="hierarchical-1:secondary SFSymbolsPreview4D4D4D" d="M61.599-64.6088L52.7962-64.6088L52.7962-64.8041L61.7554-76.5686Q62.7907-77.9526 62.7907-78.7781Q62.7907-79.6181 62.2227-80.0964Q61.6547-80.5748 60.7803-80.5748L48.8113-80.5748Q46.9925-80.5748 46.9925-78.7865Q46.9925-77.9572 47.514-77.4696Q48.0354-76.9821 48.8113-76.9821L57.1404-76.9821L57.1404-76.7868L48.0957-65.0566Q47.0604-63.7062 47.0604-62.8136Q47.0604-62.0407 47.6192-61.5288Q48.1781-61.0168 49.0524-61.0168L61.599-61.0168Q62.3932-61.0168 62.9147-61.5044Q63.4361-61.9919 63.4361-62.8387Q63.4361-64.6088 61.599-64.6088ZM79.0985-50.1587L72.6707-50.1587L72.6707-50.3204L79.2702-58.8997Q80.2391-60.2165 80.2391-61.0237Q80.2391-61.7966 79.6799-62.2578Q79.1206-62.719 78.2806-62.719L69.0231-62.719Q67.2714-62.719 67.2714-61.0168Q67.2714-60.2028 67.7757-59.7324Q68.28-59.2621 69.0231-59.2621L74.8917-59.2621L74.8917-59.1003L68.3411-50.5539Q67.3729-49.3385 67.3729-48.3971Q67.3729-47.6578 67.8982-47.187Q68.4235-46.7163 69.2635-46.7163L79.0985-46.7163Q80.8502-46.7163 80.8502-48.4375Q80.8502-50.1587 79.0985-50.1587ZM62.4977-37.3398L57.1121-37.3398L57.1121-37.5015L62.6366-44.8021Q63.1462-45.4773 63.3755-45.8973Q63.6047-46.3173 63.6047-46.8094Q63.6047-47.5487 63.0623-47.9931Q62.5198-48.4375 61.747-48.4375L53.6514-48.4375Q51.9676-48.4375 51.9676-46.8025Q51.9676-46.0564 52.438-45.6024Q52.9083-45.1485 53.6514-45.1485L58.4778-45.1485L58.4778-44.9867L52.9694-37.7205Q52.4925-37.0789 52.2804-36.6417Q52.0683-36.2045 52.0683-35.6789Q52.0683-34.9739 52.56-34.5123Q53.0518-34.0508 53.8582-34.0508L62.4977-34.0508Q64.1487-34.0508 64.1487-35.7201Q64.1487-37.3398 62.4977-37.3398Z"/>
  </g>
  <g id="Thin-S" transform="matrix(1 0 0 1 814.445 696)">
   <path class="hierarchical-0:primary SFSymbolsPreview212121" d="M38.6543 4.039Q45.4475 4.039 51.2287 1.97945Q57.0099-0.0801086 61.3724-3.97263Q65.7349-7.86514 68.2739-13.4277Q68.969-15.0192 68.2053-15.8539Q67.4393-16.6542 65.9431-16.0843Q63.5994-15.1779 60.9005-14.6748Q58.2016-14.1716 54.7874-14.1716Q45.9122-14.1716 39.3993-17.6182Q32.8865-21.0648 29.3533-27.5402Q25.8202-34.0157 25.8202-43.1038Q25.8202-46.0373 26.3535-49.136Q26.8867-52.2346 28.0823-54.7928Q28.8536-56.3927 28.0037-57.2968Q27.1057-58.2497 25.1915-57.3357Q19.8753-54.7386 15.8157-50.3078Q11.7561-45.8771 9.46999-40.0703Q7.18384-34.2636 7.18384-27.5002Q7.18384-20.842 9.39941-15.0997Q11.615-9.35745 15.7452-5.05447Q19.8753-0.751495 25.6798 1.64375Q31.4842 4.039 38.6543 4.039Z"/>
   <path class="hierarchical-1:secondary SFSymbolsPreview4D4D4D" d="M60.2776-63.588L51.1353-63.588L51.1353-63.7833L60.2539-75.6073Q61.1092-76.6914 61.1092-77.3163Q61.1092-77.977 60.6609-78.3451Q60.2127-78.7132 59.539-78.7132L48.5313-78.7132Q47.213-78.7132 47.213-77.4651Q47.213-76.8967 47.5842-76.5392Q47.9553-76.1818 48.5313-76.1818L57.2205-76.1818L57.2205-75.9865L48.0957-64.1762Q47.2404-63.1058 47.2404-62.4535Q47.2404-61.8202 47.6994-61.4384Q48.1583-61.0565 48.8319-61.0565L60.2776-61.0565Q60.8322-61.0565 61.2034-61.414Q61.5746-61.7714 61.5746-62.3184Q61.5746-63.588 60.2776-63.588ZM76.5762-49.6582L69.268-49.6582L69.268-49.8398L76.5884-59.24Q77.4162-60.2966 77.4162-60.9436Q77.4162-61.5761 76.9573-61.9373Q76.4984-62.2986 75.8377-62.2986L66.8007-62.2986Q65.5098-62.2986 65.5098-61.0565Q65.5098-60.5232 65.8741-60.1727Q66.2384-59.8221 66.8007-59.8221L73.6504-59.8221L73.6504-59.6405L66.3788-50.2541Q65.551-49.2386 65.551-48.5374Q65.551-47.9179 65.9962-47.5674Q66.4413-47.2168 67.1021-47.2168L76.5762-47.2168Q77.8671-47.2168 77.8671-48.4375Q77.8671-49.6582 76.5762-49.6582ZM60.8162-37.5801L54.8302-37.5801L54.8302-37.7617L60.8147-45.4826Q61.2251-46.0175 61.4338-46.3474Q61.6425-46.6774 61.6425-47.1092Q61.6425-47.7287 61.1904-48.0831Q60.7384-48.4375 60.1059-48.4375L52.4101-48.4375Q51.1467-48.4375 51.1467-47.2229Q51.1467-46.7171 51.4973-46.373Q51.8478-46.0289 52.4101-46.0289L57.9376-46.0289L57.9376-45.8473L51.9882-38.1409Q51.5915-37.619 51.3897-37.2822Q51.1879-36.9453 51.1879-36.4998Q51.1879-35.8948 51.6193-35.5331Q52.0508-35.1715 52.697-35.1715L60.8162-35.1715Q62.0667-35.1715 62.0667-36.4006Q62.0667-37.5801 60.8162-37.5801Z"/>
  </g>
  <g id="Ultralight-S" transform="matrix(1 0 0 1 518.4 696)">
   <path class="hierarchical-0:primary SFSymbolsPreview212121" d="M37.7518 3.28064Q44.5038 3.28064 50.2338 1.2825Q55.9639-0.715637 60.2955-4.49028Q64.6271-8.26492 67.1661-13.6841Q67.7795-15.0711 67.1486-15.7921Q66.4452-16.5413 65.0818-16.0324Q62.738-15.1466 60.0491-14.6183Q57.3601-14.09 53.8338-14.09Q44.8769-14.09 38.3228-17.5514Q31.7688-21.0129 28.2307-27.5757Q24.6925-34.1385 24.6925-43.4418Q24.6925-46.2624 25.2102-49.2893Q25.7278-52.3163 27.0157-55.0804Q27.6848-56.5056 26.886-57.3174Q26.0391-58.1779 24.279-57.254Q19.178-54.554 15.2515-50.2052Q11.3251-45.8565 9.10568-40.1936Q6.88629-34.5306 6.88629-27.8587Q6.88629-21.3234 9.01489-15.6582Q11.1435-9.99298 15.1608-5.7312Q19.178-1.46942 24.8955 0.905609Q30.6129 3.28064 37.7518 3.28064Z"/>
   <path class="hierarchical-1:secondary SFSymbolsPreview4D4D4D" d="M59.6008-63.0653L50.2838-63.0653L50.2838-63.2607L59.4849-75.1152Q60.2478-76.0452 60.2478-76.5678Q60.2478-77.1355 59.8614-77.4475Q59.4749-77.7596 58.9035-77.7596L48.3879-77.7596Q47.3259-77.7596 47.3259-76.7883Q47.3259-76.3527 47.62-76.062Q47.9141-75.7713 48.3879-75.7713L57.2617-75.7713L57.2617-75.576L48.0957-63.7245Q47.3328-62.7975 47.3328-62.2688Q47.3328-61.7073 47.7402-61.3922Q48.1476-61.0771 48.719-61.0771L59.6008-61.0771Q60.0319-61.0771 60.3264-61.3678Q60.6209-61.6585 60.6209-62.0514Q60.6209-63.0653 59.6008-63.0653ZM75.2846-49.4019L67.5247-49.4019L67.5247-49.5941L75.2136-59.4147Q75.9705-60.3378 75.9705-60.9024Q75.9705-61.4632 75.5627-61.7733Q75.1549-62.0834 74.5872-62.0834L65.6624-62.0834Q64.6072-62.0834 64.6072-61.0771Q64.6072-60.6873 64.8998-60.3985Q65.1924-60.1097 65.6624-60.1097L73.0148-60.1097L73.0148-59.9174L65.374-50.0999Q64.6179-49.1867 64.6179-48.6092Q64.6179-48.0515 65.0223-47.7623Q65.4266-47.4731 65.9943-47.4731L75.2846-47.4731Q76.3397-47.4731 76.3397-48.4375Q76.3397-49.4019 75.2846-49.4019ZM59.9548-37.7029L53.6613-37.7029L53.6613-37.8952L59.8816-45.8313Q60.2402-46.2944 60.4389-46.5782Q60.6377-46.862 60.6377-47.2633Q60.6377-47.821 60.2318-48.1293Q59.8259-48.4375 59.2644-48.4375L51.7746-48.4375Q50.7263-48.4375 50.7263-47.438Q50.7263-47.0551 51.0151-46.7678Q51.3039-46.4806 51.7746-46.4806L57.6607-46.4806L57.6607-46.2883L51.4862-38.356Q51.1307-37.896 50.9335-37.6102Q50.7362-37.3245 50.7362-36.9202Q50.7362-36.3663 51.1372-36.0561Q51.5381-35.746 52.1027-35.746L59.9548-35.746Q61.0001-35.746 61.0001-36.7493Q61.0001-37.7029 59.9548-37.7029Z"/>
  </g>
 </g>
</svg>
