<?xml version="1.0" encoding="UTF-8"?>
<!--Generator: Apple Native CoreSVG 175-->
<!DOCTYPE svg
PUBLIC "-//W3C//DTD SVG 1.1//EN"
       "http://www.w3.org/Graphics/SVG/1.1/DTD/svg11.dtd">
<svg version="1.1" xmlns="http://www.w3.org/2000/svg" xmlns:xlink="http://www.w3.org/1999/xlink" width="3300" height="2200">
 <!--glyph: "uni100202.medium", point size: 100.0, font version: "17.0d11e1", template writer version: "65.1"-->
 <style>.hierarchical-0:secondary {fill:#4D4D4D}
.hierarchical-1:primary {fill:#212121}

.SFSymbolsPreview212121 {fill:#212121;opacity:1.0}
.SFSymbolsPreview4D4D4D {fill:#4D4D4D;opacity:1.0}
</style>
 <g id="Notes">
  <rect height="2200" id="artboard" style="fill:white;opacity:1" width="3300" x="0" y="0"/>
  <line style="fill:none;stroke:black;opacity:1;stroke-width:0.5;" x1="263" x2="3036" y1="292" y2="292"/>
  <text style="stroke:none;fill:black;font-family:sans-serif;font-size:13;font-weight:bold;" transform="matrix(1 0 0 1 263 322)">Weight/Scale Variations</text>
  <text style="stroke:none;fill:black;font-family:sans-serif;font-size:13;text-anchor:middle;" transform="matrix(1 0 0 1 559.711 322)">Ultralight</text>
  <text style="stroke:none;fill:black;font-family:sans-serif;font-size:13;text-anchor:middle;" transform="matrix(1 0 0 1 856.422 322)">Thin</text>
  <text style="stroke:none;fill:black;font-family:sans-serif;font-size:13;text-anchor:middle;" transform="matrix(1 0 0 1 1153.13 322)">Light</text>
  <text style="stroke:none;fill:black;font-family:sans-serif;font-size:13;text-anchor:middle;" transform="matrix(1 0 0 1 1449.84 322)">Regular</text>
  <text style="stroke:none;fill:black;font-family:sans-serif;font-size:13;text-anchor:middle;" transform="matrix(1 0 0 1 1746.56 322)">Medium</text>
  <text style="stroke:none;fill:black;font-family:sans-serif;font-size:13;text-anchor:middle;" transform="matrix(1 0 0 1 2043.27 322)">Semibold</text>
  <text style="stroke:none;fill:black;font-family:sans-serif;font-size:13;text-anchor:middle;" transform="matrix(1 0 0 1 2339.98 322)">Bold</text>
  <text style="stroke:none;fill:black;font-family:sans-serif;font-size:13;text-anchor:middle;" transform="matrix(1 0 0 1 2636.69 322)">Heavy</text>
  <text style="stroke:none;fill:black;font-family:sans-serif;font-size:13;text-anchor:middle;" transform="matrix(1 0 0 1 2933.4 322)">Black</text>
  <line style="fill:none;stroke:black;opacity:1;stroke-width:0.5;" x1="263" x2="3036" y1="1903" y2="1903"/>
  <g transform="matrix(1 0 0 1 263 1933)">
   <path d="M9.24805 0.830078Q10.8691 0.830078 12.2949 0.214844Q13.7207-0.400391 14.8096-1.49414Q15.8984-2.58789 16.5186-4.01367Q17.1387-5.43945 17.1387-7.05078Q17.1387-8.66211 16.5186-10.0879Q15.8984-11.5137 14.8047-12.6074Q13.7109-13.7012 12.2852-14.3164Q10.8594-14.9316 9.23828-14.9316Q7.62695-14.9316 6.20117-14.3164Q4.77539-13.7012 3.69141-12.6074Q2.60742-11.5137 1.9873-10.0879Q1.36719-8.66211 1.36719-7.05078Q1.36719-5.43945 1.9873-4.01367Q2.60742-2.58789 3.69629-1.49414Q4.78516-0.400391 6.21094 0.214844Q7.63672 0.830078 9.24805 0.830078ZM9.24805-0.654297Q7.91992-0.654297 6.7627-1.14746Q5.60547-1.64062 4.73145-2.51953Q3.85742-3.39844 3.36426-4.56055Q2.87109-5.72266 2.87109-7.05078Q2.87109-8.37891 3.35938-9.54102Q3.84766-10.7031 4.72168-11.582Q5.5957-12.4609 6.75293-12.9541Q7.91016-13.4473 9.23828-13.4473Q10.5762-13.4473 11.7334-12.9541Q12.8906-12.4609 13.7695-11.582Q14.6484-10.7031 15.1465-9.54102Q15.6445-8.37891 15.6445-7.05078Q15.6445-5.72266 15.1514-4.56055Q14.6582-3.39844 13.7842-2.51953Q12.9102-1.64062 11.748-1.14746Q10.5859-0.654297 9.24805-0.654297ZM5.6543-7.05078Q5.6543-6.72852 5.85938-6.52832Q6.06445-6.32812 6.40625-6.32812L8.51562-6.32812L8.51562-4.20898Q8.51562-3.88672 8.71094-3.67676Q8.90625-3.4668 9.23828-3.4668Q9.56055-3.4668 9.77051-3.67676Q9.98047-3.88672 9.98047-4.20898L9.98047-6.32812L12.0898-6.32812Q12.4219-6.32812 12.627-6.52832Q12.832-6.72852 12.832-7.05078Q12.832-7.38281 12.627-7.58789Q12.4219-7.79297 12.0898-7.79297L9.98047-7.79297L9.98047-9.90234Q9.98047-10.2344 9.77051-10.4443Q9.56055-10.6543 9.23828-10.6543Q8.90625-10.6543 8.71094-10.4443Q8.51562-10.2344 8.51562-9.90234L8.51562-7.79297L6.40625-7.79297Q6.06445-7.79297 5.85938-7.58789Q5.6543-7.38281 5.6543-7.05078Z"/>
  </g>
  <g transform="matrix(1 0 0 1 281.867 1933)">
   <path d="M11.709 2.91016Q13.75 2.91016 15.5518 2.12891Q17.3535 1.34766 18.7305-0.0292969Q20.1074-1.40625 20.8887-3.20801Q21.6699-5.00977 21.6699-7.05078Q21.6699-9.0918 20.8887-10.8936Q20.1074-12.6953 18.7305-14.0723Q17.3535-15.4492 15.5469-16.2305Q13.7402-17.0117 11.6992-17.0117Q9.6582-17.0117 7.85645-16.2305Q6.05469-15.4492 4.68262-14.0723Q3.31055-12.6953 2.5293-10.8936Q1.74805-9.0918 1.74805-7.05078Q1.74805-5.00977 2.5293-3.20801Q3.31055-1.40625 4.6875-0.0292969Q6.06445 1.34766 7.86621 2.12891Q9.66797 2.91016 11.709 2.91016ZM11.709 1.25Q9.98047 1.25 8.47656 0.605469Q6.97266-0.0390625 5.83496-1.17676Q4.69727-2.31445 4.05762-3.81836Q3.41797-5.32227 3.41797-7.05078Q3.41797-8.7793 4.05762-10.2832Q4.69727-11.7871 5.83008-12.9297Q6.96289-14.0723 8.4668-14.7119Q9.9707-15.3516 11.6992-15.3516Q13.4277-15.3516 14.9316-14.7119Q16.4355-14.0723 17.5781-12.9297Q18.7207-11.7871 19.3652-10.2832Q20.0098-8.7793 20.0098-7.05078Q20.0098-5.32227 19.3701-3.81836Q18.7305-2.31445 17.5928-1.17676Q16.4551-0.0390625 14.9463 0.605469Q13.4375 1.25 11.709 1.25ZM7.17773-7.05078Q7.17773-6.69922 7.41211-6.47461Q7.64648-6.25 8.01758-6.25L10.8887-6.25L10.8887-3.36914Q10.8887-2.99805 11.1133-2.76855Q11.3379-2.53906 11.6895-2.53906Q12.0605-2.53906 12.29-2.76855Q12.5195-2.99805 12.5195-3.36914L12.5195-6.25L15.4004-6.25Q15.7715-6.25 16.001-6.47461Q16.2305-6.69922 16.2305-7.05078Q16.2305-7.42188 16.001-7.65137Q15.7715-7.88086 15.4004-7.88086L12.5195-7.88086L12.5195-10.752Q12.5195-11.1328 12.29-11.3623Q12.0605-11.5918 11.6895-11.5918Q11.3379-11.5918 11.1133-11.3574Q10.8887-11.123 10.8887-10.752L10.8887-7.88086L8.01758-7.88086Q7.63672-7.88086 7.40723-7.65137Q7.17773-7.42188 7.17773-7.05078Z"/>
  </g>
  <g transform="matrix(1 0 0 1 305.646 1933)">
   <path d="M14.9707 5.66406Q17.0605 5.66406 18.96 5.01465Q20.8594 4.36523 22.4512 3.19336Q24.043 2.02148 25.2197 0.429688Q26.3965-1.16211 27.0459-3.06641Q27.6953-4.9707 27.6953-7.05078Q27.6953-9.14062 27.0459-11.04Q26.3965-12.9395 25.2197-14.5312Q24.043-16.123 22.4512-17.2998Q20.8594-18.4766 18.9551-19.126Q17.0508-19.7754 14.9609-19.7754Q12.8711-19.7754 10.9717-19.126Q9.07227-18.4766 7.48535-17.2998Q5.89844-16.123 4.72168-14.5312Q3.54492-12.9395 2.90039-11.04Q2.25586-9.14062 2.25586-7.05078Q2.25586-4.9707 2.90527-3.06641Q3.55469-1.16211 4.72656 0.429688Q5.89844 2.02148 7.49023 3.19336Q9.08203 4.36523 10.9814 5.01465Q12.8809 5.66406 14.9707 5.66406ZM14.9707 3.84766Q13.1641 3.84766 11.5283 3.2959Q9.89258 2.74414 8.53516 1.74805Q7.17773 0.751953 6.17676-0.610352Q5.17578-1.97266 4.62891-3.6084Q4.08203-5.24414 4.08203-7.05078Q4.08203-8.86719 4.62891-10.5029Q5.17578-12.1387 6.17188-13.501Q7.16797-14.8633 8.52539-15.8594Q9.88281-16.8555 11.5186-17.4023Q13.1543-17.9492 14.9609-17.9492Q16.7773-17.9492 18.4131-17.4023Q20.0488-16.8555 21.4111-15.8594Q22.7734-14.8633 23.7695-13.501Q24.7656-12.1387 25.3174-10.5029Q25.8691-8.86719 25.8691-7.05078Q25.8789-5.24414 25.332-3.6084Q24.7852-1.97266 23.7842-0.610352Q22.7832 0.751953 21.4209 1.74805Q20.0586 2.74414 18.4229 3.2959Q16.7871 3.84766 14.9707 3.84766ZM9.19922-7.05078Q9.19922-6.66992 9.45801-6.4209Q9.7168-6.17188 10.1172-6.17188L14.0625-6.17188L14.0625-2.2168Q14.0625-1.81641 14.3115-1.55762Q14.5605-1.29883 14.9512-1.29883Q15.3516-1.29883 15.6104-1.55273Q15.8691-1.80664 15.8691-2.2168L15.8691-6.17188L19.8242-6.17188Q20.2246-6.17188 20.4785-6.4209Q20.7324-6.66992 20.7324-7.05078Q20.7324-7.46094 20.4785-7.71484Q20.2246-7.96875 19.8242-7.96875L15.8691-7.96875L15.8691-11.9141Q15.8691-12.3242 15.6104-12.583Q15.3516-12.8418 14.9512-12.8418Q14.5605-12.8418 14.3115-12.583Q14.0625-12.3242 14.0625-11.9141L14.0625-7.96875L10.1172-7.96875Q9.70703-7.96875 9.45312-7.71484Q9.19922-7.46094 9.19922-7.05078Z"/>
  </g>
  <text style="stroke:none;fill:black;font-family:sans-serif;font-size:13;font-weight:bold;" transform="matrix(1 0 0 1 263 1953)">Design Variations</text>
  <text style="stroke:none;fill:black;font-family:sans-serif;font-size:13;" transform="matrix(1 0 0 1 263 1971)">Symbols are supported in up to nine weights and three scales.</text>
  <text style="stroke:none;fill:black;font-family:sans-serif;font-size:13;" transform="matrix(1 0 0 1 263 1989)">For optimal layout with text and other symbols, vertically align</text>
  <text style="stroke:none;fill:black;font-family:sans-serif;font-size:13;" transform="matrix(1 0 0 1 263 2007)">symbols with the adjacent text.</text>
  <line style="fill:none;stroke:#00AEEF;stroke-width:0.5;opacity:1.0;" x1="776" x2="776" y1="1919" y2="1933"/>
  <g transform="matrix(1 0 0 1 776 1933)">
   <path d="M3.31055 0.15625Q3.70117 0.15625 3.91602-0.00976562Q4.13086-0.175781 4.26758-0.585938L5.52734-4.0332L11.2891-4.0332L12.5488-0.585938Q12.6855-0.175781 12.9004-0.00976562Q13.1152 0.15625 13.4961 0.15625Q13.8867 0.15625 14.1162-0.0585938Q14.3457-0.273438 14.3457-0.644531Q14.3457-0.869141 14.2383-1.17188L9.6582-13.3691Q9.48242-13.8184 9.17969-14.043Q8.87695-14.2676 8.4082-14.2676Q7.5-14.2676 7.17773-13.3789L2.59766-1.16211Q2.49023-0.859375 2.49023-0.634766Q2.49023-0.263672 2.70996-0.0537109Q2.92969 0.15625 3.31055 0.15625ZM6.00586-5.51758L8.37891-12.0898L8.42773-12.0898L10.8008-5.51758Z"/>
  </g>
  <line style="fill:none;stroke:#00AEEF;stroke-width:0.5;opacity:1.0;" x1="793.197" x2="793.197" y1="1919" y2="1933"/>
  <text style="stroke:none;fill:black;font-family:sans-serif;font-size:13;font-weight:bold;" transform="matrix(1 0 0 1 776 1953)">Margins</text>
  <text style="stroke:none;fill:black;font-family:sans-serif;font-size:13;" transform="matrix(1 0 0 1 776 1971)">Leading and trailing margins on the left and right side of each symbol</text>
  <text style="stroke:none;fill:black;font-family:sans-serif;font-size:13;" transform="matrix(1 0 0 1 776 1989)">can be adjusted by modifying the x-location of the margin guidelines.</text>
  <text style="stroke:none;fill:black;font-family:sans-serif;font-size:13;" transform="matrix(1 0 0 1 776 2007)">Modifications are automatically applied proportionally to all</text>
  <text style="stroke:none;fill:black;font-family:sans-serif;font-size:13;" transform="matrix(1 0 0 1 776 2025)">scales and weights.</text>
  <g transform="matrix(1 0 0 1 1289 1933)">
   <path d="M2.8418 1.86523L4.54102 3.57422Q5.18555 4.22852 5.90332 4.17969Q6.62109 4.13086 7.31445 3.35938L18.0078-8.42773L17.041-9.4043L6.42578 2.27539Q6.16211 2.57812 5.89355 2.61719Q5.625 2.65625 5.27344 2.30469L4.10156 1.14258Q3.75 0.791016 3.79395 0.522461Q3.83789 0.253906 4.14062-0.0195312L15.6152-10.8203L14.6387-11.7871L3.04688-0.898438Q2.30469-0.214844 2.25098 0.498047Q2.19727 1.21094 2.8418 1.86523ZM9.25781-16.3281Q8.94531-16.0254 8.90625-15.6348Q8.86719-15.2441 9.04297-14.9512Q9.21875-14.6777 9.55566-14.541Q9.89258-14.4043 10.3809-14.5215Q11.4746-14.7754 12.5977-14.7314Q13.7207-14.6875 14.7949-13.9844L14.209-12.5293Q13.9551-11.9043 14.0674-11.4404Q14.1797-10.9766 14.5801-10.5664L16.875-8.25195Q17.2363-7.88086 17.5781-7.82227Q17.9199-7.76367 18.3398-7.8418L19.4043-8.03711L20.0684-7.36328L20.0293-6.80664Q20-6.43555 20.1221-6.12305Q20.2441-5.81055 20.6055-5.44922L21.3672-4.70703Q21.7285-4.3457 22.1533-4.33105Q22.5781-4.31641 22.9297-4.66797L25.8398-7.58789Q26.1914-7.93945 26.1816-8.35449Q26.1719-8.76953 25.8105-9.13086L25.0391-9.89258Q24.6875-10.2539 24.3799-10.3857Q24.0723-10.5176 23.7109-10.4883L23.1348-10.4395L22.4902-11.0742L22.7344-12.1973Q22.832-12.6172 22.6953-12.9834Q22.5586-13.3496 22.1191-13.7891L19.9219-15.9766Q18.6719-17.2168 17.2607-17.8369Q15.8496-18.457 14.4189-18.4814Q12.9883-18.5059 11.665-17.959Q10.3418-17.4121 9.25781-16.3281ZM10.752-15.957Q11.6602-16.6211 12.7002-16.9043Q13.7402-17.1875 14.8047-17.085Q15.8691-16.9824 16.8701-16.5137Q17.8711-16.0449 18.7012-15.2051L21.1328-12.793Q21.3086-12.6172 21.3525-12.4512Q21.3965-12.2852 21.3379-12.0312L21.0156-10.5469L22.5195-9.0625L23.5059-9.12109Q23.6914-9.13086 23.7891-9.09668Q23.8867-9.0625 24.0332-8.91602L24.6094-8.33984L22.168-5.89844L21.5918-6.47461Q21.4453-6.62109 21.4062-6.71875Q21.3672-6.81641 21.377-7.01172L21.4453-7.98828L19.9512-9.47266L18.4277-9.21875Q18.1836-9.16992 18.042-9.2041Q17.9004-9.23828 17.7148-9.41406L15.7129-11.416Q15.5176-11.5918 15.4932-11.7529Q15.4688-11.9141 15.5859-12.1875L16.4648-14.2773Q15.293-15.3711 13.8281-15.791Q12.3633-16.2109 10.8398-15.7617Q10.7227-15.7324 10.6885-15.8057Q10.6543-15.8789 10.752-15.957Z"/>
  </g>
  <text style="stroke:none;fill:black;font-family:sans-serif;font-size:13;font-weight:bold;" transform="matrix(1 0 0 1 1289 1953)">Exporting</text>
  <text style="stroke:none;fill:black;font-family:sans-serif;font-size:13;" transform="matrix(1 0 0 1 1289 1971)">Symbols should be outlined when exporting to ensure the</text>
  <text style="stroke:none;fill:black;font-family:sans-serif;font-size:13;" transform="matrix(1 0 0 1 1289 1989)">design is preserved when submitting to Xcode.</text>
  <text id="template-version" style="stroke:none;fill:black;font-family:sans-serif;font-size:13;text-anchor:end;" transform="matrix(1 0 0 1 3036 1933)">Template v.3.0</text>
  <text style="stroke:none;fill:black;font-family:sans-serif;font-size:13;text-anchor:end;" transform="matrix(1 0 0 1 3036 1951)">Requires Xcode 13 or greater</text>
  <text id="descriptive-name" style="stroke:none;fill:black;font-family:sans-serif;font-size:13;text-anchor:end;" transform="matrix(1 0 0 1 3036 1969)">Generated from square.and.arrow.up</text>
  <text style="stroke:none;fill:black;font-family:sans-serif;font-size:13;text-anchor:end;" transform="matrix(1 0 0 1 3036 1987)">Typeset at 100 points</text>
  <text style="stroke:none;fill:black;font-family:sans-serif;font-size:13;" transform="matrix(1 0 0 1 263 726)">Small</text>
  <text style="stroke:none;fill:black;font-family:sans-serif;font-size:13;" transform="matrix(1 0 0 1 263 1156)">Medium</text>
  <text style="stroke:none;fill:black;font-family:sans-serif;font-size:13;" transform="matrix(1 0 0 1 263 1586)">Large</text>
 </g>
 <g id="Guides">
  <g id="H-reference" style="fill:#27AAE1;stroke:none;" transform="matrix(1 0 0 1 339 696)">
   <path d="M0.976562 0L3.66211 0L29.3457-67.1387L30.0293-67.1387L30.0293-70.459L28.125-70.459ZM11.6699-24.4629L46.9727-24.4629L46.2402-26.709L12.4512-26.709ZM55.127 0L57.7637 0L30.6152-70.459L29.4434-70.459L29.4434-67.1387Z"/>
  </g>
  <line id="Baseline-S" style="fill:none;stroke:#27AAE1;opacity:1;stroke-width:0.5;" x1="263" x2="3036" y1="696" y2="696"/>
  <line id="Capline-S" style="fill:none;stroke:#27AAE1;opacity:1;stroke-width:0.5;" x1="263" x2="3036" y1="625.541" y2="625.541"/>
  <g id="H-reference" style="fill:#27AAE1;stroke:none;" transform="matrix(1 0 0 1 339 1126)">
   <path d="M0.976562 0L3.66211 0L29.3457-67.1387L30.0293-67.1387L30.0293-70.459L28.125-70.459ZM11.6699-24.4629L46.9727-24.4629L46.2402-26.709L12.4512-26.709ZM55.127 0L57.7637 0L30.6152-70.459L29.4434-70.459L29.4434-67.1387Z"/>
  </g>
  <line id="Baseline-M" style="fill:none;stroke:#27AAE1;opacity:1;stroke-width:0.5;" x1="263" x2="3036" y1="1126" y2="1126"/>
  <line id="Capline-M" style="fill:none;stroke:#27AAE1;opacity:1;stroke-width:0.5;" x1="263" x2="3036" y1="1055.54" y2="1055.54"/>
  <g id="H-reference" style="fill:#27AAE1;stroke:none;" transform="matrix(1 0 0 1 339 1556)">
   <path d="M0.976562 0L3.66211 0L29.3457-67.1387L30.0293-67.1387L30.0293-70.459L28.125-70.459ZM11.6699-24.4629L46.9727-24.4629L46.2402-26.709L12.4512-26.709ZM55.127 0L57.7637 0L30.6152-70.459L29.4434-70.459L29.4434-67.1387Z"/>
  </g>
  <line id="Baseline-L" style="fill:none;stroke:#27AAE1;opacity:1;stroke-width:0.5;" x1="263" x2="3036" y1="1556" y2="1556"/>
  <line id="Capline-L" style="fill:none;stroke:#27AAE1;opacity:1;stroke-width:0.5;" x1="263" x2="3036" y1="1485.54" y2="1485.54"/>
  <line id="left-margin-Ultralight-S" style="fill:none;stroke:#00AEEF;stroke-width:0.5;opacity:1.0;" x1="517.792" x2="517.792" y1="600.785" y2="720.121"/>
  <line id="right-margin-Ultralight-S" style="fill:none;stroke:#00AEEF;stroke-width:0.5;opacity:1.0;" x1="601.63" x2="601.63" y1="600.785" y2="720.121"/>
  <line id="left-margin-Thin-S" style="fill:none;stroke:#00AEEF;stroke-width:0.5;opacity:1.0;" x1="814.015" x2="814.015" y1="600.785" y2="720.121"/>
  <line id="right-margin-Thin-S" style="fill:none;stroke:#00AEEF;stroke-width:0.5;opacity:1.0;" x1="898.829" x2="898.829" y1="600.785" y2="720.121"/>
  <line id="left-margin-Light-S" style="fill:none;stroke:#00AEEF;stroke-width:0.5;opacity:1.0;" x1="1109.75" x2="1109.75" y1="600.785" y2="720.121"/>
  <line id="right-margin-Light-S" style="fill:none;stroke:#00AEEF;stroke-width:0.5;opacity:1.0;" x1="1196.52" x2="1196.52" y1="600.785" y2="720.121"/>
  <line id="left-margin-Regular-S" style="fill:none;stroke:#00AEEF;stroke-width:0.5;opacity:1.0;" x1="1405.73" x2="1405.73" y1="600.785" y2="720.121"/>
  <line id="right-margin-Regular-S" style="fill:none;stroke:#00AEEF;stroke-width:0.5;opacity:1.0;" x1="1493.96" x2="1493.96" y1="600.785" y2="720.121"/>
  <line id="left-margin-Medium-S" style="fill:none;stroke:#00AEEF;stroke-width:0.5;opacity:1.0;" x1="1701.85" x2="1701.85" y1="600.785" y2="720.121"/>
  <line id="right-margin-Medium-S" style="fill:none;stroke:#00AEEF;stroke-width:0.5;opacity:1.0;" x1="1791.26" x2="1791.26" y1="600.785" y2="720.121"/>
  <line id="left-margin-Semibold-S" style="fill:none;stroke:#00AEEF;stroke-width:0.5;opacity:1.0;" x1="1998.1" x2="1998.1" y1="600.785" y2="720.121"/>
  <line id="right-margin-Semibold-S" style="fill:none;stroke:#00AEEF;stroke-width:0.5;opacity:1.0;" x1="2088.43" x2="2088.43" y1="600.785" y2="720.121"/>
  <line id="left-margin-Bold-S" style="fill:none;stroke:#00AEEF;stroke-width:0.5;opacity:1.0;" x1="2294.2" x2="2294.2" y1="600.785" y2="720.121"/>
  <line id="right-margin-Bold-S" style="fill:none;stroke:#00AEEF;stroke-width:0.5;opacity:1.0;" x1="2385.75" x2="2385.75" y1="600.785" y2="720.121"/>
  <line id="left-margin-Heavy-S" style="fill:none;stroke:#00AEEF;stroke-width:0.5;opacity:1.0;" x1="2590.06" x2="2590.06" y1="600.785" y2="720.121"/>
  <line id="right-margin-Heavy-S" style="fill:none;stroke:#00AEEF;stroke-width:0.5;opacity:1.0;" x1="2683.32" x2="2683.32" y1="600.785" y2="720.121"/>
  <line id="left-margin-Black-S" style="fill:none;stroke:#00AEEF;stroke-width:0.5;opacity:1.0;" x1="2885.99" x2="2885.99" y1="600.785" y2="720.121"/>
  <line id="right-margin-Black-S" style="fill:none;stroke:#00AEEF;stroke-width:0.5;opacity:1.0;" x1="2980.81" x2="2980.81" y1="600.785" y2="720.121"/>
  <line id="left-margin-Ultralight-M" style="fill:none;stroke:#00AEEF;stroke-width:0.5;opacity:1.0;" x1="506.415" x2="506.415" y1="1030.79" y2="1150.12"/>
  <line id="right-margin-Ultralight-M" style="fill:none;stroke:#00AEEF;stroke-width:0.5;opacity:1.0;" x1="613.007" x2="613.007" y1="1030.79" y2="1150.12"/>
  <line id="left-margin-Thin-M" style="fill:none;stroke:#00AEEF;stroke-width:0.5;opacity:1.0;" x1="802.565" x2="802.565" y1="1030.79" y2="1150.12"/>
  <line id="right-margin-Thin-M" style="fill:none;stroke:#00AEEF;stroke-width:0.5;opacity:1.0;" x1="910.28" x2="910.28" y1="1030.79" y2="1150.12"/>
  <line id="left-margin-Light-M" style="fill:none;stroke:#00AEEF;stroke-width:0.5;opacity:1.0;" x1="1098.18" x2="1098.18" y1="1030.79" y2="1150.12"/>
  <line id="right-margin-Light-M" style="fill:none;stroke:#00AEEF;stroke-width:0.5;opacity:1.0;" x1="1208.09" x2="1208.09" y1="1030.79" y2="1150.12"/>
  <line id="left-margin-Regular-M" style="fill:none;stroke:#00AEEF;stroke-width:0.5;opacity:1.0;" x1="1394.06" x2="1394.06" y1="1030.79" y2="1150.12"/>
  <line id="right-margin-Regular-M" style="fill:none;stroke:#00AEEF;stroke-width:0.5;opacity:1.0;" x1="1505.63" x2="1505.63" y1="1030.79" y2="1150.12"/>
  <line id="left-margin-Medium-M" style="fill:none;stroke:#00AEEF;stroke-width:0.5;opacity:1.0;" x1="1689.99" x2="1689.99" y1="1030.79" y2="1150.12"/>
  <line id="right-margin-Medium-M" style="fill:none;stroke:#00AEEF;stroke-width:0.5;opacity:1.0;" x1="1803.12" x2="1803.12" y1="1030.79" y2="1150.12"/>
  <line id="left-margin-Semibold-M" style="fill:none;stroke:#00AEEF;stroke-width:0.5;opacity:1.0;" x1="1986.09" x2="1986.09" y1="1030.79" y2="1150.12"/>
  <line id="right-margin-Semibold-M" style="fill:none;stroke:#00AEEF;stroke-width:0.5;opacity:1.0;" x1="2100.44" x2="2100.44" y1="1030.79" y2="1150.12"/>
  <line id="left-margin-Bold-M" style="fill:none;stroke:#00AEEF;stroke-width:0.5;opacity:1.0;" x1="2281.99" x2="2281.99" y1="1030.79" y2="1150.12"/>
  <line id="right-margin-Bold-M" style="fill:none;stroke:#00AEEF;stroke-width:0.5;opacity:1.0;" x1="2397.96" x2="2397.96" y1="1030.79" y2="1150.12"/>
  <line id="left-margin-Heavy-M" style="fill:none;stroke:#00AEEF;stroke-width:0.5;opacity:1.0;" x1="2577.56" x2="2577.56" y1="1030.79" y2="1150.12"/>
  <line id="right-margin-Heavy-M" style="fill:none;stroke:#00AEEF;stroke-width:0.5;opacity:1.0;" x1="2695.82" x2="2695.82" y1="1030.79" y2="1150.12"/>
  <line id="left-margin-Black-M" style="fill:none;stroke:#00AEEF;stroke-width:0.5;opacity:1.0;" x1="2873.24" x2="2873.24" y1="1030.79" y2="1150.12"/>
  <line id="right-margin-Black-M" style="fill:none;stroke:#00AEEF;stroke-width:0.5;opacity:1.0;" x1="2993.56" x2="2993.56" y1="1030.79" y2="1150.12"/>
  <line id="left-margin-Ultralight-L" style="fill:none;stroke:#00AEEF;stroke-width:0.5;opacity:1.0;" x1="491.181" x2="491.181" y1="1460.79" y2="1580.12"/>
  <line id="right-margin-Ultralight-L" style="fill:none;stroke:#00AEEF;stroke-width:0.5;opacity:1.0;" x1="628.241" x2="628.241" y1="1460.79" y2="1580.12"/>
  <line id="left-margin-Thin-L" style="fill:none;stroke:#00AEEF;stroke-width:0.5;opacity:1.0;" x1="787.282" x2="787.282" y1="1460.79" y2="1580.12"/>
  <line id="right-margin-Thin-L" style="fill:none;stroke:#00AEEF;stroke-width:0.5;opacity:1.0;" x1="925.563" x2="925.563" y1="1460.79" y2="1580.12"/>
  <line id="left-margin-Light-L" style="fill:none;stroke:#00AEEF;stroke-width:0.5;opacity:1.0;" x1="1082.77" x2="1082.77" y1="1460.79" y2="1580.12"/>
  <line id="right-margin-Light-L" style="fill:none;stroke:#00AEEF;stroke-width:0.5;opacity:1.0;" x1="1223.49" x2="1223.49" y1="1460.79" y2="1580.12"/>
  <line id="left-margin-Regular-L" style="fill:none;stroke:#00AEEF;stroke-width:0.5;opacity:1.0;" x1="1378.56" x2="1378.56" y1="1460.79" y2="1580.12"/>
  <line id="right-margin-Regular-L" style="fill:none;stroke:#00AEEF;stroke-width:0.5;opacity:1.0;" x1="1521.13" x2="1521.13" y1="1460.79" y2="1580.12"/>
  <line id="left-margin-Medium-L" style="fill:none;stroke:#00AEEF;stroke-width:0.5;opacity:1.0;" x1="1674.31" x2="1674.31" y1="1460.79" y2="1580.12"/>
  <line id="right-margin-Medium-L" style="fill:none;stroke:#00AEEF;stroke-width:0.5;opacity:1.0;" x1="1818.8" x2="1818.8" y1="1460.79" y2="1580.12"/>
  <line id="left-margin-Semibold-L" style="fill:none;stroke:#00AEEF;stroke-width:0.5;opacity:1.0;" x1="1970.27" x2="1970.27" y1="1460.79" y2="1580.12"/>
  <line id="right-margin-Semibold-L" style="fill:none;stroke:#00AEEF;stroke-width:0.5;opacity:1.0;" x1="2116.26" x2="2116.26" y1="1460.79" y2="1580.12"/>
  <line id="left-margin-Bold-L" style="fill:none;stroke:#00AEEF;stroke-width:0.5;opacity:1.0;" x1="2266" x2="2266" y1="1460.79" y2="1580.12"/>
  <line id="right-margin-Bold-L" style="fill:none;stroke:#00AEEF;stroke-width:0.5;opacity:1.0;" x1="2413.95" x2="2413.95" y1="1460.79" y2="1580.12"/>
  <line id="left-margin-Heavy-L" style="fill:none;stroke:#00AEEF;stroke-width:0.5;opacity:1.0;" x1="2561.32" x2="2561.32" y1="1460.79" y2="1580.12"/>
  <line id="right-margin-Heavy-L" style="fill:none;stroke:#00AEEF;stroke-width:0.5;opacity:1.0;" x1="2712.06" x2="2712.06" y1="1460.79" y2="1580.12"/>
  <line id="left-margin-Black-L" style="fill:none;stroke:#00AEEF;stroke-width:0.5;opacity:1.0;" x1="2856.76" x2="2856.76" y1="1460.79" y2="1580.12"/>
  <line id="right-margin-Black-L" style="fill:none;stroke:#00AEEF;stroke-width:0.5;opacity:1.0;" x1="3010.04" x2="3010.04" y1="1460.79" y2="1580.12"/>
 </g>
 <g id="Symbols">
  <g id="Black-L" transform="matrix(1 0 0 1 2856.76 1556)">
   <path class="hierarchical-0:secondary SFSymbolsPreview4D4D4D" d="M39.9902 33.1055L113.33 33.1055Q124.756 33.1055 130.981 26.9043Q137.207 20.7031 137.207 9.32617L137.207-49.5605Q137.207-60.9375 130.981-67.1387Q124.756-73.3398 113.33-73.3398L97.9492-73.3398L97.9492-53.125L110.596-53.125Q113.77-53.125 115.381-51.6113Q116.992-50.0977 116.992-46.6797L116.992 6.44531Q116.992 9.86328 115.381 11.377Q113.77 12.8906 110.596 12.8906L42.6758 12.8906Q39.5508 12.8906 37.9395 11.377Q36.3281 9.86328 36.3281 6.44531L36.3281-46.6797Q36.3281-50.0977 37.9395-51.6113Q39.5508-53.125 42.6758-53.125L55.7617-53.125L55.7617-73.3398L39.9902-73.3398Q28.5645-73.3398 22.3145-67.1387Q16.0645-60.9375 16.0645-49.5605L16.0645 9.32617Q16.0645 20.7031 22.3145 26.9043Q28.5645 33.1055 39.9902 33.1055Z"/>
   <path class="hierarchical-1:primary SFSymbolsPreview212121" d="M76.6602-20.2148Q80.3711-20.2148 82.9102-22.8271Q85.4492-25.4395 85.4492-28.9551L85.4492-87.7441L84.668-96.9727L87.1582-92.041L93.457-85.3516Q95.752-82.8613 99.0723-82.8613Q101.953-82.8613 104.272-84.8633Q106.592-86.8652 106.592-90.0879Q106.592-91.6992 106.006-92.9443Q105.42-94.1895 104.297-95.3125L83.7891-114.941Q82.0312-116.65 80.2246-117.358Q78.418-118.066 76.6602-118.066Q74.8535-118.066 73.0469-117.358Q71.2402-116.65 69.4824-114.941L48.9746-95.3125Q47.8516-94.1895 47.2656-92.9443Q46.6797-91.6992 46.6797-90.0879Q46.6797-86.8652 48.9746-84.8633Q51.2695-82.8613 54.1504-82.8613Q57.5195-82.8613 59.8145-85.3516L66.1133-92.041L68.6035-96.9727L67.8223-87.7441L67.8223-28.9551Q67.8223-25.4395 70.3613-22.8271Q72.9004-20.2148 76.6602-20.2148Z"/>
  </g>
  <g id="Heavy-L" transform="matrix(1 0 0 1 2561.32 1556)">
   <path class="hierarchical-0:secondary SFSymbolsPreview4D4D4D" d="M38.8184 32.5195L111.963 32.5195Q122.9 32.5195 128.784 26.6602Q134.668 20.8008 134.668 9.91211L134.668-50.1465Q134.668-61.0352 128.784-66.8945Q122.9-72.7539 111.963-72.7539L95.9961-72.7539L95.9961-55.2734L109.814-55.2734Q113.428-55.2734 115.308-53.4912Q117.188-51.709 117.188-47.8516L117.188 7.61719Q117.188 11.4746 115.308 13.2568Q113.428 15.0391 109.814 15.0391L40.918 15.0391Q37.3047 15.0391 35.4492 13.2568Q33.5938 11.4746 33.5938 7.61719L33.5938-47.8516Q33.5938-51.709 35.4492-53.4912Q37.3047-55.2734 40.918-55.2734L55.0781-55.2734L55.0781-72.7539L38.8184-72.7539Q27.8809-72.7539 21.9727-66.8945Q16.0645-61.0352 16.0645-50.1465L16.0645 9.91211Q16.0645 20.8008 21.9727 26.6602Q27.8809 32.5195 38.8184 32.5195Z"/>
   <path class="hierarchical-1:primary SFSymbolsPreview212121" d="M75.3906-19.7266Q78.6621-19.7266 80.8838-22.0215Q83.1055-24.3164 83.1055-27.3926L83.1055-88.0371L82.4219-97.3145L85.5469-92.2852L92.7734-84.6191Q94.8242-82.4219 97.7539-82.4219Q100.342-82.4219 102.393-84.2041Q104.443-85.9863 104.443-88.8184Q104.443-90.2344 103.906-91.3574Q103.369-92.4805 102.393-93.5059L81.5918-113.477Q80.0293-114.99 78.4912-115.601Q76.9531-116.211 75.3906-116.211Q73.8281-116.211 72.2656-115.601Q70.7031-114.99 69.1895-113.477L48.3398-93.5059Q47.3633-92.4805 46.8262-91.3574Q46.2891-90.2344 46.2891-88.8184Q46.2891-85.9863 48.3154-84.2041Q50.3418-82.4219 52.9297-82.4219Q55.9082-82.4219 57.959-84.6191L65.1855-92.2852L68.3105-97.3145L67.627-88.0371L67.627-27.3926Q67.627-24.3164 69.873-22.0215Q72.1191-19.7266 75.3906-19.7266Z"/>
  </g>
  <g id="Bold-L" transform="matrix(1 0 0 1 2266 1556)">
   <path class="hierarchical-0:secondary SFSymbolsPreview4D4D4D" d="M37.5488 31.8848L110.449 31.8848Q120.898 31.8848 126.392 26.3916Q131.885 20.8984 131.885 10.5469L131.885-50.8301Q131.885-61.1816 126.392-66.6504Q120.898-72.1191 110.449-72.1191L93.8477-72.1191L93.8477-57.666L108.984-57.666Q113.086-57.666 115.259-55.5664Q117.432-53.4668 117.432-49.1699L117.432 8.88672Q117.432 13.2324 115.259 15.332Q113.086 17.4316 108.984 17.4316L38.9648 17.4316Q34.8633 17.4316 32.6904 15.332Q30.5176 13.2324 30.5176 8.88672L30.5176-49.1699Q30.5176-53.4668 32.6904-55.5664Q34.8633-57.666 38.9648-57.666L54.3457-57.666L54.3457-72.1191L37.5488-72.1191Q27.0996-72.1191 21.582-66.6504Q16.0645-61.1816 16.0645-50.8301L16.0645 10.5469Q16.0645 20.9473 21.582 26.416Q27.0996 31.8848 37.5488 31.8848Z"/>
   <path class="hierarchical-1:primary SFSymbolsPreview212121" d="M73.9746-19.2383Q76.709-19.2383 78.6133-21.167Q80.5176-23.0957 80.5176-25.6836L80.5176-88.4277L79.9805-97.6562L83.7891-92.5293L92.041-83.8379Q93.7988-81.9336 96.3379-81.9336Q98.584-81.9336 100.317-83.4717Q102.051-85.0098 102.051-87.4512Q102.051-88.6719 101.587-89.624Q101.123-90.5762 100.293-91.4551L79.1016-111.914Q77.832-113.135 76.5625-113.647Q75.293-114.16 73.9746-114.16Q72.6562-114.16 71.3867-113.647Q70.1172-113.135 68.8477-111.914L47.6562-91.4551Q46.7773-90.5762 46.3379-89.624Q45.8984-88.6719 45.8984-87.4512Q45.8984-85.0098 47.583-83.4717Q49.2676-81.9336 51.5625-81.9336Q54.1504-81.9336 55.8594-83.8379L64.1602-92.5293L67.9688-97.6562L67.4316-88.4277L67.4316-25.6836Q67.4316-23.0957 69.3359-21.167Q71.2402-19.2383 73.9746-19.2383Z"/>
  </g>
  <g id="Semibold-L" transform="matrix(1 0 0 1 1970.27 1556)">
   <path class="hierarchical-0:secondary SFSymbolsPreview4D4D4D" d="M36.6211 31.3965L109.375 31.3965Q119.482 31.3965 124.707 26.1719Q129.932 20.9473 129.932 10.9863L129.932-51.2695Q129.932-61.2305 124.707-66.4307Q119.482-71.6309 109.375-71.6309L92.334-71.6309L92.334-59.3262L108.35-59.3262Q112.793-59.3262 115.186-57.0068Q117.578-54.6875 117.578-50.0488L117.578 9.76562Q117.578 14.4531 115.186 16.748Q112.793 19.043 108.35 19.043L37.5977 19.043Q33.1055 19.043 30.7617 16.748Q28.418 14.4531 28.418 9.76562L28.418-50.0488Q28.418-54.6875 30.7617-57.0068Q33.1055-59.3262 37.5977-59.3262L53.8086-59.3262L53.8086-71.6309L36.6211-71.6309Q26.5625-71.6309 21.3135-66.4551Q16.0645-61.2793 16.0645-51.2695L16.0645 10.9863Q16.0645 20.9961 21.3135 26.1963Q26.5625 31.3965 36.6211 31.3965Z"/>
   <path class="hierarchical-1:primary SFSymbolsPreview212121" d="M72.998-18.8477Q75.3906-18.8477 77.0508-20.5322Q78.7109-22.2168 78.7109-24.5117L78.7109-88.623L78.2227-97.9004L82.5195-92.7246L91.5039-83.252Q93.0664-81.543 95.3125-81.543Q97.3633-81.543 98.877-82.9102Q100.391-84.2773 100.391-86.4746Q100.391-87.5488 99.9756-88.4033Q99.5605-89.2578 98.7793-90.0391L77.3926-110.791Q76.2695-111.865 75.1953-112.305Q74.1211-112.744 72.998-112.744Q71.875-112.744 70.8008-112.305Q69.7266-111.865 68.6035-110.791L47.168-90.0391Q46.3867-89.2578 45.9717-88.4033Q45.5566-87.5488 45.5566-86.4746Q45.5566-84.2773 47.0459-82.9102Q48.5352-81.543 50.5859-81.543Q52.8809-81.543 54.4434-83.252L63.4277-92.7246L67.7246-97.9004L67.2363-88.623L67.2363-24.5117Q67.2363-22.2168 68.9209-20.5322Q70.6055-18.8477 72.998-18.8477Z"/>
  </g>
  <g id="Medium-L" transform="matrix(1 0 0 1 1674.31 1556)">
   <path class="hierarchical-0:secondary SFSymbolsPreview4D4D4D" d="M35.9375 31.0547L108.545 31.0547Q118.408 31.0547 123.413 26.0498Q128.418 21.0449 128.418 11.3281L128.418-51.6113Q128.418-61.2793 123.413-66.2842Q118.408-71.2891 108.545-71.2891L91.1621-71.2891L91.1621-60.5957L107.91-60.5957Q112.598-60.5957 115.161-58.1055Q117.725-55.6152 117.725-50.7324L117.725 10.4492Q117.725 15.3809 115.161 17.8467Q112.598 20.3125 107.91 20.3125L36.5723 20.3125Q31.8359 20.3125 29.3213 17.8467Q26.8066 15.3809 26.8066 10.4492L26.8066-50.7324Q26.8066-55.6152 29.3213-58.1055Q31.8359-60.5957 36.5723-60.5957L53.418-60.5957L53.418-71.2891L35.9375-71.2891Q26.1719-71.2891 21.1182-66.3086Q16.0645-61.3281 16.0645-51.6113L16.0645 11.3281Q16.0645 21.0449 21.1182 26.0498Q26.1719 31.0547 35.9375 31.0547Z"/>
   <path class="hierarchical-1:primary SFSymbolsPreview212121" d="M72.2656-18.5547Q74.3652-18.5547 75.8545-20.0439Q77.3438-21.5332 77.3438-23.584L77.3438-88.8184L76.9531-98.0957L81.5918-92.8223L91.1133-82.8125Q92.5293-81.2988 94.5312-81.2988Q96.4355-81.2988 97.7783-82.5439Q99.1211-83.7891 99.1211-85.7422Q99.1211-86.6699 98.7549-87.4756Q98.3887-88.2812 97.7051-88.9648L76.123-109.912Q75.0977-110.889 74.1699-111.279Q73.2422-111.67 72.2656-111.67Q71.2402-111.67 70.3125-111.279Q69.3848-110.889 68.4082-109.912L46.8262-88.9648Q46.0938-88.2812 45.7275-87.4756Q45.3613-86.6699 45.3613-85.7422Q45.3613-83.7891 46.6797-82.5439Q47.998-81.2988 49.8535-81.2988Q51.9531-81.2988 53.3203-82.8125L62.8906-92.8223L67.5781-98.0957L67.1387-88.8184L67.1387-23.584Q67.1387-21.5332 68.6279-20.0439Q70.1172-18.5547 72.2656-18.5547Z"/>
  </g>
  <g id="Regular-L" transform="matrix(1 0 0 1 1378.56 1556)">
   <path class="hierarchical-0:secondary SFSymbolsPreview4D4D4D" d="M35.0586 30.6152L107.52 30.6152Q116.992 30.6152 121.753 25.8545Q126.514 21.0938 126.514 11.7676L126.514-52.0508Q126.514-61.377 121.753-66.1133Q116.992-70.8496 107.52-70.8496L89.6973-70.8496L89.6973-62.207L107.324-62.207Q112.354-62.207 115.112-59.5215Q117.871-56.8359 117.871-51.6113L117.871 11.3281Q117.871 16.6016 115.112 19.2627Q112.354 21.9238 107.324 21.9238L35.2539 21.9238Q30.127 21.9238 27.417 19.2627Q24.707 16.6016 24.707 11.3281L24.707-51.6113Q24.707-56.8359 27.417-59.5215Q30.127-62.207 35.2539-62.207L52.9297-62.207L52.9297-70.8496L35.0586-70.8496Q25.6348-70.8496 20.8496-66.1377Q16.0645-61.4258 16.0645-52.0508L16.0645 11.7676Q16.0645 21.1426 20.8496 25.8789Q25.6348 30.6152 35.0586 30.6152Z"/>
   <path class="hierarchical-1:primary SFSymbolsPreview212121" d="M71.2891-18.2129Q73.0469-18.2129 74.3164-19.458Q75.5859-20.7031 75.5859-22.4121L75.5859-89.0625L75.2441-98.3398L80.3711-93.0176L90.625-82.2754Q91.7969-80.957 93.5547-80.957Q95.2148-80.957 96.3623-82.0312Q97.5098-83.1055 97.5098-84.7656Q97.5098-85.5957 97.168-86.2793Q96.8262-86.9629 96.2402-87.5977L74.4141-108.838Q73.584-109.619 72.8516-109.937Q72.1191-110.254 71.2891-110.254Q70.459-110.254 69.7266-109.937Q68.9941-109.619 68.1641-108.838L46.3379-87.5977Q45.7031-86.9629 45.3857-86.2793Q45.0684-85.5957 45.0684-84.7656Q45.0684-83.1055 46.167-82.0312Q47.2656-80.957 48.9258-80.957Q50.7324-80.957 51.9043-82.2754L62.207-93.0176L67.334-98.3398L66.9922-89.0625L66.9922-22.4121Q66.9922-20.7031 68.2617-19.458Q69.5312-18.2129 71.2891-18.2129Z"/>
  </g>
  <g id="Light-L" transform="matrix(1 0 0 1 1082.77 1556)">
   <path class="hierarchical-0:secondary SFSymbolsPreview4D4D4D" d="M34.0332 29.7852L106.689 29.7852Q115.625 29.7852 120.142 25.2441Q124.658 20.7031 124.658 11.9141L124.658-53.2227Q124.658-62.0117 120.142-66.5527Q115.625-71.0938 106.689-71.0938L88.5254-71.0938L88.5254-64.4531L106.543-64.4531Q112.012-64.4531 115.039-61.5234Q118.066-58.5938 118.066-52.8809L118.066 11.5723Q118.066 17.334 115.039 20.2393Q112.012 23.1445 106.543 23.1445L34.2285 23.1445Q28.5645 23.1445 25.6104 20.2393Q22.6562 17.334 22.6562 11.5723L22.6562-52.8809Q22.6562-58.5938 25.6104-61.5234Q28.5645-64.4531 34.2285-64.4531L52.2949-64.4531L52.2949-71.0938L34.0332-71.0938Q25.1465-71.0938 20.6055-66.5771Q16.0645-62.0605 16.0645-53.2227L16.0645 11.9141Q16.0645 20.752 20.6055 25.2686Q25.1465 29.7852 34.0332 29.7852Z"/>
   <path class="hierarchical-1:primary SFSymbolsPreview212121" d="M70.3613-18.3105Q71.7285-18.3105 72.7051-19.2627Q73.6816-20.2148 73.6816-21.5332L73.6816-90.918L73.3887-99.9512L79.7363-93.457L90.9668-81.8848Q91.9434-80.8594 93.2617-80.8594Q94.4824-80.8594 95.3857-81.7139Q96.2891-82.5684 96.2891-83.7891Q96.2891-84.4238 96.0205-84.9609Q95.752-85.498 95.3125-85.9863L72.7539-108.203Q72.1191-108.789 71.5576-109.033Q70.9961-109.277 70.3613-109.277Q69.7266-109.277 69.165-109.033Q68.6035-108.789 67.9688-108.203L45.4102-85.9863Q44.9219-85.498 44.6777-84.9609Q44.4336-84.4238 44.4336-83.7891Q44.4336-82.5684 45.2637-81.7139Q46.0938-80.8594 47.3633-80.8594Q48.7305-80.8594 49.707-81.8848L60.9863-93.457L67.334-99.9512L67.0898-90.918L67.0898-21.5332Q67.0898-20.2148 68.042-19.2627Q68.9941-18.3105 70.3613-18.3105Z"/>
  </g>
  <g id="Thin-L" transform="matrix(1 0 0 1 787.282 1556)">
   <path class="hierarchical-0:secondary SFSymbolsPreview4D4D4D" d="M32.666 28.7109L105.615 28.7109Q113.77 28.7109 117.993 24.4385Q122.217 20.166 122.217 12.1094L122.217-54.7852Q122.217-62.8418 117.993-67.1143Q113.77-71.3867 105.615-71.3867L87.0117-71.3867L87.0117-67.4316L105.469-67.4316Q111.523-67.4316 114.917-64.1846Q118.311-60.9375 118.311-54.5898L118.311 11.9141Q118.311 18.3105 114.917 21.5332Q111.523 24.7559 105.469 24.7559L32.8125 24.7559Q26.5137 24.7559 23.2666 21.5332Q20.0195 18.3105 20.0195 11.9141L20.0195-54.5898Q20.0195-60.9375 23.2666-64.1846Q26.5137-67.4316 32.8125-67.4316L51.416-67.4316L51.416-71.3867L32.666-71.3867Q24.5117-71.3867 20.2881-67.1631Q16.0645-62.9395 16.0645-54.7852L16.0645 12.1094Q16.0645 20.2637 20.2881 24.4873Q24.5117 28.7109 32.666 28.7109Z"/>
   <path class="hierarchical-1:primary SFSymbolsPreview212121" d="M69.1406-18.4082Q69.9707-18.4082 70.5566-18.9941Q71.1426-19.5801 71.1426-20.3613L71.1426-93.3105L70.9961-102.051L78.8574-94.0918L91.4551-81.3965Q92.0898-80.7617 92.8711-80.7617Q93.5547-80.7617 94.1162-81.2988Q94.6777-81.8359 94.6777-82.5684Q94.6777-82.9102 94.5312-83.2275Q94.3848-83.5449 94.0918-83.8379L70.5566-107.373Q70.2148-107.666 69.873-107.837Q69.5312-108.008 69.1406-108.008Q68.75-108.008 68.4082-107.837Q68.0664-107.666 67.7246-107.373L44.1406-83.8379Q43.8477-83.5449 43.7012-83.2275Q43.5547-82.9102 43.5547-82.5684Q43.5547-81.8359 44.0674-81.2988Q44.5801-80.7617 45.3125-80.7617Q46.0938-80.7617 46.7773-81.3965L59.375-94.0918L67.2852-102.1L67.1875-93.3105L67.1875-20.3613Q67.1875-19.5801 67.7734-18.9941Q68.3594-18.4082 69.1406-18.4082Z"/>
  </g>
  <g id="Ultralight-L" transform="matrix(1 0 0 1 491.181 1556)">
   <path class="hierarchical-0:secondary SFSymbolsPreview4D4D4D" d="M31.9824 28.1738L105.078 28.1738Q112.842 28.1738 116.919 24.0234Q120.996 19.873 120.996 12.207L120.996-55.6152Q120.996-63.2324 116.919-67.3828Q112.842-71.5332 105.078-71.5332L86.1816-71.5332L86.1816-68.9941L104.932-68.9941Q111.328-68.9941 114.868-65.5762Q118.408-62.1582 118.408-55.4688L118.408 12.1094Q118.408 18.7988 114.868 22.1924Q111.328 25.5859 104.932 25.5859L32.1289 25.5859Q25.4395 25.5859 22.0215 22.1924Q18.6035 18.7988 18.6035 12.1094L18.6035-55.4688Q18.6035-62.1582 22.0215-65.5762Q25.4395-68.9941 32.1289-68.9941L50.9766-68.9941L50.9766-71.5332L31.9824-71.5332Q24.1699-71.5332 20.1172-67.4561Q16.0645-63.3789 16.0645-55.6152L16.0645 12.207Q16.0645 20.0195 20.1172 24.0967Q24.1699 28.1738 31.9824 28.1738Z"/>
   <path class="hierarchical-1:primary SFSymbolsPreview212121" d="M68.5059-18.5059Q69.043-18.5059 69.4336-18.8721Q69.8242-19.2383 69.8242-19.7754L69.8242-94.5801L69.7266-103.125L78.418-94.3848L91.6992-81.1523Q92.1875-80.6641 92.6758-80.6641Q93.0664-80.6641 93.457-81.0791Q93.8477-81.4941 93.8477-81.8848Q93.8477-82.1289 93.75-82.3486Q93.6523-82.5684 93.457-82.7148L69.4336-106.982Q69.2383-107.129 68.9941-107.227Q68.75-107.324 68.5059-107.324Q68.2617-107.324 68.042-107.227Q67.8223-107.129 67.627-106.982L43.5059-82.7148Q43.3105-82.5684 43.2129-82.3486Q43.1152-82.1289 43.1152-81.8848Q43.1152-81.4941 43.457-81.0791Q43.7988-80.6641 44.2383-80.6641Q44.7266-80.6641 45.2637-81.1523L58.5449-94.3848L67.2852-103.223L67.2363-94.5801L67.2363-19.7754Q67.2363-19.2383 67.6025-18.8721Q67.9688-18.5059 68.5059-18.5059Z"/>
  </g>
  <g id="Black-M" transform="matrix(1 0 0 1 2873.24 1126)">
   <path class="hierarchical-0:secondary SFSymbolsPreview4D4D4D" d="M31.5918 17.9688L88.7207 17.9688Q97.8027 17.9688 102.832 12.9395Q107.861 7.91016 107.861-1.17188L107.861-46.1914Q107.861-55.2734 102.832-60.3027Q97.8027-65.332 88.7207-65.332L77.1973-65.332L77.1973-47.998L86.084-47.998Q88.3301-47.998 89.4287-46.9971Q90.5273-45.9961 90.5273-43.5547L90.5273-3.80859Q90.5273-1.41602 89.4287-0.390625Q88.3301 0.634766 86.084 0.634766L34.2285 0.634766Q31.9824 0.634766 30.8838-0.390625Q29.7852-1.41602 29.7852-3.80859L29.7852-43.5547Q29.7852-45.9961 30.8838-46.9971Q31.9824-47.998 34.2285-47.998L43.6035-47.998L43.6035-65.332L31.5918-65.332Q22.5586-65.332 17.5049-60.3027Q12.4512-55.2734 12.4512-46.1914L12.4512-1.17188Q12.4512 7.91016 17.5049 12.9395Q22.5586 17.9688 31.5918 17.9688Z"/>
   <path class="hierarchical-1:primary SFSymbolsPreview212121" d="M60.1562-24.0234Q63.3301-24.0234 65.4541-26.2207Q67.5781-28.418 67.5781-31.3965L67.5781-76.3184L66.8945-83.3008L68.7012-79.1992L73.0957-74.5605Q75.0488-72.5098 77.832-72.5098Q80.127-72.5098 82.0801-74.1699Q84.0332-75.8301 84.0332-78.4668Q84.0332-80.9082 82.1777-82.8125L66.2598-97.998Q64.7949-99.4629 63.2324-100.049Q61.6699-100.635 60.1562-100.635Q58.6426-100.635 57.1045-100.049Q55.5664-99.4629 54.0527-97.998L38.1348-82.8125Q36.2793-80.9082 36.2793-78.4668Q36.2793-75.8301 38.2324-74.1699Q40.1855-72.5098 42.4805-72.5098Q45.2637-72.5098 47.2168-74.5605L51.6113-79.1992L53.418-83.3008L52.7344-76.3184L52.7344-31.3965Q52.7344-28.418 54.8828-26.2207Q57.0312-24.0234 60.1562-24.0234Z"/>
  </g>
  <g id="Heavy-M" transform="matrix(1 0 0 1 2577.56 1126)">
   <path class="hierarchical-0:secondary SFSymbolsPreview4D4D4D" d="M30.7129 17.5781L87.5488 17.5781Q96.2891 17.5781 101.05 12.8418Q105.811 8.10547 105.811-0.634766L105.811-46.5332Q105.811-55.2246 101.05-59.9609Q96.2891-64.6973 87.5488-64.6973L75.5371-64.6973L75.5371-49.6094L85.498-49.6094Q88.0859-49.6094 89.4043-48.3887Q90.7227-47.168 90.7227-44.3848L90.7227-2.73438Q90.7227 0 89.4043 1.24512Q88.0859 2.49023 85.498 2.49023L32.7148 2.49023Q30.127 2.49023 28.833 1.24512Q27.5391 0 27.5391-2.73438L27.5391-44.3848Q27.5391-47.168 28.833-48.3887Q30.127-49.6094 32.7148-49.6094L43.0664-49.6094L43.0664-64.6973L30.7129-64.6973Q21.9727-64.6973 17.2119-59.9854Q12.4512-55.2734 12.4512-46.5332L12.4512-0.634766Q12.4512 8.10547 17.2119 12.8418Q21.9727 17.5781 30.7129 17.5781Z"/>
   <path class="hierarchical-1:primary SFSymbolsPreview212121" d="M59.1309-23.5352Q61.9141-23.5352 63.8184-25.4883Q65.7227-27.4414 65.7227-30.0781L65.7227-76.2207L65.1367-83.3008L67.2852-79.3457L72.3633-73.9258Q74.1211-72.0703 76.6113-72.0703Q78.7109-72.0703 80.4443-73.584Q82.1777-75.0977 82.1777-77.4414Q82.1777-79.6387 80.5176-81.3477L64.4531-96.7285Q63.1348-97.998 61.792-98.5352Q60.4492-99.0723 59.1309-99.0723Q57.8125-99.0723 56.4697-98.5352Q55.127-97.998 53.8086-96.7285L37.7441-81.3477Q36.0352-79.6387 36.0352-77.4414Q36.0352-75.0977 37.7686-73.584Q39.502-72.0703 41.6016-72.0703Q44.1406-72.0703 45.8496-73.9258L50.9766-79.3457L53.125-83.3008L52.5391-76.2207L52.5391-30.0781Q52.5391-27.4414 54.4434-25.4883Q56.3477-23.5352 59.1309-23.5352Z"/>
  </g>
  <g id="Bold-M" transform="matrix(1 0 0 1 2281.99 1126)">
   <path class="hierarchical-0:secondary SFSymbolsPreview4D4D4D" d="M29.6875 17.1387L86.2793 17.1387Q94.6289 17.1387 99.0723 12.7197Q103.516 8.30078 103.516-0.0488281L103.516-46.9238Q103.516-55.2246 99.0723-59.6436Q94.6289-64.0625 86.2793-64.0625L73.6816-64.0625L73.6816-51.4648L84.8633-51.4648Q87.793-51.4648 89.3555-49.9756Q90.918-48.4863 90.918-45.3613L90.918-1.5625Q90.918 1.5625 89.3555 3.05176Q87.793 4.54102 84.8633 4.54102L31.0547 4.54102Q28.125 4.54102 26.5869 3.05176Q25.0488 1.5625 25.0488-1.5625L25.0488-45.3613Q25.0488-48.4863 26.5869-49.9756Q28.125-51.4648 31.0547-51.4648L42.5293-51.4648L42.5293-64.0625L29.6875-64.0625Q21.3379-64.0625 16.8945-59.6436Q12.4512-55.2246 12.4512-46.9238L12.4512-0.0488281Q12.4512 8.30078 16.8945 12.7197Q21.3379 17.1387 29.6875 17.1387Z"/>
   <path class="hierarchical-1:primary SFSymbolsPreview212121" d="M57.959-22.998Q60.3516-22.998 61.9873-24.6582Q63.623-26.3184 63.623-28.6133L63.623-76.123L63.1348-83.3008L65.6738-79.4922L71.582-73.2422Q73.0957-71.6309 75.293-71.6309Q77.1973-71.6309 78.6865-72.9492Q80.1758-74.2676 80.1758-76.3184Q80.1758-78.2227 78.6621-79.7852L62.4512-95.3125Q61.3281-96.4355 60.2295-96.875Q59.1309-97.3145 57.959-97.3145Q56.8359-97.3145 55.7373-96.875Q54.6387-96.4355 53.5156-95.3125L37.3047-79.7852Q35.791-78.2227 35.791-76.3184Q35.791-74.2676 37.2559-72.9492Q38.7207-71.6309 40.6738-71.6309Q42.8711-71.6309 44.3848-73.2422L50.2441-79.4922L52.832-83.3008L52.3438-76.123L52.3438-28.6133Q52.3438-26.3184 53.9795-24.6582Q55.6152-22.998 57.959-22.998Z"/>
  </g>
  <g id="Semibold-M" transform="matrix(1 0 0 1 1986.09 1126)">
   <path class="hierarchical-0:secondary SFSymbolsPreview4D4D4D" d="M29.0039 16.7969L85.3516 16.7969Q93.457 16.7969 97.6807 12.5977Q101.904 8.39844 101.904 0.390625L101.904-47.168Q101.904-55.1758 97.6807-59.375Q93.457-63.5742 85.3516-63.5742L72.4121-63.5742L72.4121-52.6855L84.4238-52.6855Q87.5977-52.6855 89.3066-51.0498Q91.0156-49.4141 91.0156-45.9961L91.0156-0.732422Q91.0156 2.63672 89.3066 4.27246Q87.5977 5.9082 84.4238 5.9082L29.8828 5.9082Q26.709 5.9082 25.0244 4.27246Q23.3398 2.63672 23.3398-0.732422L23.3398-45.9961Q23.3398-49.4141 25.0244-51.0498Q26.709-52.6855 29.8828-52.6855L42.0898-52.6855L42.0898-63.5742L29.0039-63.5742Q20.8984-63.5742 16.6748-59.3994Q12.4512-55.2246 12.4512-47.168L12.4512 0.390625Q12.4512 8.44727 16.6748 12.6221Q20.8984 16.7969 29.0039 16.7969Z"/>
   <path class="hierarchical-1:primary SFSymbolsPreview212121" d="M57.1777-22.6074Q59.2773-22.6074 60.7422-24.0723Q62.207-25.5371 62.207-27.5879L62.207-76.0742L61.7676-83.252L64.5508-79.5898L71.0449-72.7051Q72.3633-71.2891 74.3164-71.2891Q76.0742-71.2891 77.417-72.4854Q78.7598-73.6816 78.7598-75.5371Q78.7598-77.2461 77.3438-78.6621L61.0352-94.3359Q60.0586-95.3125 59.1064-95.7031Q58.1543-96.0938 57.1777-96.0938Q56.2012-96.0938 55.249-95.7031Q54.2969-95.3125 53.2715-94.3359L36.9629-78.6621Q35.5957-77.2461 35.5957-75.5371Q35.5957-73.6816 36.8896-72.4854Q38.1836-71.2891 39.9902-71.2891Q41.9922-71.2891 43.3105-72.7051L49.7559-79.5898L52.5879-83.252L52.1484-76.0742L52.1484-27.5879Q52.1484-25.5371 53.6133-24.0723Q55.0781-22.6074 57.1777-22.6074Z"/>
  </g>
  <g id="Medium-M" transform="matrix(1 0 0 1 1689.99 1126)">
   <path class="hierarchical-0:secondary SFSymbolsPreview4D4D4D" d="M28.4668 16.5527L84.668 16.5527Q92.5781 16.5527 96.6309 12.5244Q100.684 8.49609 100.684 0.732422L100.684-47.3633Q100.684-55.1758 96.6309-59.2041Q92.5781-63.2324 84.668-63.2324L71.4355-63.2324L71.4355-53.6621L84.082-53.6621Q87.4512-53.6621 89.2822-51.8799Q91.1133-50.0977 91.1133-46.5332L91.1133-0.146484Q91.1133 3.41797 89.2822 5.2002Q87.4512 6.98242 84.082 6.98242L29.0039 6.98242Q25.6348 6.98242 23.8281 5.2002Q22.0215 3.41797 22.0215-0.146484L22.0215-46.5332Q22.0215-50.0977 23.8281-51.8799Q25.6348-53.6621 29.0039-53.6621L41.7969-53.6621L41.7969-63.2324L28.4668-63.2324Q20.5566-63.2324 16.5039-59.2041Q12.4512-55.1758 12.4512-47.3633L12.4512 0.732422Q12.4512 8.54492 16.5039 12.5488Q20.5566 16.5527 28.4668 16.5527Z"/>
   <path class="hierarchical-1:primary SFSymbolsPreview212121" d="M56.543-22.3633Q58.4473-22.3633 59.7656-23.6572Q61.084-24.9512 61.084-26.8066L61.084-75.9766L60.7422-83.252L63.7207-79.6875L70.6055-72.3633Q71.8262-71.0449 73.6328-71.0449Q75.293-71.0449 76.4893-72.1436Q77.6855-73.2422 77.6855-74.9512Q77.6855-76.5137 76.3672-77.7832L59.9609-93.6035Q59.1309-94.4336 58.3008-94.7998Q57.4707-95.166 56.543-95.166Q55.6641-95.166 54.8584-94.7998Q54.0527-94.4336 53.125-93.6035L36.7188-77.7832Q35.498-76.5137 35.498-74.9512Q35.498-73.2422 36.6455-72.1436Q37.793-71.0449 39.4531-71.0449Q41.3574-71.0449 42.5293-72.3633L49.3652-79.6875L52.3926-83.252L52.0508-75.9766L52.0508-26.8066Q52.0508-24.9512 53.3691-23.6572Q54.6875-22.3633 56.543-22.3633Z"/>
  </g>
  <g id="Regular-M" transform="matrix(1 0 0 1 1394.06 1126)">
   <path class="hierarchical-0:secondary SFSymbolsPreview4D4D4D" d="M27.7832 16.2598L83.7891 16.2598Q91.4551 16.2598 95.2881 12.4512Q99.1211 8.64258 99.1211 1.12305L99.1211-47.6074Q99.1211-55.127 95.2881-58.9355Q91.4551-62.7441 83.7891-62.7441L70.166-62.7441L70.166-54.8828L83.6426-54.8828Q87.2559-54.8828 89.2578-52.9297Q91.2598-50.9766 91.2598-47.168L91.2598 0.683594Q91.2598 4.49219 89.2578 6.44531Q87.2559 8.39844 83.6426 8.39844L27.8809 8.39844Q24.2188 8.39844 22.2656 6.44531Q20.3125 4.49219 20.3125 0.683594L20.3125-47.168Q20.3125-50.9766 22.2656-52.9297Q24.2188-54.8828 27.8809-54.8828L41.4062-54.8828L41.4062-62.7441L27.7832-62.7441Q20.1172-62.7441 16.2842-58.96Q12.4512-55.1758 12.4512-47.6074L12.4512 1.12305Q12.4512 8.69141 16.2842 12.4756Q20.1172 16.2598 27.7832 16.2598Z"/>
   <path class="hierarchical-1:primary SFSymbolsPreview212121" d="M55.7617-21.9727Q57.373-21.9727 58.5205-23.0957Q59.668-24.2188 59.668-25.7812L59.668-75.9277L59.375-83.252L62.6465-79.7852L70.0684-71.875Q71.0938-70.7031 72.7051-70.7031Q74.2188-70.7031 75.2441-71.6797Q76.2695-72.6562 76.2695-74.1699Q76.2695-75.5371 75.0977-76.709L58.5938-92.627Q57.8613-93.3594 57.2021-93.6523Q56.543-93.9453 55.7617-93.9453Q55.0293-93.9453 54.3701-93.6523Q53.7109-93.3594 52.9297-92.627L36.4258-76.709Q35.3027-75.5371 35.3027-74.1699Q35.3027-72.6562 36.2793-71.6797Q37.2559-70.7031 38.8184-70.7031Q40.4785-70.7031 41.5039-71.875L48.877-79.7852L52.1973-83.252L51.9043-75.9277L51.9043-25.7812Q51.9043-24.2188 53.0518-23.0957Q54.1992-21.9727 55.7617-21.9727Z"/>
  </g>
  <g id="Light-M" transform="matrix(1 0 0 1 1098.18 1126)">
   <path class="hierarchical-0:secondary SFSymbolsPreview4D4D4D" d="M26.8555 15.5273L83.0566 15.5273Q90.2344 15.5273 93.8477 11.9141Q97.4609 8.30078 97.4609 1.26953L97.4609-48.6816Q97.4609-55.6641 93.8477-59.3018Q90.2344-62.9395 83.0566-62.9395L69.1406-62.9395L69.1406-56.8848L82.9102-56.8848Q86.9629-56.8848 89.1846-54.7363Q91.4062-52.5879 91.4062-48.3398L91.4062 0.927734Q91.4062 5.17578 89.1846 7.32422Q86.9629 9.47266 82.9102 9.47266L26.9531 9.47266Q22.8027 9.47266 20.6543 7.32422Q18.5059 5.17578 18.5059 0.927734L18.5059-48.3398Q18.5059-52.5879 20.6543-54.7363Q22.8027-56.8848 26.9531-56.8848L40.8203-56.8848L40.8203-62.9395L26.8555-62.9395Q19.6777-62.9395 16.0645-59.3506Q12.4512-55.7617 12.4512-48.6816L12.4512 1.26953Q12.4512 8.34961 16.0645 11.9385Q19.6777 15.5273 26.8555 15.5273Z"/>
   <path class="hierarchical-1:primary SFSymbolsPreview212121" d="M54.9316-22.0703Q56.2012-22.0703 57.0801-22.9248Q57.959-23.7793 57.959-25L57.959-77.5391L57.7148-84.668L62.0605-80.1758L70.3613-71.5332Q71.1914-70.6055 72.4121-70.6055Q73.584-70.6055 74.3652-71.3867Q75.1465-72.168 75.1465-73.3398Q75.1465-74.3652 74.2676-75.293L57.1289-92.0898Q56.543-92.627 56.0303-92.8467Q55.5176-93.0664 54.9316-93.0664Q54.3945-93.0664 53.8818-92.8467Q53.3691-92.627 52.7832-92.0898L35.5957-75.293Q34.7168-74.3652 34.7168-73.3398Q34.7168-72.168 35.4736-71.3867Q36.2305-70.6055 37.4023-70.6055Q38.6719-70.6055 39.502-71.5332L47.8027-80.1758L52.1973-84.668L51.9531-77.5391L51.9531-25Q51.9531-23.7793 52.832-22.9248Q53.7109-22.0703 54.9316-22.0703Z"/>
  </g>
  <g id="Thin-M" transform="matrix(1 0 0 1 802.565 1126)">
   <path class="hierarchical-0:secondary SFSymbolsPreview4D4D4D" d="M25.5859 14.5508L82.0801 14.5508Q88.5742 14.5508 91.9189 11.1816Q95.2637 7.8125 95.2637 1.41602L95.2637-50.0488Q95.2637-56.4453 91.9189-59.8145Q88.5742-63.1836 82.0801-63.1836L67.7246-63.1836L67.7246-59.5703L81.9336-59.5703Q86.5723-59.5703 89.1113-57.1289Q91.6504-54.6875 91.6504-49.8535L91.6504 1.26953Q91.6504 6.05469 89.1113 8.49609Q86.5723 10.9375 81.9336 10.9375L25.7324 10.9375Q20.9961 10.9375 18.5547 8.49609Q16.1133 6.05469 16.1133 1.26953L16.1133-49.8535Q16.1133-54.6875 18.5547-57.1289Q20.9961-59.5703 25.7324-59.5703L40.0391-59.5703L40.0391-63.1836L25.5859-63.1836Q19.1406-63.1836 15.7959-59.8389Q12.4512-56.4941 12.4512-50.0488L12.4512 1.41602Q12.4512 7.86133 15.7959 11.2061Q19.1406 14.5508 25.5859 14.5508Z"/>
   <path class="hierarchical-1:primary SFSymbolsPreview212121" d="M53.8574-22.168Q54.5898-22.168 55.127-22.7051Q55.6641-23.2422 55.6641-23.9746L55.6641-79.7363L55.5664-86.5723L61.3281-80.7129L70.752-71.0938Q71.3379-70.5078 72.0703-70.5078Q72.7539-70.5078 73.2178-70.9961Q73.6816-71.4844 73.6816-72.2168Q73.6816-72.8516 73.1445-73.3887L55.127-91.3086Q54.834-91.6504 54.5166-91.7725Q54.1992-91.8945 53.8574-91.8945Q53.5156-91.8945 53.1982-91.7725Q52.8809-91.6504 52.5391-91.3086L34.4727-73.3887Q33.9355-72.8516 33.9355-72.2168Q33.9355-71.4844 34.3994-70.9961Q34.8633-70.5078 35.5957-70.5078Q36.3281-70.5078 36.8652-71.0938L46.3379-80.7129L52.1484-86.5723L52.0508-79.7363L52.0508-23.9746Q52.0508-23.2422 52.5879-22.7051Q53.125-22.168 53.8574-22.168Z"/>
  </g>
  <g id="Ultralight-M" transform="matrix(1 0 0 1 506.415 1126)">
   <path class="hierarchical-0:secondary SFSymbolsPreview4D4D4D" d="M24.9512 14.0625L81.5918 14.0625Q87.7441 14.0625 90.9424 10.8154Q94.1406 7.56836 94.1406 1.51367L94.1406-50.7812Q94.1406-56.7871 90.9424-60.0586Q87.7441-63.3301 81.5918-63.3301L67.041-63.3301L67.041-60.9375L81.4453-60.9375Q86.3281-60.9375 89.0381-58.3496Q91.748-55.7617 91.748-50.6836L91.748 1.41602Q91.748 6.49414 89.0381 9.08203Q86.3281 11.6699 81.4453 11.6699L25.0977 11.6699Q20.0195 11.6699 17.4316 9.08203Q14.8438 6.49414 14.8438 1.41602L14.8438-50.6836Q14.8438-55.7617 17.4316-58.3496Q20.0195-60.9375 25.0977-60.9375L39.6484-60.9375L39.6484-63.3301L24.9512-63.3301Q18.8477-63.3301 15.6494-60.1074Q12.4512-56.8848 12.4512-50.7812L12.4512 1.51367Q12.4512 7.66602 15.6494 10.8643Q18.8477 14.0625 24.9512 14.0625Z"/>
   <path class="hierarchical-1:primary SFSymbolsPreview212121" d="M53.3203-22.2656Q53.8086-22.2656 54.1504-22.6074Q54.4922-22.9492 54.4922-23.4375L54.4922-80.8105L54.4434-87.5L60.9375-80.957L70.9961-70.8984Q71.4355-70.459 71.875-70.459Q72.3145-70.459 72.6318-70.8008Q72.9492-71.1426 72.9492-71.6309Q72.9492-72.0215 72.6074-72.4121L54.1504-90.9668Q53.9551-91.1133 53.7354-91.2109Q53.5156-91.3086 53.3203-91.3086Q53.0762-91.3086 52.8564-91.2109Q52.6367-91.1133 52.4414-90.9668L33.8867-72.4121Q33.5449-72.0215 33.5449-71.6309Q33.5449-71.1426 33.8623-70.8008Q34.1797-70.459 34.6191-70.459Q35.1074-70.459 35.498-70.8984L45.6055-80.957L52.1484-87.5488L52.0996-80.8105L52.0996-23.4375Q52.0996-22.9492 52.4414-22.6074Q52.7832-22.2656 53.3203-22.2656Z"/>
  </g>
  <g id="Black-S" transform="matrix(1 0 0 1 2885.99 696)">
   <path class="hierarchical-0:secondary SFSymbolsPreview4D4D4D" d="M25 6.54297L69.8242 6.54297Q77.002 6.54297 81.0303 2.51465Q85.0586-1.51367 85.0586-8.69141L85.0586-43.7988Q85.0586-50.9766 81.0303-55.0049Q77.002-59.0332 69.8242-59.0332L60.9375-59.0332L60.9375-44.873L67.5781-44.873Q69.2871-44.873 70.0928-44.1406Q70.8984-43.4082 70.8984-41.5527L70.8984-10.9375Q70.8984-9.13086 70.0928-8.37402Q69.2871-7.61719 67.5781-7.61719L27.2461-7.61719Q25.5859-7.61719 24.7559-8.37402Q23.9258-9.13086 23.9258-10.9375L23.9258-41.5527Q23.9258-43.4082 24.7559-44.1406Q25.5859-44.873 27.2461-44.873L34.2773-44.873L34.2773-59.0332L25-59.0332Q17.8223-59.0332 13.7939-55.0049Q9.76562-50.9766 9.76562-43.7988L9.76562-8.69141Q9.76562-1.51367 13.7939 2.51465Q17.8223 6.54297 25 6.54297Z"/>
   <path class="hierarchical-1:primary SFSymbolsPreview212121" d="M47.4121-26.6113Q50-26.6113 51.709-28.3936Q53.418-30.1758 53.418-32.5684L53.418-67.5293L52.8809-72.998L54.248-69.6777L57.5195-66.2109Q59.082-64.5508 61.3281-64.5508Q63.1836-64.5508 64.7705-65.8936Q66.3574-67.2363 66.3574-69.3848Q66.3574-71.3379 64.8438-72.8516L52.3926-84.7656Q51.1719-85.9375 49.9268-86.4258Q48.6816-86.9141 47.4121-86.9141Q46.1914-86.9141 44.9219-86.4258Q43.6523-85.9375 42.4316-84.7656L29.9805-72.8516Q28.4668-71.3379 28.4668-69.3848Q28.4668-67.2363 30.0537-65.8936Q31.6406-64.5508 33.4961-64.5508Q35.7422-64.5508 37.3047-66.2109L40.5762-69.6777L41.9434-72.998L41.4062-67.5293L41.4062-32.5684Q41.4062-30.1758 43.1396-28.3936Q44.873-26.6113 47.4121-26.6113Z"/>
  </g>
  <g id="Heavy-S" transform="matrix(1 0 0 1 2590.06 696)">
   <path class="hierarchical-0:secondary SFSymbolsPreview4D4D4D" d="M24.3652 6.29883L68.9453 6.29883Q75.8789 6.29883 79.6875 2.49023Q83.4961-1.31836 83.4961-8.25195L83.4961-43.9453Q83.4961-50.8789 79.6875-54.6875Q75.8789-58.4961 68.9453-58.4961L59.668-58.4961L59.668-45.9961L67.1875-45.9961Q69.0918-45.9961 70.0684-45.1172Q71.0449-44.2383 71.0449-42.1387L71.0449-10.0586Q71.0449-8.00781 70.0684-7.10449Q69.0918-6.20117 67.1875-6.20117L26.0742-6.20117Q24.1699-6.20117 23.2178-7.10449Q22.2656-8.00781 22.2656-10.0586L22.2656-42.1387Q22.2656-44.2383 23.2178-45.1172Q24.1699-45.9961 26.0742-45.9961L33.8867-45.9961L33.8867-58.4961L24.3652-58.4961Q17.3828-58.4961 13.5742-54.6875Q9.76562-50.8789 9.76562-43.9453L9.76562-8.25195Q9.76562-1.31836 13.5742 2.49023Q17.3828 6.29883 24.3652 6.29883Z"/>
   <path class="hierarchical-1:primary SFSymbolsPreview212121" d="M46.6309-26.1719Q48.9258-26.1719 50.4883-27.7832Q52.0508-29.3945 52.0508-31.543L52.0508-67.2363L51.5625-72.8027L53.0762-69.7266L56.8848-65.7227Q58.252-64.209 60.3027-64.209Q62.0605-64.209 63.501-65.4297Q64.9414-66.6504 64.9414-68.6035Q64.9414-70.4102 63.5254-71.8262L51.0254-83.7402Q49.9512-84.8145 48.8525-85.2539Q47.7539-85.6934 46.6309-85.6934Q45.5566-85.6934 44.4336-85.2539Q43.3105-84.8145 42.2363-83.7402L29.7363-71.8262Q28.3203-70.4102 28.3203-68.6035Q28.3203-66.6504 29.7607-65.4297Q31.2012-64.209 32.9102-64.209Q35.0098-64.209 36.4258-65.7227L40.1855-69.7266L41.6992-72.8027L41.2109-67.2363L41.2109-31.543Q41.2109-29.3945 42.7979-27.7832Q44.3848-26.1719 46.6309-26.1719Z"/>
  </g>
  <g id="Bold-S" transform="matrix(1 0 0 1 2294.2 696)">
   <path class="hierarchical-0:secondary SFSymbolsPreview4D4D4D" d="M23.6328 6.00586L67.9199 6.00586Q74.6582 6.00586 78.2227 2.44141Q81.7871-1.12305 81.7871-7.76367L81.7871-44.0918Q81.7871-50.7812 78.2227-54.3213Q74.6582-57.8613 67.9199-57.8613L58.252-57.8613L58.252-47.2656L66.748-47.2656Q68.9453-47.2656 70.0684-46.1914Q71.1914-45.1172 71.1914-42.8223L71.1914-9.08203Q71.1914-6.78711 70.0684-5.71289Q68.9453-4.63867 66.748-4.63867L24.8047-4.63867Q22.6562-4.63867 21.5088-5.71289Q20.3613-6.78711 20.3613-9.08203L20.3613-42.8223Q20.3613-45.1172 21.5088-46.1914Q22.6562-47.2656 24.8047-47.2656L33.4961-47.2656L33.4961-57.8613L23.6328-57.8613Q16.9434-57.8613 13.3545-54.3213Q9.76562-50.7812 9.76562-44.0918L9.76562-7.76367Q9.76562-1.12305 13.3545 2.44141Q16.9434 6.00586 23.6328 6.00586Z"/>
   <path class="hierarchical-1:primary SFSymbolsPreview212121" d="M45.752-25.7324Q47.7539-25.7324 49.1455-27.124Q50.5371-28.5156 50.5371-30.4199L50.5371-66.9434L50.0977-72.6074L51.8066-69.8242L56.1523-65.1855Q57.373-63.8184 59.2285-63.8184Q60.8398-63.8184 62.085-64.917Q63.3301-66.0156 63.3301-67.7734Q63.3301-69.3848 62.0605-70.6543L49.5117-82.6172Q48.584-83.5449 47.6562-83.9111Q46.7285-84.2773 45.752-84.2773Q44.8242-84.2773 43.8965-83.9111Q42.9688-83.5449 41.9922-82.6172L29.4922-70.6543Q28.2227-69.3848 28.2227-67.7734Q28.2227-66.0156 29.4434-64.917Q30.6641-63.8184 32.3242-63.8184Q34.1797-63.8184 35.4004-65.1855L39.7461-69.8242L41.4551-72.6074L41.0156-66.9434L41.0156-30.4199Q41.0156-28.5156 42.4072-27.124Q43.7988-25.7324 45.752-25.7324Z"/>
  </g>
  <g id="Semibold-S" transform="matrix(1 0 0 1 1998.1 696)">
   <path class="hierarchical-0:secondary SFSymbolsPreview4D4D4D" d="M23.0957 5.81055L67.2363 5.81055Q73.7793 5.81055 77.1729 2.44141Q80.5664-0.927734 80.5664-7.42188L80.5664-44.1895Q80.5664-50.6836 77.1729-54.0527Q73.7793-57.4219 67.2363-57.4219L57.2266-57.4219L57.2266-48.0957L66.4551-48.0957Q68.7988-48.0957 70.0439-46.9238Q71.2891-45.752 71.2891-43.2617L71.2891-8.34961Q71.2891-5.9082 70.0439-4.71191Q68.7988-3.51562 66.4551-3.51562L23.877-3.51562Q21.5332-3.51562 20.2881-4.71191Q19.043-5.9082 19.043-8.34961L19.043-43.2617Q19.043-45.752 20.2881-46.9238Q21.5332-48.0957 23.877-48.0957L33.2031-48.0957L33.2031-57.4219L23.0957-57.4219Q16.6016-57.4219 13.1836-54.0527Q9.76562-50.6836 9.76562-44.1895L9.76562-7.42188Q9.76562-0.927734 13.1836 2.44141Q16.6016 5.81055 23.0957 5.81055Z"/>
   <path class="hierarchical-1:primary SFSymbolsPreview212121" d="M45.166-25.3906Q46.9238-25.3906 48.1934-26.6357Q49.4629-27.8809 49.4629-29.5898L49.4629-66.6992L49.0723-72.4121L50.9277-69.8242L55.6152-64.7949Q56.7383-63.5742 58.4473-63.5742Q59.9609-63.5742 61.084-64.5752Q62.207-65.5762 62.207-67.1387Q62.207-68.6523 61.0352-69.8242L48.4863-81.8359Q47.6562-82.666 46.8262-82.9834Q45.9961-83.3008 45.166-83.3008Q44.3359-83.3008 43.5059-82.9834Q42.6758-82.666 41.8457-81.8359L29.2969-69.8242Q28.0762-68.6523 28.0762-67.1387Q28.0762-65.5762 29.1992-64.5752Q30.3223-63.5742 31.8848-63.5742Q33.5938-63.5742 34.7168-64.7949L39.4043-69.8242L41.2598-72.4121L40.8691-66.6992L40.8691-29.5898Q40.8691-27.8809 42.1387-26.6357Q43.4082-25.3906 45.166-25.3906Z"/>
  </g>
  <g id="Medium-S" transform="matrix(1 0 0 1 1701.85 696)">
   <path class="hierarchical-0:secondary SFSymbolsPreview4D4D4D" d="M22.7051 5.66406L66.6992 5.66406Q73.0957 5.66406 76.3672 2.41699Q79.6387-0.830078 79.6387-7.17773L79.6387-44.2871Q79.6387-50.6348 76.3672-53.8818Q73.0957-57.1289 66.6992-57.1289L56.4941-57.1289L56.4941-48.7793L66.2109-48.7793Q68.7012-48.7793 70.0195-47.4854Q71.3379-46.1914 71.3379-43.6035L71.3379-7.86133Q71.3379-5.22461 70.0195-3.95508Q68.7012-2.68555 66.2109-2.68555L23.1934-2.68555Q20.752-2.68555 19.4092-3.95508Q18.0664-5.22461 18.0664-7.86133L18.0664-43.6035Q18.0664-46.1914 19.4092-47.4854Q20.752-48.7793 23.1934-48.7793L33.0078-48.7793L33.0078-57.1289L22.7051-57.1289Q16.3574-57.1289 13.0615-53.8818Q9.76562-50.6348 9.76562-44.2871L9.76562-7.17773Q9.76562-0.830078 13.0615 2.41699Q16.3574 5.66406 22.7051 5.66406Z"/>
   <path class="hierarchical-1:primary SFSymbolsPreview212121" d="M44.6777-25.1465Q46.3379-25.1465 47.4854-26.2695Q48.6328-27.3926 48.6328-29.0039L48.6328-66.5039L48.3398-72.3145L50.2441-69.873L55.2246-64.502Q56.25-63.3301 57.8613-63.3301Q59.2773-63.3301 60.3271-64.2822Q61.377-65.2344 61.377-66.6992Q61.377-68.1152 60.2539-69.1895L47.6562-81.25Q46.9238-82.0312 46.1914-82.2998Q45.459-82.5684 44.6777-82.5684Q43.9453-82.5684 43.2129-82.2998Q42.4805-82.0312 41.6992-81.25L29.1504-69.1895Q28.0273-68.1152 28.0273-66.6992Q28.0273-65.2344 29.0283-64.2822Q30.0293-63.3301 31.543-63.3301Q33.1543-63.3301 34.1797-64.502L39.1602-69.873L41.1133-72.3145L40.7715-66.5039L40.7715-29.0039Q40.7715-27.3926 41.9434-26.2695Q43.1152-25.1465 44.6777-25.1465Z"/>
  </g>
  <g id="Regular-S" transform="matrix(1 0 0 1 1405.73 696)">
   <path class="hierarchical-0:secondary SFSymbolsPreview4D4D4D" d="M22.2168 5.46875L66.0156 5.46875Q72.2656 5.46875 75.3662 2.39258Q78.4668-0.683594 78.4668-6.83594L78.4668-44.3848Q78.4668-50.5371 75.3662-53.6133Q72.2656-56.6895 66.0156-56.6895L55.5176-56.6895L55.5176-49.6094L65.918-49.6094Q68.5547-49.6094 69.9951-48.2178Q71.4355-46.8262 71.4355-44.043L71.4355-7.17773Q71.4355-4.39453 69.9951-3.00293Q68.5547-1.61133 65.918-1.61133L22.3145-1.61133Q19.6777-1.61133 18.2373-3.00293Q16.7969-4.39453 16.7969-7.17773L16.7969-44.043Q16.7969-46.8262 18.2373-48.2178Q19.6777-49.6094 22.3145-49.6094L32.7148-49.6094L32.7148-56.6895L22.2168-56.6895Q16.0156-56.6895 12.8906-53.6133Q9.76562-50.5371 9.76562-44.3848L9.76562-6.83594Q9.76562-0.683594 12.8906 2.39258Q16.0156 5.46875 22.2168 5.46875Z"/>
   <path class="hierarchical-1:primary SFSymbolsPreview212121" d="M44.0918-24.8047Q45.5078-24.8047 46.5576-25.8057Q47.6074-26.8066 47.6074-28.2227L47.6074-66.3086L47.3145-72.168L49.3652-69.9219L54.7363-64.1113Q55.6152-63.0859 57.0801-63.0859Q58.4473-63.0859 59.375-63.9404Q60.3027-64.7949 60.3027-66.1133Q60.3027-67.3828 59.2285-68.4082L46.6309-80.4688Q45.9961-81.1523 45.3857-81.3965Q44.7754-81.6406 44.0918-81.6406Q43.457-81.6406 42.8467-81.3965Q42.2363-81.1523 41.5527-80.4688L28.9551-68.4082Q27.9297-67.3828 27.9297-66.1133Q27.9297-64.7949 28.8086-63.9404Q29.6875-63.0859 31.1035-63.0859Q32.5684-63.0859 33.4961-64.1113L38.8672-69.9219L40.918-72.168L40.625-66.3086L40.625-28.2227Q40.625-26.8066 41.6748-25.8057Q42.7246-24.8047 44.0918-24.8047Z"/>
  </g>
  <g id="Light-S" transform="matrix(1 0 0 1 1109.75 696)">
   <path class="hierarchical-0:secondary SFSymbolsPreview4D4D4D" d="M21.3867 4.83398L65.3809 4.83398Q71.1426 4.83398 74.0723 1.9043Q77.002-1.02539 77.002-6.73828L77.002-45.3125Q77.002-51.0254 74.0723-53.9307Q71.1426-56.8359 65.3809-56.8359L54.5898-56.8359L54.5898-51.416L65.2832-51.416Q68.2617-51.416 69.9219-49.8291Q71.582-48.2422 71.582-45.0684L71.582-6.98242Q71.582-3.80859 69.9219-2.22168Q68.2617-0.634766 65.2832-0.634766L21.4844-0.634766Q18.457-0.634766 16.8213-2.22168Q15.1855-3.80859 15.1855-6.98242L15.1855-45.0684Q15.1855-48.2422 16.8213-49.8291Q18.457-51.416 21.4844-51.416L32.1777-51.416L32.1777-56.8359L21.3867-56.8359Q15.625-56.8359 12.6953-53.9551Q9.76562-51.0742 9.76562-45.3125L9.76562-6.73828Q9.76562-0.976562 12.6953 1.92871Q15.625 4.83398 21.3867 4.83398Z"/>
   <path class="hierarchical-1:primary SFSymbolsPreview212121" d="M43.3594-24.9023Q44.4824-24.9023 45.2881-25.6592Q46.0938-26.416 46.0938-27.5391L46.0938-67.7734L45.8496-73.4375L48.8281-70.2637L55.0293-63.8184Q55.7129-62.9883 56.8359-62.9883Q57.9102-62.9883 58.6182-63.6719Q59.3262-64.3555 59.3262-65.3809Q59.3262-66.3574 58.4961-67.1387L45.3125-79.9805Q44.8242-80.4688 44.3604-80.6641Q43.8965-80.8594 43.3594-80.8594Q42.8711-80.8594 42.4072-80.6641Q41.9434-80.4688 41.4062-79.9805L28.2227-67.1387Q27.3926-66.3574 27.3926-65.3809Q27.3926-64.3555 28.0762-63.6719Q28.7598-62.9883 29.8828-62.9883Q31.0059-62.9883 31.7383-63.8184L37.8906-70.2637L40.918-73.4375L40.6738-67.7734L40.6738-27.5391Q40.6738-26.416 41.4795-25.6592Q42.2852-24.9023 43.3594-24.9023Z"/>
  </g>
  <g id="Thin-S" transform="matrix(1 0 0 1 814.015 696)">
   <path class="hierarchical-0:secondary SFSymbolsPreview4D4D4D" d="M20.3125 3.95508L64.502 3.95508Q69.6777 3.95508 72.3633 1.26953Q75.0488-1.41602 75.0488-6.54297L75.0488-46.582Q75.0488-51.709 72.3633-54.3945Q69.6777-57.0801 64.502-57.0801L53.3691-57.0801L53.3691-53.8086L64.4043-53.8086Q67.9199-53.8086 69.8242-51.9287Q71.7285-50.0488 71.7285-46.3867L71.7285-6.73828Q71.7285-3.07617 69.8242-1.2207Q67.9199 0.634766 64.4043 0.634766L20.4102 0.634766Q16.7969 0.634766 14.9414-1.2207Q13.0859-3.07617 13.0859-6.73828L13.0859-46.3867Q13.0859-50.0488 14.9414-51.9287Q16.7969-53.8086 20.4102-53.8086L31.543-53.8086L31.543-57.0801L20.3125-57.0801Q15.0879-57.0801 12.4268-54.4189Q9.76562-51.7578 9.76562-46.582L9.76562-6.54297Q9.76562-1.36719 12.4268 1.29395Q15.0879 3.95508 20.3125 3.95508Z"/>
   <path class="hierarchical-1:primary SFSymbolsPreview212121" d="M42.3828-25Q43.0664-25 43.5547-25.4639Q44.043-25.9277 44.043-26.6113L44.043-69.6777L43.9453-75.0977L48.1934-70.752L55.3711-63.4277Q55.8594-62.8906 56.543-62.8906Q57.1289-62.8906 57.5928-63.3301Q58.0566-63.7695 58.0566-64.4043Q58.0566-64.9902 57.5195-65.4785L43.5547-79.2969Q43.3105-79.5898 43.0176-79.7119Q42.7246-79.834 42.3828-79.834Q42.0898-79.834 41.8213-79.7119Q41.5527-79.5898 41.2598-79.2969L27.2461-65.4785Q26.7578-64.9902 26.7578-64.4043Q26.7578-63.7695 27.1729-63.3301Q27.5879-62.8906 28.2227-62.8906Q28.9062-62.8906 29.3945-63.4277L36.6211-70.752L40.8691-75.0977L40.7715-69.6777L40.7715-26.6113Q40.7715-25.9277 41.2598-25.4639Q41.748-25 42.3828-25Z"/>
  </g>
  <g id="Ultralight-S" transform="matrix(1 0 0 1 517.792 696)">
   <path class="hierarchical-0:secondary SFSymbolsPreview4D4D4D" d="M19.7754 3.51562L64.0625 3.51562Q68.9453 3.51562 71.5088 0.927734Q74.0723-1.66016 74.0723-6.49414L74.0723-47.2168Q74.0723-52.0508 71.5088-54.6143Q68.9453-57.1777 64.0625-57.1777L52.7344-57.1777L52.7344-55.0293L63.9648-55.0293Q67.7246-55.0293 69.7754-53.0273Q71.8262-51.0254 71.8262-47.0703L71.8262-6.5918Q71.8262-2.68555 69.7754-0.683594Q67.7246 1.31836 63.9648 1.31836L19.873 1.31836Q15.9668 1.31836 13.9648-0.683594Q11.9629-2.68555 11.9629-6.5918L11.9629-47.0703Q11.9629-51.0254 13.9648-53.0273Q15.9668-55.0293 19.873-55.0293L31.1523-55.0293L31.1523-57.1777L19.7754-57.1777Q14.8438-57.1777 12.3047-54.6631Q9.76562-52.1484 9.76562-47.2168L9.76562-6.49414Q9.76562-1.5625 12.3047 0.976562Q14.8438 3.51562 19.7754 3.51562Z"/>
   <path class="hierarchical-1:primary SFSymbolsPreview212121" d="M41.8945-25.0488Q42.3828-25.0488 42.7002-25.3662Q43.0176-25.6836 43.0176-26.123L43.0176-70.6543L42.9688-75.9277L47.8027-70.9961L55.5664-63.2324Q55.957-62.8418 56.3965-62.8418Q56.7871-62.8418 57.0801-63.1592Q57.373-63.4766 57.373-63.8672Q57.373-64.3066 57.0312-64.5996L42.6758-78.9551Q42.4805-79.1504 42.2852-79.248Q42.0898-79.3457 41.8945-79.3457Q41.6992-79.3457 41.5039-79.248Q41.3086-79.1504 41.1621-78.9551L26.709-64.5996Q26.3672-64.3066 26.3672-63.8672Q26.3672-63.4766 26.6602-63.1592Q26.9531-62.8418 27.3926-62.8418Q27.832-62.8418 28.1738-63.2324L35.9375-70.9961L40.8691-75.9766L40.8203-70.6543L40.8203-26.123Q40.8203-25.6836 41.1377-25.3662Q41.4551-25.0488 41.8945-25.0488Z"/>
  </g>
 </g>
</svg>
