<?xml version="1.0" encoding="UTF-8"?>
<!--Generator: Apple Native CoreSVG 175-->
<!DOCTYPE svg
PUBLIC "-//W3C//DTD SVG 1.1//EN"
       "http://www.w3.org/Graphics/SVG/1.1/DTD/svg11.dtd">
<svg version="1.1" xmlns="http://www.w3.org/2000/svg" xmlns:xlink="http://www.w3.org/1999/xlink" width="3300" height="2200">
 <!--glyph: "uni1001BA.medium", point size: 100.0, font version: "17.0d11e1", template writer version: "65.1"-->
 <g id="Notes">
  <rect height="2200" id="artboard" style="fill:white;opacity:1" width="3300" x="0" y="0"/>
  <line style="fill:none;stroke:black;opacity:1;stroke-width:0.5;" x1="263" x2="3036" y1="292" y2="292"/>
  <text style="stroke:none;fill:black;font-family:sans-serif;font-size:13;font-weight:bold;" transform="matrix(1 0 0 1 263 322)">Weight/Scale Variations</text>
  <text style="stroke:none;fill:black;font-family:sans-serif;font-size:13;text-anchor:middle;" transform="matrix(1 0 0 1 559.711 322)">Ultralight</text>
  <text style="stroke:none;fill:black;font-family:sans-serif;font-size:13;text-anchor:middle;" transform="matrix(1 0 0 1 856.422 322)">Thin</text>
  <text style="stroke:none;fill:black;font-family:sans-serif;font-size:13;text-anchor:middle;" transform="matrix(1 0 0 1 1153.13 322)">Light</text>
  <text style="stroke:none;fill:black;font-family:sans-serif;font-size:13;text-anchor:middle;" transform="matrix(1 0 0 1 1449.84 322)">Regular</text>
  <text style="stroke:none;fill:black;font-family:sans-serif;font-size:13;text-anchor:middle;" transform="matrix(1 0 0 1 1746.56 322)">Medium</text>
  <text style="stroke:none;fill:black;font-family:sans-serif;font-size:13;text-anchor:middle;" transform="matrix(1 0 0 1 2043.27 322)">Semibold</text>
  <text style="stroke:none;fill:black;font-family:sans-serif;font-size:13;text-anchor:middle;" transform="matrix(1 0 0 1 2339.98 322)">Bold</text>
  <text style="stroke:none;fill:black;font-family:sans-serif;font-size:13;text-anchor:middle;" transform="matrix(1 0 0 1 2636.69 322)">Heavy</text>
  <text style="stroke:none;fill:black;font-family:sans-serif;font-size:13;text-anchor:middle;" transform="matrix(1 0 0 1 2933.4 322)">Black</text>
  <line style="fill:none;stroke:black;opacity:1;stroke-width:0.5;" x1="263" x2="3036" y1="1903" y2="1903"/>
  <g transform="matrix(1 0 0 1 263 1933)">
   <path d="M9.24805 0.830078Q10.8691 0.830078 12.2949 0.214844Q13.7207-0.400391 14.8096-1.49414Q15.8984-2.58789 16.5186-4.01367Q17.1387-5.43945 17.1387-7.05078Q17.1387-8.66211 16.5186-10.0879Q15.8984-11.5137 14.8047-12.6074Q13.7109-13.7012 12.2852-14.3164Q10.8594-14.9316 9.23828-14.9316Q7.62695-14.9316 6.20117-14.3164Q4.77539-13.7012 3.69141-12.6074Q2.60742-11.5137 1.9873-10.0879Q1.36719-8.66211 1.36719-7.05078Q1.36719-5.43945 1.9873-4.01367Q2.60742-2.58789 3.69629-1.49414Q4.78516-0.400391 6.21094 0.214844Q7.63672 0.830078 9.24805 0.830078ZM9.24805-0.654297Q7.91992-0.654297 6.7627-1.14746Q5.60547-1.64062 4.73145-2.51953Q3.85742-3.39844 3.36426-4.56055Q2.87109-5.72266 2.87109-7.05078Q2.87109-8.37891 3.35938-9.54102Q3.84766-10.7031 4.72168-11.582Q5.5957-12.4609 6.75293-12.9541Q7.91016-13.4473 9.23828-13.4473Q10.5762-13.4473 11.7334-12.9541Q12.8906-12.4609 13.7695-11.582Q14.6484-10.7031 15.1465-9.54102Q15.6445-8.37891 15.6445-7.05078Q15.6445-5.72266 15.1514-4.56055Q14.6582-3.39844 13.7842-2.51953Q12.9102-1.64062 11.748-1.14746Q10.5859-0.654297 9.24805-0.654297ZM5.6543-7.05078Q5.6543-6.72852 5.85938-6.52832Q6.06445-6.32812 6.40625-6.32812L8.51562-6.32812L8.51562-4.20898Q8.51562-3.88672 8.71094-3.67676Q8.90625-3.4668 9.23828-3.4668Q9.56055-3.4668 9.77051-3.67676Q9.98047-3.88672 9.98047-4.20898L9.98047-6.32812L12.0898-6.32812Q12.4219-6.32812 12.627-6.52832Q12.832-6.72852 12.832-7.05078Q12.832-7.38281 12.627-7.58789Q12.4219-7.79297 12.0898-7.79297L9.98047-7.79297L9.98047-9.90234Q9.98047-10.2344 9.77051-10.4443Q9.56055-10.6543 9.23828-10.6543Q8.90625-10.6543 8.71094-10.4443Q8.51562-10.2344 8.51562-9.90234L8.51562-7.79297L6.40625-7.79297Q6.06445-7.79297 5.85938-7.58789Q5.6543-7.38281 5.6543-7.05078Z"/>
  </g>
  <g transform="matrix(1 0 0 1 281.867 1933)">
   <path d="M11.709 2.91016Q13.75 2.91016 15.5518 2.12891Q17.3535 1.34766 18.7305-0.0292969Q20.1074-1.40625 20.8887-3.20801Q21.6699-5.00977 21.6699-7.05078Q21.6699-9.0918 20.8887-10.8936Q20.1074-12.6953 18.7305-14.0723Q17.3535-15.4492 15.5469-16.2305Q13.7402-17.0117 11.6992-17.0117Q9.6582-17.0117 7.85645-16.2305Q6.05469-15.4492 4.68262-14.0723Q3.31055-12.6953 2.5293-10.8936Q1.74805-9.0918 1.74805-7.05078Q1.74805-5.00977 2.5293-3.20801Q3.31055-1.40625 4.6875-0.0292969Q6.06445 1.34766 7.86621 2.12891Q9.66797 2.91016 11.709 2.91016ZM11.709 1.25Q9.98047 1.25 8.47656 0.605469Q6.97266-0.0390625 5.83496-1.17676Q4.69727-2.31445 4.05762-3.81836Q3.41797-5.32227 3.41797-7.05078Q3.41797-8.7793 4.05762-10.2832Q4.69727-11.7871 5.83008-12.9297Q6.96289-14.0723 8.4668-14.7119Q9.9707-15.3516 11.6992-15.3516Q13.4277-15.3516 14.9316-14.7119Q16.4355-14.0723 17.5781-12.9297Q18.7207-11.7871 19.3652-10.2832Q20.0098-8.7793 20.0098-7.05078Q20.0098-5.32227 19.3701-3.81836Q18.7305-2.31445 17.5928-1.17676Q16.4551-0.0390625 14.9463 0.605469Q13.4375 1.25 11.709 1.25ZM7.17773-7.05078Q7.17773-6.69922 7.41211-6.47461Q7.64648-6.25 8.01758-6.25L10.8887-6.25L10.8887-3.36914Q10.8887-2.99805 11.1133-2.76855Q11.3379-2.53906 11.6895-2.53906Q12.0605-2.53906 12.29-2.76855Q12.5195-2.99805 12.5195-3.36914L12.5195-6.25L15.4004-6.25Q15.7715-6.25 16.001-6.47461Q16.2305-6.69922 16.2305-7.05078Q16.2305-7.42188 16.001-7.65137Q15.7715-7.88086 15.4004-7.88086L12.5195-7.88086L12.5195-10.752Q12.5195-11.1328 12.29-11.3623Q12.0605-11.5918 11.6895-11.5918Q11.3379-11.5918 11.1133-11.3574Q10.8887-11.123 10.8887-10.752L10.8887-7.88086L8.01758-7.88086Q7.63672-7.88086 7.40723-7.65137Q7.17773-7.42188 7.17773-7.05078Z"/>
  </g>
  <g transform="matrix(1 0 0 1 305.646 1933)">
   <path d="M14.9707 5.66406Q17.0605 5.66406 18.96 5.01465Q20.8594 4.36523 22.4512 3.19336Q24.043 2.02148 25.2197 0.429688Q26.3965-1.16211 27.0459-3.06641Q27.6953-4.9707 27.6953-7.05078Q27.6953-9.14062 27.0459-11.04Q26.3965-12.9395 25.2197-14.5312Q24.043-16.123 22.4512-17.2998Q20.8594-18.4766 18.9551-19.126Q17.0508-19.7754 14.9609-19.7754Q12.8711-19.7754 10.9717-19.126Q9.07227-18.4766 7.48535-17.2998Q5.89844-16.123 4.72168-14.5312Q3.54492-12.9395 2.90039-11.04Q2.25586-9.14062 2.25586-7.05078Q2.25586-4.9707 2.90527-3.06641Q3.55469-1.16211 4.72656 0.429688Q5.89844 2.02148 7.49023 3.19336Q9.08203 4.36523 10.9814 5.01465Q12.8809 5.66406 14.9707 5.66406ZM14.9707 3.84766Q13.1641 3.84766 11.5283 3.2959Q9.89258 2.74414 8.53516 1.74805Q7.17773 0.751953 6.17676-0.610352Q5.17578-1.97266 4.62891-3.6084Q4.08203-5.24414 4.08203-7.05078Q4.08203-8.86719 4.62891-10.5029Q5.17578-12.1387 6.17188-13.501Q7.16797-14.8633 8.52539-15.8594Q9.88281-16.8555 11.5186-17.4023Q13.1543-17.9492 14.9609-17.9492Q16.7773-17.9492 18.4131-17.4023Q20.0488-16.8555 21.4111-15.8594Q22.7734-14.8633 23.7695-13.501Q24.7656-12.1387 25.3174-10.5029Q25.8691-8.86719 25.8691-7.05078Q25.8789-5.24414 25.332-3.6084Q24.7852-1.97266 23.7842-0.610352Q22.7832 0.751953 21.4209 1.74805Q20.0586 2.74414 18.4229 3.2959Q16.7871 3.84766 14.9707 3.84766ZM9.19922-7.05078Q9.19922-6.66992 9.45801-6.4209Q9.7168-6.17188 10.1172-6.17188L14.0625-6.17188L14.0625-2.2168Q14.0625-1.81641 14.3115-1.55762Q14.5605-1.29883 14.9512-1.29883Q15.3516-1.29883 15.6104-1.55273Q15.8691-1.80664 15.8691-2.2168L15.8691-6.17188L19.8242-6.17188Q20.2246-6.17188 20.4785-6.4209Q20.7324-6.66992 20.7324-7.05078Q20.7324-7.46094 20.4785-7.71484Q20.2246-7.96875 19.8242-7.96875L15.8691-7.96875L15.8691-11.9141Q15.8691-12.3242 15.6104-12.583Q15.3516-12.8418 14.9512-12.8418Q14.5605-12.8418 14.3115-12.583Q14.0625-12.3242 14.0625-11.9141L14.0625-7.96875L10.1172-7.96875Q9.70703-7.96875 9.45312-7.71484Q9.19922-7.46094 9.19922-7.05078Z"/>
  </g>
  <text style="stroke:none;fill:black;font-family:sans-serif;font-size:13;font-weight:bold;" transform="matrix(1 0 0 1 263 1953)">Design Variations</text>
  <text style="stroke:none;fill:black;font-family:sans-serif;font-size:13;" transform="matrix(1 0 0 1 263 1971)">Symbols are supported in up to nine weights and three scales.</text>
  <text style="stroke:none;fill:black;font-family:sans-serif;font-size:13;" transform="matrix(1 0 0 1 263 1989)">For optimal layout with text and other symbols, vertically align</text>
  <text style="stroke:none;fill:black;font-family:sans-serif;font-size:13;" transform="matrix(1 0 0 1 263 2007)">symbols with the adjacent text.</text>
  <line style="fill:none;stroke:#00AEEF;stroke-width:0.5;opacity:1.0;" x1="776" x2="776" y1="1919" y2="1933"/>
  <g transform="matrix(1 0 0 1 776 1933)">
   <path d="M3.31055 0.15625Q3.70117 0.15625 3.91602-0.00976562Q4.13086-0.175781 4.26758-0.585938L5.52734-4.0332L11.2891-4.0332L12.5488-0.585938Q12.6855-0.175781 12.9004-0.00976562Q13.1152 0.15625 13.4961 0.15625Q13.8867 0.15625 14.1162-0.0585938Q14.3457-0.273438 14.3457-0.644531Q14.3457-0.869141 14.2383-1.17188L9.6582-13.3691Q9.48242-13.8184 9.17969-14.043Q8.87695-14.2676 8.4082-14.2676Q7.5-14.2676 7.17773-13.3789L2.59766-1.16211Q2.49023-0.859375 2.49023-0.634766Q2.49023-0.263672 2.70996-0.0537109Q2.92969 0.15625 3.31055 0.15625ZM6.00586-5.51758L8.37891-12.0898L8.42773-12.0898L10.8008-5.51758Z"/>
  </g>
  <line style="fill:none;stroke:#00AEEF;stroke-width:0.5;opacity:1.0;" x1="793.197" x2="793.197" y1="1919" y2="1933"/>
  <text style="stroke:none;fill:black;font-family:sans-serif;font-size:13;font-weight:bold;" transform="matrix(1 0 0 1 776 1953)">Margins</text>
  <text style="stroke:none;fill:black;font-family:sans-serif;font-size:13;" transform="matrix(1 0 0 1 776 1971)">Leading and trailing margins on the left and right side of each symbol</text>
  <text style="stroke:none;fill:black;font-family:sans-serif;font-size:13;" transform="matrix(1 0 0 1 776 1989)">can be adjusted by modifying the x-location of the margin guidelines.</text>
  <text style="stroke:none;fill:black;font-family:sans-serif;font-size:13;" transform="matrix(1 0 0 1 776 2007)">Modifications are automatically applied proportionally to all</text>
  <text style="stroke:none;fill:black;font-family:sans-serif;font-size:13;" transform="matrix(1 0 0 1 776 2025)">scales and weights.</text>
  <g transform="matrix(1 0 0 1 1289 1933)">
   <path d="M2.8418 1.86523L4.54102 3.57422Q5.18555 4.22852 5.90332 4.17969Q6.62109 4.13086 7.31445 3.35938L18.0078-8.42773L17.041-9.4043L6.42578 2.27539Q6.16211 2.57812 5.89355 2.61719Q5.625 2.65625 5.27344 2.30469L4.10156 1.14258Q3.75 0.791016 3.79395 0.522461Q3.83789 0.253906 4.14062-0.0195312L15.6152-10.8203L14.6387-11.7871L3.04688-0.898438Q2.30469-0.214844 2.25098 0.498047Q2.19727 1.21094 2.8418 1.86523ZM9.25781-16.3281Q8.94531-16.0254 8.90625-15.6348Q8.86719-15.2441 9.04297-14.9512Q9.21875-14.6777 9.55566-14.541Q9.89258-14.4043 10.3809-14.5215Q11.4746-14.7754 12.5977-14.7314Q13.7207-14.6875 14.7949-13.9844L14.209-12.5293Q13.9551-11.9043 14.0674-11.4404Q14.1797-10.9766 14.5801-10.5664L16.875-8.25195Q17.2363-7.88086 17.5781-7.82227Q17.9199-7.76367 18.3398-7.8418L19.4043-8.03711L20.0684-7.36328L20.0293-6.80664Q20-6.43555 20.1221-6.12305Q20.2441-5.81055 20.6055-5.44922L21.3672-4.70703Q21.7285-4.3457 22.1533-4.33105Q22.5781-4.31641 22.9297-4.66797L25.8398-7.58789Q26.1914-7.93945 26.1816-8.35449Q26.1719-8.76953 25.8105-9.13086L25.0391-9.89258Q24.6875-10.2539 24.3799-10.3857Q24.0723-10.5176 23.7109-10.4883L23.1348-10.4395L22.4902-11.0742L22.7344-12.1973Q22.832-12.6172 22.6953-12.9834Q22.5586-13.3496 22.1191-13.7891L19.9219-15.9766Q18.6719-17.2168 17.2607-17.8369Q15.8496-18.457 14.4189-18.4814Q12.9883-18.5059 11.665-17.959Q10.3418-17.4121 9.25781-16.3281ZM10.752-15.957Q11.6602-16.6211 12.7002-16.9043Q13.7402-17.1875 14.8047-17.085Q15.8691-16.9824 16.8701-16.5137Q17.8711-16.0449 18.7012-15.2051L21.1328-12.793Q21.3086-12.6172 21.3525-12.4512Q21.3965-12.2852 21.3379-12.0312L21.0156-10.5469L22.5195-9.0625L23.5059-9.12109Q23.6914-9.13086 23.7891-9.09668Q23.8867-9.0625 24.0332-8.91602L24.6094-8.33984L22.168-5.89844L21.5918-6.47461Q21.4453-6.62109 21.4062-6.71875Q21.3672-6.81641 21.377-7.01172L21.4453-7.98828L19.9512-9.47266L18.4277-9.21875Q18.1836-9.16992 18.042-9.2041Q17.9004-9.23828 17.7148-9.41406L15.7129-11.416Q15.5176-11.5918 15.4932-11.7529Q15.4688-11.9141 15.5859-12.1875L16.4648-14.2773Q15.293-15.3711 13.8281-15.791Q12.3633-16.2109 10.8398-15.7617Q10.7227-15.7324 10.6885-15.8057Q10.6543-15.8789 10.752-15.957Z"/>
  </g>
  <text style="stroke:none;fill:black;font-family:sans-serif;font-size:13;font-weight:bold;" transform="matrix(1 0 0 1 1289 1953)">Exporting</text>
  <text style="stroke:none;fill:black;font-family:sans-serif;font-size:13;" transform="matrix(1 0 0 1 1289 1971)">Symbols should be outlined when exporting to ensure the</text>
  <text style="stroke:none;fill:black;font-family:sans-serif;font-size:13;" transform="matrix(1 0 0 1 1289 1989)">design is preserved when submitting to Xcode.</text>
  <text id="template-version" style="stroke:none;fill:black;font-family:sans-serif;font-size:13;text-anchor:end;" transform="matrix(1 0 0 1 3036 1933)">Template v.3.0</text>
  <text style="stroke:none;fill:black;font-family:sans-serif;font-size:13;text-anchor:end;" transform="matrix(1 0 0 1 3036 1951)">Requires Xcode 13 or greater</text>
  <text id="descriptive-name" style="stroke:none;fill:black;font-family:sans-serif;font-size:13;text-anchor:end;" transform="matrix(1 0 0 1 3036 1969)">Generated from moon.fill</text>
  <text style="stroke:none;fill:black;font-family:sans-serif;font-size:13;text-anchor:end;" transform="matrix(1 0 0 1 3036 1987)">Typeset at 100 points</text>
  <text style="stroke:none;fill:black;font-family:sans-serif;font-size:13;" transform="matrix(1 0 0 1 263 726)">Small</text>
  <text style="stroke:none;fill:black;font-family:sans-serif;font-size:13;" transform="matrix(1 0 0 1 263 1156)">Medium</text>
  <text style="stroke:none;fill:black;font-family:sans-serif;font-size:13;" transform="matrix(1 0 0 1 263 1586)">Large</text>
 </g>
 <g id="Guides">
  <g id="H-reference" style="fill:#27AAE1;stroke:none;" transform="matrix(1 0 0 1 339 696)">
   <path d="M0.993347 0L3.6377 0L29.3282-67.1326L30.0301-67.1326L30.0301-70.459L28.1227-70.459ZM11.6882-24.4797L46.9818-24.4797L46.2311-26.7288L12.4382-26.7288ZM55.1193 0L57.7637 0L30.6381-70.459L29.4327-70.459L29.4327-67.1326Z"/>
  </g>
  <line id="Baseline-S" style="fill:none;stroke:#27AAE1;opacity:1;stroke-width:0.5;" x1="263" x2="3036" y1="696" y2="696"/>
  <line id="Capline-S" style="fill:none;stroke:#27AAE1;opacity:1;stroke-width:0.5;" x1="263" x2="3036" y1="625.541" y2="625.541"/>
  <g id="H-reference" style="fill:#27AAE1;stroke:none;" transform="matrix(1 0 0 1 339 1126)">
   <path d="M0.993347 0L3.6377 0L29.3282-67.1326L30.0301-67.1326L30.0301-70.459L28.1227-70.459ZM11.6882-24.4797L46.9818-24.4797L46.2311-26.7288L12.4382-26.7288ZM55.1193 0L57.7637 0L30.6381-70.459L29.4327-70.459L29.4327-67.1326Z"/>
  </g>
  <line id="Baseline-M" style="fill:none;stroke:#27AAE1;opacity:1;stroke-width:0.5;" x1="263" x2="3036" y1="1126" y2="1126"/>
  <line id="Capline-M" style="fill:none;stroke:#27AAE1;opacity:1;stroke-width:0.5;" x1="263" x2="3036" y1="1055.54" y2="1055.54"/>
  <g id="H-reference" style="fill:#27AAE1;stroke:none;" transform="matrix(1 0 0 1 339 1556)">
   <path d="M0.993347 0L3.6377 0L29.3282-67.1326L30.0301-67.1326L30.0301-70.459L28.1227-70.459ZM11.6882-24.4797L46.9818-24.4797L46.2311-26.7288L12.4382-26.7288ZM55.1193 0L57.7637 0L30.6381-70.459L29.4327-70.459L29.4327-67.1326Z"/>
  </g>
  <line id="Baseline-L" style="fill:none;stroke:#27AAE1;opacity:1;stroke-width:0.5;" x1="263" x2="3036" y1="1556" y2="1556"/>
  <line id="Capline-L" style="fill:none;stroke:#27AAE1;opacity:1;stroke-width:0.5;" x1="263" x2="3036" y1="1485.54" y2="1485.54"/>
  <line id="left-margin-Regular-M" style="fill:none;stroke:#00AEEF;stroke-width:0.5;opacity:1.0;" x1="1392.94" x2="1392.94" y1="1030.79" y2="1150.12"/>
  <line id="right-margin-Regular-M" style="fill:none;stroke:#00AEEF;stroke-width:0.5;opacity:1.0;" x1="1506.75" x2="1506.75" y1="1030.79" y2="1150.12"/>
 </g>
 <g id="Symbols">
  <g id="Black-L" transform="matrix(1 0 0 1 2860.08 1556)">
   <path d="M106.25-17.2363Q94.5801-17.2363 85.2783-20.6055Q75.9766-23.9746 69.4092-30.3223Q62.8418-36.6699 59.375-45.7275Q55.9082-54.7852 55.9082-66.2109Q55.9082-71.8262 56.958-77.7344Q58.0078-83.6426 59.8633-87.207Q60.6934-88.8672 61.1328-90.3076Q61.5723-91.748 61.5723-93.0176Q61.5723-95.1172 60.2051-96.582Q58.8379-98.0469 56.3965-98.0469Q55.2734-98.0469 53.8818-97.7539Q52.4902-97.4609 50.9277-96.8262Q41.9434-93.2129 34.668-87.1338Q27.3926-81.0547 22.1436-73.1445Q16.8945-65.2344 14.0869-56.0791Q11.2793-46.9238 11.2793-37.1582Q11.2793-26.0742 14.3799-16.3574Q17.4805-6.64062 23.2422 1.24512Q29.0039 9.13086 36.9629 14.7949Q44.9219 20.459 54.6875 23.5107Q64.4531 26.5625 75.5371 26.5625Q85.2051 26.5625 94.165 23.8525Q103.125 21.1426 110.791 16.1133Q118.457 11.084 124.365 4.15039Q130.273-2.7832 133.838-11.1328Q134.619-12.9883 134.985-14.5752Q135.352-16.1621 135.352-17.334Q135.352-19.5801 134.058-20.8984Q132.764-22.2168 130.762-22.2168Q129.346-22.2168 127.808-21.7773Q126.27-21.3379 124.512-20.459Q121.387-19.043 116.431-18.1396Q111.475-17.2363 106.25-17.2363Z"/>
  </g>
  <g id="Heavy-L" transform="matrix(1 0 0 1 2563.56 1556)">
   <path d="M106.48-16.2796Q94.5915-16.2796 85.0651-19.7697Q75.5386-23.2597 68.7927-29.8264Q62.0468-36.393 58.4648-45.7214Q54.8828-55.0499 54.8828-66.7641Q54.8828-72.4136 55.9383-78.4027Q56.9939-84.3918 58.8142-88.0943Q59.5528-89.5699 59.9113-90.8203Q60.2699-92.0708 60.2699-93.1442Q60.2699-95.0363 59.0179-96.4092Q57.766-97.7821 55.5092-97.7821Q54.5357-97.7821 53.2711-97.5292Q52.0065-97.2763 50.605-96.711Q41.713-93.132 34.4952-87.0415Q27.2774-80.9509 22.0688-73.0179Q16.8602-65.0848 14.0697-55.9063Q11.2793-46.7278 11.2793-36.9621Q11.2793-25.9361 14.3913-16.2655Q17.5034-6.59485 23.2708 1.26228Q29.0382 9.11942 36.9972 14.7663Q44.9562 20.4132 54.6989 23.4531Q64.4417 26.4931 75.4677 26.4931Q85.2051 26.4931 94.2169 23.7602Q103.229 21.0274 110.906 16.0038Q118.584 10.9802 124.434 4.11568Q130.285-2.74887 133.7-10.9367Q134.377-12.5732 134.68-13.9816Q134.983-15.39 134.983-16.3887Q134.983-18.4853 133.741-19.7289Q132.499-20.9724 130.658-20.9724Q129.461-20.9724 128.165-20.6135Q126.868-20.2545 125.342-19.5251Q122.102-18.1671 116.996-17.2234Q111.89-16.2796 106.48-16.2796Z"/>
  </g>
  <g id="Bold-L" transform="matrix(1 0 0 1 2267.05 1556)">
   <path d="M106.738-15.21Q94.6045-15.21 84.8267-18.8354Q75.0488-22.4609 68.103-29.2725Q61.1572-36.084 57.4463-45.7153Q53.7354-55.3467 53.7354-67.3828Q53.7354-73.0713 54.7974-79.1504Q55.8594-85.2295 57.6416-89.0869Q58.2764-90.3564 58.5449-91.394Q58.8135-92.4316 58.8135-93.2861Q58.8135-94.9463 57.6904-96.2158Q56.5674-97.4854 54.5166-97.4854Q53.7109-97.4854 52.5879-97.2778Q51.4648-97.0703 50.2441-96.582Q41.4551-93.042 34.3018-86.9385Q27.1484-80.835 21.9849-72.876Q16.8213-64.917 14.0503-55.7129Q11.2793-46.5088 11.2793-36.7432Q11.2793-25.7812 14.4043-16.1621Q17.5293-6.54297 23.3032 1.28174Q29.0771 9.10645 37.0361 14.7339Q44.9951 20.3613 54.7119 23.3887Q64.4287 26.416 75.3906 26.416Q85.2051 26.416 94.2749 23.6572Q103.345 20.8984 111.035 15.8813Q118.726 10.8643 124.512 4.07715Q130.298-2.70996 133.545-10.7178Q134.106-12.1094 134.338-13.3179Q134.57-14.5264 134.57-15.332Q134.57-17.2607 133.386-18.4204Q132.202-19.5801 130.542-19.5801Q129.59-19.5801 128.564-19.3115Q127.539-19.043 126.27-18.4814Q122.9-17.1875 117.627-16.1987Q112.354-15.21 106.738-15.21Z"/>
  </g>
  <g id="Semibold-L" transform="matrix(1 0 0 1 1970.48 1556)">
   <path d="M106.916-14.4722Q94.6136-14.4722 84.6622-18.1911Q74.7108-21.9101 67.6273-28.8902Q60.5438-35.8704 56.744-45.7108Q52.9442-55.5511 52.9442-67.8093Q52.9442-73.5245 54.0108-79.6658Q55.0774-85.807 56.8329-89.7713Q57.3967-90.8989 57.6031-91.7896Q57.8094-92.6804 57.8094-93.3838Q57.8094-94.8837 56.7753-96.0823Q55.7411-97.2809 53.8322-97.2809Q53.1425-97.2809 52.1172-97.1046Q51.0918-96.9284 49.9954-96.4935Q41.2773-92.9794 34.1686-86.8671Q27.0599-80.7549 21.9273-72.7783Q16.7946-64.8018 14.0369-55.5798Q11.2793-46.3577 11.2793-36.5921Q11.2793-25.6744 14.4131-16.0908Q17.5468-6.50711 23.3253 1.29509Q29.1039 9.09729 37.0628 14.7114Q45.0218 20.3255 54.7207 23.344Q64.4196 26.3626 75.3372 26.3626Q85.2051 26.3626 94.315 23.5863Q103.425 20.8099 111.124 15.797Q118.823 10.7841 124.565 4.05045Q130.307-2.68326 133.438-10.5667Q133.92-11.7897 134.103-12.8605Q134.286-13.9313 134.286-14.6034Q134.286-16.4162 133.142-17.5182Q131.998-18.6203 130.462-18.6203Q129.678-18.6203 128.84-18.4139Q128.001-18.2076 126.91-17.7612Q123.451-16.5123 118.062-15.4922Q112.673-14.4722 106.916-14.4722Z"/>
  </g>
  <g id="Medium-L" transform="matrix(1 0 0 1 1673.88 1556)">
   <path d="M107.051-13.913Q94.6198-13.913 84.5375-17.7025Q74.4553-21.492 67.2672-28.6003Q60.0792-35.7086 56.2119-45.7073Q52.3445-55.706 52.3445-68.1328Q52.3445-73.8686 53.4145-80.0568Q54.4846-86.245 56.2195-90.2901Q56.7291-91.3094 56.8886-92.0891Q57.048-92.8688 57.048-93.4578Q57.048-94.8372 56.081-95.9816Q55.114-97.126 53.3134-97.126Q52.7107-97.126 51.7597-96.973Q50.8087-96.8201 49.807-96.4256Q41.1423-92.9329 34.0672-86.8137Q26.992-80.6946 21.8834-72.7043Q16.7747-64.7141 14.027-55.4787Q11.2793-46.2433 11.2793-36.4777Q11.2793-25.5936 14.4199-16.037Q17.5606-6.48041 23.3421 1.30539Q29.1237 9.09119 37.0827 14.695Q45.0417 20.2988 54.7276 23.3105Q64.4135 26.3222 75.2968 26.3222Q85.2051 26.3222 94.3451 23.5321Q103.485 20.742 111.191 15.733Q118.897 10.7239 124.605 4.03023Q130.313-2.66342 133.357-10.4523Q133.778-11.5471 133.924-12.5134Q134.071-13.4796 134.071-14.0511Q134.071-15.7761 132.957-16.8343Q131.843-17.8925 130.402-17.8925Q129.746-17.8925 129.049-17.7334Q128.352-17.5743 127.395-17.2157Q123.869-15.9996 118.393-14.9563Q112.916-13.913 107.051-13.913Z"/>
  </g>
  <g id="Regular-L" transform="matrix(1 0 0 1 1377.31 1556)">
   <path d="M107.227-13.1836Q94.6289-13.1836 84.375-17.0654Q74.1211-20.9473 66.7969-28.2227Q59.4727-35.498 55.5176-45.7031Q51.5625-55.9082 51.5625-68.5547Q51.5625-74.3164 52.6367-80.5664Q53.7109-86.8164 55.4199-90.9668Q55.8594-91.8457 55.957-92.4805Q56.0547-93.1152 56.0547-93.5547Q56.0547-94.7754 55.1758-95.8496Q54.2969-96.9238 52.6367-96.9238Q52.1484-96.9238 51.2939-96.8018Q50.4395-96.6797 49.5605-96.3379Q40.9668-92.8711 33.9355-86.7432Q26.9043-80.6152 21.8262-72.6074Q16.748-64.5996 14.0137-55.3467Q11.2793-46.0938 11.2793-36.3281Q11.2793-25.4883 14.4287-15.9668Q17.5781-6.44531 23.3643 1.31836Q29.1504 9.08203 37.1094 14.6729Q45.0684 20.2637 54.7363 23.2666Q64.4043 26.2695 75.2441 26.2695Q85.2051 26.2695 94.3848 23.4619Q103.564 20.6543 111.279 15.6494Q118.994 10.6445 124.658 4.00391Q130.322-2.63672 133.252-10.3027Q133.594-11.2305 133.691-12.0605Q133.789-12.8906 133.789-13.3301Q133.789-14.9414 132.715-15.9424Q131.641-16.9434 130.322-16.9434Q129.834-16.9434 129.321-16.8457Q128.809-16.748 128.027-16.5039Q124.414-15.332 118.823-14.2578Q113.232-13.1836 107.227-13.1836Z"/>
  </g>
  <g id="Light-L" transform="matrix(1 0 0 1 1081.81 1556)">
   <path d="M105.183-12.9562Q92.7971-12.9562 82.6267-16.9064Q72.4564-20.8565 65.1093-28.1696Q57.7621-35.4828 53.7769-45.6425Q49.7917-55.8022 49.7917-68.222Q49.7917-74.5583 50.7675-80.3921Q51.7433-86.2259 53.5583-90.5884Q53.907-91.2704 53.9894-91.7992Q54.0718-92.3279 54.0718-92.7223Q54.0718-93.882 53.2536-94.8353Q52.4353-95.7886 51.0017-95.7886Q50.5898-95.7886 49.9393-95.6894Q49.2889-95.5902 48.6221-95.3392Q40.2702-91.8724 33.4133-85.8501Q26.5564-79.8279 21.5992-71.9791Q16.642-64.1304 13.9606-55.0667Q11.2793-46.003 11.2793-36.4494Q11.2793-25.9422 14.3604-16.6405Q17.4416-7.33871 23.0915 0.288773Q28.7415 7.91626 36.4964 13.4392Q44.2513 18.9621 53.6541 21.9498Q63.0569 24.9374 73.5794 24.9374Q83.2527 24.9374 92.3111 22.1905Q101.369 19.4435 109.054 14.537Q116.739 9.63058 122.411 3.08838Q128.082-3.45383 130.981-11.0443Q131.232-11.7302 131.3-12.3634Q131.367-12.9967 131.367-13.3904Q131.367-14.8201 130.429-15.7455Q129.491-16.671 128.233-16.671Q127.866-16.671 127.475-16.5886Q127.083-16.5062 126.498-16.3376Q122.916-15.1657 117.158-14.061Q111.401-12.9562 105.183-12.9562Z"/>
  </g>
  <g id="Thin-L" transform="matrix(1 0 0 1 786.7 1556)">
   <path d="M102.48-12.6564Q90.3755-12.6564 80.3146-16.6965Q70.2538-20.7367 62.8769-28.0998Q55.5-35.463 51.4748-45.5624Q47.4495-55.6618 47.4495-67.7811Q47.4495-74.8787 48.2952-80.162Q49.1409-85.4454 51.0956-90.0879Q51.3245-90.5098 51.387-90.8985Q51.4496-91.2872 51.4496-91.6214Q51.4496-92.701 50.7111-93.494Q49.9725-94.2871 48.8403-94.2871Q48.5275-94.2871 48.1476-94.2177Q47.7676-94.1483 47.3808-94.0178Q39.3494-90.551 32.7225-84.6691Q26.0956-78.7872 21.2986-71.1487Q16.5016-63.5101 13.8905-54.6967Q11.2793-45.8832 11.2793-36.6096Q11.2793-26.5427 14.2704-17.5312Q17.2615-8.51974 22.7314-1.07231Q28.2013 6.37512 35.6857 11.8076Q43.1702 17.2401 52.2228 20.208Q61.2755 23.1758 71.3768 23.1758Q80.6702 23.1758 89.5687 20.509Q98.4673 17.8421 106.112 13.0657Q113.756 8.28934 119.437 1.87721Q125.119-4.53491 127.979-12.0255Q128.11-12.3909 128.137-12.764Q128.165-13.1371 128.165-13.4705Q128.165-14.6599 127.407-15.4854Q126.649-16.3109 125.471-16.3109Q125.264-16.3109 125.032-16.2483Q124.801-16.1858 124.477-16.1171Q120.934-14.9452 114.956-13.8008Q108.979-12.6564 102.48-12.6564Z"/>
  </g>
  <g id="Ultralight-L" transform="matrix(1 0 0 1 490.81 1556)">
   <path d="M101.096-12.5023Q89.1342-12.5023 79.1302-16.5886Q69.1261-20.6749 61.7336-28.0636Q54.3411-35.4523 50.2953-45.5212Q46.2494-55.5901 46.2494-67.556Q46.2494-75.0427 47.0284-80.0442Q47.8073-85.0456 49.8344-89.8315Q50.0015-90.1199 50.0538-90.4369Q50.106-90.7539 50.106-91.0568Q50.106-92.0959 49.4087-92.807Q48.7114-93.5181 47.7325-93.5181Q47.4709-93.5181 47.2298-93.4643Q46.9887-93.4105 46.7453-93.3411Q38.8779-89.8743 32.3689-84.0641Q25.8598-78.2539 21.1449-70.723Q16.4299-63.192 13.8546-54.5067Q11.2793-45.8214 11.2793-36.6913Q11.2793-26.8509 14.2242-17.9878Q17.1692-9.12476 22.5468-1.76964Q27.9243 5.58548 35.2703 10.9718Q42.6163 16.3582 51.4896 19.3157Q60.363 22.2733 70.2492 22.2733Q79.3472 22.2733 88.1638 19.6472Q96.9803 17.0212 104.604 12.3116Q112.228 7.60193 117.915 1.25656Q123.602-5.08881 126.44-12.5275Q126.51-12.7289 126.517-12.9688Q126.524-13.2088 126.524-13.5117Q126.524-14.5782 125.858-15.3522Q125.192-16.1263 124.055-16.1263Q123.93-16.1263 123.781-16.074Q123.632-16.0217 123.441-16.0042Q119.919-14.8323 113.828-13.6673Q107.738-12.5023 101.096-12.5023Z"/>
  </g>
  <g id="Black-M" transform="matrix(1 0 0 1 2876.83 1126)">
   <path d="M81.4453-22.0215Q72.7051-22.0215 65.6982-24.5361Q58.6914-27.0508 53.7598-31.8115Q48.8281-36.5723 46.2158-43.3594Q43.6035-50.1465 43.6035-58.6426Q43.6035-61.6699 43.9453-64.6729Q44.2871-67.6758 44.9707-70.2393Q45.6543-72.8027 46.6309-74.6094Q47.3633-75.9766 47.7783-77.2217Q48.1934-78.4668 48.1934-79.6387Q48.1934-81.3965 47.0459-82.5684Q45.8984-83.7402 43.9453-83.7402Q42.9199-83.7402 41.8213-83.4961Q40.7227-83.252 39.4043-82.7148Q30.1758-78.9551 23.2666-71.9971Q16.3574-65.0391 12.5488-55.9814Q8.74023-46.9238 8.74023-36.9141Q8.74023-26.2695 12.4023-17.2852Q16.0645-8.30078 22.7295-1.66016Q29.3945 4.98047 38.3789 8.61816Q47.3633 12.2559 58.0078 12.2559Q65.3809 12.2559 72.2412 10.2051Q79.1016 8.1543 85.0098 4.27246Q90.918 0.390625 95.5322-4.98047Q100.146-10.3516 103.076-16.9922Q103.76-18.5059 104.077-19.8242Q104.395-21.1426 104.395-22.168Q104.395-23.9746 103.394-25.0488Q102.393-26.123 100.684-26.123Q98.291-26.123 95.2148-24.5117Q92.9199-23.3887 89.1602-22.7051Q85.4004-22.0215 81.4453-22.0215Z"/>
  </g>
  <g id="Heavy-M" transform="matrix(1 0 0 1 2580.04 1126)">
   <path d="M82.1136-21.1342Q73.0972-21.1342 65.8596-23.7583Q58.622-26.3824 53.5118-31.345Q48.4016-36.3075 45.6913-43.3655Q42.981-50.4234 42.981-59.2651Q42.981-62.2231 43.3403-65.2836Q43.6996-68.3441 44.3832-71.0171Q45.0668-73.69 46.0197-75.5547Q46.6606-76.7944 47.0005-77.8786Q47.3404-78.9627 47.3404-79.9385Q47.3404-81.5117 46.291-82.6202Q45.2415-83.7288 43.4151-83.7288Q42.54-83.7288 41.5161-83.5133Q40.4922-83.2977 39.2891-82.8186Q30.1064-79.0932 23.2262-72.0776Q16.346-65.062 12.5431-55.9181Q8.74023-46.7743 8.74023-36.7065Q8.74023-26.0277 12.4428-17.0433Q16.1453-8.05893 22.8565-1.42403Q29.5677 5.21088 38.604 8.84285Q47.6402 12.4748 58.2962 12.4748Q65.7959 12.4748 72.731 10.3836Q79.6661 8.29239 85.5976 4.39911Q91.5291 0.505829 96.0915-4.82483Q100.654-10.1555 103.422-16.6351Q104.025-17.9985 104.29-19.1845Q104.556-20.3705 104.556-21.2341Q104.556-22.9378 103.572-23.954Q102.589-24.9702 101.041-24.9702Q99.0173-24.9702 96.3676-23.6359Q93.9453-22.5586 90.0703-21.8464Q86.1954-21.1342 82.1136-21.1342Z"/>
  </g>
  <g id="Bold-M" transform="matrix(1 0 0 1 2283.24 1126)">
   <path d="M82.8613-20.1416Q73.5352-20.1416 66.04-22.8882Q58.5449-25.6348 53.2349-30.8228Q47.9248-36.0107 45.105-43.3716Q42.2852-50.7324 42.2852-59.9609Q42.2852-62.8418 42.6636-65.9668Q43.042-69.0918 43.7256-71.8872Q44.4092-74.6826 45.3369-76.6113Q45.874-77.71 46.1304-78.6133Q46.3867-79.5166 46.3867-80.2734Q46.3867-81.6406 45.4468-82.6782Q44.5068-83.7158 42.8223-83.7158Q42.1143-83.7158 41.1743-83.5327Q40.2344-83.3496 39.1602-82.9346Q30.0293-79.248 23.1812-72.168Q16.333-65.0879 12.5366-55.8472Q8.74023-46.6064 8.74023-36.4746Q8.74023-25.7568 12.4878-16.7725Q16.2354-7.78809 22.998-1.15967Q29.7607 5.46875 38.855 9.09424Q47.9492 12.7197 58.6182 12.7197Q66.2598 12.7197 73.2788 10.5835Q80.2979 8.44727 86.2549 4.54102Q92.2119 0.634766 96.7163-4.65088Q101.221-9.93652 103.809-16.2354Q104.321-17.4316 104.529-18.4692Q104.736-19.5068 104.736-20.1904Q104.736-21.7773 103.772-22.7295Q102.808-23.6816 101.44-23.6816Q99.8291-23.6816 97.6562-22.6562Q95.0928-21.6309 91.0889-20.8862Q87.085-20.1416 82.8613-20.1416Z"/>
  </g>
  <g id="Semibold-M" transform="matrix(1 0 0 1 1986.47 1126)">
   <path d="M83.3771-19.4572Q73.8373-19.4572 66.1644-22.2881Q58.4915-25.119 53.0437-30.4626Q47.596-35.8063 44.7006-43.3762Q41.8053-50.946 41.8053-60.4408Q41.8053-63.2683 42.197-66.4379Q42.5888-69.6075 43.2724-72.4873Q43.956-75.367 44.8662-77.3399Q45.3316-78.3409 45.5303-79.1199Q45.7291-79.8988 45.7291-80.5046Q45.7291-81.7291 44.8647-82.7179Q44.0002-83.7067 42.4133-83.7067Q41.8213-83.7067 40.9389-83.5461Q40.0566-83.3855 39.0717-83.0147Q29.9759-79.3549 23.1499-72.2301Q16.3239-65.1054 12.532-55.7983Q8.74023-46.4912 8.74023-36.3144Q8.74023-25.5699 12.5191-16.5855Q16.2979-7.60117 23.0961-0.977325Q29.8943 5.64651 39.0285 9.26743Q48.1628 12.8883 58.8402 12.8883Q66.5794 12.8883 73.6565 10.7212Q80.7335 8.55408 86.7081 4.63867Q92.6826 0.723267 97.1474-4.5311Q101.612-9.78546 104.075-15.9599Q104.526-17.0403 104.693-17.976Q104.861-18.9117 104.861-19.4702Q104.861-20.9778 103.91-21.8853Q102.959-22.7928 101.716-22.7928Q100.389-22.7928 98.5451-21.981Q95.8839-20.9908 91.7912-20.224Q87.6984-19.4572 83.3771-19.4572Z"/>
  </g>
  <g id="Medium-M" transform="matrix(1 0 0 1 1689.71 1126)">
   <path d="M83.7677-18.9384Q74.0662-18.9384 66.2586-21.8334Q58.4511-24.7284 52.8988-30.1899Q47.3465-35.6514 44.3939-43.3796Q41.4413-51.1078 41.4413-60.8047Q41.4413-63.5918 41.843-66.795Q42.2447-69.9982 42.9283-72.942Q43.6119-75.8858 44.5091-77.8923Q44.9211-78.8193 45.0756-79.504Q45.2301-80.1888 45.2301-80.6793Q45.2301-81.797 44.4233-82.7488Q43.6165-83.7006 42.1036-83.7006Q41.5985-83.7006 40.76-83.5564Q39.9216-83.4122 39.0038-83.075Q29.9355-79.4357 23.1266-72.2775Q16.3177-65.1192 12.529-55.7613Q8.74023-46.4035 8.74023-36.1931Q8.74023-25.4288 12.5423-16.4444Q16.3445-7.46002 23.1697-0.839233Q29.995 5.78156 39.1598 9.39903Q48.3246 13.0165 59.0088 13.0165Q66.8221 13.0165 73.9429 10.8257Q81.0638 8.63495 87.0518 4.71306Q93.0397 0.791168 97.4739-4.43993Q101.908-9.67102 104.277-15.7509Q104.681-16.7442 104.818-17.6022Q104.955-18.4601 104.955-18.9247Q104.955-20.3712 104.014-21.2452Q103.073-22.1191 101.925-22.1191Q100.813-22.1191 99.2188-21.4684Q96.4836-20.5055 92.3233-19.722Q88.163-18.9384 83.7677-18.9384Z"/>
  </g>
  <g id="Regular-M" transform="matrix(1 0 0 1 1392.94 1126)">
   <path d="M84.2773-18.2617Q74.3652-18.2617 66.3818-21.2402Q58.3984-24.2188 52.71-29.834Q47.0215-35.4492 43.9941-43.3838Q40.9668-51.3184 40.9668-61.2793Q40.9668-64.0137 41.3818-67.2607Q41.7969-70.5078 42.4805-73.5352Q43.1641-76.5625 44.043-78.6133Q44.3848-79.4434 44.4824-80.0049Q44.5801-80.5664 44.5801-80.9082Q44.5801-81.8848 43.8477-82.7881Q43.1152-83.6914 41.6992-83.6914Q41.3086-83.6914 40.5273-83.5693Q39.7461-83.4473 38.916-83.1543Q29.8828-79.541 23.0957-72.3389Q16.3086-65.1367 12.5244-55.7129Q8.74023-46.2891 8.74023-36.0352Q8.74023-25.2441 12.5732-16.2598Q16.4062-7.27539 23.2666-0.65918Q30.127 5.95703 39.3311 9.57031Q48.5352 13.1836 59.2285 13.1836Q67.1387 13.1836 74.3164 10.9619Q81.4941 8.74023 87.5 4.80957Q93.5059 0.878906 97.9004-4.32129Q102.295-9.52148 104.541-15.4785Q104.883-16.3574 104.98-17.1143Q105.078-17.8711 105.078-18.2129Q105.078-19.5801 104.15-20.4102Q103.223-21.2402 102.197-21.2402Q101.367-21.2402 100.098-20.8008Q97.2656-19.873 93.0176-19.0674Q88.7695-18.2617 84.2773-18.2617Z"/>
  </g>
  <g id="Light-M" transform="matrix(1 0 0 1 1097.31 1126)">
   <path d="M82.431-18.0649Q72.7303-18.0649 64.8151-21.0964Q56.9-24.128 51.2039-29.781Q45.5078-35.434 42.4427-43.3231Q39.3776-51.2123 39.3776-60.9764Q39.3776-64.0594 39.7472-67.2153Q40.1169-70.3712 40.7776-73.2399Q41.4383-76.1086 42.363-78.2806Q42.6292-78.9284 42.7193-79.3919Q42.8093-79.8553 42.8093-80.1514Q42.8093-81.0822 42.1299-81.8798Q41.4505-82.6775 40.2458-82.6775Q39.901-82.6775 39.3089-82.5779Q38.7169-82.4783 38.0836-82.2609Q29.3228-78.6629 22.7249-71.6045Q16.127-64.5462 12.4336-55.3421Q8.74023-46.138 8.74023-36.1259Q8.74023-25.7286 12.4748-16.9636Q16.2094-8.19855 22.8806-1.68839Q29.5517 4.82178 38.4758 8.40492Q47.3999 11.9881 57.7454 11.9881Q65.3831 11.9881 72.4548 9.82666Q79.5265 7.66525 85.5095 3.81813Q91.4925-0.0289917 95.887-5.1384Q100.282-10.2478 102.512-16.1446Q102.763-16.7961 102.831-17.379Q102.898-17.9619 102.898-18.2732Q102.898-19.474 102.099-20.2286Q101.3-20.9831 100.32-20.9831Q99.7475-20.9831 98.7206-20.6497Q95.9183-19.7365 91.5264-18.9007Q87.1346-18.0649 82.431-18.0649Z"/>
  </g>
  <g id="Thin-M" transform="matrix(1 0 0 1 802.044 1126)">
   <path d="M79.9881-17.8047Q70.5688-17.8047 62.7434-20.9064Q54.9179-24.0082 49.2119-29.7112Q43.5059-35.4141 40.3908-43.243Q37.2757-51.0719 37.2757-60.5759Q37.2757-64.119 37.5851-67.1551Q37.8944-70.1912 38.5254-72.8497Q39.1563-75.5081 40.1405-77.8397Q40.3069-78.2478 40.387-78.5809Q40.4671-78.9139 40.4671-79.1504Q40.4671-80.0217 39.8575-80.6789Q39.2479-81.3362 38.3247-81.3362Q38.0394-81.3362 37.6976-81.2668Q37.3558-81.1974 36.9827-81.0799Q28.582-77.5017 22.2343-70.6337Q15.8867-63.7657 12.3135-54.8515Q8.74023-45.9373 8.74023-36.2457Q8.74023-26.3695 12.3447-17.8947Q15.9492-9.42001 22.3701-3.04985Q28.791 3.32031 37.3447 6.8634Q45.8984 10.4065 55.7831 10.4065Q63.0608 10.4065 69.9924 8.3252Q76.9241 6.2439 82.8773 2.50664Q88.8306-1.23062 93.2251-6.21986Q97.6196-11.2091 99.8306-17.025Q99.9611-17.3767 99.9886-17.7292Q100.016-18.0817 100.016-18.3533Q100.016-19.3336 99.387-19.9883Q98.7579-20.6429 97.8378-20.6429Q97.6059-20.6429 96.8987-20.4491Q94.1368-19.5564 89.555-18.6806Q84.9731-17.8047 79.9881-17.8047Z"/>
  </g>
  <g id="Ultralight-M" transform="matrix(1 0 0 1 506.071 1126)">
   <path d="M78.7376-17.6712Q69.4611-17.6712 61.6821-20.8088Q53.9032-23.9464 48.1918-29.6749Q42.4805-35.4034 39.3394-43.2018Q36.1984-51.0002 36.1984-60.3714Q36.1984-64.1502 36.4773-67.1246Q36.7561-70.0989 37.3718-72.6494Q37.9875-75.1999 39.0022-77.6146Q39.1174-77.8992 39.1922-78.1658Q39.267-78.4325 39.267-78.6377Q39.267-79.4777 38.6936-80.0632Q38.1203-80.6488 37.3398-80.6488Q37.0857-80.6488 36.8721-80.595Q36.6585-80.5412 36.4182-80.4749Q28.2028-76.9073 21.9833-70.1366Q15.7639-63.3659 12.252-54.6005Q8.74023-45.8351 8.74023-36.3075Q8.74023-26.6975 12.278-18.3716Q15.8157-10.0456 22.1085-3.74718Q28.4012 2.55127 36.7653 6.07376Q45.1294 9.59625 54.7783 9.59625Q61.8713 9.59625 68.7309 7.55615Q75.5905 5.51605 81.5285 1.83525Q87.4664-1.84555 91.861-6.77338Q96.2555-11.7012 98.4558-17.4767Q98.5252-17.6743 98.5321-17.9089Q98.539-18.1435 98.539-18.3945Q98.539-19.2619 97.9973-19.865Q97.4556-20.4681 96.5668-20.4681Q96.508-20.4681 95.9656-20.3468Q93.2243-19.4641 88.5448-18.5677Q83.8654-17.6712 78.7376-17.6712Z"/>
  </g>
  <g id="Black-S" transform="matrix(1 0 0 1 2889.19 696)">
   <path d="M63.4766-25.1465Q54.4922-25.1465 47.9248-28.5645Q41.3574-31.9824 37.793-38.3057Q34.2285-44.6289 34.2285-53.3691Q34.2285-55.8105 34.4971-58.1299Q34.7656-60.4492 35.3027-62.4268Q35.8398-64.4043 36.6211-65.7715Q37.207-66.8945 37.5488-67.9199Q37.8906-68.9453 37.8906-69.873Q37.8906-71.3379 36.9629-72.2656Q36.0352-73.1934 34.4727-73.1934Q33.6914-73.1934 32.7881-72.9736Q31.8848-72.7539 30.8594-72.3633Q23.6328-69.4336 18.2129-63.9893Q12.793-58.5449 9.81445-51.4893Q6.83594-44.4336 6.83594-36.6211Q6.83594-28.3203 9.69238-21.2891Q12.5488-14.2578 17.7246-9.05762Q22.9004-3.85742 29.9316-1.00098Q36.9629 1.85547 45.2637 1.85547Q52.9297 1.85547 59.79-0.976562Q66.6504-3.80859 72.0459-8.95996Q77.4414-14.1113 80.5176-21.0938Q81.0547-22.3145 81.3232-23.3643Q81.5918-24.4141 81.5918-25.293Q81.5918-26.709 80.835-27.5635Q80.0781-28.418 78.6621-28.418Q76.6602-28.418 74.1699-27.0996Q72.4121-26.1719 69.4824-25.6592Q66.5527-25.1465 63.4766-25.1465Z"/>
  </g>
  <g id="Heavy-S" transform="matrix(1 0 0 1 2592.27 696)">
   <path d="M64.283-24.4087Q54.953-24.4087 48.1323-27.9823Q41.3116-31.5559 37.6087-38.1672Q33.9058-44.7784 33.9058-53.9337Q33.9058-56.2714 34.1915-58.654Q34.4772-61.0367 35.0201-63.1294Q35.5629-65.2222 36.3098-66.6245Q36.8271-67.6552 37.1052-68.5539Q37.3833-69.4527 37.3833-70.2301Q37.3833-71.534 36.5364-72.4213Q35.6895-73.3086 34.2079-73.3086Q33.5304-73.3086 32.6729-73.1178Q31.8153-72.9271 30.8594-72.5594Q23.6443-69.6526 18.2243-64.1449Q12.8044-58.6372 9.82018-51.4778Q6.83594-44.3184 6.83594-36.425Q6.83594-28.0556 9.73854-20.9896Q12.6411-13.9236 17.886-8.72345Q23.1308-3.52325 30.2311-0.666809Q37.3314 2.18964 45.7016 2.18964Q53.5408 2.18964 60.4931-0.694275Q67.4454-3.57819 72.8065-8.72955Q78.1677-13.8809 81.0822-20.7016Q81.5506-21.8185 81.7787-22.7821Q82.0068-23.7457 82.0068-24.4865Q82.0068-25.8446 81.2443-26.6529Q80.4817-27.4612 79.2038-27.4612Q77.5017-27.4612 75.3342-26.3733Q73.4612-25.4921 70.4563-24.9504Q67.4515-24.4087 64.283-24.4087Z"/>
  </g>
  <g id="Bold-S" transform="matrix(1 0 0 1 2295.32 696)">
   <path d="M65.1855-23.584Q55.4688-23.584 48.3643-27.3315Q41.2598-31.0791 37.4023-38.0127Q33.5449-44.9463 33.5449-54.5654Q33.5449-56.7871 33.8501-59.2407Q34.1553-61.6943 34.7046-63.916Q35.2539-66.1377 35.9619-67.5781Q36.4014-68.5059 36.6089-69.2627Q36.8164-70.0195 36.8164-70.6299Q36.8164-71.7529 36.0596-72.5952Q35.3027-73.4375 33.9111-73.4375Q33.3496-73.4375 32.5439-73.2788Q31.7383-73.1201 30.8594-72.7783Q23.6572-69.8975 18.2373-64.3188Q12.8174-58.7402 9.82666-51.4648Q6.83594-44.1895 6.83594-36.2061Q6.83594-27.7588 9.79004-20.6543Q12.7441-13.5498 18.0664-8.34961Q23.3887-3.14941 30.5664-0.292969Q37.7441 2.56348 46.1914 2.56348Q54.2236 2.56348 61.2793-0.378418Q68.335-3.32031 73.6572-8.47168Q78.9795-13.623 81.7139-20.2637Q82.1045-21.2646 82.2876-22.1313Q82.4707-22.998 82.4707-23.584Q82.4707-24.8779 81.7017-25.6348Q80.9326-26.3916 79.8096-26.3916Q78.4424-26.3916 76.6357-25.5615Q74.6338-24.7314 71.5454-24.1577Q68.457-23.584 65.1855-23.584Z"/>
  </g>
  <g id="Semibold-S" transform="matrix(1 0 0 1 1998.45 696)">
   <path d="M65.8073-23.0156Q55.8243-23.0156 48.5241-26.8829Q41.2239-30.7503 37.2601-37.9059Q33.2962-45.0615 33.2962-55.0011Q33.2962-57.1426 33.6147-59.6451Q33.9333-62.1475 34.4868-64.4581Q35.0403-66.7686 35.7216-68.2358Q36.1084-69.0926 36.2667-69.7517Q36.425-70.4109 36.425-70.9053Q36.425-71.904 35.7307-72.715Q35.0365-73.526 33.7067-73.526Q33.2253-73.526 32.4551-73.3898Q31.6849-73.2536 30.8594-72.9294Q23.6664-70.0661 18.2465-64.4386Q12.8265-58.8112 9.83124-51.4561Q6.83594-44.101 6.83594-36.055Q6.83594-27.5543 9.82552-20.4231Q12.8151-13.2919 18.1908-8.09174Q23.5664-2.89154 30.7976-0.0350952Q38.0287 2.82135 46.5294 2.82135Q54.6944 2.82135 61.8214-0.160599Q68.9484-3.14255 74.2439-8.29391Q79.5395-13.4453 82.1495-19.9615Q82.4867-20.8824 82.6385-21.6824Q82.7904-22.4823 82.7904-22.9622Q82.7904-24.2111 82.0171-24.9325Q81.2439-25.6538 80.2269-25.6538Q79.0909-25.6538 77.533-25.0015Q75.4425-24.2073 72.2965-23.6115Q69.1505-23.0156 65.8073-23.0156Z"/>
  </g>
  <g id="Medium-S" transform="matrix(1 0 0 1 1701.62 696)">
   <path d="M66.2796-22.5838Q56.0936-22.5838 48.6454-26.5423Q41.1972-30.5008 37.1525-37.825Q33.1078-45.1492 33.1078-55.3314Q33.1078-57.412 33.4362-59.9518Q33.7646-62.4916 34.3216-64.8693Q34.8785-67.247 35.54-68.7347Q35.8856-69.5374 36.0073-70.1221Q36.129-70.7069 36.129-71.1143Q36.129-72.0184 35.4816-72.8062Q34.8343-73.5939 33.5518-73.5939Q33.1306-73.5939 32.3875-73.4741Q31.6444-73.3543 30.8594-73.0438Q23.6725-70.1942 18.2526-64.5298Q12.8326-58.8654 9.83429-51.4492Q6.83594-44.0331 6.83594-35.9406Q6.83594-27.3994 9.8526-20.248Q12.8693-13.0966 18.2854-7.89642Q23.7015-2.69623 30.9727 0.160217Q38.2439 3.01666 46.785 3.01666Q55.0514 3.01666 62.2322 0.00457764Q69.413-3.00751 74.6883-8.15887Q79.9637-13.3102 82.4799-19.7327Q82.7766-20.5925 82.9048-21.3421Q83.033-22.0917 83.033-22.4899Q83.033-23.7061 82.2563-24.4003Q81.4796-25.0946 80.5443-25.0946Q79.583-25.0946 78.2143-24.5773Q76.0559-23.8098 72.8657-23.1968Q69.6754-22.5838 66.2796-22.5838Z"/>
  </g>
  <g id="Regular-S" transform="matrix(1 0 0 1 1404.75 696)">
   <path d="M66.8945-22.0215Q56.4453-22.0215 48.8037-26.0986Q41.1621-30.1758 37.0117-37.7197Q32.8613-45.2637 32.8613-55.7617Q32.8613-57.7637 33.2031-60.3516Q33.5449-62.9395 34.1064-65.4053Q34.668-67.8711 35.3027-69.3848Q35.5957-70.1172 35.6689-70.6055Q35.7422-71.0938 35.7422-71.3867Q35.7422-72.168 35.1562-72.9248Q34.5703-73.6816 33.3496-73.6816Q33.0078-73.6816 32.2998-73.584Q31.5918-73.4863 30.8594-73.1934Q23.6816-70.3613 18.2617-64.6484Q12.8418-58.9355 9.83887-51.4404Q6.83594-43.9453 6.83594-35.791Q6.83594-27.1973 9.8877-20.0195Q12.9395-12.8418 18.4082-7.6416Q23.877-2.44141 31.2012 0.415039Q38.5254 3.27148 47.1191 3.27148Q55.5176 3.27148 62.7686 0.219727Q70.0195-2.83203 75.2686-7.9834Q80.5176-13.1348 82.9102-19.4336Q83.1543-20.2148 83.252-20.8984Q83.3496-21.582 83.3496-21.875Q83.3496-23.0469 82.5684-23.7061Q81.7871-24.3652 80.957-24.3652Q80.2246-24.3652 79.1016-24.0234Q76.8555-23.291 73.6084-22.6562Q70.3613-22.0215 66.8945-22.0215Z"/>
  </g>
  <g id="Light-S" transform="matrix(1 0 0 1 1109 696)">
   <path d="M65.2748-21.8552Q55.0529-21.8552 47.4491-26.0002Q39.8453-30.1453 35.6495-37.6892Q31.4537-45.2332 31.4537-55.5046Q31.4537-57.8094 31.7577-60.3138Q32.0618-62.8181 32.5928-65.1325Q33.1238-67.4469 33.8196-69.0971Q34.0515-69.6632 34.1171-70.0607Q34.1827-70.4582 34.1827-70.7207Q34.1827-71.4569 33.6426-72.1226Q33.1024-72.7882 32.0633-72.7882Q31.7665-72.7882 31.2252-72.7058Q30.6839-72.6234 30.1331-72.406Q23.1819-69.5892 17.9287-64.0049Q12.6755-58.4206 9.75571-51.1223Q6.83594-43.824 6.83594-35.8818Q6.83594-27.6215 9.79691-20.6478Q12.7579-13.6742 18.0599-8.55713Q23.362-3.44009 30.4443-0.614166Q37.5267 2.21176 45.8023 2.21176Q53.8979 2.21176 61.0657-0.756836Q68.2335-3.72543 73.4825-8.76312Q78.7315-13.8008 81.0936-20.0241Q81.2927-20.6085 81.3599-21.133Q81.427-21.6576 81.427-21.9208Q81.427-22.9408 80.7594-23.547Q80.0919-24.1531 79.3068-24.1531Q78.7712-24.1531 77.8755-23.8869Q75.6599-23.1697 72.2839-22.5124Q68.9079-21.8552 65.2748-21.8552Z"/>
  </g>
  <g id="Thin-S" transform="matrix(1 0 0 1 813.562 696)">
   <path d="M63.1332-21.6347Q53.2112-21.6347 45.6573-25.8701Q38.1035-30.1056 33.8478-37.6495Q29.5921-45.1935 29.5921-55.1643Q29.5921-57.869 29.8458-60.2634Q30.0995-62.6579 30.5908-64.7724Q31.0822-66.8869 31.8573-68.7172Q32.0099-69.0628 32.0656-69.3401Q32.1213-69.6175 32.1213-69.8402Q32.1213-70.5154 31.6406-71.0613Q31.16-71.6072 30.3612-71.6072Q30.1254-71.6072 29.8038-71.545Q29.4823-71.4828 29.1718-71.3654Q22.5212-68.5684 17.4881-63.1542Q12.455-57.74 9.64546-50.7019Q6.83594-43.6638 6.83594-36.0016Q6.83594-28.1815 9.67674-21.4783Q12.5175-14.7751 17.5995-9.7683Q22.6814-4.76151 29.4434-1.97525Q36.2053 0.811005 44.0605 0.811005Q51.7563 0.811005 58.8139-2.04773Q65.8714-4.90646 71.1205-9.79385Q76.3695-14.6812 78.6919-20.8046Q78.83-21.1288 78.8574-21.4432Q78.8849-21.7575 78.8849-21.9803Q78.8849-22.8004 78.3672-23.3368Q77.8496-23.8731 77.1248-23.8731Q76.8501-23.8731 76.2543-23.7068Q74.0784-23.0095 70.5326-22.3221Q66.9868-21.6347 63.1332-21.6347Z"/>
  </g>
  <g id="Ultralight-S" transform="matrix(1 0 0 1 517.502 696)">
   <path d="M62.0354-21.5218Q52.2675-21.5218 44.7395-25.8034Q37.2116-30.085 32.925-37.6289Q28.6385-45.1729 28.6385-54.9896Q28.6385-57.9002 28.8666-60.2383Q29.0947-62.5763 29.5654-64.5878Q30.0362-66.5993 30.8525-68.5219Q30.9639-68.7546 31.0143-68.9705Q31.0646-69.1864 31.0646-69.3886Q31.0646-70.034 30.6152-70.5181Q30.1659-71.0022 29.4899-71.0022Q29.2839-71.0022 29.0756-70.9499Q28.8673-70.8977 28.6797-70.8321Q22.1832-68.0458 17.2626-62.7186Q12.3421-57.3914 9.589-50.4868Q6.83594-43.5822 6.83594-36.0634Q6.83594-28.4691 9.61533-21.9044Q12.3947-15.3397 17.3637-10.3889Q22.3328-5.43823 28.9307-2.67258Q35.5286 0.0930786 43.1686 0.0930786Q50.6584 0.0930786 57.6599-2.7092Q64.6614-5.51147 69.9104-10.3222Q75.1595-15.1329 77.4612-21.2044Q77.5688-21.3959 77.5757-21.6026Q77.5826-21.8094 77.5826-22.0116Q77.5826-22.7287 77.142-23.2292Q76.7014-23.7297 76.0071-23.7297Q75.8652-23.7297 75.4234-23.6145Q73.2681-22.9279 69.635-22.2248Q66.0019-21.5218 62.0354-21.5218Z"/>
  </g>
 </g>
</svg>
