<?xml version="1.0" encoding="UTF-8"?>
<!--Generator: Apple Native CoreSVG 175-->
<!DOCTYPE svg
PUBLIC "-//W3C//DTD SVG 1.1//EN"
       "http://www.w3.org/Graphics/SVG/1.1/DTD/svg11.dtd">
<svg version="1.1" xmlns="http://www.w3.org/2000/svg" xmlns:xlink="http://www.w3.org/1999/xlink" width="3300" height="2200">
 <!--glyph: "uni100EDF.medium", point size: 100.0, font version: "17.0d11e1", template writer version: "65.1"-->
 <style>.multicolor-0:systemYellowColor {fill:#FFCC00;opacity:1.0}
.multicolor-1:white {fill:#FFFFFF;opacity:1.0}

.hierarchical-0:secondary {fill:#4D4D4D}
.hierarchical-1:primary {fill:#212121}

.SFSymbolsPreviewFFCC00 {fill:#FFCC00;opacity:1.0}
.SFSymbolsPreviewFFFFFF {fill:#FFFFFF;opacity:1.0}
</style>
 <g id="Notes">
  <rect height="2200" id="artboard" style="fill:white;opacity:1" width="3300" x="0" y="0"/>
  <line style="fill:none;stroke:black;opacity:1;stroke-width:0.5;" x1="263" x2="3036" y1="292" y2="292"/>
  <text style="stroke:none;fill:black;font-family:sans-serif;font-size:13;font-weight:bold;" transform="matrix(1 0 0 1 263 322)">Weight/Scale Variations</text>
  <text style="stroke:none;fill:black;font-family:sans-serif;font-size:13;text-anchor:middle;" transform="matrix(1 0 0 1 559.711 322)">Ultralight</text>
  <text style="stroke:none;fill:black;font-family:sans-serif;font-size:13;text-anchor:middle;" transform="matrix(1 0 0 1 856.422 322)">Thin</text>
  <text style="stroke:none;fill:black;font-family:sans-serif;font-size:13;text-anchor:middle;" transform="matrix(1 0 0 1 1153.13 322)">Light</text>
  <text style="stroke:none;fill:black;font-family:sans-serif;font-size:13;text-anchor:middle;" transform="matrix(1 0 0 1 1449.84 322)">Regular</text>
  <text style="stroke:none;fill:black;font-family:sans-serif;font-size:13;text-anchor:middle;" transform="matrix(1 0 0 1 1746.56 322)">Medium</text>
  <text style="stroke:none;fill:black;font-family:sans-serif;font-size:13;text-anchor:middle;" transform="matrix(1 0 0 1 2043.27 322)">Semibold</text>
  <text style="stroke:none;fill:black;font-family:sans-serif;font-size:13;text-anchor:middle;" transform="matrix(1 0 0 1 2339.98 322)">Bold</text>
  <text style="stroke:none;fill:black;font-family:sans-serif;font-size:13;text-anchor:middle;" transform="matrix(1 0 0 1 2636.69 322)">Heavy</text>
  <text style="stroke:none;fill:black;font-family:sans-serif;font-size:13;text-anchor:middle;" transform="matrix(1 0 0 1 2933.4 322)">Black</text>
  <line style="fill:none;stroke:black;opacity:1;stroke-width:0.5;" x1="263" x2="3036" y1="1903" y2="1903"/>
  <g transform="matrix(1 0 0 1 263 1933)">
   <path d="M9.24805 0.830078Q10.8691 0.830078 12.2949 0.214844Q13.7207-0.400391 14.8096-1.49414Q15.8984-2.58789 16.5186-4.01367Q17.1387-5.43945 17.1387-7.05078Q17.1387-8.66211 16.5186-10.0879Q15.8984-11.5137 14.8047-12.6074Q13.7109-13.7012 12.2852-14.3164Q10.8594-14.9316 9.23828-14.9316Q7.62695-14.9316 6.20117-14.3164Q4.77539-13.7012 3.69141-12.6074Q2.60742-11.5137 1.9873-10.0879Q1.36719-8.66211 1.36719-7.05078Q1.36719-5.43945 1.9873-4.01367Q2.60742-2.58789 3.69629-1.49414Q4.78516-0.400391 6.21094 0.214844Q7.63672 0.830078 9.24805 0.830078ZM9.24805-0.654297Q7.91992-0.654297 6.7627-1.14746Q5.60547-1.64062 4.73145-2.51953Q3.85742-3.39844 3.36426-4.56055Q2.87109-5.72266 2.87109-7.05078Q2.87109-8.37891 3.35938-9.54102Q3.84766-10.7031 4.72168-11.582Q5.5957-12.4609 6.75293-12.9541Q7.91016-13.4473 9.23828-13.4473Q10.5762-13.4473 11.7334-12.9541Q12.8906-12.4609 13.7695-11.582Q14.6484-10.7031 15.1465-9.54102Q15.6445-8.37891 15.6445-7.05078Q15.6445-5.72266 15.1514-4.56055Q14.6582-3.39844 13.7842-2.51953Q12.9102-1.64062 11.748-1.14746Q10.5859-0.654297 9.24805-0.654297ZM5.6543-7.05078Q5.6543-6.72852 5.85938-6.52832Q6.06445-6.32812 6.40625-6.32812L8.51562-6.32812L8.51562-4.20898Q8.51562-3.88672 8.71094-3.67676Q8.90625-3.4668 9.23828-3.4668Q9.56055-3.4668 9.77051-3.67676Q9.98047-3.88672 9.98047-4.20898L9.98047-6.32812L12.0898-6.32812Q12.4219-6.32812 12.627-6.52832Q12.832-6.72852 12.832-7.05078Q12.832-7.38281 12.627-7.58789Q12.4219-7.79297 12.0898-7.79297L9.98047-7.79297L9.98047-9.90234Q9.98047-10.2344 9.77051-10.4443Q9.56055-10.6543 9.23828-10.6543Q8.90625-10.6543 8.71094-10.4443Q8.51562-10.2344 8.51562-9.90234L8.51562-7.79297L6.40625-7.79297Q6.06445-7.79297 5.85938-7.58789Q5.6543-7.38281 5.6543-7.05078Z"/>
  </g>
  <g transform="matrix(1 0 0 1 281.867 1933)">
   <path d="M11.709 2.91016Q13.75 2.91016 15.5518 2.12891Q17.3535 1.34766 18.7305-0.0292969Q20.1074-1.40625 20.8887-3.20801Q21.6699-5.00977 21.6699-7.05078Q21.6699-9.0918 20.8887-10.8936Q20.1074-12.6953 18.7305-14.0723Q17.3535-15.4492 15.5469-16.2305Q13.7402-17.0117 11.6992-17.0117Q9.6582-17.0117 7.85645-16.2305Q6.05469-15.4492 4.68262-14.0723Q3.31055-12.6953 2.5293-10.8936Q1.74805-9.0918 1.74805-7.05078Q1.74805-5.00977 2.5293-3.20801Q3.31055-1.40625 4.6875-0.0292969Q6.06445 1.34766 7.86621 2.12891Q9.66797 2.91016 11.709 2.91016ZM11.709 1.25Q9.98047 1.25 8.47656 0.605469Q6.97266-0.0390625 5.83496-1.17676Q4.69727-2.31445 4.05762-3.81836Q3.41797-5.32227 3.41797-7.05078Q3.41797-8.7793 4.05762-10.2832Q4.69727-11.7871 5.83008-12.9297Q6.96289-14.0723 8.4668-14.7119Q9.9707-15.3516 11.6992-15.3516Q13.4277-15.3516 14.9316-14.7119Q16.4355-14.0723 17.5781-12.9297Q18.7207-11.7871 19.3652-10.2832Q20.0098-8.7793 20.0098-7.05078Q20.0098-5.32227 19.3701-3.81836Q18.7305-2.31445 17.5928-1.17676Q16.4551-0.0390625 14.9463 0.605469Q13.4375 1.25 11.709 1.25ZM7.17773-7.05078Q7.17773-6.69922 7.41211-6.47461Q7.64648-6.25 8.01758-6.25L10.8887-6.25L10.8887-3.36914Q10.8887-2.99805 11.1133-2.76855Q11.3379-2.53906 11.6895-2.53906Q12.0605-2.53906 12.29-2.76855Q12.5195-2.99805 12.5195-3.36914L12.5195-6.25L15.4004-6.25Q15.7715-6.25 16.001-6.47461Q16.2305-6.69922 16.2305-7.05078Q16.2305-7.42188 16.001-7.65137Q15.7715-7.88086 15.4004-7.88086L12.5195-7.88086L12.5195-10.752Q12.5195-11.1328 12.29-11.3623Q12.0605-11.5918 11.6895-11.5918Q11.3379-11.5918 11.1133-11.3574Q10.8887-11.123 10.8887-10.752L10.8887-7.88086L8.01758-7.88086Q7.63672-7.88086 7.40723-7.65137Q7.17773-7.42188 7.17773-7.05078Z"/>
  </g>
  <g transform="matrix(1 0 0 1 305.646 1933)">
   <path d="M14.9707 5.66406Q17.0605 5.66406 18.96 5.01465Q20.8594 4.36523 22.4512 3.19336Q24.043 2.02148 25.2197 0.429688Q26.3965-1.16211 27.0459-3.06641Q27.6953-4.9707 27.6953-7.05078Q27.6953-9.14062 27.0459-11.04Q26.3965-12.9395 25.2197-14.5312Q24.043-16.123 22.4512-17.2998Q20.8594-18.4766 18.9551-19.126Q17.0508-19.7754 14.9609-19.7754Q12.8711-19.7754 10.9717-19.126Q9.07227-18.4766 7.48535-17.2998Q5.89844-16.123 4.72168-14.5312Q3.54492-12.9395 2.90039-11.04Q2.25586-9.14062 2.25586-7.05078Q2.25586-4.9707 2.90527-3.06641Q3.55469-1.16211 4.72656 0.429688Q5.89844 2.02148 7.49023 3.19336Q9.08203 4.36523 10.9814 5.01465Q12.8809 5.66406 14.9707 5.66406ZM14.9707 3.84766Q13.1641 3.84766 11.5283 3.2959Q9.89258 2.74414 8.53516 1.74805Q7.17773 0.751953 6.17676-0.610352Q5.17578-1.97266 4.62891-3.6084Q4.08203-5.24414 4.08203-7.05078Q4.08203-8.86719 4.62891-10.5029Q5.17578-12.1387 6.17188-13.501Q7.16797-14.8633 8.52539-15.8594Q9.88281-16.8555 11.5186-17.4023Q13.1543-17.9492 14.9609-17.9492Q16.7773-17.9492 18.4131-17.4023Q20.0488-16.8555 21.4111-15.8594Q22.7734-14.8633 23.7695-13.501Q24.7656-12.1387 25.3174-10.5029Q25.8691-8.86719 25.8691-7.05078Q25.8789-5.24414 25.332-3.6084Q24.7852-1.97266 23.7842-0.610352Q22.7832 0.751953 21.4209 1.74805Q20.0586 2.74414 18.4229 3.2959Q16.7871 3.84766 14.9707 3.84766ZM9.19922-7.05078Q9.19922-6.66992 9.45801-6.4209Q9.7168-6.17188 10.1172-6.17188L14.0625-6.17188L14.0625-2.2168Q14.0625-1.81641 14.3115-1.55762Q14.5605-1.29883 14.9512-1.29883Q15.3516-1.29883 15.6104-1.55273Q15.8691-1.80664 15.8691-2.2168L15.8691-6.17188L19.8242-6.17188Q20.2246-6.17188 20.4785-6.4209Q20.7324-6.66992 20.7324-7.05078Q20.7324-7.46094 20.4785-7.71484Q20.2246-7.96875 19.8242-7.96875L15.8691-7.96875L15.8691-11.9141Q15.8691-12.3242 15.6104-12.583Q15.3516-12.8418 14.9512-12.8418Q14.5605-12.8418 14.3115-12.583Q14.0625-12.3242 14.0625-11.9141L14.0625-7.96875L10.1172-7.96875Q9.70703-7.96875 9.45312-7.71484Q9.19922-7.46094 9.19922-7.05078Z"/>
  </g>
  <text style="stroke:none;fill:black;font-family:sans-serif;font-size:13;font-weight:bold;" transform="matrix(1 0 0 1 263 1953)">Design Variations</text>
  <text style="stroke:none;fill:black;font-family:sans-serif;font-size:13;" transform="matrix(1 0 0 1 263 1971)">Symbols are supported in up to nine weights and three scales.</text>
  <text style="stroke:none;fill:black;font-family:sans-serif;font-size:13;" transform="matrix(1 0 0 1 263 1989)">For optimal layout with text and other symbols, vertically align</text>
  <text style="stroke:none;fill:black;font-family:sans-serif;font-size:13;" transform="matrix(1 0 0 1 263 2007)">symbols with the adjacent text.</text>
  <line style="fill:none;stroke:#00AEEF;stroke-width:0.5;opacity:1.0;" x1="776" x2="776" y1="1919" y2="1933"/>
  <g transform="matrix(1 0 0 1 776 1933)">
   <path d="M3.31055 0.15625Q3.70117 0.15625 3.91602-0.00976562Q4.13086-0.175781 4.26758-0.585938L5.52734-4.0332L11.2891-4.0332L12.5488-0.585938Q12.6855-0.175781 12.9004-0.00976562Q13.1152 0.15625 13.4961 0.15625Q13.8867 0.15625 14.1162-0.0585938Q14.3457-0.273438 14.3457-0.644531Q14.3457-0.869141 14.2383-1.17188L9.6582-13.3691Q9.48242-13.8184 9.17969-14.043Q8.87695-14.2676 8.4082-14.2676Q7.5-14.2676 7.17773-13.3789L2.59766-1.16211Q2.49023-0.859375 2.49023-0.634766Q2.49023-0.263672 2.70996-0.0537109Q2.92969 0.15625 3.31055 0.15625ZM6.00586-5.51758L8.37891-12.0898L8.42773-12.0898L10.8008-5.51758Z"/>
  </g>
  <line style="fill:none;stroke:#00AEEF;stroke-width:0.5;opacity:1.0;" x1="793.197" x2="793.197" y1="1919" y2="1933"/>
  <text style="stroke:none;fill:black;font-family:sans-serif;font-size:13;font-weight:bold;" transform="matrix(1 0 0 1 776 1953)">Margins</text>
  <text style="stroke:none;fill:black;font-family:sans-serif;font-size:13;" transform="matrix(1 0 0 1 776 1971)">Leading and trailing margins on the left and right side of each symbol</text>
  <text style="stroke:none;fill:black;font-family:sans-serif;font-size:13;" transform="matrix(1 0 0 1 776 1989)">can be adjusted by modifying the x-location of the margin guidelines.</text>
  <text style="stroke:none;fill:black;font-family:sans-serif;font-size:13;" transform="matrix(1 0 0 1 776 2007)">Modifications are automatically applied proportionally to all</text>
  <text style="stroke:none;fill:black;font-family:sans-serif;font-size:13;" transform="matrix(1 0 0 1 776 2025)">scales and weights.</text>
  <g transform="matrix(1 0 0 1 1289 1933)">
   <path d="M2.8418 1.86523L4.54102 3.57422Q5.18555 4.22852 5.90332 4.17969Q6.62109 4.13086 7.31445 3.35938L18.0078-8.42773L17.041-9.4043L6.42578 2.27539Q6.16211 2.57812 5.89355 2.61719Q5.625 2.65625 5.27344 2.30469L4.10156 1.14258Q3.75 0.791016 3.79395 0.522461Q3.83789 0.253906 4.14062-0.0195312L15.6152-10.8203L14.6387-11.7871L3.04688-0.898438Q2.30469-0.214844 2.25098 0.498047Q2.19727 1.21094 2.8418 1.86523ZM9.25781-16.3281Q8.94531-16.0254 8.90625-15.6348Q8.86719-15.2441 9.04297-14.9512Q9.21875-14.6777 9.55566-14.541Q9.89258-14.4043 10.3809-14.5215Q11.4746-14.7754 12.5977-14.7314Q13.7207-14.6875 14.7949-13.9844L14.209-12.5293Q13.9551-11.9043 14.0674-11.4404Q14.1797-10.9766 14.5801-10.5664L16.875-8.25195Q17.2363-7.88086 17.5781-7.82227Q17.9199-7.76367 18.3398-7.8418L19.4043-8.03711L20.0684-7.36328L20.0293-6.80664Q20-6.43555 20.1221-6.12305Q20.2441-5.81055 20.6055-5.44922L21.3672-4.70703Q21.7285-4.3457 22.1533-4.33105Q22.5781-4.31641 22.9297-4.66797L25.8398-7.58789Q26.1914-7.93945 26.1816-8.35449Q26.1719-8.76953 25.8105-9.13086L25.0391-9.89258Q24.6875-10.2539 24.3799-10.3857Q24.0723-10.5176 23.7109-10.4883L23.1348-10.4395L22.4902-11.0742L22.7344-12.1973Q22.832-12.6172 22.6953-12.9834Q22.5586-13.3496 22.1191-13.7891L19.9219-15.9766Q18.6719-17.2168 17.2607-17.8369Q15.8496-18.457 14.4189-18.4814Q12.9883-18.5059 11.665-17.959Q10.3418-17.4121 9.25781-16.3281ZM10.752-15.957Q11.6602-16.6211 12.7002-16.9043Q13.7402-17.1875 14.8047-17.085Q15.8691-16.9824 16.8701-16.5137Q17.8711-16.0449 18.7012-15.2051L21.1328-12.793Q21.3086-12.6172 21.3525-12.4512Q21.3965-12.2852 21.3379-12.0312L21.0156-10.5469L22.5195-9.0625L23.5059-9.12109Q23.6914-9.13086 23.7891-9.09668Q23.8867-9.0625 24.0332-8.91602L24.6094-8.33984L22.168-5.89844L21.5918-6.47461Q21.4453-6.62109 21.4062-6.71875Q21.3672-6.81641 21.377-7.01172L21.4453-7.98828L19.9512-9.47266L18.4277-9.21875Q18.1836-9.16992 18.042-9.2041Q17.9004-9.23828 17.7148-9.41406L15.7129-11.416Q15.5176-11.5918 15.4932-11.7529Q15.4688-11.9141 15.5859-12.1875L16.4648-14.2773Q15.293-15.3711 13.8281-15.791Q12.3633-16.2109 10.8398-15.7617Q10.7227-15.7324 10.6885-15.8057Q10.6543-15.8789 10.752-15.957Z"/>
  </g>
  <text style="stroke:none;fill:black;font-family:sans-serif;font-size:13;font-weight:bold;" transform="matrix(1 0 0 1 1289 1953)">Exporting</text>
  <text style="stroke:none;fill:black;font-family:sans-serif;font-size:13;" transform="matrix(1 0 0 1 1289 1971)">Symbols should be outlined when exporting to ensure the</text>
  <text style="stroke:none;fill:black;font-family:sans-serif;font-size:13;" transform="matrix(1 0 0 1 1289 1989)">design is preserved when submitting to Xcode.</text>
  <text id="template-version" style="stroke:none;fill:black;font-family:sans-serif;font-size:13;text-anchor:end;" transform="matrix(1 0 0 1 3036 1933)">Template v.3.0</text>
  <text style="stroke:none;fill:black;font-family:sans-serif;font-size:13;text-anchor:end;" transform="matrix(1 0 0 1 3036 1951)">Requires Xcode 13 or greater</text>
  <text id="descriptive-name" style="stroke:none;fill:black;font-family:sans-serif;font-size:13;text-anchor:end;" transform="matrix(1 0 0 1 3036 1969)">Generated from sun.and.horizon.fill</text>
  <text style="stroke:none;fill:black;font-family:sans-serif;font-size:13;text-anchor:end;" transform="matrix(1 0 0 1 3036 1987)">Typeset at 100 points</text>
  <text style="stroke:none;fill:black;font-family:sans-serif;font-size:13;" transform="matrix(1 0 0 1 263 726)">Small</text>
  <text style="stroke:none;fill:black;font-family:sans-serif;font-size:13;" transform="matrix(1 0 0 1 263 1156)">Medium</text>
  <text style="stroke:none;fill:black;font-family:sans-serif;font-size:13;" transform="matrix(1 0 0 1 263 1586)">Large</text>
 </g>
 <g id="Guides">
  <g id="H-reference" style="fill:#27AAE1;stroke:none;" transform="matrix(1 0 0 1 339 696)">
   <path d="M0.993347 0L3.6377 0L29.3282-67.1326L30.0301-67.1326L30.0301-70.459L28.1227-70.459ZM11.6882-24.4797L46.9818-24.4797L46.2311-26.7288L12.4382-26.7288ZM55.1193 0L57.7637 0L30.6381-70.459L29.4327-70.459L29.4327-67.1326Z"/>
  </g>
  <line id="Baseline-S" style="fill:none;stroke:#27AAE1;opacity:1;stroke-width:0.5;" x1="263" x2="3036" y1="696" y2="696"/>
  <line id="Capline-S" style="fill:none;stroke:#27AAE1;opacity:1;stroke-width:0.5;" x1="263" x2="3036" y1="625.541" y2="625.541"/>
  <g id="H-reference" style="fill:#27AAE1;stroke:none;" transform="matrix(1 0 0 1 339 1126)">
   <path d="M0.993347 0L3.6377 0L29.3282-67.1326L30.0301-67.1326L30.0301-70.459L28.1227-70.459ZM11.6882-24.4797L46.9818-24.4797L46.2311-26.7288L12.4382-26.7288ZM55.1193 0L57.7637 0L30.6381-70.459L29.4327-70.459L29.4327-67.1326Z"/>
  </g>
  <line id="Baseline-M" style="fill:none;stroke:#27AAE1;opacity:1;stroke-width:0.5;" x1="263" x2="3036" y1="1126" y2="1126"/>
  <line id="Capline-M" style="fill:none;stroke:#27AAE1;opacity:1;stroke-width:0.5;" x1="263" x2="3036" y1="1055.54" y2="1055.54"/>
  <g id="H-reference" style="fill:#27AAE1;stroke:none;" transform="matrix(1 0 0 1 339 1556)">
   <path d="M0.993347 0L3.6377 0L29.3282-67.1326L30.0301-67.1326L30.0301-70.459L28.1227-70.459ZM11.6882-24.4797L46.9818-24.4797L46.2311-26.7288L12.4382-26.7288ZM55.1193 0L57.7637 0L30.6381-70.459L29.4327-70.459L29.4327-67.1326Z"/>
  </g>
  <line id="Baseline-L" style="fill:none;stroke:#27AAE1;opacity:1;stroke-width:0.5;" x1="263" x2="3036" y1="1556" y2="1556"/>
  <line id="Capline-L" style="fill:none;stroke:#27AAE1;opacity:1;stroke-width:0.5;" x1="263" x2="3036" y1="1485.54" y2="1485.54"/>
  <line id="left-margin-Ultralight-S" style="fill:none;stroke:#00AEEF;stroke-width:0.5;opacity:1.0;" x1="500.922" x2="500.922" y1="600.785" y2="720.121"/>
  <line id="right-margin-Ultralight-S" style="fill:none;stroke:#00AEEF;stroke-width:0.5;opacity:1.0;" x1="618.5" x2="618.5" y1="600.785" y2="720.121"/>
  <line id="left-margin-Thin-S" style="fill:none;stroke:#00AEEF;stroke-width:0.5;opacity:1.0;" x1="797.633" x2="797.633" y1="600.785" y2="720.121"/>
  <line id="right-margin-Thin-S" style="fill:none;stroke:#00AEEF;stroke-width:0.5;opacity:1.0;" x1="915.211" x2="915.211" y1="600.785" y2="720.121"/>
  <line id="left-margin-Light-S" style="fill:none;stroke:#00AEEF;stroke-width:0.5;opacity:1.0;" x1="1094.34" x2="1094.34" y1="600.785" y2="720.121"/>
  <line id="right-margin-Light-S" style="fill:none;stroke:#00AEEF;stroke-width:0.5;opacity:1.0;" x1="1211.92" x2="1211.92" y1="600.785" y2="720.121"/>
  <line id="left-margin-Regular-S" style="fill:none;stroke:#00AEEF;stroke-width:0.5;opacity:1.0;" x1="1391.06" x2="1391.06" y1="600.785" y2="720.121"/>
  <line id="right-margin-Regular-S" style="fill:none;stroke:#00AEEF;stroke-width:0.5;opacity:1.0;" x1="1508.63" x2="1508.63" y1="600.785" y2="720.121"/>
  <line id="left-margin-Medium-S" style="fill:none;stroke:#00AEEF;stroke-width:0.5;opacity:1.0;" x1="1687.77" x2="1687.77" y1="600.785" y2="720.121"/>
  <line id="right-margin-Medium-S" style="fill:none;stroke:#00AEEF;stroke-width:0.5;opacity:1.0;" x1="1805.34" x2="1805.34" y1="600.785" y2="720.121"/>
  <line id="left-margin-Semibold-S" style="fill:none;stroke:#00AEEF;stroke-width:0.5;opacity:1.0;" x1="1984.48" x2="1984.48" y1="600.785" y2="720.121"/>
  <line id="right-margin-Semibold-S" style="fill:none;stroke:#00AEEF;stroke-width:0.5;opacity:1.0;" x1="2102.06" x2="2102.06" y1="600.785" y2="720.121"/>
  <line id="left-margin-Bold-S" style="fill:none;stroke:#00AEEF;stroke-width:0.5;opacity:1.0;" x1="2281.19" x2="2281.19" y1="600.785" y2="720.121"/>
  <line id="right-margin-Bold-S" style="fill:none;stroke:#00AEEF;stroke-width:0.5;opacity:1.0;" x1="2398.77" x2="2398.77" y1="600.785" y2="720.121"/>
  <line id="left-margin-Heavy-S" style="fill:none;stroke:#00AEEF;stroke-width:0.5;opacity:1.0;" x1="2577.9" x2="2577.9" y1="600.785" y2="720.121"/>
  <line id="right-margin-Heavy-S" style="fill:none;stroke:#00AEEF;stroke-width:0.5;opacity:1.0;" x1="2695.48" x2="2695.48" y1="600.785" y2="720.121"/>
  <line id="left-margin-Black-S" style="fill:none;stroke:#00AEEF;stroke-width:0.5;opacity:1.0;" x1="2874.61" x2="2874.61" y1="600.785" y2="720.121"/>
  <line id="right-margin-Black-S" style="fill:none;stroke:#00AEEF;stroke-width:0.5;opacity:1.0;" x1="2992.19" x2="2992.19" y1="600.785" y2="720.121"/>
  <line id="left-margin-Ultralight-M" style="fill:none;stroke:#00AEEF;stroke-width:0.5;opacity:1.0;" x1="484.687" x2="484.687" y1="1030.79" y2="1150.12"/>
  <line id="right-margin-Ultralight-M" style="fill:none;stroke:#00AEEF;stroke-width:0.5;opacity:1.0;" x1="634.736" x2="634.736" y1="1030.79" y2="1150.12"/>
  <line id="left-margin-Thin-M" style="fill:none;stroke:#00AEEF;stroke-width:0.5;opacity:1.0;" x1="781.398" x2="781.398" y1="1030.79" y2="1150.12"/>
  <line id="right-margin-Thin-M" style="fill:none;stroke:#00AEEF;stroke-width:0.5;opacity:1.0;" x1="931.447" x2="931.447" y1="1030.79" y2="1150.12"/>
  <line id="left-margin-Light-M" style="fill:none;stroke:#00AEEF;stroke-width:0.5;opacity:1.0;" x1="1078.11" x2="1078.11" y1="1030.79" y2="1150.12"/>
  <line id="right-margin-Light-M" style="fill:none;stroke:#00AEEF;stroke-width:0.5;opacity:1.0;" x1="1228.16" x2="1228.16" y1="1030.79" y2="1150.12"/>
  <line id="left-margin-Regular-M" style="fill:none;stroke:#00AEEF;stroke-width:0.5;opacity:1.0;" x1="1374.82" x2="1374.82" y1="1030.79" y2="1150.12"/>
  <line id="right-margin-Regular-M" style="fill:none;stroke:#00AEEF;stroke-width:0.5;opacity:1.0;" x1="1524.87" x2="1524.87" y1="1030.79" y2="1150.12"/>
  <line id="left-margin-Medium-M" style="fill:none;stroke:#00AEEF;stroke-width:0.5;opacity:1.0;" x1="1671.53" x2="1671.53" y1="1030.79" y2="1150.12"/>
  <line id="right-margin-Medium-M" style="fill:none;stroke:#00AEEF;stroke-width:0.5;opacity:1.0;" x1="1821.58" x2="1821.58" y1="1030.79" y2="1150.12"/>
  <line id="left-margin-Semibold-M" style="fill:none;stroke:#00AEEF;stroke-width:0.5;opacity:1.0;" x1="1968.24" x2="1968.24" y1="1030.79" y2="1150.12"/>
  <line id="right-margin-Semibold-M" style="fill:none;stroke:#00AEEF;stroke-width:0.5;opacity:1.0;" x1="2118.29" x2="2118.29" y1="1030.79" y2="1150.12"/>
  <line id="left-margin-Bold-M" style="fill:none;stroke:#00AEEF;stroke-width:0.5;opacity:1.0;" x1="2264.95" x2="2264.95" y1="1030.79" y2="1150.12"/>
  <line id="right-margin-Bold-M" style="fill:none;stroke:#00AEEF;stroke-width:0.5;opacity:1.0;" x1="2415" x2="2415" y1="1030.79" y2="1150.12"/>
  <line id="left-margin-Heavy-M" style="fill:none;stroke:#00AEEF;stroke-width:0.5;opacity:1.0;" x1="2561.66" x2="2561.66" y1="1030.79" y2="1150.12"/>
  <line id="right-margin-Heavy-M" style="fill:none;stroke:#00AEEF;stroke-width:0.5;opacity:1.0;" x1="2711.71" x2="2711.71" y1="1030.79" y2="1150.12"/>
  <line id="left-margin-Black-M" style="fill:none;stroke:#00AEEF;stroke-width:0.5;opacity:1.0;" x1="2858.38" x2="2858.38" y1="1030.79" y2="1150.12"/>
  <line id="right-margin-Black-M" style="fill:none;stroke:#00AEEF;stroke-width:0.5;opacity:1.0;" x1="3008.42" x2="3008.42" y1="1030.79" y2="1150.12"/>
  <line id="left-margin-Ultralight-L" style="fill:none;stroke:#00AEEF;stroke-width:0.5;opacity:1.0;" x1="462.909" x2="462.909" y1="1460.79" y2="1580.12"/>
  <line id="right-margin-Ultralight-L" style="fill:none;stroke:#00AEEF;stroke-width:0.5;opacity:1.0;" x1="656.513" x2="656.513" y1="1460.79" y2="1580.12"/>
  <line id="left-margin-Thin-L" style="fill:none;stroke:#00AEEF;stroke-width:0.5;opacity:1.0;" x1="759.62" x2="759.62" y1="1460.79" y2="1580.12"/>
  <line id="right-margin-Thin-L" style="fill:none;stroke:#00AEEF;stroke-width:0.5;opacity:1.0;" x1="953.224" x2="953.224" y1="1460.79" y2="1580.12"/>
  <line id="left-margin-Light-L" style="fill:none;stroke:#00AEEF;stroke-width:0.5;opacity:1.0;" x1="1056.33" x2="1056.33" y1="1460.79" y2="1580.12"/>
  <line id="right-margin-Light-L" style="fill:none;stroke:#00AEEF;stroke-width:0.5;opacity:1.0;" x1="1249.94" x2="1249.94" y1="1460.79" y2="1580.12"/>
  <line id="left-margin-Regular-L" style="fill:none;stroke:#00AEEF;stroke-width:0.5;opacity:1.0;" x1="1353.04" x2="1353.04" y1="1460.79" y2="1580.12"/>
  <line id="right-margin-Regular-L" style="fill:none;stroke:#00AEEF;stroke-width:0.5;opacity:1.0;" x1="1546.65" x2="1546.65" y1="1460.79" y2="1580.12"/>
  <line id="left-margin-Medium-L" style="fill:none;stroke:#00AEEF;stroke-width:0.5;opacity:1.0;" x1="1649.75" x2="1649.75" y1="1460.79" y2="1580.12"/>
  <line id="right-margin-Medium-L" style="fill:none;stroke:#00AEEF;stroke-width:0.5;opacity:1.0;" x1="1843.36" x2="1843.36" y1="1460.79" y2="1580.12"/>
  <line id="left-margin-Semibold-L" style="fill:none;stroke:#00AEEF;stroke-width:0.5;opacity:1.0;" x1="1946.46" x2="1946.46" y1="1460.79" y2="1580.12"/>
  <line id="right-margin-Semibold-L" style="fill:none;stroke:#00AEEF;stroke-width:0.5;opacity:1.0;" x1="2140.07" x2="2140.07" y1="1460.79" y2="1580.12"/>
  <line id="left-margin-Bold-L" style="fill:none;stroke:#00AEEF;stroke-width:0.5;opacity:1.0;" x1="2243.18" x2="2243.18" y1="1460.79" y2="1580.12"/>
  <line id="right-margin-Bold-L" style="fill:none;stroke:#00AEEF;stroke-width:0.5;opacity:1.0;" x1="2436.78" x2="2436.78" y1="1460.79" y2="1580.12"/>
  <line id="left-margin-Heavy-L" style="fill:none;stroke:#00AEEF;stroke-width:0.5;opacity:1.0;" x1="2539.89" x2="2539.89" y1="1460.79" y2="1580.12"/>
  <line id="right-margin-Heavy-L" style="fill:none;stroke:#00AEEF;stroke-width:0.5;opacity:1.0;" x1="2733.49" x2="2733.49" y1="1460.79" y2="1580.12"/>
  <line id="left-margin-Black-L" style="fill:none;stroke:#00AEEF;stroke-width:0.5;opacity:1.0;" x1="2836.6" x2="2836.6" y1="1460.79" y2="1580.12"/>
  <line id="right-margin-Black-L" style="fill:none;stroke:#00AEEF;stroke-width:0.5;opacity:1.0;" x1="3030.2" x2="3030.2" y1="1460.79" y2="1580.12"/>
 </g>
 <g id="Symbols">
  <g id="Black-L" transform="matrix(1 0 0 1 2836.6 1556)">
   <path class="multicolor-0:systemYellowColor hierarchical-0:secondary SFSymbolsPreviewFFCC00" d="M131.299-26.416Q131.299-33.5938 128.613-39.8682Q125.928-46.1426 121.191-50.9033Q116.455-55.6641 110.205-58.3496Q103.955-61.0352 96.8262-61.0352Q89.6973-61.0352 83.4473-58.3496Q77.1973-55.6641 72.4365-50.9033Q67.6758-46.1426 64.9902-39.8682Q62.3047-33.5938 62.3047-26.416Q62.3047-24.707 62.5-23.0469Q62.6953-21.3867 63.0859-19.8242L130.518-19.8242Q130.908-21.3867 131.104-23.0469Q131.299-24.707 131.299-26.416ZM129.492-58.8867Q131.641-56.7383 134.766-56.8115Q137.891-56.8848 140.137-59.1309L148.047-66.8945Q150.293-69.1895 150.317-72.3145Q150.342-75.4395 148.193-77.6367Q146.045-79.7852 142.92-79.7363Q139.795-79.6875 137.549-77.3926L129.639-69.5801Q127.441-67.334 127.368-64.1846Q127.295-61.0352 129.492-58.8867ZM53.4668-59.1309Q55.7129-56.8848 58.8623-56.8115Q62.0117-56.7383 64.1602-58.8867Q66.3086-61.0352 66.2598-64.1846Q66.2109-67.334 63.9648-69.5801L56.1035-77.3926Q53.8086-79.6875 50.6836-79.7119Q47.5586-79.7363 45.4102-77.6367Q43.2617-75.4883 43.2861-72.3389Q43.3105-69.1895 45.6055-66.8945ZM96.8262-72.4609Q99.8535-72.4609 102.026-74.707Q104.199-76.9531 104.199-80.127L104.199-91.2598Q104.199-94.4336 102.026-96.6797Q99.8535-98.9258 96.8262-98.9258Q93.75-98.9258 91.5771-96.6797Q89.4043-94.4336 89.4043-91.2598L89.4043-80.127Q89.4043-76.9531 91.5771-74.6826Q93.75-72.4121 96.8262-72.4609ZM31.7871-23.9258L42.8711-23.877Q46.0938-23.877 48.3643-26.0742Q50.6348-28.2715 50.5859-31.3477Q50.5859-34.375 48.3398-36.5479Q46.0938-38.7207 42.8711-38.7207L31.7871-38.7207Q28.6133-38.7207 26.3672-36.5479Q24.1211-34.375 24.1211-31.3477Q24.1211-28.2715 26.3916-26.0986Q28.6621-23.9258 31.7871-23.9258ZM150.732-23.9258L161.816-23.9258Q165.039-23.9258 167.261-26.0986Q169.482-28.2715 169.482-31.3477Q169.482-34.375 167.261-36.5479Q165.039-38.7207 161.816-38.7207L150.732-38.7207Q147.559-38.7207 145.288-36.5479Q143.018-34.375 143.018-31.3477Q143.018-28.2715 145.312-26.0986Q147.607-23.9258 150.732-23.9258Z"/>
   <path class="multicolor-1:white hierarchical-1:primary SFSymbolsPreviewFFFFFF" d="M25.1465 9.0332L168.457 9.0332Q172.266 9.0332 174.902 6.25Q177.539 3.4668 177.539-0.195312Q177.539-3.95508 174.927-6.68945Q172.314-9.42383 168.457-9.42383L25.1465-9.42383Q21.3379-9.42383 18.7012-6.66504Q16.0645-3.90625 16.0645-0.195312Q16.0645 3.36914 18.7256 6.20117Q21.3867 9.0332 25.1465 9.0332Z"/>
  </g>
  <g id="Heavy-L" transform="matrix(1 0 0 1 2539.89 1556)">
   <path class="multicolor-0:systemYellowColor hierarchical-0:secondary SFSymbolsPreviewFFCC00" d="M131.114-26.4618Q131.114-33.5823 128.44-39.8163Q125.767-46.0503 121.048-50.7938Q116.328-55.5374 110.113-58.2115Q103.897-60.8856 96.8262-60.8856Q89.743-60.8856 83.5278-58.2115Q77.3125-55.5374 72.5746-50.7938Q67.8368-46.0503 65.163-39.8163Q62.4893-33.5823 62.4893-26.4618Q62.4893-24.2805 62.8403-22.1825Q63.1912-20.0844 63.858-18.1534L129.745-18.1534Q130.412-20.0844 130.763-22.1825Q131.114-24.2805 131.114-26.4618ZM129.446-58.9211Q131.387-56.9916 134.212-57.0534Q137.038-57.1152 139.1-59.1766L148.035-67.9893Q150.097-70.0996 150.116-72.9137Q150.134-75.7278 148.193-77.7061Q146.264-79.6471 143.444-79.6097Q140.625-79.5723 138.551-77.4734L129.616-68.6119Q127.602-66.5619 127.535-63.7119Q127.468-60.862 129.446-58.9211ZM54.5036-59.1766Q56.5659-57.1152 59.4154-57.0477Q62.265-56.9801 64.1945-58.9211Q66.1354-60.862 66.0866-63.7119Q66.0378-66.5619 63.9877-68.6119L55.0896-77.4734Q52.9907-79.5723 50.1709-79.591Q47.3511-79.6097 45.4102-77.7061Q43.4692-75.7767 43.4879-72.9382Q43.5066-70.0996 45.6169-67.9893ZM96.8262-72.4609Q99.5537-72.4724 101.519-74.5052Q103.484-76.5381 103.484-79.4472L103.484-92.0319Q103.484-94.9409 101.519-96.9738Q99.5537-99.0067 96.8262-99.0067Q94.0498-99.0067 92.0902-96.9738Q90.1306-94.9409 90.1306-92.0319L90.1306-79.4472Q90.1306-76.5381 92.0902-74.4751Q94.0498-72.4121 96.8262-72.4609ZM31.0844-23.9029L43.6432-23.8655Q46.5897-23.8655 48.6469-25.8438Q50.7042-27.8221 50.6554-30.5984Q50.6439-33.326 48.6168-35.2917Q46.5897-37.2574 43.6432-37.2574L31.0844-37.2574Q28.1868-37.2574 26.1539-35.2917Q24.1211-33.326 24.1211-30.5984Q24.1211-27.8221 26.1726-25.8625Q28.2242-23.9029 31.0844-23.9029ZM149.96-23.9029L162.519-23.9029Q165.466-23.9029 167.474-25.8625Q169.482-27.8221 169.482-30.5984Q169.482-33.326 167.474-35.2917Q165.466-37.2574 162.519-37.2574L149.96-37.2574Q147.063-37.2574 145-35.2917Q142.937-33.326 142.948-30.5984Q142.96-27.8221 145.03-25.8625Q147.1-23.9029 149.96-23.9029Z"/>
   <path class="multicolor-1:white hierarchical-1:primary SFSymbolsPreviewFFFFFF" d="M24.1096 7.53479L169.495 7.53479Q172.853 7.53479 175.196 5.11475Q177.539 2.6947 177.539-0.52948Q177.539-3.81699 175.215-6.20537Q172.89-8.59375 169.495-8.59375L24.1096-8.59375Q20.7504-8.59375 18.4074-6.18668Q16.0645-3.7796 16.0645-0.52948Q16.0645 2.61993 18.4261 5.07736Q20.7878 7.53479 24.1096 7.53479Z"/>
  </g>
  <g id="Bold-L" transform="matrix(1 0 0 1 2243.18 1556)">
   <path class="multicolor-0:systemYellowColor hierarchical-0:secondary SFSymbolsPreviewFFCC00" d="M130.908-26.5137Q130.908-33.5693 128.247-39.7583Q125.586-45.9473 120.886-50.6714Q116.187-55.3955 110.01-58.0566Q103.833-60.7178 96.8262-60.7178Q89.7949-60.7178 83.6182-58.0566Q77.4414-55.3955 72.7295-50.6714Q68.0176-45.9473 65.3564-39.7583Q62.6953-33.5693 62.6953-26.5137Q62.6953-23.8037 63.2202-21.2158Q63.7451-18.6279 64.7217-16.2842L128.882-16.2842Q129.858-18.6279 130.383-21.2158Q130.908-23.8037 130.908-26.5137ZM129.395-58.96Q131.104-57.2754 133.594-57.3242Q136.084-57.373 137.939-59.2285L148.022-69.2139Q149.878-71.1182 149.89-73.584Q149.902-76.0498 148.193-77.7832Q146.509-79.4922 144.031-79.4678Q141.553-79.4434 139.673-77.5635L129.59-67.5293Q127.783-65.6982 127.722-63.1836Q127.661-60.6689 129.395-58.96ZM55.6641-59.2285Q57.5195-57.373 60.0342-57.312Q62.5488-57.251 64.2334-58.96Q65.9424-60.6689 65.8936-63.1836Q65.8447-65.6982 64.0137-67.5293L53.9551-77.5635Q52.0752-79.4434 49.5972-79.4556Q47.1191-79.4678 45.4102-77.7832Q43.7012-76.0986 43.7134-73.6084Q43.7256-71.1182 45.6299-69.2139ZM96.8262-72.4609Q99.2188-72.4854 100.952-74.2798Q102.686-76.0742 102.686-78.6865L102.686-92.8955Q102.686-95.5078 100.952-97.3022Q99.2188-99.0967 96.8262-99.0967Q94.3848-99.0967 92.6636-97.3022Q90.9424-95.5078 90.9424-92.8955L90.9424-78.6865Q90.9424-76.0742 92.6636-74.2432Q94.3848-72.4121 96.8262-72.4609ZM30.2979-23.877L44.5068-23.8525Q47.1436-23.8525 48.9624-25.5859Q50.7812-27.3193 50.7324-29.7607Q50.708-32.1533 48.9258-33.8867Q47.1436-35.6201 44.5068-35.6201L30.2979-35.6201Q27.71-35.6201 25.9155-33.8867Q24.1211-32.1533 24.1211-29.7607Q24.1211-27.3193 25.9277-25.5981Q27.7344-23.877 30.2979-23.877ZM149.097-23.877L163.306-23.877Q165.942-23.877 167.712-25.5981Q169.482-27.3193 169.482-29.7607Q169.482-32.1533 167.712-33.8867Q165.942-35.6201 163.306-35.6201L149.097-35.6201Q146.509-35.6201 144.678-33.8867Q142.847-32.1533 142.871-29.7607Q142.896-27.3193 144.714-25.5981Q146.533-23.877 149.097-23.877Z"/>
   <path class="multicolor-1:white hierarchical-1:primary SFSymbolsPreviewFFFFFF" d="M22.9492 5.85938L170.654 5.85938Q173.511 5.85938 175.525 3.84521Q177.539 1.83105 177.539-0.90332Q177.539-3.66211 175.537-5.66406Q173.535-7.66602 170.654-7.66602L22.9492-7.66602Q20.0928-7.66602 18.0786-5.65186Q16.0645-3.6377 16.0645-0.90332Q16.0645 1.78223 18.0908 3.8208Q20.1172 5.85938 22.9492 5.85938Z"/>
  </g>
  <g id="Semibold-L" transform="matrix(1 0 0 1 1946.46 1556)">
   <path class="multicolor-0:systemYellowColor hierarchical-0:secondary SFSymbolsPreviewFFCC00" d="M130.766-26.5495Q130.766-33.5602 128.114-39.7182Q125.462-45.8763 120.775-50.5871Q116.089-55.2979 109.939-57.9502Q103.789-60.6026 96.8262-60.6026Q89.8308-60.6026 83.6803-57.9502Q77.5299-55.2979 72.8359-50.5871Q68.1419-45.8763 65.4896-39.7182Q62.8372-33.5602 62.8372-26.5495Q62.8372-23.4749 63.4823-20.5494Q64.1273-17.6239 65.3168-14.9956L128.287-14.9956Q129.476-17.6239 130.121-20.5494Q130.766-23.4749 130.766-26.5495ZM129.359-58.9867Q130.908-57.4707 133.167-57.5108Q135.426-57.5508 137.14-59.2644L148.013-70.0584Q149.727-71.8201 149.734-74.0459Q149.742-76.2718 148.193-77.8366Q146.677-79.3854 144.435-79.3701Q142.193-79.3549 140.446-77.626L129.572-66.7831Q127.908-65.1031 127.851-62.8193Q127.795-60.5354 129.359-58.9867ZM56.4636-59.2644Q58.1772-57.5508 60.4607-57.4944Q62.7441-57.4379 64.2601-58.9867Q65.8089-60.5354 65.76-62.8193Q65.7112-65.1031 64.0312-66.7831L53.1731-77.626Q51.4442-79.3549 49.2016-79.3625Q46.9589-79.3701 45.4102-77.8366Q43.8614-76.3206 43.869-74.0704Q43.8766-71.8201 45.639-70.0584ZM96.8262-72.4609Q98.9876-72.4945 100.561-74.1245Q102.135-75.7545 102.135-78.1624L102.135-93.4906Q102.135-95.8992 100.561-97.5292Q98.9876-99.1592 96.8262-99.1592Q94.6159-99.1592 93.0592-97.5292Q91.5024-95.8992 91.5024-93.4906L91.5024-78.1624Q91.5024-75.7545 93.0592-74.0833Q94.6159-72.4121 96.8262-72.4609ZM29.7554-23.8594L45.1019-23.8434Q47.5258-23.8434 49.1802-25.4082Q50.8347-26.973 50.7858-29.1832Q50.7523-31.3446 49.139-32.9182Q47.5258-34.4917 45.1019-34.4917L29.7554-34.4917Q27.3811-34.4917 25.7511-32.9182Q24.1211-31.3446 24.1211-29.1832Q24.1211-26.973 25.7587-25.4162Q27.3964-23.8594 29.7554-23.8594ZM148.502-23.8594L163.848-23.8594Q166.271-23.8594 167.877-25.4162Q169.482-26.973 169.482-29.1832Q169.482-31.3446 167.877-32.9182Q166.271-34.4917 163.848-34.4917L148.502-34.4917Q146.127-34.4917 144.455-32.9182Q142.784-31.3446 142.818-29.1832Q142.851-26.973 144.497-25.4162Q146.142-23.8594 148.502-23.8594Z"/>
   <path class="multicolor-1:white hierarchical-1:primary SFSymbolsPreviewFFFFFF" d="M22.1497 4.70428L171.454 4.70428Q173.964 4.70428 175.751 2.97012Q177.539 1.23596 177.539-1.16119Q177.539-3.5553 175.759-5.2906Q173.979-7.02591 171.454-7.02591L22.1497-7.02591Q19.6396-7.02591 17.852-5.28297Q16.0645-3.54004 16.0645-1.16119Q16.0645 1.20468 17.8596 2.95448Q19.6548 4.70428 22.1497 4.70428Z"/>
  </g>
  <g id="Medium-L" transform="matrix(1 0 0 1 1649.75 1556)">
   <path class="multicolor-0:systemYellowColor hierarchical-0:secondary SFSymbolsPreviewFFCC00" d="M130.658-26.5762Q130.658-33.5541 128.012-39.6881Q125.367-45.8221 120.691-50.523Q116.015-55.2238 109.885-57.8693Q103.755-60.5148 96.8262-60.5148Q89.8575-60.5148 83.7276-57.8693Q77.5978-55.2238 72.9172-50.523Q68.2365-45.8221 65.591-39.6881Q62.9456-33.5541 62.9456-26.5762Q62.9456-23.2254 63.6814-20.0439Q64.4173-16.8625 65.7684-14.0182L127.835-14.0182Q129.186-16.8625 129.922-20.0439Q130.658-23.2254 130.658-26.5762ZM129.332-59.0065Q130.759-57.6195 132.843-57.6527Q134.927-57.6859 136.533-59.2911L148.007-70.6985Q149.612-72.3526 149.617-74.3965Q149.621-76.4404 148.193-77.877Q146.806-79.3045 144.742-79.2957Q142.678-79.287 141.032-77.6726L129.559-66.217Q128.002-64.6515 127.949-62.5431Q127.895-60.4347 129.332-59.0065ZM57.0702-59.2911Q58.6761-57.6859 60.7845-57.6324Q62.8929-57.579 64.2799-59.0065Q65.7082-60.4347 65.6593-62.5431Q65.6105-64.6515 64.045-66.217L52.5803-77.6726Q50.9659-79.287 48.9017-79.2915Q46.8376-79.2961 45.4102-77.877Q43.9827-76.4893 43.9869-74.4209Q43.9911-72.3526 45.6451-70.6985ZM96.8262-72.4609Q98.8129-72.5006 100.265-74.0063Q101.717-75.5119 101.717-77.7649L101.717-93.9423Q101.717-96.1952 100.265-97.7005Q98.8129-99.2058 96.8262-99.2058Q94.7906-99.2058 93.3586-97.7005Q91.9266-96.1952 91.9266-93.9423L91.9266-77.7649Q91.9266-75.5119 93.3586-73.962Q94.7906-72.4121 96.8262-72.4609ZM29.3449-23.8457L45.5536-23.8373Q47.8157-23.8373 49.3454-25.2735Q50.8751-26.7097 50.8263-28.7453Q50.7858-30.7312 49.3008-32.1835Q47.8157-33.6357 45.5536-33.6357L29.3449-33.6357Q27.1317-33.6357 25.6264-32.1835Q24.1211-30.7312 24.1211-28.7453Q24.1211-26.7097 25.631-25.2777Q27.1408-23.8457 29.3449-23.8457ZM148.05-23.8457L164.259-23.8457Q166.521-23.8457 168.002-25.2777Q169.482-26.7097 169.482-28.7453Q169.482-30.7312 168.002-32.1835Q166.521-33.6357 164.259-33.6357L148.05-33.6357Q145.837-33.6357 144.287-32.1835Q142.738-30.7312 142.777-28.7453Q142.818-26.7097 144.332-25.2777Q145.846-23.8457 148.05-23.8457Z"/>
   <path class="multicolor-1:white hierarchical-1:primary SFSymbolsPreviewFFFFFF" d="M21.5431 3.82843L172.06 3.82843Q174.308 3.82843 175.924 2.30637Q177.539 0.784302 177.539-1.35651Q177.539-3.47443 175.928-5.00755Q174.316-6.54068 172.06-6.54068L21.5431-6.54068Q19.2955-6.54068 17.68-5.00336Q16.0645-3.46603 16.0645-1.35651Q16.0645 0.766754 17.6846 2.29759Q19.3047 3.82843 21.5431 3.82843Z"/>
  </g>
  <g id="Regular-L" transform="matrix(1 0 0 1 1353.04 1556)">
   <path class="multicolor-0:systemYellowColor hierarchical-0:secondary SFSymbolsPreviewFFCC00" d="M130.518-26.6113Q130.518-33.5449 127.881-39.6484Q125.244-45.752 120.581-50.4395Q115.918-55.127 109.814-57.7637Q103.711-60.4004 96.8262-60.4004Q89.8926-60.4004 83.7891-57.7637Q77.6855-55.127 73.0225-50.4395Q68.3594-45.752 65.7227-39.6484Q63.0859-33.5449 63.0859-26.6113Q63.0859-22.9004 63.9404-19.3848Q64.7949-15.8691 66.3574-12.7441L127.246-12.7441Q128.809-15.8691 129.663-19.3848Q130.518-22.9004 130.518-26.6113ZM129.297-59.0332Q130.566-57.8125 132.422-57.8369Q134.277-57.8613 135.742-59.3262L147.998-71.5332Q149.463-73.0469 149.463-74.8535Q149.463-76.6602 148.193-77.9297Q146.973-79.1992 145.142-79.1992Q143.311-79.1992 141.797-77.7344L129.541-65.4785Q128.125-64.0625 128.076-62.1826Q128.027-60.3027 129.297-59.0332ZM57.8613-59.3262Q59.3262-57.8613 61.2061-57.8125Q63.0859-57.7637 64.3066-59.0332Q65.5762-60.3027 65.5273-62.1826Q65.4785-64.0625 64.0625-65.4785L51.8066-77.7344Q50.3418-79.1992 48.5107-79.1992Q46.6797-79.1992 45.4102-77.9297Q44.1406-76.709 44.1406-74.8779Q44.1406-73.0469 45.6543-71.5332ZM96.8262-72.4609Q98.584-72.5098 99.8779-73.8525Q101.172-75.1953 101.172-77.2461L101.172-94.5312Q101.172-96.582 99.8779-97.9248Q98.584-99.2676 96.8262-99.2676Q95.0195-99.2676 93.75-97.9248Q92.4805-96.582 92.4805-94.5312L92.4805-77.2461Q92.4805-75.1953 93.75-73.8037Q95.0195-72.4121 96.8262-72.4609ZM28.8086-23.8281L46.1426-23.8281Q48.1934-23.8281 49.5605-25.0977Q50.9277-26.3672 50.8789-28.1738Q50.8301-29.9316 49.5117-31.2256Q48.1934-32.5195 46.1426-32.5195L28.8086-32.5195Q26.8066-32.5195 25.4639-31.2256Q24.1211-29.9316 24.1211-28.1738Q24.1211-26.3672 25.4639-25.0977Q26.8066-23.8281 28.8086-23.8281ZM147.461-23.8281L164.795-23.8281Q166.846-23.8281 168.164-25.0977Q169.482-26.3672 169.482-28.1738Q169.482-29.9316 168.164-31.2256Q166.846-32.5195 164.795-32.5195L147.461-32.5195Q145.459-32.5195 144.067-31.2256Q142.676-29.9316 142.725-28.1738Q142.773-26.3672 144.116-25.0977Q145.459-23.8281 147.461-23.8281Z"/>
   <path class="multicolor-1:white hierarchical-1:primary SFSymbolsPreviewFFFFFF" d="M20.752 2.68555L172.852 2.68555Q174.756 2.68555 176.147 1.44043Q177.539 0.195312 177.539-1.61133Q177.539-3.36914 176.147-4.63867Q174.756-5.9082 172.852-5.9082L20.752-5.9082Q18.8477-5.9082 17.4561-4.63867Q16.0645-3.36914 16.0645-1.61133Q16.0645 0.195312 17.4561 1.44043Q18.8477 2.68555 20.752 2.68555Z"/>
  </g>
  <g id="Light-L" transform="matrix(1 0 0 1 1056.33 1556)">
   <path class="multicolor-0:systemYellowColor hierarchical-0:secondary SFSymbolsPreviewFFCC00" d="M129.973-26.3542Q129.973-33.1818 127.382-39.1869Q124.79-45.192 120.21-49.7887Q115.63-54.3854 109.625-56.9767Q103.62-59.568 96.8262-59.568Q89.9834-59.568 83.9783-56.9767Q77.9732-54.3854 73.3932-49.7887Q68.8133-45.192 66.222-39.1869Q63.6307-33.1818 63.6307-26.3542Q63.6307-22.2038 64.6896-18.3403Q65.7486-14.4768 67.6743-11.0939L125.929-11.0939Q127.855-14.4768 128.914-18.3403Q129.973-22.2038 129.973-26.3542ZM129.297-58.7761Q130.248-57.8583 131.657-57.8674Q133.067-57.8766 134.107-58.9325L148.104-72.8958Q149.206-74.0158 149.191-75.3681Q149.175-76.7204 148.193-77.6726Q147.291-78.624 145.914-78.6541Q144.537-78.6842 143.401-77.5833L129.42-63.5864Q128.397-62.5793 128.371-61.1534Q128.345-59.7275 129.297-58.7761ZM59.4963-58.9325Q60.5522-57.8766 61.9705-57.8503Q63.3888-57.8239 64.3066-58.7761Q65.258-59.7275 65.2321-61.1534Q65.2061-62.5793 64.1838-63.5864L50.2022-77.5833Q49.1005-78.6842 47.7238-78.6541Q46.347-78.624 45.4102-77.6726Q44.4435-76.7548 44.4283-75.3853Q44.413-74.0158 45.533-72.8958ZM96.8262-72.2038Q98.1453-72.2374 99.1287-73.2471Q100.112-74.2569 100.112-75.7477L100.112-95.5002Q100.112-97.0062 99.1287-98.0083Q98.1453-99.0105 96.8262-99.0105Q95.4582-99.0105 94.4916-98.0083Q93.5249-97.0062 93.5249-95.5002L93.5249-75.7477Q93.5249-74.2569 94.4916-73.2136Q95.4582-72.1703 96.8262-72.2038ZM27.5978-24.6155L47.3839-24.6155Q48.9044-24.6155 49.9084-25.5821Q50.9125-26.5488 50.8789-27.9167Q50.8453-29.2351 49.8676-30.2189Q48.8899-31.2027 47.3839-31.2027L27.5978-31.2027Q26.1406-31.2027 25.1308-30.2189Q24.1211-29.2351 24.1211-27.9167Q24.1211-26.5488 25.1308-25.5821Q26.1406-24.6155 27.5978-24.6155ZM146.235-24.6155L166.021-24.6155Q167.527-24.6155 168.505-25.5821Q169.482-26.5488 169.482-27.9167Q169.482-29.2351 168.505-30.2189Q167.527-31.2027 166.021-31.2027L146.235-31.2027Q144.778-31.2027 143.734-30.2189Q142.691-29.2351 142.725-27.9167Q142.758-26.5488 143.768-25.5821Q144.778-24.6155 146.235-24.6155Z"/>
   <path class="multicolor-1:white hierarchical-1:primary SFSymbolsPreviewFFFFFF" d="M19.6625 1.55029L173.941 1.55029Q175.407 1.55029 176.473 0.608063Q177.539-0.334167 177.539-1.71738Q177.539-3.06625 176.473-4.02565Q175.407-4.98505 173.941-4.98505L19.6625-4.98505Q18.1969-4.98505 17.1307-4.02565Q16.0645-3.06625 16.0645-1.71738Q16.0645-0.334167 17.1307 0.608063Q18.1969 1.55029 19.6625 1.55029Z"/>
  </g>
  <g id="Thin-L" transform="matrix(1 0 0 1 759.62 1556)">
   <path class="multicolor-0:systemYellowColor hierarchical-0:secondary SFSymbolsPreviewFFCC00" d="M129.252-26.0139Q129.252-32.7011 126.721-38.5761Q124.19-44.4511 119.72-48.9277Q115.25-53.4042 109.375-55.9357Q103.5-58.4671 96.8262-58.4671Q90.1031-58.4671 84.2281-55.9357Q78.3531-53.4042 73.8834-48.9277Q69.4138-44.4511 66.8827-38.5761Q64.3517-32.7011 64.3517-26.0139Q64.3517-21.283 65.6807-16.959Q67.0097-12.635 69.416-8.9119L124.187-8.9119Q126.594-12.635 127.923-16.959Q129.252-21.283 129.252-26.0139ZM129.297-58.4358Q129.828-57.9178 130.647-57.9071Q131.465-57.8964 131.946-58.4122L148.244-74.6971Q148.866-75.2968 148.83-76.0487Q148.795-76.8005 148.193-77.3323Q147.711-77.8633 146.935-77.9335Q146.158-78.0037 145.523-77.3827L129.259-61.084Q128.757-60.6171 128.762-59.7919Q128.766-58.9668 129.297-58.4358ZM61.6577-58.4122Q62.1735-57.8964 62.9814-57.9002Q63.7894-57.9041 64.3066-58.4358Q64.8376-58.9668 64.8418-59.7919Q64.846-60.6171 64.344-61.084L48.0804-77.3827Q47.4594-78.0037 46.6827-77.9335Q45.9061-77.8633 45.4102-77.3323Q44.8441-76.8143 44.8086-76.0555Q44.7731-75.2968 45.3728-74.6971ZM96.8262-71.8636Q97.5647-71.8773 98.138-72.4464Q98.7114-73.0156 98.7114-73.7656L98.7114-96.7812Q98.7114-97.5662 98.138-98.1182Q97.5647-98.6702 96.8262-98.6702Q96.0388-98.6702 95.4723-98.1182Q94.9059-97.5662 94.9059-96.7812L94.9059-73.7656Q94.9059-73.0156 95.4723-72.4327Q96.0388-71.8498 96.8262-71.8636ZM25.9964-25.6561L49.025-25.6561Q49.8459-25.6561 50.3693-26.2226Q50.8926-26.7891 50.8789-27.5764Q50.8652-28.3142 50.338-28.8876Q49.8108-29.4609 49.025-29.4609L25.9964-29.4609Q25.2602-29.4609 24.6906-28.8876Q24.1211-28.3142 24.1211-27.5764Q24.1211-26.7891 24.6906-26.2226Q25.2602-25.6561 25.9964-25.6561ZM144.614-25.6561L167.642-25.6561Q168.428-25.6561 168.955-26.2226Q169.482-26.7891 169.482-27.5764Q169.482-28.3142 168.955-28.8876Q168.428-29.4609 167.642-29.4609L144.614-29.4609Q143.877-29.4609 143.294-28.8876Q142.711-28.3142 142.725-27.5764Q142.738-26.7891 143.307-26.2226Q143.877-25.6561 144.614-25.6561Z"/>
   <path class="multicolor-1:white hierarchical-1:primary SFSymbolsPreviewFFFFFF" d="M18.2205 0.0488281L175.383 0.0488281Q176.267 0.0488281 176.903-0.49324Q177.539-1.03531 177.539-1.85776Q177.539-2.66571 176.903-3.21465Q176.267-3.76358 175.383-3.76358L18.2205-3.76358Q17.3363-3.76358 16.7004-3.21465Q16.0645-2.66571 16.0645-1.85776Q16.0645-1.03531 16.7004-0.49324Q17.3363 0.0488281 18.2205 0.0488281Z"/>
  </g>
  <g id="Ultralight-L" transform="matrix(1 0 0 1 462.909 1556)">
   <path class="multicolor-0:systemYellowColor hierarchical-0:secondary SFSymbolsPreviewFFCC00" d="M128.883-25.8392Q128.883-32.4554 126.382-38.2637Q123.882-44.072 119.468-48.4871Q115.055-52.9022 109.247-55.4024Q103.439-57.9025 96.8262-57.9025Q90.1649-57.9025 84.3567-55.4024Q78.5484-52.9022 74.1352-48.4871Q69.722-44.072 67.2215-38.2637Q64.7209-32.4554 64.7209-25.8392Q64.7209-20.8115 66.1884-16.2514Q67.6559-11.6913 70.3079-7.79419L123.296-7.79419Q125.948-11.6913 127.415-16.2514Q128.883-20.8115 128.883-25.8392ZM129.297-58.2611Q129.613-57.9491 130.128-57.9281Q130.644-57.9071 130.838-58.1451L148.316-75.6203Q148.691-75.9529 148.645-76.3973Q148.6-76.8417 148.193-77.1576Q147.926-77.4734 147.458-77.5642Q146.989-77.655 146.61-77.2804L129.178-59.8022Q128.942-59.6123 128.962-59.0946Q128.981-58.577 129.297-58.2611ZM62.7655-58.1451Q63.0043-57.9071 63.4991-57.9262Q63.9938-57.9453 64.3066-58.2611Q64.6225-58.577 64.642-59.0946Q64.6614-59.6123 64.4257-59.8022L46.9933-77.2804Q46.6179-77.655 46.1494-77.5642Q45.681-77.4734 45.4102-77.1576Q45.0485-76.8456 45.0031-76.3992Q44.9577-75.9529 45.2911-75.6203ZM96.8262-71.6888Q97.2672-71.6927 97.6303-72.0364Q97.9935-72.3801 97.9935-72.7509L97.9935-97.4373Q97.9935-97.8539 97.6303-98.1747Q97.2672-98.4955 96.8262-98.4955Q96.3364-98.4955 95.9751-98.1747Q95.6139-97.8539 95.6139-97.4373L95.6139-72.7509Q95.6139-72.3801 95.9751-72.0329Q96.3364-71.6858 96.8262-71.6888ZM25.1755-26.1894L49.8665-26.1894Q50.3273-26.1894 50.6046-26.5507Q50.882-26.9119 50.8789-27.4017Q50.8759-27.8427 50.5791-28.2059Q50.2823-28.569 49.8665-28.569L25.1755-28.569Q24.8085-28.569 24.4648-28.2059Q24.1211-27.8427 24.1211-27.4017Q24.1211-26.9119 24.4648-26.5507Q24.8085-26.1894 25.1755-26.1894ZM143.783-26.1894L168.473-26.1894Q168.889-26.1894 169.186-26.5507Q169.482-26.9119 169.482-27.4017Q169.482-27.8427 169.186-28.2059Q168.889-28.569 168.473-28.569L143.783-28.569Q143.416-28.569 143.069-28.2059Q142.722-27.8427 142.725-27.4017Q142.728-26.9119 143.072-26.5507Q143.416-26.1894 143.783-26.1894Z"/>
   <path class="multicolor-1:white hierarchical-1:primary SFSymbolsPreviewFFFFFF" d="M17.4828-0.720215L176.121-0.720215Q176.708-0.720215 177.124-1.05705Q177.539-1.39389 177.539-1.92947Q177.539-2.46124 177.124-2.79961Q176.708-3.13797 176.121-3.13797L17.4828-3.13797Q16.8953-3.13797 16.4799-2.79961Q16.0645-2.46124 16.0645-1.92947Q16.0645-1.39389 16.4799-1.05705Q16.8953-0.720215 17.4828-0.720215Z"/>
  </g>
  <g id="Black-M" transform="matrix(1 0 0 1 2858.38 1126)">
   <path class="multicolor-0:systemYellowColor hierarchical-0:secondary SFSymbolsPreviewFFCC00" d="M101.709-28.2715Q101.709-33.8379 99.6338-38.7207Q97.5586-43.6035 93.8965-47.2656Q90.2344-50.9277 85.4004-53.0029Q80.5664-55.0781 75.0488-55.0781Q69.4824-55.0781 64.6484-53.0029Q59.8145-50.9277 56.1523-47.2656Q52.4902-43.6035 50.415-38.7207Q48.3398-33.8379 48.3398-28.2715Q48.3398-27.2461 48.4131-26.1963Q48.4863-25.1465 48.6816-24.1699L101.367-24.1699Q101.562-25.1465 101.636-26.1963Q101.709-27.2461 101.709-28.2715ZM100.391-53.4668Q102.1-51.709 104.639-51.7578Q107.178-51.8066 108.984-53.6133L114.746-59.2773Q116.553-61.084 116.577-63.623Q116.602-66.1621 114.844-67.9199Q113.086-69.6777 110.571-69.6289Q108.057-69.5801 106.25-67.7734L100.439-62.0605Q98.6816-60.2539 98.6572-57.7148Q98.6328-55.1758 100.391-53.4668ZM41.0645-53.6133Q42.8711-51.8066 45.4102-51.7578Q47.9492-51.709 49.6582-53.4668Q51.416-55.1758 51.3916-57.7148Q51.3672-60.2539 49.6094-62.0605L43.7988-67.7734Q41.9922-69.5801 39.4775-69.6289Q36.9629-69.6777 35.2051-67.9199Q33.4473-66.1621 33.4717-63.623Q33.4961-61.084 35.3027-59.2773ZM75.0488-63.9648Q77.4902-63.9648 79.248-65.7959Q81.0059-67.627 81.0059-70.1172L81.0059-78.2715Q81.0059-80.8594 79.248-82.6416Q77.4902-84.4238 75.0488-84.4238Q72.5586-84.4238 70.8008-82.6416Q69.043-80.8594 69.043-78.2715L69.043-70.1172Q69.043-67.627 70.8008-65.7959Q72.5586-63.9648 75.0488-63.9648ZM24.8535-26.7578L33.0078-26.709Q35.5469-26.709 37.3535-28.4912Q39.1602-30.2734 39.1602-32.7637Q39.1602-35.2539 37.3535-37.0117Q35.5469-38.7695 33.0078-38.7695L24.8535-38.7695Q22.3145-38.7695 20.5078-37.0117Q18.7012-35.2539 18.7012-32.7637Q18.7012-30.2734 20.5322-28.5156Q22.3633-26.7578 24.8535-26.7578ZM117.041-26.7578L125.195-26.7578Q127.783-26.7578 129.565-28.5156Q131.348-30.2734 131.348-32.7637Q131.348-35.2539 129.565-37.0117Q127.783-38.7695 125.195-38.7695L117.041-38.7695Q114.551-38.7695 112.72-37.0117Q110.889-35.2539 110.889-32.7637Q110.889-30.2734 112.744-28.5156Q114.6-26.7578 117.041-26.7578Z"/>
   <path class="multicolor-1:white hierarchical-1:primary SFSymbolsPreviewFFFFFF" d="M20.0195 0L130.029 0Q133.203 0 135.4-2.36816Q137.598-4.73633 137.598-7.8125Q137.598-11.0352 135.425-13.3301Q133.252-15.625 130.029-15.625L20.0195-15.625Q16.8457-15.625 14.6484-13.2812Q12.4512-10.9375 12.4512-7.8125Q12.4512-4.83398 14.6729-2.41699Q16.8945 0 20.0195 0Z"/>
  </g>
  <g id="Heavy-M" transform="matrix(1 0 0 1 2561.66 1126)">
   <path class="multicolor-0:systemYellowColor hierarchical-0:secondary SFSymbolsPreviewFFCC00" d="M101.651-28.3752Q101.651-33.9073 99.5758-38.7669Q97.5006-43.6264 93.8446-47.2885Q90.1886-50.9506 85.3661-53.0315Q80.5435-55.1125 75.0488-55.1125Q69.5053-55.1125 64.6828-53.0315Q59.8602-50.9506 56.2042-47.2885Q52.5482-43.6264 50.473-38.7669Q48.3978-33.9073 48.3978-28.3752Q48.3978-26.9691 48.5806-25.568Q48.7633-24.1669 49.1539-22.879L100.895-22.879Q101.286-24.1669 101.468-25.568Q101.651-26.9691 101.651-28.3752ZM100.345-53.5477Q101.926-51.9394 104.27-51.9882Q106.613-52.037 108.305-53.7285L114.712-60.0609Q116.415-61.7638 116.439-64.0953Q116.463-66.4268 114.844-68.0466Q113.235-69.6663 110.917-69.6289Q108.598-69.5915 106.895-67.8886L100.451-61.5189Q98.7854-59.816 98.7553-57.473Q98.7251-55.13 100.345-53.5477ZM41.7442-53.7285Q43.4357-52.037 45.7848-51.9882Q48.1339-51.9394 49.704-53.5477Q51.3123-55.13 51.2878-57.473Q51.2634-59.816 49.5979-61.5189L43.1534-67.8886Q41.4505-69.5915 39.1376-69.6289Q36.8248-69.6663 35.2051-68.0466Q33.5854-66.4391 33.6098-64.1014Q33.6342-61.7638 35.3371-60.0609ZM75.0488-64.0343Q77.2942-64.0343 78.9139-65.7269Q80.5336-67.4194 80.5336-69.7716L80.5336-78.8361Q80.5336-81.263 78.9139-82.9124Q77.2942-84.5619 75.0488-84.5619Q72.7547-84.5619 71.1349-82.9124Q69.5152-81.263 69.5152-78.8361L69.5152-69.7716Q69.5152-67.4194 71.1349-65.7211Q72.7547-64.0228 75.0488-64.0343ZM24.427-26.5617L33.4915-26.5244Q35.881-26.5244 37.5553-28.1628Q39.2296-29.8012 39.2296-32.0839Q39.2181-34.3781 37.5496-35.9974Q35.881-37.6167 33.4915-37.6167L24.427-37.6167Q22.0375-37.6167 20.3693-35.9974Q18.7012-34.3781 18.7012-32.0839Q18.7012-29.8012 20.388-28.1815Q22.0749-26.5617 24.427-26.5617ZM116.557-26.5617L125.622-26.5617Q128.048-26.5617 129.698-28.1815Q131.348-29.8012 131.348-32.0839Q131.348-34.3781 129.698-35.9974Q128.048-37.6167 125.622-37.6167L116.557-37.6167Q114.217-37.6167 112.518-35.9974Q110.819-34.3781 110.819-32.0839Q110.831-29.8012 112.542-28.1815Q114.254-26.5617 116.557-26.5617Z"/>
   <path class="multicolor-1:white hierarchical-1:primary SFSymbolsPreviewFFFFFF" d="M19.236-1.22147L130.813-1.22147Q133.641-1.22147 135.619-3.30162Q137.598-5.38177 137.598-8.11234Q137.598-10.9543 135.638-12.9841Q133.678-15.0139 130.813-15.0139L19.236-15.0139Q16.4078-15.0139 14.4295-12.9467Q12.4512-10.8795 12.4512-8.11234Q12.4512-5.45654 14.4482-3.339Q16.4452-1.22147 19.236-1.22147Z"/>
  </g>
  <g id="Bold-M" transform="matrix(1 0 0 1 2264.95 1126)">
   <path class="multicolor-0:systemYellowColor hierarchical-0:secondary SFSymbolsPreviewFFCC00" d="M101.587-28.4912Q101.587-33.9844 99.5117-38.8184Q97.4365-43.6523 93.7866-47.3145Q90.1367-50.9766 85.3271-53.064Q80.5176-55.1514 75.0488-55.1514Q69.5312-55.1514 64.7217-53.064Q59.9121-50.9766 56.2622-47.3145Q52.6123-43.6523 50.5371-38.8184Q48.4619-33.9844 48.4619-28.4912Q48.4619-26.6602 48.7671-24.8657Q49.0723-23.0713 49.6826-21.4355L100.366-21.4355Q100.977-23.0713 101.282-24.8657Q101.587-26.6602 101.587-28.4912ZM100.293-53.6377Q101.733-52.1973 103.857-52.2461Q105.981-52.2949 107.544-53.8574L114.673-60.9375Q116.26-62.5244 116.284-64.624Q116.309-66.7236 114.844-68.1885Q113.403-69.6533 111.304-69.6289Q109.204-69.6045 107.617-68.0176L100.464-60.9131Q98.9014-59.3262 98.8647-57.2021Q98.8281-55.0781 100.293-53.6377ZM42.5049-53.8574Q44.0674-52.2949 46.2036-52.2461Q48.3398-52.1973 49.7559-53.6377Q51.1963-55.0781 51.1719-57.2021Q51.1475-59.3262 49.585-60.9131L42.4316-68.0176Q40.8447-69.6045 38.7573-69.6289Q36.6699-69.6533 35.2051-68.1885Q33.7402-66.748 33.7646-64.6362Q33.7891-62.5244 35.376-60.9375ZM75.0488-64.1113Q77.0752-64.1113 78.54-65.6494Q80.0049-67.1875 80.0049-69.3848L80.0049-79.4678Q80.0049-81.7139 78.54-83.2153Q77.0752-84.7168 75.0488-84.7168Q72.9736-84.7168 71.5088-83.2153Q70.0439-81.7139 70.0439-79.4678L70.0439-69.3848Q70.0439-67.1875 71.5088-65.6372Q72.9736-64.0869 75.0488-64.1113ZM23.9502-26.3428L34.0332-26.3184Q36.2549-26.3184 37.7808-27.7954Q39.3066-29.2725 39.3066-31.3232Q39.2822-33.3984 37.7686-34.8633Q36.2549-36.3281 34.0332-36.3281L23.9502-36.3281Q21.7285-36.3281 20.2148-34.8633Q18.7012-33.3984 18.7012-31.3232Q18.7012-29.2725 20.2271-27.8076Q21.7529-26.3428 23.9502-26.3428ZM116.016-26.3428L126.099-26.3428Q128.345-26.3428 129.846-27.8076Q131.348-29.2725 131.348-31.3232Q131.348-33.3984 129.846-34.8633Q128.345-36.3281 126.099-36.3281L116.016-36.3281Q113.843-36.3281 112.292-34.8633Q110.742-33.3984 110.742-31.3232Q110.767-29.2725 112.317-27.8076Q113.867-26.3428 116.016-26.3428Z"/>
   <path class="multicolor-1:white hierarchical-1:primary SFSymbolsPreviewFFFFFF" d="M18.3594-2.58789L131.689-2.58789Q134.131-2.58789 135.864-4.3457Q137.598-6.10352 137.598-8.44727Q137.598-10.8643 135.876-12.5977Q134.155-14.3311 131.689-14.3311L18.3594-14.3311Q15.918-14.3311 14.1846-12.5732Q12.4512-10.8154 12.4512-8.44727Q12.4512-6.15234 14.1968-4.37012Q15.9424-2.58789 18.3594-2.58789Z"/>
  </g>
  <g id="Semibold-M" transform="matrix(1 0 0 1 1968.24 1126)">
   <path class="multicolor-0:systemYellowColor hierarchical-0:secondary SFSymbolsPreviewFFCC00" d="M101.543-28.5713Q101.543-34.0378 99.4675-38.8538Q97.3923-43.6699 93.7466-47.332Q90.1009-50.9941 85.3004-53.0861Q80.5-55.1781 75.0488-55.1781Q69.5488-55.1781 64.7484-53.0861Q59.948-50.9941 56.3023-47.332Q52.6566-43.6699 50.5814-38.8538Q48.5062-34.0378 48.5062-28.5713Q48.5062-26.4465 48.896-24.3813Q49.2859-22.316 50.0473-20.4399L100.002-20.4399Q100.763-22.316 101.153-24.3813Q101.543-26.4465 101.543-28.5713ZM100.257-53.7003Q101.6-52.375 103.573-52.4239Q105.546-52.4727 107.02-53.9459L114.646-61.5417Q116.153-63.0486 116.177-64.9883Q116.202-66.9281 114.844-68.2861Q113.519-69.6442 111.57-69.6289Q109.621-69.6136 108.115-68.1061L100.473-60.4958Q98.9815-58.9882 98.9403-57.0152Q98.8991-55.0423 100.257-53.7003ZM43.029-53.9459Q44.503-52.4727 46.4924-52.4239Q48.4818-52.375 49.7917-53.7003Q51.1162-55.0423 51.0918-57.0152Q51.0674-58.9882 49.5758-60.4958L41.9342-68.1061Q40.4274-69.6136 38.4953-69.6289Q36.5631-69.6442 35.2051-68.2861Q33.847-66.9617 33.8715-65.0051Q33.8959-63.0486 35.4027-61.5417ZM75.0488-64.1647Q76.9241-64.1647 78.2822-65.596Q79.6402-67.0273 79.6402-69.1185L79.6402-79.9034Q79.6402-82.0251 78.2822-83.4244Q76.9241-84.8236 75.0488-84.8236Q73.1247-84.8236 71.7667-83.4244Q70.4086-82.0251 70.4086-79.9034L70.4086-69.1185Q70.4086-67.0273 71.7667-65.5792Q73.1247-64.1312 75.0488-64.1647ZM23.6214-26.1917L34.4063-26.1765Q36.5128-26.1765 37.9364-27.5421Q39.36-28.9078 39.36-30.7991Q39.3265-32.7232 37.9196-34.0813Q36.5128-35.4393 34.4063-35.4393L23.6214-35.4393Q21.5149-35.4393 20.108-34.0813Q18.7012-32.7232 18.7012-30.7991Q18.7012-28.9078 20.116-27.5497Q21.5309-26.1917 23.6214-26.1917ZM115.643-26.1917L126.427-26.1917Q128.549-26.1917 129.948-27.5497Q131.348-28.9078 131.348-30.7991Q131.348-32.7232 129.948-34.0813Q128.549-35.4393 126.427-35.4393L115.643-35.4393Q113.585-35.4393 112.137-34.0813Q110.689-32.7232 110.689-30.7991Q110.722-28.9078 112.162-27.5497Q113.601-26.1917 115.643-26.1917Z"/>
   <path class="multicolor-1:white hierarchical-1:primary SFSymbolsPreviewFFFFFF" d="M17.7551-3.53012L132.294-3.53012Q134.469-3.53012 136.033-5.06554Q137.598-6.60095 137.598-8.67844Q137.598-10.8017 136.041-12.331Q134.484-13.8603 132.294-13.8603L17.7551-13.8603Q15.58-13.8603 14.0156-12.3158Q12.4512-10.7712 12.4512-8.67844Q12.4512-6.63223 14.0236-5.08118Q15.596-3.53012 17.7551-3.53012Z"/>
  </g>
  <g id="Medium-M" transform="matrix(1 0 0 1 1671.53 1126)">
   <path class="multicolor-0:systemYellowColor hierarchical-0:secondary SFSymbolsPreviewFFCC00" d="M101.509-28.6316Q101.509-34.0782 99.4339-38.8809Q97.3587-43.6836 93.7164-47.3457Q90.0742-51.0078 85.2802-53.1029Q80.4863-55.1979 75.0488-55.1979Q69.5625-55.1979 64.7686-53.1029Q59.9747-51.0078 56.3324-47.3457Q52.6901-43.6836 50.6149-38.8809Q48.5397-34.0782 48.5397-28.6316Q48.5397-26.2848 48.9937-24.0139Q49.4476-21.743 50.3235-19.6854L99.7253-19.6854Q100.601-21.743 101.055-24.0139Q101.509-26.2848 101.509-28.6316ZM100.23-53.7468Q101.499-52.5101 103.357-52.5589Q105.215-52.6077 106.622-54.0138L114.626-62.0003Q116.072-63.446 116.096-65.2645Q116.121-67.083 114.844-68.3601Q113.606-69.6381 111.773-69.6289Q109.939-69.6198 108.492-68.174L100.479-60.1784Q99.0417-58.7326 98.9975-56.8741Q98.9532-55.0156 100.23-53.7468ZM43.4265-54.0138Q44.8334-52.6077 46.7117-52.5589Q48.5901-52.5101 49.8184-53.7468Q51.0559-55.0156 51.0315-56.8741Q51.0071-58.7326 49.5697-60.1784L41.5565-68.174Q40.11-69.6198 38.2961-69.6289Q36.4822-69.6381 35.2051-68.3601Q33.9279-67.1234 33.9523-65.2847Q33.9767-63.446 35.4225-62.0003ZM75.0488-64.2052Q76.8097-64.2052 78.0869-65.5556Q79.364-66.906 79.364-68.9163L79.364-80.2338Q79.364-82.2609 78.0869-83.5827Q76.8097-84.9045 75.0488-84.9045Q73.2391-84.9045 71.962-83.5827Q70.6848-82.2609 70.6848-80.2338L70.6848-68.9163Q70.6848-66.906 71.962-65.5354Q73.2391-64.1647 75.0488-64.2052ZM23.3719-26.0773L34.6893-26.0681Q36.7081-26.0681 38.0543-27.3499Q39.4005-28.6316 39.4005-30.4016Q39.36-32.2105 38.0341-33.4881Q36.7081-34.7656 34.6893-34.7656L23.3719-34.7656Q21.3531-34.7656 20.0272-33.4881Q18.7012-32.2105 18.7012-30.4016Q18.7012-28.6316 20.0317-27.3544Q21.3623-26.0773 23.3719-26.0773ZM115.359-26.0773L126.677-26.0773Q128.704-26.0773 130.026-27.3544Q131.348-28.6316 131.348-30.4016Q131.348-32.2105 130.026-33.4881Q128.704-34.7656 126.677-34.7656L115.359-34.7656Q113.39-34.7656 112.019-33.4881Q110.648-32.2105 110.648-30.4016Q110.689-28.6316 112.044-27.3544Q113.399-26.0773 115.359-26.0773Z"/>
   <path class="multicolor-1:white hierarchical-1:primary SFSymbolsPreviewFFFFFF" d="M17.2966-4.24423L132.752-4.24423Q134.724-4.24423 136.161-5.61142Q137.598-6.97861 137.598-8.85315Q137.598-10.7552 136.166-12.1292Q134.734-13.5033 132.752-13.5033L17.2966-13.5033Q15.3244-13.5033 13.8878-12.1204Q12.4512-10.7376 12.4512-8.85315Q12.4512-6.99615 13.892-5.62019Q15.3328-4.24423 17.2966-4.24423Z"/>
  </g>
  <g id="Regular-M" transform="matrix(1 0 0 1 1374.82 1126)">
   <path class="multicolor-0:systemYellowColor hierarchical-0:secondary SFSymbolsPreviewFFCC00" d="M101.465-28.7109Q101.465-34.1309 99.3896-38.916Q97.3145-43.7012 93.6768-47.3633Q90.0391-51.0254 85.2539-53.125Q80.4688-55.2246 75.0488-55.2246Q69.5801-55.2246 64.7949-53.125Q60.0098-51.0254 56.3721-47.3633Q52.7344-43.7012 50.6592-38.916Q48.584-34.1309 48.584-28.7109Q48.584-26.0742 49.1211-23.5352Q49.6582-20.9961 50.6836-18.7012L99.3652-18.7012Q100.391-20.9961 100.928-23.5352Q101.465-26.0742 101.465-28.7109ZM100.195-53.8086Q101.367-52.6855 103.076-52.7344Q104.785-52.7832 106.104-54.1016L114.6-62.5977Q115.967-63.9648 115.991-65.625Q116.016-67.2852 114.844-68.457Q113.721-69.6289 112.036-69.6289Q110.352-69.6289 108.984-68.2617L100.488-59.7656Q99.1211-58.3984 99.0723-56.6895Q99.0234-54.9805 100.195-53.8086ZM43.9453-54.1016Q45.2637-52.7832 46.9971-52.7344Q48.7305-52.6855 49.8535-53.8086Q50.9766-54.9805 50.9521-56.6895Q50.9277-58.3984 49.5605-59.7656L41.0645-68.2617Q39.6973-69.6289 38.0371-69.6289Q36.377-69.6289 35.2051-68.457Q34.0332-67.334 34.0576-65.6494Q34.082-63.9648 35.4492-62.5977ZM75.0488-64.2578Q76.6602-64.2578 77.832-65.5029Q79.0039-66.748 79.0039-68.6523L79.0039-80.6641Q79.0039-82.5684 77.832-83.7891Q76.6602-85.0098 75.0488-85.0098Q73.3887-85.0098 72.2168-83.7891Q71.0449-82.5684 71.0449-80.6641L71.0449-68.6523Q71.0449-66.748 72.2168-65.4785Q73.3887-64.209 75.0488-64.2578ZM23.0469-25.9277L35.0586-25.9277Q36.9629-25.9277 38.208-27.0996Q39.4531-28.2715 39.4531-29.8828Q39.4043-31.543 38.1836-32.7148Q36.9629-33.8867 35.0586-33.8867L23.0469-33.8867Q21.1426-33.8867 19.9219-32.7148Q18.7012-31.543 18.7012-29.8828Q18.7012-28.2715 19.9219-27.0996Q21.1426-25.9277 23.0469-25.9277ZM114.99-25.9277L127.002-25.9277Q128.906-25.9277 130.127-27.0996Q131.348-28.2715 131.348-29.8828Q131.348-31.543 130.127-32.7148Q128.906-33.8867 127.002-33.8867L114.99-33.8867Q113.135-33.8867 111.865-32.7148Q110.596-31.543 110.596-29.8828Q110.645-28.2715 111.89-27.0996Q113.135-25.9277 114.99-25.9277Z"/>
   <path class="multicolor-1:white hierarchical-1:primary SFSymbolsPreviewFFFFFF" d="M16.6992-5.17578L133.35-5.17578Q135.059-5.17578 136.328-6.32324Q137.598-7.4707 137.598-9.08203Q137.598-10.6934 136.328-11.8652Q135.059-13.0371 133.35-13.0371L16.6992-13.0371Q14.9902-13.0371 13.7207-11.8652Q12.4512-10.6934 12.4512-9.08203Q12.4512-7.4707 13.7207-6.32324Q14.9902-5.17578 16.6992-5.17578Z"/>
  </g>
  <g id="Light-M" transform="matrix(1 0 0 1 1078.11 1126)">
   <path class="multicolor-0:systemYellowColor hierarchical-0:secondary SFSymbolsPreviewFFCC00" d="M100.965-28.4836Q100.965-33.8127 98.9353-38.5071Q96.9055-43.2014 93.3361-46.788Q89.7667-50.3746 85.0723-52.4288Q80.378-54.483 75.0488-54.483Q69.6709-54.483 64.9765-52.4288Q60.2821-50.3746 56.7127-46.788Q53.1433-43.2014 51.1135-38.5071Q49.0837-33.8127 49.0837-28.4836Q49.0837-25.4539 49.8024-22.6044Q50.5211-19.7548 51.8646-17.2333L98.1842-17.2333Q99.5277-19.7548 100.246-22.6044Q100.965-25.4539 100.965-28.4836ZM100.195-53.5812Q101.08-52.7313 102.38-52.7649Q103.68-52.7985 104.65-53.7537L114.706-63.8084Q115.739-64.843 115.741-66.0942Q115.743-67.3454 114.844-68.2297Q114.008-69.1139 112.732-69.1368Q111.456-69.1597 110.423-68.1252L100.367-58.0704Q99.3782-57.0663 99.3446-55.7659Q99.3111-54.4655 100.195-53.5812ZM45.3987-53.7537Q46.3684-52.7985 47.6856-52.7649Q49.0028-52.7313 49.8535-53.5812Q50.7042-54.4655 50.6874-55.7659Q50.6706-57.0663 49.6819-58.0704L39.6263-68.1252Q38.5925-69.1597 37.3333-69.1368Q36.0741-69.1139 35.2051-68.2297Q34.3056-67.3798 34.3075-66.1114Q34.3094-64.843 35.3432-63.8084ZM75.0488-64.016Q76.2665-64.016 77.1584-64.9582Q78.0502-65.9004 78.0502-67.305L78.0502-81.5269Q78.0502-82.9315 77.1584-83.8497Q76.2665-84.7679 75.0488-84.7679Q73.7823-84.7679 72.8905-83.8497Q71.9986-82.9315 71.9986-81.5269L71.9986-67.305Q71.9986-65.9004 72.8905-64.941Q73.7823-63.9816 75.0488-64.016ZM21.9421-26.6388L36.1633-26.6388Q37.5984-26.6388 38.5258-27.5383Q39.4531-28.4378 39.4531-29.6555Q39.4196-30.9074 38.5014-31.8066Q37.5832-32.7057 36.1633-32.7057L21.9421-32.7057Q20.5521-32.7057 19.6266-31.8066Q18.7012-30.9074 18.7012-29.6555Q18.7012-28.4378 19.6266-27.5383Q20.5521-26.6388 21.9421-26.6388ZM113.885-26.6388L128.107-26.6388Q129.512-26.6388 130.43-27.5383Q131.348-28.4378 131.348-29.6555Q131.348-30.9074 130.43-31.8066Q129.512-32.7057 128.107-32.7057L113.885-32.7057Q112.514-32.7057 111.555-31.8066Q110.596-30.9074 110.596-29.6555Q110.629-28.4378 111.572-27.5383Q112.514-26.6388 113.885-26.6388Z"/>
   <path class="multicolor-1:white hierarchical-1:primary SFSymbolsPreviewFFFFFF" d="M15.715-6.20499L134.334-6.20499Q135.649-6.20499 136.623-7.08008Q137.598-7.95517 137.598-9.18808Q137.598-10.421 136.623-11.3129Q135.649-12.2047 134.334-12.2047L15.715-12.2047Q14.3997-12.2047 13.4254-11.3129Q12.4512-10.421 12.4512-9.18808Q12.4512-7.95517 13.4254-7.08008Q14.3997-6.20499 15.715-6.20499Z"/>
  </g>
  <g id="Thin-M" transform="matrix(1 0 0 1 781.398 1126)">
   <path class="multicolor-0:systemYellowColor hierarchical-0:secondary SFSymbolsPreviewFFCC00" d="M100.304-28.1837Q100.304-33.3923 98.3349-37.9665Q96.3654-42.5407 92.886-46.0274Q89.4066-49.514 84.8324-51.5079Q80.2582-53.5019 75.0488-53.5019Q69.7906-53.5019 65.2164-51.5079Q60.6422-49.514 57.1629-46.0274Q53.6835-42.5407 51.7139-37.9665Q49.7444-33.3923 49.7444-28.1837Q49.7444-24.633 50.703-21.3734Q51.6617-18.1137 53.4256-15.2908L96.6232-15.2908Q98.3871-18.1137 99.3458-21.3734Q100.304-24.633 100.304-28.1837ZM100.195-53.2814Q100.7-52.7908 101.459-52.8046Q102.219-52.8183 102.729-53.2928L114.846-65.4099Q115.44-66.0042 115.411-66.7149Q115.383-67.4255 114.844-67.9298Q114.388-68.4334 113.653-68.4864Q112.918-68.5394 112.324-67.9451L100.207-55.8281Q99.7185-55.3047 99.7047-54.5448Q99.691-53.7849 100.195-53.2814ZM47.3206-53.2928Q47.8302-52.8183 48.5966-52.8046Q49.3629-52.7908 49.8535-53.2814Q50.3441-53.7849 50.3372-54.5448Q50.3304-55.3047 49.8421-55.8281L37.7251-67.9451Q37.1307-68.5394 36.4021-68.4864Q35.6735-68.4334 35.2051-67.9298Q34.6657-67.4393 34.6375-66.7217Q34.6092-66.0042 35.2028-65.4099ZM75.0488-63.6955Q75.7462-63.6955 76.2676-64.2376Q76.7891-64.7797 76.7891-65.5235L76.7891-82.6675Q76.7891-83.4122 76.2676-83.9298Q75.7462-84.4475 75.0488-84.4475Q74.3027-84.4475 73.7812-83.9298Q73.2597-83.4122 73.2597-82.6675L73.2597-65.5235Q73.2597-64.7797 73.7812-64.2307Q74.3027-63.6818 75.0488-63.6955ZM20.4803-27.5803L37.6251-27.5803Q38.4392-27.5803 38.9462-28.1193Q39.4531-28.6583 39.4531-29.3556Q39.4394-30.0667 38.9217-30.6057Q38.4041-31.1447 37.6251-31.1447L20.4803-31.1447Q19.7716-31.1447 19.2364-30.6057Q18.7012-30.0667 18.7012-29.3556Q18.7012-28.6583 19.2364-28.1193Q19.7716-27.5803 20.4803-27.5803ZM112.424-27.5803L129.568-27.5803Q130.312-27.5803 130.83-28.1193Q131.348-28.6583 131.348-29.3556Q131.348-30.0667 130.83-30.6057Q130.312-31.1447 129.568-31.1447L112.424-31.1447Q111.694-31.1447 111.145-30.6057Q110.596-30.0667 110.596-29.3556Q110.609-28.6583 111.152-28.1193Q111.694-27.5803 112.424-27.5803Z"/>
   <path class="multicolor-1:white hierarchical-1:primary SFSymbolsPreviewFFFFFF" d="M14.4142-7.56607L135.635-7.56607Q136.43-7.56607 137.014-8.08105Q137.598-8.59604 137.598-9.32846Q137.598-10.0609 137.014-10.5824Q136.43-11.1038 135.635-11.1038L14.4142-11.1038Q13.6192-11.1038 13.0352-10.5824Q12.4512-10.0609 12.4512-9.32846Q12.4512-8.59604 13.0352-8.08105Q13.6192-7.56607 14.4142-7.56607Z"/>
  </g>
  <g id="Ultralight-M" transform="matrix(1 0 0 1 484.687 1126)">
   <path class="multicolor-0:systemYellowColor hierarchical-0:secondary SFSymbolsPreviewFFCC00" d="M99.9664-28.0296Q99.9664-33.1772 98.0274-37.69Q96.0884-42.2028 92.6552-45.6379Q89.222-49.073 84.7092-51.0365Q80.1964-52.9999 75.0488-52.9999Q69.8524-52.9999 65.3397-51.0365Q60.8269-49.073 57.3936-45.6379Q53.9604-42.2028 52.0214-37.69Q50.0824-33.1772 50.0824-28.0296Q50.0824-24.2126 51.1646-20.7424Q52.2469-17.2722 54.2259-14.2967L95.8229-14.2967Q97.802-17.2722 98.8842-20.7424Q99.9664-24.2126 99.9664-28.0296ZM100.195-53.1273Q100.504-52.8221 100.987-52.8255Q101.47-52.829 101.744-53.0571L114.918-66.2308Q115.285-66.5985 115.242-67.0326Q115.199-67.4667 114.844-67.7757Q114.584-68.0847 114.125-68.153Q113.667-68.2213 113.298-67.8528L100.125-54.6799Q99.8932-54.4022 99.8898-53.9192Q99.8863-53.4363 100.195-53.1273ZM48.3047-53.0571Q48.5786-52.829 49.0631-52.8255Q49.5476-52.8221 49.8535-53.1273Q50.1595-53.4363 50.1575-53.9192Q50.1556-54.4022 49.9237-54.6799L36.7508-67.8528Q36.3823-68.2213 35.9257-68.153Q35.4691-68.0847 35.2051-67.7757Q34.8503-67.4706 34.8068-67.0345Q34.7633-66.5985 35.1311-66.2308ZM75.0488-63.5315Q75.4791-63.5315 75.811-63.8683Q76.1429-64.2052 76.1429-64.6111L76.1429-83.2527Q76.1429-83.6578 75.811-83.9706Q75.4791-84.2834 75.0488-84.2834Q74.5697-84.2834 74.2378-83.9706Q73.9059-83.6578 73.9059-83.2527L73.9059-64.6111Q73.9059-64.2052 74.2378-63.8664Q74.5697-63.5277 75.0488-63.5315ZM19.7319-28.0617L38.3736-28.0617Q38.8702-28.0617 39.1617-28.4164Q39.4531-28.7712 39.4531-29.2015Q39.4501-29.6356 39.1373-29.99Q38.8245-30.3444 38.3736-30.3444L19.7319-30.3444Q19.3718-30.3444 19.0365-29.99Q18.7012-29.6356 18.7012-29.2015Q18.7012-28.7712 19.0365-28.4164Q19.3718-28.0617 19.7319-28.0617ZM111.675-28.0617L130.317-28.0617Q130.723-28.0617 131.035-28.4164Q131.348-28.7712 131.348-29.2015Q131.348-29.6356 131.035-29.99Q130.723-30.3444 130.317-30.3444L111.675-30.3444Q111.273-30.3444 110.934-29.99Q110.596-29.6356 110.596-29.2015Q110.599-28.7712 110.936-28.4164Q111.273-28.0617 111.675-28.0617Z"/>
   <path class="multicolor-1:white hierarchical-1:primary SFSymbolsPreviewFFFFFF" d="M13.7474-8.2634L136.301-8.2634Q136.829-8.2634 137.214-8.59375Q137.598-8.9241 137.598-9.40018Q137.598-9.87625 137.214-10.2077Q136.829-10.5392 136.301-10.5392L13.7474-10.5392Q13.2195-10.5392 12.8353-10.2077Q12.4512-9.87625 12.4512-9.40018Q12.4512-8.9241 12.8353-8.59375Q13.2195-8.2634 13.7474-8.2634Z"/>
  </g>
  <g id="Black-S" transform="matrix(1 0 0 1 2874.61 696)">
   <path class="multicolor-0:systemYellowColor hierarchical-0:secondary SFSymbolsPreviewFFCC00" d="M79.6875-29.7363Q79.6875-35.5957 76.8799-40.3564Q74.0723-45.1172 69.3359-47.9248Q64.5996-50.7324 58.7891-50.7324Q53.0273-50.7324 48.2666-47.9248Q43.5059-45.1172 40.6982-40.3564Q37.8906-35.5957 37.8906-29.7363Q37.8906-28.0762 38.0859-26.8555L79.4922-26.8555Q79.6875-28.0762 79.6875-29.7363ZM78.6621-49.4629Q80.0781-48.0957 82.1045-48.1445Q84.1309-48.1934 85.498-49.5605L89.9414-53.9062Q91.3574-55.3223 91.3818-57.373Q91.4062-59.4238 89.9902-60.791Q88.623-62.207 86.5967-62.1582Q84.5703-62.1094 83.1543-60.6934L78.7109-56.2988Q77.3438-54.9316 77.3193-52.9053Q77.2949-50.8789 78.6621-49.4629ZM32.0801-49.5605Q33.4961-48.1934 35.5225-48.1445Q37.5488-48.0957 38.916-49.4629Q40.332-50.8789 40.3076-52.9053Q40.2832-54.9316 38.8672-56.2988L34.4238-60.6934Q33.0078-62.1094 31.0059-62.1582Q29.0039-62.207 27.5879-60.791Q26.2207-59.4238 26.2207-57.373Q26.2207-55.3223 27.6367-53.9062ZM58.7891-57.7148Q60.791-57.7148 62.1826-59.1797Q63.5742-60.6445 63.5742-62.5977L63.5742-68.8477Q63.5742-70.8496 62.1826-72.29Q60.791-73.7305 58.7891-73.7305Q56.8359-73.7305 55.4199-72.29Q54.0039-70.8496 54.0039-68.8477L54.0039-62.5977Q54.0039-60.6445 55.4199-59.1797Q56.8359-57.7148 58.7891-57.7148ZM19.5312-28.7109L25.7812-28.6621Q27.7832-28.6621 29.2236-30.1025Q30.6641-31.543 30.6641-33.4961Q30.6641-35.498 29.2236-36.8896Q27.7832-38.2812 25.7812-38.2812L19.5312-38.2812Q17.5781-38.2812 16.1133-36.8896Q14.6484-35.498 14.6484-33.4961Q14.6484-31.543 16.1133-30.127Q17.5781-28.7109 19.5312-28.7109ZM91.7969-28.7109L98.0469-28.7109Q100.049-28.7109 101.489-30.127Q102.93-31.543 102.93-33.4961Q102.93-35.498 101.489-36.8896Q100.049-38.2812 98.0469-38.2812L91.7969-38.2812Q89.8438-38.2812 88.3789-36.8896Q86.9141-35.498 86.9141-33.4961Q86.9141-31.543 88.3789-30.127Q89.8438-28.7109 91.7969-28.7109Z"/>
   <path class="multicolor-1:white hierarchical-1:primary SFSymbolsPreviewFFFFFF" d="M15.8691-7.32422L101.709-7.32422Q104.297-7.32422 106.055-9.25293Q107.812-11.1816 107.812-13.6719Q107.812-16.2598 106.055-18.1396Q104.297-20.0195 101.709-20.0195L15.8691-20.0195Q13.3301-20.0195 11.5479-18.1152Q9.76562-16.2109 9.76562-13.6719Q9.76562-11.2793 11.5479-9.30176Q13.3301-7.32422 15.8691-7.32422Z"/>
  </g>
  <g id="Heavy-S" transform="matrix(1 0 0 1 2577.9 696)">
   <path class="multicolor-0:systemYellowColor hierarchical-0:secondary SFSymbolsPreviewFFCC00" d="M79.6989-29.8515Q79.6989-35.6766 76.8799-40.443Q74.0608-45.2095 69.3188-48.0343Q64.5767-50.8591 58.7891-50.8591Q53.0388-50.8591 48.278-48.0343Q43.5173-45.2095 40.6982-40.443Q37.8792-35.6766 37.8792-29.8515Q37.8792-27.7077 38.3392-25.9453L79.2389-25.9453Q79.6989-27.7077 79.6989-29.8515ZM78.6278-49.5667Q79.9629-48.2803 81.8684-48.3292Q83.7738-48.378 85.1059-49.7101L89.8956-54.425Q91.2651-55.7945 91.2895-57.7187Q91.3139-59.6428 89.9902-60.9291Q88.7039-62.265 86.7985-62.2219Q84.893-62.1788 83.5228-60.8086L78.7338-56.057Q77.4017-54.7241 77.3655-52.8072Q77.3293-50.8904 78.6278-49.5667ZM32.4722-49.7101Q33.8417-48.378 35.7529-48.3292Q37.664-48.2803 38.9503-49.5667Q40.274-50.9018 40.2439-52.813Q40.2138-54.7241 38.8443-56.057L34.0553-60.8086Q32.6851-62.1788 30.8041-62.2158Q28.923-62.2528 27.5879-60.9291Q26.2901-59.6428 26.2959-57.7187Q26.3016-55.7945 27.6825-54.425ZM58.7891-57.7957Q60.6644-57.8072 61.9751-59.1911Q63.2858-60.5751 63.2858-62.471L63.2858-69.2162Q63.2858-71.1494 61.9751-72.509Q60.6644-73.8686 58.7891-73.8686Q56.9511-73.8686 55.6217-72.509Q54.2923-71.1494 54.2923-69.2162L54.2923-62.471Q54.2923-60.5751 55.6217-59.1854Q56.9511-57.7957 58.7891-57.7957ZM19.3123-28.4462L26.0582-28.4088Q27.9907-28.4088 29.3621-29.7569Q30.7335-31.105 30.722-32.943Q30.7098-34.8297 29.3503-36.1347Q27.9907-37.4397 26.0582-37.4397L19.3123-37.4397Q17.4049-37.4397 16.0267-36.1347Q14.6484-34.8297 14.6484-32.943Q14.6484-31.105 16.0267-29.7756Q17.4049-28.4462 19.3123-28.4462ZM91.5199-28.4462L98.2658-28.4462Q100.21-28.4462 101.57-29.7756Q102.93-31.105 102.93-32.943Q102.93-34.8297 101.57-36.1347Q100.21-37.4397 98.2658-37.4397L91.5199-37.4397Q89.6248-37.4397 88.2347-36.1347Q86.8446-34.8297 86.8561-32.943Q86.8683-31.105 88.2465-29.7756Q89.6248-28.4462 91.5199-28.4462Z"/>
   <path class="multicolor-1:white hierarchical-1:primary SFSymbolsPreviewFFFFFF" d="M15.3275-8.23441L102.251-8.23441Q104.597-8.23441 106.205-9.95598Q107.812-11.6776 107.812-13.9137Q107.812-16.2369 106.205-17.915Q104.597-19.593 102.251-19.593L15.3275-19.593Q13.0188-19.593 11.3922-17.8963Q9.76562-16.1995 9.76562-13.9137Q9.76562-11.7516 11.3922-9.99298Q13.0188-8.23441 15.3275-8.23441Z"/>
  </g>
  <g id="Bold-S" transform="matrix(1 0 0 1 2281.19 696)">
   <path class="multicolor-0:systemYellowColor hierarchical-0:secondary SFSymbolsPreviewFFCC00" d="M79.7119-29.9805Q79.7119-35.7666 76.8799-40.5396Q74.0479-45.3125 69.2993-48.1567Q64.5508-51.001 58.7891-51.001Q53.0518-51.001 48.291-48.1567Q43.5303-45.3125 40.6982-40.5396Q37.8662-35.7666 37.8662-29.9805Q37.8662-27.2949 38.623-24.9268L78.9551-24.9268Q79.7119-27.2949 79.7119-29.9805ZM78.5889-49.6826Q79.834-48.4863 81.604-48.5352Q83.374-48.584 84.668-49.8779L89.8438-55.0049Q91.1621-56.3232 91.1865-58.1055Q91.2109-59.8877 89.9902-61.084Q88.7939-62.3291 87.0239-62.2925Q85.2539-62.2559 83.9355-60.9375L78.7598-55.7861Q77.4658-54.4922 77.417-52.6978Q77.3682-50.9033 78.5889-49.6826ZM32.9102-49.8779Q34.2285-48.584 36.0107-48.5352Q37.793-48.4863 38.9893-49.6826Q40.21-50.9277 40.1733-52.71Q40.1367-54.4922 38.8184-55.7861L33.6426-60.9375Q32.3242-62.2559 30.5786-62.2803Q28.833-62.3047 27.5879-61.084Q26.3672-59.8877 26.3794-58.1055Q26.3916-56.3232 27.7344-55.0049ZM58.7891-57.8857Q60.5225-57.9102 61.7432-59.2041Q62.9639-60.498 62.9639-62.3291L62.9639-69.6289Q62.9639-71.4844 61.7432-72.7539Q60.5225-74.0234 58.7891-74.0234Q57.0801-74.0234 55.8472-72.7539Q54.6143-71.4844 54.6143-69.6289L54.6143-62.3291Q54.6143-60.498 55.8472-59.1919Q57.0801-57.8857 58.7891-57.8857ZM19.0674-28.1494L26.3672-28.125Q28.2227-28.125 29.5166-29.3701Q30.8105-30.6152 30.7861-32.3242Q30.7617-34.082 29.4922-35.2905Q28.2227-36.499 26.3672-36.499L19.0674-36.499Q17.2119-36.499 15.9302-35.2905Q14.6484-34.082 14.6484-32.3242Q14.6484-30.6152 15.9302-29.3823Q17.2119-28.1494 19.0674-28.1494ZM91.2109-28.1494L98.5107-28.1494Q100.391-28.1494 101.66-29.3823Q102.93-30.6152 102.93-32.3242Q102.93-34.082 101.66-35.2905Q100.391-36.499 98.5107-36.499L91.2109-36.499Q89.3799-36.499 88.0737-35.2905Q86.7676-34.082 86.792-32.3242Q86.8164-30.6152 88.0981-29.3823Q89.3799-28.1494 91.2109-28.1494Z"/>
   <path class="multicolor-1:white hierarchical-1:primary SFSymbolsPreviewFFFFFF" d="M14.7217-9.25293L102.856-9.25293Q104.932-9.25293 106.372-10.7422Q107.812-12.2314 107.812-14.1846Q107.812-16.2109 106.372-17.6636Q104.932-19.1162 102.856-19.1162L14.7217-19.1162Q12.6709-19.1162 11.2183-17.6514Q9.76562-16.1865 9.76562-14.1846Q9.76562-12.2803 11.2183-10.7666Q12.6709-9.25293 14.7217-9.25293Z"/>
  </g>
  <g id="Semibold-S" transform="matrix(1 0 0 1 1984.48 696)">
   <path class="multicolor-0:systemYellowColor hierarchical-0:secondary SFSymbolsPreviewFFCC00" d="M79.7211-30.069Q79.7211-35.8292 76.8799-40.6063Q74.0387-45.3835 69.286-48.241Q64.5332-51.0986 58.7891-51.0986Q53.0609-51.0986 48.3002-48.241Q43.5394-45.3835 40.6982-40.6063Q37.8571-35.8292 37.8571-30.069Q37.8571-27.0103 38.8184-24.2249L78.7598-24.2249Q79.7211-27.0103 79.7211-30.069ZM78.5622-49.7627Q79.7455-48.6282 81.422-48.6771Q83.0986-48.7259 84.3658-49.9931L89.8079-55.4047Q91.0912-56.6879 91.1156-58.3721Q91.14-60.0563 89.9902-61.1908Q88.8565-62.3734 87.1796-62.3413Q85.5026-62.3093 84.2201-61.026L78.7773-55.5992Q77.5101-54.332 77.4525-52.6222Q77.3949-50.9125 78.5622-49.7627ZM33.2123-49.9931Q34.4948-48.7259 36.1881-48.6771Q37.8815-48.6282 39.016-49.7627Q40.1657-50.9453 40.1245-52.6386Q40.0833-54.332 38.8008-55.5992L33.358-61.026Q32.0755-62.3093 30.423-62.3249Q28.7704-62.3405 27.5879-61.1908Q26.4206-60.0563 26.4374-58.3721Q26.4542-56.6879 27.7702-55.4047ZM58.7891-57.9483Q60.4248-57.9811 61.5833-59.2129Q62.7419-60.4446 62.7419-62.2314L62.7419-69.9135Q62.7419-71.7155 61.5833-72.9229Q60.4248-74.1302 58.7891-74.1302Q57.1686-74.1302 56.0024-72.9229Q54.8363-71.7155 54.8363-69.9135L54.8363-62.2314Q54.8363-60.4446 56.0024-59.1965Q57.1686-57.9483 58.7891-57.9483ZM18.8988-27.9449L26.5808-27.9297Q28.3829-27.9297 29.6234-29.1035Q30.864-30.2773 30.8304-31.8977Q30.7976-33.5663 29.5902-34.7084Q28.3829-35.8505 26.5808-35.8505L18.8988-35.8505Q17.0784-35.8505 15.8634-34.7084Q14.6484-33.5663 14.6484-31.8977Q14.6484-30.2773 15.8634-29.1111Q17.0784-27.9449 18.8988-27.9449ZM90.9973-27.9449L98.6794-27.9449Q100.515-27.9449 101.722-29.1111Q102.93-30.2773 102.93-31.8977Q102.93-33.5663 101.722-34.7084Q100.515-35.8505 98.6794-35.8505L90.9973-35.8505Q89.2113-35.8505 87.9627-34.7084Q86.7142-33.5663 86.7477-31.8977Q86.7805-30.2773 87.9959-29.1111Q89.2113-27.9449 90.9973-27.9449Z"/>
   <path class="multicolor-1:white hierarchical-1:primary SFSymbolsPreviewFFFFFF" d="M14.3044-9.95483L103.274-9.95483Q105.163-9.95483 106.488-11.2843Q107.812-12.6137 107.812-14.3715Q107.812-16.1934 106.488-17.4904Q105.163-18.7874 103.274-18.7874L14.3044-18.7874Q12.4306-18.7874 11.0981-17.4824Q9.76562-16.1774 9.76562-14.3715Q9.76562-12.645 11.0981-11.2999Q12.4306-9.95483 14.3044-9.95483Z"/>
  </g>
  <g id="Medium-S" transform="matrix(1 0 0 1 1687.77 696)">
   <path class="multicolor-0:systemYellowColor hierarchical-0:secondary SFSymbolsPreviewFFCC00" d="M79.7272-30.1369Q79.7272-35.8757 76.8799-40.6567Q74.0326-45.4376 69.276-48.3051Q64.5195-51.1726 58.7891-51.1726Q53.067-51.1726 48.3063-48.3051Q43.5455-45.4376 40.6982-40.6567Q37.851-35.8757 37.851-30.1369Q37.851-26.7952 38.9671-23.6923L78.611-23.6923Q79.7272-26.7952 79.7272-30.1369ZM78.5423-49.823Q79.6776-48.7366 81.2836-48.7854Q82.8896-48.8342 84.137-50.0809L89.7812-55.7083Q91.037-56.9641 91.0614-58.5743Q91.0858-60.1845 89.9902-61.2717Q88.903-62.4069 87.2971-62.3783Q85.6911-62.3497 84.4353-61.0939L78.791-55.4581Q77.5436-54.2107 77.4792-52.5646Q77.4147-50.9186 78.5423-49.823ZM33.4412-50.0809Q34.697-48.8342 36.3232-48.7854Q37.9494-48.7366 39.0358-49.823Q40.1321-50.959 40.0875-52.5848Q40.0429-54.2107 38.7871-55.4581L33.1429-61.0939Q31.8871-62.3497 30.3055-62.3585Q28.7239-62.3672 27.5879-61.2717Q26.461-60.1845 26.4809-58.5743Q26.5007-56.9641 27.7969-55.7083ZM58.7891-57.9948Q60.3508-58.0353 61.462-59.2197Q62.5732-60.4042 62.5732-62.1574L62.5732-70.1286Q62.5732-71.8903 61.462-73.0507Q60.3508-74.2111 58.7891-74.2111Q57.2365-74.2111 56.1207-73.0507Q55.0049-71.8903 55.0049-70.1286L55.0049-62.1574Q55.0049-60.4042 56.1207-59.1995Q57.2365-57.9948 58.7891-57.9948ZM18.7706-27.7901L26.7426-27.7809Q28.5042-27.7809 29.7043-28.9013Q30.9044-30.0217 30.864-31.5742Q30.8243-33.1757 29.6642-34.267Q28.5042-35.3584 26.7426-35.3584L18.7706-35.3584Q16.9777-35.3584 15.8131-34.267Q14.6484-33.1757 14.6484-31.5742Q14.6484-30.0217 15.8131-28.9059Q16.9777-27.7901 18.7706-27.7901ZM90.8356-27.7901L98.8075-27.7901Q100.61-27.7901 101.77-28.9059Q102.93-30.0217 102.93-31.5742Q102.93-33.1757 101.77-34.267Q100.61-35.3584 98.8075-35.3584L90.8356-35.3584Q89.0831-35.3584 87.8784-34.267Q86.6737-33.1757 86.7142-31.5742Q86.7538-30.0217 87.9185-28.9059Q89.0831-27.7901 90.8356-27.7901Z"/>
   <path class="multicolor-1:white hierarchical-1:primary SFSymbolsPreviewFFFFFF" d="M13.987-10.4874L103.591-10.4874Q105.338-10.4874 106.575-11.6955Q107.812-12.9036 107.812-14.5126Q107.812-16.1797 106.575-17.3588Q105.338-18.5379 103.591-18.5379L13.987-18.5379Q12.249-18.5379 11.0073-17.3546Q9.76562-16.1713 9.76562-14.5126Q9.76562-12.9211 11.0073-11.7043Q12.249-10.4874 13.987-10.4874Z"/>
  </g>
  <g id="Regular-S" transform="matrix(1 0 0 1 1391.06 696)">
   <path class="multicolor-0:systemYellowColor hierarchical-0:secondary SFSymbolsPreviewFFCC00" d="M79.7363-30.2246Q79.7363-35.9375 76.8799-40.7227Q74.0234-45.5078 69.2627-48.3887Q64.502-51.2695 58.7891-51.2695Q53.0762-51.2695 48.3154-48.3887Q43.5547-45.5078 40.6982-40.7227Q37.8418-35.9375 37.8418-30.2246Q37.8418-26.5137 39.1602-22.998L78.418-22.998Q79.7363-26.5137 79.7363-30.2246ZM78.5156-49.9023Q79.5898-48.877 81.1035-48.9258Q82.6172-48.9746 83.8379-50.1953L89.7461-56.1035Q90.9668-57.3242 90.9912-58.8379Q91.0156-60.3516 89.9902-61.377Q88.9648-62.4512 87.4512-62.4268Q85.9375-62.4023 84.7168-61.1816L78.8086-55.2734Q77.5879-54.0527 77.5146-52.4902Q77.4414-50.9277 78.5156-49.9023ZM33.7402-50.1953Q34.9609-48.9746 36.499-48.9258Q38.0371-48.877 39.0625-49.9023Q40.0879-50.9766 40.0391-52.5146Q39.9902-54.0527 38.7695-55.2734L32.8613-61.1816Q31.6406-62.4023 30.1514-62.4023Q28.6621-62.4023 27.5879-61.377Q26.5137-60.3516 26.5381-58.8379Q26.5625-57.3242 27.832-56.1035ZM58.7891-58.0566Q60.2539-58.1055 61.3037-59.2285Q62.3535-60.3516 62.3535-62.0605L62.3535-70.4102Q62.3535-72.1191 61.3037-73.2178Q60.2539-74.3164 58.7891-74.3164Q57.3242-74.3164 56.2744-73.2178Q55.2246-72.1191 55.2246-70.4102L55.2246-62.0605Q55.2246-60.3516 56.2744-59.2041Q57.3242-58.0566 58.7891-58.0566ZM18.6035-27.5879L26.9531-27.5879Q28.6621-27.5879 29.8096-28.6377Q30.957-29.6875 30.9082-31.1523Q30.8594-32.666 29.7607-33.6914Q28.6621-34.7168 26.9531-34.7168L18.6035-34.7168Q16.8457-34.7168 15.7471-33.6914Q14.6484-32.666 14.6484-31.1523Q14.6484-29.6875 15.7471-28.6377Q16.8457-27.5879 18.6035-27.5879ZM90.625-27.5879L98.9746-27.5879Q100.732-27.5879 101.831-28.6377Q102.93-29.6875 102.93-31.1523Q102.93-32.666 101.831-33.6914Q100.732-34.7168 98.9746-34.7168L90.625-34.7168Q88.916-34.7168 87.7686-33.6914Q86.6211-32.666 86.6699-31.1523Q86.7188-29.6875 87.8174-28.6377Q88.916-27.5879 90.625-27.5879Z"/>
   <path class="multicolor-1:white hierarchical-1:primary SFSymbolsPreviewFFFFFF" d="M13.5742-11.1816L104.004-11.1816Q105.566-11.1816 106.689-12.2314Q107.812-13.2812 107.812-14.6973Q107.812-16.1621 106.689-17.1875Q105.566-18.2129 104.004-18.2129L13.5742-18.2129Q12.0117-18.2129 10.8887-17.1875Q9.76562-16.1621 9.76562-14.6973Q9.76562-13.2812 10.8887-12.2314Q12.0117-11.1816 13.5742-11.1816Z"/>
  </g>
  <g id="Light-S" transform="matrix(1 0 0 1 1094.34 696)">
   <path class="multicolor-0:systemYellowColor hierarchical-0:secondary SFSymbolsPreviewFFCC00" d="M79.2976-30.0278Q79.2976-35.6346 76.5091-40.3065Q73.7206-44.9783 69.0582-47.7909Q64.3959-50.6035 58.7891-50.6035Q53.1822-50.6035 48.5199-47.7909Q43.8576-44.9783 41.069-40.3065Q38.2805-35.6346 38.2805-30.0278Q38.2805-25.6355 40.1894-21.6965L77.3888-21.6965Q79.2976-25.6355 79.2976-30.0278ZM78.5156-49.7055Q79.3327-48.9227 80.4905-48.9563Q81.6483-48.9899 82.5516-49.8924L89.8369-57.1785Q90.77-58.0963 90.7791-59.2468Q90.7883-60.3973 89.9902-61.1801Q89.222-61.9972 88.0642-61.9877Q86.9064-61.9781 85.9886-61.0603L78.7025-53.775Q77.8-52.8717 77.7493-51.6804Q77.6985-50.489 78.5156-49.7055ZM35.0266-49.8924Q35.9299-48.9899 37.1044-48.9563Q38.279-48.9227 39.0625-49.7055Q39.846-50.5226 39.8121-51.6972Q39.7781-52.8717 38.8756-53.775L31.5895-61.0603Q30.6717-61.9781 29.5307-61.9709Q28.3897-61.9637 27.5879-61.1801Q26.7555-60.3973 26.7651-59.2468Q26.7746-58.0963 27.7412-57.1785ZM58.7891-57.8598Q59.906-57.8934 60.7136-58.744Q61.5211-59.5947 61.5211-60.865L61.5211-71.167Q61.5211-72.4518 60.7136-73.2857Q59.906-74.1196 58.7891-74.1196Q57.6721-74.1196 56.8645-73.2857Q56.057-72.4518 56.057-71.167L56.057-60.865Q56.057-59.5947 56.8645-58.7273Q57.6721-57.8598 58.7891-57.8598ZM17.6346-28.2234L27.9221-28.2234Q29.2221-28.2234 30.0819-29.031Q30.9418-29.8386 30.9082-30.9555Q30.8746-32.106 30.0407-32.8968Q29.2068-33.6876 27.9221-33.6876L17.6346-33.6876Q16.3162-33.6876 15.4823-32.8968Q14.6484-32.106 14.6484-30.9555Q14.6484-29.8386 15.4823-29.031Q16.3162-28.2234 17.6346-28.2234ZM89.6561-28.2234L99.9435-28.2234Q101.262-28.2234 102.096-29.031Q102.93-29.8386 102.93-30.9555Q102.93-32.106 102.096-32.8968Q101.262-33.6876 99.9435-33.6876L89.6561-33.6876Q88.3713-33.6876 87.5038-32.8968Q86.6364-32.106 86.6699-30.9555Q86.7035-29.8386 87.5374-29.031Q88.3713-28.2234 89.6561-28.2234Z"/>
   <path class="multicolor-1:white hierarchical-1:primary SFSymbolsPreviewFFFFFF" d="M12.7113-12.0895L104.867-12.0895Q106.081-12.0895 106.947-12.8899Q107.812-13.6902 107.812-14.7881Q107.812-15.9203 106.947-16.7034Q106.081-17.4866 104.867-17.4866L12.7113-17.4866Q11.4967-17.4866 10.6312-16.7034Q9.76562-15.9203 9.76562-14.7881Q9.76562-13.6902 10.6312-12.8899Q11.4967-12.0895 12.7113-12.0895Z"/>
  </g>
  <g id="Thin-S" transform="matrix(1 0 0 1 797.633 696)">
   <path class="multicolor-0:systemYellowColor hierarchical-0:secondary SFSymbolsPreviewFFCC00" d="M78.717-29.7676Q78.717-35.2341 76.0185-39.7556Q73.32-44.2772 68.7878-47.0001Q64.2555-49.7231 58.7891-49.7231Q53.3226-49.7231 48.7904-47.0001Q44.2581-44.2772 41.5596-39.7556Q38.8611-35.2341 38.8611-29.7676Q38.8611-24.4743 41.5504-19.9745L76.0277-19.9745Q78.717-24.4743 78.717-29.7676ZM78.5156-49.4453Q78.9925-48.9822 79.6799-48.996Q80.3673-49.0097 80.8495-49.4919L89.9567-58.5999Q90.5098-59.1171 90.4991-59.787Q90.4884-60.4568 89.9902-60.92Q89.5622-61.3968 88.8748-61.4075Q88.1874-61.4182 87.6701-60.9001L78.5622-51.7929Q78.08-51.3107 78.0594-50.6096Q78.0388-49.9084 78.5156-49.4453ZM36.7287-49.4919Q37.2108-49.0097 37.9051-48.996Q38.5994-48.9822 39.0625-49.4453Q39.5256-49.9222 39.5119-50.6165Q39.4981-51.3107 39.016-51.7929L29.908-60.9001Q29.3907-61.4182 28.7102-61.4006Q28.0296-61.3831 27.5879-60.92Q27.076-60.4568 27.0653-59.787Q27.0546-59.1171 27.6215-58.5999ZM58.7891-57.5996Q59.4452-57.6134 59.9327-58.1036Q60.4202-58.5938 60.4202-59.2834L60.4202-72.168Q60.4202-72.8928 59.9327-73.3761Q59.4452-73.8594 58.7891-73.8594Q58.1329-73.8594 57.6454-73.3761Q57.1579-72.8928 57.1579-72.168L57.1579-59.2834Q57.1579-58.5938 57.6454-58.0967Q58.1329-57.5996 58.7891-57.5996ZM16.3536-29.0642L29.203-29.0642Q29.9629-29.0642 30.4424-29.5517Q30.9219-30.0392 30.9082-30.6953Q30.8945-31.3652 30.4111-31.8459Q29.9278-32.3265 29.203-32.3265L16.3536-32.3265Q15.6151-32.3265 15.1318-31.8459Q14.6484-31.3652 14.6484-30.6953Q14.6484-30.0392 15.1318-29.5517Q15.6151-29.0642 16.3536-29.0642ZM88.3751-29.0642L101.225-29.0642Q101.963-29.0642 102.446-29.5517Q102.93-30.0392 102.93-30.6953Q102.93-31.3652 102.446-31.8459Q101.963-32.3265 101.225-32.3265L88.3751-32.3265Q87.6503-32.3265 87.1532-31.8459Q86.6562-31.3652 86.6699-30.6953Q86.6837-30.0392 87.167-29.5517Q87.6503-29.0642 88.3751-29.0642Z"/>
   <path class="multicolor-1:white hierarchical-1:primary SFSymbolsPreviewFFFFFF" d="M11.5707-13.2912L106.007-13.2912Q106.762-13.2912 107.287-13.7608Q107.812-14.2303 107.812-14.9078Q107.812-15.5998 107.287-16.0625Q106.762-16.5253 106.007-16.5253L11.5707-16.5253Q10.8162-16.5253 10.2909-16.0625Q9.76562-15.5998 9.76562-14.9078Q9.76562-14.2303 10.2909-13.7608Q10.8162-13.2912 11.5707-13.2912Z"/>
  </g>
  <g id="Ultralight-S" transform="matrix(1 0 0 1 500.922 696)">
   <path class="multicolor-0:systemYellowColor hierarchical-0:secondary SFSymbolsPreviewFFCC00" d="M78.4195-29.6341Q78.4195-35.0296 75.7675-39.4741Q73.1155-43.9186 68.6497-46.595Q64.1838-49.2714 58.7891-49.2714Q53.3943-49.2714 48.9285-46.595Q44.4626-43.9186 41.8106-39.4741Q39.1586-35.0296 39.1586-29.6341Q39.1586-23.88 42.2478-19.0926L75.3304-19.0926Q78.4195-23.88 78.4195-29.6341ZM78.5156-49.3118Q78.8177-49.0135 79.2645-49.017Q79.7112-49.0204 79.9782-49.2874L90.0185-59.3277Q90.3763-59.6405 90.3553-60.0643Q90.3343-60.4881 89.9902-60.7864Q89.7369-61.0886 89.2902-61.1095Q88.8435-61.1305 88.5315-60.8185L78.4904-50.7782Q78.2234-50.5104 78.2185-50.0607Q78.2135-49.6109 78.5156-49.3118ZM37.5999-49.2874Q37.867-49.0204 38.3152-49.017Q38.7634-49.0135 39.0625-49.3118Q39.3616-49.614 39.3581-50.0622Q39.3547-50.5104 39.0877-50.7782L29.0466-60.8185Q28.7346-61.1305 28.2898-61.108Q27.845-61.0855 27.5879-60.7864Q27.24-60.4881 27.219-60.0643Q27.198-59.6405 27.5597-59.3277ZM58.7891-57.4661Q59.2094-57.4699 59.5325-57.7755Q59.8557-58.0811 59.8557-58.4732L59.8557-72.6807Q59.8557-73.1178 59.5325-73.4219Q59.2094-73.7259 58.7891-73.7259Q58.3687-73.7259 58.0456-73.4219Q57.7225-73.1178 57.7225-72.6807L57.7225-58.4732Q57.7225-58.0811 58.0456-57.7736Q58.3687-57.4661 58.7891-57.4661ZM15.6975-29.4952L29.8592-29.4952Q30.3421-29.4952 30.6267-29.8183Q30.9113-30.1414 30.9082-30.5618Q30.9052-30.986 30.6011-31.3076Q30.2971-31.6292 29.8592-31.6292L15.6975-31.6292Q15.2565-31.6292 14.9525-31.3076Q14.6484-30.986 14.6484-30.5618Q14.6484-30.1414 14.9525-29.8183Q15.2565-29.4952 15.6975-29.4952ZM87.719-29.4952L101.881-29.4952Q102.322-29.4952 102.626-29.8183Q102.93-30.1414 102.93-30.5618Q102.93-30.986 102.626-31.3076Q102.322-31.6292 101.881-31.6292L87.719-31.6292Q87.281-31.6292 86.974-31.3076Q86.6669-30.986 86.6699-30.5618Q86.673-30.1414 86.977-29.8183Q87.281-29.4952 87.719-29.4952Z"/>
   <path class="multicolor-1:white hierarchical-1:primary SFSymbolsPreviewFFFFFF" d="M10.9856-13.9061L106.593-13.9061Q107.111-13.9061 107.462-14.2067Q107.812-14.5073 107.812-14.9696Q107.812-15.4358 107.462-15.7345Q107.111-16.0332 106.593-16.0332L10.9856-16.0332Q10.4675-16.0332 10.1166-15.7345Q9.76562-15.4358 9.76562-14.9696Q9.76562-14.5073 10.1166-14.2067Q10.4675-13.9061 10.9856-13.9061Z"/>
  </g>
 </g>
</svg>
