<?xml version="1.0" encoding="UTF-8"?>
<!--Generator: Apple Native CoreSVG 175-->
<!DOCTYPE svg
PUBLIC "-//W3C//DTD SVG 1.1//EN"
       "http://www.w3.org/Graphics/SVG/1.1/DTD/svg11.dtd">
<svg version="1.1" xmlns="http://www.w3.org/2000/svg" xmlns:xlink="http://www.w3.org/1999/xlink" width="3300" height="2200">
 <!--glyph: "uni100C01.medium", point size: 100.0, font version: "17.0d11e1", template writer version: "65.1"-->
 <g id="Notes">
  <rect height="2200" id="artboard" style="fill:white;opacity:1" width="3300" x="0" y="0"/>
  <line style="fill:none;stroke:black;opacity:1;stroke-width:0.5;" x1="263" x2="3036" y1="292" y2="292"/>
  <text style="stroke:none;fill:black;font-family:sans-serif;font-size:13;font-weight:bold;" transform="matrix(1 0 0 1 263 322)">Weight/Scale Variations</text>
  <text style="stroke:none;fill:black;font-family:sans-serif;font-size:13;text-anchor:middle;" transform="matrix(1 0 0 1 559.711 322)">Ultralight</text>
  <text style="stroke:none;fill:black;font-family:sans-serif;font-size:13;text-anchor:middle;" transform="matrix(1 0 0 1 856.422 322)">Thin</text>
  <text style="stroke:none;fill:black;font-family:sans-serif;font-size:13;text-anchor:middle;" transform="matrix(1 0 0 1 1153.13 322)">Light</text>
  <text style="stroke:none;fill:black;font-family:sans-serif;font-size:13;text-anchor:middle;" transform="matrix(1 0 0 1 1449.84 322)">Regular</text>
  <text style="stroke:none;fill:black;font-family:sans-serif;font-size:13;text-anchor:middle;" transform="matrix(1 0 0 1 1746.56 322)">Medium</text>
  <text style="stroke:none;fill:black;font-family:sans-serif;font-size:13;text-anchor:middle;" transform="matrix(1 0 0 1 2043.27 322)">Semibold</text>
  <text style="stroke:none;fill:black;font-family:sans-serif;font-size:13;text-anchor:middle;" transform="matrix(1 0 0 1 2339.98 322)">Bold</text>
  <text style="stroke:none;fill:black;font-family:sans-serif;font-size:13;text-anchor:middle;" transform="matrix(1 0 0 1 2636.69 322)">Heavy</text>
  <text style="stroke:none;fill:black;font-family:sans-serif;font-size:13;text-anchor:middle;" transform="matrix(1 0 0 1 2933.4 322)">Black</text>
  <line style="fill:none;stroke:black;opacity:1;stroke-width:0.5;" x1="263" x2="3036" y1="1903" y2="1903"/>
  <g transform="matrix(1 0 0 1 263 1933)">
   <path d="M9.24805 0.830078Q10.8691 0.830078 12.2949 0.214844Q13.7207-0.400391 14.8096-1.49414Q15.8984-2.58789 16.5186-4.01367Q17.1387-5.43945 17.1387-7.05078Q17.1387-8.66211 16.5186-10.0879Q15.8984-11.5137 14.8047-12.6074Q13.7109-13.7012 12.2852-14.3164Q10.8594-14.9316 9.23828-14.9316Q7.62695-14.9316 6.20117-14.3164Q4.77539-13.7012 3.69141-12.6074Q2.60742-11.5137 1.9873-10.0879Q1.36719-8.66211 1.36719-7.05078Q1.36719-5.43945 1.9873-4.01367Q2.60742-2.58789 3.69629-1.49414Q4.78516-0.400391 6.21094 0.214844Q7.63672 0.830078 9.24805 0.830078ZM9.24805-0.654297Q7.91992-0.654297 6.7627-1.14746Q5.60547-1.64062 4.73145-2.51953Q3.85742-3.39844 3.36426-4.56055Q2.87109-5.72266 2.87109-7.05078Q2.87109-8.37891 3.35938-9.54102Q3.84766-10.7031 4.72168-11.582Q5.5957-12.4609 6.75293-12.9541Q7.91016-13.4473 9.23828-13.4473Q10.5762-13.4473 11.7334-12.9541Q12.8906-12.4609 13.7695-11.582Q14.6484-10.7031 15.1465-9.54102Q15.6445-8.37891 15.6445-7.05078Q15.6445-5.72266 15.1514-4.56055Q14.6582-3.39844 13.7842-2.51953Q12.9102-1.64062 11.748-1.14746Q10.5859-0.654297 9.24805-0.654297ZM5.6543-7.05078Q5.6543-6.72852 5.85938-6.52832Q6.06445-6.32812 6.40625-6.32812L8.51562-6.32812L8.51562-4.20898Q8.51562-3.88672 8.71094-3.67676Q8.90625-3.4668 9.23828-3.4668Q9.56055-3.4668 9.77051-3.67676Q9.98047-3.88672 9.98047-4.20898L9.98047-6.32812L12.0898-6.32812Q12.4219-6.32812 12.627-6.52832Q12.832-6.72852 12.832-7.05078Q12.832-7.38281 12.627-7.58789Q12.4219-7.79297 12.0898-7.79297L9.98047-7.79297L9.98047-9.90234Q9.98047-10.2344 9.77051-10.4443Q9.56055-10.6543 9.23828-10.6543Q8.90625-10.6543 8.71094-10.4443Q8.51562-10.2344 8.51562-9.90234L8.51562-7.79297L6.40625-7.79297Q6.06445-7.79297 5.85938-7.58789Q5.6543-7.38281 5.6543-7.05078Z"/>
  </g>
  <g transform="matrix(1 0 0 1 281.867 1933)">
   <path d="M11.709 2.91016Q13.75 2.91016 15.5518 2.12891Q17.3535 1.34766 18.7305-0.0292969Q20.1074-1.40625 20.8887-3.20801Q21.6699-5.00977 21.6699-7.05078Q21.6699-9.0918 20.8887-10.8936Q20.1074-12.6953 18.7305-14.0723Q17.3535-15.4492 15.5469-16.2305Q13.7402-17.0117 11.6992-17.0117Q9.6582-17.0117 7.85645-16.2305Q6.05469-15.4492 4.68262-14.0723Q3.31055-12.6953 2.5293-10.8936Q1.74805-9.0918 1.74805-7.05078Q1.74805-5.00977 2.5293-3.20801Q3.31055-1.40625 4.6875-0.0292969Q6.06445 1.34766 7.86621 2.12891Q9.66797 2.91016 11.709 2.91016ZM11.709 1.25Q9.98047 1.25 8.47656 0.605469Q6.97266-0.0390625 5.83496-1.17676Q4.69727-2.31445 4.05762-3.81836Q3.41797-5.32227 3.41797-7.05078Q3.41797-8.7793 4.05762-10.2832Q4.69727-11.7871 5.83008-12.9297Q6.96289-14.0723 8.4668-14.7119Q9.9707-15.3516 11.6992-15.3516Q13.4277-15.3516 14.9316-14.7119Q16.4355-14.0723 17.5781-12.9297Q18.7207-11.7871 19.3652-10.2832Q20.0098-8.7793 20.0098-7.05078Q20.0098-5.32227 19.3701-3.81836Q18.7305-2.31445 17.5928-1.17676Q16.4551-0.0390625 14.9463 0.605469Q13.4375 1.25 11.709 1.25ZM7.17773-7.05078Q7.17773-6.69922 7.41211-6.47461Q7.64648-6.25 8.01758-6.25L10.8887-6.25L10.8887-3.36914Q10.8887-2.99805 11.1133-2.76855Q11.3379-2.53906 11.6895-2.53906Q12.0605-2.53906 12.29-2.76855Q12.5195-2.99805 12.5195-3.36914L12.5195-6.25L15.4004-6.25Q15.7715-6.25 16.001-6.47461Q16.2305-6.69922 16.2305-7.05078Q16.2305-7.42188 16.001-7.65137Q15.7715-7.88086 15.4004-7.88086L12.5195-7.88086L12.5195-10.752Q12.5195-11.1328 12.29-11.3623Q12.0605-11.5918 11.6895-11.5918Q11.3379-11.5918 11.1133-11.3574Q10.8887-11.123 10.8887-10.752L10.8887-7.88086L8.01758-7.88086Q7.63672-7.88086 7.40723-7.65137Q7.17773-7.42188 7.17773-7.05078Z"/>
  </g>
  <g transform="matrix(1 0 0 1 305.646 1933)">
   <path d="M14.9707 5.66406Q17.0605 5.66406 18.96 5.01465Q20.8594 4.36523 22.4512 3.19336Q24.043 2.02148 25.2197 0.429688Q26.3965-1.16211 27.0459-3.06641Q27.6953-4.9707 27.6953-7.05078Q27.6953-9.14062 27.0459-11.04Q26.3965-12.9395 25.2197-14.5312Q24.043-16.123 22.4512-17.2998Q20.8594-18.4766 18.9551-19.126Q17.0508-19.7754 14.9609-19.7754Q12.8711-19.7754 10.9717-19.126Q9.07227-18.4766 7.48535-17.2998Q5.89844-16.123 4.72168-14.5312Q3.54492-12.9395 2.90039-11.04Q2.25586-9.14062 2.25586-7.05078Q2.25586-4.9707 2.90527-3.06641Q3.55469-1.16211 4.72656 0.429688Q5.89844 2.02148 7.49023 3.19336Q9.08203 4.36523 10.9814 5.01465Q12.8809 5.66406 14.9707 5.66406ZM14.9707 3.84766Q13.1641 3.84766 11.5283 3.2959Q9.89258 2.74414 8.53516 1.74805Q7.17773 0.751953 6.17676-0.610352Q5.17578-1.97266 4.62891-3.6084Q4.08203-5.24414 4.08203-7.05078Q4.08203-8.86719 4.62891-10.5029Q5.17578-12.1387 6.17188-13.501Q7.16797-14.8633 8.52539-15.8594Q9.88281-16.8555 11.5186-17.4023Q13.1543-17.9492 14.9609-17.9492Q16.7773-17.9492 18.4131-17.4023Q20.0488-16.8555 21.4111-15.8594Q22.7734-14.8633 23.7695-13.501Q24.7656-12.1387 25.3174-10.5029Q25.8691-8.86719 25.8691-7.05078Q25.8789-5.24414 25.332-3.6084Q24.7852-1.97266 23.7842-0.610352Q22.7832 0.751953 21.4209 1.74805Q20.0586 2.74414 18.4229 3.2959Q16.7871 3.84766 14.9707 3.84766ZM9.19922-7.05078Q9.19922-6.66992 9.45801-6.4209Q9.7168-6.17188 10.1172-6.17188L14.0625-6.17188L14.0625-2.2168Q14.0625-1.81641 14.3115-1.55762Q14.5605-1.29883 14.9512-1.29883Q15.3516-1.29883 15.6104-1.55273Q15.8691-1.80664 15.8691-2.2168L15.8691-6.17188L19.8242-6.17188Q20.2246-6.17188 20.4785-6.4209Q20.7324-6.66992 20.7324-7.05078Q20.7324-7.46094 20.4785-7.71484Q20.2246-7.96875 19.8242-7.96875L15.8691-7.96875L15.8691-11.9141Q15.8691-12.3242 15.6104-12.583Q15.3516-12.8418 14.9512-12.8418Q14.5605-12.8418 14.3115-12.583Q14.0625-12.3242 14.0625-11.9141L14.0625-7.96875L10.1172-7.96875Q9.70703-7.96875 9.45312-7.71484Q9.19922-7.46094 9.19922-7.05078Z"/>
  </g>
  <text style="stroke:none;fill:black;font-family:sans-serif;font-size:13;font-weight:bold;" transform="matrix(1 0 0 1 263 1953)">Design Variations</text>
  <text style="stroke:none;fill:black;font-family:sans-serif;font-size:13;" transform="matrix(1 0 0 1 263 1971)">Symbols are supported in up to nine weights and three scales.</text>
  <text style="stroke:none;fill:black;font-family:sans-serif;font-size:13;" transform="matrix(1 0 0 1 263 1989)">For optimal layout with text and other symbols, vertically align</text>
  <text style="stroke:none;fill:black;font-family:sans-serif;font-size:13;" transform="matrix(1 0 0 1 263 2007)">symbols with the adjacent text.</text>
  <line style="fill:none;stroke:#00AEEF;stroke-width:0.5;opacity:1.0;" x1="776" x2="776" y1="1919" y2="1933"/>
  <g transform="matrix(1 0 0 1 776 1933)">
   <path d="M3.31055 0.15625Q3.70117 0.15625 3.91602-0.00976562Q4.13086-0.175781 4.26758-0.585938L5.52734-4.0332L11.2891-4.0332L12.5488-0.585938Q12.6855-0.175781 12.9004-0.00976562Q13.1152 0.15625 13.4961 0.15625Q13.8867 0.15625 14.1162-0.0585938Q14.3457-0.273438 14.3457-0.644531Q14.3457-0.869141 14.2383-1.17188L9.6582-13.3691Q9.48242-13.8184 9.17969-14.043Q8.87695-14.2676 8.4082-14.2676Q7.5-14.2676 7.17773-13.3789L2.59766-1.16211Q2.49023-0.859375 2.49023-0.634766Q2.49023-0.263672 2.70996-0.0537109Q2.92969 0.15625 3.31055 0.15625ZM6.00586-5.51758L8.37891-12.0898L8.42773-12.0898L10.8008-5.51758Z"/>
  </g>
  <line style="fill:none;stroke:#00AEEF;stroke-width:0.5;opacity:1.0;" x1="793.197" x2="793.197" y1="1919" y2="1933"/>
  <text style="stroke:none;fill:black;font-family:sans-serif;font-size:13;font-weight:bold;" transform="matrix(1 0 0 1 776 1953)">Margins</text>
  <text style="stroke:none;fill:black;font-family:sans-serif;font-size:13;" transform="matrix(1 0 0 1 776 1971)">Leading and trailing margins on the left and right side of each symbol</text>
  <text style="stroke:none;fill:black;font-family:sans-serif;font-size:13;" transform="matrix(1 0 0 1 776 1989)">can be adjusted by modifying the x-location of the margin guidelines.</text>
  <text style="stroke:none;fill:black;font-family:sans-serif;font-size:13;" transform="matrix(1 0 0 1 776 2007)">Modifications are automatically applied proportionally to all</text>
  <text style="stroke:none;fill:black;font-family:sans-serif;font-size:13;" transform="matrix(1 0 0 1 776 2025)">scales and weights.</text>
  <g transform="matrix(1 0 0 1 1289 1933)">
   <path d="M2.8418 1.86523L4.54102 3.57422Q5.18555 4.22852 5.90332 4.17969Q6.62109 4.13086 7.31445 3.35938L18.0078-8.42773L17.041-9.4043L6.42578 2.27539Q6.16211 2.57812 5.89355 2.61719Q5.625 2.65625 5.27344 2.30469L4.10156 1.14258Q3.75 0.791016 3.79395 0.522461Q3.83789 0.253906 4.14062-0.0195312L15.6152-10.8203L14.6387-11.7871L3.04688-0.898438Q2.30469-0.214844 2.25098 0.498047Q2.19727 1.21094 2.8418 1.86523ZM9.25781-16.3281Q8.94531-16.0254 8.90625-15.6348Q8.86719-15.2441 9.04297-14.9512Q9.21875-14.6777 9.55566-14.541Q9.89258-14.4043 10.3809-14.5215Q11.4746-14.7754 12.5977-14.7314Q13.7207-14.6875 14.7949-13.9844L14.209-12.5293Q13.9551-11.9043 14.0674-11.4404Q14.1797-10.9766 14.5801-10.5664L16.875-8.25195Q17.2363-7.88086 17.5781-7.82227Q17.9199-7.76367 18.3398-7.8418L19.4043-8.03711L20.0684-7.36328L20.0293-6.80664Q20-6.43555 20.1221-6.12305Q20.2441-5.81055 20.6055-5.44922L21.3672-4.70703Q21.7285-4.3457 22.1533-4.33105Q22.5781-4.31641 22.9297-4.66797L25.8398-7.58789Q26.1914-7.93945 26.1816-8.35449Q26.1719-8.76953 25.8105-9.13086L25.0391-9.89258Q24.6875-10.2539 24.3799-10.3857Q24.0723-10.5176 23.7109-10.4883L23.1348-10.4395L22.4902-11.0742L22.7344-12.1973Q22.832-12.6172 22.6953-12.9834Q22.5586-13.3496 22.1191-13.7891L19.9219-15.9766Q18.6719-17.2168 17.2607-17.8369Q15.8496-18.457 14.4189-18.4814Q12.9883-18.5059 11.665-17.959Q10.3418-17.4121 9.25781-16.3281ZM10.752-15.957Q11.6602-16.6211 12.7002-16.9043Q13.7402-17.1875 14.8047-17.085Q15.8691-16.9824 16.8701-16.5137Q17.8711-16.0449 18.7012-15.2051L21.1328-12.793Q21.3086-12.6172 21.3525-12.4512Q21.3965-12.2852 21.3379-12.0312L21.0156-10.5469L22.5195-9.0625L23.5059-9.12109Q23.6914-9.13086 23.7891-9.09668Q23.8867-9.0625 24.0332-8.91602L24.6094-8.33984L22.168-5.89844L21.5918-6.47461Q21.4453-6.62109 21.4062-6.71875Q21.3672-6.81641 21.377-7.01172L21.4453-7.98828L19.9512-9.47266L18.4277-9.21875Q18.1836-9.16992 18.042-9.2041Q17.9004-9.23828 17.7148-9.41406L15.7129-11.416Q15.5176-11.5918 15.4932-11.7529Q15.4688-11.9141 15.5859-12.1875L16.4648-14.2773Q15.293-15.3711 13.8281-15.791Q12.3633-16.2109 10.8398-15.7617Q10.7227-15.7324 10.6885-15.8057Q10.6543-15.8789 10.752-15.957Z"/>
  </g>
  <text style="stroke:none;fill:black;font-family:sans-serif;font-size:13;font-weight:bold;" transform="matrix(1 0 0 1 1289 1953)">Exporting</text>
  <text style="stroke:none;fill:black;font-family:sans-serif;font-size:13;" transform="matrix(1 0 0 1 1289 1971)">Symbols should be outlined when exporting to ensure the</text>
  <text style="stroke:none;fill:black;font-family:sans-serif;font-size:13;" transform="matrix(1 0 0 1 1289 1989)">design is preserved when submitting to Xcode.</text>
  <text id="template-version" style="stroke:none;fill:black;font-family:sans-serif;font-size:13;text-anchor:end;" transform="matrix(1 0 0 1 3036 1933)">Template v.3.0</text>
  <text style="stroke:none;fill:black;font-family:sans-serif;font-size:13;text-anchor:end;" transform="matrix(1 0 0 1 3036 1951)">Requires Xcode 13 or greater</text>
  <text id="descriptive-name" style="stroke:none;fill:black;font-family:sans-serif;font-size:13;text-anchor:end;" transform="matrix(1 0 0 1 3036 1969)">Generated from arrowtriangle.backward.fill</text>
  <text style="stroke:none;fill:black;font-family:sans-serif;font-size:13;text-anchor:end;" transform="matrix(1 0 0 1 3036 1987)">Typeset at 100 points</text>
  <text style="stroke:none;fill:black;font-family:sans-serif;font-size:13;" transform="matrix(1 0 0 1 263 726)">Small</text>
  <text style="stroke:none;fill:black;font-family:sans-serif;font-size:13;" transform="matrix(1 0 0 1 263 1156)">Medium</text>
  <text style="stroke:none;fill:black;font-family:sans-serif;font-size:13;" transform="matrix(1 0 0 1 263 1586)">Large</text>
 </g>
 <g id="Guides">
  <g id="H-reference" style="fill:#27AAE1;stroke:none;" transform="matrix(1 0 0 1 339 696)">
   <path d="M0.976562 0L3.66211 0L29.3457-67.1387L30.0293-67.1387L30.0293-70.459L28.125-70.459ZM11.6699-24.4629L46.9727-24.4629L46.2402-26.709L12.4512-26.709ZM55.127 0L57.7637 0L30.6152-70.459L29.4434-70.459L29.4434-67.1387Z"/>
  </g>
  <line id="Baseline-S" style="fill:none;stroke:#27AAE1;opacity:1;stroke-width:0.5;" x1="263" x2="3036" y1="696" y2="696"/>
  <line id="Capline-S" style="fill:none;stroke:#27AAE1;opacity:1;stroke-width:0.5;" x1="263" x2="3036" y1="625.541" y2="625.541"/>
  <g id="H-reference" style="fill:#27AAE1;stroke:none;" transform="matrix(1 0 0 1 339 1126)">
   <path d="M0.976562 0L3.66211 0L29.3457-67.1387L30.0293-67.1387L30.0293-70.459L28.125-70.459ZM11.6699-24.4629L46.9727-24.4629L46.2402-26.709L12.4512-26.709ZM55.127 0L57.7637 0L30.6152-70.459L29.4434-70.459L29.4434-67.1387Z"/>
  </g>
  <line id="Baseline-M" style="fill:none;stroke:#27AAE1;opacity:1;stroke-width:0.5;" x1="263" x2="3036" y1="1126" y2="1126"/>
  <line id="Capline-M" style="fill:none;stroke:#27AAE1;opacity:1;stroke-width:0.5;" x1="263" x2="3036" y1="1055.54" y2="1055.54"/>
  <g id="H-reference" style="fill:#27AAE1;stroke:none;" transform="matrix(1 0 0 1 339 1556)">
   <path d="M0.976562 0L3.66211 0L29.3457-67.1387L30.0293-67.1387L30.0293-70.459L28.125-70.459ZM11.6699-24.4629L46.9727-24.4629L46.2402-26.709L12.4512-26.709ZM55.127 0L57.7637 0L30.6152-70.459L29.4434-70.459L29.4434-67.1387Z"/>
  </g>
  <line id="Baseline-L" style="fill:none;stroke:#27AAE1;opacity:1;stroke-width:0.5;" x1="263" x2="3036" y1="1556" y2="1556"/>
  <line id="Capline-L" style="fill:none;stroke:#27AAE1;opacity:1;stroke-width:0.5;" x1="263" x2="3036" y1="1485.54" y2="1485.54"/>
  <line id="left-margin-Ultralight-S" style="fill:none;stroke:#00AEEF;stroke-width:0.5;opacity:1.0;" x1="520.038" x2="520.038" y1="600.785" y2="720.121"/>
  <line id="right-margin-Ultralight-S" style="fill:none;stroke:#00AEEF;stroke-width:0.5;opacity:1.0;" x1="599.384" x2="599.384" y1="600.785" y2="720.121"/>
  <line id="left-margin-Thin-S" style="fill:none;stroke:#00AEEF;stroke-width:0.5;opacity:1.0;" x1="816.676" x2="816.676" y1="600.785" y2="720.121"/>
  <line id="right-margin-Thin-S" style="fill:none;stroke:#00AEEF;stroke-width:0.5;opacity:1.0;" x1="896.168" x2="896.168" y1="600.785" y2="720.121"/>
  <line id="left-margin-Light-S" style="fill:none;stroke:#00AEEF;stroke-width:0.5;opacity:1.0;" x1="1113.22" x2="1113.22" y1="600.785" y2="720.121"/>
  <line id="right-margin-Light-S" style="fill:none;stroke:#00AEEF;stroke-width:0.5;opacity:1.0;" x1="1193.05" x2="1193.05" y1="600.785" y2="720.121"/>
  <line id="left-margin-Regular-S" style="fill:none;stroke:#00AEEF;stroke-width:0.5;opacity:1.0;" x1="1409.81" x2="1409.81" y1="600.785" y2="720.121"/>
  <line id="right-margin-Regular-S" style="fill:none;stroke:#00AEEF;stroke-width:0.5;opacity:1.0;" x1="1489.88" x2="1489.88" y1="600.785" y2="720.121"/>
  <line id="left-margin-Medium-S" style="fill:none;stroke:#00AEEF;stroke-width:0.5;opacity:1.0;" x1="1706.25" x2="1706.25" y1="600.785" y2="720.121"/>
  <line id="right-margin-Medium-S" style="fill:none;stroke:#00AEEF;stroke-width:0.5;opacity:1.0;" x1="1786.86" x2="1786.86" y1="600.785" y2="720.121"/>
  <line id="left-margin-Semibold-S" style="fill:none;stroke:#00AEEF;stroke-width:0.5;opacity:1.0;" x1="2002.76" x2="2002.76" y1="600.785" y2="720.121"/>
  <line id="right-margin-Semibold-S" style="fill:none;stroke:#00AEEF;stroke-width:0.5;opacity:1.0;" x1="2083.77" x2="2083.77" y1="600.785" y2="720.121"/>
  <line id="left-margin-Bold-S" style="fill:none;stroke:#00AEEF;stroke-width:0.5;opacity:1.0;" x1="2299.21" x2="2299.21" y1="600.785" y2="720.121"/>
  <line id="right-margin-Bold-S" style="fill:none;stroke:#00AEEF;stroke-width:0.5;opacity:1.0;" x1="2380.75" x2="2380.75" y1="600.785" y2="720.121"/>
  <line id="left-margin-Heavy-S" style="fill:none;stroke:#00AEEF;stroke-width:0.5;opacity:1.0;" x1="2595.55" x2="2595.55" y1="600.785" y2="720.121"/>
  <line id="right-margin-Heavy-S" style="fill:none;stroke:#00AEEF;stroke-width:0.5;opacity:1.0;" x1="2677.83" x2="2677.83" y1="600.785" y2="720.121"/>
  <line id="left-margin-Black-S" style="fill:none;stroke:#00AEEF;stroke-width:0.5;opacity:1.0;" x1="2891.92" x2="2891.92" y1="600.785" y2="720.121"/>
  <line id="right-margin-Black-S" style="fill:none;stroke:#00AEEF;stroke-width:0.5;opacity:1.0;" x1="2974.88" x2="2974.88" y1="600.785" y2="720.121"/>
  <line id="left-margin-Ultralight-M" style="fill:none;stroke:#00AEEF;stroke-width:0.5;opacity:1.0;" x1="509.125" x2="509.125" y1="1030.79" y2="1150.12"/>
  <line id="right-margin-Ultralight-M" style="fill:none;stroke:#00AEEF;stroke-width:0.5;opacity:1.0;" x1="610.297" x2="610.297" y1="1030.79" y2="1150.12"/>
  <line id="left-margin-Thin-M" style="fill:none;stroke:#00AEEF;stroke-width:0.5;opacity:1.0;" x1="805.739" x2="805.739" y1="1030.79" y2="1150.12"/>
  <line id="right-margin-Thin-M" style="fill:none;stroke:#00AEEF;stroke-width:0.5;opacity:1.0;" x1="907.106" x2="907.106" y1="1030.79" y2="1150.12"/>
  <line id="left-margin-Light-M" style="fill:none;stroke:#00AEEF;stroke-width:0.5;opacity:1.0;" x1="1102.25" x2="1102.25" y1="1030.79" y2="1150.12"/>
  <line id="right-margin-Light-M" style="fill:none;stroke:#00AEEF;stroke-width:0.5;opacity:1.0;" x1="1204.01" x2="1204.01" y1="1030.79" y2="1150.12"/>
  <line id="left-margin-Regular-M" style="fill:none;stroke:#00AEEF;stroke-width:0.5;opacity:1.0;" x1="1398.82" x2="1398.82" y1="1030.79" y2="1150.12"/>
  <line id="right-margin-Regular-M" style="fill:none;stroke:#00AEEF;stroke-width:0.5;opacity:1.0;" x1="1500.87" x2="1500.87" y1="1030.79" y2="1150.12"/>
  <line id="left-margin-Medium-M" style="fill:none;stroke:#00AEEF;stroke-width:0.5;opacity:1.0;" x1="1695.21" x2="1695.21" y1="1030.79" y2="1150.12"/>
  <line id="right-margin-Medium-M" style="fill:none;stroke:#00AEEF;stroke-width:0.5;opacity:1.0;" x1="1797.9" x2="1797.9" y1="1030.79" y2="1150.12"/>
  <line id="left-margin-Semibold-M" style="fill:none;stroke:#00AEEF;stroke-width:0.5;opacity:1.0;" x1="1991.68" x2="1991.68" y1="1030.79" y2="1150.12"/>
  <line id="right-margin-Semibold-M" style="fill:none;stroke:#00AEEF;stroke-width:0.5;opacity:1.0;" x1="2094.85" x2="2094.85" y1="1030.79" y2="1150.12"/>
  <line id="left-margin-Bold-M" style="fill:none;stroke:#00AEEF;stroke-width:0.5;opacity:1.0;" x1="2288.07" x2="2288.07" y1="1030.79" y2="1150.12"/>
  <line id="right-margin-Bold-M" style="fill:none;stroke:#00AEEF;stroke-width:0.5;opacity:1.0;" x1="2391.88" x2="2391.88" y1="1030.79" y2="1150.12"/>
  <line id="left-margin-Heavy-M" style="fill:none;stroke:#00AEEF;stroke-width:0.5;opacity:1.0;" x1="2584.32" x2="2584.32" y1="1030.79" y2="1150.12"/>
  <line id="right-margin-Heavy-M" style="fill:none;stroke:#00AEEF;stroke-width:0.5;opacity:1.0;" x1="2689.06" x2="2689.06" y1="1030.79" y2="1150.12"/>
  <line id="left-margin-Black-M" style="fill:none;stroke:#00AEEF;stroke-width:0.5;opacity:1.0;" x1="2880.62" x2="2880.62" y1="1030.79" y2="1150.12"/>
  <line id="right-margin-Black-M" style="fill:none;stroke:#00AEEF;stroke-width:0.5;opacity:1.0;" x1="2986.18" x2="2986.18" y1="1030.79" y2="1150.12"/>
  <line id="left-margin-Ultralight-L" style="fill:none;stroke:#00AEEF;stroke-width:0.5;opacity:1.0;" x1="494.477" x2="494.477" y1="1460.79" y2="1580.12"/>
  <line id="right-margin-Ultralight-L" style="fill:none;stroke:#00AEEF;stroke-width:0.5;opacity:1.0;" x1="624.945" x2="624.945" y1="1460.79" y2="1580.12"/>
  <line id="left-margin-Thin-L" style="fill:none;stroke:#00AEEF;stroke-width:0.5;opacity:1.0;" x1="791.066" x2="791.066" y1="1460.79" y2="1580.12"/>
  <line id="right-margin-Thin-L" style="fill:none;stroke:#00AEEF;stroke-width:0.5;opacity:1.0;" x1="921.779" x2="921.779" y1="1460.79" y2="1580.12"/>
  <line id="left-margin-Light-L" style="fill:none;stroke:#00AEEF;stroke-width:0.5;opacity:1.0;" x1="1087.58" x2="1087.58" y1="1460.79" y2="1580.12"/>
  <line id="right-margin-Light-L" style="fill:none;stroke:#00AEEF;stroke-width:0.5;opacity:1.0;" x1="1218.69" x2="1218.69" y1="1460.79" y2="1580.12"/>
  <line id="left-margin-Regular-L" style="fill:none;stroke:#00AEEF;stroke-width:0.5;opacity:1.0;" x1="1384.12" x2="1384.12" y1="1460.79" y2="1580.12"/>
  <line id="right-margin-Regular-L" style="fill:none;stroke:#00AEEF;stroke-width:0.5;opacity:1.0;" x1="1515.57" x2="1515.57" y1="1460.79" y2="1580.12"/>
  <line id="left-margin-Medium-L" style="fill:none;stroke:#00AEEF;stroke-width:0.5;opacity:1.0;" x1="1680.49" x2="1680.49" y1="1460.79" y2="1580.12"/>
  <line id="right-margin-Medium-L" style="fill:none;stroke:#00AEEF;stroke-width:0.5;opacity:1.0;" x1="1812.62" x2="1812.62" y1="1460.79" y2="1580.12"/>
  <line id="left-margin-Semibold-L" style="fill:none;stroke:#00AEEF;stroke-width:0.5;opacity:1.0;" x1="1976.93" x2="1976.93" y1="1460.79" y2="1580.12"/>
  <line id="right-margin-Semibold-L" style="fill:none;stroke:#00AEEF;stroke-width:0.5;opacity:1.0;" x1="2109.6" x2="2109.6" y1="1460.79" y2="1580.12"/>
  <line id="left-margin-Bold-L" style="fill:none;stroke:#00AEEF;stroke-width:0.5;opacity:1.0;" x1="2273.28" x2="2273.28" y1="1460.79" y2="1580.12"/>
  <line id="right-margin-Bold-L" style="fill:none;stroke:#00AEEF;stroke-width:0.5;opacity:1.0;" x1="2406.68" x2="2406.68" y1="1460.79" y2="1580.12"/>
  <line id="left-margin-Heavy-L" style="fill:none;stroke:#00AEEF;stroke-width:0.5;opacity:1.0;" x1="2569.48" x2="2569.48" y1="1460.79" y2="1580.12"/>
  <line id="right-margin-Heavy-L" style="fill:none;stroke:#00AEEF;stroke-width:0.5;opacity:1.0;" x1="2703.9" x2="2703.9" y1="1460.79" y2="1580.12"/>
  <line id="left-margin-Black-L" style="fill:none;stroke:#00AEEF;stroke-width:0.5;opacity:1.0;" x1="2865.72" x2="2865.72" y1="1460.79" y2="1580.12"/>
  <line id="right-margin-Black-L" style="fill:none;stroke:#00AEEF;stroke-width:0.5;opacity:1.0;" x1="3001.08" x2="3001.08" y1="1460.79" y2="1580.12"/>
 </g>
 <g id="Symbols">
  <g id="Black-L" transform="matrix(1 0 0 1 2865.72 1556)">
   <path d="M106.982-86.9141Q104.59-86.9141 102.295-86.0352Q100-85.1562 96.9238-83.6914L22.8516-48.291Q17.9688-45.9473 15.4297-42.7002Q12.8906-39.4531 12.8906-35.2051Q12.8906-30.9082 15.4297-27.6611Q17.9688-24.4141 22.8516-22.0703L96.9238 13.3301Q100.049 14.7949 102.319 15.6494Q104.59 16.5039 106.982 16.5039Q111.865 16.5039 115.576 12.9395Q119.287 9.375 119.287 2.92969L119.287-73.3398Q119.287-79.7363 115.576-83.3252Q111.865-86.9141 106.982-86.9141Z"/>
  </g>
  <g id="Heavy-L" transform="matrix(1 0 0 1 2569.48 1556)">
   <path d="M107.373-86.4746Q105.127-86.4746 103.027-85.6445Q100.928-84.8145 98.1445-83.4961L21.9727-46.9727Q17.4316-44.7754 15.1611-41.8701Q12.8906-38.9648 12.8906-35.2051Q12.8906-31.3965 15.1611-28.4912Q17.4316-25.5859 21.9727-23.3887L98.1445 13.1348Q100.977 14.4531 103.052 15.2588Q105.127 16.0645 107.373 16.0645Q111.816 16.0645 115.088 12.8174Q118.359 9.57031 118.359 3.75977L118.359-74.1699Q118.359-79.9316 115.088-83.2031Q111.816-86.4746 107.373-86.4746Z"/>
  </g>
  <g id="Bold-L" transform="matrix(1 0 0 1 2273.28 1556)">
   <path d="M107.764-85.9863Q105.713-85.9863 103.833-85.2295Q101.953-84.4727 99.5117-83.3008L21.0449-45.5566Q16.7969-43.5059 14.8438-40.9912Q12.8906-38.4766 12.8906-35.2051Q12.8906-31.9336 14.8438-29.4189Q16.7969-26.9043 21.0449-24.8535L99.5117 12.9395Q102.002 14.1113 103.882 14.8682Q105.762 15.625 107.812 15.625Q111.816 15.625 114.575 12.7197Q117.334 9.81445 117.334 4.73633L117.334-75.0977Q117.334-80.1758 114.551-83.0811Q111.768-85.9863 107.764-85.9863Z"/>
  </g>
  <g id="Semibold-L" transform="matrix(1 0 0 1 1976.93 1556)">
   <path d="M108.057-85.6445Q106.104-85.6445 104.37-84.9365Q102.637-84.2285 100.439-83.1055L20.3613-44.5312Q16.3574-42.5781 14.624-40.332Q12.8906-38.0859 12.8906-35.2051Q12.8906-32.2754 14.624-30.0293Q16.3574-27.7832 20.3613-25.8789L100.439 12.7441Q102.686 13.8184 104.419 14.5508Q106.152 15.2832 108.105 15.2832Q111.768 15.2832 114.185 12.6221Q116.602 9.96094 116.602 5.37109L116.602-75.7324Q116.602-80.3223 114.16-82.9834Q111.719-85.6445 108.057-85.6445Z"/>
  </g>
  <g id="Medium-L" transform="matrix(1 0 0 1 1680.49 1556)">
   <path d="M108.252-85.4004Q106.445-85.4004 104.81-84.7168Q103.174-84.0332 101.123-83.0078L19.8242-43.75Q16.0645-41.8945 14.4775-39.8438Q12.8906-37.793 12.8906-35.2051Q12.8906-32.5684 14.4775-30.5176Q16.0645-28.4668 19.8242-26.6113L101.123 12.6465Q103.223 13.623 104.858 14.3311Q106.494 15.0391 108.301 15.0391Q111.768 15.0391 113.916 12.5732Q116.064 10.1074 116.064 5.85938L116.064-76.2207Q116.064-80.4688 113.892-82.9346Q111.719-85.4004 108.252-85.4004Z"/>
  </g>
  <g id="Regular-L" transform="matrix(1 0 0 1 1384.12 1556)">
   <path d="M108.545-85.0586Q106.836-85.0586 105.347-84.4238Q103.857-83.7891 102.051-82.8613L19.1895-42.7734Q15.625-41.0156 14.2578-39.2334Q12.8906-37.4512 12.8906-35.2051Q12.8906-32.9102 14.2578-31.1279Q15.625-29.3457 19.1895-27.6367L102.051 12.5Q103.906 13.3789 105.396 14.0381Q106.885 14.6973 108.594 14.6973Q111.719 14.6973 113.55 12.4756Q115.381 10.2539 115.381 6.49414L115.381-76.8555Q115.381-80.6152 113.525-82.8369Q111.67-85.0586 108.545-85.0586Z"/>
  </g>
  <g id="Light-L" transform="matrix(1 0 0 1 1087.58 1556)">
   <path d="M109.18-84.7168Q107.764-84.7168 106.519-84.2041Q105.273-83.6914 103.662-82.8613L18.1641-41.6016Q15.2832-40.1855 14.0869-38.6719Q12.8906-37.1582 12.8906-35.2051Q12.8906-33.2031 14.0869-31.6895Q15.2832-30.1758 18.1641-28.7598L103.662 12.5Q105.322 13.2812 106.567 13.8184Q107.812 14.3555 109.229 14.3555Q111.914 14.3555 113.477 12.4756Q115.039 10.5957 115.039 7.32422L115.039-77.6855Q115.039-80.957 113.452-82.8369Q111.865-84.7168 109.18-84.7168Z"/>
  </g>
  <g id="Thin-L" transform="matrix(1 0 0 1 791.066 1556)">
   <path d="M110.01-84.2773Q108.984-84.2773 108.081-83.8867Q107.178-83.4961 105.811-82.8613L16.748-40.0879Q14.8438-39.1113 13.8672-37.9395Q12.8906-36.7676 12.8906-35.2051Q12.8906-33.5938 13.8672-32.4219Q14.8438-31.25 16.748-30.2734L105.811 12.5Q107.178 13.1348 108.081 13.5254Q108.984 13.916 110.059 13.916Q112.158 13.916 113.403 12.4756Q114.648 11.0352 114.648 8.44727L114.648-78.8086Q114.648-81.3965 113.379-82.8369Q112.109-84.2773 110.01-84.2773Z"/>
  </g>
  <g id="Ultralight-L" transform="matrix(1 0 0 1 494.477 1556)">
   <path d="M110.449-84.082Q109.619-84.082 108.862-83.7646Q108.105-83.4473 106.934-82.8613L16.0645-39.3066Q14.6484-38.5742 13.7695-37.5732Q12.8906-36.5723 12.8906-35.2051Q12.8906-33.7891 13.7695-32.7881Q14.6484-31.7871 16.0645-31.0547L106.934 12.5Q108.105 13.0371 108.862 13.3789Q109.619 13.7207 110.449 13.7207Q112.256 13.7207 113.33 12.4756Q114.404 11.2305 114.404 8.98438L114.404-79.3457Q114.404-81.5918 113.33-82.8369Q112.256-84.082 110.449-84.082Z"/>
  </g>
  <g id="Black-M" transform="matrix(1 0 0 1 2880.62 1126)">
   <path d="M82.8125-75.5371Q80.9082-75.5371 79.0527-74.8535Q77.1973-74.1699 74.6094-72.9492L18.0664-46.0938Q14.2578-44.2871 12.1094-41.5527Q9.96094-38.8184 9.96094-35.2051Q9.96094-31.5918 12.1094-28.8574Q14.2578-26.123 18.0664-24.3164L74.6094 2.53906Q77.1973 3.80859 79.0527 4.46777Q80.9082 5.12695 82.8125 5.12695Q86.8164 5.12695 89.9658 2.19727Q93.1152-0.732422 93.1152-6.10352L93.1152-64.3066Q93.1152-69.6777 89.9414-72.6074Q86.7676-75.5371 82.8125-75.5371Z"/>
  </g>
  <g id="Heavy-M" transform="matrix(1 0 0 1 2584.32 1126)">
   <path d="M83.0078-75.1953Q81.25-75.1953 79.5166-74.5361Q77.7832-73.877 75.4395-72.7539L17.4316-45.0684Q13.8184-43.3105 11.8896-40.8691Q9.96094-38.4277 9.96094-35.2051Q9.96094-31.9824 11.8896-29.541Q13.8184-27.0996 17.4316-25.3418L75.4395 2.34375Q77.7832 3.51562 79.5166 4.15039Q81.25 4.78516 83.0566 4.78516Q86.7188 4.78516 89.502 2.09961Q92.2852-0.585938 92.2852-5.46875L92.2852-64.9414Q92.2852-69.8242 89.4775-72.5098Q86.6699-75.1953 83.0078-75.1953Z"/>
  </g>
  <g id="Bold-M" transform="matrix(1 0 0 1 2288.07 1126)">
   <path d="M83.3008-74.8047Q81.5918-74.8047 80.0293-74.1699Q78.4668-73.5352 76.416-72.5586L16.748-43.8965Q13.2812-42.2363 11.6211-40.1123Q9.96094-37.9883 9.96094-35.2051Q9.96094-32.4219 11.6211-30.2979Q13.2812-28.1738 16.748-26.5137L76.416 2.14844Q78.4668 3.17383 80.0537 3.78418Q81.6406 4.39453 83.3008 4.39453Q86.6699 4.39453 89.0137 1.95312Q91.3574-0.488281 91.3574-4.73633L91.3574-65.6738Q91.3574-69.9707 88.9893-72.3877Q86.6211-74.8047 83.3008-74.8047Z"/>
  </g>
  <g id="Semibold-M" transform="matrix(1 0 0 1 1991.68 1126)">
   <path d="M83.4473-74.5117Q81.8359-74.5117 80.3711-73.9014Q78.9062-73.291 77.0508-72.4121L16.2598-43.1152Q12.9395-41.5039 11.4502-39.5996Q9.96094-37.6953 9.96094-35.2051Q9.96094-32.7148 11.4502-30.8105Q12.9395-28.9062 16.2598-27.2949L77.0508 2.00195Q78.9062 2.92969 80.3955 3.51562Q81.8848 4.10156 83.4961 4.10156Q86.5723 4.10156 88.6475 1.87988Q90.7227-0.341797 90.7227-4.24805L90.7227-66.1621Q90.7227-70.0684 88.623-72.29Q86.5234-74.5117 83.4473-74.5117Z"/>
  </g>
  <g id="Medium-M" transform="matrix(1 0 0 1 1695.21 1126)">
   <path d="M83.5938-74.3164Q82.0312-74.3164 80.6396-73.7305Q79.248-73.1445 77.5391-72.3145L15.918-42.4805Q12.6465-40.918 11.3037-39.1846Q9.96094-37.4512 9.96094-35.2051Q9.96094-32.959 11.3037-31.2256Q12.6465-29.4922 15.918-27.8809L77.5391 1.9043Q79.2969 2.7832 80.6885 3.34473Q82.0801 3.90625 83.5938 3.90625Q86.5234 3.90625 88.3789 1.80664Q90.2344-0.292969 90.2344-3.85742L90.2344-66.5527Q90.2344-70.1172 88.3545-72.2168Q86.4746-74.3164 83.5938-74.3164Z"/>
  </g>
  <g id="Regular-M" transform="matrix(1 0 0 1 1398.82 1126)">
   <path d="M83.7402-74.0234Q82.2754-74.0234 80.9814-73.4619Q79.6875-72.9004 78.1738-72.168L15.4297-41.6992Q12.3047-40.1855 11.1328-38.6719Q9.96094-37.1582 9.96094-35.2051Q9.96094-33.252 11.1328-31.7383Q12.3047-30.2246 15.4297-28.6621L78.1738 1.75781Q79.7363 2.53906 81.0303 3.07617Q82.3242 3.61328 83.7891 3.61328Q86.4746 3.61328 88.0371 1.70898Q89.5996-0.195312 89.5996-3.36914L89.5996-67.041Q89.5996-70.2148 88.0127-72.1191Q86.4258-74.0234 83.7402-74.0234Z"/>
  </g>
  <g id="Light-M" transform="matrix(1 0 0 1 1102.25 1126)">
   <path d="M84.3262-73.7305Q83.1055-73.7305 82.0312-73.2666Q80.957-72.8027 79.6387-72.168L14.502-40.6738Q12.0117-39.4531 10.9863-38.1592Q9.96094-36.8652 9.96094-35.2051Q9.96094-33.4961 10.9863-32.2266Q12.0117-30.957 14.502-29.6875L79.6387 1.75781Q81.0059 2.44141 82.0557 2.88086Q83.1055 3.32031 84.3262 3.32031Q86.6211 3.32031 87.9639 1.70898Q89.3066 0.0976562 89.3066-2.63672L89.3066-67.7734Q89.3066-70.5078 87.9639-72.1191Q86.6211-73.7305 84.3262-73.7305Z"/>
  </g>
  <g id="Thin-M" transform="matrix(1 0 0 1 805.739 1126)">
   <path d="M85.0586-73.3398Q84.1797-73.3398 83.3984-73.0225Q82.6172-72.7051 81.543-72.168L13.2812-39.3066Q11.6211-38.4766 10.791-37.5Q9.96094-36.5234 9.96094-35.2051Q9.96094-33.8379 10.791-32.8857Q11.6211-31.9336 13.2812-31.0547L81.543 1.75781Q82.666 2.29492 83.4229 2.6123Q84.1797 2.92969 85.1074 2.92969Q86.8164 2.92969 87.8662 1.70898Q88.916 0.488281 88.916-1.66016L88.916-68.75Q88.916-70.8984 87.8906-72.1191Q86.8652-73.3398 85.0586-73.3398Z"/>
  </g>
  <g id="Ultralight-M" transform="matrix(1 0 0 1 509.125 1126)">
   <path d="M85.4492-73.0957Q84.7168-73.0957 84.1064-72.8516Q83.4961-72.6074 82.5195-72.168L12.6465-38.623Q11.377-37.9883 10.6689-37.1582Q9.96094-36.3281 9.96094-35.2051Q9.96094-34.0332 10.6689-33.2275Q11.377-32.4219 12.6465-31.7383L82.5195 1.75781Q83.4961 2.19727 84.1064 2.46582Q84.7168 2.73438 85.4492 2.73438Q86.9141 2.73438 87.8174 1.7334Q88.7207 0.732422 88.7207-1.12305L88.7207-69.2871Q88.7207-71.1426 87.8418-72.1191Q86.9629-73.0957 85.4492-73.0957Z"/>
  </g>
  <g id="Black-S" transform="matrix(1 0 0 1 2891.92 696)">
   <path d="M64.8438-66.8945Q63.3301-66.8945 61.8652-66.3574Q60.4004-65.8203 58.3008-64.8438L14.3066-43.9941Q11.3281-42.5781 9.57031-40.3564Q7.8125-38.1348 7.8125-35.2051Q7.8125-32.2754 9.57031-30.0537Q11.3281-27.832 14.3066-26.416L58.3008-5.56641Q60.4004-4.58984 61.8652-4.05273Q63.3301-3.51562 64.8438-3.51562Q68.0176-3.51562 70.6055-5.88379Q73.1934-8.25195 73.1934-12.5488L73.1934-57.8613Q73.1934-62.207 70.6055-64.5508Q68.0176-66.8945 64.8438-66.8945Z"/>
  </g>
  <g id="Heavy-S" transform="matrix(1 0 0 1 2595.55 696)">
   <path d="M64.9414-66.6504Q63.5254-66.6504 62.1338-66.1133Q60.7422-65.5762 58.8379-64.6973L13.916-43.2617Q10.9863-41.8457 9.39941-39.8438Q7.8125-37.8418 7.8125-35.2051Q7.8125-32.5684 9.39941-30.5664Q10.9863-28.5645 13.916-27.1484L58.8379-5.71289Q60.7422-4.83398 62.1338-4.29688Q63.5254-3.75977 64.9902-3.75977Q67.9199-3.75977 70.2148-5.95703Q72.5098-8.1543 72.5098-12.1094L72.5098-58.3008Q72.5098-62.2559 70.2148-64.4531Q67.9199-66.6504 64.9414-66.6504Z"/>
  </g>
  <g id="Bold-S" transform="matrix(1 0 0 1 2299.21 696)">
   <path d="M65.0879-66.3574Q63.7207-66.3574 62.4268-65.8447Q61.1328-65.332 59.4238-64.502L13.4277-42.4316Q10.5957-41.0156 9.2041-39.2578Q7.8125-37.5 7.8125-35.2051Q7.8125-32.9102 9.2041-31.1523Q10.5957-29.3945 13.4277-28.0273L59.4238-5.9082Q61.1328-5.12695 62.4268-4.61426Q63.7207-4.10156 65.1367-4.10156Q67.8711-4.10156 69.8242-6.10352Q71.7773-8.10547 71.7773-11.6211L71.7773-58.8379Q71.7773-62.3535 69.7998-64.3555Q67.8223-66.3574 65.0879-66.3574Z"/>
  </g>
  <g id="Semibold-S" transform="matrix(1 0 0 1 2002.76 696)">
   <path d="M65.1855-66.1133Q63.8184-66.1133 62.5977-65.625Q61.377-65.1367 59.8145-64.3555L13.0859-41.8457Q10.3027-40.4297 9.05762-38.8428Q7.8125-37.2559 7.8125-35.2051Q7.8125-33.1543 9.05762-31.5674Q10.3027-29.9805 13.0859-28.5645L59.8145-6.05469Q61.377-5.27344 62.6221-4.78516Q63.8672-4.29688 65.2344-4.29688Q67.7734-4.29688 69.5068-6.15234Q71.2402-8.00781 71.2402-11.2305L71.2402-59.1797Q71.2402-62.4023 69.5068-64.2578Q67.7734-66.1133 65.1855-66.1133Z"/>
  </g>
  <g id="Medium-S" transform="matrix(1 0 0 1 1706.25 696)">
   <path d="M65.2344-65.9668Q63.916-65.9668 62.7441-65.4785Q61.5723-64.9902 60.1562-64.3066L12.8418-41.4062Q10.1074-40.0391 8.95996-38.5742Q7.8125-37.1094 7.8125-35.2051Q7.8125-33.3008 8.95996-31.8359Q10.1074-30.3711 12.8418-29.0039L60.1562-6.10352Q61.6211-5.41992 62.793-4.93164Q63.9648-4.44336 65.2832-4.44336Q67.7246-4.44336 69.2871-6.20117Q70.8496-7.95898 70.8496-10.9863L70.8496-59.4238Q70.8496-62.4512 69.2627-64.209Q67.6758-65.9668 65.2344-65.9668Z"/>
  </g>
  <g id="Regular-S" transform="matrix(1 0 0 1 1409.81 696)">
   <path d="M65.332-65.7715Q64.0625-65.7715 62.9395-65.2832Q61.8164-64.7949 60.5469-64.1602L12.5488-40.8203Q9.81445-39.4531 8.81348-38.1592Q7.8125-36.8652 7.8125-35.2051Q7.8125-33.5449 8.81348-32.251Q9.81445-30.957 12.5488-29.5898L60.5469-6.25Q61.8652-5.61523 62.9883-5.12695Q64.1113-4.63867 65.3809-4.63867Q67.6758-4.63867 68.9941-6.27441Q70.3125-7.91016 70.3125-10.6445L70.3125-59.7656Q70.3125-62.5 68.9697-64.1357Q67.627-65.7715 65.332-65.7715Z"/>
  </g>
  <g id="Light-S" transform="matrix(1 0 0 1 1113.22 696)">
   <path d="M65.8691-65.5273Q64.7949-65.5273 63.8672-65.1123Q62.9395-64.6973 61.8164-64.1602L11.7188-39.8926Q9.52148-38.8184 8.66699-37.7197Q7.8125-36.6211 7.8125-35.2051Q7.8125-33.7891 8.66699-32.6904Q9.52148-31.5918 11.7188-30.5176L61.8164-6.25Q62.9883-5.71289 63.916-5.29785Q64.8438-4.88281 65.8691-4.88281Q67.8223-4.88281 68.9453-6.27441Q70.0684-7.66602 70.0684-9.96094L70.0684-60.4492Q70.0684-62.7441 68.9209-64.1357Q67.7734-65.5273 65.8691-65.5273Z"/>
  </g>
  <g id="Thin-S" transform="matrix(1 0 0 1 816.676 696)">
   <path d="M66.5039-65.1855Q65.7715-65.1855 65.0879-64.8926Q64.4043-64.5996 63.5254-64.1602L10.6445-38.7207Q9.17969-37.9883 8.49609-37.1338Q7.8125-36.2793 7.8125-35.2051Q7.8125-34.1309 8.49609-33.2764Q9.17969-32.4219 10.6445-31.6895L63.5254-6.25Q64.4531-5.81055 65.1123-5.51758Q65.7715-5.22461 66.5527-5.22461Q67.9688-5.22461 68.8477-6.27441Q69.7266-7.32422 69.7266-9.08203L69.7266-61.3281Q69.7266-63.0859 68.8477-64.1357Q67.9688-65.1855 66.5039-65.1855Z"/>
  </g>
  <g id="Ultralight-S" transform="matrix(1 0 0 1 520.038 696)">
   <path d="M66.8945-64.9902Q66.2598-64.9902 65.7227-64.7461Q65.1855-64.502 64.4043-64.1602L10.1074-38.0859Q8.98438-37.5488 8.39844-36.8408Q7.8125-36.1328 7.8125-35.2051Q7.8125-34.2773 8.39844-33.5693Q8.98438-32.8613 10.1074-32.3242L64.4043-6.25Q65.1855-5.9082 65.7227-5.66406Q66.2598-5.41992 66.8945-5.41992Q68.0664-5.41992 68.8232-6.27441Q69.5801-7.12891 69.5801-8.64258L69.5801-61.7676Q69.5801-63.2812 68.8232-64.1357Q68.0664-64.9902 66.8945-64.9902Z"/>
  </g>
 </g>
</svg>
