<?xml version="1.0" encoding="UTF-8"?>
<!--Generator: Apple Native CoreSVG 175-->
<!DOCTYPE svg
PUBLIC "-//W3C//DTD SVG 1.1//EN"
       "http://www.w3.org/Graphics/SVG/1.1/DTD/svg11.dtd">
<svg version="1.1" xmlns="http://www.w3.org/2000/svg" xmlns:xlink="http://www.w3.org/1999/xlink" width="3300" height="2200">
 <!--glyph: "uni10005D.medium", point size: 100.0, font version: "17.3d3e1", template writer version: "65.1"-->
 <g id="Notes">
  <rect height="2200" id="artboard" style="fill:white;opacity:1" width="3300" x="0" y="0"/>
  <line style="fill:none;stroke:black;opacity:1;stroke-width:0.5;" x1="263" x2="3036" y1="292" y2="292"/>
  <text style="stroke:none;fill:black;font-family:sans-serif;font-size:13;font-weight:bold;" transform="matrix(1 0 0 1 263 322)">Weight/Scale Variations</text>
  <text style="stroke:none;fill:black;font-family:sans-serif;font-size:13;text-anchor:middle;" transform="matrix(1 0 0 1 559.711 322)">Ultralight</text>
  <text style="stroke:none;fill:black;font-family:sans-serif;font-size:13;text-anchor:middle;" transform="matrix(1 0 0 1 856.422 322)">Thin</text>
  <text style="stroke:none;fill:black;font-family:sans-serif;font-size:13;text-anchor:middle;" transform="matrix(1 0 0 1 1153.13 322)">Light</text>
  <text style="stroke:none;fill:black;font-family:sans-serif;font-size:13;text-anchor:middle;" transform="matrix(1 0 0 1 1449.84 322)">Regular</text>
  <text style="stroke:none;fill:black;font-family:sans-serif;font-size:13;text-anchor:middle;" transform="matrix(1 0 0 1 1746.56 322)">Medium</text>
  <text style="stroke:none;fill:black;font-family:sans-serif;font-size:13;text-anchor:middle;" transform="matrix(1 0 0 1 2043.27 322)">Semibold</text>
  <text style="stroke:none;fill:black;font-family:sans-serif;font-size:13;text-anchor:middle;" transform="matrix(1 0 0 1 2339.98 322)">Bold</text>
  <text style="stroke:none;fill:black;font-family:sans-serif;font-size:13;text-anchor:middle;" transform="matrix(1 0 0 1 2636.69 322)">Heavy</text>
  <text style="stroke:none;fill:black;font-family:sans-serif;font-size:13;text-anchor:middle;" transform="matrix(1 0 0 1 2933.4 322)">Black</text>
  <line style="fill:none;stroke:black;opacity:1;stroke-width:0.5;" x1="263" x2="3036" y1="1903" y2="1903"/>
  <g transform="matrix(1 0 0 1 263 1933)">
   <path d="M9.24805 0.830078Q10.8691 0.830078 12.2949 0.214844Q13.7207-0.400391 14.8096-1.49414Q15.8984-2.58789 16.5186-4.01367Q17.1387-5.43945 17.1387-7.05078Q17.1387-8.66211 16.5186-10.0879Q15.8984-11.5137 14.8047-12.6074Q13.7109-13.7012 12.2852-14.3164Q10.8594-14.9316 9.23828-14.9316Q7.62695-14.9316 6.20117-14.3164Q4.77539-13.7012 3.69141-12.6074Q2.60742-11.5137 1.9873-10.0879Q1.36719-8.66211 1.36719-7.05078Q1.36719-5.43945 1.9873-4.01367Q2.60742-2.58789 3.69629-1.49414Q4.78516-0.400391 6.21094 0.214844Q7.63672 0.830078 9.24805 0.830078ZM9.24805-0.654297Q7.91992-0.654297 6.7627-1.14746Q5.60547-1.64062 4.73145-2.51953Q3.85742-3.39844 3.36426-4.56055Q2.87109-5.72266 2.87109-7.05078Q2.87109-8.37891 3.35938-9.54102Q3.84766-10.7031 4.72168-11.582Q5.5957-12.4609 6.75293-12.9541Q7.91016-13.4473 9.23828-13.4473Q10.5762-13.4473 11.7334-12.9541Q12.8906-12.4609 13.7695-11.582Q14.6484-10.7031 15.1465-9.54102Q15.6445-8.37891 15.6445-7.05078Q15.6445-5.72266 15.1514-4.56055Q14.6582-3.39844 13.7842-2.51953Q12.9102-1.64062 11.748-1.14746Q10.5859-0.654297 9.24805-0.654297ZM5.6543-7.05078Q5.6543-6.72852 5.85938-6.52832Q6.06445-6.32812 6.40625-6.32812L8.51562-6.32812L8.51562-4.20898Q8.51562-3.88672 8.71094-3.67676Q8.90625-3.4668 9.23828-3.4668Q9.56055-3.4668 9.77051-3.67676Q9.98047-3.88672 9.98047-4.20898L9.98047-6.32812L12.0898-6.32812Q12.4219-6.32812 12.627-6.52832Q12.832-6.72852 12.832-7.05078Q12.832-7.38281 12.627-7.58789Q12.4219-7.79297 12.0898-7.79297L9.98047-7.79297L9.98047-9.90234Q9.98047-10.2344 9.77051-10.4443Q9.56055-10.6543 9.23828-10.6543Q8.90625-10.6543 8.71094-10.4443Q8.51562-10.2344 8.51562-9.90234L8.51562-7.79297L6.40625-7.79297Q6.06445-7.79297 5.85938-7.58789Q5.6543-7.38281 5.6543-7.05078Z"/>
  </g>
  <g transform="matrix(1 0 0 1 281.867 1933)">
   <path d="M11.709 2.91016Q13.75 2.91016 15.5518 2.12891Q17.3535 1.34766 18.7305-0.0292969Q20.1074-1.40625 20.8887-3.20801Q21.6699-5.00977 21.6699-7.05078Q21.6699-9.0918 20.8887-10.8936Q20.1074-12.6953 18.7305-14.0723Q17.3535-15.4492 15.5469-16.2305Q13.7402-17.0117 11.6992-17.0117Q9.6582-17.0117 7.85645-16.2305Q6.05469-15.4492 4.68262-14.0723Q3.31055-12.6953 2.5293-10.8936Q1.74805-9.0918 1.74805-7.05078Q1.74805-5.00977 2.5293-3.20801Q3.31055-1.40625 4.6875-0.0292969Q6.06445 1.34766 7.86621 2.12891Q9.66797 2.91016 11.709 2.91016ZM11.709 1.25Q9.98047 1.25 8.47656 0.605469Q6.97266-0.0390625 5.83496-1.17676Q4.69727-2.31445 4.05762-3.81836Q3.41797-5.32227 3.41797-7.05078Q3.41797-8.7793 4.05762-10.2832Q4.69727-11.7871 5.83008-12.9297Q6.96289-14.0723 8.4668-14.7119Q9.9707-15.3516 11.6992-15.3516Q13.4277-15.3516 14.9316-14.7119Q16.4355-14.0723 17.5781-12.9297Q18.7207-11.7871 19.3652-10.2832Q20.0098-8.7793 20.0098-7.05078Q20.0098-5.32227 19.3701-3.81836Q18.7305-2.31445 17.5928-1.17676Q16.4551-0.0390625 14.9463 0.605469Q13.4375 1.25 11.709 1.25ZM7.17773-7.05078Q7.17773-6.69922 7.41211-6.47461Q7.64648-6.25 8.01758-6.25L10.8887-6.25L10.8887-3.36914Q10.8887-2.99805 11.1133-2.76855Q11.3379-2.53906 11.6895-2.53906Q12.0605-2.53906 12.29-2.76855Q12.5195-2.99805 12.5195-3.36914L12.5195-6.25L15.4004-6.25Q15.7715-6.25 16.001-6.47461Q16.2305-6.69922 16.2305-7.05078Q16.2305-7.42188 16.001-7.65137Q15.7715-7.88086 15.4004-7.88086L12.5195-7.88086L12.5195-10.752Q12.5195-11.1328 12.29-11.3623Q12.0605-11.5918 11.6895-11.5918Q11.3379-11.5918 11.1133-11.3574Q10.8887-11.123 10.8887-10.752L10.8887-7.88086L8.01758-7.88086Q7.63672-7.88086 7.40723-7.65137Q7.17773-7.42188 7.17773-7.05078Z"/>
  </g>
  <g transform="matrix(1 0 0 1 305.646 1933)">
   <path d="M14.9707 5.66406Q17.0605 5.66406 18.96 5.01465Q20.8594 4.36523 22.4512 3.19336Q24.043 2.02148 25.2197 0.429688Q26.3965-1.16211 27.0459-3.06641Q27.6953-4.9707 27.6953-7.05078Q27.6953-9.14062 27.0459-11.04Q26.3965-12.9395 25.2197-14.5312Q24.043-16.123 22.4512-17.2998Q20.8594-18.4766 18.9551-19.126Q17.0508-19.7754 14.9609-19.7754Q12.8711-19.7754 10.9717-19.126Q9.07227-18.4766 7.48535-17.2998Q5.89844-16.123 4.72168-14.5312Q3.54492-12.9395 2.90039-11.04Q2.25586-9.14062 2.25586-7.05078Q2.25586-4.9707 2.90527-3.06641Q3.55469-1.16211 4.72656 0.429688Q5.89844 2.02148 7.49023 3.19336Q9.08203 4.36523 10.9814 5.01465Q12.8809 5.66406 14.9707 5.66406ZM14.9707 3.84766Q13.1641 3.84766 11.5283 3.2959Q9.89258 2.74414 8.53516 1.74805Q7.17773 0.751953 6.17676-0.610352Q5.17578-1.97266 4.62891-3.6084Q4.08203-5.24414 4.08203-7.05078Q4.08203-8.86719 4.62891-10.5029Q5.17578-12.1387 6.17188-13.501Q7.16797-14.8633 8.52539-15.8594Q9.88281-16.8555 11.5186-17.4023Q13.1543-17.9492 14.9609-17.9492Q16.7773-17.9492 18.4131-17.4023Q20.0488-16.8555 21.4111-15.8594Q22.7734-14.8633 23.7695-13.501Q24.7656-12.1387 25.3174-10.5029Q25.8691-8.86719 25.8691-7.05078Q25.8789-5.24414 25.332-3.6084Q24.7852-1.97266 23.7842-0.610352Q22.7832 0.751953 21.4209 1.74805Q20.0586 2.74414 18.4229 3.2959Q16.7871 3.84766 14.9707 3.84766ZM9.19922-7.05078Q9.19922-6.66992 9.45801-6.4209Q9.7168-6.17188 10.1172-6.17188L14.0625-6.17188L14.0625-2.2168Q14.0625-1.81641 14.3115-1.55762Q14.5605-1.29883 14.9512-1.29883Q15.3516-1.29883 15.6104-1.55273Q15.8691-1.80664 15.8691-2.2168L15.8691-6.17188L19.8242-6.17188Q20.2246-6.17188 20.4785-6.4209Q20.7324-6.66992 20.7324-7.05078Q20.7324-7.46094 20.4785-7.71484Q20.2246-7.96875 19.8242-7.96875L15.8691-7.96875L15.8691-11.9141Q15.8691-12.3242 15.6104-12.583Q15.3516-12.8418 14.9512-12.8418Q14.5605-12.8418 14.3115-12.583Q14.0625-12.3242 14.0625-11.9141L14.0625-7.96875L10.1172-7.96875Q9.70703-7.96875 9.45312-7.71484Q9.19922-7.46094 9.19922-7.05078Z"/>
  </g>
  <text style="stroke:none;fill:black;font-family:sans-serif;font-size:13;font-weight:bold;" transform="matrix(1 0 0 1 263 1953)">Design Variations</text>
  <text style="stroke:none;fill:black;font-family:sans-serif;font-size:13;" transform="matrix(1 0 0 1 263 1971)">Symbols are supported in up to nine weights and three scales.</text>
  <text style="stroke:none;fill:black;font-family:sans-serif;font-size:13;" transform="matrix(1 0 0 1 263 1989)">For optimal layout with text and other symbols, vertically align</text>
  <text style="stroke:none;fill:black;font-family:sans-serif;font-size:13;" transform="matrix(1 0 0 1 263 2007)">symbols with the adjacent text.</text>
  <line style="fill:none;stroke:#00AEEF;stroke-width:0.5;opacity:1.0;" x1="776" x2="776" y1="1919" y2="1933"/>
  <g transform="matrix(1 0 0 1 776 1933)">
   <path d="M3.31055 0.15625Q3.70117 0.15625 3.91602-0.00976562Q4.13086-0.175781 4.26758-0.585938L5.52734-4.0332L11.2891-4.0332L12.5488-0.585938Q12.6855-0.175781 12.9004-0.00976562Q13.1152 0.15625 13.4961 0.15625Q13.8867 0.15625 14.1162-0.0585938Q14.3457-0.273438 14.3457-0.644531Q14.3457-0.869141 14.2383-1.17188L9.6582-13.3691Q9.48242-13.8184 9.17969-14.043Q8.87695-14.2676 8.4082-14.2676Q7.5-14.2676 7.17773-13.3789L2.59766-1.16211Q2.49023-0.859375 2.49023-0.634766Q2.49023-0.263672 2.70996-0.0537109Q2.92969 0.15625 3.31055 0.15625ZM6.00586-5.51758L8.37891-12.0898L8.42773-12.0898L10.8008-5.51758Z"/>
  </g>
  <line style="fill:none;stroke:#00AEEF;stroke-width:0.5;opacity:1.0;" x1="793.197" x2="793.197" y1="1919" y2="1933"/>
  <text style="stroke:none;fill:black;font-family:sans-serif;font-size:13;font-weight:bold;" transform="matrix(1 0 0 1 776 1953)">Margins</text>
  <text style="stroke:none;fill:black;font-family:sans-serif;font-size:13;" transform="matrix(1 0 0 1 776 1971)">Leading and trailing margins on the left and right side of each symbol</text>
  <text style="stroke:none;fill:black;font-family:sans-serif;font-size:13;" transform="matrix(1 0 0 1 776 1989)">can be adjusted by modifying the x-location of the margin guidelines.</text>
  <text style="stroke:none;fill:black;font-family:sans-serif;font-size:13;" transform="matrix(1 0 0 1 776 2007)">Modifications are automatically applied proportionally to all</text>
  <text style="stroke:none;fill:black;font-family:sans-serif;font-size:13;" transform="matrix(1 0 0 1 776 2025)">scales and weights.</text>
  <g transform="matrix(1 0 0 1 1289 1933)">
   <path d="M2.8418 1.86523L4.54102 3.57422Q5.18555 4.22852 5.90332 4.17969Q6.62109 4.13086 7.31445 3.35938L18.0078-8.42773L17.041-9.4043L6.42578 2.27539Q6.16211 2.57812 5.89355 2.61719Q5.625 2.65625 5.27344 2.30469L4.10156 1.14258Q3.75 0.791016 3.79395 0.522461Q3.83789 0.253906 4.14062-0.0195312L15.6152-10.8203L14.6387-11.7871L3.04688-0.898438Q2.30469-0.214844 2.25098 0.498047Q2.19727 1.21094 2.8418 1.86523ZM9.25781-16.3281Q8.94531-16.0254 8.90625-15.6348Q8.86719-15.2441 9.04297-14.9512Q9.21875-14.6777 9.55566-14.541Q9.89258-14.4043 10.3809-14.5215Q11.4746-14.7754 12.5977-14.7314Q13.7207-14.6875 14.7949-13.9844L14.209-12.5293Q13.9551-11.9043 14.0674-11.4404Q14.1797-10.9766 14.5801-10.5664L16.875-8.25195Q17.2363-7.88086 17.5781-7.82227Q17.9199-7.76367 18.3398-7.8418L19.4043-8.03711L20.0684-7.36328L20.0293-6.80664Q20-6.43555 20.1221-6.12305Q20.2441-5.81055 20.6055-5.44922L21.3672-4.70703Q21.7285-4.3457 22.1533-4.33105Q22.5781-4.31641 22.9297-4.66797L25.8398-7.58789Q26.1914-7.93945 26.1816-8.35449Q26.1719-8.76953 25.8105-9.13086L25.0391-9.89258Q24.6875-10.2539 24.3799-10.3857Q24.0723-10.5176 23.7109-10.4883L23.1348-10.4395L22.4902-11.0742L22.7344-12.1973Q22.832-12.6172 22.6953-12.9834Q22.5586-13.3496 22.1191-13.7891L19.9219-15.9766Q18.6719-17.2168 17.2607-17.8369Q15.8496-18.457 14.4189-18.4814Q12.9883-18.5059 11.665-17.959Q10.3418-17.4121 9.25781-16.3281ZM10.752-15.957Q11.6602-16.6211 12.7002-16.9043Q13.7402-17.1875 14.8047-17.085Q15.8691-16.9824 16.8701-16.5137Q17.8711-16.0449 18.7012-15.2051L21.1328-12.793Q21.3086-12.6172 21.3525-12.4512Q21.3965-12.2852 21.3379-12.0312L21.0156-10.5469L22.5195-9.0625L23.5059-9.12109Q23.6914-9.13086 23.7891-9.09668Q23.8867-9.0625 24.0332-8.91602L24.6094-8.33984L22.168-5.89844L21.5918-6.47461Q21.4453-6.62109 21.4062-6.71875Q21.3672-6.81641 21.377-7.01172L21.4453-7.98828L19.9512-9.47266L18.4277-9.21875Q18.1836-9.16992 18.042-9.2041Q17.9004-9.23828 17.7148-9.41406L15.7129-11.416Q15.5176-11.5918 15.4932-11.7529Q15.4688-11.9141 15.5859-12.1875L16.4648-14.2773Q15.293-15.3711 13.8281-15.791Q12.3633-16.2109 10.8398-15.7617Q10.7227-15.7324 10.6885-15.8057Q10.6543-15.8789 10.752-15.957Z"/>
  </g>
  <text style="stroke:none;fill:black;font-family:sans-serif;font-size:13;font-weight:bold;" transform="matrix(1 0 0 1 1289 1953)">Exporting</text>
  <text style="stroke:none;fill:black;font-family:sans-serif;font-size:13;" transform="matrix(1 0 0 1 1289 1971)">Symbols should be outlined when exporting to ensure the</text>
  <text style="stroke:none;fill:black;font-family:sans-serif;font-size:13;" transform="matrix(1 0 0 1 1289 1989)">design is preserved when submitting to Xcode.</text>
  <text id="template-version" style="stroke:none;fill:black;font-family:sans-serif;font-size:13;text-anchor:end;" transform="matrix(1 0 0 1 3036 1933)">Template v.3.0</text>
  <text style="stroke:none;fill:black;font-family:sans-serif;font-size:13;text-anchor:end;" transform="matrix(1 0 0 1 3036 1951)">Requires Xcode 13 or greater</text>
  <text id="descriptive-name" style="stroke:none;fill:black;font-family:sans-serif;font-size:13;text-anchor:end;" transform="matrix(1 0 0 1 3036 1969)">Generated from questionmark.circle.fill</text>
  <text style="stroke:none;fill:black;font-family:sans-serif;font-size:13;text-anchor:end;" transform="matrix(1 0 0 1 3036 1987)">Typeset at 100 points</text>
  <text style="stroke:none;fill:black;font-family:sans-serif;font-size:13;" transform="matrix(1 0 0 1 263 726)">Small</text>
  <text style="stroke:none;fill:black;font-family:sans-serif;font-size:13;" transform="matrix(1 0 0 1 263 1156)">Medium</text>
  <text style="stroke:none;fill:black;font-family:sans-serif;font-size:13;" transform="matrix(1 0 0 1 263 1586)">Large</text>
 </g>
 <g id="Guides">
  <g id="H-reference" style="fill:#27AAE1;stroke:none;" transform="matrix(1 0 0 1 339 696)">
   <path d="M0.993347 0L3.6377 0L29.3282-67.1326L30.0301-67.1326L30.0301-70.459L28.1227-70.459ZM11.6882-24.4797L46.9818-24.4797L46.2311-26.7288L12.4382-26.7288ZM55.1193 0L57.7637 0L30.6381-70.459L29.4327-70.459L29.4327-67.1326Z"/>
  </g>
  <line id="Baseline-S" style="fill:none;stroke:#27AAE1;opacity:1;stroke-width:0.5;" x1="263" x2="3036" y1="696" y2="696"/>
  <line id="Capline-S" style="fill:none;stroke:#27AAE1;opacity:1;stroke-width:0.5;" x1="263" x2="3036" y1="625.541" y2="625.541"/>
  <g id="H-reference" style="fill:#27AAE1;stroke:none;" transform="matrix(1 0 0 1 339 1126)">
   <path d="M0.993347 0L3.6377 0L29.3282-67.1326L30.0301-67.1326L30.0301-70.459L28.1227-70.459ZM11.6882-24.4797L46.9818-24.4797L46.2311-26.7288L12.4382-26.7288ZM55.1193 0L57.7637 0L30.6381-70.459L29.4327-70.459L29.4327-67.1326Z"/>
  </g>
  <line id="Baseline-M" style="fill:none;stroke:#27AAE1;opacity:1;stroke-width:0.5;" x1="263" x2="3036" y1="1126" y2="1126"/>
  <line id="Capline-M" style="fill:none;stroke:#27AAE1;opacity:1;stroke-width:0.5;" x1="263" x2="3036" y1="1055.54" y2="1055.54"/>
  <g id="H-reference" style="fill:#27AAE1;stroke:none;" transform="matrix(1 0 0 1 339 1556)">
   <path d="M0.993347 0L3.6377 0L29.3282-67.1326L30.0301-67.1326L30.0301-70.459L28.1227-70.459ZM11.6882-24.4797L46.9818-24.4797L46.2311-26.7288L12.4382-26.7288ZM55.1193 0L57.7637 0L30.6381-70.459L29.4327-70.459L29.4327-67.1326Z"/>
  </g>
  <line id="Baseline-L" style="fill:none;stroke:#27AAE1;opacity:1;stroke-width:0.5;" x1="263" x2="3036" y1="1556" y2="1556"/>
  <line id="Capline-L" style="fill:none;stroke:#27AAE1;opacity:1;stroke-width:0.5;" x1="263" x2="3036" y1="1485.54" y2="1485.54"/>
  <line id="left-margin-Regular-M" style="fill:none;stroke:#00AEEF;stroke-width:0.5;opacity:1.0;" x1="1391.32" x2="1391.32" y1="1030.79" y2="1150.12"/>
  <line id="right-margin-Regular-M" style="fill:none;stroke:#00AEEF;stroke-width:0.5;opacity:1.0;" x1="1508.37" x2="1508.37" y1="1030.79" y2="1150.12"/>
 </g>
 <g id="Symbols">
  <g id="Black-L" transform="matrix(1 0 0 1 2854.19 1556)">
   <path d="M79.1953 32.7252Q93.2356 32.7252 105.521 27.4303Q117.806 22.1354 127.174 12.7571Q136.542 3.37874 141.848-8.90649Q147.154-21.1917 147.154-35.2113Q147.154-49.2309 141.848-61.5161Q136.542-73.8013 127.164-83.1796Q117.785-92.558 105.5-97.8529Q93.2149-103.148 79.1746-103.148Q65.1563-103.148 52.8704-97.8529Q40.5846-92.558 31.2276-83.1796Q21.8707-73.8013 16.5647-61.5161Q11.2588-49.2309 11.2588-35.2113Q11.2588-21.1917 16.5647-8.90649Q21.8707 3.37874 31.238 12.7571Q40.6053 22.1354 52.8912 27.4303Q65.177 32.7252 79.1953 32.7252ZM77.3297-23.4853Q67.4129-23.4853 67.4129-30.9296Q67.4129-31.0191 67.4129-31.0591Q67.4129-31.0992 67.4129-31.19Q67.4129-34.5407 69.5718-37.0445Q71.7307-39.5483 75.1563-41.9466Q78.937-44.5769 80.976-46.2154Q83.0151-47.854 83.0151-50.2751Q83.0151-52.2495 81.3827-53.701Q79.7503-55.1526 77.452-55.1526Q75.6072-55.1526 74.0241-54.3995Q72.4409-53.6465 70.9078-51.5755L70.379-50.8731Q69.0959-49.2072 67.3061-48.4088Q65.5163-47.6104 63.2745-47.6104Q59.9243-47.6104 57.768-49.8298Q55.6118-52.0491 55.6118-55.0214Q55.6118-56.9959 56.5589-59.2194Q58.8113-64.2148 64.8861-67.3147Q70.9609-70.4146 79.544-70.4146Q86.4078-70.4146 91.8898-68.0211Q97.3719-65.6276 100.616-61.3721Q103.86-57.1167 103.86-51.4754Q103.86-46.1303 101.401-42.8526Q98.9413-39.575 93.6293-36.2997Q91.2005-34.7644 89.1748-33.1225Q87.1491-31.4806 86.5066-29.5796Q86.4482-29.4914 86.419-29.2767Q86.3898-29.0621 86.3314-28.8351Q85.7474-26.5104 83.3094-24.9979Q80.8715-23.4853 77.3297-23.4853ZM77.3454-0.946202Q73.025-0.946202 70.1073-3.29681Q67.1896-5.64741 67.1896-9.73282Q67.1896-13.8182 70.097-16.1792Q73.0043-18.5402 77.3454-18.5402Q81.6864-18.5402 84.5159-16.1603Q87.3453-13.7805 87.3453-9.73282Q87.3453-5.62668 84.5055-3.28644Q81.6657-0.946202 77.3454-0.946202Z"/>
  </g>
  <g id="Heavy-L" transform="matrix(1 0 0 1 2558.42 1556)">
   <path d="M78.2511 31.7672Q92.088 31.7672 104.202 26.5464Q116.316 21.3256 125.559 12.0677Q134.802 2.8099 140.04-9.30402Q145.279-21.4179 145.279-35.2251Q145.279-49.0322 140.04-61.1461Q134.802-73.2601 125.544-82.5179Q116.286-91.7758 104.172-96.9966Q92.0582-102.217 78.2213-102.217Q64.4202-102.217 52.3033-96.9966Q40.1863-91.7758 30.9613-82.5179Q21.7362-73.2601 16.4975-61.1461Q11.2588-49.0322 11.2588-35.2251Q11.2588-21.4179 16.4975-9.30402Q21.7362 2.8099 30.9761 12.0677Q40.2161 21.3256 52.333 26.5464Q64.45 31.7672 78.2511 31.7672ZM76.5423-23.1107Q67.814-23.1107 67.814-29.9411Q67.814-30.0638 67.814-30.1507Q67.814-30.2376 67.814-30.3663Q67.814-34.0361 70.0012-36.6335Q72.1885-39.2309 75.6293-41.6439Q79.535-44.3759 81.578-46.1326Q83.6211-47.8892 83.6211-50.5171Q83.6211-52.9111 81.725-54.573Q79.8289-56.2348 77.0078-56.2348Q74.7762-56.2348 72.9424-55.2523Q71.1087-54.2698 69.5702-51.9893L68.9244-51.0957Q67.7491-49.5686 66.133-48.7916Q64.5169-48.0145 62.4334-48.0145Q59.508-48.0145 57.5423-49.9728Q55.5766-51.931 55.5766-54.6751Q55.5766-56.5303 56.4306-58.6228Q58.4425-63.5046 64.313-66.6788Q70.1835-69.853 78.6858-69.853Q85.2217-69.853 90.5039-67.5841Q95.7861-65.3151 98.9228-61.206Q102.06-57.0968 102.06-51.5467Q102.06-46.1179 99.4806-42.8179Q96.9016-39.5178 91.7223-36.283Q89.0582-34.5723 87.1316-32.8472Q85.205-31.1222 84.7142-29.0182Q84.6695-28.9016 84.6472-28.6839Q84.6249-28.4661 84.5803-28.2244Q84.1341-26.0218 81.9601-24.5663Q79.7862-23.1107 76.5423-23.1107ZM76.5213-1.38231Q72.5802-1.38231 69.8759-3.62553Q67.1715-5.86876 67.1715-9.62532Q67.1715-13.3819 69.861-15.64Q72.5505-17.8981 76.5213-17.8981Q80.4922-17.8981 83.1266-15.6326Q85.761-13.367 85.761-9.62532Q85.761-5.839 83.1117-3.61065Q80.4624-1.38231 76.5213-1.38231Z"/>
  </g>
  <g id="Bold-L" transform="matrix(1 0 0 1 2262.89 1556)">
   <path d="M77.0653 30.566Q90.6516 30.566 102.549 25.4396Q114.447 20.3133 123.533 11.2089Q132.619 2.10448 137.771-9.79333Q142.923-21.6912 142.923-35.2405Q142.923-48.7898 137.771-60.6877Q132.619-72.5855 123.515-81.6899Q114.41-90.7942 102.512-95.9206Q90.6146-101.047 77.0283-101.047Q63.4932-101.047 51.5882-95.9206Q39.6833-90.7942 30.623-81.6899Q21.5627-72.5855 16.4108-60.6877Q11.2588-48.7898 11.2588-35.2405Q11.2588-21.6912 16.4108-9.79333Q21.5627 2.10448 30.6415 11.2089Q39.7203 20.3133 51.6252 25.4396Q63.5301 30.566 77.0653 30.566ZM75.5434-22.732Q68.2886-22.732 68.2886-28.7375Q68.2886-28.9175 68.2886-29.0726Q68.2886-29.2276 68.2886-29.4218Q68.2886-33.3996 70.4788-36.0917Q72.6689-38.7838 76.1526-41.2305Q80.2153-44.0878 82.2529-45.9938Q84.2904-47.8998 84.2904-50.759Q84.2904-53.6512 82.0647-55.5714Q79.839-57.4915 76.3669-57.4915Q73.602-57.4915 71.4403-56.1717Q69.2787-54.8519 67.8062-52.2852L67.0756-51.2123Q66.0612-49.8578 64.6653-49.1176Q63.2694-48.3774 61.4003-48.3774Q58.9905-48.3774 57.2782-50.0147Q55.566-51.652 55.566-54.0864Q55.566-55.811 56.2928-57.7107Q58.0069-62.4884 63.6085-65.7617Q69.2102-69.0349 77.5732-69.0349Q83.7106-69.0349 88.7276-66.9139Q93.7446-64.7929 96.7249-60.8776Q99.7053-56.9624 99.7053-51.5863Q99.7053-46.13 97.0374-42.8164Q94.3695-39.5029 89.3271-36.296Q86.3825-34.3748 84.5726-32.548Q82.7626-30.7213 82.4413-28.3759Q82.4121-28.2102 82.3975-27.9746Q82.3829-27.739 82.3537-27.4636Q82.0617-25.4465 80.2219-24.0893Q78.3821-22.732 75.5434-22.732ZM75.4844-2.0342Q72.0136-2.0342 69.5853-4.12566Q67.1571-6.21711 67.1571-9.55688Q67.1571-12.8967 69.5668-15.0066Q71.9766-17.1166 75.4844-17.1166Q78.9922-17.1166 81.3696-15.0105Q83.7469-12.9044 83.7469-9.55688Q83.7469-6.18012 81.3511-4.10716Q78.9552-2.0342 75.4844-2.0342Z"/>
  </g>
  <g id="Semibold-L" transform="matrix(1 0 0 1 1966.99 1556)">
   <path d="M76.2478 29.7379Q89.6614 29.7379 101.41 24.6766Q113.159 19.6153 122.137 10.6168Q131.114 1.61818 136.206-10.1307Q141.299-21.8795 141.299-35.2511Q141.299-48.6228 136.206-60.3716Q131.114-72.1204 122.116-81.119Q113.117-90.1176 101.368-95.1789Q89.6194-100.24 76.2058-100.24Q62.854-100.24 51.0953-95.1789Q39.3365-90.1176 30.3898-81.119Q21.4432-72.1204 16.351-60.3716Q11.2588-48.6228 11.2588-35.2511Q11.2588-21.8795 16.351-10.1307Q21.4432 1.61818 30.4108 10.6168Q39.3785 19.6153 51.1372 24.6766Q62.896 29.7379 76.2478 29.7379ZM74.8548-22.4709Q68.6158-22.4709 68.6158-27.9077Q68.6158-28.1272 68.6158-28.3293Q68.6158-28.5314 68.6158-28.7708Q68.6158-32.9608 70.808-35.7182Q73.0001-38.4756 76.5133-40.9455Q80.6844-43.8891 82.7181-45.8981Q84.7518-47.9071 84.7518-50.9258Q84.7518-54.1615 82.2989-56.2596Q79.846-58.3578 75.9252-58.3578Q72.7925-58.3578 70.4048-56.8055Q68.0171-55.2532 66.5902-52.4892L65.801-51.2928Q64.8976-50.0571 63.6535-49.3423Q62.4094-48.6276 60.6881-48.6276Q58.6338-48.6276 57.0962-50.0437Q55.5587-51.4597 55.5587-53.6805Q55.5587-55.3151 56.1977-57.0819Q57.7066-61.7879 63.1229-65.1294Q68.5392-68.4709 76.8063-68.4709Q82.6689-68.4709 87.5031-66.4518Q92.3372-64.4328 95.2097-60.6513Q98.0823-56.8698 98.0823-51.6135Q98.0823-46.1383 95.3531-42.8154Q92.624-39.4926 87.6758-36.3049Q84.538-34.2386 82.8084-32.3417Q81.0788-30.4449 80.8745-27.9331Q80.8559-27.7335 80.8466-27.4856Q80.8373-27.2378 80.8187-26.9391Q80.633-25.0499 79.0236-23.7604Q77.4142-22.4709 74.8548-22.4709ZM74.7696-2.48362Q71.623-2.48362 69.385-4.47044Q67.1471-6.45726 67.1471-9.5097Q67.1471-12.5621 69.364-14.57Q71.581-16.5778 74.7696-16.5778Q77.9582-16.5778 80.1583-14.5817Q82.3584-12.5855 82.3584-9.5097Q82.3584-6.41529 80.1373-4.44945Q77.9162-2.48362 74.7696-2.48362Z"/>
  </g>
  <g id="Medium-L" transform="matrix(1 0 0 1 1670.9 1556)">
   <path d="M75.6279 29.11Q88.9106 29.11 100.546 24.0981Q112.182 19.0862 121.078 10.1678Q129.973 1.24944 135.02-10.3864Q140.067-22.0223 140.067-35.2592Q140.067-48.4961 135.02-60.1319Q129.973-71.7678 121.055-80.6862Q112.137-89.6045 100.501-94.6164Q88.8648-99.6283 75.5822-99.6283Q62.3695-99.6283 50.7215-94.6164Q39.0736-89.6045 30.213-80.6862Q21.3525-71.7678 16.3056-60.1319Q11.2588-48.4961 11.2588-35.2592Q11.2588-22.0223 16.3056-10.3864Q21.3525 1.24944 30.2359 10.1678Q39.1193 19.0862 50.7673 24.0981Q62.4152 29.11 75.6279 29.11ZM74.3327-22.2729Q68.8639-22.2729 68.8639-27.2785Q68.8639-27.528 68.8639-27.7657Q68.8639-28.0034 68.8639-28.2771Q68.8639-32.628 71.0576-35.4349Q73.2512-38.2418 76.7869-40.7294Q81.04-43.7385 83.0708-45.8256Q85.1017-47.9127 85.1017-51.0522Q85.1017-54.5484 82.4765-56.7815Q79.8513-59.0147 75.5902-59.0147Q72.1787-59.0147 69.6196-57.2861Q67.0605-55.5575 65.6681-52.6439L64.8346-51.3537Q64.0153-50.2083 62.8863-49.5127Q61.7573-48.8172 60.1481-48.8172Q58.3632-48.8172 56.9582-50.0656Q55.5531-51.3139 55.5531-53.3727Q55.5531-54.9391 56.1257-56.6051Q57.4789-61.2567 62.7546-64.65Q68.0304-68.0432 76.2247-68.0432Q81.8791-68.0432 86.5745-66.1015Q91.27-64.1598 94.0608-60.4797Q96.8517-56.7995 96.8517-51.6342Q96.8517-46.1446 94.076-42.8147Q91.3004-39.4848 86.4238-36.3117Q83.1393-34.1353 81.4707-32.1853Q79.802-30.2353 79.6864-27.5974Q79.6759-27.372 79.6706-27.1149Q79.6654-26.8577 79.6549-26.5414Q79.5497-24.7492 78.115-23.511Q76.6802-22.2729 74.3327-22.2729ZM74.2276-2.82438Q71.3268-2.82438 69.2332-4.73187Q67.1395-6.63935 67.1395-9.47393Q67.1395-12.3085 69.2103-14.2389Q71.281-16.1692 74.2276-16.1692Q77.1741-16.1692 79.2398-14.2565Q81.3056-12.3437 81.3056-9.47393Q81.3056-6.5936 79.217-4.70899Q77.1283-2.82438 74.2276-2.82438Z"/>
  </g>
  <g id="Regular-L" transform="matrix(1 0 0 1 1374.99 1556)">
   <path d="M74.8194 28.2909Q87.9312 28.2909 99.4198 23.3434Q110.908 18.3959 119.697 9.58221Q128.485 0.768476 133.473-10.7201Q138.46-22.2086 138.46-35.2697Q138.46-48.3308 133.473-59.8193Q128.485-71.3079 119.671-80.1216Q110.858-88.9353 99.3691-93.8828Q87.8805-98.8303 74.7687-98.8303Q61.7374-98.8303 50.234-93.8828Q38.7306-88.9353 29.9824-80.1216Q21.2342-71.3079 16.2465-59.8193Q11.2588-48.3308 11.2588-35.2697Q11.2588-22.2086 16.2465-10.7201Q21.2342 0.768476 30.0077 9.58221Q38.7813 18.3959 50.2847 23.3434Q61.7881 28.2909 74.8194 28.2909ZM73.6517-22.0147Q69.1875-22.0147 69.1875-26.4579Q69.1875-26.7464 69.1875-27.0306Q69.1875-27.3148 69.1875-27.6332Q69.1875-32.1941 71.3832-35.0655Q73.5788-37.937 77.1436-40.4476Q81.5039-43.5421 83.531-45.731Q85.558-47.9199 85.558-51.2171Q85.558-55.053 82.7081-57.4622Q79.8582-59.8715 75.1533-59.8715Q71.3781-59.8715 68.5955-57.9129Q65.8128-55.9544 64.4654-52.8456L63.574-51.4333Q62.8645-50.4054 61.8856-49.735Q60.9068-49.0647 59.4437-49.0647Q58.0104-49.0647 56.7781-50.0942Q55.5459-51.1237 55.5459-52.9713Q55.5459-54.4486 56.0317-55.9833Q57.1819-60.5639 62.2743-64.0246Q67.3668-67.4854 75.4661-67.4854Q80.8488-67.4854 85.3634-65.6446Q89.8781-63.8037 92.5623-60.2558Q95.2465-56.7079 95.2465-51.6611Q95.2465-46.1528 92.4102-42.8137Q89.574-39.4746 84.7907-36.3206Q81.315-34.0006 79.7259-31.9813Q78.1368-29.962 78.1368-27.1594Q78.1368-26.9006 78.1368-26.6313Q78.1368-26.3619 78.1368-26.0227Q78.1368-24.3569 76.9298-23.1858Q75.7229-22.0147 73.6517-22.0147ZM73.5206-3.26885Q70.9404-3.26885 69.0351-5.07286Q67.1297-6.87686 67.1297-9.42726Q67.1297-11.9777 69.0097-13.807Q70.8897-15.6364 73.5206-15.6364Q76.1514-15.6364 78.0419-13.8323Q79.9324-12.0283 79.9324-9.42726Q79.9324-6.82618 78.0165-5.04752Q76.1007-3.26885 73.5206-3.26885Z"/>
  </g>
  <g id="Light-L" transform="matrix(1 0 0 1 1079.2 1556)">
   <path d="M73.8959 27.3674Q86.8436 27.3674 98.1577 22.502Q109.472 17.6366 118.137 8.95629Q126.802 0.275949 131.708-11.0381Q136.614-22.3522 136.614-35.2697Q136.614-48.1872 131.708-59.5013Q126.802-70.8154 118.122-79.4957Q109.442-88.176 98.1275-93.0414Q86.8134-97.9069 73.8658-97.9069Q60.9986-97.9069 49.6594-93.0414Q38.3201-88.176 29.6951-79.4957Q21.07-70.8154 16.1644-59.5013Q11.2588-48.1872 11.2588-35.2697Q11.2588-22.3522 16.1644-11.0381Q21.07 0.275949 29.7102 8.95629Q38.3503 17.6366 49.6895 22.502Q61.0287 27.3674 73.8959 27.3674ZM72.8103-22.302Q69.3722-22.302 69.3722-25.7601Q69.3722-26.1924 69.3722-26.5894Q69.3722-26.9865 69.3722-27.469Q69.3722-31.681 71.3626-34.4806Q73.353-37.2803 77.1026-39.914Q81.586-43.0906 83.5412-45.4026Q85.4964-47.7147 85.4964-51.0119Q85.4964-55.053 82.4003-57.6264Q79.3041-60.1998 74.1272-60.1998Q69.6338-60.1998 66.5125-57.6667Q63.3912-55.1335 62.5568-51.6554L61.9939-50.4893Q61.5716-49.5845 60.7775-49.0065Q59.9833-48.4285 58.787-48.4285Q57.641-48.4285 56.6961-49.2528Q55.7511-50.0771 55.7511-51.5348Q55.7511-53.0326 56.0728-54.2389Q57.0177-58.9837 61.8229-62.5573Q66.628-66.131 74.3785-66.131Q79.5354-66.131 83.7525-64.3517Q87.9695-62.5724 90.3972-59.24Q92.8249-55.9075 92.8249-51.3738Q92.8249-46.3375 90.3067-43.0805Q87.7886-39.8234 82.9232-36.5463Q79.3244-34.1237 77.7763-32.0428Q76.2282-29.962 76.2282-27.0568Q76.2282-26.6748 76.2282-26.3029Q76.2282-25.931 76.2282-25.4686Q76.2282-24.1517 75.2983-23.2268Q74.3684-22.302 72.8103-22.302ZM72.6997-4.43861Q70.4479-4.43861 68.8093-6.01687Q67.1707-7.59513 67.1707-9.79666Q67.1707-11.9982 68.7942-13.5915Q70.4177-15.1849 72.6997-15.1849Q74.9816-15.1849 76.5951-13.6066Q78.2085-12.0283 78.2085-9.79666Q78.2085-7.56497 76.58-6.00179Q74.9515-4.43861 72.6997-4.43861Z"/>
  </g>
  <g id="Thin-L" transform="matrix(1 0 0 1 783.716 1556)">
   <path d="M72.6746 26.1461Q85.405 26.1461 96.4884 21.3892Q107.572 16.6324 116.074 8.12846Q124.577-0.375458 129.374-11.4588Q134.171-22.5422 134.171-35.2697Q134.171-47.9972 129.374-59.0806Q124.577-70.1639 116.073-78.6679Q107.569-87.1718 96.4854-91.9286Q85.402-96.6855 72.6715-96.6855Q60.0215-96.6855 48.8994-91.9286Q37.7773-87.1718 29.3151-78.6679Q20.8529-70.1639 16.0558-59.0806Q11.2588-47.9972 11.2588-35.2697Q11.2588-22.5422 16.0558-11.4588Q20.8529-0.375458 29.3166 8.12846Q37.7803 16.6324 48.9024 21.3892Q60.0245 26.1461 72.6746 26.1461ZM71.6974-22.682Q69.6165-22.682 69.6165-24.8373Q69.6165-25.4595 69.6165-26.0059Q69.6165-26.5522 69.6165-27.2518Q69.6165-31.0025 71.3355-33.7071Q73.0545-36.4117 77.0483-39.2083Q81.6946-42.4935 83.5548-44.9684Q85.415-47.4433 85.415-50.7405Q85.415-55.053 81.9932-57.8436Q78.5713-60.6341 72.7701-60.6341Q67.3267-60.6341 63.7576-57.341Q60.1885-54.0478 60.0326-50.0811L59.9039-49.2407Q59.8617-48.4988 59.3118-48.043Q58.7619-47.5871 57.9185-47.5871Q57.1525-47.5871 56.5875-48.14Q56.0225-48.6929 56.0225-49.6348Q56.0225-51.1598 56.1271-51.9318Q56.8006-56.8937 61.2257-60.6167Q65.6509-64.3396 72.94-64.3396Q77.7983-64.3396 81.6218-62.6417Q85.4453-60.9439 87.5337-57.8964Q89.6222-54.849 89.6222-50.9938Q89.6222-46.5818 87.5247-43.4333Q85.4272-40.2849 80.4532-36.8449Q76.6916-34.2866 75.1978-32.1243Q73.704-29.962 73.704-26.9211Q73.704-26.3763 73.704-25.8686Q73.704-25.361 73.704-24.7357Q73.704-23.8802 73.1405-23.2811Q72.5771-22.682 71.6974-22.682ZM71.614-5.9857Q69.7965-5.9857 68.5108-7.2654Q67.225-8.5451 67.225-10.2852Q67.225-12.0253 68.5092-13.3065Q69.7935-14.5877 71.614-14.5877Q73.4345-14.5877 74.6816-13.308Q75.9286-12.0283 75.9286-10.2852Q75.9286-8.54208 74.6801-7.26389Q73.4315-5.9857 71.614-5.9857Z"/>
  </g>
  <g id="Ultralight-L" transform="matrix(1 0 0 1 487.631 1556)">
   <path d="M72.049 25.5205Q84.6682 25.5205 95.6335 20.8192Q106.599 16.118 115.018 7.70445Q123.437-0.709105 128.178-11.6743Q132.92-22.6395 132.92-35.2697Q132.92-47.8999 128.178-58.8651Q123.437-69.8303 115.023-78.2439Q106.61-86.6574 95.6443-91.3586Q84.6791-96.0599 72.0598-96.0599Q59.521-96.0599 48.5101-91.3586Q37.4993-86.6574 29.1205-78.2439Q20.7417-69.8303 16.0002-58.8651Q11.2588-47.8999 11.2588-35.2697Q11.2588-22.6395 16.0002-11.6743Q20.7417-0.709105 29.115 7.70445Q37.4884 16.118 48.4992 20.8192Q59.5101 25.5205 72.049 25.5205ZM71.1275-22.8766Q69.7416-22.8766 69.7416-24.3646Q69.7416-25.0842 69.7416-25.707Q69.7416-26.3298 69.7416-27.1406Q69.7416-30.6549 71.3216-33.3109Q72.9016-35.9669 77.0205-38.8469Q81.7502-42.1876 83.5617-44.7459Q85.3733-47.3043 85.3733-50.6015Q85.3733-55.053 81.7846-57.9548Q78.196-60.8566 72.075-60.8566Q66.145-60.8566 62.3465-57.1741Q58.548-53.4917 58.7397-49.2748L58.8335-48.6012Q58.9859-47.9428 58.5611-47.5494Q58.1363-47.1561 57.4736-47.1561Q56.9022-47.1561 56.5319-47.57Q56.1615-47.9839 56.1615-48.6617Q56.1615-50.2006 56.1549-50.7502Q56.6894-55.8233 60.9199-59.6227Q65.1504-63.4221 72.2031-63.4221Q76.9086-63.4221 80.5305-61.7659Q84.1524-60.1097 86.0671-57.2083Q87.9817-54.3068 87.9817-50.7992Q87.9817-46.7069 86.0997-43.614Q84.2177-40.5212 79.1882-36.9978Q75.3431-34.37 73.8771-32.166Q72.4111-29.962 72.4111-26.8516Q72.4111-26.2234 72.4111-25.6462Q72.4111-25.0691 72.4111-24.3604Q72.4111-23.7412 72.0353-23.3089Q71.6595-22.8766 71.1275-22.8766ZM71.0579-6.77811Q69.4628-6.77811 68.3578-7.90489Q67.2528-9.03167 67.2528-10.5354Q67.2528-12.0392 68.3633-13.1606Q69.4737-14.2819 71.0579-14.2819Q72.6421-14.2819 73.7015-13.1551Q74.7608-12.0283 74.7608-10.5354Q74.7608-9.04255 73.7069-7.91033Q72.653-6.77811 71.0579-6.77811Z"/>
  </g>
  <g id="Black-M" transform="matrix(1 0 0 1 2871.36 1126)">
   <path d="M62.0423 18.1161Q73.0725 18.1161 82.714 13.9613Q92.3555 9.80654 99.704 2.45531Q107.052-4.89592 111.21-14.5374Q115.367-24.1789 115.367-35.2035Q115.367-46.2282 111.21-55.8697Q107.052-65.5112 99.7012-72.8624Q92.35-80.2136 82.7085-84.3684Q73.067-88.5232 62.0368-88.5232Q51.0119-88.5232 41.3705-84.3684Q31.7292-80.2136 24.3833-72.8624Q17.0375-65.5112 12.8801-55.8697Q8.72266-46.2282 8.72266-35.2035Q8.72266-24.1789 12.8801-14.5374Q17.0375-4.89592 24.3861 2.45531Q31.7347 9.80654 41.376 13.9613Q51.0174 18.1161 62.0423 18.1161ZM60.4733-26.4917Q51.9079-26.4917 51.9079-32.6532Q51.9079-32.7134 51.9079-32.7195Q51.9079-32.7257 51.9079-32.7855Q51.9079-35.0601 53.5283-36.9097Q55.1488-38.7593 57.8147-40.6214Q60.6531-42.5828 62.2196-43.7675Q63.7861-44.9522 63.7861-46.6502Q63.7861-47.847 62.7147-48.8131Q61.6434-49.7791 60.248-49.7791Q59.0539-49.7791 57.9969-49.3151Q56.94-48.851 55.8263-47.3766L55.5616-47.03Q54.5138-45.6368 53.0029-45.0124Q51.492-44.388 49.6554-44.388Q46.7336-44.388 44.9382-46.304Q43.1429-48.2201 43.1429-50.666Q43.1429-52.301 43.9344-54.0919Q45.8583-58.082 50.7014-60.435Q55.5445-62.788 62.2163-62.788Q67.7852-62.788 72.1637-60.835Q76.5423-58.882 79.1135-55.4885Q81.6847-52.095 81.6847-47.7156Q81.6847-43.7105 79.9249-41.2015Q78.165-38.6924 73.9245-36.1035Q72.2283-35.0509 70.5793-33.842Q68.9303-32.633 68.3023-31.3208Q68.2452-31.2603 68.2166-31.0827Q68.1881-30.9051 68.131-30.7252Q67.56-28.8666 65.4819-27.6791Q63.4038-26.4917 60.4733-26.4917ZM60.5197-8.45248Q56.8911-8.45248 54.4834-10.3353Q52.0757-12.2181 52.0757-15.6186Q52.0757-19.0191 54.4806-20.9046Q56.8856-22.7902 60.5197-22.7902Q64.1537-22.7902 66.476-20.8788Q68.7982-18.9675 68.7982-15.6186Q68.7982-12.2126 66.4732-10.3325Q64.1482-8.45248 60.5197-8.45248Z"/>
  </g>
  <g id="Heavy-M" transform="matrix(1 0 0 1 2575.48 1126)">
   <path d="M61.2045 17.2648Q72.0509 17.2648 81.541 13.1749Q91.0312 9.08498 98.2688 1.83921Q105.506-5.40657 109.606-14.8967Q113.705-24.3868 113.705-35.217Q113.705-46.0473 109.606-55.5374Q105.506-65.0275 98.2607-72.2733Q91.0149-79.519 81.5248-83.6089Q72.0347-87.6988 61.1882-87.6988Q50.3604-87.6988 40.8691-83.6089Q31.3778-79.519 24.1495-72.2733Q16.9211-65.0275 12.8219-55.5374Q8.72266-46.0473 8.72266-35.217Q8.72266-24.3868 12.8219-14.8967Q16.9211-5.40657 24.1576 1.83921Q31.394 9.08498 40.8853 13.1749Q50.3767 17.2648 61.2045 17.2648ZM59.7812-26.099Q52.283-26.099 52.283-31.7513Q52.283-31.8307 52.283-31.8721Q52.283-31.9136 52.283-31.9955Q52.283-34.6141 53.95-36.5618Q55.6171-38.5096 58.2809-40.3747Q61.23-42.428 62.8071-43.7168Q64.3842-45.0055 64.3842-46.9057Q64.3842-48.4938 63.0777-49.6503Q61.7713-50.8068 59.9084-50.8068Q58.4025-50.8068 57.1317-50.1714Q55.8609-49.536 54.6947-47.8909L54.2854-47.3347Q53.3165-46.0658 51.9584-45.4538Q50.6002-44.8417 48.8937-44.8417Q46.3607-44.8417 44.7251-46.5215Q43.0895-48.2012 43.0895-50.4601Q43.0895-51.9766 43.8052-53.6696Q45.5129-57.5334 50.1828-59.9487Q54.8526-62.364 61.4777-62.364Q66.7468-62.364 70.9575-60.527Q75.1682-58.6901 77.6579-55.4198Q80.1476-52.1494 80.1476-47.8119Q80.1476-43.6814 78.2417-41.1429Q76.3358-38.6044 72.2325-36.0664Q70.3177-34.8518 68.7618-33.5672Q67.2059-32.2827 66.7261-30.7815Q66.6824-30.7045 66.6606-30.5334Q66.6388-30.3623 66.5952-30.1794Q66.159-28.4079 64.3134-27.2534Q62.4678-26.099 59.7812-26.099ZM59.7899-8.77088Q56.5017-8.77088 54.278-10.5695Q52.0542-12.3682 52.0542-15.4794Q52.0542-18.5906 54.2699-20.3974Q56.4855-22.2042 59.7899-22.2042Q63.0942-22.2042 65.2513-20.3837Q67.4084-18.5632 67.4084-15.4794Q67.4084-12.352 65.2432-10.5614Q63.078-8.77088 59.7899-8.77088Z"/>
  </g>
  <g id="Bold-M" transform="matrix(1 0 0 1 2279.69 1126)">
   <path d="M60.2672 16.3124Q70.9082 16.3124 80.2289 12.2951Q89.5497 8.27781 96.6634 1.15Q103.777-5.9778 107.811-15.2986Q111.845-24.6193 111.845-35.2321Q111.845-45.8449 107.811-55.1656Q103.777-64.4864 96.6493-71.6142Q89.5215-78.742 80.2007-82.7593Q70.8799-86.7766 60.2389-86.7766Q49.6317-86.7766 40.3082-82.7593Q30.9846-78.742 23.8878-71.6142Q16.791-64.4864 12.7568-55.1656Q8.72266-45.8449 8.72266-35.2321Q8.72266-24.6193 12.7568-15.2986Q16.791-5.9778 23.902 1.15Q31.0129 8.27781 40.3364 12.2951Q49.6599 16.3124 60.2672 16.3124ZM59.0069-25.6597Q52.7025-25.6597 52.7025-30.7423Q52.7025-30.8432 52.7025-30.9242Q52.7025-31.0052 52.7025-31.1117Q52.7025-34.1151 54.4218-36.1727Q56.141-38.2303 58.8023-40.0988Q61.8754-42.2549 63.4643-43.66Q65.0533-45.0652 65.0533-47.1915Q65.0533-49.2173 63.4838-50.5868Q61.9143-51.9564 59.5286-51.9564Q57.6738-51.9564 56.1638-51.1294Q54.6539-50.3024 53.4289-48.4662L52.8578-47.6756Q51.9771-46.5458 50.7899-45.9475Q49.6027-45.3493 48.0416-45.3493Q45.9436-45.3493 44.4867-46.7647Q43.0298-48.18 43.0298-50.2297Q43.0298-51.6137 43.6606-53.1971Q45.1265-56.9198 49.6026-59.4047Q54.0787-61.8897 60.6514-61.8897Q65.5853-61.8897 69.6082-60.1825Q73.6311-58.4754 76.0296-55.3429Q78.4281-52.2104 78.4281-47.9196Q78.4281-43.6487 76.3588-41.0774Q74.2896-38.506 70.3398-36.0249Q68.1804-34.6291 66.7286-33.2599Q65.2769-31.8908 64.9628-30.1783Q64.9343-30.0828 64.92-29.9189Q64.9057-29.7551 64.8772-29.5688Q64.5917-27.8948 63.0062-26.7772Q61.4207-25.6597 59.0069-25.6597ZM58.9735-9.12707Q56.0661-9.12707 54.0482-10.8316Q52.0302-12.5362 52.0302-15.3237Q52.0302-18.1113 54.0341-19.83Q56.0379-21.5487 58.9735-21.5487Q61.909-21.5487 63.8814-19.8299Q65.8537-18.111 65.8537-15.3237Q65.8537-12.5079 63.8672-10.8175Q61.8808-9.12707 58.9735-9.12707Z"/>
  </g>
  <g id="Semibold-M" transform="matrix(1 0 0 1 1983.62 1126)">
   <path d="M59.621 15.6559Q70.1203 15.6559 79.3244 11.6886Q88.5284 7.72135 95.5566 0.674869Q102.585-6.37161 106.574-15.5756Q110.564-24.7797 110.564-35.2425Q110.564-45.7053 106.574-54.9093Q102.585-64.1134 95.5384-71.1598Q88.4919-78.2063 79.2879-82.1736Q70.0838-86.1408 59.5845-86.1408Q49.1293-86.1408 39.9215-82.1736Q30.7136-78.2063 23.7075-71.1598Q16.7013-64.1134 12.712-54.9093Q8.72266-45.7053 8.72266-35.2425Q8.72266-24.7797 12.712-15.5756Q16.7013-6.37161 23.7257 0.674869Q30.7501 7.72135 39.958 11.6886Q49.1658 15.6559 59.621 15.6559ZM58.4731-25.3568Q52.9918-25.3568 52.9918-30.0467Q52.9918-30.1625 52.9918-30.2707Q52.9918-30.379 52.9918-30.5024Q52.9918-33.7712 54.747-35.9045Q56.5022-38.0377 59.1617-39.9086Q62.3203-42.1355 63.9174-43.6209Q65.5145-45.1064 65.5145-47.3885Q65.5145-49.7161 63.7637-51.2325Q62.013-52.7489 59.2667-52.7489Q57.1714-52.7489 55.4966-51.7898Q53.8218-50.8306 52.5563-48.8628L51.8736-47.9106Q51.0538-46.8766 49.9844-46.2879Q48.9149-45.6993 47.4541-45.6993Q45.656-45.6993 44.3224-46.9323Q42.9887-48.1654 42.9887-50.0709Q42.9887-51.3634 43.5609-52.8714Q44.8602-56.4967 49.2026-59.0297Q53.5451-61.5627 60.0818-61.5627Q64.7845-61.5627 68.678-59.945Q72.5714-58.3274 74.907-55.2899Q77.2427-52.2524 77.2427-47.9938Q77.2427-43.6263 75.0608-41.0322Q72.8789-38.4381 69.035-35.9962Q66.707-34.4755 65.327-33.0481Q63.947-31.6206 63.7473-29.7624Q63.7291-29.6542 63.72-29.4953Q63.711-29.3364 63.6928-29.1478Q63.5112-27.541 62.105-26.4489Q60.6988-25.3568 58.4731-25.3568ZM58.4106-9.37262Q55.7659-9.37262 53.8898-11.0123Q52.0137-12.6519 52.0137-15.2164Q52.0137-17.7809 53.8715-19.4388Q55.7294-21.0968 58.4106-21.0968Q61.0919-21.0968 62.9369-19.448Q64.782-17.7993 64.782-15.2164Q64.782-12.6154 62.9187-10.994Q61.0554-9.37262 58.4106-9.37262Z"/>
  </g>
  <g id="Medium-M" transform="matrix(1 0 0 1 1687.4 1126)">
   <path d="M59.1311 15.158Q69.523 15.158 78.6385 11.2287Q87.754 7.29942 94.7174 0.314603Q101.681-6.67021 105.636-15.7857Q109.591-24.9012 109.591-35.2504Q109.591-45.5995 105.636-54.715Q101.681-63.8305 94.696-70.8153Q87.7112-77.8002 78.5957-81.7295Q69.4802-85.6588 59.0883-85.6588Q48.7484-85.6588 39.6283-81.7295Q30.5081-77.8002 23.5707-70.8153Q16.6333-63.8305 12.678-54.715Q8.72266-45.5995 8.72266-35.2504Q8.72266-24.9012 12.678-15.7857Q16.6333-6.67021 23.5921 0.314603Q30.5509 7.29942 39.671 11.2287Q48.7912 15.158 59.1311 15.158ZM58.0684-25.1272Q53.2111-25.1272 53.2111-29.5193Q53.2111-29.6463 53.2111-29.7752Q53.2111-29.9041 53.2111-30.0404Q53.2111-33.5104 54.9936-35.7011Q56.776-37.8917 59.4343-39.7643Q62.6577-42.0449 64.261-43.5912Q65.8643-45.1376 65.8643-47.5379Q65.8643-50.0943 63.976-51.722Q62.0877-53.3498 59.0681-53.3498Q56.7905-53.3498 54.9907-52.2905Q53.1909-51.2312 51.8946-49.1635L51.1273-48.0888Q50.3537-47.1275 49.3736-46.546Q48.3935-45.9646 47.0087-45.9646Q45.438-45.9646 44.1977-47.0595Q42.9575-48.1543 42.9575-49.9505Q42.9575-51.1737 43.4853-52.6245Q44.6582-56.176 48.8994-58.7454Q53.1406-61.3147 59.6499-61.3147Q64.1774-61.3147 67.9727-59.765Q71.7679-58.2152 74.0559-55.2497Q76.3438-52.2842 76.3438-48.0501Q76.3438-43.6092 74.0766-40.9979Q71.8093-38.3867 68.0456-35.9745Q65.5898-34.3591 64.2642-32.8874Q62.9386-31.4157 62.8256-29.4471Q62.8153-29.3293 62.8102-29.1741Q62.805-29.019 62.7948-28.8287Q62.692-27.2728 61.4217-26.2Q60.1515-25.1272 58.0684-25.1272ZM57.9839-9.55881Q55.5382-9.55881 53.7697-11.1493Q52.0012-12.7397 52.0012-15.1351Q52.0012-17.5304 53.7483-19.1422Q55.4954-20.7541 57.9839-20.7541Q60.4724-20.7541 62.2208-19.1585Q63.9693-17.5629 63.9693-15.1351Q63.9693-12.6969 62.1994-11.1279Q60.4296-9.55881 57.9839-9.55881Z"/>
  </g>
  <g id="Regular-M" transform="matrix(1 0 0 1 1391.32 1126)">
   <path d="M58.492 14.5087Q68.7438 14.5087 77.7439 10.6289Q86.7439 6.74907 93.6228-0.155309Q100.502-7.05969 104.413-16.0597Q108.324-25.0598 108.324-35.2606Q108.324-45.4615 104.413-54.4616Q100.502-63.4616 93.5973-70.366Q86.693-77.2704 77.6929-81.1502Q68.6929-85.03 58.441-85.03Q48.2515-85.03 39.2458-81.1502Q30.2401-77.2704 23.3923-70.366Q16.5446-63.4616 12.6336-54.4616Q8.72266-45.4615 8.72266-35.2606Q8.72266-25.0598 12.6336-16.0597Q16.5446-7.05969 23.4178-0.155309Q30.291 6.74907 39.2968 10.6289Q48.3025 14.5087 58.492 14.5087ZM57.5405-24.8277Q53.4972-24.8277 53.4972-28.8313Q53.4972-28.9731 53.4972-29.1289Q53.4972-29.2848 53.4972-29.4379Q53.4972-33.1702 55.3152-35.4357Q57.1332-37.7013 59.7898-39.5762Q63.0977-41.9269 64.7091-43.5526Q66.3205-45.1782 66.3205-47.7327Q66.3205-50.5876 64.2529-52.3606Q62.1853-54.1336 58.8091-54.1336Q56.2937-54.1336 54.3308-52.9436Q52.3679-51.7537 51.0316-49.5557L50.154-48.3212Q49.4405-47.4547 48.5769-46.8827Q47.7133-46.3107 46.4278-46.3107Q45.1536-46.3107 44.0352-47.2253Q42.9168-48.1398 42.9168-49.7934Q42.9168-50.9263 43.3868-52.3023Q44.3948-55.7576 48.5038-58.3745Q52.6129-60.9913 59.0866-60.9913Q63.3854-60.9913 67.0527-59.5301Q70.7199-58.0688 72.9456-55.1973Q75.1714-52.3258 75.1714-48.1235Q75.1714-43.587 72.7928-40.9533Q70.4141-38.3195 66.7551-35.9462Q64.1325-34.2072 62.878-32.6779Q61.6234-31.1485 61.6234-29.0358Q61.6234-28.9054 61.6234-28.7552Q61.6234-28.605 61.6234-28.4123Q61.6234-26.923 60.5305-25.8753Q59.4375-24.8277 57.5405-24.8277ZM57.4272-9.80166Q55.2412-9.80166 53.613-11.3279Q51.9848-12.8542 51.9848-15.0289Q51.9848-17.2036 53.5875-18.7554Q55.1902-20.3071 57.4272-20.3071Q59.6643-20.3071 61.2868-18.7809Q62.9093-17.2546 62.9093-15.0289Q62.9093-12.8033 61.2613-11.3025Q59.6133-9.80166 57.4272-9.80166Z"/>
  </g>
  <g id="Light-M" transform="matrix(1 0 0 1 1095.44 1126)">
   <path d="M57.664 13.6807Q67.7687 13.6807 76.6123 9.87453Q85.456 6.06831 92.2245-0.716478Q98.993-7.50127 102.83-16.3449Q106.668-25.1886 106.668-35.2606Q106.668-45.3327 102.83-54.1764Q98.993-63.02 92.2082-69.8048Q85.4234-76.5896 76.5798-80.3958Q67.7361-84.202 57.6315-84.202Q47.5892-84.202 38.7306-80.3958Q29.8721-76.5896 23.1348-69.8048Q16.3974-63.02 12.56-54.1764Q8.72266-45.3327 8.72266-35.2606Q8.72266-25.1886 12.56-16.3449Q16.3974-7.50127 23.151-0.716478Q29.9047 6.06831 38.7632 9.87453Q47.6217 13.6807 57.664 13.6807ZM56.7861-25.0853Q53.6628-25.0853 53.6628-28.2058Q53.6628-28.4763 53.6628-28.7333Q53.6628-28.9904 53.6628-29.2907Q53.6628-32.7102 55.2968-34.9114Q56.9308-37.1125 59.753-39.0978Q63.1713-41.5221 64.7183-43.2582Q66.2653-44.9943 66.2653-47.5487Q66.2653-50.5876 63.9769-52.5078Q61.6885-54.428 57.8892-54.428Q54.7297-54.428 52.4633-52.7229Q50.1968-51.0177 49.3205-48.4886L48.7372-47.4748Q48.2814-46.7187 47.5834-46.2295Q46.8853-45.7403 45.839-45.7403Q44.8224-45.7403 43.9616-46.4709Q43.1008-47.2015 43.1008-48.5055Q43.1008-49.6567 43.4236-50.7384Q44.2476-54.3408 48.099-57.0589Q51.9505-59.777 58.1114-59.777Q62.2079-59.777 65.6083-58.3709Q69.0088-56.9649 71.0046-54.2865Q73.0003-51.6082 73.0003-47.8659Q73.0003-43.7526 70.9069-41.1924Q68.8134-38.6323 65.0808-36.1486Q62.3478-34.3176 61.1301-32.7331Q59.9123-31.1485 59.9123-28.9438Q59.9123-28.703 59.9123-28.4608Q59.9123-28.2186 59.9123-27.9156Q59.9123-26.739 59.0678-25.9121Q58.2232-25.0853 56.7861-25.0853ZM56.6913-10.8504Q54.7996-10.8504 53.4106-12.1743Q52.0216-13.4982 52.0216-15.3601Q52.0216-17.222 53.3943-18.5622Q54.7671-19.9024 56.6913-19.9024Q58.6155-19.9024 59.9896-18.5785Q61.3638-17.2546 61.3638-15.3601Q61.3638-13.4656 59.9734-12.158Q58.583-10.8504 56.6913-10.8504Z"/>
  </g>
  <g id="Thin-M" transform="matrix(1 0 0 1 799.828 1126)">
   <path d="M56.569 12.5857Q66.479 12.5857 75.1158 8.87683Q83.7526 5.16794 90.3751-1.45867Q96.9976-8.08529 100.738-16.7221Q104.478-25.3589 104.478-35.2606Q104.478-45.1624 100.738-53.7992Q96.9976-62.436 90.371-69.0626Q83.7444-75.6892 75.1076-79.3981Q66.4707-83.107 56.5608-83.107Q46.7131-83.107 38.0493-79.3981Q29.3854-75.6892 22.7941-69.0626Q16.2027-62.436 12.4627-53.7992Q8.72266-45.1624 8.72266-35.2606Q8.72266-25.3589 12.4627-16.7221Q16.2027-8.08529 22.7982-1.45867Q29.3936 5.16794 38.0575 8.87683Q46.7214 12.5857 56.569 12.5857ZM55.7884-25.4259Q53.8818-25.4259 53.8818-27.3784Q53.8818-27.8193 53.8818-28.2102Q53.8818-28.6011 53.8818-29.096Q53.8818-32.1018 55.2725-34.2178Q56.6631-36.3338 59.7043-38.4652Q63.2687-40.9867 64.7305-42.8688Q66.1923-44.7509 66.1923-47.3054Q66.1923-50.5876 63.6119-52.7025Q61.0315-54.8173 56.6724-54.8173Q52.6613-54.8173 49.9934-52.4308Q47.3254-50.0444 47.0574-47.0772L46.8635-46.3555Q46.7483-45.7454 46.2693-45.3657Q45.7903-44.986 45.0603-44.986Q44.3844-44.986 43.8643-45.4732Q43.3441-45.9605 43.3441-46.8021Q43.3441-47.9777 43.4722-48.67Q44.0529-52.4671 47.5637-55.319Q51.0745-58.171 56.8217-58.171Q60.6505-58.171 63.6981-56.8379Q66.7457-55.5048 68.4373-53.082Q70.1289-50.6592 70.1289-47.5252Q70.1289-43.9716 68.4126-41.5088Q66.6963-39.046 62.8664-36.4162Q59.9874-34.4636 58.8183-32.8061Q57.6492-31.1485 57.6492-28.8221Q57.6492-28.4353 57.6492-28.0715Q57.6492-27.7076 57.6492-27.2585Q57.6492-26.4956 57.1332-25.9608Q56.6171-25.4259 55.7884-25.4259ZM55.7179-12.2375Q54.2156-12.2375 53.1429-13.2937Q52.0703-14.3499 52.0703-15.7981Q52.0703-17.2464 53.1388-18.3067Q54.2074-19.367 55.7179-19.367Q57.2285-19.367 58.2741-18.3108Q59.3197-17.2546 59.3197-15.7981Q59.3197-14.3416 58.27-13.2896Q57.2202-12.2375 55.7179-12.2375Z"/>
  </g>
  <g id="Ultralight-M" transform="matrix(1 0 0 1 503.679 1126)">
   <path d="M56.0081 12.0248Q65.8184 12.0248 74.3492 8.36581Q82.8801 4.70678 89.4278-1.83882Q95.9756-8.38442 99.6657-16.9153Q103.356-25.4462 103.356-35.2606Q103.356-45.0751 99.6657-53.606Q95.9756-62.1369 89.43-68.6825Q82.8844-75.2281 74.3535-78.8871Q65.8226-82.5461 56.0124-82.5461Q46.2644-82.5461 37.7003-78.8871Q29.1361-75.2281 22.6196-68.6825Q16.103-62.1369 12.4128-53.606Q8.72266-45.0751 8.72266-35.2606Q8.72266-25.4462 12.4128-16.9153Q16.103-8.38442 22.6175-1.83882Q29.1319 4.70678 37.6961 8.36581Q46.2602 12.0248 56.0081 12.0248ZM55.2774-25.6004Q53.994-25.6004 53.994-26.9547Q53.994-27.4828 53.994-27.9422Q53.994-28.4016 53.994-28.9963Q53.994-31.7903 55.26-33.8626Q56.526-35.935 59.6794-38.1411Q63.3185-40.7125 64.7367-42.6694Q66.1549-44.6263 66.1549-47.1808Q66.1549-50.5876 63.4249-52.8022Q60.695-55.0167 56.0493-55.0167Q51.6019-55.0167 48.7283-52.2813Q45.8546-49.5458 45.8983-46.3543L45.9038-45.7821Q45.9631-45.2468 45.5963-44.9232Q45.2294-44.5996 44.6615-44.5996Q44.1601-44.5996 43.8144-44.9622Q43.4687-45.3248 43.4687-45.9296Q43.4687-47.1177 43.4971-47.6106Q43.9532-51.5074 47.2895-54.4279Q50.6258-57.3483 56.1611-57.3483Q59.8528-57.3483 62.7197-56.0527Q65.5866-54.757 67.1224-52.465Q68.6582-50.1731 68.6582-47.3507Q68.6582-44.0837 67.1351-41.6708Q65.612-39.2579 61.7322-36.5534Q58.7784-34.5384 57.6342-32.8435Q56.4901-31.1485 56.4901-28.7598Q56.4901-28.2982 56.4901-27.872Q56.4901-27.4459 56.4901-26.922Q56.4901-26.371 56.1423-25.9857Q55.7945-25.6004 55.2774-25.6004ZM55.2194-12.9479Q53.9165-12.9479 53.0058-13.867Q52.0952-14.7861 52.0952-16.0225Q52.0952-17.2588 53.0079-18.1758Q53.9207-19.0928 55.2194-19.0928Q56.518-19.0928 57.3954-18.1737Q58.2728-17.2546 58.2728-16.0225Q58.2728-14.7903 57.3975-13.8691Q56.5223-12.9479 55.2194-12.9479Z"/>
  </g>
  <g id="Black-S" transform="matrix(1 0 0 1 2884.57 696)">
   <path d="M48.8281 6.78711Q57.5195 6.78711 65.1123 3.51562Q72.7051 0.244141 78.4912-5.54199Q84.2773-11.3281 87.5488-18.9209Q90.8203-26.5137 90.8203-35.2051Q90.8203-43.8965 87.5488-51.4893Q84.2773-59.082 78.4912-64.8682Q72.7051-70.6543 65.1123-73.9258Q57.5195-77.1973 48.8281-77.1973Q40.1367-77.1973 32.5439-73.9258Q24.9512-70.6543 19.165-64.8682Q13.3789-59.082 10.1074-51.4893Q6.83594-43.8965 6.83594-35.2051Q6.83594-26.5137 10.1074-18.9209Q13.3789-11.3281 19.165-5.54199Q24.9512 0.244141 32.5439 3.51562Q40.1367 6.78711 48.8281 6.78711ZM47.5586-28.5156Q40.5762-28.5156 40.5762-33.4473Q40.5762-33.4961 40.5762-33.4961Q40.5762-33.4961 40.5762-33.5449Q40.5762-35.2051 41.8213-36.6211Q43.0664-38.0371 45.166-39.502Q47.3633-41.0156 48.584-41.9189Q49.8047-42.8223 49.8047-44.0918Q49.8047-44.9219 49.0234-45.6299Q48.2422-46.3379 47.2656-46.3379Q46.3867-46.3379 45.6055-45.9961Q44.8242-45.6543 43.9941-44.5312L43.8477-44.3359Q43.0176-43.2129 41.7969-42.7246Q40.5762-42.2363 39.1113-42.2363Q36.7188-42.2363 35.2783-43.7988Q33.8379-45.3613 33.8379-47.3145Q33.8379-48.6328 34.4727-50.0488Q36.0352-53.2227 39.8682-55.0537Q43.7012-56.8848 48.9258-56.8848Q53.3691-56.8848 56.8359-55.3223Q60.3027-53.7598 62.3291-51.0742Q64.3555-48.3887 64.3555-44.9707Q64.3555-41.8945 63.0371-39.9414Q61.7188-37.9883 58.3496-35.9375Q57.0801-35.1562 55.7617-34.2285Q54.4434-33.3008 53.9062-32.3242Q53.8574-32.2754 53.833-32.1289Q53.8086-31.9824 53.7598-31.8359Q53.2715-30.3711 51.5869-29.4434Q49.9023-28.5156 47.5586-28.5156ZM47.6074-14.209Q44.6777-14.209 42.749-15.6982Q40.8203-17.1875 40.8203-19.9219Q40.8203-22.6562 42.749-24.1455Q44.6777-25.6348 47.6074-25.6348Q50.5371-25.6348 52.3926-24.1211Q54.248-22.6074 54.248-19.9219Q54.248-17.1875 52.3926-15.6982Q50.5371-14.209 47.6074-14.209Z"/>
  </g>
  <g id="Heavy-S" transform="matrix(1 0 0 1 2588.47 696)">
   <path d="M48.2173 6.16479Q56.7704 6.16479 64.2537 2.9394Q71.737-0.285985 77.4425-5.99721Q83.1479-11.7084 86.3791-19.1917Q89.6102-26.675 89.6102-35.2166Q89.6102-43.7582 86.3791-51.2415Q83.1479-58.7248 77.4367-64.436Q71.7255-70.1472 64.2422-73.3726Q56.7589-76.598 48.2058-76.598Q39.6642-76.598 32.1809-73.3726Q24.6976-70.1472 18.9979-64.436Q13.2982-58.7248 10.0671-51.2415Q6.83594-43.7582 6.83594-35.2166Q6.83594-26.675 10.0671-19.1917Q13.2982-11.7084 19.0037-5.99721Q24.7092-0.285985 32.1924 2.9394Q39.6757 6.16479 48.2173 6.16479ZM47.063-28.1468Q40.8758-28.1468 40.8758-32.7558Q40.8758-32.8046 40.8758-32.8219Q40.8758-32.8392 40.8758-32.888Q40.8758-34.8824 42.1843-36.3906Q43.4928-37.8988 45.5694-39.3521Q47.8473-40.935 49.0853-41.9132Q50.3233-42.8914 50.3233-44.3338Q50.3233-45.475 49.3692-46.3271Q48.4151-47.1792 47.0928-47.1792Q46.0295-47.1792 45.1042-46.7567Q44.1788-46.3342 43.2451-45.1075L42.9372-44.7047Q42.1417-43.6739 41.0305-43.1856Q39.9193-42.6973 38.5351-42.6973Q36.4422-42.6973 35.1055-44.0812Q33.7687-45.465 33.7687-47.3029Q33.7687-48.5176 34.3574-49.8875Q35.7586-52.9345 39.4763-54.8059Q43.1941-56.6773 48.4187-56.6773Q52.6316-56.6773 55.9889-55.207Q59.3462-53.7367 61.3322-51.1318Q63.3183-48.527 63.3183-45.0859Q63.3183-41.8484 61.8386-39.8607Q60.3589-37.873 57.1165-35.8799Q55.6741-34.9719 54.4306-33.9865Q53.1872-33.0011 52.7769-31.8748Q52.7395-31.8259 52.7209-31.6967Q52.7022-31.5675 52.6649-31.4326Q52.2919-30.0023 50.7744-29.0746Q49.257-28.1468 47.063-28.1468ZM47.0773-14.3473Q44.4011-14.3473 42.5992-15.7904Q40.7973-17.2336 40.7973-19.7605Q40.7973-22.2875 42.5934-23.7364Q44.3896-25.1853 47.0773-25.1853Q49.765-25.1853 51.511-23.7235Q53.2569-22.2617 53.2569-19.7605Q53.2569-17.2221 51.5052-15.7847Q49.7534-14.3473 47.0773-14.3473Z"/>
  </g>
  <g id="Bold-S" transform="matrix(1 0 0 1 2292.43 696)">
   <path d="M47.5342 5.46875Q55.9326 5.46875 63.2935 2.29492Q70.6543-0.878906 76.2695-6.50635Q81.8848-12.1338 85.0708-19.4946Q88.2568-26.8555 88.2568-35.2295Q88.2568-43.6035 85.0708-50.9644Q81.8848-58.3252 76.2573-63.9526Q70.6299-69.5801 63.269-72.7539Q55.9082-75.9277 47.5098-75.9277Q39.1357-75.9277 31.7749-72.7539Q24.4141-69.5801 18.811-63.9526Q13.208-58.3252 10.022-50.9644Q6.83594-43.6035 6.83594-35.2295Q6.83594-26.8555 10.022-19.4946Q13.208-12.1338 18.8232-6.50635Q24.4385-0.878906 31.7993 2.29492Q39.1602 5.46875 47.5342 5.46875ZM46.5088-27.7344Q41.2109-27.7344 41.2109-31.9824Q41.2109-32.0312 41.2109-32.0679Q41.2109-32.1045 41.2109-32.1533Q41.2109-34.5215 42.5903-36.1328Q43.9697-37.7441 46.0205-39.1846Q48.3887-40.8447 49.646-41.9067Q50.9033-42.9688 50.9033-44.6045Q50.9033-46.0938 49.7559-47.1069Q48.6084-48.1201 46.8994-48.1201Q45.6299-48.1201 44.5435-47.6074Q43.457-47.0947 42.4072-45.752L41.9189-45.1172Q41.1621-44.1895 40.1733-43.7012Q39.1846-43.2129 37.8906-43.2129Q36.1328-43.2129 34.9121-44.397Q33.6914-45.5811 33.6914-47.29Q33.6914-48.3887 34.2285-49.707Q35.4492-52.6123 39.0381-54.5288Q42.627-56.4453 47.8516-56.4453Q51.8066-56.4453 55.0415-55.0781Q58.2764-53.7109 60.2173-51.1963Q62.1582-48.6816 62.1582-45.2148Q62.1582-41.7969 60.498-39.7705Q58.8379-37.7441 55.7373-35.8154Q54.1016-34.7656 52.9419-33.7158Q51.7822-32.666 51.5137-31.3721Q51.4893-31.3232 51.4771-31.2134Q51.4648-31.1035 51.4404-30.9814Q51.1963-29.5898 49.8657-28.6621Q48.5352-27.7344 46.5088-27.7344ZM46.4844-14.502Q44.0918-14.502 42.4316-15.8936Q40.7715-17.2852 40.7715-19.5801Q40.7715-21.875 42.4194-23.2788Q44.0674-24.6826 46.4844-24.6826Q48.9014-24.6826 50.5249-23.2788Q52.1484-21.875 52.1484-19.5801Q52.1484-17.2607 50.5127-15.8813Q48.877-14.502 46.4844-14.502Z"/>
  </g>
  <g id="Semibold-S" transform="matrix(1 0 0 1 1996.19 696)">
   <path d="M47.0632 4.98887Q55.355 4.98887 62.6314 1.85059Q69.9078-1.2877 75.4608-6.85737Q81.0139-12.4271 84.1688-19.7035Q87.3237-26.9799 87.3237-35.2384Q87.3237-43.4969 84.1688-50.7733Q81.0139-58.0497 75.4442-63.6194Q69.8745-69.1891 62.5981-72.3273Q55.3217-75.4656 47.0299-75.4656Q38.7714-75.4656 31.495-72.3273Q24.2186-69.1891 18.6822-63.6194Q13.1458-58.0497 9.99087-50.7733Q6.83594-43.4969 6.83594-35.2384Q6.83594-26.9799 9.99087-19.7035Q13.1458-12.4271 18.6988-6.85737Q24.2519-1.2877 31.5283 1.85059Q38.8047 4.98887 47.0632 4.98887ZM46.1267-27.45Q41.442-27.45 41.442-31.4492Q41.442-31.498 41.442-31.548Q41.442-31.5979 41.442-31.6468Q41.442-34.2727 42.8703-35.9551Q44.2985-37.6375 46.3315-39.069Q48.7619-40.7825 50.0326-41.9023Q51.3032-43.0221 51.3032-44.7911Q51.3032-46.5203 50.0225-47.6446Q48.7417-48.7688 46.7661-48.7688Q45.3544-48.7688 44.1569-48.1939Q42.9594-47.619 41.8296-46.1963L41.2169-45.4016Q40.4867-44.5449 39.5824-44.0566Q38.678-43.5684 37.4463-43.5684Q35.9195-43.5684 34.7788-44.6147Q33.6381-45.661 33.6381-47.2812Q33.6381-48.2998 34.1396-49.5826Q35.2359-52.3901 38.7359-54.3377Q42.2359-56.2854 47.4605-56.2854Q51.2379-56.2854 54.3883-54.9893Q57.5388-53.6932 59.4486-51.2407Q61.3584-48.7883 61.3584-45.3037Q61.3584-41.7613 59.5738-39.7083Q57.7893-37.6553 54.7864-35.771Q53.0174-34.6234 51.9155-33.5292Q50.8136-32.435 50.6428-31.0255Q50.6272-30.9767 50.6195-30.8801Q50.6117-30.7836 50.5962-30.6704Q50.4409-29.3055 49.2392-28.3777Q48.0375-27.45 46.1267-27.45ZM46.0756-14.6086Q43.8785-14.6086 42.3161-15.9646Q40.7537-17.3207 40.7537-19.4557Q40.7537-21.5906 42.2995-22.9633Q43.8452-24.336 46.0756-24.336Q48.306-24.336 49.8451-22.9722Q51.3842-21.6084 51.3842-19.4557Q51.3842-17.2874 49.8284-15.948Q48.2727-14.6086 46.0756-14.6086Z"/>
  </g>
  <g id="Medium-S" transform="matrix(1 0 0 1 1699.83 696)">
   <path d="M46.7061 4.625Q54.917 4.625 62.1294 1.51367Q69.3418-1.59766 74.8477-7.12354Q80.3535-12.6494 83.4849-19.8618Q86.6162-27.0742 86.6162-35.2451Q86.6162-43.416 83.4849-50.6284Q80.3535-57.8408 74.8276-63.3667Q69.3018-68.8926 62.0894-72.0039Q54.877-75.1152 46.666-75.1152Q38.4951-75.1152 31.2827-72.0039Q24.0703-68.8926 18.5845-63.3667Q13.0986-57.8408 9.96729-50.6284Q6.83594-43.416 6.83594-35.2451Q6.83594-27.0742 9.96729-19.8618Q13.0986-12.6494 18.6045-7.12354Q24.1104-1.59766 31.3228 1.51367Q38.5352 4.625 46.7061 4.625ZM45.8369-27.2344Q41.6172-27.2344 41.6172-31.0449Q41.6172-31.0938 41.6172-31.1538Q41.6172-31.2139 41.6172-31.2627Q41.6172-34.084 43.0825-35.8203Q44.5479-37.5566 46.5674-38.9814Q49.0449-40.7354 50.3257-41.8989Q51.6064-43.0625 51.6064-44.9326Q51.6064-46.8438 50.2246-48.0522Q48.8428-49.2607 46.665-49.2607Q45.1455-49.2607 43.8638-48.6387Q42.582-48.0166 41.3916-46.5332L40.6846-45.6172Q39.9746-44.8145 39.1343-44.3262Q38.2939-43.8379 37.1094-43.8379Q35.7578-43.8379 34.6777-44.7798Q33.5977-45.7217 33.5977-47.2744Q33.5977-48.2324 34.0723-49.4883Q35.0742-52.2217 38.5068-54.1929Q41.9395-56.1641 47.1641-56.1641Q50.8066-56.1641 53.8931-54.9219Q56.9795-53.6797 58.8657-51.2744Q60.752-48.8691 60.752-45.3711Q60.752-41.7344 58.873-39.6611Q56.9941-37.5879 54.0654-35.7373Q52.1953-34.5156 51.1372-33.3877Q50.0791-32.2598 49.9824-30.7627Q49.9736-30.7139 49.9692-30.6274Q49.9648-30.541 49.9561-30.4346Q49.8682-29.0898 48.7642-28.1621Q47.6602-27.2344 45.8369-27.2344ZM45.7656-14.6895Q43.7168-14.6895 42.2285-16.0186Q40.7402-17.3477 40.7402-19.3613Q40.7402-21.375 42.2085-22.7241Q43.6768-24.0732 45.7656-24.0732Q47.8545-24.0732 49.3296-22.7397Q50.8047-21.4062 50.8047-19.3613Q50.8047-17.3076 49.3096-15.9985Q47.8145-14.6895 45.7656-14.6895Z"/>
  </g>
  <g id="Regular-S" transform="matrix(1 0 0 1 1403.58 696)">
   <path d="M46.2402 4.15039Q54.3457 4.15039 61.4746 1.07422Q68.6035-2.00195 74.0479-7.4707Q79.4922-12.9395 82.5928-20.0684Q85.6934-27.1973 85.6934-35.2539Q85.6934-43.3105 82.5928-50.4395Q79.4922-57.5684 74.0234-63.0371Q68.5547-68.5059 61.4258-71.582Q54.2969-74.6582 46.1914-74.6582Q38.1348-74.6582 31.0059-71.582Q23.877-68.5059 18.457-63.0371Q13.0371-57.5684 9.93652-50.4395Q6.83594-43.3105 6.83594-35.2539Q6.83594-27.1973 9.93652-20.0684Q13.0371-12.9395 18.4814-7.4707Q23.9258-2.00195 31.0547 1.07422Q38.1836 4.15039 46.2402 4.15039ZM45.459-26.9531Q41.8457-26.9531 41.8457-30.5176Q41.8457-30.5664 41.8457-30.6396Q41.8457-30.7129 41.8457-30.7617Q41.8457-33.8379 43.3594-35.6445Q44.873-37.4512 46.875-38.8672Q49.4141-40.6738 50.708-41.8945Q52.002-43.1152 52.002-45.1172Q52.002-47.2656 50.4883-48.584Q48.9746-49.9023 46.5332-49.9023Q44.873-49.9023 43.4814-49.2188Q42.0898-48.5352 40.8203-46.9727L39.9902-45.8984Q39.3066-45.166 38.5498-44.6777Q37.793-44.1895 36.6699-44.1895Q35.5469-44.1895 34.5459-44.9951Q33.5449-45.8008 33.5449-47.2656Q33.5449-48.1445 33.9844-49.3652Q34.8633-52.002 38.208-54.0039Q41.5527-56.0059 46.7773-56.0059Q50.2441-56.0059 53.2471-54.834Q56.25-53.6621 58.1055-51.3184Q59.9609-48.9746 59.9609-45.459Q59.9609-41.6992 57.959-39.5996Q55.957-37.5 53.125-35.6934Q51.123-34.375 50.1221-33.2031Q49.1211-32.0312 49.1211-30.4199Q49.1211-30.3711 49.1211-30.2979Q49.1211-30.2246 49.1211-30.127Q49.1211-28.8086 48.1445-27.8809Q47.168-26.9531 45.459-26.9531ZM45.3613-14.7949Q43.5059-14.7949 42.1143-16.0889Q40.7227-17.3828 40.7227-19.2383Q40.7227-21.0938 42.0898-22.4121Q43.457-23.7305 45.3613-23.7305Q47.2656-23.7305 48.6572-22.4365Q50.0488-21.1426 50.0488-19.2383Q50.0488-17.334 48.6328-16.0645Q47.2168-14.7949 45.3613-14.7949Z"/>
  </g>
  <g id="Light-S" transform="matrix(1 0 0 1 1107.6 696)">
   <path d="M45.5078 3.41797Q53.4831 3.41797 60.4736 0.406901Q67.4642-2.60417 72.8109-7.96712Q78.1576-13.3301 81.193-20.3206Q84.2285-27.3112 84.2285-35.2539Q84.2285-43.1966 81.193-50.1872Q78.1576-57.1777 72.7946-62.5407Q67.4316-67.9036 60.4411-70.9147Q53.4505-73.9258 45.4753-73.9258Q37.5488-73.9258 30.5501-70.9147Q23.5514-67.9036 18.2292-62.5407Q12.9069-57.1777 9.87142-50.1872Q6.83594-43.1966 6.83594-35.2539Q6.83594-27.3112 9.87142-20.3206Q12.9069-13.3301 18.2454-7.96712Q23.584-2.60417 30.5827 0.406901Q37.5814 3.41797 45.5078 3.41797ZM44.7917-27.181Q41.9922-27.181 41.9922-29.9642Q41.9922-30.127 41.9922-30.2897Q41.9922-30.4525 41.9922-30.6315Q41.9922-33.431 43.3431-35.1807Q44.694-36.9303 46.8424-38.444Q49.4792-40.3158 50.7161-41.6341Q51.9531-42.9525 51.9531-44.9544Q51.9531-47.2656 50.2441-48.7142Q48.5352-50.1628 45.7194-50.1628Q43.4896-50.1628 41.8294-49.0234Q40.1693-47.8841 39.3066-46.0286L38.737-45.1497Q38.2812-44.515 37.6709-44.0999Q37.0605-43.6849 36.1491-43.6849Q35.2539-43.6849 34.4808-44.3278Q33.7077-44.9707 33.7077-46.1263Q33.7077-47.0215 34.0169-47.9818Q34.7331-50.7487 37.8499-52.8402Q40.9668-54.9316 45.9147-54.9316Q49.2025-54.9316 51.9694-53.8086Q54.7363-52.6855 56.3883-50.5127Q58.0404-48.3398 58.0404-45.2311Q58.0404-41.8457 56.2907-39.8112Q54.541-37.7767 51.6439-35.8724Q49.5443-34.4727 48.5758-33.252Q47.6074-32.0312 47.6074-30.3385Q47.6074-30.1921 47.6074-30.0374Q47.6074-29.8828 47.6074-29.6875Q47.6074-28.6458 46.8506-27.9134Q46.0938-27.181 44.7917-27.181ZM44.7103-15.7227Q43.1152-15.7227 41.9352-16.8376Q40.7552-17.9525 40.7552-19.5312Q40.7552-21.11 41.9189-22.2412Q43.0827-23.3724 44.7103-23.3724Q46.3379-23.3724 47.5098-22.2575Q48.6816-21.1426 48.6816-19.5312Q48.6816-17.9199 47.4935-16.8213Q46.3053-15.7227 44.7103-15.7227Z"/>
  </g>
  <g id="Thin-S" transform="matrix(1 0 0 1 811.863 696)">
   <path d="M44.5391 2.44928Q52.3422 2.44928 59.1498-0.47568Q65.9573-3.40064 71.1749-8.62368Q76.3924-13.8467 79.3418-20.6543Q82.2911-27.4619 82.2911-35.2539Q82.2911-43.0459 79.3418-49.8535Q76.3924-56.6611 71.1694-61.8841Q65.9463-67.1072 59.1387-70.0321Q52.3311-72.9571 44.5281-72.9571Q36.7739-72.9571 29.9474-70.0321Q23.1209-67.1072 17.9278-61.8841Q12.7347-56.6611 9.78531-49.8535Q6.83594-43.0459 6.83594-35.2539Q6.83594-27.4619 9.78531-20.6543Q12.7347-13.8467 17.9333-8.62368Q23.1319-3.40064 29.9584-0.47568Q36.7849 2.44928 44.5391 2.44928ZM43.9091-27.4824Q42.1859-27.4824 42.1859-29.2323Q42.1859-29.5457 42.1859-29.8269Q42.1859-30.1081 42.1859-30.4593Q42.1859-32.8928 43.3216-34.5672Q44.4572-36.2415 46.7994-37.8843Q49.5653-39.8422 50.7269-41.2897Q51.8885-42.7372 51.8885-44.7392Q51.8885-47.2656 49.9212-48.8864Q47.9539-50.5072 44.6431-50.5072Q41.6598-50.5072 39.6445-48.7651Q37.6292-47.0231 37.3047-44.7801L37.0794-44.1595Q36.9251-43.6539 36.5085-43.3357Q36.0919-43.0176 35.4602-43.0176Q34.8664-43.0176 34.3947-43.4452Q33.9229-43.8729 33.9229-44.6195Q33.9229-45.5362 34.06-46.152Q34.5609-49.0912 37.3764-51.301Q40.1918-53.5109 44.7738-53.5109Q47.8248-53.5109 50.2796-52.4524Q52.7344-51.394 54.1173-49.4471Q55.5003-47.5003 55.5003-44.9298Q55.5003-42.0394 54.0842-40.091Q52.6682-38.1426 49.685-36.1092Q47.4562-34.6018 46.5308-33.3165Q45.6055-32.0312 45.6055-30.2309Q45.6055-29.9553 45.6055-29.693Q45.6055-29.4308 45.6055-29.1063Q45.6055-28.4306 45.1392-27.9565Q44.673-27.4824 43.9091-27.4824ZM43.8492-16.9497Q42.5986-16.9497 41.6984-17.8278Q40.7983-18.7059 40.7983-19.9187Q40.7983-21.1316 41.6929-22.0152Q42.5876-22.8988 43.8492-22.8988Q45.1109-22.8988 45.9922-22.0207Q46.8734-21.1426 46.8734-19.9187Q46.8734-18.6949 45.9866-17.8223Q45.0999-16.9497 43.8492-16.9497Z"/>
  </g>
  <g id="Ultralight-S" transform="matrix(1 0 0 1 515.649 696)">
   <path d="M44.043 1.95312Q51.7578 1.95312 58.4717-0.927734Q65.1855-3.80859 70.3369-8.95996Q75.4883-14.1113 78.3936-20.8252Q81.2988-27.5391 81.2988-35.2539Q81.2988-42.9688 78.3936-49.6826Q75.4883-56.3965 70.3369-61.5479Q65.1855-66.6992 58.4717-69.5801Q51.7578-72.4609 44.043-72.4609Q36.377-72.4609 29.6387-69.5801Q22.9004-66.6992 17.7734-61.5479Q12.6465-56.3965 9.74121-49.6826Q6.83594-42.9688 6.83594-35.2539Q6.83594-27.5391 9.74121-20.8252Q12.6465-14.1113 17.7734-8.95996Q22.9004-3.80859 29.6387-0.927734Q36.377 1.95312 44.043 1.95312ZM43.457-27.6367Q42.2852-27.6367 42.2852-28.8574Q42.2852-29.248 42.2852-29.5898Q42.2852-29.9316 42.2852-30.3711Q42.2852-32.6172 43.3105-34.2529Q44.3359-35.8887 46.7773-37.5977Q49.6094-39.5996 50.7324-41.1133Q51.8555-42.627 51.8555-44.6289Q51.8555-47.2656 49.7559-48.9746Q47.6562-50.6836 44.0918-50.6836Q40.7227-50.6836 38.5254-48.6328Q36.3281-46.582 36.2793-44.1406L36.2305-43.6523Q36.2305-43.2129 35.9131-42.9443Q35.5957-42.6758 35.1074-42.6758Q34.668-42.6758 34.3506-42.9932Q34.0332-43.3105 34.0332-43.8477Q34.0332-44.7754 34.082-45.2148Q34.4727-48.2422 37.1338-50.5127Q39.7949-52.7832 44.1895-52.7832Q47.1191-52.7832 49.4141-51.7578Q51.709-50.7324 52.9541-48.9014Q54.1992-47.0703 54.1992-44.7754Q54.1992-42.1387 52.9541-40.2344Q51.709-38.3301 48.6816-36.2305Q46.3867-34.668 45.4834-33.3496Q44.5801-32.0312 44.5801-30.1758Q44.5801-29.834 44.5801-29.5166Q44.5801-29.1992 44.5801-28.8086Q44.5801-28.3203 44.2627-27.9785Q43.9453-27.6367 43.457-27.6367ZM43.4082-17.5781Q42.334-17.5781 41.5771-18.335Q40.8203-19.0918 40.8203-20.1172Q40.8203-21.1426 41.5771-21.8994Q42.334-22.6562 43.4082-22.6562Q44.4824-22.6562 45.2148-21.8994Q45.9473-21.1426 45.9473-20.1172Q45.9473-19.0918 45.2148-18.335Q44.4824-17.5781 43.4082-17.5781Z"/>
  </g>
 </g>
</svg>
