<?xml version="1.0" encoding="UTF-8"?>
<!--Generator: Apple Native CoreSVG 175-->
<!DOCTYPE svg
PUBLIC "-//W3C//DTD SVG 1.1//EN"
       "http://www.w3.org/Graphics/SVG/1.1/DTD/svg11.dtd">
<svg version="1.1" xmlns="http://www.w3.org/2000/svg" xmlns:xlink="http://www.w3.org/1999/xlink" width="3300" height="2200">
 <!--glyph: "uni1002DA.medium", point size: 100.0, font version: "17.0d12e1", template writer version: "65.1"-->
 <style>.multicolor-0:systemRedColor {fill:#FF3B30;opacity:1.0}

.SFSymbolsPreviewFF3B30 {fill:#FF3B30;opacity:1.0}
</style>
 <g id="Notes">
  <rect height="2200" id="artboard" style="fill:white;opacity:1" width="3300" x="0" y="0"/>
  <line style="fill:none;stroke:black;opacity:1;stroke-width:0.5;" x1="263" x2="3036" y1="292" y2="292"/>
  <text style="stroke:none;fill:black;font-family:sans-serif;font-size:13;font-weight:bold;" transform="matrix(1 0 0 1 263 322)">Weight/Scale Variations</text>
  <text style="stroke:none;fill:black;font-family:sans-serif;font-size:13;text-anchor:middle;" transform="matrix(1 0 0 1 559.711 322)">Ultralight</text>
  <text style="stroke:none;fill:black;font-family:sans-serif;font-size:13;text-anchor:middle;" transform="matrix(1 0 0 1 856.422 322)">Thin</text>
  <text style="stroke:none;fill:black;font-family:sans-serif;font-size:13;text-anchor:middle;" transform="matrix(1 0 0 1 1153.13 322)">Light</text>
  <text style="stroke:none;fill:black;font-family:sans-serif;font-size:13;text-anchor:middle;" transform="matrix(1 0 0 1 1449.84 322)">Regular</text>
  <text style="stroke:none;fill:black;font-family:sans-serif;font-size:13;text-anchor:middle;" transform="matrix(1 0 0 1 1746.56 322)">Medium</text>
  <text style="stroke:none;fill:black;font-family:sans-serif;font-size:13;text-anchor:middle;" transform="matrix(1 0 0 1 2043.27 322)">Semibold</text>
  <text style="stroke:none;fill:black;font-family:sans-serif;font-size:13;text-anchor:middle;" transform="matrix(1 0 0 1 2339.98 322)">Bold</text>
  <text style="stroke:none;fill:black;font-family:sans-serif;font-size:13;text-anchor:middle;" transform="matrix(1 0 0 1 2636.69 322)">Heavy</text>
  <text style="stroke:none;fill:black;font-family:sans-serif;font-size:13;text-anchor:middle;" transform="matrix(1 0 0 1 2933.4 322)">Black</text>
  <line style="fill:none;stroke:black;opacity:1;stroke-width:0.5;" x1="263" x2="3036" y1="1903" y2="1903"/>
  <g transform="matrix(1 0 0 1 263 1933)">
   <path d="M9.24805 0.830078Q10.8691 0.830078 12.2949 0.214844Q13.7207-0.400391 14.8096-1.49414Q15.8984-2.58789 16.5186-4.01367Q17.1387-5.43945 17.1387-7.05078Q17.1387-8.66211 16.5186-10.0879Q15.8984-11.5137 14.8047-12.6074Q13.7109-13.7012 12.2852-14.3164Q10.8594-14.9316 9.23828-14.9316Q7.62695-14.9316 6.20117-14.3164Q4.77539-13.7012 3.69141-12.6074Q2.60742-11.5137 1.9873-10.0879Q1.36719-8.66211 1.36719-7.05078Q1.36719-5.43945 1.9873-4.01367Q2.60742-2.58789 3.69629-1.49414Q4.78516-0.400391 6.21094 0.214844Q7.63672 0.830078 9.24805 0.830078ZM9.24805-0.654297Q7.91992-0.654297 6.7627-1.14746Q5.60547-1.64062 4.73145-2.51953Q3.85742-3.39844 3.36426-4.56055Q2.87109-5.72266 2.87109-7.05078Q2.87109-8.37891 3.35938-9.54102Q3.84766-10.7031 4.72168-11.582Q5.5957-12.4609 6.75293-12.9541Q7.91016-13.4473 9.23828-13.4473Q10.5762-13.4473 11.7334-12.9541Q12.8906-12.4609 13.7695-11.582Q14.6484-10.7031 15.1465-9.54102Q15.6445-8.37891 15.6445-7.05078Q15.6445-5.72266 15.1514-4.56055Q14.6582-3.39844 13.7842-2.51953Q12.9102-1.64062 11.748-1.14746Q10.5859-0.654297 9.24805-0.654297ZM5.6543-7.05078Q5.6543-6.72852 5.85938-6.52832Q6.06445-6.32812 6.40625-6.32812L8.51562-6.32812L8.51562-4.20898Q8.51562-3.88672 8.71094-3.67676Q8.90625-3.4668 9.23828-3.4668Q9.56055-3.4668 9.77051-3.67676Q9.98047-3.88672 9.98047-4.20898L9.98047-6.32812L12.0898-6.32812Q12.4219-6.32812 12.627-6.52832Q12.832-6.72852 12.832-7.05078Q12.832-7.38281 12.627-7.58789Q12.4219-7.79297 12.0898-7.79297L9.98047-7.79297L9.98047-9.90234Q9.98047-10.2344 9.77051-10.4443Q9.56055-10.6543 9.23828-10.6543Q8.90625-10.6543 8.71094-10.4443Q8.51562-10.2344 8.51562-9.90234L8.51562-7.79297L6.40625-7.79297Q6.06445-7.79297 5.85938-7.58789Q5.6543-7.38281 5.6543-7.05078Z"/>
  </g>
  <g transform="matrix(1 0 0 1 281.867 1933)">
   <path d="M11.709 2.91016Q13.75 2.91016 15.5518 2.12891Q17.3535 1.34766 18.7305-0.0292969Q20.1074-1.40625 20.8887-3.20801Q21.6699-5.00977 21.6699-7.05078Q21.6699-9.0918 20.8887-10.8936Q20.1074-12.6953 18.7305-14.0723Q17.3535-15.4492 15.5469-16.2305Q13.7402-17.0117 11.6992-17.0117Q9.6582-17.0117 7.85645-16.2305Q6.05469-15.4492 4.68262-14.0723Q3.31055-12.6953 2.5293-10.8936Q1.74805-9.0918 1.74805-7.05078Q1.74805-5.00977 2.5293-3.20801Q3.31055-1.40625 4.6875-0.0292969Q6.06445 1.34766 7.86621 2.12891Q9.66797 2.91016 11.709 2.91016ZM11.709 1.25Q9.98047 1.25 8.47656 0.605469Q6.97266-0.0390625 5.83496-1.17676Q4.69727-2.31445 4.05762-3.81836Q3.41797-5.32227 3.41797-7.05078Q3.41797-8.7793 4.05762-10.2832Q4.69727-11.7871 5.83008-12.9297Q6.96289-14.0723 8.4668-14.7119Q9.9707-15.3516 11.6992-15.3516Q13.4277-15.3516 14.9316-14.7119Q16.4355-14.0723 17.5781-12.9297Q18.7207-11.7871 19.3652-10.2832Q20.0098-8.7793 20.0098-7.05078Q20.0098-5.32227 19.3701-3.81836Q18.7305-2.31445 17.5928-1.17676Q16.4551-0.0390625 14.9463 0.605469Q13.4375 1.25 11.709 1.25ZM7.17773-7.05078Q7.17773-6.69922 7.41211-6.47461Q7.64648-6.25 8.01758-6.25L10.8887-6.25L10.8887-3.36914Q10.8887-2.99805 11.1133-2.76855Q11.3379-2.53906 11.6895-2.53906Q12.0605-2.53906 12.29-2.76855Q12.5195-2.99805 12.5195-3.36914L12.5195-6.25L15.4004-6.25Q15.7715-6.25 16.001-6.47461Q16.2305-6.69922 16.2305-7.05078Q16.2305-7.42188 16.001-7.65137Q15.7715-7.88086 15.4004-7.88086L12.5195-7.88086L12.5195-10.752Q12.5195-11.1328 12.29-11.3623Q12.0605-11.5918 11.6895-11.5918Q11.3379-11.5918 11.1133-11.3574Q10.8887-11.123 10.8887-10.752L10.8887-7.88086L8.01758-7.88086Q7.63672-7.88086 7.40723-7.65137Q7.17773-7.42188 7.17773-7.05078Z"/>
  </g>
  <g transform="matrix(1 0 0 1 305.646 1933)">
   <path d="M14.9707 5.66406Q17.0605 5.66406 18.96 5.01465Q20.8594 4.36523 22.4512 3.19336Q24.043 2.02148 25.2197 0.429688Q26.3965-1.16211 27.0459-3.06641Q27.6953-4.9707 27.6953-7.05078Q27.6953-9.14062 27.0459-11.04Q26.3965-12.9395 25.2197-14.5312Q24.043-16.123 22.4512-17.2998Q20.8594-18.4766 18.9551-19.126Q17.0508-19.7754 14.9609-19.7754Q12.8711-19.7754 10.9717-19.126Q9.07227-18.4766 7.48535-17.2998Q5.89844-16.123 4.72168-14.5312Q3.54492-12.9395 2.90039-11.04Q2.25586-9.14062 2.25586-7.05078Q2.25586-4.9707 2.90527-3.06641Q3.55469-1.16211 4.72656 0.429688Q5.89844 2.02148 7.49023 3.19336Q9.08203 4.36523 10.9814 5.01465Q12.8809 5.66406 14.9707 5.66406ZM14.9707 3.84766Q13.1641 3.84766 11.5283 3.2959Q9.89258 2.74414 8.53516 1.74805Q7.17773 0.751953 6.17676-0.610352Q5.17578-1.97266 4.62891-3.6084Q4.08203-5.24414 4.08203-7.05078Q4.08203-8.86719 4.62891-10.5029Q5.17578-12.1387 6.17188-13.501Q7.16797-14.8633 8.52539-15.8594Q9.88281-16.8555 11.5186-17.4023Q13.1543-17.9492 14.9609-17.9492Q16.7773-17.9492 18.4131-17.4023Q20.0488-16.8555 21.4111-15.8594Q22.7734-14.8633 23.7695-13.501Q24.7656-12.1387 25.3174-10.5029Q25.8691-8.86719 25.8691-7.05078Q25.8789-5.24414 25.332-3.6084Q24.7852-1.97266 23.7842-0.610352Q22.7832 0.751953 21.4209 1.74805Q20.0586 2.74414 18.4229 3.2959Q16.7871 3.84766 14.9707 3.84766ZM9.19922-7.05078Q9.19922-6.66992 9.45801-6.4209Q9.7168-6.17188 10.1172-6.17188L14.0625-6.17188L14.0625-2.2168Q14.0625-1.81641 14.3115-1.55762Q14.5605-1.29883 14.9512-1.29883Q15.3516-1.29883 15.6104-1.55273Q15.8691-1.80664 15.8691-2.2168L15.8691-6.17188L19.8242-6.17188Q20.2246-6.17188 20.4785-6.4209Q20.7324-6.66992 20.7324-7.05078Q20.7324-7.46094 20.4785-7.71484Q20.2246-7.96875 19.8242-7.96875L15.8691-7.96875L15.8691-11.9141Q15.8691-12.3242 15.6104-12.583Q15.3516-12.8418 14.9512-12.8418Q14.5605-12.8418 14.3115-12.583Q14.0625-12.3242 14.0625-11.9141L14.0625-7.96875L10.1172-7.96875Q9.70703-7.96875 9.45312-7.71484Q9.19922-7.46094 9.19922-7.05078Z"/>
  </g>
  <text style="stroke:none;fill:black;font-family:sans-serif;font-size:13;font-weight:bold;" transform="matrix(1 0 0 1 263 1953)">Design Variations</text>
  <text style="stroke:none;fill:black;font-family:sans-serif;font-size:13;" transform="matrix(1 0 0 1 263 1971)">Symbols are supported in up to nine weights and three scales.</text>
  <text style="stroke:none;fill:black;font-family:sans-serif;font-size:13;" transform="matrix(1 0 0 1 263 1989)">For optimal layout with text and other symbols, vertically align</text>
  <text style="stroke:none;fill:black;font-family:sans-serif;font-size:13;" transform="matrix(1 0 0 1 263 2007)">symbols with the adjacent text.</text>
  <line style="fill:none;stroke:#00AEEF;stroke-width:0.5;opacity:1.0;" x1="776" x2="776" y1="1919" y2="1933"/>
  <g transform="matrix(1 0 0 1 776 1933)">
   <path d="M3.31055 0.15625Q3.70117 0.15625 3.91602-0.00976562Q4.13086-0.175781 4.26758-0.585938L5.52734-4.0332L11.2891-4.0332L12.5488-0.585938Q12.6855-0.175781 12.9004-0.00976562Q13.1152 0.15625 13.4961 0.15625Q13.8867 0.15625 14.1162-0.0585938Q14.3457-0.273438 14.3457-0.644531Q14.3457-0.869141 14.2383-1.17188L9.6582-13.3691Q9.48242-13.8184 9.17969-14.043Q8.87695-14.2676 8.4082-14.2676Q7.5-14.2676 7.17773-13.3789L2.59766-1.16211Q2.49023-0.859375 2.49023-0.634766Q2.49023-0.263672 2.70996-0.0537109Q2.92969 0.15625 3.31055 0.15625ZM6.00586-5.51758L8.37891-12.0898L8.42773-12.0898L10.8008-5.51758Z"/>
  </g>
  <line style="fill:none;stroke:#00AEEF;stroke-width:0.5;opacity:1.0;" x1="793.197" x2="793.197" y1="1919" y2="1933"/>
  <text style="stroke:none;fill:black;font-family:sans-serif;font-size:13;font-weight:bold;" transform="matrix(1 0 0 1 776 1953)">Margins</text>
  <text style="stroke:none;fill:black;font-family:sans-serif;font-size:13;" transform="matrix(1 0 0 1 776 1971)">Leading and trailing margins on the left and right side of each symbol</text>
  <text style="stroke:none;fill:black;font-family:sans-serif;font-size:13;" transform="matrix(1 0 0 1 776 1989)">can be adjusted by modifying the x-location of the margin guidelines.</text>
  <text style="stroke:none;fill:black;font-family:sans-serif;font-size:13;" transform="matrix(1 0 0 1 776 2007)">Modifications are automatically applied proportionally to all</text>
  <text style="stroke:none;fill:black;font-family:sans-serif;font-size:13;" transform="matrix(1 0 0 1 776 2025)">scales and weights.</text>
  <g transform="matrix(1 0 0 1 1289 1933)">
   <path d="M2.8418 1.86523L4.54102 3.57422Q5.18555 4.22852 5.90332 4.17969Q6.62109 4.13086 7.31445 3.35938L18.0078-8.42773L17.041-9.4043L6.42578 2.27539Q6.16211 2.57812 5.89355 2.61719Q5.625 2.65625 5.27344 2.30469L4.10156 1.14258Q3.75 0.791016 3.79395 0.522461Q3.83789 0.253906 4.14062-0.0195312L15.6152-10.8203L14.6387-11.7871L3.04688-0.898438Q2.30469-0.214844 2.25098 0.498047Q2.19727 1.21094 2.8418 1.86523ZM9.25781-16.3281Q8.94531-16.0254 8.90625-15.6348Q8.86719-15.2441 9.04297-14.9512Q9.21875-14.6777 9.55566-14.541Q9.89258-14.4043 10.3809-14.5215Q11.4746-14.7754 12.5977-14.7314Q13.7207-14.6875 14.7949-13.9844L14.209-12.5293Q13.9551-11.9043 14.0674-11.4404Q14.1797-10.9766 14.5801-10.5664L16.875-8.25195Q17.2363-7.88086 17.5781-7.82227Q17.9199-7.76367 18.3398-7.8418L19.4043-8.03711L20.0684-7.36328L20.0293-6.80664Q20-6.43555 20.1221-6.12305Q20.2441-5.81055 20.6055-5.44922L21.3672-4.70703Q21.7285-4.3457 22.1533-4.33105Q22.5781-4.31641 22.9297-4.66797L25.8398-7.58789Q26.1914-7.93945 26.1816-8.35449Q26.1719-8.76953 25.8105-9.13086L25.0391-9.89258Q24.6875-10.2539 24.3799-10.3857Q24.0723-10.5176 23.7109-10.4883L23.1348-10.4395L22.4902-11.0742L22.7344-12.1973Q22.832-12.6172 22.6953-12.9834Q22.5586-13.3496 22.1191-13.7891L19.9219-15.9766Q18.6719-17.2168 17.2607-17.8369Q15.8496-18.457 14.4189-18.4814Q12.9883-18.5059 11.665-17.959Q10.3418-17.4121 9.25781-16.3281ZM10.752-15.957Q11.6602-16.6211 12.7002-16.9043Q13.7402-17.1875 14.8047-17.085Q15.8691-16.9824 16.8701-16.5137Q17.8711-16.0449 18.7012-15.2051L21.1328-12.793Q21.3086-12.6172 21.3525-12.4512Q21.3965-12.2852 21.3379-12.0312L21.0156-10.5469L22.5195-9.0625L23.5059-9.12109Q23.6914-9.13086 23.7891-9.09668Q23.8867-9.0625 24.0332-8.91602L24.6094-8.33984L22.168-5.89844L21.5918-6.47461Q21.4453-6.62109 21.4062-6.71875Q21.3672-6.81641 21.377-7.01172L21.4453-7.98828L19.9512-9.47266L18.4277-9.21875Q18.1836-9.16992 18.042-9.2041Q17.9004-9.23828 17.7148-9.41406L15.7129-11.416Q15.5176-11.5918 15.4932-11.7529Q15.4688-11.9141 15.5859-12.1875L16.4648-14.2773Q15.293-15.3711 13.8281-15.791Q12.3633-16.2109 10.8398-15.7617Q10.7227-15.7324 10.6885-15.8057Q10.6543-15.8789 10.752-15.957Z"/>
  </g>
  <text style="stroke:none;fill:black;font-family:sans-serif;font-size:13;font-weight:bold;" transform="matrix(1 0 0 1 1289 1953)">Exporting</text>
  <text style="stroke:none;fill:black;font-family:sans-serif;font-size:13;" transform="matrix(1 0 0 1 1289 1971)">Symbols should be outlined when exporting to ensure the</text>
  <text style="stroke:none;fill:black;font-family:sans-serif;font-size:13;" transform="matrix(1 0 0 1 1289 1989)">design is preserved when submitting to Xcode.</text>
  <text id="template-version" style="stroke:none;fill:black;font-family:sans-serif;font-size:13;text-anchor:end;" transform="matrix(1 0 0 1 3036 1933)">Template v.3.0</text>
  <text style="stroke:none;fill:black;font-family:sans-serif;font-size:13;text-anchor:end;" transform="matrix(1 0 0 1 3036 1951)">Requires Xcode 13 or greater</text>
  <text id="descriptive-name" style="stroke:none;fill:black;font-family:sans-serif;font-size:13;text-anchor:end;" transform="matrix(1 0 0 1 3036 1969)">Generated from bell.fill</text>
  <text style="stroke:none;fill:black;font-family:sans-serif;font-size:13;text-anchor:end;" transform="matrix(1 0 0 1 3036 1987)">Typeset at 100 points</text>
  <text style="stroke:none;fill:black;font-family:sans-serif;font-size:13;" transform="matrix(1 0 0 1 263 726)">Small</text>
  <text style="stroke:none;fill:black;font-family:sans-serif;font-size:13;" transform="matrix(1 0 0 1 263 1156)">Medium</text>
  <text style="stroke:none;fill:black;font-family:sans-serif;font-size:13;" transform="matrix(1 0 0 1 263 1586)">Large</text>
 </g>
 <g id="Guides">
  <g id="H-reference" style="fill:#27AAE1;stroke:none;" transform="matrix(1 0 0 1 339 696)">
   <path d="M0.993347 0L3.6377 0L29.3282-67.1326L30.0301-67.1326L30.0301-70.459L28.1227-70.459ZM11.6882-24.4797L46.9818-24.4797L46.2311-26.7288L12.4382-26.7288ZM55.1193 0L57.7637 0L30.6381-70.459L29.4327-70.459L29.4327-67.1326Z"/>
  </g>
  <line id="Baseline-S" style="fill:none;stroke:#27AAE1;opacity:1;stroke-width:0.5;" x1="263" x2="3036" y1="696" y2="696"/>
  <line id="Capline-S" style="fill:none;stroke:#27AAE1;opacity:1;stroke-width:0.5;" x1="263" x2="3036" y1="625.541" y2="625.541"/>
  <g id="H-reference" style="fill:#27AAE1;stroke:none;" transform="matrix(1 0 0 1 339 1126)">
   <path d="M0.993347 0L3.6377 0L29.3282-67.1326L30.0301-67.1326L30.0301-70.459L28.1227-70.459ZM11.6882-24.4797L46.9818-24.4797L46.2311-26.7288L12.4382-26.7288ZM55.1193 0L57.7637 0L30.6381-70.459L29.4327-70.459L29.4327-67.1326Z"/>
  </g>
  <line id="Baseline-M" style="fill:none;stroke:#27AAE1;opacity:1;stroke-width:0.5;" x1="263" x2="3036" y1="1126" y2="1126"/>
  <line id="Capline-M" style="fill:none;stroke:#27AAE1;opacity:1;stroke-width:0.5;" x1="263" x2="3036" y1="1055.54" y2="1055.54"/>
  <g id="H-reference" style="fill:#27AAE1;stroke:none;" transform="matrix(1 0 0 1 339 1556)">
   <path d="M0.993347 0L3.6377 0L29.3282-67.1326L30.0301-67.1326L30.0301-70.459L28.1227-70.459ZM11.6882-24.4797L46.9818-24.4797L46.2311-26.7288L12.4382-26.7288ZM55.1193 0L57.7637 0L30.6381-70.459L29.4327-70.459L29.4327-67.1326Z"/>
  </g>
  <line id="Baseline-L" style="fill:none;stroke:#27AAE1;opacity:1;stroke-width:0.5;" x1="263" x2="3036" y1="1556" y2="1556"/>
  <line id="Capline-L" style="fill:none;stroke:#27AAE1;opacity:1;stroke-width:0.5;" x1="263" x2="3036" y1="1485.54" y2="1485.54"/>
  <line id="left-margin-Ultralight-S" style="fill:none;stroke:#00AEEF;stroke-width:0.5;opacity:1.0;" x1="515.431" x2="515.431" y1="600.785" y2="720.121"/>
  <line id="right-margin-Ultralight-S" style="fill:none;stroke:#00AEEF;stroke-width:0.5;opacity:1.0;" x1="603.991" x2="603.991" y1="600.785" y2="720.121"/>
  <line id="left-margin-Thin-S" style="fill:none;stroke:#00AEEF;stroke-width:0.5;opacity:1.0;" x1="812.162" x2="812.162" y1="600.785" y2="720.121"/>
  <line id="right-margin-Thin-S" style="fill:none;stroke:#00AEEF;stroke-width:0.5;opacity:1.0;" x1="900.682" x2="900.682" y1="600.785" y2="720.121"/>
  <line id="left-margin-Light-S" style="fill:none;stroke:#00AEEF;stroke-width:0.5;opacity:1.0;" x1="1108.91" x2="1108.91" y1="600.785" y2="720.121"/>
  <line id="right-margin-Light-S" style="fill:none;stroke:#00AEEF;stroke-width:0.5;opacity:1.0;" x1="1197.35" x2="1197.35" y1="600.785" y2="720.121"/>
  <line id="left-margin-Regular-S" style="fill:none;stroke:#00AEEF;stroke-width:0.5;opacity:1.0;" x1="1405.65" x2="1405.65" y1="600.785" y2="720.121"/>
  <line id="right-margin-Regular-S" style="fill:none;stroke:#00AEEF;stroke-width:0.5;opacity:1.0;" x1="1494.03" x2="1494.03" y1="600.785" y2="720.121"/>
  <line id="left-margin-Medium-S" style="fill:none;stroke:#00AEEF;stroke-width:0.5;opacity:1.0;" x1="1701.66" x2="1701.66" y1="600.785" y2="720.121"/>
  <line id="right-margin-Medium-S" style="fill:none;stroke:#00AEEF;stroke-width:0.5;opacity:1.0;" x1="1791.45" x2="1791.45" y1="600.785" y2="720.121"/>
  <line id="left-margin-Semibold-S" style="fill:none;stroke:#00AEEF;stroke-width:0.5;opacity:1.0;" x1="1997.84" x2="1997.84" y1="600.785" y2="720.121"/>
  <line id="right-margin-Semibold-S" style="fill:none;stroke:#00AEEF;stroke-width:0.5;opacity:1.0;" x1="2088.7" x2="2088.7" y1="600.785" y2="720.121"/>
  <line id="left-margin-Bold-S" style="fill:none;stroke:#00AEEF;stroke-width:0.5;opacity:1.0;" x1="2293.84" x2="2293.84" y1="600.785" y2="720.121"/>
  <line id="right-margin-Bold-S" style="fill:none;stroke:#00AEEF;stroke-width:0.5;opacity:1.0;" x1="2386.12" x2="2386.12" y1="600.785" y2="720.121"/>
  <line id="left-margin-Heavy-S" style="fill:none;stroke:#00AEEF;stroke-width:0.5;opacity:1.0;" x1="2589.52" x2="2589.52" y1="600.785" y2="720.121"/>
  <line id="right-margin-Heavy-S" style="fill:none;stroke:#00AEEF;stroke-width:0.5;opacity:1.0;" x1="2683.86" x2="2683.86" y1="600.785" y2="720.121"/>
  <line id="left-margin-Black-S" style="fill:none;stroke:#00AEEF;stroke-width:0.5;opacity:1.0;" x1="2885.3" x2="2885.3" y1="600.785" y2="720.121"/>
  <line id="right-margin-Black-S" style="fill:none;stroke:#00AEEF;stroke-width:0.5;opacity:1.0;" x1="2981.5" x2="2981.5" y1="600.785" y2="720.121"/>
  <line id="left-margin-Ultralight-M" style="fill:none;stroke:#00AEEF;stroke-width:0.5;opacity:1.0;" x1="503.199" x2="503.199" y1="1030.79" y2="1150.12"/>
  <line id="right-margin-Ultralight-M" style="fill:none;stroke:#00AEEF;stroke-width:0.5;opacity:1.0;" x1="616.223" x2="616.223" y1="1030.79" y2="1150.12"/>
  <line id="left-margin-Thin-M" style="fill:none;stroke:#00AEEF;stroke-width:0.5;opacity:1.0;" x1="799.931" x2="799.931" y1="1030.79" y2="1150.12"/>
  <line id="right-margin-Thin-M" style="fill:none;stroke:#00AEEF;stroke-width:0.5;opacity:1.0;" x1="912.913" x2="912.913" y1="1030.79" y2="1150.12"/>
  <line id="left-margin-Light-M" style="fill:none;stroke:#00AEEF;stroke-width:0.5;opacity:1.0;" x1="1096.68" x2="1096.68" y1="1030.79" y2="1150.12"/>
  <line id="right-margin-Light-M" style="fill:none;stroke:#00AEEF;stroke-width:0.5;opacity:1.0;" x1="1209.58" x2="1209.58" y1="1030.79" y2="1150.12"/>
  <line id="left-margin-Regular-M" style="fill:none;stroke:#00AEEF;stroke-width:0.5;opacity:1.0;" x1="1393.42" x2="1393.42" y1="1030.79" y2="1150.12"/>
  <line id="right-margin-Regular-M" style="fill:none;stroke:#00AEEF;stroke-width:0.5;opacity:1.0;" x1="1506.27" x2="1506.27" y1="1030.79" y2="1150.12"/>
  <line id="left-margin-Medium-M" style="fill:none;stroke:#00AEEF;stroke-width:0.5;opacity:1.0;" x1="1689.32" x2="1689.32" y1="1030.79" y2="1150.12"/>
  <line id="right-margin-Medium-M" style="fill:none;stroke:#00AEEF;stroke-width:0.5;opacity:1.0;" x1="1803.79" x2="1803.79" y1="1030.79" y2="1150.12"/>
  <line id="left-margin-Semibold-M" style="fill:none;stroke:#00AEEF;stroke-width:0.5;opacity:1.0;" x1="1985.4" x2="1985.4" y1="1030.79" y2="1150.12"/>
  <line id="right-margin-Semibold-M" style="fill:none;stroke:#00AEEF;stroke-width:0.5;opacity:1.0;" x1="2101.13" x2="2101.13" y1="1030.79" y2="1150.12"/>
  <line id="left-margin-Bold-M" style="fill:none;stroke:#00AEEF;stroke-width:0.5;opacity:1.0;" x1="2281.29" x2="2281.29" y1="1030.79" y2="1150.12"/>
  <line id="right-margin-Bold-M" style="fill:none;stroke:#00AEEF;stroke-width:0.5;opacity:1.0;" x1="2398.67" x2="2398.67" y1="1030.79" y2="1150.12"/>
  <line id="left-margin-Heavy-M" style="fill:none;stroke:#00AEEF;stroke-width:0.5;opacity:1.0;" x1="2576.8" x2="2576.8" y1="1030.79" y2="1150.12"/>
  <line id="right-margin-Heavy-M" style="fill:none;stroke:#00AEEF;stroke-width:0.5;opacity:1.0;" x1="2696.58" x2="2696.58" y1="1030.79" y2="1150.12"/>
  <line id="left-margin-Black-M" style="fill:none;stroke:#00AEEF;stroke-width:0.5;opacity:1.0;" x1="2872.44" x2="2872.44" y1="1030.79" y2="1150.12"/>
  <line id="right-margin-Black-M" style="fill:none;stroke:#00AEEF;stroke-width:0.5;opacity:1.0;" x1="2994.36" x2="2994.36" y1="1030.79" y2="1150.12"/>
  <line id="left-margin-Ultralight-L" style="fill:none;stroke:#00AEEF;stroke-width:0.5;opacity:1.0;" x1="486.769" x2="486.769" y1="1460.79" y2="1580.12"/>
  <line id="right-margin-Ultralight-L" style="fill:none;stroke:#00AEEF;stroke-width:0.5;opacity:1.0;" x1="632.653" x2="632.653" y1="1460.79" y2="1580.12"/>
  <line id="left-margin-Thin-L" style="fill:none;stroke:#00AEEF;stroke-width:0.5;opacity:1.0;" x1="783.5" x2="783.5" y1="1460.79" y2="1580.12"/>
  <line id="right-margin-Thin-L" style="fill:none;stroke:#00AEEF;stroke-width:0.5;opacity:1.0;" x1="929.344" x2="929.344" y1="1460.79" y2="1580.12"/>
  <line id="left-margin-Light-L" style="fill:none;stroke:#00AEEF;stroke-width:0.5;opacity:1.0;" x1="1080.25" x2="1080.25" y1="1460.79" y2="1580.12"/>
  <line id="right-margin-Light-L" style="fill:none;stroke:#00AEEF;stroke-width:0.5;opacity:1.0;" x1="1226.02" x2="1226.02" y1="1460.79" y2="1580.12"/>
  <line id="left-margin-Regular-L" style="fill:none;stroke:#00AEEF;stroke-width:0.5;opacity:1.0;" x1="1376.99" x2="1376.99" y1="1460.79" y2="1580.12"/>
  <line id="right-margin-Regular-L" style="fill:none;stroke:#00AEEF;stroke-width:0.5;opacity:1.0;" x1="1522.7" x2="1522.7" y1="1460.79" y2="1580.12"/>
  <line id="left-margin-Medium-L" style="fill:none;stroke:#00AEEF;stroke-width:0.5;opacity:1.0;" x1="1672.88" x2="1672.88" y1="1460.79" y2="1580.12"/>
  <line id="right-margin-Medium-L" style="fill:none;stroke:#00AEEF;stroke-width:0.5;opacity:1.0;" x1="1820.23" x2="1820.23" y1="1460.79" y2="1580.12"/>
  <line id="left-margin-Semibold-L" style="fill:none;stroke:#00AEEF;stroke-width:0.5;opacity:1.0;" x1="1968.96" x2="1968.96" y1="1460.79" y2="1580.12"/>
  <line id="right-margin-Semibold-L" style="fill:none;stroke:#00AEEF;stroke-width:0.5;opacity:1.0;" x1="2117.58" x2="2117.58" y1="1460.79" y2="1580.12"/>
  <line id="left-margin-Bold-L" style="fill:none;stroke:#00AEEF;stroke-width:0.5;opacity:1.0;" x1="2264.83" x2="2264.83" y1="1460.79" y2="1580.12"/>
  <line id="right-margin-Bold-L" style="fill:none;stroke:#00AEEF;stroke-width:0.5;opacity:1.0;" x1="2415.12" x2="2415.12" y1="1460.79" y2="1580.12"/>
  <line id="left-margin-Heavy-L" style="fill:none;stroke:#00AEEF;stroke-width:0.5;opacity:1.0;" x1="2560.33" x2="2560.33" y1="1460.79" y2="1580.12"/>
  <line id="right-margin-Heavy-L" style="fill:none;stroke:#00AEEF;stroke-width:0.5;opacity:1.0;" x1="2713.05" x2="2713.05" y1="1460.79" y2="1580.12"/>
  <line id="left-margin-Black-L" style="fill:none;stroke:#00AEEF;stroke-width:0.5;opacity:1.0;" x1="2855.96" x2="2855.96" y1="1460.79" y2="1580.12"/>
  <line id="right-margin-Black-L" style="fill:none;stroke:#00AEEF;stroke-width:0.5;opacity:1.0;" x1="3010.84" x2="3010.84" y1="1460.79" y2="1580.12"/>
 </g>
 <g id="Symbols">
  <g id="Black-L" transform="matrix(1 0 0 1 2855.96 1556)">
   <path class="multicolor-0:systemRedColor SFSymbolsPreviewFF3B30" d="M26.0742 6.10352L128.76 6.10352Q135.059 6.10352 138.843 2.56348Q142.627-0.976562 142.627-6.73828Q142.627-10.5957 141.064-13.8916Q139.502-17.1875 136.89-19.9951Q134.277-22.8027 131.152-25.293Q129.248-26.7578 128.027-29.1016Q126.807-31.4453 126.025-34.5459Q125.244-37.6465 124.683-41.333Q124.121-45.0195 123.486-49.1699Q122.314-59.375 119.238-67.7246Q116.162-76.0742 110.938-81.9824Q105.713-87.8906 98.1445-90.625Q95.6543-97.0215 90.0879-101.074Q84.5215-105.127 77.4414-105.127Q70.3613-105.127 64.7949-101.074Q59.2285-97.0215 56.7383-90.625Q49.1699-87.8906 43.9453-81.9824Q38.7207-76.0742 35.6201-67.7246Q32.5195-59.375 31.3965-49.1699Q30.7617-45.0195 30.1758-41.333Q29.5898-37.6465 28.8086-34.5459Q28.0273-31.4453 26.8311-29.1016Q25.6348-26.7578 23.7305-25.293Q20.6055-22.8027 17.9932-19.9951Q15.3809-17.1875 13.8184-13.8916Q12.2559-10.5957 12.2559-6.73828Q12.2559-0.976562 16.04 2.56348Q19.8242 6.10352 26.0742 6.10352ZM77.4414 34.7168Q83.7891 34.7168 88.7695 32.1533Q93.75 29.5898 96.7529 25.2686Q99.7559 20.9473 100.146 15.7715L54.7363 15.7715Q55.0781 20.9473 58.0811 25.2686Q61.084 29.5898 66.0889 32.1533Q71.0938 34.7168 77.4414 34.7168Z"/>
  </g>
  <g id="Heavy-L" transform="matrix(1 0 0 1 2560.33 1556)">
   <path class="multicolor-0:systemRedColor SFSymbolsPreviewFF3B30" d="M25.1289 6.13785L127.538 6.13785Q133.249 6.13785 136.653 3.0014Q140.057-0.13504 140.057-5.25131Q140.057-8.94775 138.443-12.1571Q136.829-15.3664 134.204-18.1797Q131.58-20.993 128.559-23.5527Q126.678-25.1328 125.486-27.5803Q124.294-30.0278 123.542-33.1802Q122.79-36.3327 122.274-39.9731Q121.758-43.6134 121.204-47.5792Q120.206-58.0032 117.279-66.4566Q114.352-74.91 109.174-80.8414Q103.996-86.7729 96.3005-89.5187Q94.0178-95.8809 88.6818-99.968Q83.3458-104.055 76.358-104.055Q69.3588-104.055 64.0285-99.968Q58.6983-95.8809 56.4156-89.5187Q48.7091-86.7729 43.5364-80.8414Q38.3636-74.91 35.4187-66.4566Q32.4738-58.0032 31.5117-47.5792Q30.9578-43.6134 30.418-39.9731Q29.8782-36.3327 29.1313-33.1802Q28.3844-30.0278 27.2114-27.5803Q26.0384-25.1328 24.157-23.5527Q21.1357-20.993 18.512-18.1797Q15.8882-15.3664 14.2738-12.1571Q12.6595-8.94775 12.6595-5.25131Q12.6595-0.13504 16.0633 3.0014Q19.4672 6.13785 25.1289 6.13785ZM76.358 33.6334Q82.4295 33.6334 87.1967 31.1447Q91.964 28.656 94.8517 24.4904Q97.7394 20.3247 98.1529 15.3564L54.5631 15.3564Q54.94 20.3247 57.8278 24.4904Q60.7155 28.656 65.5014 31.1447Q70.2873 33.6334 76.358 33.6334Z"/>
  </g>
  <g id="Bold-L" transform="matrix(1 0 0 1 2264.83 1556)">
   <path class="multicolor-0:systemRedColor SFSymbolsPreviewFF3B30" d="M24.0723 6.17676L126.172 6.17676Q131.226 6.17676 134.204 3.49121Q137.183 0.805664 137.183-3.58887Q137.183-7.10449 135.51-10.2173Q133.838-13.3301 131.201-16.1499Q128.564-18.9697 125.659-21.6064Q123.804-23.3154 122.644-25.8789Q121.484-28.4424 120.764-31.6528Q120.044-34.8633 119.58-38.4521Q119.116-42.041 118.652-45.8008Q117.847-56.4697 115.088-65.0391Q112.329-73.6084 107.202-79.5654Q102.075-85.5225 94.2383-88.2812Q92.1875-94.6045 87.1094-98.7305Q82.0312-102.856 75.1465-102.856Q68.2373-102.856 63.1714-98.7305Q58.1055-94.6045 56.0547-88.2812Q48.1934-85.5225 43.0786-79.5654Q37.9639-73.6084 35.1929-65.0391Q32.4219-56.4697 31.6406-45.8008Q31.1768-42.041 30.6885-38.4521Q30.2002-34.8633 29.4922-31.6528Q28.7842-28.4424 27.6367-25.8789Q26.4893-23.3154 24.6338-21.6064Q21.7285-18.9697 19.0918-16.1499Q16.4551-13.3301 14.7827-10.2173Q13.1104-7.10449 13.1104-3.58887Q13.1104 0.805664 16.0889 3.49121Q19.0674 6.17676 24.0723 6.17676ZM75.1465 32.4219Q80.9082 32.4219 85.437 30.0171Q89.9658 27.6123 92.7246 23.6206Q95.4834 19.6289 95.9229 14.8926L54.3701 14.8926Q54.7852 19.6289 57.5439 23.6206Q60.3027 27.6123 64.8438 30.0171Q69.3848 32.4219 75.1465 32.4219Z"/>
  </g>
  <g id="Semibold-L" transform="matrix(1 0 0 1 1968.96 1556)">
   <path class="multicolor-0:systemRedColor SFSymbolsPreviewFF3B30" d="M23.3437 6.20346L125.23 6.20346Q129.83 6.20346 132.515 3.82881Q135.201 1.45416 135.201-2.44217Q135.201-5.83344 133.488-8.87985Q131.776-11.9263 129.131-14.7503Q126.485-17.5743 123.66-20.2644Q121.822-22.0627 120.684-24.7059Q119.547-27.3491 118.849-30.5996Q118.151-33.8501 117.723-37.4035Q117.294-40.9569 116.893-44.5747Q116.22-55.4123 113.577-64.0617Q110.934-72.7112 105.842-78.6858Q100.751-84.6603 92.8162-87.4283Q90.9256-93.7248 86.0252-97.8775Q81.1249-102.03 74.3111-102.03Q67.4644-102.03 62.5805-97.8775Q57.6965-93.7248 55.806-87.4283Q47.8378-84.6603 42.7631-78.6858Q37.6884-72.7112 35.0372-64.0617Q32.386-55.4123 31.7291-44.5747Q31.3278-40.9569 30.875-37.4035Q30.4222-33.8501 29.7409-30.5996Q29.0596-27.3491 27.9301-24.7059Q26.8005-22.0627 24.9626-20.2644Q22.1375-17.5743 19.492-14.7503Q16.8465-11.9263 15.134-8.87985Q13.4216-5.83344 13.4216-2.44217Q13.4216 1.45416 16.1068 3.82881Q18.792 6.20346 23.3437 6.20346ZM74.3111 31.5865Q79.8592 31.5865 84.2236 29.2393Q88.588 26.8921 91.2582 23.0206Q93.9285 19.149 94.3855 14.5729L54.2366 14.5729Q54.6783 19.149 57.3483 23.0206Q60.0182 26.8921 64.3906 29.2393Q68.763 31.5865 74.3111 31.5865Z"/>
  </g>
  <g id="Medium-L" transform="matrix(1 0 0 1 1672.88 1556)">
   <path class="multicolor-0:systemRedColor SFSymbolsPreviewFF3B30" d="M22.7913 6.2233L124.516 6.2233Q128.773 6.2233 131.236 4.08478Q133.698 1.94626 133.698-1.57318Q133.698-4.86984 131.956-7.86552Q130.213-10.8612 127.561-13.689Q124.908-16.5169 122.144-19.2467Q120.319-21.1121 119.199-23.8163Q118.078-26.5205 117.397-29.8012Q116.716-33.0818 116.315-36.6081Q115.913-40.1344 115.559-43.6447Q114.987-54.6104 112.432-63.3202Q109.876-72.0299 104.811-78.0182Q99.7467-84.0065 91.7381-86.7813Q89.9689-93.0573 85.2032-97.2301Q80.4375-101.403 73.6778-101.403Q66.8777-101.403 62.1323-97.2301Q57.3868-93.0573 55.6175-86.7813Q47.5685-84.0065 42.524-78.0182Q37.4794-72.0299 34.9194-63.3202Q32.3593-54.6104 31.797-43.6447Q31.4423-40.1344 31.0165-36.6081Q30.5908-33.0818 29.9297-29.8012Q29.2686-26.5205 28.1525-23.8163Q27.0363-21.1121 25.2121-19.2467Q22.4472-16.5169 19.7948-13.689Q17.1425-10.8612 15.3999-7.86552Q13.6574-4.86984 13.6574-1.57318Q13.6574 1.94626 16.1201 4.08478Q18.5829 6.2233 22.7913 6.2233ZM73.6778 30.9532Q79.0642 30.9532 83.3042 28.6499Q87.5443 26.3466 90.1466 22.5658Q92.749 18.7851 93.2198 14.3303L54.1359 14.3303Q54.5975 18.7851 57.2002 22.5658Q59.803 26.3466 64.0469 28.6499Q68.2907 30.9532 73.6778 30.9532Z"/>
  </g>
  <g id="Regular-L" transform="matrix(1 0 0 1 1376.99 1556)">
   <path class="multicolor-0:systemRedColor SFSymbolsPreviewFF3B30" d="M22.0703 6.25L123.584 6.25Q127.393 6.25 129.565 4.41895Q131.738 2.58789 131.738-0.439453Q131.738-3.61328 129.956-6.54297Q128.174-9.47266 125.513-12.3047Q122.852-15.1367 120.166-17.9199Q118.359-19.873 117.261-22.6562Q116.162-25.4395 115.503-28.7598Q114.844-32.0801 114.478-35.5713Q114.111-39.0625 113.818-42.4316Q113.379-53.5645 110.938-62.3535Q108.496-71.1426 103.467-77.1484Q98.4375-83.1543 90.332-85.9375Q88.7207-92.1875 84.1309-96.3867Q79.541-100.586 72.8516-100.586Q66.1133-100.586 61.5479-96.3867Q56.9824-92.1875 55.3711-85.9375Q47.2168-83.1543 42.2119-77.1484Q37.207-71.1426 34.7656-62.3535Q32.3242-53.5645 31.8848-42.4316Q31.5918-39.0625 31.2012-35.5713Q30.8105-32.0801 30.1758-28.7598Q29.541-25.4395 28.4424-22.6562Q27.3438-19.873 25.5371-17.9199Q22.8516-15.1367 20.1904-12.3047Q17.5293-9.47266 15.7471-6.54297Q13.9648-3.61328 13.9648-0.439453Q13.9648 2.58789 16.1377 4.41895Q18.3105 6.25 22.0703 6.25ZM72.8516 30.127Q78.0273 30.127 82.1045 27.8809Q86.1816 25.6348 88.6963 21.9727Q91.2109 18.3105 91.6992 14.0137L54.0039 14.0137Q54.4922 18.3105 57.0068 21.9727Q59.5215 25.6348 63.5986 27.8809Q67.6758 30.127 72.8516 30.127Z"/>
  </g>
  <g id="Light-L" transform="matrix(1 0 0 1 1080.25 1556)">
   <path class="multicolor-0:systemRedColor SFSymbolsPreviewFF3B30" d="M20.9953 6.77948L124.734 6.77948Q127.634 6.77948 129.323 5.30434Q131.012 3.82919 131.012 1.39236Q131.012-1.79672 129.29-4.7039Q127.568-7.61108 124.998-10.4053Q122.427-13.1996 119.818-15.9828Q117.709-18.3136 116.504-21.6644Q115.299-25.0153 114.632-29.0398Q113.966-33.0643 113.554-37.365Q113.142-41.6656 112.668-45.8824Q111.971-55.6984 109.462-63.5868Q106.952-71.4752 102.052-76.8986Q97.1512-82.3219 89.3631-84.7267Q88.0241-91.1278 83.6311-95.2209Q79.2381-99.3141 72.8821-99.3141Q66.4917-99.3141 62.1078-95.2209Q57.724-91.1278 56.4003-84.7267Q48.5794-82.3219 43.6878-76.8986Q38.7962-71.4752 36.2869-63.5868Q33.7776-55.6984 33.0956-45.8824Q32.6057-41.6656 32.185-37.365Q31.7642-33.0643 31.1142-29.0398Q30.4642-25.0153 29.2595-21.6644Q28.0548-18.3136 25.9308-15.9828Q23.336-13.1996 20.7657-10.4053Q18.1953-7.61108 16.4738-4.7039Q14.7522-1.79672 14.7522 1.39236Q14.7522 3.82919 16.4406 5.30434Q18.129 6.77948 20.9953 6.77948ZM72.8821 28.8254Q77.8458 28.8254 81.7337 26.7078Q85.6216 24.5903 88.0531 21.0949Q90.4846 17.5995 91.0789 13.4537L54.67 13.4537Q55.2795 17.5995 57.7106 21.0949Q60.1418 24.5903 64.0297 26.7078Q67.9176 28.8254 72.8821 28.8254Z"/>
  </g>
  <g id="Thin-L" transform="matrix(1 0 0 1 783.5 1556)">
   <path class="multicolor-0:systemRedColor SFSymbolsPreviewFF3B30" d="M19.574 7.48062L126.256 7.48062Q127.955 7.48062 129.003 6.47545Q130.051 5.47028 130.051 3.81393Q130.051 0.605011 128.409-2.27165Q126.768-5.14832 124.318-7.89261Q121.867-10.6369 119.357-13.4201Q116.848-16.2521 115.503-20.3537Q114.159-24.4553 113.482-29.4102Q112.804-34.3651 112.333-39.7369Q111.861-45.1088 111.147-50.4471Q110.11-58.5213 107.51-65.2187Q104.91-71.9162 100.18-76.5686Q95.4491-81.221 88.0821-83.1253Q87.1033-89.727 82.9704-93.6798Q78.8376-97.6326 72.9218-97.6326Q66.9922-97.6326 62.8487-93.6798Q58.7051-89.727 57.7614-83.1253Q50.3807-81.221 45.6394-76.5686Q40.8981-71.9162 38.2988-65.2187Q35.6995-58.5213 34.697-50.4471Q33.947-45.1088 33.4862-39.7369Q33.0254-34.3651 32.3555-29.4102Q31.6856-24.4553 30.341-20.3537Q28.9963-16.2521 26.4511-13.4201Q23.9769-10.6369 21.5263-7.89261Q19.0758-5.14832 17.4343-2.27165Q15.7928 0.605011 15.7928 3.81393Q15.7928 5.47028 16.8407 6.47545Q17.8886 7.48062 19.574 7.48062ZM72.9218 27.1034Q77.6054 27.1034 81.2431 25.1564Q84.8808 23.2094 87.2021 19.9337Q89.5233 16.658 90.258 12.7129L55.5504 12.7129Q56.3202 16.658 58.6414 19.9337Q60.9627 23.2094 64.6004 25.1564Q68.2381 27.1034 72.9218 27.1034Z"/>
  </g>
  <g id="Ultralight-L" transform="matrix(1 0 0 1 486.769 1556)">
   <path class="multicolor-0:systemRedColor SFSymbolsPreviewFF3B30" d="M18.8461 7.8392L127.035 7.8392Q128.119 7.8392 128.839 7.0755Q129.559 6.3118 129.559 5.05524Q129.559 1.83563 127.958-1.02577Q126.357-3.88718 123.969-6.60591Q121.58-9.32465 119.122-12.1078Q116.407-15.1955 114.99-19.6815Q113.573-24.1676 112.892-29.5998Q112.21-35.0319 111.708-40.9523Q111.205-46.8727 110.368-52.7847Q109.156-59.967 106.51-66.0542Q103.864-72.1413 99.221-76.3988Q94.5778-80.6564 87.426-82.3044Q86.6318-89.0091 82.6324-92.8902Q78.6331-96.7712 72.9424-96.7712Q67.2485-96.7712 63.2278-92.8902Q59.2072-89.0091 58.4587-82.3044Q51.3039-80.6564 46.6396-76.3988Q41.9754-72.1413 39.3295-66.0542Q36.6837-59.967 35.5179-52.7847Q34.6344-46.8727 34.153-40.9523Q33.6716-35.0319 32.9914-29.5998Q32.3112-24.1676 30.8945-19.6815Q29.4777-15.1955 26.7181-12.1078Q24.305-9.32465 21.9162-6.60591Q19.5274-3.88718 17.9268-1.02577Q16.3261 1.83563 16.3261 5.05524Q16.3261 6.3118 17.046 7.0755Q17.7658 7.8392 18.8461 7.8392ZM72.9424 26.2215Q77.4826 26.2215 80.9921 24.3614Q84.5016 22.5014 86.7664 19.339Q89.0312 16.1766 89.8376 12.3337L56.002 12.3337Q56.8535 16.1766 59.1183 19.339Q61.3831 22.5014 64.8926 24.3614Q68.4021 26.2215 72.9424 26.2215Z"/>
  </g>
  <g id="Black-M" transform="matrix(1 0 0 1 2872.44 1126)">
   <path class="multicolor-0:systemRedColor SFSymbolsPreviewFF3B30" d="M20.6543-3.02734L101.221-3.02734Q106.299-3.02734 109.399-6.00586Q112.5-8.98438 112.5-13.7695Q112.5-16.9434 111.353-19.5557Q110.205-22.168 108.228-24.3408Q106.25-26.5137 103.76-28.3691Q101.611-29.9316 100.513-32.8125Q99.4141-35.6934 98.7549-39.6973Q98.0957-43.7012 97.2656-48.584Q96.1426-55.8105 93.6035-61.9141Q91.0645-68.0176 87.0117-72.3633Q82.959-76.709 77.3438-78.7109Q75.293-83.7402 70.8496-86.8164Q66.4062-89.8926 60.9375-89.8926Q55.5176-89.8926 51.0498-86.8164Q46.582-83.7402 44.5801-78.7109Q38.9648-76.709 34.9121-72.3633Q30.8594-68.0176 28.3203-61.9141Q25.7812-55.8105 24.6582-48.584Q23.8281-43.7012 23.1689-39.6973Q22.5098-35.6934 21.4111-32.8125Q20.3125-29.9316 18.1641-28.3691Q15.6738-26.5137 13.6963-24.3408Q11.7188-22.168 10.5713-19.5557Q9.42383-16.9434 9.42383-13.7695Q9.42383-8.98438 12.5244-6.00586Q15.625-3.02734 20.6543-3.02734ZM60.9375 19.4824Q66.0156 19.4824 70.0195 17.4561Q74.0234 15.4297 76.416 12.0117Q78.8086 8.59375 79.1016 4.44336L42.8223 4.44336Q43.0664 8.59375 45.4834 12.0117Q47.9004 15.4297 51.8799 17.4561Q55.8594 19.4824 60.9375 19.4824Z"/>
  </g>
  <g id="Heavy-M" transform="matrix(1 0 0 1 2576.8 1126)">
   <path class="multicolor-0:systemRedColor SFSymbolsPreviewFF3B30" d="M19.9631-3.11966L99.7803-3.11966Q104.478-3.11966 107.307-5.77545Q110.137-8.43124 110.137-12.7205Q110.137-15.7219 108.926-18.259Q107.716-20.7962 105.704-22.9752Q103.692-25.1541 101.293-27.0897Q99.2722-28.6758 98.2193-31.5105Q97.1664-34.3452 96.5591-38.1184Q95.9518-41.8915 95.2721-46.2906Q94.3794-54.0245 91.996-60.416Q89.6126-66.8076 85.5827-71.3032Q81.5529-75.7988 75.7301-77.8809Q73.8411-82.8529 69.582-85.9867Q65.3229-89.1205 59.8656-89.1205Q54.4571-89.1205 50.1797-85.9867Q45.9023-82.8529 44.0498-77.8809Q38.2271-75.7988 34.1919-71.3032Q30.1567-66.8076 27.779-60.416Q25.4013-54.0245 24.5087-46.2906Q23.8281-41.8915 23.2208-38.1184Q22.6135-34.3452 21.5611-31.5105Q20.5086-28.6758 18.4868-27.0897Q16.0889-25.1541 14.0766-22.9752Q12.0644-20.7962 10.8536-18.259Q9.64279-15.7219 9.64279-12.7205Q9.64279-8.43124 12.4725-5.77545Q15.3023-3.11966 19.9631-3.11966ZM59.8656 18.6989Q64.7247 18.6989 68.5558 16.7244Q72.3869 14.7499 74.6815 11.4471Q76.976 8.14438 77.2804 4.16641L42.4995 4.16641Q42.7551 8.14438 45.0741 11.4471Q47.393 14.7499 51.2054 16.7244Q55.0179 18.6989 59.8656 18.6989Z"/>
  </g>
  <g id="Bold-M" transform="matrix(1 0 0 1 2281.29 1126)">
   <path class="multicolor-0:systemRedColor SFSymbolsPreviewFF3B30" d="M19.1895-3.22266L98.1689-3.22266Q102.441-3.22266 104.968-5.51758Q107.495-7.8125 107.495-11.5479Q107.495-14.3555 106.213-16.8091Q104.932-19.2627 102.881-21.4478Q100.83-23.6328 98.5352-25.6592Q96.6553-27.2705 95.6543-30.0537Q94.6533-32.8369 94.104-36.3525Q93.5547-39.8682 93.042-43.7256Q92.4072-52.0264 90.1978-58.7402Q87.9883-65.4541 83.9844-70.1172Q79.9805-74.7803 73.9258-76.9531Q72.2168-81.8604 68.1641-85.0586Q64.1113-88.2568 58.667-88.2568Q53.2715-88.2568 49.2065-85.0586Q45.1416-81.8604 43.457-76.9531Q37.4023-74.7803 33.3862-70.1172Q29.3701-65.4541 27.1729-58.7402Q24.9756-52.0264 24.3408-43.7256Q23.8281-39.8682 23.2788-36.3525Q22.7295-32.8369 21.7285-30.0537Q20.7275-27.2705 18.8477-25.6592Q16.5527-23.6328 14.502-21.4478Q12.4512-19.2627 11.1694-16.8091Q9.8877-14.3555 9.8877-11.5479Q9.8877-7.8125 12.4146-5.51758Q14.9414-3.22266 19.1895-3.22266ZM58.667 17.8223Q63.2812 17.8223 66.9189 15.9058Q70.5566 13.9893 72.7417 10.8154Q74.9268 7.6416 75.2441 3.85742L42.1387 3.85742Q42.4072 7.6416 44.6167 10.8154Q46.8262 13.9893 50.4517 15.9058Q54.0771 17.8223 58.667 17.8223Z"/>
  </g>
  <g id="Semibold-M" transform="matrix(1 0 0 1 1985.4 1126)">
   <path class="multicolor-0:systemRedColor SFSymbolsPreviewFF3B30" d="M18.6562-3.29361L97.0581-3.29361Q101.038-3.29361 103.355-5.33981Q105.673-7.38602 105.673-10.7391Q105.673-13.4132 104.343-15.8092Q103.012-18.2053 100.935-20.3945Q98.8571-22.5838 96.6331-24.6727Q94.8509-26.3016 93.8858-29.0493Q92.9207-31.797 92.411-35.1349Q91.9014-38.4727 91.5047-41.9571Q91.0477-50.6485 88.958-57.5848Q86.8683-64.521 82.8823-69.2997Q78.8963-74.0784 72.6814-76.313Q71.0968-81.176 67.1864-84.4189Q63.2759-87.6617 57.8407-87.6617Q52.4536-87.6617 48.5355-84.4189Q44.6175-81.176 43.0481-76.313Q36.834-74.0784 32.8308-69.2997Q28.8277-64.521 26.7551-57.5848Q24.6826-50.6485 24.2256-41.9571Q23.8281-38.4727 23.3189-35.1349Q22.8096-31.797 21.8441-29.0493Q20.8786-26.3016 19.0964-24.6727Q16.8724-22.5838 14.7949-20.3945Q12.7174-18.2053 11.3869-15.8092Q10.0563-13.4132 10.0563-10.7391Q10.0563-7.38602 12.3745-5.33981Q14.6927-3.29361 18.6562-3.29361ZM57.8407 17.218Q62.2856 17.218 65.7902 15.3416Q69.2947 13.4651 71.4043 10.3802Q73.5138 7.29523 73.8403 3.6438L41.89 3.6438Q42.1669 7.29523 44.3008 10.3802Q46.4348 13.4651 49.9317 15.3416Q53.4286 17.218 57.8407 17.218Z"/>
  </g>
  <g id="Medium-M" transform="matrix(1 0 0 1 1689.32 1126)">
   <path class="multicolor-0:systemRedColor SFSymbolsPreviewFF3B30" d="M18.2518-3.34778L96.2158-3.34778Q99.9725-3.34778 102.132-5.20515Q104.292-7.06253 104.292-10.1257Q104.292-12.6991 102.924-15.0513Q101.556-17.4034 99.4587-19.5961Q97.361-21.7888 95.1912-23.925Q93.483-25.5676 92.5446-28.2883Q91.6061-31.0089 91.1274-34.2121Q90.6487-37.4153 90.3389-40.6158Q90.0162-49.6048 88.0177-56.7093Q86.0191-63.8138 82.0465-68.6798Q78.0739-73.5458 71.7384-75.8278Q70.2477-80.6572 66.4452-83.9336Q62.6427-87.2101 57.2136-87.2101Q51.8341-87.2101 48.027-83.9336Q44.22-80.6572 42.7383-75.8278Q36.4021-73.5458 32.4097-68.6798Q28.4172-63.8138 26.4385-56.7093Q24.4598-49.6048 24.1379-40.6158Q23.8281-37.4153 23.349-34.2121Q22.8699-31.0089 21.9315-28.2883Q20.993-25.5676 19.2848-23.925Q17.115-21.7888 15.0173-19.5961Q12.9196-17.4034 11.552-15.0513Q10.1845-12.6991 10.1845-10.1257Q10.1845-7.06253 12.3444-5.20515Q14.5042-3.34778 18.2518-3.34778ZM57.2136 16.7595Q61.5311 16.7595 64.9345 14.9136Q68.338 13.0676 70.3903 10.0498Q72.4426 7.03201 72.7753 3.48206L41.7015 3.48206Q41.9853 7.03201 44.062 10.0498Q46.1388 13.0676 49.5377 14.9136Q52.9366 16.7595 57.2136 16.7595Z"/>
  </g>
  <g id="Regular-M" transform="matrix(1 0 0 1 1393.42 1126)">
   <path class="multicolor-0:systemRedColor SFSymbolsPreviewFF3B30" d="M17.7246-3.41797L95.1172-3.41797Q98.584-3.41797 100.537-5.0293Q102.49-6.64062 102.49-9.32617Q102.49-11.7676 101.074-14.0625Q99.6582-16.3574 97.5342-18.5547Q95.4102-20.752 93.3105-22.9492Q91.6992-24.6094 90.7959-27.2949Q89.8926-29.9805 89.4531-33.0078Q89.0137-36.0352 88.8184-38.8672Q88.6719-48.2422 86.792-55.5664Q84.9121-62.8906 80.957-67.8711Q77.002-72.8516 70.5078-75.1953Q69.1406-79.9805 65.4785-83.3008Q61.8164-86.6211 56.3965-86.6211Q51.0254-86.6211 47.3633-83.3008Q43.7012-79.9805 42.334-75.1953Q35.8398-72.8516 31.8604-67.8711Q27.8809-62.8906 26.0254-55.5664Q24.1699-48.2422 24.0234-38.8672Q23.8281-36.0352 23.3887-33.0078Q22.9492-29.9805 22.0459-27.2949Q21.1426-24.6094 19.5312-22.9492Q17.4316-20.752 15.3076-18.5547Q13.1836-16.3574 11.7676-14.0625Q10.3516-11.7676 10.3516-9.32617Q10.3516-6.64062 12.3047-5.0293Q14.2578-3.41797 17.7246-3.41797ZM56.3965 16.1621Q60.5469 16.1621 63.8184 14.3555Q67.0898 12.5488 69.0674 9.61914Q71.0449 6.68945 71.3867 3.27148L41.4551 3.27148Q41.748 6.68945 43.75 9.61914Q45.752 12.5488 49.0234 14.3555Q52.2949 16.1621 56.3965 16.1621Z"/>
  </g>
  <g id="Light-M" transform="matrix(1 0 0 1 1096.68 1126)">
   <path class="multicolor-0:systemRedColor SFSymbolsPreviewFF3B30" d="M16.7557-2.9335L96.1464-2.9335Q98.7961-2.9335 100.318-4.22707Q101.839-5.52063 101.839-7.67593Q101.839-10.1326 100.476-12.405Q99.1135-14.6774 97.0726-16.8518Q95.0317-19.0262 93.0077-21.2082Q91.0179-23.3376 90.0539-26.7574Q89.09-30.1773 88.6505-34.1354Q88.2111-38.0936 87.7892-41.9548Q87.4153-50.1495 85.4824-56.6715Q83.5495-63.1935 79.7005-67.6517Q75.8514-72.11 69.6449-74.1203Q68.5204-79.0268 65.0322-82.2487Q61.544-85.4706 56.4423-85.4706Q51.358-85.4706 47.8703-82.2487Q44.3825-79.0268 43.2571-74.1203Q37.0506-72.11 33.1848-67.6517Q29.319-63.1935 27.4029-56.6715Q25.4868-50.1495 25.1129-41.9548Q24.691-38.0936 24.2516-34.1354Q23.8121-30.1773 22.8481-26.7574Q21.8842-23.3376 19.8944-21.2082Q17.8703-19.0262 15.8298-16.8518Q13.7894-14.6774 12.426-12.405Q11.0626-10.1326 11.0626-7.67593Q11.0626-5.52063 12.5847-4.22707Q14.1068-2.9335 16.7557-2.9335ZM56.4423 14.9963Q60.3958 14.9963 63.493 13.3034Q66.5901 11.6104 68.4998 8.82454Q70.4094 6.03867 70.842 2.7565L42.0609 2.7565Q42.4591 6.03867 44.3855 8.82454Q46.312 11.6104 49.4095 13.3034Q52.507 14.9963 56.4423 14.9963Z"/>
  </g>
  <g id="Thin-M" transform="matrix(1 0 0 1 799.931 1126)">
   <path class="multicolor-0:systemRedColor SFSymbolsPreviewFF3B30" d="M15.4747-2.2934L97.5075-2.2934Q99.0761-2.2934 100.027-3.1662Q100.979-4.039 100.979-5.49393Q100.979-7.97119 99.6857-10.2131Q98.3925-12.455 96.4619-14.5996Q94.5312-16.7442 92.6071-18.9064Q90.1169-21.656 89.0732-26.0468Q88.0295-30.4375 87.59-35.627Q87.1506-40.8165 86.4281-46.0388Q85.7544-52.6718 83.7513-58.1329Q81.7482-63.5941 78.0392-67.3615Q74.3301-71.1288 68.5043-72.699Q67.6994-77.7657 64.4417-80.8575Q61.1839-83.9493 56.5018-83.9493Q51.799-83.9493 48.5413-80.8575Q45.2835-77.7657 44.4786-72.699Q38.652-71.1288 34.9361-67.3615Q31.2202-63.5941 29.2244-58.1329Q27.2285-52.6718 26.5549-46.0388Q25.8316-40.8165 25.3922-35.627Q24.9527-30.4375 23.909-26.0468Q22.8653-21.656 20.3751-18.9064Q18.4509-16.7442 16.5203-14.5996Q14.5897-12.455 13.2969-10.2131Q12.0041-7.97119 12.0041-5.49393Q12.0041-4.039 12.9551-3.1662Q13.9061-2.2934 15.4747-2.2934ZM56.5018 13.4552Q60.1952 13.4552 63.0623 11.9122Q65.9294 10.3691 67.749 7.77359Q69.5686 5.17807 70.121 2.07596L42.8612 2.07596Q43.4006 5.17807 45.2267 7.77359Q47.0528 10.3691 49.9199 11.9122Q52.787 13.4552 56.5018 13.4552Z"/>
  </g>
  <g id="Ultralight-M" transform="matrix(1 0 0 1 503.199 1126)">
   <path class="multicolor-0:systemRedColor SFSymbolsPreviewFF3B30" d="M14.8186-1.96457L98.2048-1.96457Q99.2195-1.96457 99.8787-2.6226Q100.538-3.28064 100.538-4.37622Q100.538-6.8634 99.2805-9.09004Q98.0232-11.3167 96.1491-13.446Q94.2749-15.5754 92.4026-17.7269Q89.6561-20.7947 88.5708-25.6828Q87.4855-30.571 87.0461-36.3911Q86.6066-42.2112 85.7307-48.1308Q84.903-53.9635 82.864-58.881Q80.825-63.7985 77.1881-67.2127Q73.5512-70.6268 67.9192-71.9711Q67.2791-77.1194 64.1392-80.1449Q60.9993-83.1703 56.5331-83.1703Q52.0241-83.1703 48.8842-80.1449Q45.7443-77.1194 45.1042-71.9711Q39.473-70.6268 35.8337-67.2127Q32.1945-63.7985 30.1575-58.881Q28.1204-53.9635 27.2926-48.1308Q26.4168-42.2112 25.9773-36.3911Q25.5379-30.571 24.4526-25.6828Q23.3673-20.7947 20.6207-17.7269Q18.7485-15.5754 16.8743-13.446Q15.0002-11.3167 13.7428-9.09004Q12.4855-6.8634 12.4855-4.37622Q12.4855-3.28064 13.1447-2.6226Q13.8039-1.96457 14.8186-1.96457ZM56.5331 12.6656Q60.0929 12.6656 62.8422 11.1996Q65.5914 9.73358 67.3645 7.23534Q69.1376 4.73709 69.7517 1.72729L43.2716 1.72729Q43.882 4.73709 45.657 7.23534Q47.4319 9.73358 50.1812 11.1996Q52.9305 12.6656 56.5331 12.6656Z"/>
  </g>
  <g id="Black-S" transform="matrix(1 0 0 1 2885.3 696)">
   <path class="multicolor-0:systemRedColor SFSymbolsPreviewFF3B30" d="M16.3574-9.96094L79.834-9.96094Q83.8867-9.96094 86.3525-12.3779Q88.8184-14.7949 88.8184-18.6523Q88.8184-22.4121 86.9141-25.2197Q85.0098-28.0273 82.0312-30.127Q80.3223-31.3965 79.4434-33.7158Q78.5645-36.0352 78.0273-39.2822Q77.4902-42.5293 76.7578-46.582Q75.3418-54.7363 71.4355-60.9619Q67.5293-67.1875 61.0352-69.4824Q59.4238-73.4375 55.8838-75.8301Q52.3438-78.2227 48.0957-78.2227Q43.8477-78.2227 40.3076-75.8301Q36.7676-73.4375 35.1562-69.4824Q28.6621-67.1875 24.7559-60.9619Q20.8496-54.7363 19.4336-46.582Q18.75-42.5293 18.2129-39.2822Q17.6758-36.0352 16.7969-33.7158Q15.918-31.3965 14.1602-30.127Q11.1816-28.0273 9.27734-25.2197Q7.37305-22.4121 7.37305-18.6523Q7.37305-14.7949 9.86328-12.3779Q12.3535-9.96094 16.3574-9.96094ZM48.0957 7.8125Q54.1504 7.8125 58.1543 4.32129Q62.1582 0.830078 62.5-4.10156L33.6914-4.10156Q34.0332 0.830078 38.0371 4.32129Q42.041 7.8125 48.0957 7.8125Z"/>
  </g>
  <g id="Heavy-S" transform="matrix(1 0 0 1 2589.52 696)">
   <path class="multicolor-0:systemRedColor SFSymbolsPreviewFF3B30" d="M15.8852-10.0876L78.4622-10.0876Q82.2845-10.0876 84.5833-12.2742Q86.882-14.4608 86.882-17.9611Q86.882-21.5019 84.8568-24.2748Q82.8316-27.0477 79.9568-29.2511Q78.3974-30.4863 77.5646-32.6672Q76.7319-34.848 76.2409-37.7838Q75.75-40.7196 75.1793-44.2192Q74.086-53.2494 70.335-59.8495Q66.584-66.4497 59.7672-68.9178Q58.2481-72.8035 54.8523-75.2537Q51.4565-77.7039 47.1741-77.7039Q42.8909-77.7039 39.4894-75.2537Q36.0878-72.8035 34.5802-68.9178Q27.7634-66.4497 24.007-59.8495Q20.2507-53.2494 19.1566-44.2192Q18.6348-40.7196 18.1438-37.7838Q17.6529-34.848 16.8201-32.6672Q15.9874-30.4863 14.3906-29.2511Q11.5158-27.0477 9.49059-24.2748Q7.46536-21.5019 7.46536-17.9611Q7.46536-14.4608 9.77707-12.2742Q12.0888-10.0876 15.8852-10.0876ZM47.1741 7.28226Q52.9747 7.28226 56.8291 3.87192Q60.6834 0.461578 61.013-4.27475L33.3344-4.27475Q33.6647 0.461578 37.513 3.87192Q41.3612 7.28226 47.1741 7.28226Z"/>
  </g>
  <g id="Bold-S" transform="matrix(1 0 0 1 2293.84 696)">
   <path class="multicolor-0:systemRedColor SFSymbolsPreviewFF3B30" d="M15.3564-10.2295L76.9287-10.2295Q80.4932-10.2295 82.605-12.1582Q84.7168-14.0869 84.7168-17.1875Q84.7168-20.4834 82.5562-23.2178Q80.3955-25.9521 77.6367-28.2715Q76.2451-29.4678 75.4639-31.4941Q74.6826-33.5205 74.2432-36.1084Q73.8037-38.6963 73.4131-41.5771Q72.6807-51.5869 69.104-58.606Q65.5273-65.625 58.3496-68.2861Q56.9336-72.0947 53.6987-74.6094Q50.4639-77.124 46.1426-77.124Q41.8213-77.124 38.5742-74.6094Q35.3271-72.0947 33.9355-68.2861Q26.7578-65.625 23.1689-58.606Q19.5801-51.5869 18.8477-41.5771Q18.5059-38.6963 18.0664-36.1084Q17.627-33.5205 16.8457-31.4941Q16.0645-29.4678 14.6484-28.2715Q11.8896-25.9521 9.729-23.2178Q7.56836-20.4834 7.56836-17.1875Q7.56836-14.0869 9.68018-12.1582Q11.792-10.2295 15.3564-10.2295ZM46.1426 6.68945Q51.6602 6.68945 55.3467 3.36914Q59.0332 0.0488281 59.3506-4.46777L32.9346-4.46777Q33.252 0.0488281 36.9263 3.36914Q40.6006 6.68945 46.1426 6.68945Z"/>
  </g>
  <g id="Semibold-S" transform="matrix(1 0 0 1 1997.84 696)">
   <path class="multicolor-0:systemRedColor SFSymbolsPreviewFF3B30" d="M14.9918-10.3271L75.8713-10.3271Q79.258-10.3271 81.2408-12.0781Q83.2237-13.829 83.2237-16.6542Q83.2237-19.7815 80.9696-22.4892Q78.7155-25.1968 76.0368-27.5963Q74.7612-28.7659 74.0154-30.6854Q73.2697-32.605 72.8657-34.9529Q72.4617-37.3009 72.1954-39.7552Q71.7117-50.4402 68.2552-57.7484Q64.7987-65.0566 57.3723-67.8505Q56.0272-71.6057 52.9034-74.165Q49.7795-76.7242 45.4315-76.7242Q41.0835-76.7242 37.9433-74.165Q34.803-71.6057 33.4915-67.8505Q26.0643-65.0566 22.591-57.7484Q19.1177-50.4402 18.634-39.7552Q18.4174-37.3009 18.0134-34.9529Q17.6094-32.605 16.8636-30.6854Q16.1179-28.7659 14.8262-27.5963Q12.1475-25.1968 9.89342-22.4892Q7.63931-19.7815 7.63931-16.6542Q7.63931-13.829 9.61342-12.0781Q11.5875-10.3271 14.9918-10.3271ZM45.4315 6.28052Q50.7538 6.28052 54.3247 3.02238Q57.8957-0.235748 58.2039-4.60129L32.6591-4.60129Q32.9674-0.235748 36.5219 3.02238Q40.0764 6.28052 45.4315 6.28052Z"/>
  </g>
  <g id="Medium-S" transform="matrix(1 0 0 1 1701.66 696)">
   <path class="multicolor-0:systemRedColor SFSymbolsPreviewFF3B30" d="M14.7156-10.4012L75.0694-10.4012Q78.3211-10.4012 80.2063-12.0174Q82.0915-13.6337 82.0915-16.2498Q82.0915-19.249 79.7668-21.9364Q77.4422-24.6239 74.8245-27.0836Q73.6359-28.2333 72.9172-30.0724Q72.1985-31.9115 71.8212-34.0775Q71.4439-36.2434 71.2723-38.3743Q70.9778-49.5712 67.6121-57.098Q64.2464-64.6248 56.6307-67.5201Q55.3398-71.2357 52.3003-73.8281Q49.2607-76.4206 44.8929-76.4206Q40.5243-76.4206 37.4649-73.8281Q34.4055-71.2357 33.1543-67.5201Q25.5394-64.6248 22.1535-57.098Q18.7675-49.5712 18.4723-38.3743Q18.3495-36.2434 17.9726-34.0775Q17.5957-31.9115 16.877-30.0724Q16.1583-28.2333 14.9612-27.0836Q12.3428-24.6239 10.0182-21.9364Q7.69348-19.249 7.69348-16.2498Q7.69348-13.6337 9.56306-12.0174Q11.4326-10.4012 14.7156-10.4012ZM44.8929 5.97076Q50.0664 5.97076 53.55 2.75993Q57.0335-0.450897 57.3349-4.702L32.4501-4.702Q32.7522-0.450897 36.2156 2.75993Q39.679 5.97076 44.8929 5.97076Z"/>
  </g>
  <g id="Regular-S" transform="matrix(1 0 0 1 1405.65 696)">
   <path class="multicolor-0:systemRedColor SFSymbolsPreviewFF3B30" d="M14.3555-10.498L74.0234-10.498Q77.0996-10.498 78.8574-11.9385Q80.6152-13.3789 80.6152-15.7227Q80.6152-18.5547 78.1982-21.2158Q75.7812-23.877 73.2422-26.416Q72.168-27.5391 71.4844-29.2725Q70.8008-31.0059 70.459-32.9346Q70.1172-34.8633 70.0684-36.5723Q70.0195-48.4375 66.7725-56.25Q63.5254-64.0625 55.6641-67.0898Q54.4434-70.752 51.5137-73.3887Q48.584-76.0254 44.1895-76.0254Q39.7949-76.0254 36.8408-73.3887Q33.8867-70.752 32.7148-67.0898Q24.8535-64.0625 21.582-56.25Q18.3105-48.4375 18.2617-36.5723Q18.2617-34.8633 17.9199-32.9346Q17.5781-31.0059 16.8945-29.2725Q16.2109-27.5391 15.1367-26.416Q12.5977-23.877 10.1807-21.2158Q7.76367-18.5547 7.76367-15.7227Q7.76367-13.3789 9.49707-11.9385Q11.2305-10.498 14.3555-10.498ZM44.1895 5.56641Q49.1699 5.56641 52.5391 2.41699Q55.9082-0.732422 56.2012-4.83398L32.1777-4.83398Q32.4707-0.732422 35.8154 2.41699Q39.1602 5.56641 44.1895 5.56641Z"/>
  </g>
  <g id="Light-S" transform="matrix(1 0 0 1 1108.91 696)">
   <path class="multicolor-0:systemRedColor SFSymbolsPreviewFF3B30" d="M13.5078-10.0739L74.9313-10.0739Q77.3117-10.0739 78.6758-11.2343Q80.04-12.3947 80.04-14.2693Q80.04-17.1318 77.729-19.7399Q75.4181-22.348 72.9851-24.8871Q71.5775-26.4038 70.8408-28.7956Q70.1042-31.1874 69.7624-33.9413Q69.4206-36.6951 69.175-39.312Q68.824-49.6033 65.5994-56.5754Q62.3749-63.5475 54.9072-66.1362Q53.9139-69.9043 51.128-72.4655Q48.3421-75.0267 44.22-75.0267Q40.1131-75.0267 37.3028-72.4655Q34.4925-69.9043 33.532-66.1362Q26.0643-63.5475 22.8233-56.5754Q19.5824-49.6033 19.2307-39.312Q19.0338-36.6951 18.6844-33.9413Q18.335-31.1874 17.606-28.7956Q16.877-26.4038 15.4694-24.8871Q13.0219-22.348 10.7105-19.7399Q8.3992-17.1318 8.3992-14.2693Q8.3992-12.3947 9.75418-11.2343Q11.1092-10.0739 13.5078-10.0739ZM44.22 4.55246Q48.9578 4.55246 52.1229 1.59988Q55.2879-1.35269 55.7167-5.28793L32.7225-5.28793Q33.152-1.35269 36.2999 1.59988Q39.4478 4.55246 44.22 4.55246Z"/>
  </g>
  <g id="Thin-S" transform="matrix(1 0 0 1 812.162 696)">
   <path class="multicolor-0:systemRedColor SFSymbolsPreviewFF3B30" d="M12.3871-9.51385L76.133-9.51385Q77.5917-9.51385 78.4355-10.3039Q79.2793-11.0939 79.2793-12.3482Q79.2793-15.2504 77.1084-17.7883Q74.9374-20.3262 72.6448-22.8653Q70.797-24.9023 69.9902-28.1651Q69.1833-31.4278 68.8416-35.2722Q68.4998-39.1167 67.9939-42.9352Q67.2424-51.1444 64.048-57.0057Q60.8536-62.867 53.9062-64.875Q53.2127-68.7836 50.6172-71.2444Q48.0217-73.7053 44.2596-73.7053Q40.5334-73.7053 37.9131-71.2444Q35.2928-68.7836 34.613-64.875Q27.6657-62.867 24.4648-57.0057Q21.2639-51.1444 20.5116-42.9352Q20.0546-39.1167 19.6953-35.2722Q19.3359-31.4278 18.5467-28.1651Q17.7574-24.9023 15.9103-22.8653Q13.5818-20.3262 11.4109-17.7883Q9.23996-15.2504 9.23996-12.3482Q9.23996-11.0939 10.0945-10.3039Q10.9489-9.51385 12.3871-9.51385ZM44.2596 3.21121Q48.6778 3.21121 51.5724 0.518799Q54.467-2.17361 55.0766-5.88837L33.4435-5.88837Q34.053-2.17361 36.9404 0.518799Q39.8277 3.21121 44.2596 3.21121Z"/>
  </g>
  <g id="Ultralight-S" transform="matrix(1 0 0 1 515.431 696)">
   <path class="multicolor-0:systemRedColor SFSymbolsPreviewFF3B30" d="M11.8126-9.22623L76.7479-9.22623Q77.7351-9.22623 78.3123-9.82666Q78.8895-10.4271 78.8895-11.3632Q78.8895-14.286 76.7906-16.7885Q74.6918-19.2909 72.4701-21.83Q70.3972-24.1333 69.5545-27.8419Q68.7119-31.5506 68.3701-35.9543Q68.0283-40.358 67.3889-44.7914Q66.4322-51.9341 63.2534-57.2262Q60.0746-62.5183 53.3936-64.2288Q52.8542-68.2091 50.3559-70.6188Q47.8577-73.0286 44.2802-73.0286Q40.7486-73.0286 38.2259-70.6188Q35.7033-68.2091 35.1669-64.2288Q28.4866-62.5183 25.3059-57.2262Q22.1252-51.9341 21.1678-44.7914Q20.5772-40.358 20.2129-35.9543Q19.8486-31.5506 19.0289-27.8419Q18.2091-24.1333 16.1354-21.83Q13.8695-19.2909 11.7702-16.7885Q9.67102-14.286 9.67102-11.3632Q9.67102-10.4271 10.2692-9.82666Q10.8673-9.22623 11.8126-9.22623ZM44.2802 2.5238Q48.5344 2.5238 51.2905-0.0350952Q54.0466-2.59399 54.7478-6.19659L33.8127-6.19659Q34.5139-2.59399 37.2684-0.0350952Q40.023 2.5238 44.2802 2.5238Z"/>
  </g>
 </g>
</svg>
