<?xml version="1.0" encoding="UTF-8"?>
<!--Generator: Apple Native CoreSVG 175-->
<!DOCTYPE svg
PUBLIC "-//W3C//DTD SVG 1.1//EN"
       "http://www.w3.org/Graphics/SVG/1.1/DTD/svg11.dtd">
<svg version="1.1" xmlns="http://www.w3.org/2000/svg" xmlns:xlink="http://www.w3.org/1999/xlink" width="3300" height="2200">
 <!--glyph: "uni1000C2.medium", point size: 100.0, font version: "17.0d11e1", template writer version: "65.1"-->
 <style>.hierarchical-0:secondary {fill:#4D4D4D}
.hierarchical-1:primary {fill:#212121}

.SFSymbolsPreview212121 {fill:#212121;opacity:1.0}
.SFSymbolsPreview4D4D4D {fill:#4D4D4D;opacity:1.0}
</style>
 <g id="Notes">
  <rect height="2200" id="artboard" style="fill:white;opacity:1" width="3300" x="0" y="0"/>
  <line style="fill:none;stroke:black;opacity:1;stroke-width:0.5;" x1="263" x2="3036" y1="292" y2="292"/>
  <text style="stroke:none;fill:black;font-family:sans-serif;font-size:13;font-weight:bold;" transform="matrix(1 0 0 1 263 322)">Weight/Scale Variations</text>
  <text style="stroke:none;fill:black;font-family:sans-serif;font-size:13;text-anchor:middle;" transform="matrix(1 0 0 1 559.711 322)">Ultralight</text>
  <text style="stroke:none;fill:black;font-family:sans-serif;font-size:13;text-anchor:middle;" transform="matrix(1 0 0 1 856.422 322)">Thin</text>
  <text style="stroke:none;fill:black;font-family:sans-serif;font-size:13;text-anchor:middle;" transform="matrix(1 0 0 1 1153.13 322)">Light</text>
  <text style="stroke:none;fill:black;font-family:sans-serif;font-size:13;text-anchor:middle;" transform="matrix(1 0 0 1 1449.84 322)">Regular</text>
  <text style="stroke:none;fill:black;font-family:sans-serif;font-size:13;text-anchor:middle;" transform="matrix(1 0 0 1 1746.56 322)">Medium</text>
  <text style="stroke:none;fill:black;font-family:sans-serif;font-size:13;text-anchor:middle;" transform="matrix(1 0 0 1 2043.27 322)">Semibold</text>
  <text style="stroke:none;fill:black;font-family:sans-serif;font-size:13;text-anchor:middle;" transform="matrix(1 0 0 1 2339.98 322)">Bold</text>
  <text style="stroke:none;fill:black;font-family:sans-serif;font-size:13;text-anchor:middle;" transform="matrix(1 0 0 1 2636.69 322)">Heavy</text>
  <text style="stroke:none;fill:black;font-family:sans-serif;font-size:13;text-anchor:middle;" transform="matrix(1 0 0 1 2933.4 322)">Black</text>
  <line style="fill:none;stroke:black;opacity:1;stroke-width:0.5;" x1="263" x2="3036" y1="1903" y2="1903"/>
  <g transform="matrix(1 0 0 1 263 1933)">
   <path d="M9.24805 0.830078Q10.8691 0.830078 12.2949 0.214844Q13.7207-0.400391 14.8096-1.49414Q15.8984-2.58789 16.5186-4.01367Q17.1387-5.43945 17.1387-7.05078Q17.1387-8.66211 16.5186-10.0879Q15.8984-11.5137 14.8047-12.6074Q13.7109-13.7012 12.2852-14.3164Q10.8594-14.9316 9.23828-14.9316Q7.62695-14.9316 6.20117-14.3164Q4.77539-13.7012 3.69141-12.6074Q2.60742-11.5137 1.9873-10.0879Q1.36719-8.66211 1.36719-7.05078Q1.36719-5.43945 1.9873-4.01367Q2.60742-2.58789 3.69629-1.49414Q4.78516-0.400391 6.21094 0.214844Q7.63672 0.830078 9.24805 0.830078ZM9.24805-0.654297Q7.91992-0.654297 6.7627-1.14746Q5.60547-1.64062 4.73145-2.51953Q3.85742-3.39844 3.36426-4.56055Q2.87109-5.72266 2.87109-7.05078Q2.87109-8.37891 3.35938-9.54102Q3.84766-10.7031 4.72168-11.582Q5.5957-12.4609 6.75293-12.9541Q7.91016-13.4473 9.23828-13.4473Q10.5762-13.4473 11.7334-12.9541Q12.8906-12.4609 13.7695-11.582Q14.6484-10.7031 15.1465-9.54102Q15.6445-8.37891 15.6445-7.05078Q15.6445-5.72266 15.1514-4.56055Q14.6582-3.39844 13.7842-2.51953Q12.9102-1.64062 11.748-1.14746Q10.5859-0.654297 9.24805-0.654297ZM5.6543-7.05078Q5.6543-6.72852 5.85938-6.52832Q6.06445-6.32812 6.40625-6.32812L8.51562-6.32812L8.51562-4.20898Q8.51562-3.88672 8.71094-3.67676Q8.90625-3.4668 9.23828-3.4668Q9.56055-3.4668 9.77051-3.67676Q9.98047-3.88672 9.98047-4.20898L9.98047-6.32812L12.0898-6.32812Q12.4219-6.32812 12.627-6.52832Q12.832-6.72852 12.832-7.05078Q12.832-7.38281 12.627-7.58789Q12.4219-7.79297 12.0898-7.79297L9.98047-7.79297L9.98047-9.90234Q9.98047-10.2344 9.77051-10.4443Q9.56055-10.6543 9.23828-10.6543Q8.90625-10.6543 8.71094-10.4443Q8.51562-10.2344 8.51562-9.90234L8.51562-7.79297L6.40625-7.79297Q6.06445-7.79297 5.85938-7.58789Q5.6543-7.38281 5.6543-7.05078Z"/>
  </g>
  <g transform="matrix(1 0 0 1 281.867 1933)">
   <path d="M11.709 2.91016Q13.75 2.91016 15.5518 2.12891Q17.3535 1.34766 18.7305-0.0292969Q20.1074-1.40625 20.8887-3.20801Q21.6699-5.00977 21.6699-7.05078Q21.6699-9.0918 20.8887-10.8936Q20.1074-12.6953 18.7305-14.0723Q17.3535-15.4492 15.5469-16.2305Q13.7402-17.0117 11.6992-17.0117Q9.6582-17.0117 7.85645-16.2305Q6.05469-15.4492 4.68262-14.0723Q3.31055-12.6953 2.5293-10.8936Q1.74805-9.0918 1.74805-7.05078Q1.74805-5.00977 2.5293-3.20801Q3.31055-1.40625 4.6875-0.0292969Q6.06445 1.34766 7.86621 2.12891Q9.66797 2.91016 11.709 2.91016ZM11.709 1.25Q9.98047 1.25 8.47656 0.605469Q6.97266-0.0390625 5.83496-1.17676Q4.69727-2.31445 4.05762-3.81836Q3.41797-5.32227 3.41797-7.05078Q3.41797-8.7793 4.05762-10.2832Q4.69727-11.7871 5.83008-12.9297Q6.96289-14.0723 8.4668-14.7119Q9.9707-15.3516 11.6992-15.3516Q13.4277-15.3516 14.9316-14.7119Q16.4355-14.0723 17.5781-12.9297Q18.7207-11.7871 19.3652-10.2832Q20.0098-8.7793 20.0098-7.05078Q20.0098-5.32227 19.3701-3.81836Q18.7305-2.31445 17.5928-1.17676Q16.4551-0.0390625 14.9463 0.605469Q13.4375 1.25 11.709 1.25ZM7.17773-7.05078Q7.17773-6.69922 7.41211-6.47461Q7.64648-6.25 8.01758-6.25L10.8887-6.25L10.8887-3.36914Q10.8887-2.99805 11.1133-2.76855Q11.3379-2.53906 11.6895-2.53906Q12.0605-2.53906 12.29-2.76855Q12.5195-2.99805 12.5195-3.36914L12.5195-6.25L15.4004-6.25Q15.7715-6.25 16.001-6.47461Q16.2305-6.69922 16.2305-7.05078Q16.2305-7.42188 16.001-7.65137Q15.7715-7.88086 15.4004-7.88086L12.5195-7.88086L12.5195-10.752Q12.5195-11.1328 12.29-11.3623Q12.0605-11.5918 11.6895-11.5918Q11.3379-11.5918 11.1133-11.3574Q10.8887-11.123 10.8887-10.752L10.8887-7.88086L8.01758-7.88086Q7.63672-7.88086 7.40723-7.65137Q7.17773-7.42188 7.17773-7.05078Z"/>
  </g>
  <g transform="matrix(1 0 0 1 305.646 1933)">
   <path d="M14.9707 5.66406Q17.0605 5.66406 18.96 5.01465Q20.8594 4.36523 22.4512 3.19336Q24.043 2.02148 25.2197 0.429688Q26.3965-1.16211 27.0459-3.06641Q27.6953-4.9707 27.6953-7.05078Q27.6953-9.14062 27.0459-11.04Q26.3965-12.9395 25.2197-14.5312Q24.043-16.123 22.4512-17.2998Q20.8594-18.4766 18.9551-19.126Q17.0508-19.7754 14.9609-19.7754Q12.8711-19.7754 10.9717-19.126Q9.07227-18.4766 7.48535-17.2998Q5.89844-16.123 4.72168-14.5312Q3.54492-12.9395 2.90039-11.04Q2.25586-9.14062 2.25586-7.05078Q2.25586-4.9707 2.90527-3.06641Q3.55469-1.16211 4.72656 0.429688Q5.89844 2.02148 7.49023 3.19336Q9.08203 4.36523 10.9814 5.01465Q12.8809 5.66406 14.9707 5.66406ZM14.9707 3.84766Q13.1641 3.84766 11.5283 3.2959Q9.89258 2.74414 8.53516 1.74805Q7.17773 0.751953 6.17676-0.610352Q5.17578-1.97266 4.62891-3.6084Q4.08203-5.24414 4.08203-7.05078Q4.08203-8.86719 4.62891-10.5029Q5.17578-12.1387 6.17188-13.501Q7.16797-14.8633 8.52539-15.8594Q9.88281-16.8555 11.5186-17.4023Q13.1543-17.9492 14.9609-17.9492Q16.7773-17.9492 18.4131-17.4023Q20.0488-16.8555 21.4111-15.8594Q22.7734-14.8633 23.7695-13.501Q24.7656-12.1387 25.3174-10.5029Q25.8691-8.86719 25.8691-7.05078Q25.8789-5.24414 25.332-3.6084Q24.7852-1.97266 23.7842-0.610352Q22.7832 0.751953 21.4209 1.74805Q20.0586 2.74414 18.4229 3.2959Q16.7871 3.84766 14.9707 3.84766ZM9.19922-7.05078Q9.19922-6.66992 9.45801-6.4209Q9.7168-6.17188 10.1172-6.17188L14.0625-6.17188L14.0625-2.2168Q14.0625-1.81641 14.3115-1.55762Q14.5605-1.29883 14.9512-1.29883Q15.3516-1.29883 15.6104-1.55273Q15.8691-1.80664 15.8691-2.2168L15.8691-6.17188L19.8242-6.17188Q20.2246-6.17188 20.4785-6.4209Q20.7324-6.66992 20.7324-7.05078Q20.7324-7.46094 20.4785-7.71484Q20.2246-7.96875 19.8242-7.96875L15.8691-7.96875L15.8691-11.9141Q15.8691-12.3242 15.6104-12.583Q15.3516-12.8418 14.9512-12.8418Q14.5605-12.8418 14.3115-12.583Q14.0625-12.3242 14.0625-11.9141L14.0625-7.96875L10.1172-7.96875Q9.70703-7.96875 9.45312-7.71484Q9.19922-7.46094 9.19922-7.05078Z"/>
  </g>
  <text style="stroke:none;fill:black;font-family:sans-serif;font-size:13;font-weight:bold;" transform="matrix(1 0 0 1 263 1953)">Design Variations</text>
  <text style="stroke:none;fill:black;font-family:sans-serif;font-size:13;" transform="matrix(1 0 0 1 263 1971)">Symbols are supported in up to nine weights and three scales.</text>
  <text style="stroke:none;fill:black;font-family:sans-serif;font-size:13;" transform="matrix(1 0 0 1 263 1989)">For optimal layout with text and other symbols, vertically align</text>
  <text style="stroke:none;fill:black;font-family:sans-serif;font-size:13;" transform="matrix(1 0 0 1 263 2007)">symbols with the adjacent text.</text>
  <line style="fill:none;stroke:#00AEEF;stroke-width:0.5;opacity:1.0;" x1="776" x2="776" y1="1919" y2="1933"/>
  <g transform="matrix(1 0 0 1 776 1933)">
   <path d="M3.31055 0.15625Q3.70117 0.15625 3.91602-0.00976562Q4.13086-0.175781 4.26758-0.585938L5.52734-4.0332L11.2891-4.0332L12.5488-0.585938Q12.6855-0.175781 12.9004-0.00976562Q13.1152 0.15625 13.4961 0.15625Q13.8867 0.15625 14.1162-0.0585938Q14.3457-0.273438 14.3457-0.644531Q14.3457-0.869141 14.2383-1.17188L9.6582-13.3691Q9.48242-13.8184 9.17969-14.043Q8.87695-14.2676 8.4082-14.2676Q7.5-14.2676 7.17773-13.3789L2.59766-1.16211Q2.49023-0.859375 2.49023-0.634766Q2.49023-0.263672 2.70996-0.0537109Q2.92969 0.15625 3.31055 0.15625ZM6.00586-5.51758L8.37891-12.0898L8.42773-12.0898L10.8008-5.51758Z"/>
  </g>
  <line style="fill:none;stroke:#00AEEF;stroke-width:0.5;opacity:1.0;" x1="793.197" x2="793.197" y1="1919" y2="1933"/>
  <text style="stroke:none;fill:black;font-family:sans-serif;font-size:13;font-weight:bold;" transform="matrix(1 0 0 1 776 1953)">Margins</text>
  <text style="stroke:none;fill:black;font-family:sans-serif;font-size:13;" transform="matrix(1 0 0 1 776 1971)">Leading and trailing margins on the left and right side of each symbol</text>
  <text style="stroke:none;fill:black;font-family:sans-serif;font-size:13;" transform="matrix(1 0 0 1 776 1989)">can be adjusted by modifying the x-location of the margin guidelines.</text>
  <text style="stroke:none;fill:black;font-family:sans-serif;font-size:13;" transform="matrix(1 0 0 1 776 2007)">Modifications are automatically applied proportionally to all</text>
  <text style="stroke:none;fill:black;font-family:sans-serif;font-size:13;" transform="matrix(1 0 0 1 776 2025)">scales and weights.</text>
  <g transform="matrix(1 0 0 1 1289 1933)">
   <path d="M2.8418 1.86523L4.54102 3.57422Q5.18555 4.22852 5.90332 4.17969Q6.62109 4.13086 7.31445 3.35938L18.0078-8.42773L17.041-9.4043L6.42578 2.27539Q6.16211 2.57812 5.89355 2.61719Q5.625 2.65625 5.27344 2.30469L4.10156 1.14258Q3.75 0.791016 3.79395 0.522461Q3.83789 0.253906 4.14062-0.0195312L15.6152-10.8203L14.6387-11.7871L3.04688-0.898438Q2.30469-0.214844 2.25098 0.498047Q2.19727 1.21094 2.8418 1.86523ZM9.25781-16.3281Q8.94531-16.0254 8.90625-15.6348Q8.86719-15.2441 9.04297-14.9512Q9.21875-14.6777 9.55566-14.541Q9.89258-14.4043 10.3809-14.5215Q11.4746-14.7754 12.5977-14.7314Q13.7207-14.6875 14.7949-13.9844L14.209-12.5293Q13.9551-11.9043 14.0674-11.4404Q14.1797-10.9766 14.5801-10.5664L16.875-8.25195Q17.2363-7.88086 17.5781-7.82227Q17.9199-7.76367 18.3398-7.8418L19.4043-8.03711L20.0684-7.36328L20.0293-6.80664Q20-6.43555 20.1221-6.12305Q20.2441-5.81055 20.6055-5.44922L21.3672-4.70703Q21.7285-4.3457 22.1533-4.33105Q22.5781-4.31641 22.9297-4.66797L25.8398-7.58789Q26.1914-7.93945 26.1816-8.35449Q26.1719-8.76953 25.8105-9.13086L25.0391-9.89258Q24.6875-10.2539 24.3799-10.3857Q24.0723-10.5176 23.7109-10.4883L23.1348-10.4395L22.4902-11.0742L22.7344-12.1973Q22.832-12.6172 22.6953-12.9834Q22.5586-13.3496 22.1191-13.7891L19.9219-15.9766Q18.6719-17.2168 17.2607-17.8369Q15.8496-18.457 14.4189-18.4814Q12.9883-18.5059 11.665-17.959Q10.3418-17.4121 9.25781-16.3281ZM10.752-15.957Q11.6602-16.6211 12.7002-16.9043Q13.7402-17.1875 14.8047-17.085Q15.8691-16.9824 16.8701-16.5137Q17.8711-16.0449 18.7012-15.2051L21.1328-12.793Q21.3086-12.6172 21.3525-12.4512Q21.3965-12.2852 21.3379-12.0312L21.0156-10.5469L22.5195-9.0625L23.5059-9.12109Q23.6914-9.13086 23.7891-9.09668Q23.8867-9.0625 24.0332-8.91602L24.6094-8.33984L22.168-5.89844L21.5918-6.47461Q21.4453-6.62109 21.4062-6.71875Q21.3672-6.81641 21.377-7.01172L21.4453-7.98828L19.9512-9.47266L18.4277-9.21875Q18.1836-9.16992 18.042-9.2041Q17.9004-9.23828 17.7148-9.41406L15.7129-11.416Q15.5176-11.5918 15.4932-11.7529Q15.4688-11.9141 15.5859-12.1875L16.4648-14.2773Q15.293-15.3711 13.8281-15.791Q12.3633-16.2109 10.8398-15.7617Q10.7227-15.7324 10.6885-15.8057Q10.6543-15.8789 10.752-15.957Z"/>
  </g>
  <text style="stroke:none;fill:black;font-family:sans-serif;font-size:13;font-weight:bold;" transform="matrix(1 0 0 1 1289 1953)">Exporting</text>
  <text style="stroke:none;fill:black;font-family:sans-serif;font-size:13;" transform="matrix(1 0 0 1 1289 1971)">Symbols should be outlined when exporting to ensure the</text>
  <text style="stroke:none;fill:black;font-family:sans-serif;font-size:13;" transform="matrix(1 0 0 1 1289 1989)">design is preserved when submitting to Xcode.</text>
  <text id="template-version" style="stroke:none;fill:black;font-family:sans-serif;font-size:13;text-anchor:end;" transform="matrix(1 0 0 1 3036 1933)">Template v.3.0</text>
  <text style="stroke:none;fill:black;font-family:sans-serif;font-size:13;text-anchor:end;" transform="matrix(1 0 0 1 3036 1951)">Requires Xcode 13 or greater</text>
  <text id="descriptive-name" style="stroke:none;fill:black;font-family:sans-serif;font-size:13;text-anchor:end;" transform="matrix(1 0 0 1 3036 1969)">Generated from x.square</text>
  <text style="stroke:none;fill:black;font-family:sans-serif;font-size:13;text-anchor:end;" transform="matrix(1 0 0 1 3036 1987)">Typeset at 100 points</text>
  <text style="stroke:none;fill:black;font-family:sans-serif;font-size:13;" transform="matrix(1 0 0 1 263 726)">Small</text>
  <text style="stroke:none;fill:black;font-family:sans-serif;font-size:13;" transform="matrix(1 0 0 1 263 1156)">Medium</text>
  <text style="stroke:none;fill:black;font-family:sans-serif;font-size:13;" transform="matrix(1 0 0 1 263 1586)">Large</text>
 </g>
 <g id="Guides">
  <g id="H-reference" style="fill:#27AAE1;stroke:none;" transform="matrix(1 0 0 1 339 696)">
   <path d="M0.993347 0L3.6377 0L29.3282-67.1326L30.0301-67.1326L30.0301-70.459L28.1227-70.459ZM11.6882-24.4797L46.9818-24.4797L46.2311-26.7288L12.4382-26.7288ZM55.1193 0L57.7637 0L30.6381-70.459L29.4327-70.459L29.4327-67.1326Z"/>
  </g>
  <line id="Baseline-S" style="fill:none;stroke:#27AAE1;opacity:1;stroke-width:0.5;" x1="263" x2="3036" y1="696" y2="696"/>
  <line id="Capline-S" style="fill:none;stroke:#27AAE1;opacity:1;stroke-width:0.5;" x1="263" x2="3036" y1="625.541" y2="625.541"/>
  <g id="H-reference" style="fill:#27AAE1;stroke:none;" transform="matrix(1 0 0 1 339 1126)">
   <path d="M0.993347 0L3.6377 0L29.3282-67.1326L30.0301-67.1326L30.0301-70.459L28.1227-70.459ZM11.6882-24.4797L46.9818-24.4797L46.2311-26.7288L12.4382-26.7288ZM55.1193 0L57.7637 0L30.6381-70.459L29.4327-70.459L29.4327-67.1326Z"/>
  </g>
  <line id="Baseline-M" style="fill:none;stroke:#27AAE1;opacity:1;stroke-width:0.5;" x1="263" x2="3036" y1="1126" y2="1126"/>
  <line id="Capline-M" style="fill:none;stroke:#27AAE1;opacity:1;stroke-width:0.5;" x1="263" x2="3036" y1="1055.54" y2="1055.54"/>
  <g id="H-reference" style="fill:#27AAE1;stroke:none;" transform="matrix(1 0 0 1 339 1556)">
   <path d="M0.993347 0L3.6377 0L29.3282-67.1326L30.0301-67.1326L30.0301-70.459L28.1227-70.459ZM11.6882-24.4797L46.9818-24.4797L46.2311-26.7288L12.4382-26.7288ZM55.1193 0L57.7637 0L30.6381-70.459L29.4327-70.459L29.4327-67.1326Z"/>
  </g>
  <line id="Baseline-L" style="fill:none;stroke:#27AAE1;opacity:1;stroke-width:0.5;" x1="263" x2="3036" y1="1556" y2="1556"/>
  <line id="Capline-L" style="fill:none;stroke:#27AAE1;opacity:1;stroke-width:0.5;" x1="263" x2="3036" y1="1485.54" y2="1485.54"/>
  <line id="left-margin-Ultralight-S" style="fill:none;stroke:#00AEEF;stroke-width:0.5;opacity:1.0;" x1="516.35" x2="516.35" y1="600.785" y2="720.121"/>
  <line id="right-margin-Ultralight-S" style="fill:none;stroke:#00AEEF;stroke-width:0.5;opacity:1.0;" x1="603.073" x2="603.073" y1="600.785" y2="720.121"/>
  <line id="left-margin-Thin-S" style="fill:none;stroke:#00AEEF;stroke-width:0.5;opacity:1.0;" x1="812.615" x2="812.615" y1="600.785" y2="720.121"/>
  <line id="right-margin-Thin-S" style="fill:none;stroke:#00AEEF;stroke-width:0.5;opacity:1.0;" x1="900.23" x2="900.23" y1="600.785" y2="720.121"/>
  <line id="left-margin-Light-S" style="fill:none;stroke:#00AEEF;stroke-width:0.5;opacity:1.0;" x1="1108.45" x2="1108.45" y1="600.785" y2="720.121"/>
  <line id="right-margin-Light-S" style="fill:none;stroke:#00AEEF;stroke-width:0.5;opacity:1.0;" x1="1197.81" x2="1197.81" y1="600.785" y2="720.121"/>
  <line id="left-margin-Regular-S" style="fill:none;stroke:#00AEEF;stroke-width:0.5;opacity:1.0;" x1="1404.51" x2="1404.51" y1="600.785" y2="720.121"/>
  <line id="right-margin-Regular-S" style="fill:none;stroke:#00AEEF;stroke-width:0.5;opacity:1.0;" x1="1495.18" x2="1495.18" y1="600.785" y2="720.121"/>
  <line id="left-margin-Medium-S" style="fill:none;stroke:#00AEEF;stroke-width:0.5;opacity:1.0;" x1="1700.76" x2="1700.76" y1="600.785" y2="720.121"/>
  <line id="right-margin-Medium-S" style="fill:none;stroke:#00AEEF;stroke-width:0.5;opacity:1.0;" x1="1792.35" x2="1792.35" y1="600.785" y2="720.121"/>
  <line id="left-margin-Semibold-S" style="fill:none;stroke:#00AEEF;stroke-width:0.5;opacity:1.0;" x1="1997.11" x2="1997.11" y1="600.785" y2="720.121"/>
  <line id="right-margin-Semibold-S" style="fill:none;stroke:#00AEEF;stroke-width:0.5;opacity:1.0;" x1="2089.42" x2="2089.42" y1="600.785" y2="720.121"/>
  <line id="left-margin-Bold-S" style="fill:none;stroke:#00AEEF;stroke-width:0.5;opacity:1.0;" x1="2293.36" x2="2293.36" y1="600.785" y2="720.121"/>
  <line id="right-margin-Bold-S" style="fill:none;stroke:#00AEEF;stroke-width:0.5;opacity:1.0;" x1="2386.6" x2="2386.6" y1="600.785" y2="720.121"/>
  <line id="left-margin-Heavy-S" style="fill:none;stroke:#00AEEF;stroke-width:0.5;opacity:1.0;" x1="2589.39" x2="2589.39" y1="600.785" y2="720.121"/>
  <line id="right-margin-Heavy-S" style="fill:none;stroke:#00AEEF;stroke-width:0.5;opacity:1.0;" x1="2683.98" x2="2683.98" y1="600.785" y2="720.121"/>
  <line id="left-margin-Black-S" style="fill:none;stroke:#00AEEF;stroke-width:0.5;opacity:1.0;" x1="2885.5" x2="2885.5" y1="600.785" y2="720.121"/>
  <line id="right-margin-Black-S" style="fill:none;stroke:#00AEEF;stroke-width:0.5;opacity:1.0;" x1="2981.3" x2="2981.3" y1="600.785" y2="720.121"/>
  <line id="left-margin-Ultralight-M" style="fill:none;stroke:#00AEEF;stroke-width:0.5;opacity:1.0;" x1="504.539" x2="504.539" y1="1030.79" y2="1150.12"/>
  <line id="right-margin-Ultralight-M" style="fill:none;stroke:#00AEEF;stroke-width:0.5;opacity:1.0;" x1="614.883" x2="614.883" y1="1030.79" y2="1150.12"/>
  <line id="left-margin-Thin-M" style="fill:none;stroke:#00AEEF;stroke-width:0.5;opacity:1.0;" x1="800.747" x2="800.747" y1="1030.79" y2="1150.12"/>
  <line id="right-margin-Thin-M" style="fill:none;stroke:#00AEEF;stroke-width:0.5;opacity:1.0;" x1="912.097" x2="912.097" y1="1030.79" y2="1150.12"/>
  <line id="left-margin-Light-M" style="fill:none;stroke:#00AEEF;stroke-width:0.5;opacity:1.0;" x1="1096.48" x2="1096.48" y1="1030.79" y2="1150.12"/>
  <line id="right-margin-Light-M" style="fill:none;stroke:#00AEEF;stroke-width:0.5;opacity:1.0;" x1="1209.79" x2="1209.79" y1="1030.79" y2="1150.12"/>
  <line id="left-margin-Regular-M" style="fill:none;stroke:#00AEEF;stroke-width:0.5;opacity:1.0;" x1="1392.45" x2="1392.45" y1="1030.79" y2="1150.12"/>
  <line id="right-margin-Regular-M" style="fill:none;stroke:#00AEEF;stroke-width:0.5;opacity:1.0;" x1="1507.24" x2="1507.24" y1="1030.79" y2="1150.12"/>
  <line id="left-margin-Medium-M" style="fill:none;stroke:#00AEEF;stroke-width:0.5;opacity:1.0;" x1="1688.53" x2="1688.53" y1="1030.79" y2="1150.12"/>
  <line id="right-margin-Medium-M" style="fill:none;stroke:#00AEEF;stroke-width:0.5;opacity:1.0;" x1="1804.58" x2="1804.58" y1="1030.79" y2="1150.12"/>
  <line id="left-margin-Semibold-M" style="fill:none;stroke:#00AEEF;stroke-width:0.5;opacity:1.0;" x1="1984.77" x2="1984.77" y1="1030.79" y2="1150.12"/>
  <line id="right-margin-Semibold-M" style="fill:none;stroke:#00AEEF;stroke-width:0.5;opacity:1.0;" x1="2101.77" x2="2101.77" y1="1030.79" y2="1150.12"/>
  <line id="left-margin-Bold-M" style="fill:none;stroke:#00AEEF;stroke-width:0.5;opacity:1.0;" x1="2280.85" x2="2280.85" y1="1030.79" y2="1150.12"/>
  <line id="right-margin-Bold-M" style="fill:none;stroke:#00AEEF;stroke-width:0.5;opacity:1.0;" x1="2399.11" x2="2399.11" y1="1030.79" y2="1150.12"/>
  <line id="left-margin-Heavy-M" style="fill:none;stroke:#00AEEF;stroke-width:0.5;opacity:1.0;" x1="2576.64" x2="2576.64" y1="1030.79" y2="1150.12"/>
  <line id="right-margin-Heavy-M" style="fill:none;stroke:#00AEEF;stroke-width:0.5;opacity:1.0;" x1="2696.73" x2="2696.73" y1="1030.79" y2="1150.12"/>
  <line id="left-margin-Black-M" style="fill:none;stroke:#00AEEF;stroke-width:0.5;opacity:1.0;" x1="2872.54" x2="2872.54" y1="1030.79" y2="1150.12"/>
  <line id="right-margin-Black-M" style="fill:none;stroke:#00AEEF;stroke-width:0.5;opacity:1.0;" x1="2994.26" x2="2994.26" y1="1030.79" y2="1150.12"/>
  <line id="left-margin-Ultralight-L" style="fill:none;stroke:#00AEEF;stroke-width:0.5;opacity:1.0;" x1="488.747" x2="488.747" y1="1460.79" y2="1580.12"/>
  <line id="right-margin-Ultralight-L" style="fill:none;stroke:#00AEEF;stroke-width:0.5;opacity:1.0;" x1="630.675" x2="630.675" y1="1460.79" y2="1580.12"/>
  <line id="left-margin-Thin-L" style="fill:none;stroke:#00AEEF;stroke-width:0.5;opacity:1.0;" x1="784.894" x2="784.894" y1="1460.79" y2="1580.12"/>
  <line id="right-margin-Thin-L" style="fill:none;stroke:#00AEEF;stroke-width:0.5;opacity:1.0;" x1="927.951" x2="927.951" y1="1460.79" y2="1580.12"/>
  <line id="left-margin-Light-L" style="fill:none;stroke:#00AEEF;stroke-width:0.5;opacity:1.0;" x1="1080.5" x2="1080.5" y1="1460.79" y2="1580.12"/>
  <line id="right-margin-Light-L" style="fill:none;stroke:#00AEEF;stroke-width:0.5;opacity:1.0;" x1="1225.76" x2="1225.76" y1="1460.79" y2="1580.12"/>
  <line id="left-margin-Regular-L" style="fill:none;stroke:#00AEEF;stroke-width:0.5;opacity:1.0;" x1="1376.38" x2="1376.38" y1="1460.79" y2="1580.12"/>
  <line id="right-margin-Regular-L" style="fill:none;stroke:#00AEEF;stroke-width:0.5;opacity:1.0;" x1="1523.31" x2="1523.31" y1="1460.79" y2="1580.12"/>
  <line id="left-margin-Medium-L" style="fill:none;stroke:#00AEEF;stroke-width:0.5;opacity:1.0;" x1="1672.32" x2="1672.32" y1="1460.79" y2="1580.12"/>
  <line id="right-margin-Medium-L" style="fill:none;stroke:#00AEEF;stroke-width:0.5;opacity:1.0;" x1="1820.8" x2="1820.8" y1="1460.79" y2="1580.12"/>
  <line id="left-margin-Semibold-L" style="fill:none;stroke:#00AEEF;stroke-width:0.5;opacity:1.0;" x1="1968.43" x2="1968.43" y1="1460.79" y2="1580.12"/>
  <line id="right-margin-Semibold-L" style="fill:none;stroke:#00AEEF;stroke-width:0.5;opacity:1.0;" x1="2118.1" x2="2118.1" y1="1460.79" y2="1580.12"/>
  <line id="left-margin-Bold-L" style="fill:none;stroke:#00AEEF;stroke-width:0.5;opacity:1.0;" x1="2264.36" x2="2264.36" y1="1460.79" y2="1580.12"/>
  <line id="right-margin-Bold-L" style="fill:none;stroke:#00AEEF;stroke-width:0.5;opacity:1.0;" x1="2415.6" x2="2415.6" y1="1460.79" y2="1580.12"/>
  <line id="left-margin-Heavy-L" style="fill:none;stroke:#00AEEF;stroke-width:0.5;opacity:1.0;" x1="2559.93" x2="2559.93" y1="1460.79" y2="1580.12"/>
  <line id="right-margin-Heavy-L" style="fill:none;stroke:#00AEEF;stroke-width:0.5;opacity:1.0;" x1="2713.45" x2="2713.45" y1="1460.79" y2="1580.12"/>
  <line id="left-margin-Black-L" style="fill:none;stroke:#00AEEF;stroke-width:0.5;opacity:1.0;" x1="2855.62" x2="2855.62" y1="1460.79" y2="1580.12"/>
  <line id="right-margin-Black-L" style="fill:none;stroke:#00AEEF;stroke-width:0.5;opacity:1.0;" x1="3011.18" x2="3011.18" y1="1460.79" y2="1580.12"/>
 </g>
 <g id="Symbols">
  <g id="Black-L" transform="matrix(1 0 0 1 2855.62 1556)">
   <path class="hierarchical-0:secondary SFSymbolsPreview4D4D4D" d="M39.9902 26.5137L115.576 26.5137Q127.002 26.5137 133.252 20.3125Q139.502 14.1113 139.502 2.68555L139.502-73.0957Q139.502-84.4727 133.252-90.6738Q127.002-96.875 115.576-96.875L39.9902-96.875Q28.5645-96.875 22.3145-90.6738Q16.0645-84.4727 16.0645-73.0957L16.0645 2.68555Q16.0645 14.1113 22.3145 20.3125Q28.5645 26.5137 39.9902 26.5137ZM42.6758 6.29883Q39.5508 6.29883 37.9395 4.78516Q36.3281 3.27148 36.3281-0.146484L36.3281-70.2148Q36.3281-73.6328 37.9395-75.1465Q39.5508-76.6602 42.6758-76.6602L112.842-76.6602Q116.016-76.6602 117.627-75.1465Q119.238-73.6328 119.238-70.2148L119.238-0.146484Q119.238 3.27148 117.627 4.78516Q116.016 6.29883 112.842 6.29883Z"/>
   <path class="hierarchical-1:primary SFSymbolsPreview212121" d="M60.791-6.39648Q63.5742-6.39648 65.3809-7.61719Q67.1875-8.83789 69.3359-12.207L77.5879-24.7559L78.125-24.7559L86.0352-12.207Q87.9883-8.93555 89.8438-7.66602Q91.6992-6.39648 94.5312-6.39648Q98.291-6.39648 100.586-8.56934Q102.881-10.7422 102.881-14.2578Q102.881-17.3828 100.342-20.7031L89.1602-35.3027L100.342-50.0488Q102.93-53.418 102.93-56.4941Q102.93-59.9609 100.635-62.1338Q98.3398-64.3066 94.6777-64.3066Q91.7969-64.3066 89.9414-63.0371Q88.0859-61.7676 86.1816-58.5449L78.418-45.9961L77.832-45.9961L69.6777-58.5938Q67.5781-61.8652 65.7471-63.0859Q63.916-64.3066 61.1328-64.3066Q57.4707-64.3066 55.1514-62.1094Q52.832-59.9121 52.832-56.4453Q52.832-53.3203 55.4199-49.9023L66.3574-35.4004L55.0781-20.6055Q52.5879-17.2852 52.5879-14.209Q52.5879-10.7422 54.8584-8.56934Q57.1289-6.39648 60.791-6.39648Z"/>
  </g>
  <g id="Heavy-L" transform="matrix(1 0 0 1 2559.93 1556)">
   <path class="hierarchical-0:secondary SFSymbolsPreview4D4D4D" d="M38.8184 25.4883L114.697 25.4883Q125.684 25.4883 131.567 19.6289Q137.451 13.7695 137.451 2.88086L137.451-73.2422Q137.451-84.1309 131.567-89.9902Q125.684-95.8496 114.697-95.8496L38.8184-95.8496Q27.8809-95.8496 21.9727-89.9902Q16.0645-84.1309 16.0645-73.2422L16.0645 2.88086Q16.0645 13.8184 21.9727 19.6533Q27.8809 25.4883 38.8184 25.4883ZM40.918 8.00781Q37.3047 8.00781 35.4492 6.22559Q33.5938 4.44336 33.5938 0.585938L33.5938-70.9473Q33.5938-74.8047 35.4492-76.5869Q37.3047-78.3691 40.918-78.3691L112.549-78.3691Q116.162-78.3691 118.042-76.5869Q119.922-74.8047 119.922-70.9473L119.922 0.585938Q119.922 4.44336 118.042 6.22559Q116.162 8.00781 112.549 8.00781Z"/>
   <path class="hierarchical-1:primary SFSymbolsPreview212121" d="M59.375-6.44531Q61.8164-6.44531 63.4033-7.49512Q64.9902-8.54492 66.8457-11.4746L76.5137-25.8789L77.002-25.8789L86.377-11.4746Q88.0859-8.64258 89.6973-7.54395Q91.3086-6.44531 93.7988-6.44531Q97.1191-6.44531 99.1455-8.34961Q101.172-10.2539 101.172-13.3789Q101.172-16.1133 99.0234-18.9453L86.6699-35.4004L99.0234-52.002Q101.27-54.8828 101.27-57.5684Q101.27-60.5957 99.2432-62.5244Q97.2168-64.4531 93.9941-64.4531Q91.5039-64.4531 89.8682-63.3545Q88.2324-62.2559 86.5723-59.4727L77.3926-45.0684L76.8555-45.0684L67.334-59.5215Q65.5273-62.3047 63.916-63.3789Q62.3047-64.4531 59.8145-64.4531Q56.6406-64.4531 54.5654-62.5Q52.4902-60.5469 52.4902-57.4707Q52.4902-54.7363 54.7363-51.7578L66.748-35.5469L54.2969-18.8477Q52.1973-15.9668 52.1973-13.2812Q52.1973-10.2539 54.1992-8.34961Q56.2012-6.44531 59.375-6.44531Z"/>
  </g>
  <g id="Bold-L" transform="matrix(1 0 0 1 2264.36 1556)">
   <path class="hierarchical-0:secondary SFSymbolsPreview4D4D4D" d="M37.5488 24.3652L113.721 24.3652Q124.17 24.3652 129.688 18.8965Q135.205 13.4277 135.205 3.07617L135.205-73.4375Q135.205-83.7891 129.688-89.2578Q124.17-94.7266 113.721-94.7266L37.5488-94.7266Q27.0996-94.7266 21.582-89.2578Q16.0645-83.7891 16.0645-73.4375L16.0645 3.07617Q16.0645 13.4766 21.582 18.9209Q27.0996 24.3652 37.5488 24.3652ZM38.9648 9.96094Q34.8633 9.96094 32.6904 7.86133Q30.5176 5.76172 30.5176 1.41602L30.5176-71.7773Q30.5176-76.0742 32.6904-78.1738Q34.8633-80.2734 38.9648-80.2734L112.256-80.2734Q116.357-80.2734 118.555-78.1738Q120.752-76.0742 120.752-71.7773L120.752 1.41602Q120.752 5.76172 118.555 7.86133Q116.357 9.96094 112.256 9.96094Z"/>
   <path class="hierarchical-1:primary SFSymbolsPreview212121" d="M57.9102-6.49414Q59.9609-6.49414 61.2793-7.37305Q62.5977-8.25195 64.1602-10.6445L75.3906-27.1484L75.7812-27.1484L86.8164-10.6445Q88.2812-8.30078 89.624-7.39746Q90.9668-6.49414 93.0664-6.49414Q95.8496-6.49414 97.583-8.12988Q99.3164-9.76562 99.3164-12.4023Q99.3164-14.6973 97.5586-17.041L83.9355-35.5469L97.6562-54.1504Q99.4629-56.543 99.4629-58.7891Q99.4629-61.3281 97.7295-62.9639Q95.9961-64.5996 93.2617-64.5996Q91.2109-64.5996 89.8438-63.6963Q88.4766-62.793 87.0605-60.498L76.3184-43.9941L75.8301-43.9941L64.7461-60.5469Q63.2812-62.8418 61.9141-63.7207Q60.5469-64.5996 58.4473-64.5996Q55.7617-64.5996 53.9795-62.915Q52.1973-61.2305 52.1973-58.6914Q52.1973-56.3477 54.0527-53.8574L67.2852-35.6934L53.5156-16.8457Q51.8066-14.502 51.8066-12.2559Q51.8066-9.7168 53.5156-8.10547Q55.2246-6.49414 57.9102-6.49414Z"/>
  </g>
  <g id="Semibold-L" transform="matrix(1 0 0 1 1968.43 1556)">
   <path class="hierarchical-0:secondary SFSymbolsPreview4D4D4D" d="M36.6211 23.584L112.988 23.584Q123.145 23.584 128.369 18.3838Q133.594 13.1836 133.594 3.17383L133.594-73.5352Q133.594-83.4961 128.369-88.6963Q123.145-93.8965 112.988-93.8965L36.6211-93.8965Q26.5625-93.8965 21.3135-88.7207Q16.0645-83.5449 16.0645-73.5352L16.0645 3.17383Q16.0645 13.2324 21.3135 18.4082Q26.5625 23.584 36.6211 23.584ZM37.5977 11.2793Q33.1055 11.2793 30.7617 8.95996Q28.418 6.64062 28.418 2.00195L28.418-72.3145Q28.418-76.9531 30.7617-79.2725Q33.1055-81.5918 37.5977-81.5918L112.061-81.5918Q116.504-81.5918 118.896-79.2725Q121.289-76.9531 121.289-72.3145L121.289 2.00195Q121.289 6.64062 118.896 8.95996Q116.504 11.2793 112.061 11.2793Z"/>
   <path class="hierarchical-1:primary SFSymbolsPreview212121" d="M56.7871-6.49414Q58.5938-6.49414 59.7412-7.25098Q60.8887-8.00781 62.2559-10.0586L74.5117-27.9785L74.9023-27.9785L87.0117-10.0586Q88.3301-8.05664 89.502-7.27539Q90.6738-6.49414 92.4805-6.49414Q94.873-6.49414 96.4355-7.93457Q97.998-9.375 97.998-11.6699Q97.998-13.6719 96.5332-15.6738L81.9824-35.5957L96.6309-55.6641Q98.1445-57.666 98.1445-59.6191Q98.1445-61.8164 96.6064-63.2568Q95.0684-64.6973 92.7246-64.6973Q90.918-64.6973 89.7461-63.9404Q88.5742-63.1836 87.3535-61.2305L75.4883-43.2617L75.0488-43.2617L62.9395-61.2793Q61.6699-63.1836 60.4492-63.9404Q59.2285-64.6973 57.4219-64.6973Q55.0781-64.6973 53.5156-63.208Q51.9531-61.7188 51.9531-59.4727Q51.9531-57.4707 53.5156-55.2734L67.5781-35.791L52.8809-15.4785Q51.4648-13.4766 51.4648-11.5234Q51.4648-9.32617 52.9541-7.91016Q54.4434-6.49414 56.7871-6.49414Z"/>
  </g>
  <g id="Medium-L" transform="matrix(1 0 0 1 1672.32 1556)">
   <path class="hierarchical-0:secondary SFSymbolsPreview4D4D4D" d="M35.9375 22.998L112.5 22.998Q122.363 22.998 127.393 17.9932Q132.422 12.9883 132.422 3.27148L132.422-73.6328Q132.422-83.3008 127.393-88.3057Q122.363-93.3105 112.5-93.3105L35.9375-93.3105Q26.1719-93.3105 21.1182-88.3301Q16.0645-83.3496 16.0645-73.6328L16.0645 3.27148Q16.0645 13.0371 21.1182 18.0176Q26.1719 22.998 35.9375 22.998ZM36.5723 12.2559Q31.8359 12.2559 29.3213 9.79004Q26.8066 7.32422 26.8066 2.39258L26.8066-72.7539Q26.8066-77.6367 29.3213-80.1025Q31.8359-82.5684 36.5723-82.5684L111.865-82.5684Q116.553-82.5684 119.116-80.1025Q121.68-77.6367 121.68-72.7539L121.68 2.39258Q121.68 7.32422 119.116 9.79004Q116.553 12.2559 111.865 12.2559Z"/>
   <path class="hierarchical-1:primary SFSymbolsPreview212121" d="M55.957-6.49414Q57.5684-6.49414 58.5938-7.15332Q59.6191-7.8125 60.791-9.61914L73.877-28.6621L74.2188-28.6621L87.207-9.61914Q88.3789-7.86133 89.4043-7.17773Q90.4297-6.49414 92.041-6.49414Q94.1895-6.49414 95.5811-7.78809Q96.9727-9.08203 96.9727-11.1816Q96.9727-12.9395 95.7031-14.6484L80.5176-35.6445L95.8496-56.7871Q97.168-58.5449 97.168-60.2539Q97.168-62.207 95.7764-63.4766Q94.3848-64.7461 92.2852-64.7461Q90.7227-64.7461 89.6729-64.0869Q88.623-63.4277 87.5488-61.7676L74.8535-42.7246L74.5117-42.7246L61.5234-61.8164Q60.4492-63.4766 59.375-64.1113Q58.3008-64.7461 56.6895-64.7461Q54.5898-64.7461 53.1494-63.4033Q51.709-62.0605 51.709-60.1074Q51.709-58.3008 53.125-56.3477L67.8223-35.8887L52.3926-14.4531Q51.2207-12.7441 51.2207-10.9863Q51.2207-9.08203 52.5635-7.78809Q53.9062-6.49414 55.957-6.49414Z"/>
  </g>
  <g id="Regular-L" transform="matrix(1 0 0 1 1376.38 1556)">
   <path class="hierarchical-0:secondary SFSymbolsPreview4D4D4D" d="M35.0586 22.2168L111.816 22.2168Q121.338 22.2168 126.099 17.4805Q130.859 12.7441 130.859 3.41797L130.859-73.7305Q130.859-83.0566 126.099-87.793Q121.338-92.5293 111.816-92.5293L35.0586-92.5293Q25.6348-92.5293 20.8496-87.8174Q16.0645-83.1055 16.0645-73.7305L16.0645 3.41797Q16.0645 12.793 20.8496 17.5049Q25.6348 22.2168 35.0586 22.2168ZM35.2539 13.5742Q30.127 13.5742 27.417 10.8887Q24.707 8.20312 24.707 2.97852L24.707-73.291Q24.707-78.5156 27.417-81.2012Q30.127-83.8867 35.2539-83.8867L111.67-83.8867Q116.699-83.8867 119.458-81.2012Q122.217-78.5156 122.217-73.291L122.217 2.97852Q122.217 8.20312 119.458 10.8887Q116.699 13.5742 111.67 13.5742Z"/>
   <path class="hierarchical-1:primary SFSymbolsPreview212121" d="M54.9316-6.54297Q56.25-6.54297 57.1045-7.08008Q57.959-7.61719 58.9355-9.0332L73.0957-29.4922L73.3887-29.4922L87.5-9.0332Q88.4766-7.61719 89.3311-7.08008Q90.1855-6.54297 91.5039-6.54297Q93.3105-6.54297 94.5068-7.6416Q95.7031-8.74023 95.7031-10.498Q95.7031-11.9629 94.7266-13.3301L78.6621-35.7422L94.873-58.252Q95.8984-59.668 95.8984-61.084Q95.8984-62.6953 94.7266-63.7695Q93.5547-64.8438 91.7969-64.8438Q90.5273-64.8438 89.6484-64.3311Q88.7695-63.8184 87.8906-62.4512L74.1211-41.9922L73.7793-41.9922L59.7656-62.5Q58.8867-63.8184 57.9834-64.3311Q57.0801-64.8438 55.7129-64.8438Q53.9551-64.8438 52.7344-63.6963Q51.5137-62.5488 51.5137-60.8887Q51.5137-59.375 52.6367-57.7637L68.1641-35.9863L51.8555-13.0859Q50.9277-11.7188 50.9277-10.2539Q50.9277-8.69141 52.0752-7.61719Q53.2227-6.54297 54.9316-6.54297Z"/>
  </g>
  <g id="Light-L" transform="matrix(1 0 0 1 1080.5 1556)">
   <path class="hierarchical-0:secondary SFSymbolsPreview4D4D4D" d="M34.0332 21.4355L111.182 21.4355Q120.117 21.4355 124.658 16.8945Q129.199 12.3535 129.199 3.56445L129.199-73.8281Q129.199-82.6172 124.658-87.1582Q120.117-91.6992 111.182-91.6992L34.0332-91.6992Q25.1465-91.6992 20.6055-87.207Q16.0645-82.7148 16.0645-73.8281L16.0645 3.56445Q16.0645 12.4023 20.6055 16.9189Q25.1465 21.4355 34.0332 21.4355ZM34.2285 14.7949Q28.5645 14.7949 25.6104 11.8652Q22.6562 8.93555 22.6562 3.22266L22.6562-73.4863Q22.6562-79.1992 25.6104-82.1289Q28.5645-85.0586 34.2285-85.0586L111.035-85.0586Q116.553-85.0586 119.556-82.1289Q122.559-79.1992 122.559-73.4863L122.559 3.22266Q122.559 8.93555 119.556 11.8652Q116.553 14.7949 111.035 14.7949Z"/>
   <path class="hierarchical-1:primary SFSymbolsPreview212121" d="M54.3457-6.73828Q55.3711-6.73828 56.0303-7.15332Q56.6895-7.56836 57.4219-8.64258L72.3145-30.5176L72.6074-30.5176L87.4023-8.64258Q88.1348-7.56836 88.7939-7.15332Q89.4531-6.73828 90.5273-6.73828Q91.8945-6.73828 92.7979-7.59277Q93.7012-8.44727 93.7012-9.81445Q93.7012-10.8887 92.9688-12.0117L76.5625-35.5469L93.1152-59.1797Q93.9453-60.3516 93.9453-61.377Q93.9453-62.5977 93.042-63.4521Q92.1387-64.3066 90.7715-64.3066Q89.7461-64.3066 89.0869-63.8916Q88.4277-63.4766 87.7441-62.4023L73.0957-40.5273L72.7539-40.5273L58.0566-62.4512Q57.373-63.4766 56.6895-63.8916Q56.0059-64.3066 54.8828-64.3066Q53.5645-64.3066 52.6367-63.4033Q51.709-62.5 51.709-61.2305Q51.709-60.1074 52.5391-58.8379L68.6035-35.6934L52.002-11.7676Q51.2695-10.6934 51.2695-9.57031Q51.2695-8.39844 52.1484-7.56836Q53.0273-6.73828 54.3457-6.73828Z"/>
  </g>
  <g id="Thin-L" transform="matrix(1 0 0 1 784.894 1556)">
   <path class="hierarchical-0:secondary SFSymbolsPreview4D4D4D" d="M32.666 20.3613L110.352 20.3613Q118.506 20.3613 122.754 16.0889Q127.002 11.8164 127.002 3.75977L127.002-73.9746Q127.002-82.0312 122.754-86.3037Q118.506-90.5762 110.352-90.5762L32.666-90.5762Q24.5117-90.5762 20.2881-86.377Q16.0645-82.1777 16.0645-73.9746L16.0645 3.75977Q16.0645 11.9141 20.2881 16.1377Q24.5117 20.3613 32.666 20.3613ZM32.8125 16.4062Q26.5137 16.4062 23.2666 13.1592Q20.0195 9.91211 20.0195 3.56445L20.0195-73.7793Q20.0195-80.127 23.2666-83.374Q26.5137-86.6211 32.8125-86.6211L110.205-86.6211Q116.309-86.6211 119.678-83.374Q123.047-80.127 123.047-73.7793L123.047 3.56445Q123.047 9.91211 119.678 13.1592Q116.309 16.4062 110.205 16.4062Z"/>
   <path class="hierarchical-1:primary SFSymbolsPreview212121" d="M53.6133-6.98242Q54.248-6.98242 54.6387-7.27539Q55.0293-7.56836 55.4688-8.1543L71.2891-31.9336L71.6309-31.9336L87.3047-8.1543Q87.6953-7.56836 88.1104-7.27539Q88.5254-6.98242 89.209-6.98242Q90.0391-6.98242 90.5518-7.51953Q91.0645-8.05664 91.0645-8.88672Q91.0645-9.47266 90.625-10.2539L73.8281-35.2539L90.8203-60.4492Q91.3574-61.2305 91.3574-61.7676Q91.3574-62.5 90.8203-63.0127Q90.2832-63.5254 89.4043-63.5254Q88.7695-63.5254 88.3545-63.2568Q87.9395-62.9883 87.5488-62.4023L71.7773-38.5742L71.4355-38.5742L55.7617-62.4023Q55.3711-62.9883 54.9561-63.2568Q54.541-63.5254 53.8086-63.5254Q53.0273-63.5254 52.4902-63.0127Q51.9531-62.5 51.9531-61.6211Q51.9531-61.084 52.4902-60.2051L69.1406-35.3027L52.1484-10.0586Q51.6602-9.27734 51.6602-8.69141Q51.6602-8.00781 52.1973-7.49512Q52.7344-6.98242 53.6133-6.98242Z"/>
  </g>
  <g id="Ultralight-L" transform="matrix(1 0 0 1 488.747 1556)">
   <path class="hierarchical-0:secondary SFSymbolsPreview4D4D4D" d="M31.9824 19.8242L109.961 19.8242Q117.725 19.8242 121.802 15.6738Q125.879 11.5234 125.879 3.85742L125.879-74.0723Q125.879-81.7383 121.802-85.8643Q117.725-89.9902 109.961-89.9902L31.9824-89.9902Q24.1699-89.9902 20.1172-85.9375Q16.0645-81.8848 16.0645-74.0723L16.0645 3.85742Q16.0645 11.6699 20.1172 15.7471Q24.1699 19.8242 31.9824 19.8242ZM32.1289 17.2363Q25.4395 17.2363 22.0215 13.8184Q18.6035 10.4004 18.6035 3.75977L18.6035-73.9258Q18.6035-80.6152 22.0215-84.0332Q25.4395-87.4512 32.1289-87.4512L109.814-87.4512Q116.211-87.4512 119.751-84.0332Q123.291-80.6152 123.291-73.9258L123.291 3.75977Q123.291 10.4004 119.751 13.8184Q116.211 17.2363 109.814 17.2363Z"/>
   <path class="hierarchical-1:primary SFSymbolsPreview212121" d="M53.2227-7.08008Q53.6621-7.08008 53.9307-7.2998Q54.1992-7.51953 54.4434-7.91016L70.752-32.6172L71.0938-32.6172L87.207-7.91016Q87.4512-7.51953 87.7197-7.2998Q87.9883-7.08008 88.5254-7.08008Q89.0625-7.08008 89.3799-7.44629Q89.6973-7.8125 89.6973-8.39844Q89.6973-8.74023 89.4043-9.32617L72.4121-35.1074L89.6484-61.084Q89.9902-61.6699 89.9902-62.0117Q89.9902-62.4512 89.6484-62.8174Q89.3066-63.1836 88.6719-63.1836Q88.2324-63.1836 87.9639-62.9639Q87.6953-62.7441 87.4512-62.3535L71.0938-37.5977L70.752-37.5977L54.5898-62.3535Q54.3457-62.7441 54.0771-62.9639Q53.8086-63.1836 53.2715-63.1836Q52.7344-63.1836 52.3926-62.8174Q52.0508-62.4512 52.0508-61.8652Q52.0508-61.5723 52.3926-60.9375L69.4336-35.0586L52.2461-9.17969Q51.9043-8.59375 51.9043-8.25195Q51.9043-7.76367 52.2461-7.42188Q52.5879-7.08008 53.2227-7.08008Z"/>
  </g>
  <g id="Black-M" transform="matrix(1 0 0 1 2872.54 1126)">
   <path class="hierarchical-0:secondary SFSymbolsPreview4D4D4D" d="M31.5918 13.2324L90.1367 13.2324Q99.1699 13.2324 104.224 8.17871Q109.277 3.125 109.277-5.9082L109.277-64.4531Q109.277-73.5352 104.224-78.5645Q99.1699-83.5938 90.1367-83.5938L31.5918-83.5938Q22.5586-83.5938 17.5049-78.5645Q12.4512-73.5352 12.4512-64.4531L12.4512-5.9082Q12.4512 3.125 17.5049 8.17871Q22.5586 13.2324 31.5918 13.2324ZM34.2285-4.10156Q31.9824-4.10156 30.8838-5.12695Q29.7852-6.15234 29.7852-8.59375L29.7852-61.8164Q29.7852-64.2578 30.8838-65.2588Q31.9824-66.2598 34.2285-66.2598L87.5-66.2598Q89.7461-66.2598 90.8447-65.2588Q91.9434-64.2578 91.9434-61.8164L91.9434-8.59375Q91.9434-6.15234 90.8447-5.12695Q89.7461-4.10156 87.5-4.10156Z"/>
   <path class="hierarchical-1:primary SFSymbolsPreview212121" d="M48.0957-12.9395Q50.4395-12.9395 51.9775-13.9893Q53.5156-15.0391 55.3223-17.8711L60.6934-26.5137L61.1816-26.5137L66.3086-17.8711Q67.9199-15.0879 69.5068-14.0137Q71.0938-12.9395 73.5352-12.9395Q76.6602-12.9395 78.5645-14.7461Q80.4688-16.5527 80.4688-19.4824Q80.4688-22.1191 78.2715-25L70.459-35.1562L78.2715-45.4102Q80.4688-48.291 80.4688-50.8789Q80.4688-53.8086 78.5645-55.6396Q76.6602-57.4707 73.5352-57.4707Q71.1426-57.4707 69.5557-56.3721Q67.9688-55.2734 66.3574-52.4902L61.2793-43.8965L60.791-43.8965L55.3711-52.4902Q53.5645-55.3711 52.0264-56.4209Q50.4883-57.4707 48.1445-57.4707Q45.0684-57.4707 43.1396-55.6396Q41.2109-53.8086 41.2109-50.8789Q41.2109-48.2422 43.4082-45.3613L51.1719-35.1562L43.3594-25Q41.1621-22.1191 41.1621-19.4824Q41.1621-16.5527 43.0664-14.7461Q44.9707-12.9395 48.0957-12.9395Z"/>
  </g>
  <g id="Heavy-M" transform="matrix(1 0 0 1 2576.64 1126)">
   <path class="hierarchical-0:secondary SFSymbolsPreview4D4D4D" d="M30.7129 12.4023L89.4043 12.4023Q98.0957 12.4023 102.856 7.66602Q107.617 2.92969 107.617-5.76172L107.617-64.5996Q107.617-73.291 102.856-78.0273Q98.0957-82.7637 89.4043-82.7637L30.7129-82.7637Q21.9727-82.7637 17.2119-78.0273Q12.4512-73.291 12.4512-64.5996L12.4512-5.76172Q12.4512 2.92969 17.2119 7.66602Q21.9727 12.4023 30.7129 12.4023ZM32.7148-2.68555Q30.127-2.68555 28.833-3.93066Q27.5391-5.17578 27.5391-7.91016L27.5391-62.4512Q27.5391-65.2344 28.833-66.4551Q30.127-67.6758 32.7148-67.6758L87.3535-67.6758Q89.9414-67.6758 91.2354-66.4551Q92.5293-65.2344 92.5293-62.4512L92.5293-7.91016Q92.5293-5.17578 91.2354-3.93066Q89.9414-2.68555 87.3535-2.68555Z"/>
   <path class="hierarchical-1:primary SFSymbolsPreview212121" d="M46.875-12.9395Q48.9746-12.9395 50.3174-13.8428Q51.6602-14.7461 53.2715-17.2363L59.8633-27.3926L60.3027-27.3926L66.6992-17.2363Q68.1152-14.7949 69.5312-13.8672Q70.9473-12.9395 73.0469-12.9395Q75.8301-12.9395 77.5391-14.5508Q79.248-16.1621 79.248-18.75Q79.248-21.0938 77.3926-23.584L68.5059-35.3027L77.3926-47.0703Q79.2969-49.6094 79.2969-51.9043Q79.2969-54.4434 77.5879-56.0791Q75.8789-57.7148 73.1445-57.7148Q71.0449-57.7148 69.6289-56.7627Q68.2129-55.8105 66.7969-53.418L60.498-43.2617L60.1074-43.2617L53.5156-53.418Q51.9043-55.9082 50.5371-56.8115Q49.1699-57.7148 47.1191-57.7148Q44.3848-57.7148 42.6514-56.0791Q40.918-54.4434 40.918-51.8555Q40.918-49.4629 42.8223-46.9727L51.5137-35.3516L42.627-23.5352Q40.7227-21.0449 40.7227-18.7012Q40.7227-16.1621 42.4316-14.5508Q44.1406-12.9395 46.875-12.9395Z"/>
  </g>
  <g id="Bold-M" transform="matrix(1 0 0 1 2280.85 1126)">
   <path class="hierarchical-0:secondary SFSymbolsPreview4D4D4D" d="M29.6875 11.5234L88.5742 11.5234Q96.9238 11.5234 101.367 7.10449Q105.811 2.68555 105.811-5.66406L105.811-64.7461Q105.811-73.0469 101.367-77.4658Q96.9238-81.8848 88.5742-81.8848L29.6875-81.8848Q21.3379-81.8848 16.8945-77.4658Q12.4512-73.0469 12.4512-64.7461L12.4512-5.66406Q12.4512 2.68555 16.8945 7.10449Q21.3379 11.5234 29.6875 11.5234ZM31.0547-1.12305Q28.125-1.12305 26.5869-2.58789Q25.0488-4.05273 25.0488-7.17773L25.0488-63.2324Q25.0488-66.3574 26.5869-67.8223Q28.125-69.2871 31.0547-69.2871L87.207-69.2871Q90.1367-69.2871 91.6748-67.8223Q93.2129-66.3574 93.2129-63.2324L93.2129-7.17773Q93.2129-4.05273 91.6748-2.58789Q90.1367-1.12305 87.207-1.12305Z"/>
   <path class="hierarchical-1:primary SFSymbolsPreview212121" d="M45.5078-12.9395Q47.2656-12.9395 48.4375-13.6963Q49.6094-14.4531 50.9766-16.5039L58.9355-28.3691L59.2773-28.3691L67.0898-16.5039Q68.3594-14.502 69.5557-13.7207Q70.752-12.9395 72.5098-12.9395Q74.9023-12.9395 76.416-14.3311Q77.9297-15.7227 77.9297-17.9688Q77.9297-19.9707 76.3672-22.0215L66.3086-35.4492L76.416-48.9746Q77.9785-51.0742 77.9785-53.0273Q77.9785-55.1758 76.4893-56.5918Q75-58.0078 72.6562-58.0078Q70.8984-58.0078 69.7021-57.2266Q68.5059-56.4453 67.2852-54.4434L59.668-42.627L59.2773-42.627L51.3672-54.4434Q50.0488-56.4941 48.877-57.251Q47.7051-58.0078 45.8984-58.0078Q43.6035-58.0078 42.0654-56.5674Q40.5273-55.127 40.5273-52.9297Q40.5273-50.8789 42.1387-48.7305L51.9043-35.5957L41.748-21.9238Q40.2344-19.873 40.2344-17.8711Q40.2344-15.7227 41.7236-14.3311Q43.2129-12.9395 45.5078-12.9395Z"/>
  </g>
  <g id="Semibold-M" transform="matrix(1 0 0 1 1984.77 1126)">
   <path class="hierarchical-0:secondary SFSymbolsPreview4D4D4D" d="M29.0039 10.8887L87.9883 10.8887Q96.0938 10.8887 100.317 6.68945Q104.541 2.49023 104.541-5.51758L104.541-64.8438Q104.541-72.8516 100.317-77.0508Q96.0938-81.25 87.9883-81.25L29.0039-81.25Q20.8984-81.25 16.6748-77.0508Q12.4512-72.8516 12.4512-64.8438L12.4512-5.51758Q12.4512 2.49023 16.6748 6.68945Q20.8984 10.8887 29.0039 10.8887ZM29.8828 0Q26.709 0 25.0244-1.63574Q23.3398-3.27148 23.3398-6.64062L23.3398-63.7207Q23.3398-67.0898 25.0244-68.7256Q26.709-70.3613 29.8828-70.3613L87.1094-70.3613Q90.2832-70.3613 91.9678-68.7256Q93.6523-67.0898 93.6523-63.7207L93.6523-6.64062Q93.6523-3.27148 91.9678-1.63574Q90.2832 0 87.1094 0Z"/>
   <path class="hierarchical-1:primary SFSymbolsPreview212121" d="M44.5312-12.8906Q46.1426-12.8906 47.1436-13.5742Q48.1445-14.2578 49.3652-16.0156L58.252-29.0039L58.5449-29.0039L67.3828-16.0156Q68.5059-14.2578 69.5557-13.5742Q70.6055-12.8906 72.168-12.8906Q74.2676-12.8906 75.6348-14.1602Q77.002-15.4297 77.002-17.4316Q77.002-19.1895 75.6348-20.8984L64.7949-35.5469L75.7324-50.293Q77.0508-52.0508 77.0508-53.7598Q77.0508-55.6641 75.7324-56.9336Q74.4141-58.2031 72.3633-58.2031Q70.8008-58.2031 69.751-57.5195Q68.7012-56.8359 67.627-55.127L59.0332-42.1387L58.7402-42.1387L49.9023-55.1758Q48.7793-56.8848 47.7295-57.5439Q46.6797-58.2031 45.0684-58.2031Q43.0664-58.2031 41.6748-56.8848Q40.2832-55.5664 40.2832-53.6621Q40.2832-51.8555 41.6992-49.9512L52.1484-35.7422L41.1621-20.752Q39.8926-19.043 39.8926-17.2852Q39.8926-15.3809 41.2109-14.1357Q42.5293-12.8906 44.5312-12.8906Z"/>
  </g>
  <g id="Medium-M" transform="matrix(1 0 0 1 1688.53 1126)">
   <path class="hierarchical-0:secondary SFSymbolsPreview4D4D4D" d="M28.4668 10.4004L87.5977 10.4004Q95.5078 10.4004 99.5605 6.37207Q103.613 2.34375 103.613-5.46875L103.613-64.8926Q103.613-72.7539 99.5605-76.7578Q95.5078-80.7617 87.5977-80.7617L28.4668-80.7617Q20.5566-80.7617 16.5039-76.7578Q12.4512-72.7539 12.4512-64.8926L12.4512-5.46875Q12.4512 2.34375 16.5039 6.37207Q20.5566 10.4004 28.4668 10.4004ZM29.0039 0.830078Q25.6348 0.830078 23.8281-0.927734Q22.0215-2.68555 22.0215-6.25L22.0215-64.1113Q22.0215-67.6758 23.8281-69.4336Q25.6348-71.1914 29.0039-71.1914L87.0117-71.1914Q90.3809-71.1914 92.2119-69.4336Q94.043-67.6758 94.043-64.1113L94.043-6.25Q94.043-2.68555 92.2119-0.927734Q90.3809 0.830078 87.0117 0.830078Z"/>
   <path class="hierarchical-1:primary SFSymbolsPreview212121" d="M43.7988-12.8906Q45.2148-12.8906 46.1426-13.4766Q47.0703-14.0625 48.1445-15.625L57.7637-29.541L58.0078-29.541L67.5781-15.625Q68.6523-14.0625 69.5801-13.4766Q70.5078-12.8906 71.8262-12.8906Q73.7793-12.8906 75.0244-14.0381Q76.2695-15.1855 76.2695-16.9922Q76.2695-18.6035 75.0977-20.0684L63.6719-35.6445L75.1953-51.2695Q76.3184-52.832 76.3184-54.3457Q76.3184-56.0547 75.1221-57.2021Q73.9258-58.3496 72.0703-58.3496Q70.7031-58.3496 69.751-57.7637Q68.7988-57.1777 67.8711-55.6641L58.5938-41.7969L58.3008-41.7969L48.7793-55.7129Q47.8027-57.1777 46.8506-57.7637Q45.8984-58.3496 44.4336-58.3496Q42.627-58.3496 41.3574-57.1289Q40.0879-55.9082 40.0879-54.1992Q40.0879-52.5879 41.3086-50.8789L52.3438-35.8398L40.7227-19.9219Q39.6484-18.4082 39.6484-16.8457Q39.6484-15.1367 40.8447-14.0137Q42.041-12.8906 43.7988-12.8906Z"/>
  </g>
  <g id="Regular-M" transform="matrix(1 0 0 1 1392.45 1126)">
   <path class="hierarchical-0:secondary SFSymbolsPreview4D4D4D" d="M27.7832 9.76562L87.0117 9.76562Q94.6777 9.76562 98.5107 5.98145Q102.344 2.19727 102.344-5.37109L102.344-64.9902Q102.344-72.5586 98.5107-76.3428Q94.6777-80.127 87.0117-80.127L27.7832-80.127Q20.1172-80.127 16.2842-76.3428Q12.4512-72.5586 12.4512-64.9902L12.4512-5.37109Q12.4512 2.19727 16.2842 5.98145Q20.1172 9.76562 27.7832 9.76562ZM27.8809 1.9043Q24.2188 1.9043 22.2656-0.0244141Q20.3125-1.95312 20.3125-5.76172L20.3125-64.5996Q20.3125-68.4082 22.2656-70.3369Q24.2188-72.2656 27.8809-72.2656L86.9141-72.2656Q90.5273-72.2656 92.5049-70.3369Q94.4824-68.4082 94.4824-64.5996L94.4824-5.76172Q94.4824-1.95312 92.5049-0.0244141Q90.5273 1.9043 86.9141 1.9043Z"/>
   <path class="hierarchical-1:primary SFSymbolsPreview212121" d="M42.8711-12.8906Q44.0918-12.8906 44.873-13.3789Q45.6543-13.8672 46.582-15.1367L57.1289-30.1758L57.3242-30.1758L67.8711-15.1367Q68.7988-13.8672 69.5801-13.3789Q70.3613-12.8906 71.4844-12.8906Q73.1445-12.8906 74.2432-13.8916Q75.3418-14.8926 75.3418-16.4551Q75.3418-17.8223 74.4141-18.9941L62.1582-35.7422L74.5117-52.5391Q75.4395-53.8086 75.4395-55.127Q75.4395-56.543 74.3896-57.5439Q73.3398-58.5449 71.7773-58.5449Q70.6055-58.5449 69.7998-58.0566Q68.9941-57.5684 68.2129-56.3477L58.0078-41.3086L57.7637-41.3086L47.3633-56.3965Q46.5332-57.5684 45.7031-58.0566Q44.873-58.5449 43.6523-58.5449Q42.0898-58.5449 40.9668-57.4707Q39.8438-56.3965 39.8438-54.9316Q39.8438-53.5156 40.8691-52.0996L52.5879-35.9863L40.1367-18.7988Q39.3066-17.5781 39.3066-16.2598Q39.3066-14.8438 40.3564-13.8672Q41.4062-12.8906 42.8711-12.8906Z"/>
  </g>
  <g id="Light-M" transform="matrix(1 0 0 1 1096.48 1126)">
   <path class="hierarchical-0:secondary SFSymbolsPreview4D4D4D" d="M26.8555 9.0332L86.4746 9.0332Q93.6035 9.0332 97.2412 5.44434Q100.879 1.85547 100.879-5.22461L100.879-65.0879Q100.879-72.168 97.2412-75.7812Q93.6035-79.3945 86.4746-79.3945L26.8555-79.3945Q19.6777-79.3945 16.0645-75.8057Q12.4512-72.2168 12.4512-65.0879L12.4512-5.22461Q12.4512 1.85547 16.0645 5.44434Q19.6777 9.0332 26.8555 9.0332ZM26.9531 2.97852Q22.8027 2.97852 20.6543 0.830078Q18.5059-1.31836 18.5059-5.51758L18.5059-64.7949Q18.5059-69.043 20.6543-71.1914Q22.8027-73.3398 26.9531-73.3398L86.377-73.3398Q90.3809-73.3398 92.6025-71.1914Q94.8242-69.043 94.8242-64.7949L94.8242-5.51758Q94.8242-1.31836 92.6025 0.830078Q90.3809 2.97852 86.377 2.97852Z"/>
   <path class="hierarchical-1:primary SFSymbolsPreview212121" d="M42.3828-13.0371Q43.3105-13.0371 43.9209-13.4277Q44.5312-13.8184 45.2148-14.7949L56.3965-31.1035L56.6406-31.1035L67.7734-14.7949Q68.457-13.8184 69.0674-13.4277Q69.6777-13.0371 70.6055-13.0371Q71.875-13.0371 72.7051-13.8184Q73.5352-14.5996 73.5352-15.8203Q73.5352-16.8457 72.8516-17.8223L60.3027-35.5469L72.9492-53.3691Q73.6816-54.3945 73.6816-55.3711Q73.6816-56.4941 72.876-57.251Q72.0703-58.0078 70.8496-58.0078Q69.9219-58.0078 69.2871-57.6172Q68.6523-57.2266 68.0664-56.2988L57.1289-39.9902L56.8359-39.9902L45.8008-56.3477Q45.166-57.2266 44.5312-57.6172Q43.8965-58.0078 42.9199-58.0078Q41.6992-58.0078 40.8447-57.1777Q39.9902-56.3477 39.9902-55.2246Q39.9902-54.1504 40.7715-53.0762L52.9785-35.6934L40.2344-17.627Q39.5996-16.6504 39.5996-15.6738Q39.5996-14.5508 40.4053-13.7939Q41.2109-13.0371 42.3828-13.0371Z"/>
  </g>
  <g id="Thin-M" transform="matrix(1 0 0 1 800.747 1126)">
   <path class="hierarchical-0:secondary SFSymbolsPreview4D4D4D" d="M25.5859 8.05664L85.6934 8.05664Q92.2363 8.05664 95.5566 4.71191Q98.877 1.36719 98.877-5.07812L98.877-65.2344Q98.877-71.6309 95.5566-75Q92.2363-78.3691 85.6934-78.3691L25.5859-78.3691Q19.1406-78.3691 15.7959-75.0488Q12.4512-71.7285 12.4512-65.2344L12.4512-5.07812Q12.4512 1.41602 15.7959 4.73633Q19.1406 8.05664 25.5859 8.05664ZM25.7324 4.44336Q20.9961 4.44336 18.5547 2.00195Q16.1133-0.439453 16.1133-5.22461L16.1133-65.0391Q16.1133-69.873 18.5547-72.29Q20.9961-74.707 25.7324-74.707L85.5957-74.707Q90.2344-74.707 92.749-72.29Q95.2637-69.873 95.2637-65.0391L95.2637-5.22461Q95.2637-0.439453 92.749 2.00195Q90.2344 4.44336 85.5957 4.44336Z"/>
   <path class="hierarchical-1:primary SFSymbolsPreview212121" d="M41.6992-13.2812Q42.2852-13.2812 42.6514-13.5498Q43.0176-13.8184 43.4082-14.3066L55.4688-32.373L55.7129-32.373L67.6758-14.3066Q68.0176-13.8184 68.4082-13.5498Q68.7988-13.2812 69.4336-13.2812Q70.166-13.2812 70.6787-13.7695Q71.1914-14.2578 71.1914-14.9902Q71.1914-15.5762 70.752-16.2598L57.8125-35.3027L70.8984-54.4922Q71.3379-55.1758 71.3379-55.7129Q71.3379-56.3965 70.8252-56.8848Q70.3125-57.373 69.5801-57.373Q68.9941-57.373 68.6035-57.1045Q68.2129-56.8359 67.8711-56.2988L55.9082-38.2324L55.6152-38.2324L43.7012-56.2988Q43.3594-56.8359 42.9688-57.1045Q42.5781-57.373 41.9434-57.373Q41.2109-57.373 40.6982-56.8604Q40.1855-56.3477 40.1855-55.6152Q40.1855-55.0293 40.6738-54.2969L53.4668-35.3516L40.3809-16.1133Q39.9414-15.4297 39.9414-14.8926Q39.9414-14.209 40.4297-13.7451Q40.918-13.2812 41.6992-13.2812Z"/>
  </g>
  <g id="Ultralight-M" transform="matrix(1 0 0 1 504.539 1126)">
   <path class="hierarchical-0:secondary SFSymbolsPreview4D4D4D" d="M24.9512 7.56836L85.3516 7.56836Q91.5039 7.56836 94.7021 4.3457Q97.9004 1.12305 97.9004-4.98047L97.9004-65.332Q97.9004-71.3867 94.7021-74.6338Q91.5039-77.8809 85.3516-77.8809L24.9512-77.8809Q18.8477-77.8809 15.6494-74.6826Q12.4512-71.4844 12.4512-65.332L12.4512-4.98047Q12.4512 1.2207 15.6494 4.39453Q18.8477 7.56836 24.9512 7.56836ZM25.0977 5.17578Q20.0195 5.17578 17.4316 2.58789Q14.8438 0 14.8438-5.07812L14.8438-65.1855Q14.8438-70.2637 17.4316-72.8516Q20.0195-75.4395 25.0977-75.4395L85.2539-75.4395Q90.1367-75.4395 92.7979-72.8516Q95.459-70.2637 95.459-65.1855L95.459-5.07812Q95.459 0 92.7979 2.58789Q90.1367 5.17578 85.2539 5.17578Z"/>
   <path class="hierarchical-1:primary SFSymbolsPreview212121" d="M41.3574-13.3789Q41.748-13.3789 42.0166-13.5742Q42.2852-13.7695 42.4805-14.1113L54.9805-33.0078L55.2734-33.0078L67.627-14.1113Q67.8223-13.7695 68.0908-13.5742Q68.3594-13.3789 68.8477-13.3789Q69.3359-13.3789 69.6533-13.7207Q69.9707-14.0625 69.9707-14.5996Q69.9707-14.8926 69.6777-15.4297L56.543-35.2051L69.873-55.0781Q70.166-55.5664 70.166-55.9082Q70.166-56.3477 69.8242-56.665Q69.4824-56.9824 68.9453-56.9824Q68.5547-56.9824 68.2861-56.7871Q68.0176-56.5918 67.7734-56.25L55.3223-37.3535L55.0293-37.3535L42.6758-56.25Q42.4316-56.5918 42.1631-56.7871Q41.8945-56.9824 41.4551-56.9824Q40.9668-56.9824 40.6494-56.6406Q40.332-56.2988 40.332-55.8105Q40.332-55.4688 40.625-54.9805L53.7598-35.1562L40.4297-15.2832Q40.1367-14.7949 40.1367-14.502Q40.1367-14.0137 40.4785-13.6963Q40.8203-13.3789 41.3574-13.3789Z"/>
  </g>
  <g id="Black-S" transform="matrix(1 0 0 1 2885.5 696)">
   <path class="hierarchical-0:secondary SFSymbolsPreview4D4D4D" d="M25 2.92969L70.8008 2.92969Q77.9785 2.92969 82.0068-1.09863Q86.0352-5.12695 86.0352-12.3047L86.0352-58.1055Q86.0352-65.2832 82.0068-69.3115Q77.9785-73.3398 70.8008-73.3398L25-73.3398Q17.8223-73.3398 13.7939-69.3115Q9.76562-65.2832 9.76562-58.1055L9.76562-12.3047Q9.76562-5.12695 13.7939-1.09863Q17.8223 2.92969 25 2.92969ZM27.2461-11.2305Q25.5859-11.2305 24.7559-11.9873Q23.9258-12.7441 23.9258-14.5508L23.9258-55.8594Q23.9258-57.7148 24.7559-58.4473Q25.5859-59.1797 27.2461-59.1797L68.5547-59.1797Q70.2637-59.1797 71.0693-58.4473Q71.875-57.7148 71.875-55.8594L71.875-14.5508Q71.875-12.7441 71.0693-11.9873Q70.2637-11.2305 68.5547-11.2305Z"/>
   <path class="hierarchical-1:primary SFSymbolsPreview212121" d="M38.0371-17.7734Q39.9414-17.7734 41.1865-18.6279Q42.4316-19.4824 43.8965-21.8262L47.8027-28.1738L48.1934-28.1738L51.8555-21.8262Q53.1738-19.5801 54.4678-18.6768Q55.7617-17.7734 57.7148-17.7734Q60.2539-17.7734 61.792-19.2383Q63.3301-20.7031 63.3301-23.0957Q63.3301-25.2441 61.5234-27.5879L55.7129-35.1074L61.5234-42.7246Q63.3301-45.0684 63.3301-47.2168Q63.3301-49.6094 61.792-51.0742Q60.2539-52.5391 57.7148-52.5391Q55.7617-52.5391 54.4678-51.6602Q53.1738-50.7812 51.8555-48.4863L48.1934-42.1387L47.8027-42.1387L43.8965-48.4863Q42.4316-50.8301 41.1865-51.6846Q39.9414-52.5391 38.0371-52.5391Q35.498-52.5391 33.96-51.0742Q32.4219-49.6094 32.4219-47.2168Q32.4219-45.0684 34.2285-42.7246L40.0391-35.1074L34.2285-27.5879Q32.4219-25.2441 32.4219-23.0957Q32.4219-20.7031 33.96-19.2383Q35.498-17.7734 38.0371-17.7734Z"/>
  </g>
  <g id="Heavy-S" transform="matrix(1 0 0 1 2589.39 696)">
   <path class="hierarchical-0:secondary SFSymbolsPreview4D4D4D" d="M24.3652 2.34375L70.2637 2.34375Q77.1973 2.34375 81.0059-1.46484Q84.8145-5.27344 84.8145-12.207L84.8145-58.2031Q84.8145-65.1367 81.0059-68.9453Q77.1973-72.7539 70.2637-72.7539L24.3652-72.7539Q17.3828-72.7539 13.5742-68.9453Q9.76562-65.1367 9.76562-58.2031L9.76562-12.207Q9.76562-5.27344 13.5742-1.46484Q17.3828 2.34375 24.3652 2.34375ZM26.0742-10.1562Q24.1699-10.1562 23.2178-11.0596Q22.2656-11.9629 22.2656-14.0137L22.2656-56.3965Q22.2656-58.4473 23.2178-59.3506Q24.1699-60.2539 26.0742-60.2539L68.5059-60.2539Q70.459-60.2539 71.4111-59.3506Q72.3633-58.4473 72.3633-56.3965L72.3633-14.0137Q72.3633-11.9629 71.4111-11.0596Q70.459-10.1562 68.5059-10.1562Z"/>
   <path class="hierarchical-1:primary SFSymbolsPreview212121" d="M37.0605-17.7734Q38.7695-17.7734 39.8926-18.5059Q41.0156-19.2383 42.334-21.3379L47.168-28.8086L47.5098-28.8086L52.1973-21.3379Q53.3691-19.3359 54.541-18.5547Q55.7129-17.7734 57.4219-17.7734Q59.7168-17.7734 61.1084-19.0918Q62.5-20.4102 62.5-22.5586Q62.5-24.4629 60.9375-26.5137L54.2969-35.2539L60.9863-44.043Q62.5488-46.0938 62.5488-48.0469Q62.5488-50.1953 61.1572-51.5137Q59.7656-52.832 57.4707-52.832Q55.7617-52.832 54.5898-52.0508Q53.418-51.2695 52.2461-49.2676L47.6562-41.7969L47.3145-41.7969L42.4805-49.2676Q41.1621-51.3184 40.0391-52.0752Q38.916-52.832 37.207-52.832Q34.9609-52.832 33.5449-51.4893Q32.1289-50.1465 32.1289-47.998Q32.1289-46.0449 33.7402-43.9453L40.2832-35.3027L33.5938-26.4648Q32.0312-24.4141 32.0312-22.5098Q32.0312-20.4102 33.4229-19.0918Q34.8145-17.7734 37.0605-17.7734Z"/>
  </g>
  <g id="Bold-S" transform="matrix(1 0 0 1 2293.36 696)">
   <path class="hierarchical-0:secondary SFSymbolsPreview4D4D4D" d="M23.6328 1.66016L69.6289 1.66016Q76.3672 1.66016 79.9316-1.9043Q83.4961-5.46875 83.4961-12.1094L83.4961-58.3008Q83.4961-64.9902 79.9316-68.5303Q76.3672-72.0703 69.6289-72.0703L23.6328-72.0703Q16.9434-72.0703 13.3545-68.5303Q9.76562-64.9902 9.76562-58.3008L9.76562-12.1094Q9.76562-5.46875 13.3545-1.9043Q16.9434 1.66016 23.6328 1.66016ZM24.8047-8.98438Q22.6562-8.98438 21.5088-10.0586Q20.3613-11.1328 20.3613-13.4277L20.3613-57.0312Q20.3613-59.3262 21.5088-60.4004Q22.6562-61.4746 24.8047-61.4746L68.457-61.4746Q70.6543-61.4746 71.7773-60.4004Q72.9004-59.3262 72.9004-57.0312L72.9004-13.4277Q72.9004-11.1328 71.7773-10.0586Q70.6543-8.98438 68.457-8.98438Z"/>
   <path class="hierarchical-1:primary SFSymbolsPreview212121" d="M35.9375-17.7246Q37.4512-17.7246 38.4277-18.3594Q39.4043-18.9941 40.5273-20.752L46.4844-29.4922L46.7285-29.4922L52.5391-20.752Q53.6133-19.043 54.6143-18.3838Q55.6152-17.7246 57.0801-17.7246Q59.1309-17.7246 60.376-18.8965Q61.6211-20.0684 61.6211-21.9727Q61.6211-23.6328 60.3027-25.3418L52.6855-35.4004L60.3516-45.5566Q61.6699-47.2656 61.6699-48.9746Q61.6699-50.8301 60.4248-51.9775Q59.1797-53.125 57.2266-53.125Q55.7129-53.125 54.7119-52.4902Q53.7109-51.8555 52.6855-50.1465L47.0703-41.4062L46.7773-41.4062L40.8691-50.1953Q39.7949-51.8555 38.7939-52.4902Q37.793-53.125 36.3281-53.125Q34.3262-53.125 33.0566-51.9287Q31.7871-50.7324 31.7871-48.877Q31.7871-47.168 33.1543-45.3613L40.5273-35.5469L32.8125-25.2441Q31.543-23.5352 31.543-21.875Q31.543-20.0684 32.7881-18.8965Q34.0332-17.7246 35.9375-17.7246Z"/>
  </g>
  <g id="Semibold-S" transform="matrix(1 0 0 1 1997.11 696)">
   <path class="hierarchical-0:secondary SFSymbolsPreview4D4D4D" d="M23.0957 1.2207L69.1895 1.2207Q75.7324 1.2207 79.126-2.17285Q82.5195-5.56641 82.5195-12.0605L82.5195-58.3496Q82.5195-64.8438 79.126-68.2373Q75.7324-71.6309 69.1895-71.6309L23.0957-71.6309Q16.6016-71.6309 13.1836-68.2373Q9.76562-64.8438 9.76562-58.3496L9.76562-12.0605Q9.76562-5.56641 13.1836-2.17285Q16.6016 1.2207 23.0957 1.2207ZM23.877-8.1543Q21.5332-8.1543 20.2881-9.32617Q19.043-10.498 19.043-12.9883L19.043-57.4219Q19.043-59.8633 20.2881-61.0596Q21.5332-62.2559 23.877-62.2559L68.4082-62.2559Q70.752-62.2559 71.9971-61.0596Q73.2422-59.8633 73.2422-57.4219L73.2422-12.9883Q73.2422-10.498 71.9971-9.32617Q70.752-8.1543 68.4082-8.1543Z"/>
   <path class="hierarchical-1:primary SFSymbolsPreview212121" d="M35.1562-17.7246Q36.4746-17.7246 37.3535-18.2617Q38.2324-18.7988 39.2578-20.3613L45.9473-29.9805L46.1426-29.9805L52.7344-20.3613Q53.7109-18.8477 54.5898-18.2861Q55.4688-17.7246 56.7871-17.7246Q58.6426-17.7246 59.79-18.7744Q60.9375-19.8242 60.9375-21.5332Q60.9375-23.0469 59.8145-24.5117L51.5137-35.498L59.8633-46.582Q60.9863-48.0469 60.9863-49.5605Q60.9863-51.2207 59.8633-52.2705Q58.7402-53.3203 56.9824-53.3203Q55.6641-53.3203 54.7607-52.7588Q53.8574-52.1973 52.9297-50.7324L46.582-41.1133L46.3379-41.1133L39.7461-50.7812Q38.7695-52.2461 37.8662-52.7832Q36.9629-53.3203 35.6445-53.3203Q33.8379-53.3203 32.666-52.2217Q31.4941-51.123 31.4941-49.4629Q31.4941-47.9492 32.7148-46.3379L40.6738-35.6934L32.2754-24.4141Q31.2012-22.9004 31.2012-21.4355Q31.2012-19.8242 32.3242-18.7744Q33.4473-17.7246 35.1562-17.7246Z"/>
  </g>
  <g id="Medium-S" transform="matrix(1 0 0 1 1700.76 696)">
   <path class="hierarchical-0:secondary SFSymbolsPreview4D4D4D" d="M22.7051 0.830078L68.8965 0.830078Q75.293 0.830078 78.5645-2.41699Q81.8359-5.66406 81.8359-11.9629L81.8359-58.4473Q81.8359-64.7461 78.5645-67.9932Q75.293-71.2402 68.8965-71.2402L22.7051-71.2402Q16.3574-71.2402 13.0615-67.9932Q9.76562-64.7461 9.76562-58.4473L9.76562-11.9629Q9.76562-5.66406 13.0615-2.41699Q16.3574 0.830078 22.7051 0.830078ZM23.1934-7.51953Q20.752-7.51953 19.4092-8.78906Q18.0664-10.0586 18.0664-12.6465L18.0664-57.7637Q18.0664-60.3027 19.4092-61.5967Q20.752-62.8906 23.1934-62.8906L68.4082-62.8906Q70.8496-62.8906 72.1924-61.5967Q73.5352-60.3027 73.5352-57.7637L73.5352-12.6465Q73.5352-10.0586 72.1924-8.78906Q70.8496-7.51953 68.4082-7.51953Z"/>
   <path class="hierarchical-1:primary SFSymbolsPreview212121" d="M34.5215-17.6758Q35.7422-17.6758 36.5479-18.1885Q37.3535-18.7012 38.3301-20.0684L45.5566-30.3223L45.752-30.3223L52.9297-20.0684Q53.8574-18.7012 54.6387-18.1885Q55.4199-17.6758 56.6406-17.6758Q58.3008-17.6758 59.375-18.6768Q60.4492-19.6777 60.4492-21.1914Q60.4492-22.6074 59.4727-23.9258L50.6348-35.5957L59.5215-47.3633Q60.498-48.6816 60.498-50.0488Q60.498-51.5625 59.4482-52.5391Q58.3984-53.5156 56.8359-53.5156Q55.6152-53.5156 54.8096-53.0029Q54.0039-52.4902 53.1738-51.2207L46.2402-40.918L46.0449-40.918L38.8672-51.2695Q38.0371-52.4902 37.207-53.0029Q36.377-53.5156 35.1562-53.5156Q33.5449-53.5156 32.4463-52.4902Q31.3477-51.4648 31.3477-49.9512Q31.3477-48.5352 32.4219-47.0703L40.7715-35.791L31.8359-23.7305Q30.9082-22.4609 30.9082-21.0938Q30.9082-19.6289 31.958-18.6523Q33.0078-17.6758 34.5215-17.6758Z"/>
  </g>
  <g id="Regular-S" transform="matrix(1 0 0 1 1404.51 696)">
   <path class="hierarchical-0:secondary SFSymbolsPreview4D4D4D" d="M22.2168 0.390625L68.457 0.390625Q74.707 0.390625 77.8076-2.68555Q80.9082-5.76172 80.9082-11.9141L80.9082-58.4961Q80.9082-64.6484 77.8076-67.7246Q74.707-70.8008 68.457-70.8008L22.2168-70.8008Q16.0156-70.8008 12.8906-67.7246Q9.76562-64.6484 9.76562-58.4961L9.76562-11.9141Q9.76562-5.76172 12.8906-2.68555Q16.0156 0.390625 22.2168 0.390625ZM22.3145-6.68945Q19.6777-6.68945 18.2373-8.08105Q16.7969-9.47266 16.7969-12.2559L16.7969-58.1543Q16.7969-60.8887 18.2373-62.3047Q19.6777-63.7207 22.3145-63.7207L68.3594-63.7207Q70.9961-63.7207 72.4365-62.3047Q73.877-60.8887 73.877-58.1543L73.877-12.2559Q73.877-9.47266 72.4365-8.08105Q70.9961-6.68945 68.3594-6.68945Z"/>
   <path class="hierarchical-1:primary SFSymbolsPreview212121" d="M33.7891-17.6758Q34.8633-17.6758 35.5713-18.0908Q36.2793-18.5059 37.1094-19.6777L45.0684-30.8105L45.2148-30.8105L53.1738-19.6777Q54.0039-18.5059 54.6875-18.0908Q55.3711-17.6758 56.3965-17.6758Q57.9102-17.6758 58.8623-18.5547Q59.8145-19.4336 59.8145-20.8008Q59.8145-22.0215 59.0332-23.0957L49.5605-35.6934L59.082-48.3887Q59.9121-49.4629 59.9121-50.6836Q59.9121-52.002 58.96-52.8564Q58.0078-53.7109 56.6406-53.7109Q55.6152-53.7109 54.9072-53.2959Q54.1992-52.8809 53.4668-51.8066L45.8496-40.625L45.6543-40.625L37.793-51.8555Q37.0605-52.8809 36.3281-53.2959Q35.5957-53.7109 34.5215-53.7109Q33.1055-53.7109 32.1045-52.7832Q31.1035-51.8555 31.1035-50.5371Q31.1035-49.2676 32.0312-47.998L40.9668-35.9375L31.3477-22.9004Q30.6152-21.8262 30.6152-20.6543Q30.6152-19.3848 31.543-18.5303Q32.4707-17.6758 33.7891-17.6758Z"/>
  </g>
  <g id="Light-S" transform="matrix(1 0 0 1 1108.45 696)">
   <path class="hierarchical-0:secondary SFSymbolsPreview4D4D4D" d="M21.3867-0.244141L67.9688-0.244141Q73.7793-0.244141 76.6846-3.17383Q79.5898-6.10352 79.5898-11.8164L79.5898-58.5938Q79.5898-64.3066 76.6846-67.2119Q73.7793-70.1172 67.9688-70.1172L21.3867-70.1172Q15.625-70.1172 12.6953-67.2119Q9.76562-64.3066 9.76562-58.5938L9.76562-11.8164Q9.76562-6.05469 12.6953-3.14941Q15.625-0.244141 21.3867-0.244141ZM21.4844-5.71289Q18.457-5.71289 16.8213-7.2998Q15.1855-8.88672 15.1855-12.0605L15.1855-58.3008Q15.1855-61.4258 16.8213-63.0371Q18.457-64.6484 21.4844-64.6484L67.8711-64.6484Q70.8984-64.6484 72.5342-63.0371Q74.1699-61.4258 74.1699-58.3008L74.1699-12.0605Q74.1699-8.88672 72.5342-7.2998Q70.8984-5.71289 67.8711-5.71289Z"/>
   <path class="hierarchical-1:primary SFSymbolsPreview212121" d="M33.3496-17.8223Q34.1797-17.8223 34.7168-18.1396Q35.2539-18.457 35.8887-19.3848L44.4336-31.6406L44.5801-31.6406L53.125-19.3848Q53.7109-18.457 54.248-18.1396Q54.7852-17.8223 55.6152-17.8223Q56.7383-17.8223 57.4951-18.5059Q58.252-19.1895 58.252-20.2637Q58.252-21.1914 57.6172-22.0215L47.9004-35.5469L57.7148-49.1211Q58.3496-50 58.3496-50.9277Q58.3496-51.9043 57.6172-52.5879Q56.8848-53.2715 55.8105-53.2715Q54.9805-53.2715 54.4434-52.9297Q53.9062-52.5879 53.3203-51.7578L45.0195-39.4531L44.8242-39.4531L36.4258-51.8066Q35.8398-52.5879 35.2783-52.9297Q34.7168-53.2715 33.8867-53.2715Q32.7637-53.2715 32.0068-52.5391Q31.25-51.8066 31.25-50.7812Q31.25-49.8047 31.9824-48.8281L41.3086-35.6934L31.4453-21.875Q30.8594-20.9961 30.8594-20.1172Q30.8594-19.1406 31.5674-18.4814Q32.2754-17.8223 33.3496-17.8223Z"/>
  </g>
  <g id="Thin-S" transform="matrix(1 0 0 1 812.615 696)">
   <path class="hierarchical-0:secondary SFSymbolsPreview4D4D4D" d="M20.3125-1.12305L67.2852-1.12305Q72.5098-1.12305 75.1709-3.80859Q77.832-6.49414 77.832-11.6211L77.832-58.6914Q77.832-63.8184 75.1709-66.5283Q72.5098-69.2383 67.2852-69.2383L20.3125-69.2383Q15.0879-69.2383 12.4268-66.5771Q9.76562-63.916 9.76562-58.6914L9.76562-11.6211Q9.76562-6.44531 12.4268-3.78418Q15.0879-1.12305 20.3125-1.12305ZM20.4102-4.44336Q16.7969-4.44336 14.9414-6.29883Q13.0859-8.1543 13.0859-11.8164L13.0859-58.5449Q13.0859-62.207 14.9414-64.0625Q16.7969-65.918 20.4102-65.918L67.1875-65.918Q70.7031-65.918 72.6318-64.0625Q74.5605-62.207 74.5605-58.5449L74.5605-11.8164Q74.5605-8.1543 72.6318-6.29883Q70.7031-4.44336 67.1875-4.44336Z"/>
   <path class="hierarchical-1:primary SFSymbolsPreview212121" d="M32.7637-17.9688Q33.252-17.9688 33.5938-18.2129Q33.9355-18.457 34.3262-18.9941L43.6035-32.7637L43.7988-32.7637L53.0273-18.9941Q53.3691-18.457 53.7109-18.2129Q54.0527-17.9688 54.5898-17.9688Q55.2734-17.9688 55.7129-18.4082Q56.1523-18.8477 56.1523-19.5312Q56.1523-20.0684 55.8105-20.6543L45.7031-35.3516L55.9082-50.0977Q56.2988-50.6836 56.2988-51.2207Q56.2988-51.8066 55.8594-52.2217Q55.4199-52.6367 54.6875-52.6367Q54.1992-52.6367 53.8574-52.4414Q53.5156-52.2461 53.1738-51.7578L43.9941-37.9395L43.7988-37.9395L34.6191-51.7578Q34.2773-52.2461 33.9355-52.4414Q33.5938-52.6367 33.0566-52.6367Q32.373-52.6367 31.9092-52.2217Q31.4453-51.8066 31.4453-51.123Q31.4453-50.5859 31.8848-49.9512L41.748-35.4004L31.5918-20.5566Q31.2012-19.9219 31.2012-19.4336Q31.2012-18.7988 31.6406-18.3838Q32.0801-17.9688 32.7637-17.9688Z"/>
  </g>
  <g id="Ultralight-S" transform="matrix(1 0 0 1 516.35 696)">
   <path class="hierarchical-0:secondary SFSymbolsPreview4D4D4D" d="M19.7754-1.5625L66.9434-1.5625Q71.875-1.5625 74.4141-4.15039Q76.9531-6.73828 76.9531-11.5723L76.9531-58.7891Q76.9531-63.623 74.4141-66.1865Q71.875-68.75 66.9434-68.75L19.7754-68.75Q14.8438-68.75 12.3047-66.2109Q9.76562-63.6719 9.76562-58.7891L9.76562-11.5723Q9.76562-6.64062 12.3047-4.10156Q14.8438-1.5625 19.7754-1.5625ZM19.873-3.75977Q15.9668-3.75977 13.9648-5.76172Q11.9629-7.76367 11.9629-11.6699L11.9629-58.6426Q11.9629-62.5488 13.9648-64.5508Q15.9668-66.5527 19.873-66.5527L66.8457-66.5527Q70.6543-66.5527 72.7051-64.5508Q74.7559-62.5488 74.7559-58.6426L74.7559-11.6699Q74.7559-7.76367 72.7051-5.76172Q70.6543-3.75977 66.8457-3.75977Z"/>
   <path class="hierarchical-1:primary SFSymbolsPreview212121" d="M32.4707-18.0664Q32.8125-18.0664 33.0566-18.2373Q33.3008-18.4082 33.5449-18.75L43.2129-33.3008L43.4082-33.3008L53.0273-18.75Q53.1738-18.4082 53.418-18.2373Q53.6621-18.0664 54.1016-18.0664Q54.4922-18.0664 54.8096-18.3838Q55.127-18.7012 55.127-19.1895Q55.127-19.4824 54.8828-19.9219L44.6289-35.2539L55.0293-50.6348Q55.2246-51.0742 55.2246-51.3672Q55.2246-51.7578 54.9316-52.0508Q54.6387-52.3438 54.1504-52.3438Q53.8086-52.3438 53.5889-52.1973Q53.3691-52.0508 53.125-51.709L43.457-37.1094L43.2617-37.1094L33.7402-51.709Q33.4961-52.0508 33.252-52.1973Q33.0078-52.3438 32.6172-52.3438Q32.1777-52.3438 31.8848-52.0508Q31.5918-51.7578 31.5918-51.2695Q31.5918-50.9277 31.8848-50.4883L42.041-35.2539L31.6895-19.873Q31.3965-19.3848 31.3965-19.043Q31.3965-18.6523 31.6895-18.3594Q31.9824-18.0664 32.4707-18.0664Z"/>
  </g>
 </g>
</svg>
