<?xml version="1.0" encoding="UTF-8"?>
<!--Generator: Apple Native CoreSVG 175-->
<!DOCTYPE svg
PUBLIC "-//W3C//DTD SVG 1.1//EN"
       "http://www.w3.org/Graphics/SVG/1.1/DTD/svg11.dtd">
<svg version="1.1" xmlns="http://www.w3.org/2000/svg" xmlns:xlink="http://www.w3.org/1999/xlink" width="3300" height="2200">
 <!--glyph: "uni100125.medium", point size: 100.0, font version: "17.0d11e1", template writer version: "65.1"-->
 <g id="Notes">
  <rect height="2200" id="artboard" style="fill:white;opacity:1" width="3300" x="0" y="0"/>
  <line style="fill:none;stroke:black;opacity:1;stroke-width:0.5;" x1="263" x2="3036" y1="292" y2="292"/>
  <text style="stroke:none;fill:black;font-family:sans-serif;font-size:13;font-weight:bold;" transform="matrix(1 0 0 1 263 322)">Weight/Scale Variations</text>
  <text style="stroke:none;fill:black;font-family:sans-serif;font-size:13;text-anchor:middle;" transform="matrix(1 0 0 1 559.711 322)">Ultralight</text>
  <text style="stroke:none;fill:black;font-family:sans-serif;font-size:13;text-anchor:middle;" transform="matrix(1 0 0 1 856.422 322)">Thin</text>
  <text style="stroke:none;fill:black;font-family:sans-serif;font-size:13;text-anchor:middle;" transform="matrix(1 0 0 1 1153.13 322)">Light</text>
  <text style="stroke:none;fill:black;font-family:sans-serif;font-size:13;text-anchor:middle;" transform="matrix(1 0 0 1 1449.84 322)">Regular</text>
  <text style="stroke:none;fill:black;font-family:sans-serif;font-size:13;text-anchor:middle;" transform="matrix(1 0 0 1 1746.56 322)">Medium</text>
  <text style="stroke:none;fill:black;font-family:sans-serif;font-size:13;text-anchor:middle;" transform="matrix(1 0 0 1 2043.27 322)">Semibold</text>
  <text style="stroke:none;fill:black;font-family:sans-serif;font-size:13;text-anchor:middle;" transform="matrix(1 0 0 1 2339.98 322)">Bold</text>
  <text style="stroke:none;fill:black;font-family:sans-serif;font-size:13;text-anchor:middle;" transform="matrix(1 0 0 1 2636.69 322)">Heavy</text>
  <text style="stroke:none;fill:black;font-family:sans-serif;font-size:13;text-anchor:middle;" transform="matrix(1 0 0 1 2933.4 322)">Black</text>
  <line style="fill:none;stroke:black;opacity:1;stroke-width:0.5;" x1="263" x2="3036" y1="1903" y2="1903"/>
  <g transform="matrix(1 0 0 1 263 1933)">
   <path d="M9.24805 0.830078Q10.8691 0.830078 12.2949 0.214844Q13.7207-0.400391 14.8096-1.49414Q15.8984-2.58789 16.5186-4.01367Q17.1387-5.43945 17.1387-7.05078Q17.1387-8.66211 16.5186-10.0879Q15.8984-11.5137 14.8047-12.6074Q13.7109-13.7012 12.2852-14.3164Q10.8594-14.9316 9.23828-14.9316Q7.62695-14.9316 6.20117-14.3164Q4.77539-13.7012 3.69141-12.6074Q2.60742-11.5137 1.9873-10.0879Q1.36719-8.66211 1.36719-7.05078Q1.36719-5.43945 1.9873-4.01367Q2.60742-2.58789 3.69629-1.49414Q4.78516-0.400391 6.21094 0.214844Q7.63672 0.830078 9.24805 0.830078ZM9.24805-0.654297Q7.91992-0.654297 6.7627-1.14746Q5.60547-1.64062 4.73145-2.51953Q3.85742-3.39844 3.36426-4.56055Q2.87109-5.72266 2.87109-7.05078Q2.87109-8.37891 3.35938-9.54102Q3.84766-10.7031 4.72168-11.582Q5.5957-12.4609 6.75293-12.9541Q7.91016-13.4473 9.23828-13.4473Q10.5762-13.4473 11.7334-12.9541Q12.8906-12.4609 13.7695-11.582Q14.6484-10.7031 15.1465-9.54102Q15.6445-8.37891 15.6445-7.05078Q15.6445-5.72266 15.1514-4.56055Q14.6582-3.39844 13.7842-2.51953Q12.9102-1.64062 11.748-1.14746Q10.5859-0.654297 9.24805-0.654297ZM5.6543-7.05078Q5.6543-6.72852 5.85938-6.52832Q6.06445-6.32812 6.40625-6.32812L8.51562-6.32812L8.51562-4.20898Q8.51562-3.88672 8.71094-3.67676Q8.90625-3.4668 9.23828-3.4668Q9.56055-3.4668 9.77051-3.67676Q9.98047-3.88672 9.98047-4.20898L9.98047-6.32812L12.0898-6.32812Q12.4219-6.32812 12.627-6.52832Q12.832-6.72852 12.832-7.05078Q12.832-7.38281 12.627-7.58789Q12.4219-7.79297 12.0898-7.79297L9.98047-7.79297L9.98047-9.90234Q9.98047-10.2344 9.77051-10.4443Q9.56055-10.6543 9.23828-10.6543Q8.90625-10.6543 8.71094-10.4443Q8.51562-10.2344 8.51562-9.90234L8.51562-7.79297L6.40625-7.79297Q6.06445-7.79297 5.85938-7.58789Q5.6543-7.38281 5.6543-7.05078Z"/>
  </g>
  <g transform="matrix(1 0 0 1 281.867 1933)">
   <path d="M11.709 2.91016Q13.75 2.91016 15.5518 2.12891Q17.3535 1.34766 18.7305-0.0292969Q20.1074-1.40625 20.8887-3.20801Q21.6699-5.00977 21.6699-7.05078Q21.6699-9.0918 20.8887-10.8936Q20.1074-12.6953 18.7305-14.0723Q17.3535-15.4492 15.5469-16.2305Q13.7402-17.0117 11.6992-17.0117Q9.6582-17.0117 7.85645-16.2305Q6.05469-15.4492 4.68262-14.0723Q3.31055-12.6953 2.5293-10.8936Q1.74805-9.0918 1.74805-7.05078Q1.74805-5.00977 2.5293-3.20801Q3.31055-1.40625 4.6875-0.0292969Q6.06445 1.34766 7.86621 2.12891Q9.66797 2.91016 11.709 2.91016ZM11.709 1.25Q9.98047 1.25 8.47656 0.605469Q6.97266-0.0390625 5.83496-1.17676Q4.69727-2.31445 4.05762-3.81836Q3.41797-5.32227 3.41797-7.05078Q3.41797-8.7793 4.05762-10.2832Q4.69727-11.7871 5.83008-12.9297Q6.96289-14.0723 8.4668-14.7119Q9.9707-15.3516 11.6992-15.3516Q13.4277-15.3516 14.9316-14.7119Q16.4355-14.0723 17.5781-12.9297Q18.7207-11.7871 19.3652-10.2832Q20.0098-8.7793 20.0098-7.05078Q20.0098-5.32227 19.3701-3.81836Q18.7305-2.31445 17.5928-1.17676Q16.4551-0.0390625 14.9463 0.605469Q13.4375 1.25 11.709 1.25ZM7.17773-7.05078Q7.17773-6.69922 7.41211-6.47461Q7.64648-6.25 8.01758-6.25L10.8887-6.25L10.8887-3.36914Q10.8887-2.99805 11.1133-2.76855Q11.3379-2.53906 11.6895-2.53906Q12.0605-2.53906 12.29-2.76855Q12.5195-2.99805 12.5195-3.36914L12.5195-6.25L15.4004-6.25Q15.7715-6.25 16.001-6.47461Q16.2305-6.69922 16.2305-7.05078Q16.2305-7.42188 16.001-7.65137Q15.7715-7.88086 15.4004-7.88086L12.5195-7.88086L12.5195-10.752Q12.5195-11.1328 12.29-11.3623Q12.0605-11.5918 11.6895-11.5918Q11.3379-11.5918 11.1133-11.3574Q10.8887-11.123 10.8887-10.752L10.8887-7.88086L8.01758-7.88086Q7.63672-7.88086 7.40723-7.65137Q7.17773-7.42188 7.17773-7.05078Z"/>
  </g>
  <g transform="matrix(1 0 0 1 305.646 1933)">
   <path d="M14.9707 5.66406Q17.0605 5.66406 18.96 5.01465Q20.8594 4.36523 22.4512 3.19336Q24.043 2.02148 25.2197 0.429688Q26.3965-1.16211 27.0459-3.06641Q27.6953-4.9707 27.6953-7.05078Q27.6953-9.14062 27.0459-11.04Q26.3965-12.9395 25.2197-14.5312Q24.043-16.123 22.4512-17.2998Q20.8594-18.4766 18.9551-19.126Q17.0508-19.7754 14.9609-19.7754Q12.8711-19.7754 10.9717-19.126Q9.07227-18.4766 7.48535-17.2998Q5.89844-16.123 4.72168-14.5312Q3.54492-12.9395 2.90039-11.04Q2.25586-9.14062 2.25586-7.05078Q2.25586-4.9707 2.90527-3.06641Q3.55469-1.16211 4.72656 0.429688Q5.89844 2.02148 7.49023 3.19336Q9.08203 4.36523 10.9814 5.01465Q12.8809 5.66406 14.9707 5.66406ZM14.9707 3.84766Q13.1641 3.84766 11.5283 3.2959Q9.89258 2.74414 8.53516 1.74805Q7.17773 0.751953 6.17676-0.610352Q5.17578-1.97266 4.62891-3.6084Q4.08203-5.24414 4.08203-7.05078Q4.08203-8.86719 4.62891-10.5029Q5.17578-12.1387 6.17188-13.501Q7.16797-14.8633 8.52539-15.8594Q9.88281-16.8555 11.5186-17.4023Q13.1543-17.9492 14.9609-17.9492Q16.7773-17.9492 18.4131-17.4023Q20.0488-16.8555 21.4111-15.8594Q22.7734-14.8633 23.7695-13.501Q24.7656-12.1387 25.3174-10.5029Q25.8691-8.86719 25.8691-7.05078Q25.8789-5.24414 25.332-3.6084Q24.7852-1.97266 23.7842-0.610352Q22.7832 0.751953 21.4209 1.74805Q20.0586 2.74414 18.4229 3.2959Q16.7871 3.84766 14.9707 3.84766ZM9.19922-7.05078Q9.19922-6.66992 9.45801-6.4209Q9.7168-6.17188 10.1172-6.17188L14.0625-6.17188L14.0625-2.2168Q14.0625-1.81641 14.3115-1.55762Q14.5605-1.29883 14.9512-1.29883Q15.3516-1.29883 15.6104-1.55273Q15.8691-1.80664 15.8691-2.2168L15.8691-6.17188L19.8242-6.17188Q20.2246-6.17188 20.4785-6.4209Q20.7324-6.66992 20.7324-7.05078Q20.7324-7.46094 20.4785-7.71484Q20.2246-7.96875 19.8242-7.96875L15.8691-7.96875L15.8691-11.9141Q15.8691-12.3242 15.6104-12.583Q15.3516-12.8418 14.9512-12.8418Q14.5605-12.8418 14.3115-12.583Q14.0625-12.3242 14.0625-11.9141L14.0625-7.96875L10.1172-7.96875Q9.70703-7.96875 9.45312-7.71484Q9.19922-7.46094 9.19922-7.05078Z"/>
  </g>
  <text style="stroke:none;fill:black;font-family:sans-serif;font-size:13;font-weight:bold;" transform="matrix(1 0 0 1 263 1953)">Design Variations</text>
  <text style="stroke:none;fill:black;font-family:sans-serif;font-size:13;" transform="matrix(1 0 0 1 263 1971)">Symbols are supported in up to nine weights and three scales.</text>
  <text style="stroke:none;fill:black;font-family:sans-serif;font-size:13;" transform="matrix(1 0 0 1 263 1989)">For optimal layout with text and other symbols, vertically align</text>
  <text style="stroke:none;fill:black;font-family:sans-serif;font-size:13;" transform="matrix(1 0 0 1 263 2007)">symbols with the adjacent text.</text>
  <line style="fill:none;stroke:#00AEEF;stroke-width:0.5;opacity:1.0;" x1="776" x2="776" y1="1919" y2="1933"/>
  <g transform="matrix(1 0 0 1 776 1933)">
   <path d="M3.31055 0.15625Q3.70117 0.15625 3.91602-0.00976562Q4.13086-0.175781 4.26758-0.585938L5.52734-4.0332L11.2891-4.0332L12.5488-0.585938Q12.6855-0.175781 12.9004-0.00976562Q13.1152 0.15625 13.4961 0.15625Q13.8867 0.15625 14.1162-0.0585938Q14.3457-0.273438 14.3457-0.644531Q14.3457-0.869141 14.2383-1.17188L9.6582-13.3691Q9.48242-13.8184 9.17969-14.043Q8.87695-14.2676 8.4082-14.2676Q7.5-14.2676 7.17773-13.3789L2.59766-1.16211Q2.49023-0.859375 2.49023-0.634766Q2.49023-0.263672 2.70996-0.0537109Q2.92969 0.15625 3.31055 0.15625ZM6.00586-5.51758L8.37891-12.0898L8.42773-12.0898L10.8008-5.51758Z"/>
  </g>
  <line style="fill:none;stroke:#00AEEF;stroke-width:0.5;opacity:1.0;" x1="793.197" x2="793.197" y1="1919" y2="1933"/>
  <text style="stroke:none;fill:black;font-family:sans-serif;font-size:13;font-weight:bold;" transform="matrix(1 0 0 1 776 1953)">Margins</text>
  <text style="stroke:none;fill:black;font-family:sans-serif;font-size:13;" transform="matrix(1 0 0 1 776 1971)">Leading and trailing margins on the left and right side of each symbol</text>
  <text style="stroke:none;fill:black;font-family:sans-serif;font-size:13;" transform="matrix(1 0 0 1 776 1989)">can be adjusted by modifying the x-location of the margin guidelines.</text>
  <text style="stroke:none;fill:black;font-family:sans-serif;font-size:13;" transform="matrix(1 0 0 1 776 2007)">Modifications are automatically applied proportionally to all</text>
  <text style="stroke:none;fill:black;font-family:sans-serif;font-size:13;" transform="matrix(1 0 0 1 776 2025)">scales and weights.</text>
  <g transform="matrix(1 0 0 1 1289 1933)">
   <path d="M2.8418 1.86523L4.54102 3.57422Q5.18555 4.22852 5.90332 4.17969Q6.62109 4.13086 7.31445 3.35938L18.0078-8.42773L17.041-9.4043L6.42578 2.27539Q6.16211 2.57812 5.89355 2.61719Q5.625 2.65625 5.27344 2.30469L4.10156 1.14258Q3.75 0.791016 3.79395 0.522461Q3.83789 0.253906 4.14062-0.0195312L15.6152-10.8203L14.6387-11.7871L3.04688-0.898438Q2.30469-0.214844 2.25098 0.498047Q2.19727 1.21094 2.8418 1.86523ZM9.25781-16.3281Q8.94531-16.0254 8.90625-15.6348Q8.86719-15.2441 9.04297-14.9512Q9.21875-14.6777 9.55566-14.541Q9.89258-14.4043 10.3809-14.5215Q11.4746-14.7754 12.5977-14.7314Q13.7207-14.6875 14.7949-13.9844L14.209-12.5293Q13.9551-11.9043 14.0674-11.4404Q14.1797-10.9766 14.5801-10.5664L16.875-8.25195Q17.2363-7.88086 17.5781-7.82227Q17.9199-7.76367 18.3398-7.8418L19.4043-8.03711L20.0684-7.36328L20.0293-6.80664Q20-6.43555 20.1221-6.12305Q20.2441-5.81055 20.6055-5.44922L21.3672-4.70703Q21.7285-4.3457 22.1533-4.33105Q22.5781-4.31641 22.9297-4.66797L25.8398-7.58789Q26.1914-7.93945 26.1816-8.35449Q26.1719-8.76953 25.8105-9.13086L25.0391-9.89258Q24.6875-10.2539 24.3799-10.3857Q24.0723-10.5176 23.7109-10.4883L23.1348-10.4395L22.4902-11.0742L22.7344-12.1973Q22.832-12.6172 22.6953-12.9834Q22.5586-13.3496 22.1191-13.7891L19.9219-15.9766Q18.6719-17.2168 17.2607-17.8369Q15.8496-18.457 14.4189-18.4814Q12.9883-18.5059 11.665-17.959Q10.3418-17.4121 9.25781-16.3281ZM10.752-15.957Q11.6602-16.6211 12.7002-16.9043Q13.7402-17.1875 14.8047-17.085Q15.8691-16.9824 16.8701-16.5137Q17.8711-16.0449 18.7012-15.2051L21.1328-12.793Q21.3086-12.6172 21.3525-12.4512Q21.3965-12.2852 21.3379-12.0312L21.0156-10.5469L22.5195-9.0625L23.5059-9.12109Q23.6914-9.13086 23.7891-9.09668Q23.8867-9.0625 24.0332-8.91602L24.6094-8.33984L22.168-5.89844L21.5918-6.47461Q21.4453-6.62109 21.4062-6.71875Q21.3672-6.81641 21.377-7.01172L21.4453-7.98828L19.9512-9.47266L18.4277-9.21875Q18.1836-9.16992 18.042-9.2041Q17.9004-9.23828 17.7148-9.41406L15.7129-11.416Q15.5176-11.5918 15.4932-11.7529Q15.4688-11.9141 15.5859-12.1875L16.4648-14.2773Q15.293-15.3711 13.8281-15.791Q12.3633-16.2109 10.8398-15.7617Q10.7227-15.7324 10.6885-15.8057Q10.6543-15.8789 10.752-15.957Z"/>
  </g>
  <text style="stroke:none;fill:black;font-family:sans-serif;font-size:13;font-weight:bold;" transform="matrix(1 0 0 1 1289 1953)">Exporting</text>
  <text style="stroke:none;fill:black;font-family:sans-serif;font-size:13;" transform="matrix(1 0 0 1 1289 1971)">Symbols should be outlined when exporting to ensure the</text>
  <text style="stroke:none;fill:black;font-family:sans-serif;font-size:13;" transform="matrix(1 0 0 1 1289 1989)">design is preserved when submitting to Xcode.</text>
  <text id="template-version" style="stroke:none;fill:black;font-family:sans-serif;font-size:13;text-anchor:end;" transform="matrix(1 0 0 1 3036 1933)">Template v.3.0</text>
  <text style="stroke:none;fill:black;font-family:sans-serif;font-size:13;text-anchor:end;" transform="matrix(1 0 0 1 3036 1951)">Requires Xcode 13 or greater</text>
  <text id="descriptive-name" style="stroke:none;fill:black;font-family:sans-serif;font-size:13;text-anchor:end;" transform="matrix(1 0 0 1 3036 1969)">Generated from arrowtriangle.down.fill</text>
  <text style="stroke:none;fill:black;font-family:sans-serif;font-size:13;text-anchor:end;" transform="matrix(1 0 0 1 3036 1987)">Typeset at 100 points</text>
  <text style="stroke:none;fill:black;font-family:sans-serif;font-size:13;" transform="matrix(1 0 0 1 263 726)">Small</text>
  <text style="stroke:none;fill:black;font-family:sans-serif;font-size:13;" transform="matrix(1 0 0 1 263 1156)">Medium</text>
  <text style="stroke:none;fill:black;font-family:sans-serif;font-size:13;" transform="matrix(1 0 0 1 263 1586)">Large</text>
 </g>
 <g id="Guides">
  <g id="H-reference" style="fill:#27AAE1;stroke:none;" transform="matrix(1 0 0 1 339 696)">
   <path d="M0.993347 0L3.6377 0L29.3282-67.1326L30.0301-67.1326L30.0301-70.459L28.1227-70.459ZM11.6882-24.4797L46.9818-24.4797L46.2311-26.7288L12.4382-26.7288ZM55.1193 0L57.7637 0L30.6381-70.459L29.4327-70.459L29.4327-67.1326Z"/>
  </g>
  <line id="Baseline-S" style="fill:none;stroke:#27AAE1;opacity:1;stroke-width:0.5;" x1="263" x2="3036" y1="696" y2="696"/>
  <line id="Capline-S" style="fill:none;stroke:#27AAE1;opacity:1;stroke-width:0.5;" x1="263" x2="3036" y1="625.541" y2="625.541"/>
  <g id="H-reference" style="fill:#27AAE1;stroke:none;" transform="matrix(1 0 0 1 339 1126)">
   <path d="M0.993347 0L3.6377 0L29.3282-67.1326L30.0301-67.1326L30.0301-70.459L28.1227-70.459ZM11.6882-24.4797L46.9818-24.4797L46.2311-26.7288L12.4382-26.7288ZM55.1193 0L57.7637 0L30.6381-70.459L29.4327-70.459L29.4327-67.1326Z"/>
  </g>
  <line id="Baseline-M" style="fill:none;stroke:#27AAE1;opacity:1;stroke-width:0.5;" x1="263" x2="3036" y1="1126" y2="1126"/>
  <line id="Capline-M" style="fill:none;stroke:#27AAE1;opacity:1;stroke-width:0.5;" x1="263" x2="3036" y1="1055.54" y2="1055.54"/>
  <g id="H-reference" style="fill:#27AAE1;stroke:none;" transform="matrix(1 0 0 1 339 1556)">
   <path d="M0.993347 0L3.6377 0L29.3282-67.1326L30.0301-67.1326L30.0301-70.459L28.1227-70.459ZM11.6882-24.4797L46.9818-24.4797L46.2311-26.7288L12.4382-26.7288ZM55.1193 0L57.7637 0L30.6381-70.459L29.4327-70.459L29.4327-67.1326Z"/>
  </g>
  <line id="Baseline-L" style="fill:none;stroke:#27AAE1;opacity:1;stroke-width:0.5;" x1="263" x2="3036" y1="1556" y2="1556"/>
  <line id="Capline-L" style="fill:none;stroke:#27AAE1;opacity:1;stroke-width:0.5;" x1="263" x2="3036" y1="1485.54" y2="1485.54"/>
  <line id="left-margin-Ultralight-S" style="fill:none;stroke:#00AEEF;stroke-width:0.5;opacity:1.0;" x1="522.127" x2="522.127" y1="600.785" y2="720.121"/>
  <line id="right-margin-Ultralight-S" style="fill:none;stroke:#00AEEF;stroke-width:0.5;opacity:1.0;" x1="597.295" x2="597.295" y1="600.785" y2="720.121"/>
  <line id="left-margin-Thin-S" style="fill:none;stroke:#00AEEF;stroke-width:0.5;opacity:1.0;" x1="818.659" x2="818.659" y1="600.785" y2="720.121"/>
  <line id="right-margin-Thin-S" style="fill:none;stroke:#00AEEF;stroke-width:0.5;opacity:1.0;" x1="894.186" x2="894.186" y1="600.785" y2="720.121"/>
  <line id="left-margin-Light-S" style="fill:none;stroke:#00AEEF;stroke-width:0.5;opacity:1.0;" x1="1115.02" x2="1115.02" y1="600.785" y2="720.121"/>
  <line id="right-margin-Light-S" style="fill:none;stroke:#00AEEF;stroke-width:0.5;opacity:1.0;" x1="1191.25" x2="1191.25" y1="600.785" y2="720.121"/>
  <line id="left-margin-Regular-S" style="fill:none;stroke:#00AEEF;stroke-width:0.5;opacity:1.0;" x1="1411.47" x2="1411.47" y1="600.785" y2="720.121"/>
  <line id="right-margin-Regular-S" style="fill:none;stroke:#00AEEF;stroke-width:0.5;opacity:1.0;" x1="1488.22" x2="1488.22" y1="600.785" y2="720.121"/>
  <line id="left-margin-Medium-S" style="fill:none;stroke:#00AEEF;stroke-width:0.5;opacity:1.0;" x1="1707.97" x2="1707.97" y1="600.785" y2="720.121"/>
  <line id="right-margin-Medium-S" style="fill:none;stroke:#00AEEF;stroke-width:0.5;opacity:1.0;" x1="1785.14" x2="1785.14" y1="600.785" y2="720.121"/>
  <line id="left-margin-Semibold-S" style="fill:none;stroke:#00AEEF;stroke-width:0.5;opacity:1.0;" x1="2004.53" x2="2004.53" y1="600.785" y2="720.121"/>
  <line id="right-margin-Semibold-S" style="fill:none;stroke:#00AEEF;stroke-width:0.5;opacity:1.0;" x1="2082" x2="2082" y1="600.785" y2="720.121"/>
  <line id="left-margin-Bold-S" style="fill:none;stroke:#00AEEF;stroke-width:0.5;opacity:1.0;" x1="2301.04" x2="2301.04" y1="600.785" y2="720.121"/>
  <line id="right-margin-Bold-S" style="fill:none;stroke:#00AEEF;stroke-width:0.5;opacity:1.0;" x1="2378.92" x2="2378.92" y1="600.785" y2="720.121"/>
  <line id="left-margin-Heavy-S" style="fill:none;stroke:#00AEEF;stroke-width:0.5;opacity:1.0;" x1="2597.45" x2="2597.45" y1="600.785" y2="720.121"/>
  <line id="right-margin-Heavy-S" style="fill:none;stroke:#00AEEF;stroke-width:0.5;opacity:1.0;" x1="2675.93" x2="2675.93" y1="600.785" y2="720.121"/>
  <line id="left-margin-Black-S" style="fill:none;stroke:#00AEEF;stroke-width:0.5;opacity:1.0;" x1="2893.9" x2="2893.9" y1="600.785" y2="720.121"/>
  <line id="right-margin-Black-S" style="fill:none;stroke:#00AEEF;stroke-width:0.5;opacity:1.0;" x1="2972.9" x2="2972.9" y1="600.785" y2="720.121"/>
  <line id="left-margin-Ultralight-M" style="fill:none;stroke:#00AEEF;stroke-width:0.5;opacity:1.0;" x1="511.816" x2="511.816" y1="1030.79" y2="1150.12"/>
  <line id="right-margin-Ultralight-M" style="fill:none;stroke:#00AEEF;stroke-width:0.5;opacity:1.0;" x1="607.607" x2="607.607" y1="1030.79" y2="1150.12"/>
  <line id="left-margin-Thin-M" style="fill:none;stroke:#00AEEF;stroke-width:0.5;opacity:1.0;" x1="808.322" x2="808.322" y1="1030.79" y2="1150.12"/>
  <line id="right-margin-Thin-M" style="fill:none;stroke:#00AEEF;stroke-width:0.5;opacity:1.0;" x1="904.523" x2="904.523" y1="1030.79" y2="1150.12"/>
  <line id="left-margin-Light-M" style="fill:none;stroke:#00AEEF;stroke-width:0.5;opacity:1.0;" x1="1104.63" x2="1104.63" y1="1030.79" y2="1150.12"/>
  <line id="right-margin-Light-M" style="fill:none;stroke:#00AEEF;stroke-width:0.5;opacity:1.0;" x1="1201.63" x2="1201.63" y1="1030.79" y2="1150.12"/>
  <line id="left-margin-Regular-M" style="fill:none;stroke:#00AEEF;stroke-width:0.5;opacity:1.0;" x1="1401.04" x2="1401.04" y1="1030.79" y2="1150.12"/>
  <line id="right-margin-Regular-M" style="fill:none;stroke:#00AEEF;stroke-width:0.5;opacity:1.0;" x1="1498.65" x2="1498.65" y1="1030.79" y2="1150.12"/>
  <line id="left-margin-Medium-M" style="fill:none;stroke:#00AEEF;stroke-width:0.5;opacity:1.0;" x1="1697.48" x2="1697.48" y1="1030.79" y2="1150.12"/>
  <line id="right-margin-Medium-M" style="fill:none;stroke:#00AEEF;stroke-width:0.5;opacity:1.0;" x1="1795.63" x2="1795.63" y1="1030.79" y2="1150.12"/>
  <line id="left-margin-Semibold-M" style="fill:none;stroke:#00AEEF;stroke-width:0.5;opacity:1.0;" x1="1993.99" x2="1993.99" y1="1030.79" y2="1150.12"/>
  <line id="right-margin-Semibold-M" style="fill:none;stroke:#00AEEF;stroke-width:0.5;opacity:1.0;" x1="2092.54" x2="2092.54" y1="1030.79" y2="1150.12"/>
  <line id="left-margin-Bold-M" style="fill:none;stroke:#00AEEF;stroke-width:0.5;opacity:1.0;" x1="2290.43" x2="2290.43" y1="1030.79" y2="1150.12"/>
  <line id="right-margin-Bold-M" style="fill:none;stroke:#00AEEF;stroke-width:0.5;opacity:1.0;" x1="2389.53" x2="2389.53" y1="1030.79" y2="1150.12"/>
  <line id="left-margin-Heavy-M" style="fill:none;stroke:#00AEEF;stroke-width:0.5;opacity:1.0;" x1="2586.75" x2="2586.75" y1="1030.79" y2="1150.12"/>
  <line id="right-margin-Heavy-M" style="fill:none;stroke:#00AEEF;stroke-width:0.5;opacity:1.0;" x1="2686.63" x2="2686.63" y1="1030.79" y2="1150.12"/>
  <line id="left-margin-Black-M" style="fill:none;stroke:#00AEEF;stroke-width:0.5;opacity:1.0;" x1="2883.11" x2="2883.11" y1="1030.79" y2="1150.12"/>
  <line id="right-margin-Black-M" style="fill:none;stroke:#00AEEF;stroke-width:0.5;opacity:1.0;" x1="2983.69" x2="2983.69" y1="1030.79" y2="1150.12"/>
  <line id="left-margin-Ultralight-L" style="fill:none;stroke:#00AEEF;stroke-width:0.5;opacity:1.0;" x1="497.943" x2="497.943" y1="1460.79" y2="1580.12"/>
  <line id="right-margin-Ultralight-L" style="fill:none;stroke:#00AEEF;stroke-width:0.5;opacity:1.0;" x1="621.479" x2="621.479" y1="1460.79" y2="1580.12"/>
  <line id="left-margin-Thin-L" style="fill:none;stroke:#00AEEF;stroke-width:0.5;opacity:1.0;" x1="794.434" x2="794.434" y1="1460.79" y2="1580.12"/>
  <line id="right-margin-Thin-L" style="fill:none;stroke:#00AEEF;stroke-width:0.5;opacity:1.0;" x1="918.411" x2="918.411" y1="1460.79" y2="1580.12"/>
  <line id="left-margin-Light-L" style="fill:none;stroke:#00AEEF;stroke-width:0.5;opacity:1.0;" x1="1090.71" x2="1090.71" y1="1460.79" y2="1580.12"/>
  <line id="right-margin-Light-L" style="fill:none;stroke:#00AEEF;stroke-width:0.5;opacity:1.0;" x1="1215.55" x2="1215.55" y1="1460.79" y2="1580.12"/>
  <line id="left-margin-Regular-L" style="fill:none;stroke:#00AEEF;stroke-width:0.5;opacity:1.0;" x1="1387.1" x2="1387.1" y1="1460.79" y2="1580.12"/>
  <line id="right-margin-Regular-L" style="fill:none;stroke:#00AEEF;stroke-width:0.5;opacity:1.0;" x1="1512.59" x2="1512.59" y1="1460.79" y2="1580.12"/>
  <line id="left-margin-Medium-L" style="fill:none;stroke:#00AEEF;stroke-width:0.5;opacity:1.0;" x1="1683.48" x2="1683.48" y1="1460.79" y2="1580.12"/>
  <line id="right-margin-Medium-L" style="fill:none;stroke:#00AEEF;stroke-width:0.5;opacity:1.0;" x1="1809.63" x2="1809.63" y1="1460.79" y2="1580.12"/>
  <line id="left-margin-Semibold-L" style="fill:none;stroke:#00AEEF;stroke-width:0.5;opacity:1.0;" x1="1979.93" x2="1979.93" y1="1460.79" y2="1580.12"/>
  <line id="right-margin-Semibold-L" style="fill:none;stroke:#00AEEF;stroke-width:0.5;opacity:1.0;" x1="2106.6" x2="2106.6" y1="1460.79" y2="1580.12"/>
  <line id="left-margin-Bold-L" style="fill:none;stroke:#00AEEF;stroke-width:0.5;opacity:1.0;" x1="2276.31" x2="2276.31" y1="1460.79" y2="1580.12"/>
  <line id="right-margin-Bold-L" style="fill:none;stroke:#00AEEF;stroke-width:0.5;opacity:1.0;" x1="2403.65" x2="2403.65" y1="1460.79" y2="1580.12"/>
  <line id="left-margin-Heavy-L" style="fill:none;stroke:#00AEEF;stroke-width:0.5;opacity:1.0;" x1="2572.53" x2="2572.53" y1="1460.79" y2="1580.12"/>
  <line id="right-margin-Heavy-L" style="fill:none;stroke:#00AEEF;stroke-width:0.5;opacity:1.0;" x1="2700.85" x2="2700.85" y1="1460.79" y2="1580.12"/>
  <line id="left-margin-Black-L" style="fill:none;stroke:#00AEEF;stroke-width:0.5;opacity:1.0;" x1="2868.8" x2="2868.8" y1="1460.79" y2="1580.12"/>
  <line id="right-margin-Black-L" style="fill:none;stroke:#00AEEF;stroke-width:0.5;opacity:1.0;" x1="2998" x2="2998" y1="1460.79" y2="1580.12"/>
 </g>
 <g id="Symbols">
  <g id="Black-L" transform="matrix(1 0 0 1 2868.8 1556)">
   <path d="M116.309-76.1719Q116.309-81.0547 112.72-84.7656Q109.131-88.4766 102.734-88.4766L26.4648-88.4766Q20.0684-88.4766 16.4795-84.7656Q12.8906-81.0547 12.8906-76.1719Q12.8906-73.7793 13.7451-71.5088Q14.5996-69.2383 16.1133-66.1133L51.4648 7.95898Q53.8086 12.8418 57.0801 15.3809Q60.3516 17.9199 64.5996 17.9199Q68.8477 17.9199 72.1191 15.3809Q75.3906 12.8418 77.6855 7.95898L113.086-66.1133Q114.6-69.1895 115.454-71.4844Q116.309-73.7793 116.309-76.1719Z"/>
  </g>
  <g id="Heavy-L" transform="matrix(1 0 0 1 2572.53 1556)">
   <path d="M115.433-76.9783Q115.433-81.4468 112.172-84.7198Q108.912-87.9929 103.138-87.9929L25.1968-88.0043Q19.4229-88.0043 16.1568-84.7313Q12.8906-81.4583 12.8906-76.9897Q12.8906-74.7589 13.6932-72.6727Q14.4958-70.5864 15.8714-67.7612L52.3407 8.38547Q54.5464 12.957 57.4604 15.2195Q60.3745 17.482 64.1617 17.482Q67.9489 17.482 70.8687 15.2195Q73.7885 12.957 75.9453 8.38547L112.463-67.7612Q113.828-70.5376 114.63-72.6425Q115.433-74.7475 115.433-76.9783Z"/>
  </g>
  <g id="Bold-L" transform="matrix(1 0 0 1 2276.31 1556)">
   <path d="M114.453-77.8809Q114.453-81.8848 111.56-84.668Q108.667-87.4512 103.589-87.4512L23.7793-87.4756Q18.7012-87.4756 15.7959-84.6924Q12.8906-81.9092 12.8906-77.9053Q12.8906-75.8545 13.6353-73.9746Q14.3799-72.0947 15.6006-69.6045L53.3203 8.8623Q55.3711 13.0859 57.8857 15.0391Q60.4004 16.9922 63.6719 16.9922Q66.9434 16.9922 69.4702 15.0391Q71.9971 13.0859 73.999 8.8623L111.768-69.6045Q112.964-72.0459 113.708-73.938Q114.453-75.8301 114.453-77.8809Z"/>
  </g>
  <g id="Semibold-L" transform="matrix(1 0 0 1 1979.93 1556)">
   <path d="M113.778-78.5027Q113.778-82.1869 111.138-84.6325Q108.498-87.0781 103.9-87.0781L22.802-87.1109Q18.2037-87.1109 15.5472-84.6657Q12.8906-82.2205 12.8906-78.5362Q12.8906-76.6098 13.5952-74.8722Q14.2998-73.1346 15.4137-70.8755L53.9955 9.19113Q55.9402 13.1744 58.1791 14.9143Q60.4179 16.6542 63.3339 16.6542Q66.2498 16.6542 68.5059 14.9143Q70.7619 13.1744 72.657 9.19113L111.288-70.8755Q112.369-73.0858 113.073-74.831Q113.778-76.5762 113.778-78.5027Z"/>
  </g>
  <g id="Medium-L" transform="matrix(1 0 0 1 1683.48 1556)">
   <path d="M113.265-78.9749Q113.265-82.4158 110.818-84.6054Q108.37-86.795 104.136-86.795L22.0604-86.8347Q17.8261-86.8347 15.3584-84.6455Q12.8906-82.4562 12.8906-79.0146Q12.8906-77.1828 13.5651-75.5527Q14.2395-73.9227 15.2725-71.8391L54.5082 9.44061Q56.3713 13.2423 58.4015 14.8205Q60.4317 16.3986 63.0783 16.3986Q65.7249 16.3986 67.775 14.8205Q69.825 13.2423 71.6393 9.44061L110.924-71.8391Q111.917-73.8739 112.591-75.5081Q113.265-77.1423 113.265-78.9749Z"/>
  </g>
  <g id="Regular-L" transform="matrix(1 0 0 1 1387.1 1556)">
   <path d="M112.598-79.5898Q112.598-82.7148 110.4-84.5703Q108.203-86.4258 104.443-86.4258L21.0938-86.4746Q17.334-86.4746 15.1123-84.6191Q12.8906-82.7637 12.8906-79.6387Q12.8906-77.9297 13.5254-76.4404Q14.1602-74.9512 15.0879-73.0957L55.1758 9.76562Q56.9336 13.3301 58.6914 14.6973Q60.4492 16.0645 62.7441 16.0645Q65.0391 16.0645 66.8213 14.6973Q68.6035 13.3301 70.3125 9.76562L110.449-73.0957Q111.328-74.9023 111.963-76.3916Q112.598-77.8809 112.598-79.5898Z"/>
  </g>
  <g id="Light-L" transform="matrix(1 0 0 1 1090.71 1556)">
   <path d="M111.947-80.3925Q111.947-83.078 110.075-84.6764Q108.203-86.2747 104.943-86.2747L19.928-86.3083Q16.6679-86.3083 14.7793-84.7099Q12.8906-83.1116 12.8906-80.426Q12.8906-79.0047 13.4117-77.7649Q13.9328-76.5251 14.7552-74.897L55.9929 10.6438Q57.4181 13.4964 58.9184 14.6973Q60.4187 15.8981 62.4115 15.8981Q64.4188 15.8981 65.9359 14.6973Q67.453 13.4964 68.8446 10.6438L110.117-74.897Q110.889-76.4915 111.418-77.7309Q111.947-78.9703 111.947-80.3925Z"/>
  </g>
  <g id="Thin-L" transform="matrix(1 0 0 1 794.434 1556)">
   <path d="M111.086-81.4529Q111.086-83.5587 109.645-84.8164Q108.203-86.0741 105.604-86.0741L18.3868-86.0878Q15.7875-86.0878 14.3391-84.8301Q12.8906-83.5724 12.8906-81.4667Q12.8906-80.426 13.2618-79.5166Q13.633-78.6072 14.3143-77.2789L57.074 11.805Q58.0589 13.7169 59.219 14.6973Q60.379 15.6776 61.9705 15.6776Q63.5979 15.6776 64.7648 14.6973Q65.9317 13.7169 66.9022 11.805L109.676-77.2789Q110.309-78.5934 110.698-79.5029Q111.086-80.4123 111.086-81.4529Z"/>
  </g>
  <g id="Ultralight-L" transform="matrix(1 0 0 1 497.943 1556)">
   <path d="M110.645-81.9969Q110.645-83.8043 109.424-84.8881Q108.203-85.9718 105.942-85.9718L17.5972-85.9749Q15.3358-85.9749 14.1132-84.8915Q12.8906-83.8081 12.8906-82Q12.8906-81.1539 13.1847-80.4138Q13.4789-79.6738 14.0892-78.4996L57.6279 12.3993Q58.387 13.8298 59.3727 14.6973Q60.3584 15.5647 61.7455 15.5647Q63.1775 15.5647 64.1651 14.6973Q65.1527 13.8298 65.9081 12.3993L109.451-78.4996Q110.011-79.6707 110.328-80.4104Q110.645-81.1501 110.645-81.9969Z"/>
  </g>
  <g id="Black-M" transform="matrix(1 0 0 1 2883.11 1126)">
   <path d="M90.625-66.5527Q90.625-70.5078 87.6953-73.6816Q84.7656-76.8555 79.3945-76.8555L21.1914-76.8555Q15.8203-76.8555 12.8906-73.6816Q9.96094-70.5078 9.96094-66.5527Q9.96094-64.6484 10.6445-62.793Q11.3281-60.9375 12.5488-58.3496L39.4043-1.80664Q41.2109 2.00195 43.9453 4.15039Q46.6797 6.29883 50.293 6.29883Q53.9062 6.29883 56.6406 4.15039Q59.375 2.00195 61.1816-1.80664L88.0371-58.3496Q89.2578-60.9375 89.9414-62.793Q90.625-64.6484 90.625-66.5527Z"/>
  </g>
  <g id="Heavy-M" transform="matrix(1 0 0 1 2586.75 1126)">
   <path d="M89.9223-67.1638Q89.9223-70.8191 87.2345-73.6183Q84.5467-76.4175 79.6829-76.4175L20.1889-76.429Q15.3366-76.429 12.6488-73.6298Q9.96094-70.8305 9.96094-67.1753Q9.96094-65.3748 10.6155-63.6517Q11.2701-61.9286 12.3756-59.5825L40.0841-1.57623Q41.8221 2.07138 44.2738 3.98903Q46.7255 5.90668 49.9359 5.90668Q53.157 5.90668 55.6034 3.98903Q58.0498 2.07138 59.7984-1.57623L87.4954-59.5825Q88.6124-61.9171 89.2673-63.6402Q89.9223-65.3633 89.9223-67.1638Z"/>
  </g>
  <g id="Bold-M" transform="matrix(1 0 0 1 2290.43 1126)">
   <path d="M89.1357-67.8467Q89.1357-71.167 86.7188-73.5474Q84.3018-75.9277 80.0049-75.9277L19.0674-75.9521Q14.7949-75.9521 12.3779-73.5718Q9.96094-71.1914 9.96094-67.8711Q9.96094-66.1865 10.5835-64.6118Q11.2061-63.0371 12.1826-60.9619L40.8447-1.31836Q42.5049 2.14844 44.6411 3.80859Q46.7773 5.46875 49.5361 5.46875Q52.3193 5.46875 54.4434 3.80859Q56.5674 2.14844 58.252-1.31836L86.8896-60.9619Q87.8906-63.0127 88.5132-64.5874Q89.1357-66.1621 89.1357-67.8467Z"/>
  </g>
  <g id="Semibold-M" transform="matrix(1 0 0 1 1993.99 1126)">
   <path d="M88.5933-68.3174Q88.5933-71.4073 86.3632-73.4985Q84.1331-75.5898 80.2269-75.5898L18.2945-75.6233Q14.4218-75.6233 12.1914-73.5317Q9.96094-71.4401 9.96094-68.351Q9.96094-66.7465 10.5614-65.274Q11.1618-63.8016 12.0491-61.9125L41.3689-1.14059Q42.9756 2.20184 44.8944 3.68423Q46.8132 5.16663 49.2607 5.16663Q51.7418 5.16663 53.6434 3.68423Q55.545 2.20184 57.1854-1.14059L86.4723-61.9125Q87.3932-63.768 87.9932-65.2405Q88.5933-66.713 88.5933-68.3174Z"/>
  </g>
  <g id="Medium-M" transform="matrix(1 0 0 1 1697.48 1126)">
   <path d="M88.1828-68.6745Q88.1828-71.5889 86.0939-73.4615Q84.005-75.3342 80.3955-75.3342L17.7078-75.3738Q14.1388-75.3738 12.0499-73.5012Q9.96094-71.6286 9.96094-68.7149Q9.96094-67.1707 10.5446-65.7757Q11.1282-64.3806 11.9484-62.6335L41.7664-1.00555Q43.3327 2.24228 45.0863 3.59001Q46.8399 4.93774 49.0517 4.93774Q51.3039 4.93774 53.0373 3.59001Q54.7707 2.24228 56.3766-1.00555L86.1549-62.6335Q87.0155-64.341 87.5992-65.736Q88.1828-67.131 88.1828-68.6745Z"/>
  </g>
  <g id="Regular-M" transform="matrix(1 0 0 1 1401.04 1126)">
   <path d="M87.6465-69.1406Q87.6465-71.8262 85.7422-73.4131Q83.8379-75 80.6152-75L16.9434-75.0488Q13.7695-75.0488 11.8652-73.4619Q9.96094-71.875 9.96094-69.1895Q9.96094-67.7246 10.5225-66.4307Q11.084-65.1367 11.8164-63.5742L42.2852-0.830078Q43.7988 2.29492 45.3369 3.4668Q46.875 4.63867 48.7793 4.63867Q50.7324 4.63867 52.2461 3.4668Q53.7598 2.29492 55.3223-0.830078L85.7422-63.5742Q86.5234-65.0879 87.085-66.3818Q87.6465-67.6758 87.6465-69.1406Z"/>
  </g>
  <g id="Light-M" transform="matrix(1 0 0 1 1104.63 1126)">
   <path d="M87.0407-69.8669Q87.0407-72.1443 85.4393-73.5039Q83.8379-74.8634 81.0692-74.8634L15.8989-74.8978Q13.179-74.8978 11.57-73.5378Q9.96094-72.1779 9.96094-69.9005Q9.96094-68.6783 10.424-67.6113Q10.8871-66.5443 11.5288-65.1787L43.0115-0.0579834Q44.2375 2.44598 45.5334 3.4668Q46.8292 4.48761 48.4917 4.48761Q50.1724 4.48761 51.4515 3.4668Q52.7306 2.44598 53.9902-0.0579834L85.4546-65.1787Q86.1298-66.5108 86.5852-67.5777Q87.0407-68.6447 87.0407-69.8669Z"/>
  </g>
  <g id="Thin-M" transform="matrix(1 0 0 1 808.322 1126)">
   <path d="M86.2404-70.8282Q86.2404-72.5647 85.0391-73.624Q83.8379-74.6834 81.6696-74.6834L14.518-74.6971Q12.3985-74.6971 11.1797-73.6378Q9.96094-72.5784 9.96094-70.842Q9.96094-69.9394 10.294-69.1727Q10.627-68.4059 11.1488-67.3004L43.9728 0.96283Q44.8181 2.64664 45.7939 3.4668Q46.7697 4.28696 48.1117 4.28696Q49.4316 4.28696 50.4005 3.4668Q51.3695 2.64664 52.2285 0.96283L85.0746-67.3004Q85.6094-68.3922 85.9249-69.1589Q86.2404-69.9257 86.2404-70.8282Z"/>
  </g>
  <g id="Ultralight-M" transform="matrix(1 0 0 1 511.816 1126)">
   <path d="M85.8299-71.3203Q85.8299-72.7798 84.8339-73.6855Q83.8379-74.5911 81.9778-74.5911L13.81-74.5949Q11.9987-74.5949 10.9798-73.6889Q9.96094-72.7829 9.96094-71.3234Q9.96094-70.5856 10.2272-69.9726Q10.4935-69.3596 10.9535-68.3876L44.4649 1.48544Q45.1157 2.74887 45.927 3.4668Q46.7384 4.18472 47.9164 4.18472Q49.0524 4.18472 49.8623 3.4668Q50.6721 2.74887 51.326 1.48544L84.8793-68.3876Q85.3424-69.3565 85.5862-69.9692Q85.8299-70.5818 85.8299-71.3203Z"/>
  </g>
  <g id="Black-S" transform="matrix(1 0 0 1 2893.9 696)">
   <path d="M71.1914-59.6191Q71.1914-62.793 68.8477-65.3809Q66.5039-67.9688 62.1582-67.9688L16.8457-67.9688Q12.5488-67.9688 10.1807-65.3809Q7.8125-62.793 7.8125-59.6191Q7.8125-58.1055 8.34961-56.6406Q8.88672-55.1758 9.86328-53.0762L30.7129-9.08203Q32.1289-6.10352 34.3506-4.3457Q36.5723-2.58789 39.502-2.58789Q42.4316-2.58789 44.6533-4.3457Q46.875-6.10352 48.291-9.08203L69.1406-53.0762Q70.1172-55.1758 70.6543-56.6406Q71.1914-58.1055 71.1914-59.6191Z"/>
  </g>
  <g id="Heavy-S" transform="matrix(1 0 0 1 2597.45 696)">
   <path d="M70.6612-60.0456Q70.6612-63.0234 68.4845-65.3175Q66.3078-67.6117 62.3428-67.6117L16.1308-67.6231Q12.2032-67.6231 10.0079-65.329Q7.8125-63.0348 7.8125-60.0571Q7.8125-58.6014 8.33817-57.217Q8.86383-55.8327 9.75952-53.9177L31.1966-8.98972Q32.6012-6.05774 34.6039-4.47845Q36.6066-2.89917 39.2372-2.89917Q41.8671-2.89917 43.8698-4.47845Q45.8725-6.05774 47.2771-8.98972L68.7141-53.9177Q69.6098-55.8327 70.1355-57.2109Q70.6612-58.5892 70.6612-60.0456Z"/>
  </g>
  <g id="Bold-S" transform="matrix(1 0 0 1 2301.04 696)">
   <path d="M70.0684-60.5225Q70.0684-63.2812 68.0786-65.2466Q66.0889-67.2119 62.5488-67.2119L15.332-67.2363Q11.8164-67.2363 9.81445-65.271Q7.8125-63.3057 7.8125-60.5469Q7.8125-59.1553 8.3252-57.8613Q8.83789-56.5674 9.64355-54.8584L31.7383-8.88672Q33.1299-6.00586 34.8877-4.62646Q36.6455-3.24707 38.9404-3.24707Q41.2354-3.24707 42.9932-4.62646Q44.751-6.00586 46.1426-8.88672L68.2373-54.8584Q69.043-56.5674 69.5557-57.8491Q70.0684-59.1309 70.0684-60.5225Z"/>
  </g>
  <g id="Semibold-S" transform="matrix(1 0 0 1 2004.53 696)">
   <path d="M69.6594-60.8513Q69.6594-63.459 67.7986-65.1978Q65.9378-66.9365 62.6907-66.9365L14.7812-66.9701Q11.5501-66.9701 9.68132-65.2313Q7.8125-63.4926 7.8125-60.8849Q7.8125-59.5375 8.31642-58.3057Q8.82034-57.074 9.56345-55.5069L32.1114-8.81577Q33.4946-5.97 35.0834-4.7287Q36.6722-3.4874 38.736-3.4874Q40.7997-3.4874 42.3889-4.7287Q43.9781-5.97 45.3606-8.81577L67.9085-55.5069Q68.6516-57.074 69.1555-58.289Q69.6594-59.5039 69.6594-60.8513Z"/>
  </g>
  <g id="Medium-S" transform="matrix(1 0 0 1 1707.97 696)">
   <path d="M69.3497-61.1008Q69.3497-63.5941 67.5865-65.1608Q65.8234-66.7274 62.7991-66.7274L14.3631-66.7679Q11.348-66.7679 9.58023-65.2008Q7.8125-63.6337 7.8125-61.1404Q7.8125-59.8274 8.30956-58.6426Q8.80661-57.4577 9.50317-55.999L32.3944-8.7616Q33.7708-5.9433 35.2314-4.80614Q36.692-3.66898 38.5811-3.66898Q40.4694-3.66898 41.9304-4.80614Q43.3914-5.9433 44.7678-8.7616L67.659-55.999Q68.3556-57.4577 68.8526-58.6224Q69.3497-59.787 69.3497-61.1008Z"/>
  </g>
  <g id="Regular-S" transform="matrix(1 0 0 1 1411.47 696)">
   <path d="M68.9453-61.4258Q68.9453-63.7695 67.3096-65.1123Q65.6738-66.4551 62.9395-66.4551L13.8184-66.5039Q11.084-66.5039 9.44824-65.1611Q7.8125-63.8184 7.8125-61.4746Q7.8125-60.2051 8.30078-59.082Q8.78906-57.959 9.42383-56.6406L32.7637-8.69141Q34.1309-5.9082 35.4248-4.90723Q36.7188-3.90625 38.3789-3.90625Q40.0391-3.90625 41.333-4.90723Q42.627-5.9082 43.9941-8.69141L67.334-56.6406Q67.9688-57.959 68.457-59.0576Q68.9453-60.1562 68.9453-61.4258Z"/>
  </g>
  <g id="Light-S" transform="matrix(1 0 0 1 1115.02 696)">
   <path d="M68.4158-62.0766Q68.4158-64.0419 67.0448-65.1878Q65.6738-66.3338 63.3484-66.3338L12.8952-66.3673Q10.5545-66.3673 9.1835-65.2214Q7.8125-64.0755 7.8125-62.1101Q7.8125-61.0527 8.20999-60.1341Q8.60748-59.2155 9.16672-58.0635L33.4145-7.99484Q34.5093-5.77164 35.5988-4.90723Q36.6882-4.04282 38.1218-4.04282Q39.5393-4.04282 40.6292-4.90723Q41.7191-5.77164 42.8131-7.99484L67.0769-58.0635Q67.6208-59.2155 68.0183-60.1173Q68.4158-61.0191 68.4158-62.0766Z"/>
  </g>
  <g id="Thin-S" transform="matrix(1 0 0 1 818.659 696)">
   <path d="M67.7147-62.9372Q67.7147-64.402 66.6943-65.2878Q65.6738-66.1736 63.8885-66.1736L11.6737-66.1873Q9.85336-66.1873 8.83293-65.3015Q7.8125-64.4157 7.8125-62.9509Q7.8125-62.1735 8.08983-61.525Q8.36716-60.8765 8.82645-59.9449L34.2751-7.07397Q35.0098-5.59158 35.8292-4.90723Q36.6486-4.22287 37.7815-4.22287Q38.8786-4.22287 39.698-4.90723Q40.5174-5.59158 41.2521-7.07397L66.7366-59.9449Q67.16-60.8765 67.4374-61.5181Q67.7147-62.1597 67.7147-62.9372Z"/>
  </g>
  <g id="Ultralight-S" transform="matrix(1 0 0 1 522.127 696)">
   <path d="M67.3561-63.3781Q67.3561-64.5866 66.515-65.3393Q65.6738-66.0919 64.1655-66.0919L11.0481-66.095Q9.49478-66.095 8.65364-65.3427Q7.8125-64.5905 7.8125-63.382Q7.8125-62.748 8.02841-62.2379Q8.24432-61.7279 8.65173-60.9093L34.716-6.60248Q35.2661-5.49927 35.947-4.90723Q36.628-4.31519 37.6068-4.31519Q38.5406-4.31519 39.2216-4.90723Q39.9025-5.49927 40.4518-6.60248L66.5619-60.9093Q66.9243-61.7279 67.1402-62.2364Q67.3561-62.7449 67.3561-63.3781Z"/>
  </g>
 </g>
</svg>
