<?xml version="1.0" encoding="UTF-8"?>
<!--Generator: Apple Native CoreSVG 175-->
<!DOCTYPE svg
PUBLIC "-//W3C//DTD SVG 1.1//EN"
       "http://www.w3.org/Graphics/SVG/1.1/DTD/svg11.dtd">
<svg version="1.1" xmlns="http://www.w3.org/2000/svg" xmlns:xlink="http://www.w3.org/1999/xlink" width="3300" height="2200">
 <!--glyph: "uni100127.medium", point size: 100.0, font version: "17.0d11e1", template writer version: "65.1"-->
 <g id="Notes">
  <rect height="2200" id="artboard" style="fill:white;opacity:1" width="3300" x="0" y="0"/>
  <line style="fill:none;stroke:black;opacity:1;stroke-width:0.5;" x1="263" x2="3036" y1="292" y2="292"/>
  <text style="stroke:none;fill:black;font-family:sans-serif;font-size:13;font-weight:bold;" transform="matrix(1 0 0 1 263 322)">Weight/Scale Variations</text>
  <text style="stroke:none;fill:black;font-family:sans-serif;font-size:13;text-anchor:middle;" transform="matrix(1 0 0 1 559.711 322)">Ultralight</text>
  <text style="stroke:none;fill:black;font-family:sans-serif;font-size:13;text-anchor:middle;" transform="matrix(1 0 0 1 856.422 322)">Thin</text>
  <text style="stroke:none;fill:black;font-family:sans-serif;font-size:13;text-anchor:middle;" transform="matrix(1 0 0 1 1153.13 322)">Light</text>
  <text style="stroke:none;fill:black;font-family:sans-serif;font-size:13;text-anchor:middle;" transform="matrix(1 0 0 1 1449.84 322)">Regular</text>
  <text style="stroke:none;fill:black;font-family:sans-serif;font-size:13;text-anchor:middle;" transform="matrix(1 0 0 1 1746.56 322)">Medium</text>
  <text style="stroke:none;fill:black;font-family:sans-serif;font-size:13;text-anchor:middle;" transform="matrix(1 0 0 1 2043.27 322)">Semibold</text>
  <text style="stroke:none;fill:black;font-family:sans-serif;font-size:13;text-anchor:middle;" transform="matrix(1 0 0 1 2339.98 322)">Bold</text>
  <text style="stroke:none;fill:black;font-family:sans-serif;font-size:13;text-anchor:middle;" transform="matrix(1 0 0 1 2636.69 322)">Heavy</text>
  <text style="stroke:none;fill:black;font-family:sans-serif;font-size:13;text-anchor:middle;" transform="matrix(1 0 0 1 2933.4 322)">Black</text>
  <line style="fill:none;stroke:black;opacity:1;stroke-width:0.5;" x1="263" x2="3036" y1="1903" y2="1903"/>
  <g transform="matrix(1 0 0 1 263 1933)">
   <path d="M9.24805 0.830078Q10.8691 0.830078 12.2949 0.214844Q13.7207-0.400391 14.8096-1.49414Q15.8984-2.58789 16.5186-4.01367Q17.1387-5.43945 17.1387-7.05078Q17.1387-8.66211 16.5186-10.0879Q15.8984-11.5137 14.8047-12.6074Q13.7109-13.7012 12.2852-14.3164Q10.8594-14.9316 9.23828-14.9316Q7.62695-14.9316 6.20117-14.3164Q4.77539-13.7012 3.69141-12.6074Q2.60742-11.5137 1.9873-10.0879Q1.36719-8.66211 1.36719-7.05078Q1.36719-5.43945 1.9873-4.01367Q2.60742-2.58789 3.69629-1.49414Q4.78516-0.400391 6.21094 0.214844Q7.63672 0.830078 9.24805 0.830078ZM9.24805-0.654297Q7.91992-0.654297 6.7627-1.14746Q5.60547-1.64062 4.73145-2.51953Q3.85742-3.39844 3.36426-4.56055Q2.87109-5.72266 2.87109-7.05078Q2.87109-8.37891 3.35938-9.54102Q3.84766-10.7031 4.72168-11.582Q5.5957-12.4609 6.75293-12.9541Q7.91016-13.4473 9.23828-13.4473Q10.5762-13.4473 11.7334-12.9541Q12.8906-12.4609 13.7695-11.582Q14.6484-10.7031 15.1465-9.54102Q15.6445-8.37891 15.6445-7.05078Q15.6445-5.72266 15.1514-4.56055Q14.6582-3.39844 13.7842-2.51953Q12.9102-1.64062 11.748-1.14746Q10.5859-0.654297 9.24805-0.654297ZM5.6543-7.05078Q5.6543-6.72852 5.85938-6.52832Q6.06445-6.32812 6.40625-6.32812L8.51562-6.32812L8.51562-4.20898Q8.51562-3.88672 8.71094-3.67676Q8.90625-3.4668 9.23828-3.4668Q9.56055-3.4668 9.77051-3.67676Q9.98047-3.88672 9.98047-4.20898L9.98047-6.32812L12.0898-6.32812Q12.4219-6.32812 12.627-6.52832Q12.832-6.72852 12.832-7.05078Q12.832-7.38281 12.627-7.58789Q12.4219-7.79297 12.0898-7.79297L9.98047-7.79297L9.98047-9.90234Q9.98047-10.2344 9.77051-10.4443Q9.56055-10.6543 9.23828-10.6543Q8.90625-10.6543 8.71094-10.4443Q8.51562-10.2344 8.51562-9.90234L8.51562-7.79297L6.40625-7.79297Q6.06445-7.79297 5.85938-7.58789Q5.6543-7.38281 5.6543-7.05078Z"/>
  </g>
  <g transform="matrix(1 0 0 1 281.867 1933)">
   <path d="M11.709 2.91016Q13.75 2.91016 15.5518 2.12891Q17.3535 1.34766 18.7305-0.0292969Q20.1074-1.40625 20.8887-3.20801Q21.6699-5.00977 21.6699-7.05078Q21.6699-9.0918 20.8887-10.8936Q20.1074-12.6953 18.7305-14.0723Q17.3535-15.4492 15.5469-16.2305Q13.7402-17.0117 11.6992-17.0117Q9.6582-17.0117 7.85645-16.2305Q6.05469-15.4492 4.68262-14.0723Q3.31055-12.6953 2.5293-10.8936Q1.74805-9.0918 1.74805-7.05078Q1.74805-5.00977 2.5293-3.20801Q3.31055-1.40625 4.6875-0.0292969Q6.06445 1.34766 7.86621 2.12891Q9.66797 2.91016 11.709 2.91016ZM11.709 1.25Q9.98047 1.25 8.47656 0.605469Q6.97266-0.0390625 5.83496-1.17676Q4.69727-2.31445 4.05762-3.81836Q3.41797-5.32227 3.41797-7.05078Q3.41797-8.7793 4.05762-10.2832Q4.69727-11.7871 5.83008-12.9297Q6.96289-14.0723 8.4668-14.7119Q9.9707-15.3516 11.6992-15.3516Q13.4277-15.3516 14.9316-14.7119Q16.4355-14.0723 17.5781-12.9297Q18.7207-11.7871 19.3652-10.2832Q20.0098-8.7793 20.0098-7.05078Q20.0098-5.32227 19.3701-3.81836Q18.7305-2.31445 17.5928-1.17676Q16.4551-0.0390625 14.9463 0.605469Q13.4375 1.25 11.709 1.25ZM7.17773-7.05078Q7.17773-6.69922 7.41211-6.47461Q7.64648-6.25 8.01758-6.25L10.8887-6.25L10.8887-3.36914Q10.8887-2.99805 11.1133-2.76855Q11.3379-2.53906 11.6895-2.53906Q12.0605-2.53906 12.29-2.76855Q12.5195-2.99805 12.5195-3.36914L12.5195-6.25L15.4004-6.25Q15.7715-6.25 16.001-6.47461Q16.2305-6.69922 16.2305-7.05078Q16.2305-7.42188 16.001-7.65137Q15.7715-7.88086 15.4004-7.88086L12.5195-7.88086L12.5195-10.752Q12.5195-11.1328 12.29-11.3623Q12.0605-11.5918 11.6895-11.5918Q11.3379-11.5918 11.1133-11.3574Q10.8887-11.123 10.8887-10.752L10.8887-7.88086L8.01758-7.88086Q7.63672-7.88086 7.40723-7.65137Q7.17773-7.42188 7.17773-7.05078Z"/>
  </g>
  <g transform="matrix(1 0 0 1 305.646 1933)">
   <path d="M14.9707 5.66406Q17.0605 5.66406 18.96 5.01465Q20.8594 4.36523 22.4512 3.19336Q24.043 2.02148 25.2197 0.429688Q26.3965-1.16211 27.0459-3.06641Q27.6953-4.9707 27.6953-7.05078Q27.6953-9.14062 27.0459-11.04Q26.3965-12.9395 25.2197-14.5312Q24.043-16.123 22.4512-17.2998Q20.8594-18.4766 18.9551-19.126Q17.0508-19.7754 14.9609-19.7754Q12.8711-19.7754 10.9717-19.126Q9.07227-18.4766 7.48535-17.2998Q5.89844-16.123 4.72168-14.5312Q3.54492-12.9395 2.90039-11.04Q2.25586-9.14062 2.25586-7.05078Q2.25586-4.9707 2.90527-3.06641Q3.55469-1.16211 4.72656 0.429688Q5.89844 2.02148 7.49023 3.19336Q9.08203 4.36523 10.9814 5.01465Q12.8809 5.66406 14.9707 5.66406ZM14.9707 3.84766Q13.1641 3.84766 11.5283 3.2959Q9.89258 2.74414 8.53516 1.74805Q7.17773 0.751953 6.17676-0.610352Q5.17578-1.97266 4.62891-3.6084Q4.08203-5.24414 4.08203-7.05078Q4.08203-8.86719 4.62891-10.5029Q5.17578-12.1387 6.17188-13.501Q7.16797-14.8633 8.52539-15.8594Q9.88281-16.8555 11.5186-17.4023Q13.1543-17.9492 14.9609-17.9492Q16.7773-17.9492 18.4131-17.4023Q20.0488-16.8555 21.4111-15.8594Q22.7734-14.8633 23.7695-13.501Q24.7656-12.1387 25.3174-10.5029Q25.8691-8.86719 25.8691-7.05078Q25.8789-5.24414 25.332-3.6084Q24.7852-1.97266 23.7842-0.610352Q22.7832 0.751953 21.4209 1.74805Q20.0586 2.74414 18.4229 3.2959Q16.7871 3.84766 14.9707 3.84766ZM9.19922-7.05078Q9.19922-6.66992 9.45801-6.4209Q9.7168-6.17188 10.1172-6.17188L14.0625-6.17188L14.0625-2.2168Q14.0625-1.81641 14.3115-1.55762Q14.5605-1.29883 14.9512-1.29883Q15.3516-1.29883 15.6104-1.55273Q15.8691-1.80664 15.8691-2.2168L15.8691-6.17188L19.8242-6.17188Q20.2246-6.17188 20.4785-6.4209Q20.7324-6.66992 20.7324-7.05078Q20.7324-7.46094 20.4785-7.71484Q20.2246-7.96875 19.8242-7.96875L15.8691-7.96875L15.8691-11.9141Q15.8691-12.3242 15.6104-12.583Q15.3516-12.8418 14.9512-12.8418Q14.5605-12.8418 14.3115-12.583Q14.0625-12.3242 14.0625-11.9141L14.0625-7.96875L10.1172-7.96875Q9.70703-7.96875 9.45312-7.71484Q9.19922-7.46094 9.19922-7.05078Z"/>
  </g>
  <text style="stroke:none;fill:black;font-family:sans-serif;font-size:13;font-weight:bold;" transform="matrix(1 0 0 1 263 1953)">Design Variations</text>
  <text style="stroke:none;fill:black;font-family:sans-serif;font-size:13;" transform="matrix(1 0 0 1 263 1971)">Symbols are supported in up to nine weights and three scales.</text>
  <text style="stroke:none;fill:black;font-family:sans-serif;font-size:13;" transform="matrix(1 0 0 1 263 1989)">For optimal layout with text and other symbols, vertically align</text>
  <text style="stroke:none;fill:black;font-family:sans-serif;font-size:13;" transform="matrix(1 0 0 1 263 2007)">symbols with the adjacent text.</text>
  <line style="fill:none;stroke:#00AEEF;stroke-width:0.5;opacity:1.0;" x1="776" x2="776" y1="1919" y2="1933"/>
  <g transform="matrix(1 0 0 1 776 1933)">
   <path d="M3.31055 0.15625Q3.70117 0.15625 3.91602-0.00976562Q4.13086-0.175781 4.26758-0.585938L5.52734-4.0332L11.2891-4.0332L12.5488-0.585938Q12.6855-0.175781 12.9004-0.00976562Q13.1152 0.15625 13.4961 0.15625Q13.8867 0.15625 14.1162-0.0585938Q14.3457-0.273438 14.3457-0.644531Q14.3457-0.869141 14.2383-1.17188L9.6582-13.3691Q9.48242-13.8184 9.17969-14.043Q8.87695-14.2676 8.4082-14.2676Q7.5-14.2676 7.17773-13.3789L2.59766-1.16211Q2.49023-0.859375 2.49023-0.634766Q2.49023-0.263672 2.70996-0.0537109Q2.92969 0.15625 3.31055 0.15625ZM6.00586-5.51758L8.37891-12.0898L8.42773-12.0898L10.8008-5.51758Z"/>
  </g>
  <line style="fill:none;stroke:#00AEEF;stroke-width:0.5;opacity:1.0;" x1="793.197" x2="793.197" y1="1919" y2="1933"/>
  <text style="stroke:none;fill:black;font-family:sans-serif;font-size:13;font-weight:bold;" transform="matrix(1 0 0 1 776 1953)">Margins</text>
  <text style="stroke:none;fill:black;font-family:sans-serif;font-size:13;" transform="matrix(1 0 0 1 776 1971)">Leading and trailing margins on the left and right side of each symbol</text>
  <text style="stroke:none;fill:black;font-family:sans-serif;font-size:13;" transform="matrix(1 0 0 1 776 1989)">can be adjusted by modifying the x-location of the margin guidelines.</text>
  <text style="stroke:none;fill:black;font-family:sans-serif;font-size:13;" transform="matrix(1 0 0 1 776 2007)">Modifications are automatically applied proportionally to all</text>
  <text style="stroke:none;fill:black;font-family:sans-serif;font-size:13;" transform="matrix(1 0 0 1 776 2025)">scales and weights.</text>
  <g transform="matrix(1 0 0 1 1289 1933)">
   <path d="M2.8418 1.86523L4.54102 3.57422Q5.18555 4.22852 5.90332 4.17969Q6.62109 4.13086 7.31445 3.35938L18.0078-8.42773L17.041-9.4043L6.42578 2.27539Q6.16211 2.57812 5.89355 2.61719Q5.625 2.65625 5.27344 2.30469L4.10156 1.14258Q3.75 0.791016 3.79395 0.522461Q3.83789 0.253906 4.14062-0.0195312L15.6152-10.8203L14.6387-11.7871L3.04688-0.898438Q2.30469-0.214844 2.25098 0.498047Q2.19727 1.21094 2.8418 1.86523ZM9.25781-16.3281Q8.94531-16.0254 8.90625-15.6348Q8.86719-15.2441 9.04297-14.9512Q9.21875-14.6777 9.55566-14.541Q9.89258-14.4043 10.3809-14.5215Q11.4746-14.7754 12.5977-14.7314Q13.7207-14.6875 14.7949-13.9844L14.209-12.5293Q13.9551-11.9043 14.0674-11.4404Q14.1797-10.9766 14.5801-10.5664L16.875-8.25195Q17.2363-7.88086 17.5781-7.82227Q17.9199-7.76367 18.3398-7.8418L19.4043-8.03711L20.0684-7.36328L20.0293-6.80664Q20-6.43555 20.1221-6.12305Q20.2441-5.81055 20.6055-5.44922L21.3672-4.70703Q21.7285-4.3457 22.1533-4.33105Q22.5781-4.31641 22.9297-4.66797L25.8398-7.58789Q26.1914-7.93945 26.1816-8.35449Q26.1719-8.76953 25.8105-9.13086L25.0391-9.89258Q24.6875-10.2539 24.3799-10.3857Q24.0723-10.5176 23.7109-10.4883L23.1348-10.4395L22.4902-11.0742L22.7344-12.1973Q22.832-12.6172 22.6953-12.9834Q22.5586-13.3496 22.1191-13.7891L19.9219-15.9766Q18.6719-17.2168 17.2607-17.8369Q15.8496-18.457 14.4189-18.4814Q12.9883-18.5059 11.665-17.959Q10.3418-17.4121 9.25781-16.3281ZM10.752-15.957Q11.6602-16.6211 12.7002-16.9043Q13.7402-17.1875 14.8047-17.085Q15.8691-16.9824 16.8701-16.5137Q17.8711-16.0449 18.7012-15.2051L21.1328-12.793Q21.3086-12.6172 21.3525-12.4512Q21.3965-12.2852 21.3379-12.0312L21.0156-10.5469L22.5195-9.0625L23.5059-9.12109Q23.6914-9.13086 23.7891-9.09668Q23.8867-9.0625 24.0332-8.91602L24.6094-8.33984L22.168-5.89844L21.5918-6.47461Q21.4453-6.62109 21.4062-6.71875Q21.3672-6.81641 21.377-7.01172L21.4453-7.98828L19.9512-9.47266L18.4277-9.21875Q18.1836-9.16992 18.042-9.2041Q17.9004-9.23828 17.7148-9.41406L15.7129-11.416Q15.5176-11.5918 15.4932-11.7529Q15.4688-11.9141 15.5859-12.1875L16.4648-14.2773Q15.293-15.3711 13.8281-15.791Q12.3633-16.2109 10.8398-15.7617Q10.7227-15.7324 10.6885-15.8057Q10.6543-15.8789 10.752-15.957Z"/>
  </g>
  <text style="stroke:none;fill:black;font-family:sans-serif;font-size:13;font-weight:bold;" transform="matrix(1 0 0 1 1289 1953)">Exporting</text>
  <text style="stroke:none;fill:black;font-family:sans-serif;font-size:13;" transform="matrix(1 0 0 1 1289 1971)">Symbols should be outlined when exporting to ensure the</text>
  <text style="stroke:none;fill:black;font-family:sans-serif;font-size:13;" transform="matrix(1 0 0 1 1289 1989)">design is preserved when submitting to Xcode.</text>
  <text id="template-version" style="stroke:none;fill:black;font-family:sans-serif;font-size:13;text-anchor:end;" transform="matrix(1 0 0 1 3036 1933)">Template v.3.0</text>
  <text style="stroke:none;fill:black;font-family:sans-serif;font-size:13;text-anchor:end;" transform="matrix(1 0 0 1 3036 1951)">Requires Xcode 13 or greater</text>
  <text id="descriptive-name" style="stroke:none;fill:black;font-family:sans-serif;font-size:13;text-anchor:end;" transform="matrix(1 0 0 1 3036 1969)">Generated from arrowtriangle.right.fill</text>
  <text style="stroke:none;fill:black;font-family:sans-serif;font-size:13;text-anchor:end;" transform="matrix(1 0 0 1 3036 1987)">Typeset at 100 points</text>
  <text style="stroke:none;fill:black;font-family:sans-serif;font-size:13;" transform="matrix(1 0 0 1 263 726)">Small</text>
  <text style="stroke:none;fill:black;font-family:sans-serif;font-size:13;" transform="matrix(1 0 0 1 263 1156)">Medium</text>
  <text style="stroke:none;fill:black;font-family:sans-serif;font-size:13;" transform="matrix(1 0 0 1 263 1586)">Large</text>
 </g>
 <g id="Guides">
  <g id="H-reference" style="fill:#27AAE1;stroke:none;" transform="matrix(1 0 0 1 339 696)">
   <path d="M0.993347 0L3.6377 0L29.3282-67.1326L30.0301-67.1326L30.0301-70.459L28.1227-70.459ZM11.6882-24.4797L46.9818-24.4797L46.2311-26.7288L12.4382-26.7288ZM55.1193 0L57.7637 0L30.6381-70.459L29.4327-70.459L29.4327-67.1326Z"/>
  </g>
  <line id="Baseline-S" style="fill:none;stroke:#27AAE1;opacity:1;stroke-width:0.5;" x1="263" x2="3036" y1="696" y2="696"/>
  <line id="Capline-S" style="fill:none;stroke:#27AAE1;opacity:1;stroke-width:0.5;" x1="263" x2="3036" y1="625.541" y2="625.541"/>
  <g id="H-reference" style="fill:#27AAE1;stroke:none;" transform="matrix(1 0 0 1 339 1126)">
   <path d="M0.993347 0L3.6377 0L29.3282-67.1326L30.0301-67.1326L30.0301-70.459L28.1227-70.459ZM11.6882-24.4797L46.9818-24.4797L46.2311-26.7288L12.4382-26.7288ZM55.1193 0L57.7637 0L30.6381-70.459L29.4327-70.459L29.4327-67.1326Z"/>
  </g>
  <line id="Baseline-M" style="fill:none;stroke:#27AAE1;opacity:1;stroke-width:0.5;" x1="263" x2="3036" y1="1126" y2="1126"/>
  <line id="Capline-M" style="fill:none;stroke:#27AAE1;opacity:1;stroke-width:0.5;" x1="263" x2="3036" y1="1055.54" y2="1055.54"/>
  <g id="H-reference" style="fill:#27AAE1;stroke:none;" transform="matrix(1 0 0 1 339 1556)">
   <path d="M0.993347 0L3.6377 0L29.3282-67.1326L30.0301-67.1326L30.0301-70.459L28.1227-70.459ZM11.6882-24.4797L46.9818-24.4797L46.2311-26.7288L12.4382-26.7288ZM55.1193 0L57.7637 0L30.6381-70.459L29.4327-70.459L29.4327-67.1326Z"/>
  </g>
  <line id="Baseline-L" style="fill:none;stroke:#27AAE1;opacity:1;stroke-width:0.5;" x1="263" x2="3036" y1="1556" y2="1556"/>
  <line id="Capline-L" style="fill:none;stroke:#27AAE1;opacity:1;stroke-width:0.5;" x1="263" x2="3036" y1="1485.54" y2="1485.54"/>
  <line id="left-margin-Ultralight-S" style="fill:none;stroke:#00AEEF;stroke-width:0.5;opacity:1.0;" x1="520.034" x2="520.034" y1="600.785" y2="720.121"/>
  <line id="right-margin-Ultralight-S" style="fill:none;stroke:#00AEEF;stroke-width:0.5;opacity:1.0;" x1="599.389" x2="599.389" y1="600.785" y2="720.121"/>
  <line id="left-margin-Thin-S" style="fill:none;stroke:#00AEEF;stroke-width:0.5;opacity:1.0;" x1="816.658" x2="816.658" y1="600.785" y2="720.121"/>
  <line id="right-margin-Thin-S" style="fill:none;stroke:#00AEEF;stroke-width:0.5;opacity:1.0;" x1="896.187" x2="896.187" y1="600.785" y2="720.121"/>
  <line id="left-margin-Light-S" style="fill:none;stroke:#00AEEF;stroke-width:0.5;opacity:1.0;" x1="1113.2" x2="1113.2" y1="600.785" y2="720.121"/>
  <line id="right-margin-Light-S" style="fill:none;stroke:#00AEEF;stroke-width:0.5;opacity:1.0;" x1="1193.07" x2="1193.07" y1="600.785" y2="720.121"/>
  <line id="left-margin-Regular-S" style="fill:none;stroke:#00AEEF;stroke-width:0.5;opacity:1.0;" x1="1409.78" x2="1409.78" y1="600.785" y2="720.121"/>
  <line id="right-margin-Regular-S" style="fill:none;stroke:#00AEEF;stroke-width:0.5;opacity:1.0;" x1="1489.91" x2="1489.91" y1="600.785" y2="720.121"/>
  <line id="left-margin-Medium-S" style="fill:none;stroke:#00AEEF;stroke-width:0.5;opacity:1.0;" x1="1706.24" x2="1706.24" y1="600.785" y2="720.121"/>
  <line id="right-margin-Medium-S" style="fill:none;stroke:#00AEEF;stroke-width:0.5;opacity:1.0;" x1="1786.87" x2="1786.87" y1="600.785" y2="720.121"/>
  <line id="left-margin-Semibold-S" style="fill:none;stroke:#00AEEF;stroke-width:0.5;opacity:1.0;" x1="2002.75" x2="2002.75" y1="600.785" y2="720.121"/>
  <line id="right-margin-Semibold-S" style="fill:none;stroke:#00AEEF;stroke-width:0.5;opacity:1.0;" x1="2083.78" x2="2083.78" y1="600.785" y2="720.121"/>
  <line id="left-margin-Bold-S" style="fill:none;stroke:#00AEEF;stroke-width:0.5;opacity:1.0;" x1="2299.21" x2="2299.21" y1="600.785" y2="720.121"/>
  <line id="right-margin-Bold-S" style="fill:none;stroke:#00AEEF;stroke-width:0.5;opacity:1.0;" x1="2380.75" x2="2380.75" y1="600.785" y2="720.121"/>
  <line id="left-margin-Heavy-S" style="fill:none;stroke:#00AEEF;stroke-width:0.5;opacity:1.0;" x1="2595.54" x2="2595.54" y1="600.785" y2="720.121"/>
  <line id="right-margin-Heavy-S" style="fill:none;stroke:#00AEEF;stroke-width:0.5;opacity:1.0;" x1="2677.83" x2="2677.83" y1="600.785" y2="720.121"/>
  <line id="left-margin-Black-S" style="fill:none;stroke:#00AEEF;stroke-width:0.5;opacity:1.0;" x1="2891.92" x2="2891.92" y1="600.785" y2="720.121"/>
  <line id="right-margin-Black-S" style="fill:none;stroke:#00AEEF;stroke-width:0.5;opacity:1.0;" x1="2974.88" x2="2974.88" y1="600.785" y2="720.121"/>
  <line id="left-margin-Ultralight-M" style="fill:none;stroke:#00AEEF;stroke-width:0.5;opacity:1.0;" x1="509.115" x2="509.115" y1="1030.79" y2="1150.12"/>
  <line id="right-margin-Ultralight-M" style="fill:none;stroke:#00AEEF;stroke-width:0.5;opacity:1.0;" x1="610.307" x2="610.307" y1="1030.79" y2="1150.12"/>
  <line id="left-margin-Thin-M" style="fill:none;stroke:#00AEEF;stroke-width:0.5;opacity:1.0;" x1="805.724" x2="805.724" y1="1030.79" y2="1150.12"/>
  <line id="right-margin-Thin-M" style="fill:none;stroke:#00AEEF;stroke-width:0.5;opacity:1.0;" x1="907.12" x2="907.12" y1="1030.79" y2="1150.12"/>
  <line id="left-margin-Light-M" style="fill:none;stroke:#00AEEF;stroke-width:0.5;opacity:1.0;" x1="1102.23" x2="1102.23" y1="1030.79" y2="1150.12"/>
  <line id="right-margin-Light-M" style="fill:none;stroke:#00AEEF;stroke-width:0.5;opacity:1.0;" x1="1204.03" x2="1204.03" y1="1030.79" y2="1150.12"/>
  <line id="left-margin-Regular-M" style="fill:none;stroke:#00AEEF;stroke-width:0.5;opacity:1.0;" x1="1398.79" x2="1398.79" y1="1030.79" y2="1150.12"/>
  <line id="right-margin-Regular-M" style="fill:none;stroke:#00AEEF;stroke-width:0.5;opacity:1.0;" x1="1500.89" x2="1500.89" y1="1030.79" y2="1150.12"/>
  <line id="left-margin-Medium-M" style="fill:none;stroke:#00AEEF;stroke-width:0.5;opacity:1.0;" x1="1695.19" x2="1695.19" y1="1030.79" y2="1150.12"/>
  <line id="right-margin-Medium-M" style="fill:none;stroke:#00AEEF;stroke-width:0.5;opacity:1.0;" x1="1797.92" x2="1797.92" y1="1030.79" y2="1150.12"/>
  <line id="left-margin-Semibold-M" style="fill:none;stroke:#00AEEF;stroke-width:0.5;opacity:1.0;" x1="1991.67" x2="1991.67" y1="1030.79" y2="1150.12"/>
  <line id="right-margin-Semibold-M" style="fill:none;stroke:#00AEEF;stroke-width:0.5;opacity:1.0;" x1="2094.87" x2="2094.87" y1="1030.79" y2="1150.12"/>
  <line id="left-margin-Bold-M" style="fill:none;stroke:#00AEEF;stroke-width:0.5;opacity:1.0;" x1="2288.06" x2="2288.06" y1="1030.79" y2="1150.12"/>
  <line id="right-margin-Bold-M" style="fill:none;stroke:#00AEEF;stroke-width:0.5;opacity:1.0;" x1="2391.89" x2="2391.89" y1="1030.79" y2="1150.12"/>
  <line id="left-margin-Heavy-M" style="fill:none;stroke:#00AEEF;stroke-width:0.5;opacity:1.0;" x1="2584.31" x2="2584.31" y1="1030.79" y2="1150.12"/>
  <line id="right-margin-Heavy-M" style="fill:none;stroke:#00AEEF;stroke-width:0.5;opacity:1.0;" x1="2689.06" x2="2689.06" y1="1030.79" y2="1150.12"/>
  <line id="left-margin-Black-M" style="fill:none;stroke:#00AEEF;stroke-width:0.5;opacity:1.0;" x1="2880.62" x2="2880.62" y1="1030.79" y2="1150.12"/>
  <line id="right-margin-Black-M" style="fill:none;stroke:#00AEEF;stroke-width:0.5;opacity:1.0;" x1="2986.18" x2="2986.18" y1="1030.79" y2="1150.12"/>
  <line id="left-margin-Ultralight-L" style="fill:none;stroke:#00AEEF;stroke-width:0.5;opacity:1.0;" x1="494.464" x2="494.464" y1="1460.79" y2="1580.12"/>
  <line id="right-margin-Ultralight-L" style="fill:none;stroke:#00AEEF;stroke-width:0.5;opacity:1.0;" x1="624.959" x2="624.959" y1="1460.79" y2="1580.12"/>
  <line id="left-margin-Thin-L" style="fill:none;stroke:#00AEEF;stroke-width:0.5;opacity:1.0;" x1="791.062" x2="791.062" y1="1460.79" y2="1580.12"/>
  <line id="right-margin-Thin-L" style="fill:none;stroke:#00AEEF;stroke-width:0.5;opacity:1.0;" x1="921.783" x2="921.783" y1="1460.79" y2="1580.12"/>
  <line id="left-margin-Light-L" style="fill:none;stroke:#00AEEF;stroke-width:0.5;opacity:1.0;" x1="1087.55" x2="1087.55" y1="1460.79" y2="1580.12"/>
  <line id="right-margin-Light-L" style="fill:none;stroke:#00AEEF;stroke-width:0.5;opacity:1.0;" x1="1218.71" x2="1218.71" y1="1460.79" y2="1580.12"/>
  <line id="left-margin-Regular-L" style="fill:none;stroke:#00AEEF;stroke-width:0.5;opacity:1.0;" x1="1384.1" x2="1384.1" y1="1460.79" y2="1580.12"/>
  <line id="right-margin-Regular-L" style="fill:none;stroke:#00AEEF;stroke-width:0.5;opacity:1.0;" x1="1515.59" x2="1515.59" y1="1460.79" y2="1580.12"/>
  <line id="left-margin-Medium-L" style="fill:none;stroke:#00AEEF;stroke-width:0.5;opacity:1.0;" x1="1680.46" x2="1680.46" y1="1460.79" y2="1580.12"/>
  <line id="right-margin-Medium-L" style="fill:none;stroke:#00AEEF;stroke-width:0.5;opacity:1.0;" x1="1812.65" x2="1812.65" y1="1460.79" y2="1580.12"/>
  <line id="left-margin-Semibold-L" style="fill:none;stroke:#00AEEF;stroke-width:0.5;opacity:1.0;" x1="1976.9" x2="1976.9" y1="1460.79" y2="1580.12"/>
  <line id="right-margin-Semibold-L" style="fill:none;stroke:#00AEEF;stroke-width:0.5;opacity:1.0;" x1="2109.63" x2="2109.63" y1="1460.79" y2="1580.12"/>
  <line id="left-margin-Bold-L" style="fill:none;stroke:#00AEEF;stroke-width:0.5;opacity:1.0;" x1="2273.25" x2="2273.25" y1="1460.79" y2="1580.12"/>
  <line id="right-margin-Bold-L" style="fill:none;stroke:#00AEEF;stroke-width:0.5;opacity:1.0;" x1="2406.7" x2="2406.7" y1="1460.79" y2="1580.12"/>
  <line id="left-margin-Heavy-L" style="fill:none;stroke:#00AEEF;stroke-width:0.5;opacity:1.0;" x1="2569.45" x2="2569.45" y1="1460.79" y2="1580.12"/>
  <line id="right-margin-Heavy-L" style="fill:none;stroke:#00AEEF;stroke-width:0.5;opacity:1.0;" x1="2703.93" x2="2703.93" y1="1460.79" y2="1580.12"/>
  <line id="left-margin-Black-L" style="fill:none;stroke:#00AEEF;stroke-width:0.5;opacity:1.0;" x1="2865.7" x2="2865.7" y1="1460.79" y2="1580.12"/>
  <line id="right-margin-Black-L" style="fill:none;stroke:#00AEEF;stroke-width:0.5;opacity:1.0;" x1="3001.1" x2="3001.1" y1="1460.79" y2="1580.12"/>
 </g>
 <g id="Symbols">
  <g id="Black-L" transform="matrix(1 0 0 1 2865.7 1556)">
   <path d="M28.418 16.5039Q30.8105 16.5039 33.0811 15.6494Q35.3516 14.7949 38.4766 13.3301L112.549-22.0703Q117.432-24.4141 119.971-27.6611Q122.51-30.9082 122.51-35.2051Q122.51-39.4531 119.971-42.7002Q117.432-45.9473 112.549-48.291L38.4766-83.6914Q35.3516-85.1562 33.0566-86.0352Q30.7617-86.9141 28.3691-86.9141Q23.4863-86.9141 19.7754-83.3252Q16.0645-79.7363 16.0645-73.3398L16.1133 2.92969Q16.1133 9.375 19.8242 12.9395Q23.5352 16.5039 28.418 16.5039Z"/>
  </g>
  <g id="Heavy-L" transform="matrix(1 0 0 1 2569.45 1556)">
   <path d="M27.1271 16.0774Q29.3587 16.0774 31.4445 15.2691Q33.5304 14.4608 36.3441 13.134L112.491-23.3841Q117.063-25.5783 119.326-28.4794Q121.588-31.3805 121.588-35.2051Q121.588-38.9809 119.326-41.8819Q117.063-44.783 112.491-46.9887L36.3441-83.4953Q33.519-84.8335 31.4144-85.6548Q29.3098-86.4761 27.0782-86.4761Q22.6105-86.4761 19.3375-83.21Q16.0645-79.9438 16.0645-74.1699L16.1133 3.77121Q16.1133 9.58252 19.3863 12.83Q22.6593 16.0774 27.1271 16.0774Z"/>
  </g>
  <g id="Bold-L" transform="matrix(1 0 0 1 2273.25 1556)">
   <path d="M25.6836 15.6006Q27.7344 15.6006 29.6143 14.8438Q31.4941 14.0869 33.96 12.915L112.427-24.8535Q116.65-26.8799 118.604-29.3945Q120.557-31.9092 120.557-35.2051Q120.557-38.4521 118.604-40.9668Q116.65-43.4814 112.427-45.5322L33.96-83.2764Q31.4697-84.4727 29.5776-85.2295Q27.6855-85.9863 25.6348-85.9863Q21.6309-85.9863 18.8477-83.0811Q16.0645-80.1758 16.0645-75.0977L16.1133 4.71191Q16.1133 9.81445 18.8965 12.7075Q21.6797 15.6006 25.6836 15.6006Z"/>
  </g>
  <g id="Semibold-L" transform="matrix(1 0 0 1 1976.9 1556)">
   <path d="M24.688 15.2718Q26.6144 15.2718 28.3524 14.5504Q30.0903 13.829 32.3158 12.764L112.383-25.8667Q116.366-27.7771 118.106-30.0255Q119.846-32.2739 119.846-35.2051Q119.846-38.0875 118.106-40.3358Q116.366-42.5842 112.383-44.5282L32.3158-83.1253Q30.0568-84.2239 28.3112-84.9361Q26.5656-85.6483 24.6391-85.6483Q20.9557-85.6483 18.5101-82.9922Q16.0645-80.336 16.0645-75.7378L16.1133 5.36041Q16.1133 9.97467 18.5589 12.6232Q21.0045 15.2718 24.688 15.2718Z"/>
  </g>
  <g id="Medium-L" transform="matrix(1 0 0 1 1680.46 1556)">
   <path d="M23.9334 15.0223Q25.7652 15.0223 27.3952 14.328Q29.0253 13.6337 31.0692 12.6495L112.349-26.635Q116.151-28.4584 117.729-30.5042Q119.307-32.55 119.307-35.2051Q119.307-37.8113 117.729-39.8571Q116.151-41.9029 112.349-43.7668L31.0692-83.0109Q28.9856-84.0355 27.351-84.7141Q25.7164-85.3928 23.8846-85.3928Q20.443-85.3928 18.2537-82.925Q16.0645-80.4573 16.0645-76.223L16.1133 5.85251Q16.1133 10.096 18.3025 12.5591Q20.4918 15.0223 23.9334 15.0223Z"/>
  </g>
  <g id="Regular-L" transform="matrix(1 0 0 1 1384.1 1556)">
   <path d="M22.9492 14.6973Q24.6582 14.6973 26.1475 14.0381Q27.6367 13.3789 29.4434 12.5L112.305-27.6367Q115.869-29.3457 117.236-31.1279Q118.604-32.9102 118.604-35.2051Q118.604-37.4512 117.236-39.2334Q115.869-41.0156 112.305-42.7734L29.4434-82.8613Q27.5879-83.7891 26.0986-84.4238Q24.6094-85.0586 22.9004-85.0586Q19.7754-85.0586 17.9199-82.8369Q16.0645-80.6152 16.0645-76.8555L16.1133 6.49414Q16.1133 10.2539 17.9688 12.4756Q19.8242 14.6973 22.9492 14.6973Z"/>
  </g>
  <g id="Light-L" transform="matrix(1 0 0 1 1087.55 1556)">
   <path d="M21.9803 14.3646Q23.4016 14.3646 24.6414 13.8187Q25.8812 13.2729 27.491 12.5L113.016-28.772Q115.869-30.1628 117.07-31.6803Q118.271-33.1978 118.271-35.2051Q118.271-37.1635 117.07-38.681Q115.869-40.1985 113.016-41.6229L27.491-82.8613Q25.8469-83.6678 24.6075-84.1969Q23.3681-84.726 21.9467-84.726Q19.2604-84.726 17.6624-82.8369Q16.0645-80.9479 16.0645-77.6878L16.098 7.32651Q16.098 10.5865 17.6964 12.4756Q19.2947 14.3646 21.9803 14.3646Z"/>
  </g>
  <g id="Thin-L" transform="matrix(1 0 0 1 791.062 1556)">
   <path d="M20.6993 13.9236Q21.7407 13.9236 22.6498 13.5281Q23.5588 13.1325 24.9084 12.5L113.957-30.2734Q115.869-31.2439 116.85-32.4108Q117.83-33.5777 117.83-35.2051Q117.83-36.7836 116.85-37.9505Q115.869-39.1174 113.957-40.1016L24.9084-82.8613Q23.5451-83.5075 22.636-83.8963Q21.727-84.285 20.6856-84.285Q18.5799-84.285 17.3222-82.8369Q16.0645-81.3889 16.0645-78.7888L16.0782 8.42743Q16.0782 11.0275 17.3359 12.4756Q18.5936 13.9236 20.6993 13.9236Z"/>
  </g>
  <g id="Ultralight-L" transform="matrix(1 0 0 1 494.464 1556)">
   <path d="M20.0432 13.6986Q20.8893 13.6986 21.6293 13.3797Q22.3694 13.0608 23.5855 12.5L114.439-31.0425Q115.869-31.7978 116.737-32.7854Q117.605-33.773 117.605-35.2051Q117.605-36.5883 116.737-37.5759Q115.869-38.5635 114.439-39.3227L23.5855-82.8613Q22.3656-83.4259 21.6255-83.7429Q20.8855-84.0599 20.0394-84.0599Q18.2312-84.0599 17.1478-82.8369Q16.0645-81.6139 16.0645-79.3533L16.0675 8.992Q16.0675 11.2526 17.1513 12.4756Q18.235 13.6986 20.0432 13.6986Z"/>
  </g>
  <g id="Black-M" transform="matrix(1 0 0 1 2880.62 1126)">
   <path d="M22.8027 5.12695Q24.6582 5.12695 26.5137 4.46777Q28.3691 3.80859 30.957 2.53906L87.5-24.3164Q91.3086-26.123 93.457-28.8574Q95.6055-31.5918 95.6055-35.2051Q95.6055-38.8184 93.457-41.5527Q91.3086-44.2871 87.5-46.0938L30.957-72.9492Q28.3691-74.1699 26.5137-74.8535Q24.6582-75.5371 22.7539-75.5371Q18.7988-75.5371 15.625-72.6074Q12.4512-69.6777 12.4512-64.3066L12.4512-6.10352Q12.4512-0.732422 15.625 2.19727Q18.7988 5.12695 22.8027 5.12695Z"/>
  </g>
  <g id="Heavy-M" transform="matrix(1 0 0 1 2584.31 1126)">
   <path d="M21.7537 4.7699Q23.5176 4.7699 25.2403 4.13933Q26.963 3.50876 29.2976 2.35443L87.3039-25.3418Q90.9515-27.0912 92.8696-29.5376Q94.7876-31.9839 94.7876-35.2051Q94.7876-38.4262 92.8696-40.8726Q90.9515-43.3189 87.3039-45.0569L29.2976-72.7646Q26.9516-73.8701 25.2285-74.5251Q23.5054-75.1801 21.7049-75.1801Q18.0496-75.1801 15.2504-72.4922Q12.4512-69.8044 12.4512-64.9521L12.4626-5.45807Q12.4626-0.605774 15.2618 2.08206Q18.0611 4.7699 21.7537 4.7699Z"/>
  </g>
  <g id="Bold-M" transform="matrix(1 0 0 1 2288.06 1126)">
   <path d="M20.5811 4.37012Q22.2412 4.37012 23.8159 3.77197Q25.3906 3.17383 27.4414 2.14844L87.085-26.4893Q90.5518-28.1738 92.2119-30.2979Q93.8721-32.4219 93.8721-35.2051Q93.8721-37.9883 92.2119-40.1123Q90.5518-42.2363 87.085-43.8965L27.4414-72.5586Q25.3662-73.5352 23.7915-74.1577Q22.2168-74.7803 20.5322-74.7803Q17.2119-74.7803 14.8315-72.3633Q12.4512-69.9463 12.4512-65.6738L12.4756-4.73633Q12.4756-0.463867 14.856 1.95312Q17.2363 4.37012 20.5811 4.37012Z"/>
  </g>
  <g id="Semibold-M" transform="matrix(1 0 0 1 1991.67 1126)">
   <path d="M19.7723 4.0947Q21.3615 4.0947 22.834 3.51868Q24.3065 2.94266 26.162 2.00653L86.9339-27.2804Q90.2763-28.92 91.7587-30.822Q93.2411-32.724 93.2411-35.2051Q93.2411-37.6862 91.7587-39.5882Q90.2763-41.4902 86.9339-43.0969L26.162-72.4167Q24.2729-73.304 22.8004-73.9044Q21.328-74.5049 19.7235-74.5049Q16.6344-74.5049 14.5428-72.2744Q12.4512-70.0439 12.4512-66.1713L12.4847-4.23889Q12.4847-0.366211 14.5763 1.86424Q16.6679 4.0947 19.7723 4.0947Z"/>
  </g>
  <g id="Medium-M" transform="matrix(1 0 0 1 1695.19 1126)">
   <path d="M19.1589 3.88565Q20.694 3.88565 22.089 3.3268Q23.484 2.76794 25.1915 1.89819L86.8195-27.8801Q90.0673-29.4861 91.415-31.2195Q92.7628-32.9529 92.7628-35.2051Q92.7628-37.4573 91.415-39.1907Q90.0673-40.9241 86.8195-42.4904L25.1915-72.3083Q23.4444-73.1293 22.0493-73.7125Q20.6543-74.2958 19.1101-74.2958Q16.1964-74.2958 14.3238-72.2069Q12.4512-70.118 12.4512-66.5489L12.4908-3.86124Q12.4908-0.292206 14.3635 1.79672Q16.2361 3.88565 19.1589 3.88565Z"/>
  </g>
  <g id="Regular-M" transform="matrix(1 0 0 1 1398.79 1126)">
   <path d="M18.3594 3.61328Q19.8242 3.61328 21.1182 3.07617Q22.4121 2.53906 23.9258 1.75781L86.6699-28.6621Q89.7949-30.2246 90.9668-31.7383Q92.1387-33.252 92.1387-35.2051Q92.1387-37.1582 90.9668-38.6719Q89.7949-40.1855 86.6699-41.6992L23.9258-72.168Q22.3633-72.9004 21.0693-73.4619Q19.7754-74.0234 18.3105-74.0234Q15.625-74.0234 14.0381-72.1191Q12.4512-70.2148 12.4512-67.041L12.5-3.36914Q12.5-0.195312 14.0869 1.70898Q15.6738 3.61328 18.3594 3.61328Z"/>
  </g>
  <g id="Light-M" transform="matrix(1 0 0 1 1102.23 1126)">
   <path d="M17.4812 3.32565Q18.7042 3.32565 19.7712 2.87933Q20.8382 2.43301 22.1703 1.75781L87.2902-29.6913Q89.7949-30.9509 90.8154-32.23Q91.8358-33.5091 91.8358-35.2051Q91.8358-36.8858 90.8154-38.1725Q89.7949-39.4592 87.2902-40.67L22.1703-72.168Q20.8038-72.8096 19.7372-73.2651Q18.6707-73.7206 17.4477-73.7206Q15.1711-73.7206 13.8111-72.1191Q12.4512-70.5177 12.4512-67.7826L12.4847-2.62756Q12.4847 0.107574 13.8447 1.71661Q15.2046 3.32565 17.4812 3.32565Z"/>
  </g>
  <g id="Thin-M" transform="matrix(1 0 0 1 805.724 1126)">
   <path d="M16.32 2.94571Q17.2226 2.94571 17.9893 2.61917Q18.7561 2.29263 19.8479 1.75781L88.1111-31.0524Q89.7949-31.9122 90.6151-32.8808Q91.4352-33.8493 91.4352-35.2051Q91.4352-36.5257 90.6151-37.5118Q89.7949-38.4979 88.1111-39.3089L19.8479-72.168Q18.7424-72.6898 17.9756-73.0049Q17.2089-73.32 16.3071-73.32Q14.5706-73.32 13.5109-72.1191Q12.4512-70.9183 12.4512-68.7637L12.4649-1.64642Q12.4649 0.508118 13.5246 1.72691Q14.5844 2.94571 16.32 2.94571Z"/>
  </g>
  <g id="Ultralight-M" transform="matrix(1 0 0 1 509.115 1126)">
   <path d="M15.7257 2.7504Q16.4642 2.7504 17.0769 2.48566Q17.6895 2.22092 18.6584 1.75781L88.5315-31.7497Q89.7949-32.4043 90.5128-33.2142Q91.2308-34.024 91.2308-35.2051Q91.2308-36.3411 90.5128-37.1735Q89.7949-38.0058 88.5315-38.6116L18.6584-72.168Q17.6857-72.628 17.0731-72.8718Q16.4604-73.1155 15.7219-73.1155Q14.2624-73.1155 13.3568-72.1191Q12.4512-71.1227 12.4512-69.2657L12.4542-1.14441Q12.4542 0.712585 13.3602 1.73149Q14.2662 2.7504 15.7257 2.7504Z"/>
  </g>
  <g id="Black-S" transform="matrix(1 0 0 1 2891.92 696)">
   <path d="M18.1152-3.51562Q19.6289-3.51562 21.0938-4.05273Q22.5586-4.58984 24.6582-5.56641L68.6523-26.416Q71.6797-27.832 73.4131-30.0537Q75.1465-32.2754 75.1465-35.2051Q75.1465-38.1348 73.4131-40.3564Q71.6797-42.5781 68.6523-43.9941L24.6582-64.8438Q22.5586-65.8203 21.0938-66.3574Q19.6289-66.8945 18.1152-66.8945Q14.9414-66.8945 12.3535-64.5508Q9.76562-62.207 9.76562-57.8613L9.76562-12.5488Q9.76562-8.25195 12.3535-5.88379Q14.9414-3.51562 18.1152-3.51562Z"/>
  </g>
  <g id="Heavy-S" transform="matrix(1 0 0 1 2595.54 696)">
   <path d="M17.3317-3.78036Q18.7874-3.78036 20.1717-4.30603Q21.5561-4.8317 23.4596-5.72739L68.399-27.1652Q71.3684-28.5698 72.9233-30.5725Q74.4781-32.5752 74.4781-35.2051Q74.4781-37.8349 72.9233-39.8376Q71.3684-41.8404 68.399-43.2449L23.4596-64.6828Q21.5446-65.5785 20.1603-66.1041Q18.7759-66.6298 17.3203-66.6298Q14.3539-66.6298 12.0598-64.4531Q9.76562-62.2765 9.76562-58.3107L9.77707-12.0995Q9.77707-8.17108 12.0712-5.97572Q14.3654-3.78036 17.3317-3.78036Z"/>
  </g>
  <g id="Bold-S" transform="matrix(1 0 0 1 2299.21 696)">
   <path d="M16.4551-4.07715Q17.8467-4.07715 19.1406-4.58984Q20.4346-5.10254 22.1191-5.9082L68.1152-28.0029Q71.0205-29.3945 72.3755-31.1523Q73.7305-32.9102 73.7305-35.2051Q73.7305-37.5 72.3755-39.2578Q71.0205-41.0156 68.1152-42.4072L22.1191-64.502Q20.4102-65.3076 19.1162-65.8203Q17.8223-66.333 16.4307-66.333Q13.6963-66.333 11.731-64.3433Q9.76562-62.3535 9.76562-58.8135L9.79004-11.5967Q9.79004-8.08105 11.7554-6.0791Q13.7207-4.07715 16.4551-4.07715Z"/>
  </g>
  <g id="Semibold-S" transform="matrix(1 0 0 1 2002.75 696)">
   <path d="M15.8508-4.28162Q17.1982-4.28162 18.4299-4.78554Q19.6617-5.28946 21.1952-6.03256L67.9199-28.5805Q70.7802-29.9637 71.9975-31.5525Q73.2147-33.1413 73.2147-35.2051Q73.2147-37.2688 71.9975-38.858Q70.7802-40.4472 67.9199-41.8297L21.1952-64.3776Q19.6281-65.1207 18.3964-65.6246Q17.1646-66.1285 15.8173-66.1285Q13.2431-66.1285 11.5044-64.2677Q9.76562-62.4069 9.76562-59.1599L9.79919-11.2503Q9.79919-8.01849 11.5379-6.15005Q13.2767-4.28162 15.8508-4.28162Z"/>
  </g>
  <g id="Medium-S" transform="matrix(1 0 0 1 1706.24 696)">
   <path d="M15.3923-4.43649Q16.7061-4.43649 17.8905-4.93355Q19.075-5.4306 20.4941-6.12717L67.7711-29.0184Q70.5986-30.3947 71.7113-31.8554Q72.8241-33.316 72.8241-35.2051Q72.8241-37.0941 71.7113-38.5548Q70.5986-40.0154 67.7711-41.3918L20.4941-64.283Q19.0353-64.9796 17.8505-65.4766Q16.6656-65.9737 15.3526-65.9737Q12.899-65.9737 11.3323-64.2105Q9.76562-62.4474 9.76562-59.4231L9.8053-10.9871Q9.8053-7.97195 11.3724-6.20422Q12.9395-4.43649 15.3923-4.43649Z"/>
  </g>
  <g id="Regular-S" transform="matrix(1 0 0 1 1409.78 696)">
   <path d="M14.7949-4.63867Q16.0645-4.63867 17.1875-5.12695Q18.3105-5.61523 19.5801-6.25L67.5781-29.5898Q70.3613-30.957 71.3379-32.251Q72.3145-33.5449 72.3145-35.2051Q72.3145-36.8652 71.3379-38.1592Q70.3613-39.4531 67.5781-40.8203L19.5801-64.1602Q18.2617-64.7949 17.1387-65.2832Q16.0156-65.7715 14.7461-65.7715Q12.4512-65.7715 11.1084-64.1357Q9.76562-62.5 9.76562-59.7656L9.81445-10.6445Q9.81445-7.91016 11.1572-6.27441Q12.5-4.63867 14.7949-4.63867Z"/>
  </g>
  <g id="Light-S" transform="matrix(1 0 0 1 1113.2 696)">
   <path d="M14.0228-4.89578Q15.0803-4.89578 15.9992-5.3009Q16.9182-5.70602 18.0359-6.25L68.1381-30.4977Q70.3613-31.5926 71.2093-32.6897Q72.0573-33.7868 72.0573-35.2051Q72.0573-36.6234 71.2093-37.7205Q70.3613-38.8176 68.1381-39.9124L18.0359-64.1602Q16.8846-64.7041 15.9657-65.1093Q15.0467-65.5144 13.9893-65.5144Q12.0422-65.5144 10.9039-64.1357Q9.76562-62.7571 9.76562-60.4317L9.79919-9.97849Q9.79919-7.65305 10.9375-6.27441Q12.0758-4.89578 14.0228-4.89578Z"/>
  </g>
  <g id="Thin-S" transform="matrix(1 0 0 1 816.658 696)">
   <path d="M13.002-5.23605Q13.7794-5.23605 14.4279-5.53093Q15.0764-5.82581 15.9943-6.25L68.8789-31.6994Q70.3613-32.4333 71.0392-33.2703Q71.7171-34.1072 71.7171-35.2051Q71.7171-36.3029 71.0392-37.1399Q70.3613-37.9768 68.8789-38.7108L15.9943-64.1602Q15.0627-64.5844 14.4142-64.8792Q13.7657-65.1741 12.9883-65.1741Q11.5021-65.1741 10.6339-64.1357Q9.76562-63.0974 9.76562-61.3121L9.77936-9.09805Q9.77936-7.31277 10.6476-6.27441Q11.5158-5.23605 13.002-5.23605Z"/>
  </g>
  <g id="Ultralight-S" transform="matrix(1 0 0 1 520.034 696)">
   <path d="M12.4794-5.41077Q13.1126-5.41077 13.6227-5.64919Q14.1327-5.8876 14.9483-6.25L69.2581-32.3143Q70.3613-32.8644 70.9518-33.5678Q71.5424-34.2712 71.5424-35.2051Q71.5424-36.1389 70.9518-36.8423Q70.3613-37.5458 69.2581-38.0959L14.9483-64.1602Q14.1296-64.5226 13.6196-64.761Q13.1096-64.9994 12.4756-64.9994Q11.2251-64.9994 10.4954-64.1357Q9.76562-63.2721 9.76562-61.7638L9.76868-8.64639Q9.76868-7.13806 10.4984-6.27441Q11.2282-5.41077 12.4794-5.41077Z"/>
  </g>
 </g>
</svg>
